<?xml version="1.0" encoding="utf-8"?>
<!-- Generator: Adobe Illustrator 16.0.0, SVG Export Plug-In . SVG Version: 6.00 Build 0)  -->
<!DOCTYPE svg PUBLIC "-//W3C//DTD SVG 1.1//EN" "http://www.w3.org/Graphics/SVG/1.1/DTD/svg11.dtd">
<svg version="1.1" id="Layer_1" xmlns="http://www.w3.org/2000/svg" xmlns:xlink="http://www.w3.org/1999/xlink" x="0px" y="0px"
	 width="2850px" height="2005.158px" viewBox="0 0 2850 2005.158" enable-background="new 0 0 2850 2005.158" xml:space="preserve">
<g>
	<defs>
		<rect id="SVGID_1_" width="2850" height="2005.158"/>
	</defs>
	<clipPath id="SVGID_2_">
		<use xlink:href="#SVGID_1_"  overflow="visible"/>
	</clipPath>
	<linearGradient id="SVGID_3_" gradientUnits="userSpaceOnUse" x1="1424.9995" y1="23.4443" x2="1424.9995" y2="1344.9562">
		<stop  offset="0" style="stop-color:#AF203D"/>
		<stop  offset="1" style="stop-color:#F9CF79"/>
	</linearGradient>
	<rect clip-path="url(#SVGID_2_)" fill="url(#SVGID_3_)" width="2850" height="2005.158"/>
	<ellipse clip-path="url(#SVGID_2_)" fill="#FFF8DB" cx="850.22" cy="1364.747" rx="507.4" ry="509.985"/>
	<path clip-path="url(#SVGID_2_)" fill="#C97150" d="M1205.151,1300.57c0.083-7.367,4.49-14.154,11.366-17.51l24.072-11.771
		c6.892-3.355,11.282-10.149,11.365-17.519l1.077-99.119c0.091-7.66,4.837-14.662,12.111-17.867l21.778-9.608
		c5.426-2.39,9.535-6.91,11.241-12.406l8.168-26.109c2.601-8.334,10.57-14.119,19.55-14.204l55.625-0.499
		c1.904-0.017,3.802-0.301,5.641-0.832l59.908-17.243c1.83-0.525,3.728-0.808,5.633-0.824l23.211-0.2
		c11.166-0.117,20.112,8.533,19.996,19.292l-2.907,267.343c-0.074,7.036,3.786,13.498,10.098,16.894l3.761,2.016
		c13.387,7.192,30.152-2.348,30.318-17.252l0.331-31.289c0.051-3.946,1.317-7.783,3.653-11.056l20.609-28.767
		c2.336-3.264,3.612-7.11,3.646-11.031l0.621-57.666c0.133-10.766,9.27-19.565,20.428-19.673l39.554-0.359
		c11.158-0.092,20.104,8.551,19.989,19.3l-1.426,130.7c-0.049,5.162,2.03,10.1,5.774,13.722l26.814,25.86
		c3.744,3.63,5.815,8.559,5.766,13.736l-1.673,154.014c-0.116,10.757,8.83,19.399,19.996,19.299l17.445-0.158
		c11.166-0.101,20.113,8.534,19.997,19.291l-0.307,28.166c-0.008,0.8,0.009,1.491,0.108,2.281
		c1.101,9.275,12.035,67.622,112.766,66.715l-653.915,19.601l-129.068,1.174c0,0,106.811-18.059,108.044-131.657l1.293-119.011
		l31.163-27.343L1205.151,1300.57z"/>
	<path clip-path="url(#SVGID_2_)" fill="#C97150" d="M2975.225,1936.846l-69.186-296.587l-337.975,13.996
		c0,0-64.761-7.144-165.407-11.947c-15.757-0.758-80.154,12.279-97.55,11.681c-122.706-4.245-235.853-17.55-396.191,0.267
		c-328.332,36.502-155.17,6.128-309.884,0.384c-61.3-2.281-230.809,5.878-415.27,16.335c-12.259,0.699-63.909,9.474-76.276,10.191
		c-77.501,4.472-153.38,8.617-222.681,12.205c-10.206,0.533-261.35-41.979-261.35-41.979
		c-233.269-11.132-272.037,46.81-491.952,46.81c-80.583,0-179.325,23.736-183.906,23.229l-23.948,80.903"/>
	<path clip-path="url(#SVGID_2_)" fill="#A9373B" d="M1599.032,1751.053c0,0-251.277-25.686-589.575-36.951
		c-40.424-1.349-218.805,27.992-252.403,12.355c-27.303-12.706-185.231-14.17-395.497-1.065
		c-24.229,1.507-84.791,14.771-126.177,17.41c-91.833,5.86-174.818-2.69-254.475,8.251v139.557l1604.904-62.951"/>
	<path clip-path="url(#SVGID_2_)" fill="#BD6D4D" d="M1060.344,1678.15"/>
	<path clip-path="url(#SVGID_2_)" fill="#C97150" d="M-152.444,1736.131c12.202-3.113,111.747-8.866,120.9-9.398
		c0.522-0.024,0.903-0.059,1.417-0.142c9.518-1.516,107.986-19.058,102.32-92.868l-6.951-90.576
		c-0.771-9.983,4.689-19.033,12.989-21.556l13.776-4.163c8.3-2.515,13.75-11.565,12.988-21.557l-5.268-68.597
		c-0.746-9.725,4.432-18.624,12.459-21.381l8.789-2.979c10.942-3.764,22.308,5.303,23.327,18.591l0,0
		c0.721,9.424,6.809,17.243,14.835,19.075l22.341,5.045c8.027,1.798,14.116,9.625,14.836,19.058l1.367,17.784
		c0.687,8.951,6.246,16.527,13.792,18.775l21.008,6.244c7.546,2.249,13.104,9.816,13.792,18.783l6.585,85.832
		c0.381,4.953,2.22,9.565,5.269,13.12c9.99,11.656,36.017,41.131,78.354,83.284"/>
	<g clip-path="url(#SVGID_2_)">
		<polygon opacity="0.93" fill="#FFFFFF" points="2590.033,506.83 2587.83,510.053 2585.469,506.93 2587.357,510.893 
			2585.645,514.956 2587.929,511.885 2590.198,514.856 2588.401,511.043 		"/>
		<polygon opacity="0.93" fill="#FFFFFF" points="1496.182,1028.098 1492.28,1031.354 1488.188,1028.272 1491.436,1032.193 
			1488.37,1036.299 1492.413,1033.186 1496.355,1036.124 1493.258,1032.344 		"/>
		<polygon opacity="0.93" fill="#FFFFFF" points="2319.969,1015.684 2312.48,1021.936 2304.643,1016.025 2310.865,1023.551 
			2304.983,1031.428 2312.746,1025.45 2320.316,1031.087 2314.361,1023.827 		"/>
		<polygon opacity="0.93" fill="#FFFFFF" points="2054.676,1073.758 2050.766,1077.012 2046.682,1073.933 2049.921,1077.861 
			2046.856,1081.967 2050.907,1078.844 2054.85,1081.783 2051.743,1078.004 		"/>
		<polygon opacity="0.93" fill="#FFFFFF" points="2342.55,638.462 2338.648,641.718 2334.564,638.638 2337.812,642.56 
			2334.747,646.663 2338.79,643.55 2342.731,646.489 2339.635,642.7 		"/>
		<polygon opacity="0.93" fill="#FFFFFF" points="800.021,864.869 796.111,868.125 792.028,865.044 795.275,868.973 792.21,873.078 
			796.252,869.955 800.195,872.904 797.097,869.115 		"/>
		<polygon opacity="0.93" fill="#FFFFFF" points="1681.521,476.391 1677.611,479.646 1673.527,476.565 1676.774,480.496 
			1673.709,484.601 1677.752,481.478 1681.694,484.417 1678.597,480.638 		"/>
		<polygon opacity="0.93" fill="#FFFFFF" points="1920.961,533.206 1917.713,529.277 1920.778,525.181 1916.868,528.437 
			1912.793,525.356 1915.891,529.427 1912.967,533.39 1916.736,530.267 		"/>
		<polygon opacity="0.93" fill="#FFFFFF" points="137.451,877.007 134.205,873.078 137.269,868.973 133.359,872.238 
			129.284,869.157 132.382,873.22 129.458,877.182 133.227,874.068 		"/>
		<polygon opacity="0.93" fill="#FFFFFF" points="167.918,1113.13 164.671,1109.209 167.736,1105.104 163.835,1108.36 
			159.75,1105.279 162.849,1109.343 159.925,1113.305 163.694,1110.19 		"/>
		<polygon opacity="0.93" fill="#FFFFFF" points="385.788,861.704 382.549,857.775 385.614,853.67 381.704,856.935 377.62,853.854 
			380.726,857.917 377.794,861.88 381.563,858.765 		"/>
		<polygon opacity="0.93" fill="#FFFFFF" points="444.022,891.179 440.783,887.257 443.848,883.144 439.938,886.408 
			435.854,883.327 438.961,887.39 436.028,891.353 439.797,888.239 		"/>
		<polygon opacity="0.93" fill="#FFFFFF" points="657.865,716.835 654.626,712.914 657.691,708.808 653.782,712.064 
			649.697,708.983 652.804,713.054 649.879,717.017 653.64,713.896 		"/>
		<polygon opacity="0.93" fill="#FFFFFF" points="2553.734,1148.815 2550.494,1144.885 2553.561,1140.78 2549.658,1144.045 
			2545.565,1140.964 2548.673,1145.027 2545.748,1148.99 2549.51,1145.875 		"/>
		<polygon opacity="0.93" fill="#FFFFFF" points="2710.146,673.607 2706.899,669.684 2709.963,665.581 2706.055,668.836 
			2701.979,665.755 2705.076,669.818 2702.145,673.79 2705.922,670.667 		"/>
		<polygon opacity="0.93" fill="#FFFFFF" points="2774.643,704.171 2771.403,700.241 2774.471,696.145 2770.567,699.4 
			2766.476,696.319 2769.583,700.383 2766.658,704.346 2770.419,701.232 		"/>
		<polygon opacity="0.93" fill="#FFFFFF" points="2541.666,792.875 2538.426,788.944 2541.49,784.849 2537.582,788.104 
			2533.497,785.023 2536.603,789.086 2533.671,793.05 2537.44,789.936 		"/>
		<polygon opacity="0.93" fill="#FFFFFF" points="2270.78,424.004 2267.533,420.083 2270.598,415.978 2266.688,419.233 
			2262.613,416.152 2265.71,420.225 2262.786,424.188 2266.555,421.065 		"/>
		<polygon opacity="0.93" fill="#FFFFFF" points="2670.742,320.805 2667.502,316.884 2670.566,312.771 2666.657,316.034 
			2662.573,312.954 2665.679,317.017 2662.747,320.979 2666.516,317.866 		"/>
		<polygon opacity="0.93" fill="#FFFFFF" points="1033.033,1103.23 1027.185,1108.109 1021.08,1103.497 1025.926,1109.375 
			1021.345,1115.512 1027.4,1110.849 1033.298,1115.253 1028.659,1109.584 		"/>
		<polygon opacity="0.93" fill="#FFFFFF" points="2194.174,800.069 2188.333,804.938 2182.228,800.334 2187.073,806.204 
			2182.492,812.341 2188.54,807.678 2194.438,812.075 2189.798,806.413 		"/>
		<polygon opacity="0.93" fill="#FFFFFF" points="1353.628,341.978 1349.718,345.242 1345.634,342.161 1348.873,346.082 
			1345.809,350.188 1349.858,347.073 1353.802,350.004 1350.704,346.224 		"/>
		<polygon opacity="0.93" fill="#FFFFFF" points="1020.268,369.878 1018.072,373.1 1015.712,369.978 1017.592,373.933 
			1015.886,378.003 1018.164,374.931 1020.442,377.904 1018.636,374.091 		"/>
		<polygon opacity="0.93" fill="#FFFFFF" points="1267.345,113.798 1263.436,117.054 1259.359,113.981 1262.599,117.903 
			1259.533,122.007 1263.584,118.885 1267.527,121.824 1264.421,118.045 		"/>
		<polygon opacity="0.93" fill="#FFFFFF" points="750.211,878.732 742.714,884.976 734.887,879.064 741.099,886.6 735.218,894.476 
			742.988,888.489 750.551,894.135 744.595,886.874 		"/>
		<polygon opacity="0.93" fill="#FFFFFF" points="484.911,936.804 481.008,940.06 476.917,936.979 480.164,940.91 477.099,945.005 
			481.141,941.892 485.084,944.831 481.986,941.051 		"/>
		<polygon opacity="0.93" fill="#FFFFFF" points="772.792,501.502 768.883,504.766 764.808,501.685 768.046,505.606 
			764.981,509.711 769.032,506.598 772.975,509.537 769.869,505.748 		"/>
		<polygon opacity="0.93" fill="#FFFFFF" points="1241.591,773.542 1235.751,778.422 1229.638,773.808 1234.492,779.686 
			1229.903,785.823 1235.958,781.16 1241.856,785.557 1237.217,779.895 		"/>
		<polygon opacity="0.93" fill="#FFFFFF" points="1553.297,639.279 1550.051,635.349 1553.115,631.245 1549.205,634.5 
			1545.13,631.419 1548.229,635.49 1545.305,639.454 1549.073,636.331 		"/>
		<polygon opacity="0.93" fill="#FFFFFF" points="1813.281,555.003 1810.043,551.074 1813.107,546.979 1809.197,550.234 
			1805.113,547.153 1808.22,551.224 1805.287,555.188 1809.057,552.064 		"/>
		<polygon opacity="0.93" fill="#FFFFFF" points="1855.536,983.055 1852.306,979.134 1855.362,975.029 1851.46,978.284 
			1847.377,975.203 1850.475,979.274 1847.551,983.238 1851.319,980.116 		"/>
		<polygon opacity="0.93" fill="#FFFFFF" points="1735.307,815.938 1732.06,812.008 1735.124,807.902 1731.215,811.158 
			1727.139,808.079 1730.237,812.149 1727.313,816.113 1731.082,812.99 		"/>
		<polygon opacity="0.93" fill="#FFFFFF" points="1782.995,783.617 1779.757,779.686 1782.822,775.583 1778.912,778.838 
			1774.828,775.757 1777.935,779.82 1775.002,783.792 1778.771,780.668 		"/>
		<polygon opacity="0.93" fill="#FFFFFF" points="1502.361,978.958 1499.123,975.029 1502.188,970.923 1498.277,974.179 
			1494.193,971.1 1497.3,975.17 1494.367,979.134 1498.137,976.011 		"/>
		<polygon opacity="0.93" fill="#FFFFFF" points="1308.614,1076.562 1305.367,1072.634 1308.432,1068.528 1304.53,1071.792 
			1300.447,1068.713 1303.545,1072.773 1300.621,1076.737 1304.39,1073.624 		"/>
		<polygon opacity="0.93" fill="#FFFFFF" points="983.977,1011.854 980.73,1007.934 983.795,1003.828 979.894,1007.084 
			975.809,1004.003 978.907,1008.073 975.983,1012.037 979.752,1008.915 		"/>
		<polygon opacity="0.93" fill="#FFFFFF" points="1140.381,536.653 1137.142,532.725 1140.207,528.627 1136.297,531.882 
			1132.213,528.802 1135.312,532.865 1132.387,536.828 1136.156,533.714 		"/>
		<polygon opacity="0.93" fill="#FFFFFF" points="1204.886,567.21 1201.639,563.289 1204.704,559.184 1200.802,562.447 
			1196.719,559.358 1199.816,563.429 1196.893,567.393 1200.662,564.279 		"/>
		<polygon opacity="0.93" fill="#FFFFFF" points="971.899,655.914 968.661,651.992 971.726,647.887 967.823,651.152 
			963.732,648.062 966.838,652.134 963.914,656.098 967.675,652.982 		"/>
		<polygon opacity="0.93" fill="#FFFFFF" points="701.015,287.051 697.776,283.122 700.841,279.017 696.931,282.281 692.847,279.2 
			695.954,283.264 693.021,287.227 696.79,284.112 		"/>
		<polygon opacity="0.93" fill="#FFFFFF" points="1100.976,183.852 1097.737,179.922 1100.802,175.818 1096.9,179.082 
			1092.808,175.993 1095.914,180.064 1092.99,184.027 1096.759,180.905 		"/>
		<polygon opacity="0.93" fill="#FFFFFF" points="624.416,663.108 618.567,667.986 612.462,663.375 617.317,669.252 
			612.728,675.388 618.783,670.726 624.681,675.121 620.042,669.46 		"/>
		<polygon opacity="0.93" fill="#FFFFFF" points="910.749,171.713 906.839,174.977 902.764,171.896 906.003,175.818 
			902.938,179.922 906.988,176.809 910.931,179.748 907.825,175.959 		"/>
		<polygon opacity="0.93" fill="#FFFFFF" points="568.973,321.579 566.77,324.801 564.408,321.679 566.297,325.642 564.591,329.714 
			566.869,326.633 569.147,329.613 567.341,325.8 		"/>
		<polygon opacity="0.93" fill="#FFFFFF" points="816.05,65.508 812.14,68.764 808.064,65.683 811.303,69.604 808.239,73.709 
			812.29,70.596 816.224,73.535 813.126,69.754 		"/>
		<polygon opacity="0.93" fill="#FFFFFF" points="298.917,830.432 291.42,836.686 283.583,830.773 289.805,838.301 283.923,846.177 
			291.686,840.199 299.248,845.835 293.301,838.576 		"/>
		<polygon opacity="0.93" fill="#FFFFFF" points="33.615,888.506 29.706,891.77 25.622,888.688 28.869,892.61 25.804,896.715 
			29.846,893.602 33.789,896.541 30.691,892.752 		"/>
		<polygon opacity="0.93" fill="#FFFFFF" points="321.498,453.212 317.588,456.467 313.504,453.387 316.752,457.308 
			313.687,461.421 317.729,458.298 321.672,461.238 318.565,457.458 		"/>
		<polygon opacity="0.93" fill="#FFFFFF" points="790.297,725.251 784.448,730.122 778.343,725.518 783.197,731.388 
			778.608,737.533 784.655,732.861 790.562,737.266 785.914,731.597 		"/>
		<polygon opacity="0.93" fill="#FFFFFF" points="1101.995,590.979 1098.756,587.058 1101.82,582.945 1097.911,586.21 
			1093.835,583.129 1096.933,587.192 1094.009,591.156 1097.778,588.041 		"/>
		<polygon opacity="0.93" fill="#FFFFFF" points="1361.986,506.714 1358.747,502.784 1361.812,498.679 1357.902,501.934 
			1353.818,498.855 1356.925,502.926 1353.993,506.889 1357.762,503.774 		"/>
		<polygon opacity="0.93" fill="#FFFFFF" points="1404.241,934.765 1401.002,930.834 1404.067,926.73 1400.166,929.994 
			1396.074,926.905 1399.18,930.976 1396.256,934.939 1400.017,931.826 		"/>
		<polygon opacity="0.93" fill="#FFFFFF" points="1284.003,767.639 1280.765,763.717 1283.83,759.604 1279.92,762.867 
			1275.835,759.788 1278.942,763.852 1276.01,767.813 1279.778,764.699 		"/>
		<polygon opacity="0.93" fill="#FFFFFF" points="1331.692,735.317 1328.454,731.388 1331.519,727.283 1327.617,730.548 
			1323.525,727.467 1326.631,731.53 1323.707,735.493 1327.476,732.378 		"/>
		<polygon opacity="0.93" fill="#FFFFFF" points="1051.059,930.66 1047.82,926.73 1050.884,922.625 1046.983,925.889 
			1042.891,922.809 1045.997,926.873 1043.073,930.834 1046.833,927.721 		"/>
		<polygon opacity="0.93" fill="#FFFFFF" points="857.319,1028.265 854.072,1024.344 857.137,1020.238 853.228,1023.494 
			849.151,1020.413 852.25,1024.485 849.326,1028.447 853.095,1025.325 		"/>
		<polygon opacity="0.93" fill="#FFFFFF" points="532.682,963.564 529.436,959.634 532.5,955.53 528.59,958.793 524.515,955.712 
			527.613,959.775 524.688,963.739 528.458,960.625 		"/>
		<polygon opacity="0.93" fill="#FFFFFF" points="689.078,488.363 685.839,484.434 688.904,480.329 685.003,483.584 
			680.918,480.503 684.017,484.574 681.092,488.538 684.861,485.417 		"/>
		<polygon opacity="0.93" fill="#FFFFFF" points="753.592,518.92 750.344,514.989 753.409,510.893 749.499,514.148 745.424,511.068 
			748.522,515.14 745.598,519.102 749.367,515.98 		"/>
		<polygon opacity="0.93" fill="#FFFFFF" points="520.605,607.624 517.365,603.694 520.431,599.597 516.529,602.853 
			512.437,599.773 515.543,603.844 512.619,607.808 516.38,604.685 		"/>
		<polygon opacity="0.93" fill="#FFFFFF" points="249.72,238.753 246.481,234.832 249.546,230.727 245.636,233.982 241.552,230.902 
			244.659,234.973 241.727,238.937 245.496,235.814 		"/>
		<polygon opacity="0.93" fill="#FFFFFF" points="649.681,135.554 646.442,131.632 649.507,127.527 645.605,130.783 
			641.513,127.702 644.62,131.765 641.695,135.737 645.456,132.614 		"/>
		<polygon opacity="0.93" fill="#FFFFFF" points="173.121,614.817 167.272,619.688 161.167,615.084 166.013,620.953 
			161.433,627.097 167.488,622.428 173.386,626.831 168.747,621.162 		"/>
		<polygon opacity="0.93" fill="#FFFFFF" points="2000.939,763.001 2004.841,759.746 2008.933,762.817 2005.686,758.896 
			2008.751,754.792 2004.709,757.914 2000.766,754.975 2003.863,758.756 		"/>
		<polygon opacity="0.93" fill="#FFFFFF" points="2334.3,735.11 2336.495,731.879 2338.855,735.002 2336.967,731.046 
			2338.674,726.976 2336.404,730.047 2334.116,727.075 2335.922,730.889 		"/>
		<polygon opacity="0.93" fill="#FFFFFF" points="2087.214,991.182 2091.124,987.926 2095.208,991.005 2091.969,987.076 
			2095.034,982.971 2090.983,986.094 2087.04,983.155 2090.146,986.935 		"/>
		<polygon opacity="0.93" fill="#FFFFFF" points="2604.355,226.256 2611.853,220.004 2619.681,225.915 2613.461,218.38 
			2619.342,210.512 2611.579,216.49 2604.016,210.845 2609.964,218.113 		"/>
		<polygon opacity="0.93" fill="#FFFFFF" points="2581.767,603.478 2585.677,600.214 2589.761,603.303 2586.521,599.372 
			2589.586,595.269 2585.535,598.382 2581.602,595.443 2584.698,599.23 		"/>
		<polygon opacity="0.93" fill="#FFFFFF" points="2112.976,331.437 2118.816,326.558 2124.921,331.17 2120.075,325.292 
			2124.656,319.156 2118.609,323.819 2112.711,319.423 2117.351,325.084 		"/>
		<polygon opacity="0.93" fill="#FFFFFF" points="1801.27,465.701 1804.509,469.63 1801.443,473.735 1805.354,470.479 
			1809.438,473.561 1806.331,469.488 1809.263,465.526 1805.494,468.647 		"/>
		<polygon opacity="0.93" fill="#FFFFFF" points="1541.286,549.975 1544.525,553.906 1541.46,558.001 1545.362,554.746 
			1549.454,557.827 1546.348,553.764 1549.271,549.8 1545.511,552.914 		"/>
		<polygon opacity="0.93" fill="#FFFFFF" points="1499.022,121.925 1502.271,125.846 1499.205,129.951 1503.107,126.695 
			1507.19,129.776 1504.093,125.704 1507.009,121.741 1503.248,124.864 		"/>
		<polygon opacity="0.93" fill="#FFFFFF" points="1619.261,289.05 1622.5,292.972 1619.435,297.076 1623.345,293.82 
			1627.428,296.901 1624.33,292.838 1627.254,288.875 1623.485,291.989 		"/>
		<polygon opacity="0.93" fill="#FFFFFF" points="1571.572,321.371 1574.811,325.292 1571.746,329.397 1575.655,326.142 
			1579.739,329.222 1576.633,325.16 1579.557,321.196 1575.796,324.31 		"/>
		<polygon opacity="0.93" fill="#FFFFFF" points="1852.206,126.021 1855.445,129.951 1852.38,134.055 1856.29,130.799 
			1860.374,133.88 1857.268,129.817 1860.191,125.846 1856.431,128.968 		"/>
		<polygon opacity="0.93" fill="#FFFFFF" points="2045.953,28.417 2049.192,32.346 2046.127,36.451 2050.037,33.187 2054.12,36.268 
			2051.014,32.204 2053.946,28.241 2050.169,31.355 		"/>
		<polygon opacity="0.93" fill="#FFFFFF" points="2370.59,93.125 2373.829,97.047 2370.766,101.16 2374.674,97.896 
			2378.758,100.977 2375.652,96.905 2378.584,92.941 2374.815,96.064 		"/>
		<polygon opacity="0.93" fill="#FFFFFF" points="2214.187,568.325 2217.424,572.255 2214.36,576.352 2218.27,573.096 
			2222.354,576.177 2219.257,572.113 2222.172,568.15 2218.412,571.264 		"/>
		<polygon opacity="0.93" fill="#FFFFFF" points="2149.681,537.77 2152.921,541.691 2149.855,545.795 2153.766,542.54 
			2157.849,545.62 2154.742,541.549 2157.675,537.586 2153.897,540.709 		"/>
		<polygon opacity="0.93" fill="#FFFFFF" points="2382.659,449.064 2385.906,452.987 2382.843,457.091 2386.744,453.828 
			2390.826,456.917 2387.73,452.846 2390.654,448.882 2386.885,452.003 		"/>
		<polygon opacity="0.93" fill="#FFFFFF" points="2653.553,817.928 2656.791,821.856 2653.727,825.962 2657.637,822.699 
			2661.72,825.778 2658.613,821.716 2661.538,817.753 2657.777,820.867 		"/>
		<polygon opacity="0.93" fill="#FFFFFF" points="2253.584,921.127 2256.83,925.056 2253.767,929.161 2257.666,925.906 
			2261.751,928.987 2258.654,924.916 2261.569,920.952 2257.809,924.074 		"/>
		<polygon opacity="0.93" fill="#FFFFFF" points="2730.145,441.872 2735.992,436.992 2742.105,441.605 2737.25,435.728 
			2741.841,429.591 2735.784,434.254 2729.879,429.857 2734.525,435.519 		"/>
	</g>
	<path clip-path="url(#SVGID_2_)" fill="#BD6D4D" d="M131.503,1651.391"/>
	<g clip-path="url(#SVGID_2_)">
		<path fill="#C97150" d="M2036.551,1660.383l104.674-31.562c0.747-0.226,1.357-1.047,1.357-1.826v-67.503
			c0-0.779,0.638-1.417,1.417-1.417h73.508c0.779,0,1.417-0.638,1.417-1.417v-61.11c0-0.779,0.476-1.842,1.057-2.361l74.229-66.316
			c0.581-0.52,1.507-1.396,2.057-1.949l24.508-24.634c0.55-0.553,1-1.643,1-2.422v-68.567c0-0.779,0.638-1.417,1.417-1.417h61.846
			c0.779,0,1.417-0.638,1.417-1.417v-101.606c0-0.779,0.45-1.869,1-2.422l49.955-50.211c0.55-0.553,1.594-0.773,2.32-0.489
			l74.712,29.168c0.727,0.284,1.27,1.151,1.209,1.929l-16.691,211.557c-0.062,0.777,0.526,1.413,1.306,1.413h27.914
			c0.779,0,1.485-0.634,1.569-1.409l4.748-43.807c0.084-0.775,0.58-1.882,1.104-2.459l28.033-30.921
			c0.524-0.577,0.946-1.688,0.938-2.467l-2.094-220.717c-0.008-0.779,0.437-1.869,0.986-2.422l40.414-40.619
			c0.55-0.553,1.638-1.005,2.417-1.005h37.457c0.779,0,1.417,0.638,1.417,1.417v41.927c0,0.779,0.638,1.417,1.417,1.417h39.578
			c0.779,0,1.417,0.638,1.417,1.417v412.794c0,0.779,0.638,1.417,1.417,1.417h43.82c0.779,0,1.417-0.638,1.417-1.417v-41.926
			c0-0.779,0.638-1.417,1.417-1.417h33.216c0.779,0,1.867-0.452,2.417-1.005l32.99-33.159c0.55-0.553,1.638-1.005,2.417-1.005
			h34.277c0.779,0,1.417,0.638,1.417,1.417v47.256c0,0.779,0.638,1.417,1.417,1.417h37.457c0.779,0,1.417,0.638,1.417,1.417v158.439
			"/>
	</g>
	<g clip-path="url(#SVGID_2_)">
		<g>
			<path fill="#8D373B" d="M919.315,1698.34c-2.46-53.476-0.763-18.499-0.853-41.804c-0.05-12.529-7.107-20.947-14.124-20.631
				c-7.008,0.332-13.336,9.358-12.757,21.88c1.939,42.138,5.866-22.847,0.646,18.775c-1.061,8.434-10.852,9.166-11.929,0.708
				c-11.332-88.771-1.193-24.146-5.302-113.642c-0.745-16.102-9.948-29.547-18.969-29.123c-9.013,0.416-16.559,14.637-15.822,30.738
				c3.802,82.644,8.25,17.435,6.61,100.094c-0.132,6.387-9.667,6.471-10.727,0.176c-7.456-44.678-1.201-25.603-3.289-70.962
				c-0.58-12.538-8.019-22.271-15.027-21.946c-7.025,0.324-12.773,10.674-12.202,23.213c2.609,56.706,3.322,37.073,5.932,93.789
				c0.571,12.531,5.566,20.824,12.583,20.5c11.795-0.55,23.094-13.396,23.964,0.457c1.217,19.259-0.961,15.595,2.245,44.868
				c2.079,19.092,31.494,17.918,32.331-1.239c0.812-18.484-1.433-19.491-0.521-30.98c1.268-15.937,12.5-2.266,26.11-2.898
				C915.239,1719.987,919.886,1710.871,919.315,1698.34z"/>
		</g>
		<g>
			<path fill="#8D373B" d="M887.654,1526.669c-4.805,0.217-8.715,6.985-8.367,14.528c1.259,27.318,7.157,27.834,2.618,54.56
				c-1.167,6.827-8.714-5.429-11.953,0.384c-6.478,11.622-12.028,17.843-3.67,27.941c9.013,10.874,12.989-0.351,25.796-0.949
				c4.812-0.217,8.084-6.928,7.736-14.471c-1.573-34.137-1.358-34.137-2.932-68.28
				C896.534,1532.839,892.459,1526.444,887.654,1526.669z"/>
		</g>
		<g>
			<path fill="#8D373B" d="M789.435,1572.429c4.805-0.225,8.971,5.502,9.319,13.047c1.259,27.308-5.666,8.966,1.309,35.159
				c1.781,6.695,8.185-5.918,11.937-0.424c7.513,10.964,14.24,16.311,6.843,27.134c-7.978,11.656-13.114,0.208-25.929,0.808
				c-4.804,0.225-9.128-5.604-9.476-13.146c-1.566-34.137-0.77-14.57-2.336-48.707
				C780.762,1578.756,784.63,1572.644,789.435,1572.429z"/>
		</g>
	</g>
	<g clip-path="url(#SVGID_2_)">
		<g>
			<path fill="#8D373B" d="M1540.674,1730.569c13.594,0.867,25.066-12.605,26.052,3.348c0.721,11.507-1.54,12.472-1.052,30.965
				c0.513,19.165,29.904,20.855,32.314,1.806c3.694-29.215,1.467-25.586,3.007-44.826c1.11-13.837,12.178-0.782,23.965-0.034
				c7.017,0.441,12.152-7.768,12.939-20.281c3.578-56.666,3.959-37.018,7.538-93.684c0.786-12.514-4.78-22.962-11.797-23.42
				c-7.008-0.441-14.621,9.166-15.407,21.689c-2.858,45.318,3.72,26.358-4.506,70.886c-1.169,6.278-10.694,6.037-10.72-0.35
				c-0.223-82.676,3.106-17.4,8.325-99.961c1.011-16.094-6.278-30.438-15.291-31.014c-9.013-0.583-18.439,12.706-19.458,28.79
				c-5.658,89.404,5.591,24.971-7.258,113.524c-1.217,8.443-11,7.553-11.92-0.899c-4.498-41.713-1.689,23.329,0.97-18.767
				c0.787-12.514-5.368-21.647-12.376-22.096c-7.017-0.449-14.215,7.852-14.479,20.381c-0.489,23.297,1.813-11.646-1.566,41.789
				C1529.167,1720.92,1533.666,1730.121,1540.674,1730.569z"/>
		</g>
		<g>
			<path fill="#8D373B" d="M1564.563,1537.311c4.797,0.299,8.582,7.143,8.102,14.668c-1.724,27.293-7.638,27.702-3.545,54.512
				c1.043,6.843,8.797-5.271,11.937,0.591c6.279,11.739,11.721,18.051,3.189,27.999c-9.195,10.725-12.981-0.575-25.779-1.391
				c-4.805-0.316-7.952-7.067-7.472-14.61c2.153-34.096,1.938-34.104,4.092-68.215
				C1555.568,1543.328,1559.76,1537.002,1564.563,1537.311z"/>
		</g>
		<g>
			<path fill="#8D373B" d="M1661.979,1584.768c-4.804-0.317-9.07,5.346-9.543,12.879c-1.723,27.285,5.509,9.068-1.913,35.128
				c-1.897,6.669-8.085-6.053-11.938-0.625c-7.695,10.833-14.513,16.061-7.297,27.009c7.77,11.799,13.113,0.441,25.902,1.257
				c4.805,0.309,9.229-5.435,9.709-12.979c2.153-34.104,1.011-14.562,3.164-48.656
				C1670.545,1591.245,1666.768,1585.067,1661.979,1584.768z"/>
		</g>
	</g>
	<path clip-path="url(#SVGID_2_)" fill="#440E1D" d="M2882.679,1740.212c0,0-79.846-8.583-215.731-15.694
		c-17.784-0.933-67.917,16.285-87.566,15.437c-60.017-2.622-243.997-16.312-271.44-25.902
		c-104.961-36.676-138.32,1.065-274.694,6.245c-41.369,1.572-61.084,17.218-104.192,19.657
		c-14.058,0.791-144.119-5.479-158.343-4.581c-137.923,8.685-190.118,15.645-338.918,35.794
		c-38.893,5.271-77.502,10.148-115.922,14.671c-51.807,6.111-107.324,28.766-158.724,33.694
		c-158.177,15.161-311.558,8.034-475.508,15.794c-26.831,1.265-123.443,20.05-149.371,21.147
		c-41.062,1.732-63.603-11.739-101.856-10.391c-261.922,9.193-449.506,9.725-449.506,9.725v168.351h2901.772"/>
	<g clip-path="url(#SVGID_2_)">
		<g>
			<path d="M500.939,1713.312c0.944-69.922,2.584-69.897,3.529-139.817c0.216-16.386-9.004-27.908-19.731-28.058
				c-10.728-0.144-21.157,11.114-21.372,27.499c-0.746,55.085,9.791,55.942-1.823,109.777c-2.353,10.906-17.346,11.065-18.257-0.05
				c-9.476-116.646,1.466-116.837,3.04-233.842c0.29-21.063-12.574-39.331-26.367-39.522c-13.784-0.192-26.524,17.735-26.814,38.79
				c-1.45,108.053,9.883,108.661,0.141,216.29c-0.762,8.326-15.317,7.652-16.369-0.648c-7.446-58.848,0.754-59.039,1.558-118.354
				c0.215-16.385-10.272-29.682-21-29.831c-10.736-0.149-20.419,12.88-20.643,29.258c-1.002,74.166,1.483,74.2,0.48,148.351
				c-0.224,16.384,6.661,27.601,17.396,27.75c18.034,0.24,35.868-15.587,36.498,2.539c2.659,76.508-12.657,72.435-1.681,143.938
				c3.819,24.812,46.198,25.894,49.429,1.008c8.457-65.133-7.373-62.786,3.073-125.688c3.43-20.64,19.26-1.939,40.077-1.657
				C492.821,1741.193,500.715,1729.695,500.939,1713.312z"/>
		</g>
		<g>
			<path d="M524.995,1514.563c-7.355-0.1-13.643,8.284-13.776,18.15c-0.48,35.692,8.144,36.834-1.126,71.286
				c-2.377,8.833-12.55-7.601-18-0.291c-10.902,14.637-19.757,21.871-7.886,35.709c12.79,14.912,19.5,0.716,39.091,0.982
				c7.348,0.1,13.411-8.209,13.544-18.059c0.597-44.635,0.041-44.643,0.646-89.27
				C537.62,1523.206,532.334,1514.663,524.995,1514.563z"/>
		</g>
		<g>
			<path d="M468.865,1401.655c-7.339-0.1-13.884,8.401-14.016,18.275c-0.48,35.701,8.474,36.851-0.803,71.328
				c-2.369,8.817-12.807-7.777-18.257-0.466c-10.894,14.629-19.906,22.288-8.043,36.133c12.79,14.904,19.831,0.601,39.422,0.867
				c7.347,0.1,12.923-8.376,13.055-18.242c0.604-44.626,0.919-44.626,1.524-89.252
				C481.878,1410.423,476.212,1401.755,468.865,1401.655z"/>
		</g>
		<g>
			<path d="M314.283,1513.006c7.339,0.1,13.196,7.91,13.063,17.776c-0.48,35.701-9.775,36.801-1.441,71.511
				c2.137,8.884,12.997-7.035,18.249,0.416c10.503,14.93,20.286,22.423,8.043,35.951c-13.179,14.538-20.013-0.808-39.596-1.074
				c-7.348-0.1-13.437-8.042-13.304-17.908c0.596-44.636,0.456-44.636,1.061-89.262
				C300.491,1520.549,306.935,1512.906,314.283,1513.006z"/>
		</g>
	</g>
	<g opacity="0.5" clip-path="url(#SVGID_2_)">
		<g>
			<g enable-background="new    ">
				<defs>
					<polygon id="SVGID_4_" enable-background="new    " points="213.575,2123.988 313.042,1843.546 541.663,1877.568 
						442.196,2158.011 					"/>
				</defs>
				<clipPath id="SVGID_5_">
					<use xlink:href="#SVGID_4_"  overflow="visible"/>
				</clipPath>
				<g clip-path="url(#SVGID_5_)">
					<g>
						<g>
							<g>
								<path d="M423.221,1859.942c-11.187-1.665-23.911,0.355-28.317,7.372c-24.967,39.783-9.474,39.647-27.473,83.527
									c-1.56,3.781-4.385,4.634-8.183,4.068c-3.297-0.49-7.328-2.049-11.901-3.689c-4.577-1.636-9.698-3.358-15.158-4.171
									c-0.08-0.012-0.158-0.023-0.238-0.035c-10.316-1.472-19.176,4.017-22.26,13.532c-3.988,12.235-7.035,20.966-9.676,28.185
									c1.123,0.009,2.208,0.076,3.264,0.233c3.42,0.509,6.539,1.946,9.663,5.269c8.985,9.604-1.898,12.524-14.977,19.635
									c-1.313,0.71-2.65,0.846-3.981,0.647c-1.122-0.167-2.238-0.57-3.331-1.068c-3.044,8.134-6.519,17.867-11.407,32.861
									c-3.09,9.478,3.503,18.383,13.754,19.908c0.037,0.006,0.073,0.011,0.11,0.017c10.299,1.469,23.037-4.709,26.147-14.22
									c11.205-34.435,3.389-35.732,22.42-68.695c1.387-2.412,5.834-3.111,9.666-2.541c3.566,0.53,6.599,2.161,6.134,4.535
									c-12.404,63.687-23.392,62.394-43.832,125.118c-3.966,12.179,4.543,24.355,17.7,26.313c0.048,0.007,0.094,0.014,0.142,0.021
									c13.266,1.889,29.271-6.813,33.245-19.044c3.047-9.345,5.477-17.437,7.488-24.615c-2.11,0.379-4.274,0.697-6.052,0.432
									c-1.262-0.188-2.33-0.668-3.046-1.629c-7.475-10.047-14.562-15.778-0.402-22.072c5.215-2.312,9.102-2.745,12.708-2.208
									c1.046,0.155,2.068,0.393,3.093,0.689c6.101-26.305,8.431-41.521,30.556-86.332c1.553-3.131,5.874-4.144,9.834-3.554
									c4.007,0.596,7.644,2.832,7.669,6.173c0.246,32.835-10.026,31.805-20.44,63.779c-3.087,9.468,4.538,17.463,14.773,18.985
									c0.048,0.008,0.095,0.015,0.143,0.021c10.305,1.477,21.462-3.854,24.563-13.367c2.391-7.338,4.298-13.355,5.896-18.531
									c-0.686,0.114-1.402,0.249-2.13,0.383c-2.224,0.405-4.558,0.794-6.458,0.511c-1.261-0.188-2.331-0.67-3.052-1.642
									c-7.483-10.048-14.508-15.521-0.335-21.799c5.242-2.329,9.104-2.771,12.678-2.24c2.058,0.307,4.021,0.936,6.097,1.713
									c2.83-9.909,5.762-20.1,12.179-39.795c3.091-9.48-2.095-17.249-12.317-18.77c-0.042-0.007-0.082-0.013-0.124-0.02
									c-12.877-1.833-25.322,1.049-32.309,0.009c-3.861-0.574-6.055-2.346-5.736-6.773c2.697-37.907,17.382-34.255,22.443-73.163
									C443.402,1866.601,434.029,1861.552,423.221,1859.942"/>
								<path d="M452.217,2010.705c-3.574-0.531-7.436-0.089-12.678,2.24c-14.173,6.277-7.147,11.751,0.335,21.799
									c0.721,0.972,1.792,1.454,3.052,1.642c1.9,0.283,4.234-0.105,6.458-0.511c0.728-0.134,1.444-0.269,2.13-0.383
									c1.413-0.235,2.696-0.379,3.684-0.232c1.125,0.167,1.866,0.713,1.978,1.932c1.921,21.273-6.565,20.687-13.322,41.401
									c-1.87,5.706,2.428,11.446,9.432,12.489c0.029,0.004,0.059,0.008,0.087,0.013c7.056,1.007,13.842-3.166,15.71-8.896
									c8.442-25.903,8.971-25.832,17.417-51.742c1.856-5.692-2.227-11.353-9.238-12.396c-0.029-0.004-0.059-0.008-0.088-0.013
									c-0.117-0.017-0.232-0.034-0.348-0.051c-6.056-0.901-10.514-2.473-14.308-3.938c-1.486-0.577-2.869-1.14-4.205-1.641
									C456.238,2011.641,454.275,2011.012,452.217,2010.705"/>
								<path d="M375.427,2067.628c-3.606-0.537-7.493-0.104-12.708,2.208c-14.161,6.294-7.073,12.025,0.402,22.072
									c0.716,0.961,1.784,1.441,3.046,1.629c1.778,0.266,3.942-0.053,6.052-0.432c0.187-0.033,0.375-0.066,0.561-0.102
									c2.283-0.419,4.457-0.854,5.95-0.633c1.125,0.168,1.864,0.709,1.972,1.912c1.931,21.296-6.882,20.661-13.642,41.383
									c-1.855,5.715,2.65,11.558,9.649,12.599c0.029,0.005,0.058,0.009,0.086,0.013c7.056,1.007,14.239-3.185,16.108-8.916
									c8.444-25.909,8.134-25.955,16.576-51.859c1.86-5.702-1.729-11.393-8.721-12.432c-0.033-0.005-0.067-0.01-0.101-0.016
									c-0.116-0.016-0.231-0.033-0.346-0.051c-6.075-0.903-10.582-2.49-14.421-3.983c-2.673-1.036-5.028-2.024-7.371-2.703
									C377.496,2068.021,376.474,2067.783,375.427,2067.628"/>
								<path d="M303.278,1988.965c-1.056-0.157-2.141-0.225-3.264-0.233c-6.533-0.052-14.347,1.933-25.229,0.38
									c-7.064-1.009-14.504,2.703-16.362,8.428c-8.448,25.918-8.583,25.891-17.022,51.809c-1.859,5.701,2.724,11.034,9.74,12.079
									c0.027,0.004,0.053,0.008,0.08,0.012c7.049,0.999,14.236-2.666,16.105-8.396c6.752-20.729-1.922-22.704,13.076-41.581
									c0.878-1.107,1.936-1.391,3.121-1.215c1.472,0.22,3.143,1.148,4.917,2.091c0.722,0.384,1.461,0.769,2.211,1.11
									c1.093,0.498,2.209,0.901,3.331,1.068c1.331,0.198,2.668,0.062,3.981-0.647c13.078-7.11,23.962-10.031,14.977-19.635
									C309.817,1990.911,306.698,1989.474,303.278,1988.965"/>
							</g>
						</g>
					</g>
				</g>
			</g>
		</g>
	</g>
	<g clip-path="url(#SVGID_2_)">
		<g>
			<path d="M1869.734,1632.351c22.962,0,42.081-24.13,44.367-1.158c6.76,68.022,0.745,43.361,0.944,138.976
				c0.059,27.709,31.13,31.197,46.521,8.21c22.871-34.12,6.104-46.275,9.285-90.728c1.434-19.949,19.856,1.457,39.771,1.457
				c11.846,0,21.612-16.137,21.612-34.22c0-162.854,1.176-162.854,1.176-325.708c0-18.085-10.942-34.879-22.788-34.879
				s-21.073,16.794-21.073,34.879c0,146.477,6.577,146.626-2.585,292.821c-0.58,9.216-13.793,9.25-14.331,0.032
				c-9.169-157.367-1.888-157.532-1.888-315.168c0-23.246-12.285-39.863-27.502-39.863c-15.226,0-27.062,16.617-27.062,39.863
				c0,129.16,13.56,129.926,1.357,258.512c-1.168,12.255-22.407,11.572-24.843-0.501c-12.003-59.588-1.026-60.487-1.026-121.292
				c0-18.083-10.098-32.67-21.936-32.67c-11.846,0-19.367,14.587-19.367,32.67c0,77.174-3.794,77.174-3.794,154.347
				C1846.573,1616.014,1857.889,1632.351,1869.734,1632.351z"/>
		</g>
		<g>
			<path d="M1825.765,1379.342c8.102,0,14.845,8.242,14.845,19.133c0,39.408-9.875,40.631-0.149,78.814
				c2.485,9.767,16.087-9.293,20.659-0.316c8.93,17.551,12.607,25.177-0.397,39.93c-11.515,13.072-17.578-0.083-34.957-0.083
				c-8.11,0-14.397-8.934-14.397-19.815c0-49.265,0.017-49.265,0.017-98.529C1811.384,1387.584,1817.654,1379.342,1825.765,1379.342
				z"/>
		</g>
		<g>
			<path d="M1889.384,1211.901c8.101,0,14.595,9.433,14.595,20.321c0,60.722-9.078,61.412,0.829,121.317
				c1.641,9.95,13.834-8.334,19.731-0.175c11.812,16.303,21.587,24.82,8.283,39.914c-14.33,16.261-21.818-0.982-43.438-0.982
				c-8.11,0-14.232-8.034-14.232-18.917c0-70.577-0.132-70.577-0.132-141.157C1875.02,1221.334,1881.273,1211.901,1889.384,1211.901
				z"/>
		</g>
		<g>
			<path d="M2058.32,1418.091c-8.102,0-14.248,8.492-14.248,19.384c0,77.779,9.842,78.463-0.115,155.595
				c-1.293,10.007-15.185-8.702-19.757,0.282c-8.938,17.542-14.173,24.828-1.168,39.58c11.514,13.072,17.926-0.715,35.288-0.715
				c8.118,0,13.784-8.593,13.784-19.475c0-87.631,0.149-87.631,0.149-175.268C2072.254,1426.583,2066.438,1418.091,2058.32,1418.091
				z"/>
		</g>
	</g>
	<g opacity="0.5" clip-path="url(#SVGID_2_)">
		<g>
			<g enable-background="new    ">
				<defs>
					<polygon id="SVGID_6_" enable-background="new    " points="2024.129,2089.809 1820.269,1787.324 2042.694,1752.938 
						2246.555,2055.422 					"/>
				</defs>
				<clipPath id="SVGID_7_">
					<use xlink:href="#SVGID_6_"  overflow="visible"/>
				</clipPath>
				<g clip-path="url(#SVGID_7_)">
					<g>
						<g>
							<g>
								<path d="M1926.502,1770.9c-9.566,1.479-15.035,6.871-9.649,14.91c33.346,49.755,29.829,36.141,47.895,72.399
									c1.971,3.952,0.729,5.586-2.513,6.087c-6.809,1.053-22.444-2.889-35.71-0.838c-10.098,1.561-14.017,11.55-7.679,20.953
									c13.115,19.461,20.631,29.367,27.977,38.985c0.548-0.151,1.107-0.275,1.689-0.365c2.76-0.427,6.016-0.097,10.799,1.657
									c16.256,5.956,15.789,10.403,14.319,20.707c-0.151,1.062-1.014,1.582-2.283,1.779c-1.84,0.284-4.535-0.112-7.162-0.52
									c-0.038-0.006-0.076-0.012-0.115-0.018c3.489,4.917,7.442,10.625,12.101,17.538c6.338,9.403,17.869,16.002,27.966,14.441
									c10.098-1.562,13.592-10.483,7.254-19.887c-21.312-31.623-30.987-30.641-41.636-63.211c-1.106-3.38,3.037-5.854,8.057-6.63
									c4.785-0.74,10.365,0.064,12.949,3.102c37.617,44.262,44.528,59.51,59.207,85.698c0.378-0.086,0.763-0.16,1.156-0.221
									c3.305-0.511,7.242-0.103,12.979,2.001c16.641,6.097,11.283,11.812,6.931,21.849c-0.422,0.97-1.386,1.458-2.653,1.654
									c-1.017,0.157-2.229,0.126-3.512,0.003c4.306,6.929,9.322,14.706,15.335,23.627c8.148,12.091,24.062,19.173,37.037,17.167
									c12.983-2.007,17.625-12.268,9.477-24.358c-55.25-81.979-61.507-81.105-108.845-164.154
									c-1.382-2.426,0.736-4.071,3.665-4.524c2.938-0.454,6.694,0.292,8.555,2.656c59.059,74.821,53.504,75.767,104.843,151.942
									c6.337,9.402,20.099,16.924,30.188,15.364c10.098-1.561,13.546-11.743,7.209-21.146
									c-48.602-72.114-56.552-82.717-93.072-136.551c-1.04,0.563-2.121,1.022-3.252,1.198c-1.305,0.201-2.675,0.023-4.119-0.812
									c-13.773-7.953-20.792-11.05-14.873-20.434c1.533-2.438,3.504-3.617,5.891-4.124c-1.848-2.739-3.76-5.574-5.738-8.511
									c-6.338-9.403-20.328-16.51-30.426-14.948c-11.579,1.79-19.079,8.672-25.281,9.631c-2.891,0.447-5.497-0.392-8.105-3.629
									c-18.298-22.699-8.26-31.227-39.719-45.962C1944.264,1771.019,1934.092,1769.728,1926.502,1770.9"/>
								<path d="M1948.512,1923.032c-0.582,0.09-1.142,0.214-1.689,0.365c-4.672,1.288-8.437,4.567-17.29,5.936
									c-6.913,1.069-9.143,6.549-5.329,12.208c17.263,25.613,17.278,25.61,34.549,51.236c3.817,5.664,12.051,9.119,18.965,8.051
									c6.905-1.068,9.767-6.238,5.949-11.902c-13.811-20.492-22.667-19.83-27.756-40.97c-0.281-1.158,0.343-1.694,1.504-1.874
									c1.553-0.24,4.066,0.158,6.655,0.557c0.039,0.006,0.077,0.012,0.115,0.018c2.627,0.407,5.322,0.804,7.162,0.52
									c1.27-0.197,2.132-0.717,2.283-1.779c1.47-10.304,1.937-14.751-14.319-20.707
									C1954.527,1922.936,1951.271,1922.605,1948.512,1923.032"/>
								<path d="M2051.123,1977.47c-0.394,0.061-0.778,0.135-1.156,0.221c-6.351,1.438-10.729,6.191-22.548,8.019
									c-6.913,1.068-9.322,6.056-5.508,11.715c24.734,36.701,24.62,36.719,49.358,73.427c3.818,5.664,12.463,9.743,19.377,8.675
									c6.905-1.068,9.133-6.828,5.315-12.492c-21.284-31.58-29.259-30.74-41.82-63.195c-0.468-1.215,0.024-1.754,1.09-1.918
									c1.376-0.213,3.709,0.198,6.174,0.588c1.153,0.184,2.336,0.361,3.463,0.469c1.283,0.123,2.495,0.154,3.512-0.003
									c1.268-0.196,2.231-0.685,2.653-1.654c4.353-10.036,9.71-15.752-6.931-21.849
									C2058.365,1977.367,2054.428,1976.959,2051.123,1977.47"/>
								<path d="M2063.617,1838.697c-0.24,0.038-0.478,0.08-0.711,0.131c-2.387,0.507-4.357,1.687-5.891,4.124
									c-5.919,9.384,1.1,12.48,14.873,20.434c1.444,0.835,2.814,1.013,4.119,0.812c1.131-0.176,2.212-0.635,3.252-1.198
									c0.635-0.344,1.253-0.726,1.857-1.106c1.595-1.007,3.09-1.997,4.513-2.217c1.108-0.171,2.174,0.127,3.206,1.25
									c35.521,38.802,27.363,40.45,54.625,80.901c3.814,5.659,12.034,9.271,18.94,8.202c6.921-1.069,8.905-6.258,5.092-11.917
									c-30.719-45.579-30.849-45.56-61.562-91.133c-3.81-5.652-11.656-9.375-18.577-8.305
									C2077.305,1840.229,2069.338,1837.812,2063.617,1838.697"/>
							</g>
						</g>
					</g>
				</g>
			</g>
		</g>
	</g>
	<path opacity="0.7" clip-path="url(#SVGID_2_)" fill="#FFF8DB" d="M1639.779,734.043c125.415-19.848,133.798,8.285,133.798,8.285
		s-26.641-98.371,57.762-123.116c84.42-24.744,179.483,13.655,166.254,136.812c0,0,85.479-72.885,145.387-18.701
		c0,0,51.698-78.554,121.189-58.797c69.483,19.783,73.062,54.302,73.062,54.302s145.562-42.596,174.057,7.536
		c28.489,50.13-69.053,79.02-182.092,73.092c-113.039-5.945-468.931-7.726-561.583,4.829
		c-92.662,12.556-413.836-7.792-275.673-52.095L1639.779,734.043z"/>
	<path opacity="0.7" clip-path="url(#SVGID_2_)" fill="#FFF8DB" d="M1136.662,390.376c-119.277-17.651-126.973,9.134-126.973,9.134
		s24.379-93.667-56.005-116.363c-80.377-22.688-170.296,14.671-156.587,131.482c0,0-81.833-68.396-138.221-16.385
		c0,0-49.818-74.1-115.624-54.667c-65.789,19.433-68.871,52.244-68.871,52.244s-138.619-39.081-165.193,8.801
		c-26.591,47.875,66.303,74.384,173.577,67.673c107.282-6.693,445.198-11.764,533.303-0.725
		c88.105,11.05,392.878-11.314,261.267-52.062L1136.662,390.376z"/>
	<path opacity="0.7" clip-path="url(#SVGID_2_)" fill="#FFF8DB" d="M328.241,692.057c0,0,37.575-65.725,112.393-62.086
		c61.498,2.997,63.619,33.287,69.98,50.679c6.362,17.392,57.257-23.371,110.273,0c53.015,23.379,19.234,50.305-81.562,50.305
		c-100.812,0-414.01,4.23-329.839-29.173C260.381,681.592,287.949,672.615,328.241,692.057z"/>
	<path opacity="0.7" clip-path="url(#SVGID_2_)" fill="#FFF8DB" d="M2419.1,570.765c0,0,37.566-65.725,112.393-62.085
		c61.5,2.997,63.619,33.287,69.98,50.679c6.363,17.393,57.258-23.37,110.272,0c53.016,23.38,19.235,50.305-81.569,50.305
		s-414.001,4.23-329.831-29.173C2351.239,560.3,2378.809,551.324,2419.1,570.765z"/>
	<path opacity="0.2" clip-path="url(#SVGID_2_)" fill="#FFF8DB" d="M1484.478,907.297c0,0-144.203-2.131-125.117,21.315
		c19.085,23.445,103.91,21.314,167.529,23.445c63.618,2.131,215.839-23.495,288.173-22.405c72.332,1.091,89.298,5.42,152.916,0.058
		c63.619-5.36,176.012-9.725,36.051-22.463S1546.372,905.932,1484.478,907.297z"/>
	<path opacity="0.2" clip-path="url(#SVGID_2_)" fill="#FFF8DB" d="M1831.845,970.616c0,0-111.382-1.116-96.638,11.131
		c14.745,12.257,80.252,11.14,129.391,12.257c49.123,1.106,166.686-12.282,222.551-11.716c55.865,0.575,68.969,2.839,118.107,0.034
		c49.123-2.797,135.935-5.08,27.833-11.74C2125.004,963.931,1879.633,969.9,1831.845,970.616z"/>
	<path opacity="0.2" clip-path="url(#SVGID_2_)" fill="#FFF8DB" d="M856.326,642.575c0,0-111.374-1.115-96.637,11.132
		c14.745,12.255,80.252,11.14,129.391,12.255c49.13,1.109,166.693-12.28,222.558-11.714c55.865,0.575,68.969,2.839,118.1,0.033
		c49.13-2.797,135.935-5.078,27.842-11.739C1149.485,635.89,904.122,641.859,856.326,642.575z"/>
	<path opacity="0.2" clip-path="url(#SVGID_2_)" fill="#FFF8DB" d="M395.024,126.67c0,0-242.024-2.131-209.991,21.314
		s174.396,21.314,281.165,23.446c106.777,2.131,362.254-23.496,483.651-22.405c121.397,1.09,149.869,5.42,256.645,0.058
		c106.776-5.362,295.404-9.725,60.504-22.463S498.893,125.305,395.024,126.67z"/>
	<path opacity="0.2" clip-path="url(#SVGID_2_)" fill="#FFF8DB" d="M1601.235,327.99c0,0-242.024-2.131-209.983,21.314
		c32.024,23.446,174.388,21.314,281.165,23.446s362.245-23.496,483.65-22.405c121.39,1.091,149.87,5.42,256.646,0.059
		c106.768-5.362,295.396-9.725,60.505-22.463C2238.309,315.201,1705.104,326.625,1601.235,327.99z"/>
	<path opacity="0.2" clip-path="url(#SVGID_2_)" fill="#FFF8DB" d="M978.013,189.988c0,0-186.929-1.116-162.194,11.132
		c24.752,12.255,134.692,11.14,217.165,12.255c82.455,1.108,279.757-12.281,373.519-11.714
		c93.763,0.574,115.748,2.838,198.212,0.033c82.455-2.797,228.141-5.079,46.729-11.739
		C1470.021,183.303,1058.216,189.272,978.013,189.988z"/>
	<path opacity="0.2" clip-path="url(#SVGID_2_)" fill="#FFF8DB" d="M1380.086,579.024c0,0-186.921-1.115-162.194,11.132
		c24.751,12.255,134.692,11.14,217.165,12.255c82.455,1.108,279.765-12.28,373.527-11.714c93.755,0.574,115.748,2.839,198.212,0.033
		c82.456-2.797,228.132-5.078,46.72-11.739C1872.104,572.338,1460.297,578.308,1380.086,579.024z"/>
	<path clip-path="url(#SVGID_2_)" fill="#440E1D" d="M1787.295,1753.109c-1.218-2.241-2.377-4.639-3.363-7.194
		c-5.069-13.18-6.651-28.717-6.651-28.717s-4.779,16.736-4.688,28.749c-1.607-2.355-3.115-4.846-4.448-7.434
		c-8.979-17.469-11.788-38.066-11.788-38.066s-10.67,27.858-7.861,43.544c0.912,5.079,2.055,9.45,3.182,13.055
		c-2.982-6.243-6.354-15.002-8.839-26.384c-5.616-25.693,8.425-50.796,8.425-50.796s-17.463,15.552-25.912,35.16
		c0.465-4.113,0.878-8.485,1.209-13.106c3.363-47.391-8.979-74.225-8.979-74.225s1.682,62.761-18.523,101.002
		c-10.908,20.641-18.538,30.646-23.26,35.492c-0.017-0.09-0.025-0.225-0.033-0.333c-0.588,1.64-1.243,3.265-2.005,4.846h120.204
		C1790.815,1763.815,1788.579,1758.586,1787.295,1753.109z"/>
	<path clip-path="url(#SVGID_2_)" fill="#440E1D" d="M637.703,1848.448c1.574-2.24,3.065-4.638,4.341-7.193
		c6.527-13.18,8.565-28.716,8.565-28.716s6.155,16.734,6.04,28.748c2.062-2.355,4.009-4.846,5.732-7.434
		c11.572-17.469,15.184-38.065,15.184-38.065s13.734,27.857,10.114,43.544c-1.167,5.078-2.642,9.448-4.092,13.054
		c3.843-6.243,8.184-15.003,11.39-26.385c7.232-25.693-10.852-50.796-10.852-50.796s22.499,15.553,33.367,35.161
		c-0.597-4.113-1.127-8.485-1.557-13.106c-4.333-47.389,11.581-74.226,11.581-74.226s-2.171,62.763,23.856,101.003
		c14.049,20.64,23.874,30.646,29.954,35.492c0.017-0.09,0.034-0.225,0.05-0.332c0.746,1.641,1.59,3.264,2.584,4.845H629.121
		C633.171,1859.155,636.055,1853.926,637.703,1848.448z"/>
	<path clip-path="url(#SVGID_2_)" fill="#A9373B" d="M1079.984,1723.667c-1.441-1.655-2.808-3.43-3.976-5.319
		c-5.998-9.758-7.861-21.256-7.861-21.256s-5.658,12.389-5.55,21.28c-1.897-1.747-3.677-3.587-5.26-5.504
		c-10.62-12.928-13.942-28.182-13.942-28.182s-12.616,20.623-9.286,32.237c1.077,3.764,2.427,6.994,3.761,9.659
		c-3.529-4.613-7.513-11.1-10.454-19.525c-6.644-19.024,9.957-37.599,9.957-37.599s-20.651,11.514-30.634,26.025
		c0.547-3.047,1.044-6.285,1.433-9.698c3.977-35.086-10.628-54.951-10.628-54.951s1.989,46.458-21.902,74.767
		c-12.889,15.278-21.918,22.688-27.501,26.276c-0.017-0.067-0.025-0.167-0.042-0.249c-0.688,1.214-1.466,2.413-2.37,3.587h142.14
		C1084.151,1731.594,1081.501,1727.73,1079.984,1723.667z"/>
	<path clip-path="url(#SVGID_2_)" fill="#440E1D" d="M2346.194,1737.931c1.575-2.239,3.066-4.637,4.341-7.194
		c6.528-13.18,8.558-28.717,8.558-28.717s6.154,16.736,6.038,28.751c2.07-2.357,4.01-4.846,5.732-7.436
		c11.571-17.467,15.185-38.066,15.185-38.066s13.741,27.858,10.114,43.544c-1.168,5.08-2.635,9.451-4.092,13.057
		c3.843-6.244,8.184-15.004,11.39-26.386c7.231-25.693-10.843-50.796-10.843-50.796s22.489,15.553,33.366,35.16
		c-0.597-4.112-1.135-8.484-1.558-13.104c-4.34-47.392,11.572-74.226,11.572-74.226s-2.17,62.76,23.857,101.001
		c14.049,20.641,23.881,30.648,29.961,35.494c0.018-0.092,0.034-0.226,0.051-0.333c0.746,1.64,1.592,3.263,2.576,4.846h-154.839
		C2341.654,1748.638,2344.539,1743.409,2346.194,1737.931z"/>
	<path clip-path="url(#SVGID_2_)" fill="#440E1D" d="M2575.099,1743.884c-1.566-1.865-3.058-3.864-4.334-5.987
		c-6.526-10.964-8.564-23.895-8.564-23.895s-6.163,13.928-6.048,23.919c-2.061-1.955-4.01-4.028-5.732-6.185
		c-11.562-14.528-15.175-31.672-15.175-31.672s-13.742,23.179-10.122,36.233c1.176,4.221,2.642,7.86,4.091,10.856
		c-3.844-5.195-8.184-12.479-11.382-21.946c-7.24-21.381,10.852-42.263,10.852-42.263s-22.497,12.939-33.374,29.25
		c0.604-3.423,1.135-7.053,1.557-10.898c4.333-39.432-11.571-61.754-11.571-61.754s2.17,52.211-23.857,84.024
		c-14.05,17.178-23.881,25.503-29.954,29.532c-0.017-0.075-0.032-0.183-0.049-0.274c-0.754,1.358-1.601,2.715-2.585,4.03h154.838
		C2579.629,1752.783,2576.746,1748.438,2575.099,1743.884z"/>
	<path clip-path="url(#SVGID_2_)" fill="#440E1D" d="M1239.528,1765.805c7.521,11.716,15.267,19.857,21.786,25.387
		c-2.004-11.048-4.738-28.95-6.445-51.438c-2.932-38.673,12.732-72.635,12.732-72.635s1.002,23.472,15.367,59.755
		c4.879,12.323,4.97,14.139,11.663,22.23c3.264-13.888,1.69-8.067,4.589-26.069c9.411-58.446,33.897-70.944,33.897-70.944
		s0,0-4.357,52.929c-2.833,34.478,7.604,60.587,15.226,74.606c-0.688-8.092-1.226-19.631-0.563-32.985
		c1.292-26.153,20.932-51.612,20.932-51.612s-7.496,28.216-3.653,46.816c2.237,10.874,10.934,24.128,17.785,33.287
		c0.323-0.825,0.646-1.748,0.969-2.64c1.897,4.97,4.325,9.749,7.273,14.245l-146.887,20.766l-7.72-55.176
		C1234.21,1756.764,1236.629,1761.275,1239.528,1765.805z"/>
	<path clip-path="url(#SVGID_2_)" fill="#A9373B" d="M114.274,1732.401c4.241,7.185,8.697,12.239,12.483,15.702
		c-0.945-6.66-2.179-17.459-2.709-30.973c-0.895-23.245,9.27-43.252,9.27-43.252s-2.129,14.961,5.657,37.034
		c2.717,7.693,6.975,10.964,10.421,15.461c2.568-9.657,2.501-9.774,6.08-28.149c6.801-34.844,29.208-50.313,29.208-50.313
		s-11.763,18.441-15.556,50.07c-2.469,20.6,3.189,36.484,7.446,45.06c-0.232-4.852-0.29-11.788,0.398-19.772
		c1.367-15.646,13.71-30.465,13.71-30.465s-5.128,16.734-3.248,27.976c1.103,6.577,6.015,14.719,9.924,20.356
		c0.216-0.483,0.423-1.041,0.63-1.565c1.035,3.022,2.377,5.953,4.043,8.718l-88.503,9.108l-3.396-33.246
		C111.292,1726.848,112.633,1729.612,114.274,1732.401z"/>
</g>
</svg>
