<svg xmlns="http://www.w3.org/2000/svg" xmlns:xlink="http://www.w3.org/1999/xlink" viewBox="0 0 2500 1600"><defs><style>.cls-1{fill:url(#linear-gradient);}.cls-2,.cls-3{fill:#fff;}.cls-16,.cls-17,.cls-2{opacity:0.2;}.cls-3{opacity:0.4;}.cls-4{fill:url(#linear-gradient-2);}.cls-5{fill:#1c75bc;opacity:0.28;}.cls-6{fill:#ade4f2;}.cls-7{fill:#80d1ed;}.cls-8{fill:#27aae1;}.cls-9{fill:#6ea035;}.cls-10{fill:#8dc63f;}.cls-11{fill:#a1d84a;}.cls-12{fill:#54871e;}.cls-13{fill:#e5f8ff;}.cls-14{fill:#bccbd2;}.cls-15,.cls-16{fill:#4b2910;}.cls-17,.cls-18{fill:#589eda;}.cls-19{fill:#79b1e0;}.cls-20{fill:#edffff;}.cls-21{fill:#4a6880;}.cls-22{fill:#0a443a;}.cls-23{fill:#156052;}</style><linearGradient id="linear-gradient" x1="1250" y1="1600" x2="1250" y2="749.06" gradientUnits="userSpaceOnUse"><stop offset="0" stop-color="#fff"/><stop offset="0.25" stop-color="#e0f5fd"/><stop offset="0.81" stop-color="#90dbf8"/><stop offset="1" stop-color="#73d2f6"/></linearGradient><linearGradient id="linear-gradient-2" x1="1250" y1="877.43" x2="1250" y2="-16.78" gradientUnits="userSpaceOnUse"><stop offset="0.32" stop-color="#fff"/><stop offset="0.42" stop-color="#dff5fd"/><stop offset="0.64" stop-color="#8fdbf8"/><stop offset="0.96" stop-color="#0fb3f0"/><stop offset="1" stop-color="#00aeef"/></linearGradient></defs><g id="Layer_2" data-name="Layer 2"><g id="Background_copy" data-name="Background copy"><rect class="cls-1" y="749.06" width="2500" height="850.94"/><path class="cls-2" d="M2500,1205.34c-92.71-18.63-187.05-34.84-277.95-48.38,8.89-6.88,14.59-22.14,19.93-27.48-70.21-30.36-189.48-19.85-267.09-24.42-95-5.58-190.34-9.88-284.27-15.56,29.31-11.3,71.28-10.19,92.72-35.2-48.87-30.22-136.07-16.62-173-60,38-19.89,111.24-38.89,41-75.24,62.16-59.66,181.63-5.06,241.56-72.65-22.92-16.54-53.26-18.19-80.21-26.38,19-54.93,219.12-51.91,274.73-87.67-68-26.87-172.55-6-246.48-10.16-195.84-10.95-398-18.66-594-15.48-64.73,1.05-125.25,21-189.93,24.4-43,2.27-86.17-.31-128.78,7.83-9.32,1.78-85.07,32.73-85.68,32.43,54.94,27.54,142.8,29.83,205.72,44.64,53.67,12.62,149.77,13.83,189,53.79-83.58,50.91-23.16,32.15,27.75,84.82-28.78,27.25-80.14,16.06-113.9,29.23,10.36,5.24,20.37,20.46,29,26.05-53.57,36.09-135.28,28.9-197.81,36.15-74.29,8.62-162.09,19.72-231.74,44.14,51.43,12.78,111.13,7.27,162,21.25-20.61,17.63-45.73,36-64.84,56.5,34.33,24.32,124.18,44.57,168.58,49.7-86.92,51.82-229.87,17.17-328,57.09,10.42,3.29,23.26,14.12,33.16,17.63-49.15,22.54-115.88,24.43-161.39,56.84,9.89,5.65,21.43,23.44,31.72,28.77-113.34,71.73-268.34,84-379.05,165.74,48.74,16.56,116-2.61,168.79-5.74,98.11-5.83,196.67-13.24,294.84-17.58,235-10.38,465.82-33.11,700.77-26.63,249.56,6.88,498.59,27,748.23,31.82,124.28,2.4,250.95,4.6,374.71-4.8Z"/><ellipse class="cls-3" cx="548.71" cy="1358.09" rx="24.22" ry="3.63"/><ellipse class="cls-3" cx="367.38" cy="1357.19" rx="24.22" ry="3.63"/><path class="cls-3" d="M213.86,1368.86c0,2-10.84,3.64-24.22,3.64s-24.22-1.63-24.22-3.64,10.85-3.63,24.22-3.63S213.86,1366.86,213.86,1368.86Z"/><ellipse class="cls-3" cx="85.51" cy="1339.24" rx="24.22" ry="3.63"/><ellipse class="cls-3" cx="104.36" cy="1337.45" rx="24.22" ry="3.63"/><ellipse class="cls-3" cx="114.24" cy="1341.93" rx="24.22" ry="3.63"/><ellipse class="cls-3" cx="128.6" cy="1334.75" rx="24.22" ry="3.63"/><path class="cls-3" d="M570.5,1329c0,2.26-23.85,4.09-53.28,4.09s-53.28-1.83-53.28-4.09,23.86-4.09,53.28-4.09S570.5,1326.77,570.5,1329Z"/><path class="cls-3" d="M690.39,1305.26c0,2.26-23.86,4.09-53.28,4.09s-53.29-1.83-53.29-4.09,23.86-4.08,53.29-4.08S690.39,1303,690.39,1305.26Z"/><path class="cls-3" d="M1121.48,1293.91c0,2.26-23.85,4.09-53.28,4.09s-53.28-1.83-53.28-4.09,23.86-4.08,53.28-4.08S1121.48,1291.66,1121.48,1293.91Z"/><path class="cls-3" d="M1232.89,1262.43c0,2.25-23.86,4.09-53.28,4.09s-53.28-1.84-53.28-4.09,23.85-4.09,53.28-4.09S1232.89,1260.17,1232.89,1262.43Z"/><path class="cls-3" d="M1378.2,1247.9c0,2.82-29.82,5.1-66.6,5.1s-66.6-2.28-66.6-5.1,29.82-5.11,66.6-5.11S1378.2,1245.08,1378.2,1247.9Z"/><path class="cls-3" d="M1595,1238.73c0,2.82-29.82,5.11-66.6,5.11s-66.6-2.29-66.6-5.11,29.82-5.11,66.6-5.11S1595,1235.91,1595,1238.73Z"/><path class="cls-3" d="M1633.48,1232.23c0,2.82-29.82,5.11-66.6,5.11s-66.6-2.29-66.6-5.11,29.81-5.11,66.6-5.11S1633.48,1229.41,1633.48,1232.23Z"/><path class="cls-3" d="M1670.49,1226.64c0,2.82-29.82,5.11-66.6,5.11s-66.6-2.29-66.6-5.11,29.82-5.11,66.6-5.11S1670.49,1223.82,1670.49,1226.64Z"/><path class="cls-3" d="M1782.66,1209.67c0,2.82-29.82,5.11-66.61,5.11s-66.6-2.29-66.6-5.11,29.82-5.11,66.6-5.11S1782.66,1206.85,1782.66,1209.67Z"/><path class="cls-3" d="M1914.65,1193.92c0,2.83-29.82,5.11-66.6,5.11s-66.61-2.28-66.61-5.11,29.82-5.1,66.61-5.1S1914.65,1191.1,1914.65,1193.92Z"/><path class="cls-3" d="M2033.84,1163.92c0,2.41-25.48,4.36-56.91,4.36s-56.92-2-56.92-4.36,25.49-4.37,56.92-4.37S2033.84,1161.51,2033.84,1163.92Z"/><path class="cls-3" d="M2067.75,1183.29c0,2.41-25.48,4.37-56.92,4.37s-56.91-2-56.91-4.37,25.48-4.36,56.91-4.36S2067.75,1180.88,2067.75,1183.29Z"/><path class="cls-3" d="M2154.94,1167c0,2.41-25.48,4.36-56.92,4.36s-56.91-2-56.91-4.36,25.48-4.37,56.91-4.37S2154.94,1164.62,2154.94,1167Z"/><path class="cls-3" d="M2196.11,1153.71c0,2.41-25.48,4.36-56.91,4.36s-56.92-2-56.92-4.36,25.48-4.37,56.92-4.37S2196.11,1151.3,2196.11,1153.71Z"/><path class="cls-3" d="M1903.75,1142.12c0,2.26-23.85,4.09-53.28,4.09s-53.28-1.83-53.28-4.09,23.85-4.09,53.28-4.09S1903.75,1139.86,1903.75,1142.12Z"/><rect class="cls-4" width="2500" height="755"/><path class="cls-2" d="M1242.83,0H1041.56c93.78,42.3,351.73,153.59,489.7,162.93C1531.26,162.93,1364.37,134.21,1242.83,0Z"/><path class="cls-2" d="M2500,184.54c-317,38.25-880.39-112.36-911.35-61.68-28.84,47.21,130.68,66.59,50.44,119.86S680.73-21,545.46,72.25c-40.65,28,217.2,148.49,183.42,149.16C562,224.75,259.85,72.16,126.64,0H0V32.69C213.37,186.19,707.08,361,707.08,361,338.75,306.94,83.83,168.71,0,118v83.55C235.21,365.23,605.1,544.06,884.78,503.76c170.71-24.6,16.05-178.47,45.86-199.78s193.08,65,582.61,103.43c398.35,39.35,760.3,48.37,986.75,15.36Z"/><path class="cls-2" d="M2500,0H2295.42c-131.17,75-294.79,89.32-294.79,89.32,229.16,11.94,407.92-7,499.37-20.54Z"/><path class="cls-3" d="M2241.52,453.25c-13.57-34.63-44-40.21-66.71-11.87-27.48-48.39-104.87-36.94-123.36,15.81-46-10.05-69.86,36.4-70.44,77.11-33.67-15.6-69.69-1.31-72.85,37.82-8.44-49.06-60.56-58.33-82.82-12.82-22.69-52-79.4-25.52-109.73,4.48-28.15-16.69-56.3-3.63-73.88,24.22,7.9-44.23-30.57-72.66-69.9-56.91-5.6-59.37-45.29-72.91-96.17-77.27,14.94-73.61-99.33-79-129.46-22.13-33.59-37.17-80.4,11.4-96.28,47.38-25-6.1-19.41-6.86-47.44-3.29-2.38-37.07-32.37-46.69-63.25-28.84-22.53-30.52-61.35-29.56-89.78-5.7-26.94-22.93-63.72-26.5-96.41-19.32-16-66.69-129.44-57.09-160.79-5.55-42.73-34-80.85,20-93,59.57-16-30.4-49.83-35.19-76.23-12.27-45.25-34.76-85.32,21.42-82.22,64.21-23.62-32.57-63.18-39.57-94.21-16.12-17.06-38-60.19-59-90.47-24.78-12.49-30.82-39.61-37.16-66.61-16.8,1.89-32.42-13.66-56.94-45.13-58-1.71-35.85-35.61-45.4-63.88-19C168.41,345,118.14,378,102.91,411.48,70.92,373,31.79,376.93,0,400V612.88c25.22,12.49,57.67,17.16,96.51,20.4,201.8,16.85,410.56,14,612.56,13.39,483-1.36,964.65,44.62,1445.78,25.65,112.86-4.45,231.6-.93,345.15,2.6V435.34C2441.73,402.39,2264.13,384.26,2241.52,453.25Z"/><path class="cls-5" d="M1843.74,733.46C1423.23,736.41,509.4,735.93,0,735.38v67.23l12.51.42,41.83,12.71,22.14-8.09L150.3,831.9l56.59-13.85,49.21-24.26L307.78,803l142.71,2.31,88.57,27.72,64,12.7,51.68-11.55,81.2-18.47L790,818.05l86.12,16.16,56.59,11.55,81.19-24.25,86.12-9.24,64,2.31L1218.17,803l56.59,8.09,93.5,31.18,64,17.32,54.14,3.46,56.59-12.7,81.19-24.25,66.45-15,54.13-18.48,54.13,12.7,27.06-3.46,61.52-2.31,71.35,8.08s51.67,25.41,54.13,28.87S2072,864.24,2072,864.24l41.83,10.39,44.29,13.86,56.59,28.87,56.6,2.31L2323,893.11l64-13.86L2475.53,855l24.47-5.9V722.45C2283,727.21,2024.63,732.19,1843.74,733.46Z"/><path class="cls-6" d="M2475.53,526.46,2387,474.78l-64-29.52-51.67-56.6-56.6,4.93-56.59,61.51-44.29,29.52L2072,506.77s-56.59,51.67-59.06,59.05-54.13,61.51-54.13,61.51l-71.35,17.23-61.52-4.92-27.06-7.39-54.13,27.07L1690.61,620l-66.45-32L1543,536.29,1465,487l-58,24-38.74,42.51L1274.76,620l-56.59,17.22L1164,612.57l-64,4.92-86.12-19.68-81.19-51.67-56.59,24.6L790,605.18l-54.13,4.93-81.2-39.37L603,546.14l-64,27.06-88.57,59.06-142.71,4.91L256.1,656.86l-49.21-51.67L150.3,575.67,76.48,627.33,54.34,610.11,12.51,637.17,0,638.07V781.33c509.4-1.18,1423.23-2.19,1843.74,4.09,183.46,2.73,442,2.61,656.26,1.8V539Z"/><path class="cls-7" d="M2478.94,566.94l-28.84-20.36s-45.79-33.92-52.58-35.61-23.74-17-23.74-17l-76.32-32.23-22.05-25.44-23.75-13.57-13.56,50.88-22,45.8s-35.62,17-39,22-28.84,52.57-28.84,52.57l-17,39-44.09,10.18s28.83,40.71,33.92,42.4S2153.29,706,2153.29,706l-67.84-17-40.71-17L1993.86,650l-28.83,3.4-59.36,11.87-37.31,6.78-49.19-11.87-23.75-5.09-35.61,13.57L1792,700.93l22,32.22L1773.38,706l-28.84-23.74-44.68,3.54-29.94-32.37-51.06,2.37-45-27-66-6-3-42L1443,519l-80,54-32,50-22.35,11.78-39,11.87-37.31,5.09s-35.62,8.48-40.71,10.18-47.49,28.83-47.49,28.83L1173,663.61,1186.54,650l-42.41-6.78-39,17-39-6.78-35.62-10.18-22-8.48-15.26,23.74-40.71-27.13-22.05-23.75L922,578.81l-30.53,13.57s-30.53,6.78-37.31,11.87-40.71,15.27-40.71,15.27l-23.74,5.08H752.35s20.35,18.66,27.13,22,37.32,28.84,37.32,28.84l-37.32-15.27-35.61-20.35-25.44-10.18H693l17,37.31-28.83-6.78-18.65-18.66-32.23-8.48-1.7,32.23,18.66,28.83-28.83-18.65-30.53-35.62,1.69-37.32,6.79-27.13-45.8,15.26L496.24,624.6l-30.53,22-18.65,5.09-42.4,1.7-59.37-1.7s-37.31,5.09-44.09,6.78-39,11.88-39,11.88l-28.84,5.09L189.26,712.8l-30.53,11.87,25.44-25.44L174,653.44l-17-33.92H121.41l-20.35,20.35,25.44,39,11.87,18.65L107.85,711.1l15.26-17L96,660.22,72.23,639.87,53.57,626.3l-42.4,25.44L0,654.37V780l2500,12.25V580Z"/><path class="cls-8" d="M1626.28,780.07c-11.53-.49-22.54-3-34.1-3.08-35.63-.41-73.35-1-109,1.09-140.36,8.25-281.24-2.46-422.26.66-59,1.31-119.91,3.33-178.92-.45-24.94-1.6-40.92-5.38-45.74-31.13-4.23-22.6,25.46-57.84,46.35-33.66,4.26-9.86,18.75-19.8,22.56-5.77,8.1-7.88,18.06-5.28,18.76,5.18,9.19.12,13.87,7.19,13.5,16.67,7.77-6.1,15.72-4.4,19.54,4.53,8.65-10.17,21.36-4.27,26.56,6.73,8.92-7,20.52-5.21,27.59,4.17-1.14-12.47,10.24-29.1,23.65-19.21,7.58-6.84,17.49-5.63,22.32,3.15,3.32-11.63,14.15-27.6,26.82-17.91,8.86-15.23,41.93-18.67,47,.71,9.51-2.28,20.26-1.45,28.26,5.1,8.16-7.13,19.5-7.63,26.24,1.15,8.92-5.38,17.73-2.74,18.63,8.07,8.17-1.2,6.54-1,13.87.69,4.44-10.59,17.83-25,27.85-14.37,8.47-16.79,41.87-15.85,37.92,5.73,14.88,1,26.54,4.71,28.51,22,11.4-4.83,22.79,3.26,20.73,16.22,5-8.23,13.12-12.2,21.44-7.49,8.68-8.93,25.09-17,32-1.93,6.24-13.41,21.51-11,24.25,3.28.71-11.45,11.14-15.82,21.06-11.46-.06-11.89,6.64-25.58,20.13-22.91,5.1-15.5,27.63-19.28,35.93-5.31,6.47-8.4,15.38-6.94,19.54,3.09,7.7-25.12,85.67-12.51,80.64.58,10.09-10.69,31.8-2.67,31.43,12.71,10.23-5.76,26.48-.92,27.17,11.44,12.07-5.28,21.41,4.41,11.4,14.66,21.14-8.43,19,19.59-.6,17.28-.56-.49,5,.73,4.5.82-10.85,2.18-18.46,9.1-32.08,9Q1628,780.15,1626.28,780.07Z"/><path class="cls-8" d="M2404.34,782.4c-11.52-.49-22.54-2.95-34.1-3.09-35.62-.41-73.35-1-109,1.09-140.37,8.25-281.25-2.45-422.27.67-59,1.3-119.91,3.33-178.92-.46-24.94-1.59-40.92-5.37-45.74-31.12-4.23-22.61,25.47-57.85,46.36-33.67,4.26-9.85,18.75-19.8,22.56-5.77,8.1-7.87,18-5.27,18.75,5.18,9.19.13,13.88,7.2,13.51,16.67,7.76-6.09,15.72-4.39,19.54,4.53,8.65-10.16,21.36-4.27,26.55,6.73,8.93-7,20.52-5.2,27.6,4.17-1.15-12.47,10.24-29.1,23.64-19.21,7.58-6.84,17.49-5.63,22.33,3.15,3.32-11.63,14.14-27.6,26.81-17.91,8.86-15.23,41.93-18.67,47,.71,9.5-2.28,20.26-1.45,28.26,5.1,8.16-7.13,19.49-7.63,26.24,1.16,8.91-5.39,17.72-2.75,18.63,8.06,8.16-1.2,6.54-.95,13.87.69,4.43-10.59,17.82-25,27.84-14.37,8.48-16.78,41.87-15.85,37.92,5.73,14.88,1,26.55,4.72,28.52,22,11.39-4.82,22.79,3.26,20.73,16.22,5-8.23,13.12-12.2,21.43-7.49,8.69-8.93,25.1-17,32-1.93,6.25-13.41,21.51-11,24.26,3.28.7-11.44,11.14-15.82,21-11.45-.06-11.89,6.65-25.59,20.14-22.92,5.09-15.5,27.63-19.28,35.92-5.3,6.48-8.41,15.39-7,19.55,3.09,7.7-25.13,85.67-12.52,80.64.57,10.08-10.69,31.8-2.67,31.42,12.71,10.23-5.76,26.49-.92,27.17,11.45,12.08-5.29,21.41,4.4,11.4,14.66,21.14-8.43,19,19.59-.6,17.27-.56-.48,5,.73,4.5.83-10.85,2.17-18.45,9.1-32.08,9C2406.62,782.47,2405.48,782.44,2404.34,782.4Z"/><path class="cls-8" d="M941.11,780.07c-11.52-.49-22.54-3-34.09-3.08-35.63-.41-73.35-1-109,1.09-140.37,8.25-281.24-2.46-422.26.66-59,1.31-119.91,3.33-178.92-.45-24.94-1.6-40.92-5.38-45.74-31.13-4.24-22.6,25.46-57.84,46.35-33.66,4.26-9.86,18.75-19.8,22.56-5.77,8.1-7.88,18.06-5.28,18.76,5.18,9.19.12,13.87,7.19,13.5,16.67,7.77-6.1,15.72-4.4,19.54,4.53,8.65-10.17,21.36-4.27,26.56,6.73,8.92-7,20.52-5.21,27.59,4.17-1.14-12.47,10.24-29.1,23.65-19.21,7.57-6.84,17.49-5.63,22.32,3.15,3.32-11.63,14.15-27.6,26.81-17.91,8.87-15.23,41.94-18.67,47,.71,9.5-2.28,20.26-1.45,28.26,5.1,8.16-7.13,19.49-7.63,26.24,1.15,8.92-5.38,17.73-2.74,18.63,8.07,8.17-1.2,6.54-1,13.87.69,4.44-10.59,17.83-25,27.85-14.37,8.47-16.79,41.87-15.85,37.92,5.73,14.88,1,26.54,4.71,28.51,22,11.4-4.83,22.79,3.26,20.73,16.22,5-8.23,13.12-12.2,21.44-7.49,8.68-8.93,25.09-17,32-1.93,6.24-13.41,21.51-11,24.25,3.28.7-11.45,11.14-15.82,21.06-11.46-.06-11.89,6.64-25.58,20.13-22.91,5.1-15.5,27.63-19.28,35.93-5.31,6.47-8.4,15.38-6.94,19.54,3.09,7.7-25.12,85.67-12.51,80.64.58,10.09-10.69,31.8-2.67,31.43,12.71,10.22-5.76,26.48-.92,27.17,11.44,12.07-5.28,21.41,4.41,11.4,14.66,21.13-8.43,19,19.59-.6,17.28-.56-.49,5,.73,4.5.82-10.85,2.18-18.46,9.1-32.08,9C943.39,780.15,942.25,780.12,941.11,780.07Z"/><polygon class="cls-8" points="0 772.82 0 779.97 2500 792.22 2500 772.82 0 772.82"/></g><g id="Midground_copy" data-name="Midground copy"><path class="cls-9" d="M991.7,1378c-.19-6.88-1.78-13.55-1-20.63-3.22,10.07-5.29,20.47-8.43,30.58-.88-2.07-1.67-4.27-2.4-6.58,1.14-12,1.37-24.28,4.3-35.59a101.55,101.55,0,0,1-7.92,19.91,133.26,133.26,0,0,1-1.56-14.69c-.84,8.28-1.91,17.09-5.38,24.61-.79-1.86-1.61-3.69-2.48-5.5a53.56,53.56,0,0,1-.23-11c-.09.28-.17.57-.26.85a95.81,95.81,0,0,1,2.24-12.18,95.94,95.94,0,0,1-5.55,15c-1.68-2.94-3.47-5.81-5.41-8.6.39,5.1,1.17,10.21,2,15.31q-1.36,2.52-2.82,4.92c-1.5-1.93-3-3.85-4.49-5.78a133.64,133.64,0,0,1-1.77-16c-.39,3.82-.84,7.75-1.53,11.61-2.25-3-4.42-6-6.47-9.19,1.57,4.3,3.41,9.48,5.2,14.87a46.31,46.31,0,0,1-2.58,7.32,120.34,120.34,0,0,0-7.59-15,97,97,0,0,1,2.3-12.61,89.45,89.45,0,0,1-3.59,10.51c-.36-.57-.71-1.14-1.08-1.7-.11-1.28-.19-2.55-.25-3.8-.1,1-.21,2-.32,3-.38-.58-.77-1.16-1.16-1.73.15,2,.37,4,.63,6-.23,1.63-.48,3.25-.78,4.86-1,2.06-2.06,4.09-3.17,6.07-4.07-5.23-8.09-10.49-11.71-16,.49,1.33,1,2.75,1.53,4.23-.69-1.06-1.38-2.1-2.1-3.13.36,4.66,1,9.34,1.83,14-.63,2.37-1.25,4.76-1.86,7.14-3.69-4.72-7.4-9.41-10.89-14.27-.17-1.48-.31-3-.42-4.4.29-2.85.7-5.67,1.26-8.44-.4,1.88-.89,3.79-1.45,5.72l-.06-1q-.1,1-.21,2c-.34,1.12-.71,2.25-1.09,3.37-.72-1.05-1.44-2.1-2.13-3.17.52,1.43,1.08,3,1.65,4.58a118.27,118.27,0,0,1-5.67,13.21,113.75,113.75,0,0,0-9.62-16.75c.23,3,.6,6.06,1,9.09-.85,3.48-1.59,7-2.3,10.51-4.58-5.85-9.14-11.69-13.24-17.87,0-.31-.07-.61-.1-.92l0,.71-.41-.6c.13.34.25.7.38,1-.41,8-1.09,16.36-4,23.7q-2.26-4.68-4.9-9.1a125.65,125.65,0,0,1,.93-21.69,96.94,96.94,0,0,1-4.27,16.41c-1.45-2.16-3-4.27-4.56-6.33.54,4.14,1.34,8.29,2.24,12.42-.93,2.26-1.93,4.48-3,6.62q-3-3.37-5.86-6.8a43,43,0,0,1-.68-7.22c-.36,1.73-.69,3.48-1,5.22-2.31-2.78-4.56-5.6-6.7-8.53,1.74,4.08,3.78,9,5.78,14.08-1.06,6.84-2,13.71-3.31,20.51-5.54-10-9.51-23.92-11.36-36,0,8.32-.14,17.19-2.81,25a120.29,120.29,0,0,0-8.26-13,100.46,100.46,0,0,1-.11-13.87,89.94,89.94,0,0,1-1.7,11.46c-1.22-1.57-2.47-3.11-3.77-4.61.63,3.48,1.46,7,2.37,10.41-.75,2.78-1.59,5.54-2.53,8.23-5.06-5.25-10.1-10.51-14.69-16.17,1.53,3.15,3.28,6.78,5.06,10.64-1,9.29-1.22,18.66-2.33,28-6.31-9.58-11.35-23.1-14.16-34.95.67,8.3,1.22,17.15-.82,25.17-.84-1.28-1.71-2.52-2.59-3.76-.81-7.74-1.45-15.43-.91-22.93a98.31,98.31,0,0,1-3.17,17.51,109.64,109.64,0,0,0-8.71-9.69c1.62,6.11,3.84,12.14,6.08,18.13-.42,1.19-.86,2.37-1.31,3.53l-6.43-5.71a44.28,44.28,0,0,1-1.31-7.45c-.25,1.9-.44,3.81-.62,5.72-3.79-3.41-7.5-6.89-11-10.59,3.06,5.19,6.85,11.79,10.39,18.44-.42,6-.78,12-1.49,18-6.32-9.58-11.36-23.1-14.16-35,.67,8.3,1.22,17.14-.83,25.17a117.11,117.11,0,0,0-9.26-12.31,99.21,99.21,0,0,1-.08-13.46,89.49,89.49,0,0,1-1.7,11.43c-1.4-1.55-2.84-3.06-4.34-4.53.88,3.3,1.94,6.59,3.07,9.86-.72,2.73-1.55,5.45-2.45,8.11-5.23-4.62-10.42-9.28-15.22-14.34,1.63,2.78,3.48,6,5.38,9.33-1,9.32-1.22,18.73-2.33,28.06-6.31-9.58-11.36-23.1-14.16-35,.67,8.3,1.22,17.14-.83,25.17a116.27,116.27,0,0,0-10.66-13.9,92.52,92.52,0,0,1,.11-9.86,85.07,85.07,0,0,1-1.16,8.69q-1.79-1.93-3.66-3.8c.77,2.9,1.68,5.78,2.65,8.64-.7,3-1.53,6-2.47,9-5.08-4.51-10.11-9.05-14.79-14,1.4,2.38,3,5,4.57,7.89-1.33,10.45-1.48,21-2.73,31.52-6.31-9.58-11.36-23.1-14.16-34.95.67,8.29,1.22,17.14-.83,25.17a117.19,117.19,0,0,0-11.34-14.67,85.35,85.35,0,0,1,.14-9.06c-.21,2.63-.57,5.34-1.06,8.08-1-1.1-2-2.18-3.11-3.23.66,2.51,1.44,5,2.26,7.5-.71,3.23-1.58,6.48-2.58,9.66-4.91-4.36-9.77-8.76-14.29-13.52,3.44,5.83,7.81,13.44,11.69,20.92-.94,2.43-1.94,4.78-3,7-1.44-6.74-4.22-13-4.77-20.1-1.34,10.48-1.49,21.09-2.74,31.6-6.32-9.57-11.36-23.09-14.17-35,.68,8.3,1.23,17.15-.82,25.17a115.77,115.77,0,0,0-15.38-18.87c2.26,8.51,5.68,16.86,8.68,25.16-7.83-7.11-16-13.86-23.29-21.52,7.24,12.26,18.57,32.39,20.93,42.62l42.91-17.5c.36,1.1.66,2.13.87,3.08l42.33-17.26c.33,1,.6,2,.81,2.87l40.65-16.58a40.32,40.32,0,0,1,1.26,4.21l35.25-14.37c.34,1,.62,2,.83,2.92l38.09-15.53c.31,1.25.56,2.42.71,3.47l36.92-11.75a47,47,0,0,1,1.2,6.49l28.79-7.57c.11.91.18,1.77.22,2.56l28.26-5.86c.21,1.42.35,2.73.41,3.9l15.51-3.22c0,.41.06.81.08,1.19l23.8-4.93q.24,1.72.3,3.18l47-9.75c3-16.89,2.08-32.8,5.81-47.12C1005.12,1355.65,998.7,1368.31,991.7,1378Zm-332.51,65.26c-.28-2.63-.57-5.25-.81-7.86,1.31,3.57,2.66,7.13,3.94,10.67C661.28,1445.14,660.24,1444.2,659.19,1443.27Zm32.33-5.2c-1.43-6.7-4.18-12.93-4.76-20,2.47,4.34,5.07,9.06,7.47,13.71C693.38,1434,692.47,1436.07,691.52,1438.07Zm11.53-8.54q-.33-3-.65-6.09c1,2.76,2.06,5.51,3.06,8.25Zm31.6-5.85c-1-4.78-2.7-9.33-3.8-14.09,1.86,3.34,3.75,6.83,5.51,10.26C735.81,1421.16,735.24,1422.44,734.65,1423.68Zm11.89-5.1c-.07-.71-.15-1.42-.22-2.13.35,1,.71,1.92,1,2.87Zm66.11-18.72c-.92-4.3-2.39-8.42-3.47-12.68,1.55,3.44,3.09,7,4.5,10.42C813.34,1398.37,813,1399.12,812.65,1399.86Zm80.08-16.16.45,2.61-.18-.23C892.92,1385.29,892.84,1384.49,892.73,1383.7Zm-8.59,13.61c-4.76-9.78-7.92-22.92-9.3-34.59,3.3,9.13,7.52,21.44,10,31.56C884.63,1395.29,884.4,1396.3,884.14,1397.31Zm29.73-3.61a93.5,93.5,0,0,1-5.35-18.46c2.05,6.28,4,12.76,5.35,18.44Z"/><path class="cls-10" d="M911.39,1363.57c20.25-4.24,40.46-8.81,60.89-13.21,4.16-.9,17.41-3.26,16.34-9.86-1.11-6.79-11-3.68-14.69-2.26-.65-11.93-23.51-11.55-30.4-6.72-.85-5.56-7.38-6.19-10.31-1.67.8-6.19-6.35-10.76-10.56-5.12-.73-5-6.2-10.41-10.78-5.7-6.25-14.36-20.84-3.81-23.44,7.62-4.49-8.41-9.25-3.77-13.7,1,.92-10.65-12.83-11.9-16-3.2.09-9-11.7-5.86-16-2.33,4.53-7.32,12.37-19.42,9.69-28.3-3-9.89-16.4-15.54-24.11-7.6,3-6.46,5.06-12.3-1-16.63-5.21-3.71-16.57-2-20.54,2.71,2.57-10.14.79-22.29-10.57-25.45-2.55-.7-22.15,3.53-16.71,7.94-8.12-6.58-18.25.66-20.34,10.54-1.9,9,4.9,19,11.58,24,.14.14.14.14,0,0-5.79-5.16-15.89-2.7-19.52,3.58-3.3-6.66-14.58-11.51-21.86-10.42-12.51,1.87-9.36,13-8.44,22.89-12.4-9.74-25.91-.1-21.39,14.92.12.11.24.22.35.34l-.35-.35c-7.47-6.62-28.82-4.52-30.87,7-1.66,9.3,8.47,14.33,15.1,18.44-8.44-2.94-17.28,12.27-14.76,20-8.34-4.64-18.69-12.71-28.08-4.65-11.42,9.8-2.36,31.56,13.33,26.44-4.63,7.63,3.15,12.26,7.7,14.7L736,1391.49l110.91-16.16C868.63,1372.16,890,1368,911.39,1363.57Z"/><path class="cls-11" d="M828.3,1286.26c3-6.46,5.06-12.3-1-16.63-5.21-3.71-16.57-2-20.54,2.71,2.57-10.14.79-22.29-10.57-25.45-2.55-.7-22.15,3.53-16.71,7.94-8.12-6.58-18.25.66-20.34,10.54-1.9,9,4.9,19,11.58,24,.14.14.14.14,0,0-5.79-5.16-15.89-2.7-19.52,3.58-3.3-6.66-14.58-11.51-21.86-10.42-12.51,1.87-9.36,13-8.44,22.89-12.39-9.73-25.89-.11-21.4,14.9-7.48-6.6-28.81-4.51-30.86,7-1.66,9.3,8.47,14.33,15.1,18.44-8.44-2.94-17.28,12.27-14.76,20-8.34-4.64-18.69-12.71-28.08-4.65-15.74,13.49,3.81,33.82,20.58,22.94-4.7,1.71-12.6-.25-8.09-6.15,2.95-3.87,10.54-2.16,14-.36-7.28-6.09,5.52-6.7,9.75-2.25-6.8-11.24,11.59-11.37,18-8.92-5.47-5.76,4.13-6.59,8.24-6.58-8.81-3.18-1.05-9.85,4.1-10-4.36-.19-14.18-4-13.71-9.68s10.16-6.88,13.86-4.34c-9.37-6.44,2.68-11.19,6.39-5.15-4-6.18.69-15.68,7.1-7.71-4-11.51,6.44-11.12,9.43-1.64.52-8.06,13.06-2.63,5.34,4.43,6.42-3.48,5.63,7.75,1.3,10.68,5.58-3.78,4,9.33,1.79,14,4-5.12,12.36-2.77,14.29,3.39-1.09-3.67,1.59-5.25,4.29-4.72-4.11-4.76-8.18-11-2.47-12.37-6.54-1.07-2.61-8,2.81-6.52-10.46-8.16,7.56-13.48,7.67-1,6.59-2.91,9.23,7.49,9,11.63,3.17-4.78,8.5-.25,9.39,4,1.78-4.52,7.8-5.28,11.2-2-4.19-4.14-16.45-11.31-9.36-17.92-4.54-.75-18.62-4.79-12.58-11.65-18,6.51-11-23.52-1.48-12.33,2.14-3.33,7.63-1.15,8.16,3.21-1-7.1,6.66-6.11,10.95-3.79-2.55-1.73-12.47-9.57-5-10.47-4-.88-9.52-8.56-3-9.93,7-1.49,4.55,8.83,4.6,12,4.57-6.66,9.37,0,7.48,5.61,10.63-6.53,8.17,11,3.51,15.68,3.83-3.69,13.74-10.57,13.44.58,3.68-7.5,9.61.91,11.5,5-.24-4,.51-21.91,8.37-14.76-1.74-4.2,2.54-9.6,7.16-6.7-.3-5.83,6.29-6.1,9.82-2.86,2.94,2.69,2.75,7.07,1.73,10.61C864.9,1292.41,834.1,1273.58,828.3,1286.26Z"/><path class="cls-10" d="M0,1545.33V1600H2500V1229.43C1345.83,1203.61,335.85,1452,0,1545.33Z"/><path class="cls-10" d="M1937.49,1211.76c-3.34-1.56-9.1,3.29-14.62,11.61-2.16-8.41-5.46-13.91-8.82-13.7s-5.92,6.11-7,14.72c-6.54-7.54-12.88-11.6-16-9.63-4.3,2.73-.77,16,7.87,29.59a77.34,77.34,0,0,0,11.29,14.12c.08,3.2.9,5.43,2.55,6.2a2.47,2.47,0,0,0,.52.18c1.42,2.07,3,3.2,4.51,3.1s2.94-1.42,4.08-3.65a2.82,2.82,0,0,0,.49-.25c1.54-1,2.07-3.29,1.73-6.48a76.4,76.4,0,0,0,9.37-15.46C1940.31,1227.5,1942.1,1213.91,1937.49,1211.76Z"/><path class="cls-10" d="M1983.59,1211.76c-3.34-1.56-9.1,3.29-14.62,11.61-2.16-8.41-5.46-13.91-8.82-13.7s-5.92,6.11-7,14.72c-6.54-7.54-12.88-11.6-16-9.63-4.3,2.73-.77,16,7.87,29.59a77.34,77.34,0,0,0,11.29,14.12c.08,3.2.9,5.43,2.55,6.2a2.47,2.47,0,0,0,.52.18c1.42,2.07,3,3.2,4.51,3.1s2.94-1.42,4.08-3.65a2.82,2.82,0,0,0,.49-.25c1.54-1,2.07-3.29,1.73-6.48a76.4,76.4,0,0,0,9.37-15.46C1986.41,1227.5,1988.2,1213.91,1983.59,1211.76Z"/><path class="cls-10" d="M2033.67,1209.2c-3.33-1.56-9.1,3.29-14.61,11.61-2.16-8.41-5.47-13.91-8.82-13.7s-5.93,6.11-7,14.72c-6.55-7.54-12.89-11.6-16-9.63-4.3,2.73-.77,16,7.87,29.59a77.32,77.32,0,0,0,11.28,14.12c.08,3.2.91,5.43,2.56,6.2a2.28,2.28,0,0,0,.52.18c1.42,2.07,3,3.2,4.51,3.1s2.93-1.42,4.08-3.65a3.23,3.23,0,0,0,.49-.25c1.53-1,2.06-3.29,1.73-6.48a77.32,77.32,0,0,0,9.37-15.46C2036.5,1224.94,2038.29,1211.35,2033.67,1209.2Z"/><path class="cls-10" d="M2082.08,1206.08c-3.33-1.55-9.1,3.29-14.62,11.61-2.15-8.4-5.46-13.91-8.82-13.69s-5.92,6.11-7,14.72c-6.54-7.54-12.88-11.6-16-9.63-4.29,2.73-.77,16,7.88,29.59a76.9,76.9,0,0,0,11.28,14.12c.08,3.2.91,5.43,2.55,6.2a2.47,2.47,0,0,0,.52.18c1.42,2.07,3,3.2,4.52,3.09s2.93-1.41,4.07-3.64a2.82,2.82,0,0,0,.49-.25c1.54-1,2.07-3.29,1.74-6.48a77.6,77.6,0,0,0,9.37-15.46C2084.91,1221.83,2086.69,1208.24,2082.08,1206.08Z"/><path class="cls-10" d="M2131.74,1204.61c-3.26-1.71-9.24,2.86-15.14,10.92-1.76-8.49-4.81-14.15-8.18-14.09s-6.19,5.83-7.65,14.38c-6.18-7.83-12.33-12.18-15.52-10.35-4.42,2.53-1.51,15.92,6.49,29.92a76.74,76.74,0,0,0,10.63,14.62c-.07,3.21.65,5.47,2.26,6.32a2.85,2.85,0,0,0,.51.2c1.32,2.13,2.81,3.33,4.37,3.3s3-1.28,4.24-3.46a3.16,3.16,0,0,0,.5-.22c1.58-.9,2.22-3.19,2-6.4a77.27,77.27,0,0,0,10.07-15C2133.84,1220.46,2136.25,1207,2131.74,1204.61Z"/><path class="cls-10" d="M2180.4,1204.61c-3.26-1.71-9.24,2.86-15.13,10.92-1.77-8.49-4.82-14.15-8.18-14.09s-6.2,5.83-7.66,14.38c-6.18-7.83-12.33-12.18-15.52-10.35-4.42,2.53-1.51,15.92,6.5,29.92A76.3,76.3,0,0,0,2151,1250c-.07,3.21.65,5.47,2.26,6.32a2.85,2.85,0,0,0,.51.2c1.33,2.13,2.81,3.33,4.37,3.3s3-1.28,4.24-3.46a3.16,3.16,0,0,0,.5-.22c1.58-.9,2.22-3.19,2-6.4a77.27,77.27,0,0,0,10.07-15C2182.5,1220.46,2184.91,1207,2180.4,1204.61Z"/><path class="cls-10" d="M2228.39,1204.61c-3.26-1.71-9.24,2.86-15.13,10.92-1.77-8.49-4.82-14.15-8.18-14.09s-6.2,5.83-7.66,14.38c-6.18-7.83-12.33-12.18-15.52-10.35-4.42,2.53-1.51,15.92,6.5,29.92A76.3,76.3,0,0,0,2199,1250c-.07,3.21.65,5.47,2.26,6.32a3.17,3.17,0,0,0,.51.2c1.33,2.13,2.81,3.33,4.37,3.3s3-1.28,4.24-3.46a3.16,3.16,0,0,0,.5-.22c1.58-.9,2.22-3.19,2-6.4a77.27,77.27,0,0,0,10.07-15C2230.49,1220.46,2232.9,1207,2228.39,1204.61Z"/><path class="cls-9" d="M2500,1335.17c-22.92-22.6-52.16-15.43-79.58,1-15-33.13-48.21-41.4-74.91-17.4,2.83-24.45-13.57-40.86-36.42-27.8-22.72-40.48-79.5-14.19-103.63,10.34-23.85-34.34-101.23,6.42-91,21.81-16.93-25.47-38.81-13.13-52.29,8.44-15.21-31.84-36.71,4.21-45.17,21.78-23.34-20.8-48.33-14-67,7.65-7-34.27-60.22,14.3-64.76,35.07-15.1-14.91-39.09-9.21-43.78,11.75-9.63-18.27-32.66-14.19-43,1.06-9.81-9.54-82.69-22.67-80.45,3.23-2-23.31-29-31.91-38.13-7.65,2-30.06-27.87-43.4-47.9-18.94-7.59-23.37-33.39-26.74-51.09-11.31-1.65-21.57-25.12-26-40.91-16.08-18-30.27-69.31-23-96.64-9.89-26.81-21.86-63.54-33.88-84.58,1.45-19.84-15.59-46.49-9.24-55.71,14.24-23.9-13.25-59.18-3.27-62.71,27.72-19.19-16.23-38.34-22-55.25,2.56-11.15-20-39.54-29.5-55.46-9.46,2.53-3.18-10.35-10.6-12.16-11.74-8.78-5.53-16.57-6.78-26.62-4.4-4.79,1.13-22.82,5.57-19.74,13.66-3.47-9.09-12.95-16.34-22.83-17-17.23-1.06-27.33,5.37-37.08,18.1-2.34-2-5.42-4.24-8.5-4.95-5.59-1.29-14,1.42-18.36,5.3-8.75,7.78-3,7.27-14.93,2.29-21.65-9.06-43.74,1.27-47.36,25-11.25-28.71-50.58-34.09-54.76,1.13-18.21-6.49-52.41-21-49,13.1-9.9-25.76-47.2-16.91-49,8.83,2-29.36-46.44-24.64-62-14.86-7.13,4.48-11.18,18.93-8.52,26.85-10.36-30.82-69.13-54.69-84.88-16.12,4.51-11.07-15.07-19.73-22-23.4-9.92-5.26-22.38-8.22-33.69-6.67-1.92.26-25.2,8.65-21.46,12-15.71-14.06-23.07-24.36-47-21.41a100.73,100.73,0,0,0-20.24,4.81c-2.92,1-24,11.76-24.38,11.35-43.89-45.93-108.77,47.42-61.87,57.68,12.84,2.81,23.94.13,34,8.48,12.52,10.37,11.23,21,28.67,27.06,17.85,6.23,41.84.94,54.67,17.44,14.82,19.07,5.34,60.82,3.81,82.7H2500Z"/><path class="cls-5" d="M1253.85,1010.86c-19-1.27-38.07.49-57.1-.06-27-.77-53.92-1.7-80.9-1.89-63.84-.45-127.67-1.37-191.5-.84-170.86,1.41-337.36,24.21-506.29,45.64-82,10.4-162.07,29.09-243.41,43.54-55.92,9.93-115.43,13.36-174.65,16.33V1183c4-.47,8-.89,12-1.21,21.6-1.7,48.44-9.15,69.35-4.39-3.46,2.95-4,6.39-6.09,9,14.68,5.23,33.53.69,47.63,7.51,1.89.91,8.54,11.18,13.64,14.17,4.85,2.84,18.53,6.69,24.29,8.25,9.3,2.52,17.66,8,27.32,2.24,11.52-6.92,2.67-8.29,7.53-17.63,6-11.57.34-9.53,13.43-18.24,9.57-6.36,19.2-10.16,26.87-16.46,7-5.71,1.28-8.74,14.34-12.79,7.5-2.33,20.1,0,27.16,2-8.47,21.81,23.65,13.33,36,16.28,6.16,1.48,10.48,7.7,20,9.17,7.78,1.19,25.78.12,31.77-5.7,8.52-8.27-.37-14.05,3.8-19.91,7.09-10,12.48-5.85,22.58-11.64,24-13.74,21.45-22.1,50.92-18.73,9.5,1.08,22.92-4.28,31.68-2,8.59,2.25,10.42,9.91,18.22,13.17,15.67,6.55,39.25-1.14,55.44-1.69,2,19.89,35.49,15,50.8,14.49,9.9-.3,27.6,1.46,35.11-6.17,8-8.08-.23-13.7,3.73-20.37,7.54-12.68,30.54-20.71,44.3-24.68,25.25-7.29,18.73,4.7,34.85,11.9,20.27,9,25.75-2.61,39.36,15.55,1,1.32-2,7.81,0,11,2.23,3.68,9.88,3.6,11.55,6.35.52.85,7.77,17.79,7.26,17.42,9.56,6.92,38.63,5.41,49.25-.73,20.1-11.63,4.57-21.1,8.66-39.55,1.82-8.23,13.54-19.95,19.83-21.94,12.22-3.87,27,6.33,37.42,6.22,1.9,0,13.21-5.82,16.07-6.45,6.94-1.53,10.52,6.66,18.58,1.84,19.68-11.77,13.42-29.77,45.33-27.07,5.63,11.68,39.62-11.44,54.55-11.12,7.51.17,15.51,5.3,21.91,5.3,8.54,0,17.12-4.82,25.28-4.15-7.8-.64-1.58,15.86.66,18,7,6.56,20.07,7.64,29.13,8.73,10.11,1.22,46.68,8.76,49-8.4,1.3-9.8-15.39-10.64-2.69-19.29,5.06-3.45,12.7-3.24,17.46-7.16,2.94-2.42,3-6.29,5.82-8.61,6.58-5.47,16.81-2.57,24.62-3.9,13.73-2.31,28.94-5,41.8-10.37,4.4-1.83,8.93-1.64,13.79-2.39,7.39-1.15,18.54-4.21,25-7.76C1288.6,1014.23,1256.85,1011.06,1253.85,1010.86Z"/><path class="cls-5" d="M1115.85,1008.91c-63.84-.45-127.67-1.37-191.5-.84-170.86,1.41-337.36,24.21-506.29,45.64-82,10.4-162.07,29.09-243.41,43.54-55.92,9.93-115.43,13.36-174.65,16.33v50q9.84-1.2,19.58-2.73c18.78-3,38.37-8.26,57.34-8.11-2.81,2-2.75,4.31-4.49,6.45.71-.88,34.3.34,36.7,1.23.09,1.14-.36,1.75-.33,2.89,58.18-3,112.91-31.55,172.31-28.51-.11.94-.95,1.54-.95,2.5,8.64,3.72,21-1,30.56-1.43,7-.3,13.08,1.69,19.49,2,13.84.75,27.52-4.66,40.6-8.31,26-7.24,48.39-13.15,75.28-14.21,5.26-.2,12,.94,17-.63,4.26-1.34,5.84-5.67,10-6.65,10.2-2.39,26.8,1.4,38,.49,12.09-1,25.21-2.48,36.42-1,9,1.19,37.72-3.3,36.46,7.6a81.69,81.69,0,0,0,23.57-3c-14-20.36,83.59-30.43,95-30.25,10.78.16,17.1,5.09,28.31,4,10.52-1,23.07-4.15,33,1,4.36,2.27,3,6.88,8.81,8.35,5.53,1.4,12.08-3.28,17.43-4.08,6.1-.92,12.25,1,18.34-1.55,4.73-2,6.52-6.41,11.71-8.19,8.5-2.92,21-.32,29.94-1.41,21.15-2.6,51,9.32,71.32-1,14.32-7.27,34.81-19.08,51.15-19.59,4.76-.15,10.11,3.35,14.77,3.09,5-.27,9.32-3.38,14.27-4.49,9.31-2.08,16.16.34,25.28.92,10.67.69,21.47-1.63,32.29-2.07,9.92-.41,18.17-3.6,27.83-3.58,10.1,0,17.47,2.67,28,.63,8.22-1.59,16.19-3.71,24.26-5.72,23.41-5.85,48.1-8.44,71.18-15.36,8.12-2.43,16-5.76,23.94-9a191.41,191.41,0,0,1,22.3-7.92C1211.36,1008.32,1161.67,1009.23,1115.85,1008.91Z"/><path class="cls-12" d="M1252.57,1015.45c-5.36-.34-9.9.6-15.08,1.6-30.1,5.84-63.28,2.7-93.87,3.07l-96.91,1.19L826.33,1024l-247.28,3-244.3,3-211.49,2.59L0,1034.11v120l100.27-10.56,274-28.85c15.42-1.62,32-3,46.93-7.17,10.88-3.06,17.25-.2,27.61,1.07,9.24,1.14,9.05-5.12,17.33-8,9.63-3.32,22.21.57,31.87,0,5.3-.31,9.6-3.58,14.6-4.22s8,1.52,12.72,2c5.45.56,8.67-1.38,13.6-2.34,4.33-.84,5-.2,8.09-.18,8.59,0,18-2.89,26.7-2,2.17.22,9.25,3.53,10.53,3.24,3.35-.75,5.53-5.86,9.33-7.71,5.65-2.75,16.88-5.39,23.16-6.66,22.4-4.53,46.95-.21,69.42-4.81,11.14-2.28,20.93-6.31,32.3-6.36,10.68-.06,18.12-3.81,28.36-6.73,10.67-3.05,20.9.19,31.84-.08,12-.3,22.48-3.24,34.61-1.8,9.72,1.16,20.14,3.6,30,2.79,10.62-.88,15.43-1.85,25.77,1.07,8.89,2.51,14,.37,22.55-.62,6.66-.78,13,2.41,19.56,1.34,9.44-1.54,18.51-6.72,28.33-8.25,3.6-.56,7.33,0,10.81-1,4.14-1.15,7.36-5.17,11.35-6.11,4.46-1,8.59.8,13.29.65,5.4-.18,10.35-2.3,16-2.07,15.55.63,30.21,3.22,45.83,2,14.55-1.09,28.83-3.58,43.27-5.62,3.74-.53,7.62-2.27,11.38-2.61,3.57-.32,5.8,1,8.58,1.09,6.53.2,13.49-2,20.29-3.77,14.94-3.86,32.14-5,47.56-5.85,13.25-.74,26.1-2.82,39.43-3.55,7.29-.4,13.63-2.54,20.73-3.59,5-.74,9.8-.13,14.82-1.33a57.94,57.94,0,0,1,12.77-1.64c7.35-.14,24.53-.88,26.8-9.34C1273.08,1014.74,1262.09,1016.06,1252.57,1015.45Z"/><path class="cls-10" d="M1253.31,995.74c-18.94-7.16-38.81-12-58.6-16.45-27.13-6-54.56-10.8-82-15.09-33.57-5.25-67.27-9.71-101-13.77Q954,943.5,896.11,938q-40.15-3.9-80.36-7.35A21,21,0,0,0,810.5,925c-6.53-5.22-21.31-4.13-27.47-5.49-10.57-2.34-14.65-8.88-27-3.9-1.92-16.27-20.34-17.14-32.51-11.84-2.4-18.56-26.21-32.38-42-17.52-1.31-23.85-40.8-30.45-36.32-5.58-12.8-20.44-46.4-.33-38.3,21.32-12.07-8.79-41.69-14.13-51.36,0-9.41-14.41-27.13-22.48-35.67-2.93-.47-14.66-22.6-15.53-32.1-8.81-.51.36-1,.72-1.46,1.09a20.91,20.91,0,0,0-6.91,6.48c2-5.62,5.21-12.8,10.69-16-6.07,3.64-12.52,6.91-13.75,14.51-.4-5.16-1.67-11.63-1-16.85-1.12,5.46-1.38,11.47-3.4,16.66-.6-4.39-1.75-10.08-1-14.7-1.31,5.43-2.94,11.08-3.67,16.47-.76-1.81-1.58-3.53-2.44-5.21a14.17,14.17,0,0,1,2.65-1.13c-1,.2-1.94.42-2.88.67-1.11-2.15-2.28-4.24-3.49-6.31l.46-.27c-.15.09-.31.17-.47.25l-1.4-2.35c.41.81.79,1.64,1.15,2.48-1.35.71-2.71,1.42-4,2.16-.46-.63-.9-1.28-1.38-1.89q.42,1.13.9,2.16a30.3,30.3,0,0,0-4.23,2.89c-1.82-1.27-3.5-2.38-4.43-3.21a18.12,18.12,0,0,1,3.31,4.22,14,14,0,0,0-3.5,5.45l-.52-.14c-.23-4.84-.85-10.51,0-15.11-1.24,4.67-1.85,9.79-3.49,14.38l-1-.16c-.38-4-.84-8.66,0-12.5-1.61,5.36-3.54,10.92-4.57,16.26a106.27,106.27,0,0,0-6.77-14.72,32.81,32.81,0,0,1,3,15.13c-2.38-4.12-4.65-8.6-7.43-12.6,1.53,4.93,4.23,8.72,3.78,14.14.38-4.58-8.95-10-11.64-12.71,3.74,3.86,4.85,8.91,6.62,13.74l-.28,0c-3.11-3.3-9.06-4.91-13.4-5.61a25,25,0,0,1,6.38,5.22q-20.43-1.15-40.87-2.28-60.76-3.29-121.57-6.22-54.71-2.65-109.44-5-46.42-2-92.86-3.88Q26.77,884.63,0,883.62v227.31a149.09,149.09,0,0,1,16.53-.31c18.6.74,37.12.52,55.71.82,20.24.32,40.25-5.25,61-5.64,22.9-.42,42.08-7,63.88-11.56,22.35-4.71,45.32-5.58,67.84-9.27,90.76-14.85,184.82-24.44,277.24-16.87,6.77.56,13.66,2.83,20.48,2.45,5.59-.31,11-4.3,16.18-4.1,3.68.15,7.15,1.71,10.92,1.78a37,37,0,0,0,9.72-1c2.77-.78,5-2.91,8.12-2.74s5.34,3.09,8.46,3.55,6.31-1.51,9.77-1.13c4.69.5,8.22,2.93,13.2,2.72,7.75-.32,15.44-.72,23.21-.13,4.59.35,9.15,1.46,13.76,1.42,4.12,0,7.62-1.5,11.65-2.14a72.59,72.59,0,0,1,9.26-.92c7.75-.2,16.85,3.49,24.33.69,8.22-3.07,15.09-4.08,23.77-5.11,6.77-.8,12.84-4.32,19.69-4.75,10.8-.67,23.11,4.74,33.69.74,12-4.53,14.83-18,26.93-20.8,8.48-1.94,18.72.65,27.26,1.53,16.44,1.69,27.27.88,43.38-2.87,3.06-.72,6.17-1.3,9.31-1.77,26-3.94,54.79-.57,80.84-3.42,28.48-3.11,57-2.66,85.79-3.61,12-.4,23.84-.83,35.82-1.71l77.74-5.72c25.46-1.87,51.27-5.21,76.59-6.38,3.93-.19,7.69.6,11.48.4.76,0,8.65-1.49,8.78-1.84C1284.33,1008,1259.2,998,1253.31,995.74ZM442.77,899c0-.52-.09-1-.14-1.6l.63.39C443.1,898.22,443,898.63,442.77,899Zm8.8.28L451,899c.51-1.13,1.08-2.29,1.7-3.45.28.63.55,1.28.81,1.92A21.66,21.66,0,0,0,451.57,899.31Zm3.65,2.59,0-.06.08.18Zm1.83-6.77a31.25,31.25,0,0,0-2.75-2.26,28.93,28.93,0,0,1,2.58-3.4c.74,1.59,1.5,3.11,2.1,4.7C458.32,894.47,457.68,894.79,457.05,895.13Zm2,2.19c.23-.24.47-.47.71-.7a15,15,0,0,1,.36,3.62A5,5,0,0,0,459,897.32Zm-1.6-8.41a16.94,16.94,0,0,1,3.52-2.84,35.14,35.14,0,0,1,2.11,6.62c-.87.26-1.72.55-2.56.87C459.49,892,458.48,890.43,457.41,888.91Zm4,6.16c.58-.48,1.18-.93,1.79-1.34a26,26,0,0,1,.41,4.78C462.9,897.39,462.17,896.24,461.44,895.07Z"/><path class="cls-9" d="M251.23,920.43c-3.44-7.27-14.36-14.6-20.52-5.57-2.21-8.69-10.55-8.28-15.4-2.43,1.82-6.31-7-11.3-10.54-5.25-1.27-5.58-10.21-10.31-15.49-6.22-5.71,4.44,1.14,12.44,5.63,15.4-2.25-2.6-6.09-4.28-9-1.91-3.19,2.56-1.45,6-1,9.43-8-14.58-13.22-1-19.08,6.22,1.64-2.39,6.74-17.23-.78-12.24,6.63-10.93-6.24-16.26-14.86-10.18.79-8.31-11.72-7.62-15.24-2.54.63-6-9-5-11.11-1.23-3.3,5.8,4.35,10.57,8.85,12.55.34.16-.22-.06-.23-.07-11.79-4.66-15.61,3.64-14.27,13-1.26-5.15-8.23-14.57-14.62-9.83-1.35-9.87-12.09-4.07-17.77-3.89-11.23.36-20.42-6.26-32.11-.27-.61-6-11.51-10.24-16.48-8,4.87,1,19.07,0,21.37-5.41,7.24,5.37,18.26,8.35,24.6,0,3.13,4,7.5,6.68,12.93,5.4,3.39-.8,8.48-3.49,5.23-7.15,4.46.65,12.26-1,6.86-5.6-3.28-2.78-10.94-1.68-15-1.68,9.49-.2,21.65-16.32,31.38-4.52-.25-9.18,4.8-16.75,13.12-20.58,5.71-2.64,21.14-5.25,22.89,4.49-3.82-21.22,29.87-15.59,31,4.76,13.27-12.51,40.44-6.22,38.1,14.33,8.24-10.65,17.64,2.72,23.56,5.25,10.28,4.39,23.37,5,34.07,7.15-7.4-.65-17.39.46-24.23,3.47C259.94,908.73,249.28,916.3,251.23,920.43Z"/><path class="cls-9" d="M1214.55,1003.31c-7.58,6.17-16.09,2.14-17.44-7.09-4.7,7.15-12.8,9.17-16,.74a14.48,14.48,0,0,1-24.87,6.17c-14.32,10.63-19.81-2.91-17.39-15.1-14,7.63-16.66-6.88-21-6.67-4.59.22-5.07.51-10-.43,3.31,7.37,11.25,18,4.16,23.58.09.66-1.34-2.28-1.87-3.65,2.23,12.47-17.85,14.66-19.87,1.71-10.46,8.63-20.44-1.08-16.87-12.14-8.89,1.9-12.51-6.12-10.36-14.1-7.09-2.27-16.3-3.75-17.21-11.33-.27-.29,1.73.74,3.3,1.59-1.68-1.22-3.47-3.24-2.58-4.59,1.09-1.67,6.51-.61,8-.43,7.72.9,16.27,2.9,23.11,6.47-2.33-1.77-2-5.33-4-7.62,6,.08,12.78-.51,18.72.28-6.19-1.36-12.33-4.09-18.59-5.47,1.74-4.43-4.38-7.65-7.86-8.66,5-7.45,4.14-24.24-8.35-14.9,9.61-21.7-23.77-19.06-21.09-1.94-7.27-.63-19.63,6.11-19.54,13.94-2.8-6.24-18.88-5.59-16.56,3.07-.21-.8-13,1.29-14.13,1.47a63.44,63.44,0,0,1,13.52,1.64c1.24.24,10.26,2.89,11.08,2.18-6.36,5.53-14.37,6.82-21.06.45-1.45,8.43-9.69,7-15.07,1.21-.9,3.63-2.39,5.53-4.26,5.92,7.59,3.81,15.9,8,11.64,15.22,8.88.24,16.23,6.67,13.1,15.25,7.4-3.6,33.51,4,36.13,12.14,2.09,6.52-1.43,9.82-7.28,13.84-4.08,2.81-21.46,2.86-16.18-1.66-7.75,6.64-19.1,8.32-25.3-1.24-1.37,7.54-7.56,18.37-13.05,9.88-7.33,8.91-17.64,3.33-22.73-4.95-6.92,8-18.74,8.34-22.52-2.24-11.28,1.65-16.92-10.31-7.42-16.33a13.37,13.37,0,0,1-8.34-8c-.53,10.14-3.95,23.8-9.54,19.5-3.1,7.69-9.88,17.91-17.51,9.19,1.35,11.11-7.61,28.9-17.42,13.22-11.15,9.92-21.94,1.46-22.68-11.28-6.74,8.09-15.59,5.69-17.42-4.21-6.81,3.26-12.49.16-16-5.37,4.74,13.82-8.08,29.43-12.24,11.88-6.44,9-14.32,2.25-16-6.35,2.15,15.11-17,28.51-28.9,16.76-.37,11.56-10.95,14-19.51,9.11,9.31,7.91,6.47,24.32-5.4,11.91-6.63,11.06-13.18,2.34-21.76.95-10.25-1.67-18.4,4.68-24.74-10.5-.82,11.47-11.69,21.44-19.07,8.31-3,10.13-14.21,10.44-20.25,2.24,2.37,10.57-6.79,9.42-13.66,4.13,3.82,15.48,13.13,12.74,26,12.76,7.93,0,14.52,2.94,23-.63,6.73,7.44,23.32,4.21,30-2-1.07,15.85,23.84,5,29.65-.81-3.53,3.55,8.6,3.68,9.08,3.65,5.87-.28,10.71-4.77,13.8-9.21.41,11.11,15.22,6.06,19.63-.09,7.9,12.32,15.92,3.63,26.57,2.22,11.72-1.54,19.24,2.37,16.76-14.74,4.26,2.11,6.2-.77,6.77-4.67l79.93-5.88c6.83,2.44,15.8,1.75,21.33-1.56l2.81-.21c3.75,9.44,19.53-.48,26.2-1.13,7.27-.7,12.79,2.83,20.59,1.4,2.74-.5,5.57-2.69,8.29-4.32l8-.59a4.07,4.07,0,0,0,2.81,1.31c7.39.16,14.52.51,21-3.06l3.24-.24c1.18,8.61,15,2.23,20.44.49-.33.1,2.63,1.86,3,2,1.87.46,3.75-.92,5.45-1.26,5.31-1.09,8.78-1.94,14.41-1.37,6.22.64,11.78-.6,18.21-1.12,5.76-.46,10,1,15.49-.13,7-1.49,12.23-1.53,19.58-1.4,5.39.1,7.58-1.51,12.42-3s8.81-.61,13.86-.72c10.13-.2,20.37-.72,30.34-.91,8.18-.15,15.92-3,24-3.36,7.69-.34,15.23-2.06,22.88-2.52,11-.67,21.77-2.26,32.62-2.7,3.12-.13,6.23.09,9.28-.27.2,0,.2,0,0,0-9.07-3.23-18.87-4.25-28.41-5.25C1235.11,1011.67,1209,1007.81,1214.55,1003.31Z"/><path class="cls-9" d="M575.49,929.71c-1.83,9.27-13,11.9-18,3.52-4.47,16.68-23.48,1.59-15.14-11-1.88,2.25-16.3,9.12-16.48,1.67.2,8.51-9.23,11.81-16.21,8.06,1.92,8.61,15,11.64,15.64,17.51,1.11,9.82-15.32,12.06-19.2,4.16-3.34,5.79-9.73,11.91-15.76,7.39,2.23,17.16-26.21,19.07-21.38,2.6-8.34,4.94-22.51,9.28-22.42-4.52-5.07,5-20.13,15.52-21.6,2.9-3.39,5.28-8.41,10.45-13.33,7-3.35,9.81-13.66,5.77-18.77-.26-3.34,1.58-5.87.07-9,.54.87-2.95-.34-6.29,1.05-9.17-15,6.63-12.69-11.92-8.37-19.85-4.44,4.81-5.29,4.63-9.55,1.6-3.18,6.47-13,18.5-19,10.56-4,6.69-11.58,15.39-20.23,10.47,12.61,11-6.62,23.53-16.66,14.93-5.95,6.12-18.35,12.28-22.26,1.21-7.22,7.85-25.15,13.8-20.63-3.07-8.5,3.91-26.77-.85-18.75-12.05-8.9,4.33-24.31,4.87-21.78-8.55-8.61,6-19-4-15.13-12.89-5,4.58-17,10.15-17.73.46-4.49,5.71-19,8-20.23-1.5-4.63,7.07-19.34,5.85-14.63-4.14-4.83,7.76-20.59,15.49-22.91,1.77-5.21,11.24-13.94,7.65-21.3,12.12s-14.25,20.14-23.59,6.1c-.88,7.43-6.34,12.74-14,9.43,2,4.16,4,8.8,3.68,13,2.17-7.48,16.18-8.37,23-4.56,7.76-9,14.41-4.79,23.7-7.41,6-1.69,12.14-6.82,20-8.38,2.67-.53,6.29,1.8,9.64,1.37,4.9-.64,9.21-5.08,14.54-4.73,8.55.56,13.15,4.68,14,13.28,11.57-9.26,36.47,4.94,32.16,19.51,6.27-4.85,17.88-9.69,18.5,2.67-.7-14,18.19,2.28,18.79,2.66,4.83,3.11,18.42,9.29,16,17,3.14-7.48,12.36-11.58,16.81-3.69-.38-14.72,18.52-16,28.74-10.58,5-8.56,16.31-9.81,21.75-1.14,2.89-7.58,7.64-18,15.74-20.39.63,1.15.32,2.33.85,3.37,10.59-8.37,20.81,2.21,20.47,8.9,4.13.06,8,4.34,7.19,10.32,7.77-9.48,14.69-8.79,25.46-10.22,3.34-.45,4.66,1.6,8.42.59,4.39-1.17,7.26-7.18,12.56-8.52,14.81-3.73,15,9,25.57,11.94,6.5,1.83,13-10.19,17.67,2.22,4.13-3.37,9-7.07,14.27-8.64.66,5.42-1.93,9.74-7.12,11.56,8.38-2.57,21.72.21,23,10.61,10.59-6.09,20-.27,28.22,6.44-1.22-3.14-1.63-11.81-1.16-15-8.95,1.37-22.49-1.41-23.43-11.76.8.1,1.45.14,2,.17-7.68-4.09-8.85-14.78,2.05-11.08-2-13.61,20.53-13.06,29.15-9.28-8.91-8.39,6.09-18.18,14.92-12.29,3.28-7.1,12.39-11,18.45-4.74.11-5.73,8.37-8.45,16.23-9.36C583.12,939.84,576.81,937.21,575.49,929.71Z"/><path class="cls-9" d="M862.42,933.8c-3.4-4-5.22-10.52-11.33-4.64.92-8-5.22-15-13.53-10.9l-.17.14c6.22-9-8.66-12.65-14.69-7.6,6.62-11-7.14-18.84-16.57-13,11.29-17.85-17.76-21.1-14.47-1.16-5.72-1.49-10.73,1.25-9.85,7-7.65-9.12-25.14,6.91-13.38,15-3.06-.27-9.85-.12-12.17,2.22-2,2,0,4.7-1.64,6.43-3,3.13-10.48,2.74-13.66-.36,3.78,3.69,7,9.23,4.82,14.47-1.7,4.12-10.51,5.15-9.5,3.08-3.67,7.5-13.89,10.38-19.18,2.23-3.09,8.65-15.65,15.33-20.37,4.59.37,6.56-5.31,29.89-14.82,18-8.2,6.46-15.74,1.22-15.33-8.3-13.11,3.62-17.52-4-15.14-15.71-1.52,2.83-23.73,21.07-22.51,14.28-2.32,12.83-17.22,13-26.95,8.18.38,7.48-8.54,10.81-16.17,10.66,2.15,2,2,5.27-1.46,8.44,6.69.93,21-1.31,21.32,7.56,4.58-5.87,15.84-5.41,16.42,2.68,6.55-4.2,8.5,2.51,7.23,8.54,2.48-6.62,8.44-7.61,9.39.09-5.15,3.54-12.75,12.6-18.21,7.27-1.35,8.44-10.77,14.82-18.38,9.12,2,5.85-2.48,7.51-7.47,8.29,2.8.64,4.7,2.74,3.77,6.34,2.91-5.18,9.13-8.59,14.22-6.61,5.76-9,16.17-9.85,23.51-17.82,1.51-1.64,4.55-1.94,5.93-3.32s.66-5.88,2.07-6.75c4.86-3,9-2.74,14.54-.57,1.9-5.55,8-7,13.09-3.89-2.77-12.19,15.52-9.88,21.68-13,6.86-3.46,7.23-9.66,19.25-9,0-8,14.75-14.45,20.84-7.74,6-5.15,14.1-7.1,20.36-1.17-1.42-1.35,9-4.08,9.72-4.16,4.17-.51,8.75-.46,12,2.55a.53.53,0,0,0,.3-.23c-2.13-6.06,1.31-14.24,9-14.15-.16-7.41,12.14-13.75,17.09-7.07a13.67,13.67,0,0,1,2-1.9c6.29-4.76,22.2-2.68,23.41,6.74,2.68-4.72,15.12-12,13.68-1.35,2.64-6.14,13.13-7.1,15.74-.3-.73-1.91,21.5-5.23,23.6-5.34C873,940.34,867.13,939.39,862.42,933.8Z"/><path class="cls-9" d="M584.52,1067.05c-6.91,4.21-15.18,5.59-20.57-.91a16,16,0,0,1,19.14-4.31c-2.88-6.22-2.84-2.42-1.72-11.13-9.75,7.83-18.14-2.16-17.75-12.43-11.09,7.64-28,.41-21.55-9.55-11.79,11.21-38.84,10.85-42.8-7-5.43,4.2-35.78,10.83-22.24-3.49-9.7,10.27-43.14,27-35.66-.85-3.65,7.61-11.27,21.27-18.51,12.36,7.23,11,4,35.78-11.15,22.69-7,10.34-27.78,13.45-23.4-3.57-10.45,8.86-42.21,13.91-30.71-7.63-14.77,11.6-24-5.36-15.31-18.2-14.69,8.74-29.83.62-24.75-14.17-5.29,8.37-17.38,14.09-24.31,6.08,7.48,9.75-4.4,39.06-20.47,30.24,9.65,6.55,16.3,24.55-1.67,21.09-5.81,13.3-20.86,17.49-28.07,3.3-5.92,9.33-18.81,19.88-28.55,9.15-14.14,11.09-19.62-3.75-14.33-15.53-3,7.47-15.71,8.1-19.65-1.72-2.31,8.72-11.54,17.26-19.68,13.46,10,9.84,7.6,30.71-5.89,22.12-8.8,8.52-28.67,2.52-30-10.9-27,10.24-1.84-45.2,17.22-21.93,8.55-14.61,31.48-19.52,45-8.9,2.38-15.16,18.76-20.71,30.77-10.77,2.49-15.54,21.77-20,34.18-11.79-2.33-5.83-2.72-12.86.84-17.61-8.16,4.27-21.29,1.17-20.48-10.84-6,7.88-15.45,11.12-20.52,1.7-10.49,9.52-32.37,20.38-35.62-.83-9.22,5.77-21.6,2.61-23.76-7.19,1,7.83-3.43,14.6-12,13.65,7.66,6.21,25.44,33,7.5,20,.64,11.17-11.63,14.92-18.53,7.25-5.65,9.89-20.89,15.53-23,1.64.12,13.63-10.82,25.82-24.76,27.09l-.85-.83a4.94,4.94,0,0,1,0-.81c-1.41,6-5.6,10.45-10.61,10.07,8.85,6,17.61,16.11,9,21.44,3.52,9.73-2.08,17-10.8,9.61-4.87,7.55-13.41,8.59-17.27.33-7.35,9.22-20.51,5.11-21.95-6.46-7.27,6.92-20.28,8.84-29.34,5.36v17c9.15-1.85,17.54,5.54,25.22-3.72,6.08,6.19,17.64,4.59,24.21-.44.89,7.42,9.37,9.73,15.2,5.33,9.9,9.71,16.52-4.39,25.25-5.07,5-.4,9.69,5.09,15.62,4.56,5.66-.5,11-4.47,15.26-7.68,5.19,10.94,26.43,1.64,30.14-6.41,2.42,9,14.6,4.58,17.73.87-.14,14.64,23.24,0,27.53-4.32,3.75,6.79,11-.46,14.66-4.48,3,9,11.81,4.3,17.68,1.37,2.69,11.1,18.91,7.24,26.63,3.71-1.89.86,13.69,4.4,16.85,3.67,6.57-1.51,13.41-5.93,18.41-10.14,5.9,10,17.87-4,22.46-10.32l1.55-.11c3.18,5,8.47,3,13-1l115.08-8.46c4.36,9.59,18.58,7.39,28.06,6,5.37-.77,13.39-4.41,18.68-3.82,3.09.35,4.25,4.39,8.2,5.11,5.94,1.08,11-2.52,16.46-3.15,4.92-.56,5-.07,8.69,0,7.41.19,14.91,3.5,19.55-4.59,4,7.71,15.15,3.14,20.92.3a98.73,98.73,0,0,0,10.64-6.53,6.27,6.27,0,0,1,2.85-1.22c2.71-.2,2.8,4,7.3,5.15,9.89,2.53,22.7-3.75,24.85-13.49C602.9,1072.12,588,1077.4,584.52,1067.05Z"/><path class="cls-5" d="M1597.37,870.14c13.69-.89,27.41.35,41.11,0,19.41-.54,38.81-1.2,58.24-1.33,46-.32,91.9-1,137.86-.6,123,1,242.85,17.11,364.46,32.26,59.07,7.35,116.68,20.55,175.24,30.77,40.25,7,83.09,9.44,125.72,11.54v49.07q-4.34-.51-8.67-.86c-15.55-1.2-34.87-6.46-49.92-3.1,2.49,2.08,2.84,4.52,4.38,6.35-10.57,3.69-24.13.49-34.29,5.3-1.35.65-6.14,7.91-9.82,10-3.49,2-13.33,4.73-17.48,5.83-6.69,1.78-12.71,5.68-19.66,1.58-8.3-4.89-1.93-5.85-5.43-12.45-4.33-8.18-.24-6.74-9.67-12.9-6.88-4.49-13.82-7.18-19.34-11.63-5-4-.92-6.18-10.33-9-5.39-1.64-14.46,0-19.54,1.4,6.1,15.42-17,9.42-25.89,11.51-4.44,1-7.54,5.44-14.39,6.47-5.61.85-18.56.09-22.87-4-6.14-5.85.26-9.93-2.74-14.07-5.1-7.05-9-4.14-16.25-8.23-17.28-9.71-15.45-15.61-36.66-13.24-6.84.77-16.5-3-22.81-1.41s-7.5,7-13.12,9.31c-11.27,4.62-28.25-.81-39.91-1.2-1.44,14.06-25.54,10.57-36.56,10.25-7.13-.22-19.87,1-25.28-4.37-5.73-5.71.17-9.68-2.68-14.39-5.43-9-22-14.64-31.89-17.45-18.18-5.15-13.49,3.33-25.1,8.42-14.58,6.39-18.53-1.85-28.33,11-.71.94,1.43,5.52,0,7.79-1.61,2.6-7.12,2.55-8.32,4.49-.38.6-5.59,12.57-5.23,12.31-6.88,4.89-27.81,3.82-35.45-.52-14.47-8.22-3.29-14.91-6.24-27.94-1.31-5.83-9.74-14.11-14.27-15.51-8.8-2.73-19.43,4.47-26.94,4.39-1.37,0-9.51-4.11-11.57-4.55-5-1.08-7.57,4.71-13.37,1.3-14.17-8.32-9.67-21-32.64-19.14-4,8.26-28.52-8.08-39.27-7.85-5.4.12-11.16,3.75-15.77,3.75-6.15,0-12.32-3.41-18.2-2.94,5.62-.45,1.14,11.21-.48,12.69-5,4.64-14.44,5.4-21,6.17-7.28.86-33.61,6.2-35.25-5.94-.94-6.92,11.07-7.51,1.93-13.63-3.64-2.43-9.14-2.29-12.57-5.06-2.11-1.71-2.18-4.44-4.19-6.08-4.74-3.87-12.1-1.82-17.72-2.75-9.88-1.64-20.83-3.57-30.09-7.34-3.17-1.29-6.43-1.16-9.93-1.69-5.32-.81-13.35-3-18-5.48C1572.36,872.52,1595.21,870.28,1597.37,870.14Z"/><path class="cls-5" d="M1696.72,868.77c46-.32,91.9-1,137.86-.6,123,1,242.85,17.11,364.46,32.26,59.07,7.35,116.68,20.55,175.24,30.77,40.25,7,83.09,9.44,125.72,11.54v35.33q-7.08-.84-14.09-1.93c-13.53-2.11-27.63-5.84-41.28-5.73,2,1.44,2,3.05,3.23,4.55-.51-.61-24.69.25-26.42.88-.06.8.26,1.23.24,2-41.89-2.16-81.29-22.3-124-20.15.07.66.68,1.09.68,1.76-6.22,2.64-15.13-.72-22-1-5.05-.21-9.42,1.2-14,1.45-10,.53-19.81-3.3-29.23-5.88-18.69-5.11-34.83-9.29-54.19-10-3.79-.15-8.66.66-12.25-.45-3.07-1-4.2-4-7.19-4.7-7.35-1.69-19.29,1-27.33.34-8.7-.7-18.15-1.75-26.22-.7-6.49.84-27.15-2.33-26.25,5.37a60.15,60.15,0,0,1-17-2.09c10.07-14.4-60.17-21.51-68.41-21.38-7.76.11-12.31,3.59-20.39,2.83-7.57-.72-16.6-2.94-23.72.69-3.14,1.6-2.18,4.86-6.34,5.9-4,1-8.7-2.32-12.55-2.89-4.39-.65-8.82.7-13.2-1.09-3.41-1.4-4.7-4.53-8.43-5.79-6.12-2.06-15.16-.22-21.56-1-15.22-1.84-36.68,6.59-51.34-.72-10.31-5.13-25.06-13.48-36.82-13.84-3.43-.11-7.28,2.36-10.63,2.18-3.61-.19-6.71-2.39-10.27-3.17-6.71-1.47-11.64.24-18.21.65-7.67.49-15.45-1.15-23.24-1.46-7.14-.29-13.08-2.55-20-2.53-7.28,0-12.58,1.88-20.12.45-5.93-1.13-11.66-2.63-17.47-4-16.85-4.13-34.63-6-51.24-10.86-5.85-1.72-11.53-4.06-17.24-6.34a138.68,138.68,0,0,0-16-5.6C1628,868.35,1663.73,869,1696.72,868.77Z"/><path class="cls-12" d="M1598.3,873.39a41.61,41.61,0,0,1,10.85,1.13c21.67,4.13,45.55,1.91,67.58,2.17l69.76.84,158.65,1.9,178,2.14L2259,883.68l152.25,1.83,88.73,1.06v84.84L2427.82,964l-197.25-20.39c-11.1-1.15-23-2.1-33.78-5.07-7.83-2.16-12.41-.14-19.87.76-6.66.81-6.52-3.62-12.48-5.64-6.94-2.35-16,.4-22.94,0-3.82-.22-6.91-2.53-10.51-3s-5.77,1.07-9.16,1.42c-3.92.39-6.24-1-9.79-1.66-3.12-.59-3.61-.14-5.82-.12-6.19,0-13-2-19.23-1.41-1.56.16-6.65,2.5-7.58,2.29-2.4-.53-4-4.14-6.71-5.45-4.07-1.94-12.15-3.81-16.67-4.7-16.13-3.21-33.8-.16-50-3.41-8-1.61-15.06-4.45-23.25-4.49-7.69,0-13-2.7-20.41-4.76-7.69-2.15-15.05.14-22.92-.06-8.67-.2-16.19-2.28-24.93-1.26-7,.81-14.49,2.54-21.59,2-7.64-.62-11.11-1.31-18.55.75-6.4,1.77-10.11.27-16.23-.44-4.8-.55-9.39,1.71-14.08,1-6.8-1.09-13.33-4.75-20.4-5.83-2.59-.39-5.28,0-7.78-.69-3-.82-5.3-3.65-8.17-4.32-3.22-.74-6.19.56-9.57.46-3.89-.12-7.45-1.63-11.49-1.46-11.19.44-21.75,2.27-33,1.44-10.47-.77-20.75-2.53-31.15-4-2.7-.38-5.49-1.61-8.19-1.85s-4.18.71-6.18.77c-4.7.15-9.71-1.42-14.61-2.66-10.75-2.73-23.13-3.53-34.23-4.14-9.54-.52-18.79-2-28.39-2.5-5.25-.28-9.81-1.8-14.92-2.54-3.61-.53-7.06-.09-10.67-.94a42.76,42.76,0,0,0-9.2-1.16c-5.28-.1-17.65-.62-19.29-6.6C1583.53,872.88,1591.44,873.82,1598.3,873.39Z"/><path class="cls-10" d="M1576.9,871.87a46.21,46.21,0,0,0,6.32,1.29c2.72.14,5.43-.41,8.26-.28,18.22.83,36.81,3.18,55.13,4.51l56,4c8.63.62,17.16.93,25.79,1.21,20.69.67,41.25.35,61.75,2.55,18.76,2,39.45-.37,58.2,2.42,2.26.33,4.5.74,6.7,1.25,11.6,2.65,19.39,3.22,31.23,2,6.15-.62,13.52-2.45,19.63-1.09,8.7,2,10.74,11.5,19.38,14.71,7.61,2.82,16.48-1,24.25-.53,4.93.31,9.3,2.79,14.18,3.36,6.25.73,11.19,1.44,17.11,3.61,5.39,2,11.93-.62,17.52-.49a53.8,53.8,0,0,1,6.66.65c2.9.46,5.42,1.49,8.39,1.52,3.31,0,6.59-.76,9.9-1a143.31,143.31,0,0,1,16.71.1c3.59.14,6.13-1.58,9.5-1.93,2.49-.26,4.69,1.15,7,.8s3.78-2.38,6.09-2.5,3.84,1.38,5.84,1.93a27.15,27.15,0,0,0,7,.67c2.71-.05,5.21-1.15,7.86-1.26,3.7-.14,7.62,2.68,11.64,2.9,4.92.27,9.88-1.34,14.75-1.73,66.53-5.35,134.25,1.42,199.58,11.92,16.21,2.61,32.75,3.22,48.84,6.55,15.69,3.24,29.5,7.87,46,8.17,14.91.28,29.31,4.21,43.88,4,13.39-.21,26.72-.05,40.11-.57a112.24,112.24,0,0,1,11.9.21V780.22q-19.27.72-38.54,1.46-33.42,1.3-66.85,2.75-39.39,1.7-78.78,3.56-43.77,2.09-87.52,4.4-14.7.78-29.41,1.61a18.22,18.22,0,0,1,4.59-3.69c-3.12.5-7.41,1.64-9.65,4h-.2c1.27-3.41,2.07-7,4.76-9.71-1.94,1.89-8.65,5.74-8.38,9-.32-3.83,1.63-6.5,2.73-10-2,2.83-3.64,6-5.35,8.91a22.69,22.69,0,0,1,2.19-10.7,74.52,74.52,0,0,0-4.88,10.4,118.62,118.62,0,0,0-3.29-11.48c.59,2.71.25,6,0,8.83l-.74.11c-1.18-3.24-1.62-6.86-2.51-10.16.64,3.25.19,7.26,0,10.68l-.38.1a9.75,9.75,0,0,0-2.52-3.85,12.73,12.73,0,0,1,2.39-3c-.68.59-1.89,1.37-3.2,2.27a21.21,21.21,0,0,0-3-2c.23-.49.45-1,.65-1.53-.34.44-.67.89-1,1.34-1-.53-1.93-1-2.9-1.53.26-.59.53-1.18.83-1.75l-1,1.66-.34-.18.34.19c-.88,1.46-1.72,2.94-2.52,4.46-.68-.17-1.37-.33-2.07-.47a10.38,10.38,0,0,1,1.9.8c-.61,1.19-1.21,2.4-1.75,3.68-.53-3.81-1.7-7.8-2.64-11.64.51,3.26-.32,7.28-.75,10.39-1.46-3.67-1.64-7.92-2.45-11.78.51,3.69-.4,8.27-.69,11.91-.88-5.37-5.53-7.68-9.9-10.25,4,2.26,6.27,7.34,7.7,11.31a14.83,14.83,0,0,0-5-4.59c-.34-.25-.68-.51-1.05-.76-6.83-4.75-22.77-4.14-23.11,6.23-6.14-13.82-18.9-8.12-25.67,2.06-7-10-28.29-6.2-37,0,5.83-15.3-18.36-29.52-27.57-15.06,3.22-17.58-25.2-12.92-26.15,3.94-11.33-10.5-28.47-.74-30.2,12.38-8.76-3.75-22-3.13-23.4,8.37-8.88-3.52-11.81,1.1-19.42,2.75-4.43,1-15.07.2-19.77,3.88a15.24,15.24,0,0,0-3.79,4q-28.93,2.46-57.85,5.2c-27.76,2.65-55.49,5.53-83.18,8.8-24.29,2.87-48.55,6-72.72,9.73-19.78,3-39.52,6.41-59,10.67-14.25,3.1-28.55,6.56-42.19,11.62C1593.52,861,1575.43,868.09,1576.9,871.87Zm604-81.62.45-.27c0,.39-.07.77-.1,1.13C2181.13,790.83,2181,790.54,2180.91,790.25Zm-7.37-.21c.19-.46.38-.91.58-1.36.45.82.86,1.64,1.23,2.44l-.43.19A14.93,14.93,0,0,0,2173.54,790Zm-1.33,3.19.06-.13,0,0Zm-2.62-5.55c.43-1.12,1-2.2,1.51-3.32a19.94,19.94,0,0,1,1.86,2.4,24.75,24.75,0,0,0-2,1.59C2170.52,788.11,2170.06,787.89,2169.59,787.68Zm-.79,4.29a10,10,0,0,1,.26-2.56l.51.5A3.43,3.43,0,0,0,2168.8,792Zm-.29-4.72c-.61-.23-1.22-.43-1.85-.62a25.06,25.06,0,0,1,1.52-4.68,11.84,11.84,0,0,1,2.53,2C2170,785,2169.22,786.14,2168.51,787.25Zm-2.27,3.5a17.85,17.85,0,0,1,.29-3.39c.44.3.87.61,1.29.95C2167.29,789.14,2166.77,790,2166.24,790.75Z"/><path class="cls-9" d="M2319.14,806.23c2.48-5.13,10.34-10.31,14.77-3.93,1.59-6.14,7.6-5.85,11.09-1.72-1.31-4.46,5-8,7.59-3.71.91-3.94,7.35-7.29,11.15-4.39,4.11,3.13-.82,8.79-4,10.88,1.61-1.84,4.38-3,6.51-1.35,2.29,1.81,1,4.26.68,6.66,5.78-10.3,9.52-.71,13.73,4.4-1.18-1.69-4.85-12.18.56-8.65-4.77-7.73,4.5-11.49,10.71-7.19-.57-5.88,8.43-5.39,11-1.8-.45-4.24,6.48-3.51,8-.87,2.38,4.1-3.13,7.47-6.37,8.87-.25.11.16,0,.16,0,8.49-3.29,11.25,2.57,10.28,9.21.91-3.64,5.92-10.3,10.53-7,1-7,8.7-2.88,12.79-2.75,8.08.25,14.7-4.42,23.11-.19.45-4.24,8.28-7.23,11.87-5.67-3.51.73-13.73,0-15.39-3.83-5.21,3.8-13.14,5.91-17.71,0-2.25,2.85-5.4,4.72-9.3,3.82-2.45-.57-6.11-2.47-3.77-5.06-3.21.46-8.82-.73-4.94-4,2.36-2,7.88-1.19,10.77-1.19-6.83-.14-15.58-11.54-22.59-3.2.18-6.49-3.46-11.83-9.44-14.54-4.12-1.87-15.22-3.71-16.49,3.17,2.76-15-21.5-11-22.31,3.36-9.54-8.84-29.1-4.39-27.42,10.13-5.93-7.52-12.7,1.93-17,3.72-7.4,3.1-16.82,3.51-24.53,5,5.33-.46,12.52.32,17.45,2.45C2312.88,798,2320.55,803.32,2319.14,806.23Z"/><path class="cls-9" d="M1625.66,864.81c5.46,4.36,11.59,1.51,12.56-5,3.39,5.05,9.22,6.48,11.53.52a10.49,10.49,0,0,0,17.9,4.36c10.31,7.52,14.27-2,12.52-10.67,10.09,5.39,12-4.86,15.11-4.71,3.3.15,3.65.35,7.23-.31-2.39,5.21-8.1,12.72-3,16.67-.06.46,1-1.62,1.35-2.58-1.61,8.81,12.85,10.36,14.3,1.21,7.53,6.1,14.72-.76,12.14-8.58,6.41,1.34,9-4.33,7.46-10,5.11-1.6,11.74-2.65,12.39-8a11.26,11.26,0,0,0-2.37,1.12c1.21-.87,2.49-2.29,1.85-3.25-.78-1.18-4.68-.42-5.76-.3a50.51,50.51,0,0,0-16.64,4.57c1.68-1.25,1.47-3.77,2.86-5.38-4.34.06-9.2-.37-13.47.2,4.45-1,8.87-2.9,13.38-3.87-1.26-3.13,3.15-5.41,5.65-6.12-3.6-5.26-3-17.13,6-10.53-6.91-15.34,17.12-13.47,15.19-1.37,5.23-.45,14.13,4.32,14.06,9.85,2-4.41,13.6-3.95,11.92,2.17.16-.56,9.35.91,10.18,1a47,47,0,0,0-9.74,1.15c-.89.18-7.38,2.05-8,1.55,4.58,3.91,10.34,4.82,15.16.31,1,6,7,5,10.85.86.64,2.57,1.72,3.91,3.07,4.19-5.47,2.69-11.45,5.65-8.38,10.75-6.4.17-11.68,4.72-9.44,10.78-5.32-2.54-24.12,2.8-26,8.58-1.51,4.61,1,6.94,5.24,9.78,2.93,2,15.45,2,11.65-1.18,5.58,4.7,13.75,5.89,18.21-.87,1,5.33,5.44,13,9.39,7,5.28,6.3,12.7,2.35,16.36-3.49,5,5.62,13.49,5.89,16.22-1.59,8.12,1.17,12.18-7.28,5.34-11.54a9.52,9.52,0,0,0,6-5.65c.38,7.17,2.84,16.81,6.87,13.78,2.23,5.43,7.11,12.65,12.6,6.5-1,7.85,5.48,20.42,12.54,9.34,8,7,15.8,1,16.33-8,4.85,5.71,11.22,4,12.54-3,4.91,2.3,9,.11,11.53-3.8-3.41,9.77,5.82,20.8,8.81,8.4,4.64,6.38,10.3,1.59,11.54-4.49-1.55,10.68,12.24,20.15,20.81,11.85.26,8.16,7.88,9.86,14,6.43-6.7,5.59-4.66,17.2,3.89,8.42,4.77,7.82,9.48,1.66,15.66.67,7.38-1.17,13.25,3.31,17.81-7.42.59,8.11,8.42,15.16,13.73,5.88,2.17,7.15,10.23,7.37,14.58,1.58-1.71,7.47,4.89,6.66,9.83,2.92-2.75,10.94-9.46,9-18.72,9-5.7,0-10.45,2.09-16.58-.44-4.85,5.26-16.79,3-21.61-1.4.76,11.2-17.17,3.55-21.35-.57,2.54,2.5-6.19,2.6-6.54,2.58-4.23-.2-7.71-3.37-9.93-6.51-.3,7.85-11,4.28-14.13-.06-5.69,8.7-11.46,2.56-19.13,1.57-8.44-1.1-13.85,1.67-12.06-10.42-3.07,1.49-4.47-.55-4.88-3.3l-57.54-4.16c-4.91,1.73-11.37,1.23-15.36-1.1l-2-.15c-2.69,6.67-14.06-.34-18.86-.8-5.23-.49-9.21,2-14.82,1-2-.35-4-1.9-6-3.05l-5.74-.42a3,3,0,0,1-2,.93c-5.31.11-10.44.35-15.14-2.17l-2.33-.16c-.85,6.08-10.77,1.57-14.71.34.23.07-1.9,1.32-2.18,1.38-1.34.33-2.7-.64-3.92-.89-3.82-.76-6.32-1.37-10.38-1-4.47.45-8.47-.42-13.1-.79-4.15-.33-7.22.73-11.16-.1a57.18,57.18,0,0,0-14.09-1c-3.88.06-5.46-1.07-8.94-2.1s-6.34-.44-10-.51c-7.29-.14-14.66-.51-21.84-.65-5.89-.1-11.46-2.12-17.3-2.37-5.54-.24-11-1.46-16.47-1.79-7.92-.46-15.67-1.59-23.48-1.9-2.25-.09-4.49.06-6.68-.19-.15,0-.15,0,0,0,6.53-2.28,13.58-3,20.45-3.71C1610.86,870.72,1629.64,868,1625.66,864.81Z"/><path class="cls-9" d="M2085.71,812.79c1.32,6.55,9.38,8.42,13,2.49,3.22,11.79,16.9,1.13,10.89-7.79,1.36,1.6,11.74,6.45,11.87,1.18-.15,6,6.64,8.35,11.67,5.7-1.38,6.08-10.78,8.22-11.26,12.38-.8,6.93,11,8.51,13.82,2.93,2.4,4.09,7,8.42,11.35,5.23-1.61,12.12,18.86,13.48,15.39,1.83,6,3.5,16.2,6.56,16.14-3.19,3.65,3.52,14.49,11,15.55,2.05,2.44,3.73,6,7.39,9.6,5,2.4,6.93,9.83,4.08,13.5-.19,2.41,1.12,4.24,0,6.45.39-.62-2.09.25-4.45-.75-6.48,10.82,4.68,9.13-8.43,6-14,3.2,3.41,3.81,3.28,6.88,1.14,2.29,4.57,9.38,13.07,13.69,7.46,2.91,4.73,8.33,10.88,14.56,7.4-9.08,7.81,4.77,16.63,12,10.55,4.28,4.33,13.21,8.68,16,.85,5.2,5.56,18.11,9.76,14.86-2.16,6.11,2.76,19.27-.61,13.49-8.52,6.41,3.06,17.5,3.45,15.68-6,6.2,4.26,13.69-2.84,10.9-9.11,3.57,3.24,12.22,7.17,12.76.33,3.23,4,13.7,5.67,14.56-1.06,3.34,5,13.93,4.13,10.54-2.93,3.47,5.48,14.82,10.94,16.49,1.25,3.75,8,10,5.41,15.33,8.56s10.26,14.24,17,4.32c.63,5.25,4.56,9,10,6.66-1.4,2.94-2.85,6.22-2.65,9.21-1.56-5.29-11.65-5.91-16.57-3.22-5.58-6.35-10.37-3.39-17.06-5.24-4.31-1.19-8.74-4.82-14.37-5.92-1.92-.38-4.53,1.27-6.94,1-3.52-.44-6.63-3.58-10.47-3.34-6.15.4-9.46,3.31-10.1,9.39-8.32-6.54-26.25,3.49-23.15,13.79-4.51-3.43-12.87-6.85-13.32,1.88.51-9.89-13.09,1.62-13.52,1.89-3.48,2.19-13.26,6.56-11.5,12-2.26-5.29-8.9-8.19-12.11-2.61.28-10.41-13.33-11.29-20.68-7.48-3.62-6-11.75-6.93-15.66-.81-2.08-5.35-5.5-12.7-11.33-14.41-.46.82-.23,1.65-.61,2.38-7.63-5.91-15,1.57-14.74,6.3-3,0-5.74,3.06-5.18,7.29-5.59-6.7-10.57-6.21-18.33-7.23-2.4-.31-3.35,1.14-6.05.43-3.17-.84-5.24-5.08-9-6-10.66-2.64-10.77,6.33-18.4,8.44-4.68,1.29-9.35-7.2-12.73,1.57-3-2.38-6.49-5-10.27-6.11a7.23,7.23,0,0,0,5.13,8.18c-6-1.82-15.64.14-16.58,7.49-7.62-4.3-14.37-.19-20.31,4.55.88-2.21,1.17-8.34.84-10.63,6.44,1,16.18-1,16.86-8.31-.58.07-1.05.1-1.46.12,5.53-2.89,6.37-10.44-1.48-7.83,1.45-9.62-14.77-9.23-21-6.56,6.41-5.93-4.38-12.85-10.74-8.68-2.36-5-8.92-7.81-13.28-3.35-.08-4.06-6-6-11.69-6.62C2080.22,820,2084.76,818.09,2085.71,812.79Z"/><path class="cls-9" d="M1879.16,815.69c2.44-2.86,3.75-7.44,8.15-3.28-.66-5.69,3.76-10.63,9.74-7.71l.13.1c-4.48-6.39,6.23-8.94,10.57-5.37-4.76-7.75,5.14-13.32,11.93-9.2-8.13-12.61,12.79-14.91,10.42-.82,4.11-1.06,7.72.88,7.09,5,5.5-6.44,18.1,4.89,9.63,10.6,2.2-.19,7.09-.08,8.76,1.57,1.4,1.39,0,3.33,1.18,4.55,2.15,2.21,7.54,1.94,9.83-.26-2.72,2.61-5,6.52-3.47,10.23,1.23,2.91,7.57,3.64,6.84,2.17,2.64,5.31,10,7.34,13.81,1.58,2.23,6.12,11.26,10.84,14.66,3.25-.26,4.63,3.83,21.12,10.67,12.74,5.91,4.56,11.34.86,11-5.87,9.44,2.56,12.62-2.86,10.9-11.1,1.1,2,17.08,14.89,16.2,10.09,1.67,9.07,12.4,9.18,19.4,5.78-.27,5.29,6.15,7.64,11.65,7.54-1.56,1.44-1.48,3.72,1.05,6-4.82.66-15.12-.92-15.35,5.35-3.3-4.15-11.41-3.83-11.82,1.89-4.72-3-6.12,1.77-5.21,6-1.78-4.69-6.07-5.38-6.76.06,3.71,2.5,9.18,8.9,13.11,5.14,1,6,7.76,10.47,13.23,6.44-1.43,4.14,1.79,5.31,5.38,5.86a3.33,3.33,0,0,0-2.71,4.48c-2.1-3.66-6.58-6.07-10.24-4.67-4.15-6.35-11.64-7-16.93-12.6-1.08-1.16-3.27-1.37-4.26-2.34s-.48-4.15-1.49-4.77c-3.5-2.11-6.5-1.94-10.47-.41-1.37-3.92-5.77-4.94-9.42-2.74,2-8.62-11.17-7-15.61-9.19-4.94-2.45-5.21-6.83-13.86-6.38,0-5.65-10.61-10.21-15-5.47-4.35-3.64-10.15-5-14.66-.83,1-1-6.5-2.88-7-2.94-3-.36-6.3-.32-8.62,1.8a.44.44,0,0,1-.22-.16c1.53-4.28-.94-10.07-6.47-10,.11-5.24-8.74-9.72-12.3-5a9.06,9.06,0,0,0-1.44-1.35c-4.53-3.37-16-1.89-16.85,4.76-1.93-3.33-10.89-8.5-9.85-1-1.9-4.34-9.45-5-11.33-.21.52-1.35-15.48-3.7-17-3.78C1871.55,820.3,1875.77,819.63,1879.16,815.69Z"/><path class="cls-9" d="M2079.21,909.85c5,3,10.93,4,14.82-.64a11.68,11.68,0,0,0-13.79-3c2.08-4.4,2-1.71,1.24-7.87,7,5.53,13.06-1.52,12.78-8.78,8,5.4,20.13.29,15.51-6.76,8.49,7.93,28,7.68,30.81-5,3.91,3,25.76,7.66,16-2.47,7,7.26,31.06,19.08,25.67-.6,2.63,5.38,8.12,15,13.33,8.73-5.2,7.76-2.86,25.3,8,16,5.06,7.31,20,9.51,16.84-2.52,7.53,6.26,30.39,9.83,22.11-5.4,10.63,8.2,17.27-3.78,11-12.85,10.57,6.17,21.48.44,17.82-10,3.81,5.92,12.51,10,17.5,4.29-5.39,6.9,3.16,27.61,14.73,21.38-6.94,4.63-11.73,17.35,1.2,14.9,4.19,9.41,15,12.37,20.21,2.33,4.27,6.6,13.54,14.06,20.55,6.47,10.19,7.84,14.13-2.65,10.33-11,2.18,5.28,11.3,5.72,14.14-1.22,1.66,6.16,8.3,12.2,14.17,9.51-7.19,7-5.47,21.71,4.23,15.64,6.34,6,20.64,1.78,21.61-7.71,19.42,7.24,1.32-31.94-12.39-15.49-6.16-10.33-22.67-13.8-32.4-6.3-1.71-10.71-13.5-14.63-22.14-7.6-1.8-11-15.67-14.17-24.61-8.34,1.67-4.12,1.95-9.09-.6-12.44,5.87,3,15.32.82,14.74-7.66,4.29,5.57,11.12,7.85,14.77,1.2,7.55,6.72,23.3,14.4,25.64-.59,6.64,4.08,15.55,1.85,17.1-5.09-.68,5.54,2.48,10.33,8.63,9.65-5.51,4.39-18.31,23.33-5.4,14.17-.46,7.89,8.37,10.54,13.34,5.12,4.07,7,15,11,16.58,1.16-.09,9.64,7.79,18.25,17.82,19.14l.62-.58a4.08,4.08,0,0,0,0-.57c1,4.28,4,7.38,7.63,7.12-6.37,4.24-12.67,11.38-6.51,15.15-2.54,6.87,1.5,12,7.78,6.79,3.5,5.33,9.64,6.07,12.42.23,5.3,6.52,14.77,3.61,15.81-4.56,5.23,4.89,14.6,6.24,21.12,3.79v12c-6.59-1.3-12.63,3.92-18.16-2.63-4.37,4.37-12.7,3.25-17.42-.31-.65,5.25-6.75,6.88-11,3.77-7.13,6.86-11.88-3.1-18.17-3.59-3.58-.27-7,3.61-11.25,3.23-4.07-.36-7.94-3.16-11-5.43-3.74,7.73-19,1.16-21.7-4.53-1.74,6.36-10.51,3.24-12.77.61.11,10.35-16.72,0-19.82-3-2.69,4.79-7.89-.33-10.54-3.17-2.17,6.35-8.51,3-12.73,1-1.94,7.84-13.62,5.11-19.17,2.62,1.35.61-9.86,3.1-12.13,2.59-4.73-1.07-9.65-4.19-13.26-7.17-4.24,7.07-12.86-2.82-16.17-7.29l-1.11-.08c-2.29,3.52-6.1,2.11-9.34-.67l-82.85-6c-3.14,6.78-13.37,5.23-20.2,4.26-3.86-.55-9.64-3.12-13.45-2.71-2.22.25-3,3.11-5.9,3.61-4.28.77-7.93-1.78-11.85-2.22-3.54-.4-3.63-.05-6.26,0-5.33.13-10.73,2.47-14.06-3.24-2.9,5.44-10.92,2.22-15.06.2a68.94,68.94,0,0,1-7.67-4.61A4.51,4.51,0,0,0,2085,914c-1.95-.14-2,2.82-5.26,3.64-7.12,1.79-16.34-2.65-17.88-9.53C2066,913.44,2076.73,917.17,2079.21,909.85Z"/><path class="cls-13" d="M1686.89,796.63s50.14,90.24,78.55,218.49h-78.55Z"/><path class="cls-14" d="M1688.49,799.59c-1-2-1.6-3-1.6-3v218.49h39.28C1714.84,895.12,1695.94,838.31,1688.49,799.59Z"/><path class="cls-13" d="M1686.89,811.66s-23,109.46-63.91,210.14h63.91Z"/><path class="cls-14" d="M1685.88,811.66s-16.12,92.23-37,210.14h37Z"/><path class="cls-15" d="M1768.53,1017.15h-81.72a1,1,0,0,1,0-2h81.72a1,1,0,0,1,0,2Z"/><path class="cls-15" d="M1686.89,1035.85a2,2,0,0,1-2-2V795.7a2,2,0,1,1,4.06,0v238.12A2,2,0,0,1,1686.89,1035.85Z"/><polygon class="cls-15" points="1648.86 1041.8 1661.38 1025.64 1749.54 1025.64 1758.84 1042 1648.86 1041.8"/><polygon class="cls-15" points="1656.75 1040.93 1625.99 1040.93 1636.83 1033.82 1656.75 1033.82 1656.75 1040.93"/><rect class="cls-15" x="1765.45" y="1036.45" width="4" height="4.07"/><polygon class="cls-16" points="1629.43 1081.57 1636.83 1084.49 1655.04 1084.49 1661.38 1089.42 1749.54 1089.42 1756.94 1081.57 1629.43 1081.57"/><polygon class="cls-17" points="1609.85 1081.57 1785.57 1081.57 1781.21 1076.99 1771.3 1065.43 1632.34 1065.43 1618.13 1079.14 1609.85 1081.57"/><polygon class="cls-18" points="1609.85 1038.67 1785.57 1038.67 1781.21 1046.25 1771.3 1065.43 1632.34 1065.43 1618.13 1042.69 1609.85 1038.67"/><path class="cls-19" d="M1746.76,1045.55c3.26-2.74,3.92-5.06,3-6.88h-140l8.28,4,14.21,22.74h43.2C1706.6,1062.69,1733.44,1056.75,1746.76,1045.55Z"/><path class="cls-20" d="M1754.56,1045.93a2.34,2.34,0,1,1-2.34-2.34A2.34,2.34,0,0,1,1754.56,1045.93Z"/><path class="cls-20" d="M1761.55,1045.93a2.34,2.34,0,1,1-2.34-2.34A2.34,2.34,0,0,1,1761.55,1045.93Z"/><path class="cls-20" d="M1767.79,1045.93a2.34,2.34,0,1,1-2.34-2.34A2.34,2.34,0,0,1,1767.79,1045.93Z"/><polygon class="cls-20" points="1726.16 1034.74 1749.03 1034.74 1746.21 1029.65 1726.16 1029.65 1726.16 1034.74"/><path class="cls-13" d="M1151.54,750.74s-17,30.68-26.69,74.27h26.69Z"/><path class="cls-14" d="M1151,751.75l.54-1V825h-13.35C1142,784.22,1148.47,764.91,1151,751.75Z"/><path class="cls-13" d="M1151.54,755.86s7.81,37.2,21.73,71.42h-21.73Z"/><path class="cls-14" d="M1151.89,755.86s5.48,31.34,12.58,71.42h-12.58Z"/><path class="cls-15" d="M1123.79,825.7h27.78a.34.34,0,0,0,.32-.35.33.33,0,0,0-.32-.34h-27.78a.33.33,0,0,0-.31.34A.33.33,0,0,0,1123.79,825.7Z"/><path class="cls-15" d="M1151.54,832.05a.68.68,0,0,0,.69-.68V750.43a.69.69,0,1,0-1.38,0v80.94A.68.68,0,0,0,1151.54,832.05Z"/><polygon class="cls-15" points="1164.47 834.08 1160.21 828.58 1130.25 828.58 1127.09 834.15 1164.47 834.08"/><polygon class="cls-15" points="1161.79 833.78 1172.24 833.78 1168.56 831.37 1161.79 831.37 1161.79 833.78"/><rect class="cls-15" x="1123.48" y="832.26" width="1.36" height="1.38"/><polygon class="cls-16" points="1171.07 847.59 1168.56 848.59 1162.37 848.59 1160.21 850.26 1130.25 850.26 1127.73 847.59 1171.07 847.59"/><polygon class="cls-17" points="1177.73 847.59 1118 847.59 1119.48 846.04 1122.86 842.11 1170.08 842.11 1174.91 846.77 1177.73 847.59"/><polygon class="cls-18" points="1177.73 833.01 1118 833.01 1119.48 835.59 1122.86 842.11 1170.08 842.11 1174.91 834.38 1177.73 833.01"/><path class="cls-19" d="M1131.2,835.35c-1.11-.93-1.34-1.72-1-2.34h47.57l-2.82,1.37-4.83,7.73H1155.4C1144.85,841.18,1135.72,839.16,1131.2,835.35Z"/><path class="cls-20" d="M1128.54,835.48a.79.79,0,0,0,.8.79.79.79,0,0,0,.79-.79.79.79,0,0,0-.79-.8A.8.8,0,0,0,1128.54,835.48Z"/><path class="cls-20" d="M1126.17,835.48a.79.79,0,0,0,.79.79.79.79,0,0,0,.8-.79.8.8,0,0,0-.8-.8A.79.79,0,0,0,1126.17,835.48Z"/><path class="cls-20" d="M1124.05,835.48a.79.79,0,0,0,.79.79.79.79,0,0,0,.8-.79.8.8,0,0,0-.8-.8A.79.79,0,0,0,1124.05,835.48Z"/><polygon class="cls-20" points="1138.19 831.68 1130.42 831.68 1131.38 829.95 1138.19 829.95 1138.19 831.68"/><polygon class="cls-21" points="1601.64 1061.83 1744.7 1061.83 1742.84 1065.43 1603.89 1065.43 1601.64 1061.83"/></g><g id="Foreground_copy" data-name="Foreground copy"><path class="cls-22" d="M2339,1108.62c4.47-13.43,24.35-57.66,24.35-57.66l-26.84-6s-5.47,32.81-9.94,55.18-20.38,92-22.87,100.41c0,0-5-55.18,0-93h-15.91s1.5,57.17,2.49,83.51c0,0-11.43-48.71-12.92-82h-10.94s1.94,8.05,4.11,17.88l-13.55,2.5s1,12.93,3.48,17.9c2,4,14.53,17.91,20.76,34.7a47.91,47.91,0,0,1,.61,6.05c.5,13.42,2,32.31,2,32.31s-36.79-73.06-45.73-112.34l-16.91,11.93s18.26,38.28,29.61,72.69l-45.51-44.36,1.49,16.9,51.6,55.67c0,.17.07.34.1.5,6.46,36.78,13.92,122.78,6,161.06s-15.41,64.62-15.41,64.62h87s-18.89-86-21.88-128.75-8-82.51-4-96.93S2334.49,1122,2339,1108.62Zm-70.59,36.79a94.16,94.16,0,0,1,3.8-10.63c2,9.68,3.88,19.51,4.13,24.35C2272.32,1153.66,2267.6,1148.92,2268.38,1145.41Z"/><path class="cls-23" d="M2500,742.85c-.39.06-.77.14-1.12.22a12.27,12.27,0,0,0,1.12-2.15v-8.69c-2.32-6.61-9.24-12.8-15.7-16.28a135.15,135.15,0,0,0,15.7-1.65V672.9c-11-1.8-22.5,1.45-28.85,13.94,6.41-12.61.29-30.58-14.37-33.62-15.06-3.12-24.17,12.49-33.05,21.73,2.95-14.45,17.47-29,11.84-44-3.27-8.74-24.86-23.27-34.24-15.87,24.57-27.25-36.29-82.73-48.13-44.21,7-38.82-57.88-47.87-60.24-2.9-7.91-30.91-57.17-6.4-43.89,27.65-15.71-39.6-89.65-12.25-67.35,19.54-31.91-25-45.88,23.55-26.1,45.71-13.77-15.43-49-15.59-62.61,2.25-14.66,19.27,2.5,57.79,17.11,72.52-25.5-11.87-108.62-14.56-66,28.92-.27-.27-.54-.54-.8-.82C2030.87,754.6,2005.73,746,1990,751c-27.93,8.85-18.88,32.07-6.11,48.89-25.47-12.41-69.09-4.4-75.5,28.56-6.51,33.51,36.66,51.24,63.59,43.63,8.78-2.49,17.43-8.34,26-11.65-1.43,12.78,14,24.57,26.92,26.52-15.88.14-43,3.28-47.17,17.08-5.68,18.61,26.48,33.71,40.12,23.68-13.73,17.77,33.67,24.73,45.22,23.29.76,0,.78,0,.06,0-21.29,1.85-36.07,14.61-25.08,35.62-28.67-44.87-54.39,21-8.86,26.24-10.51-.28-18.8,8.61-14.13,19.81-6.11-13.43-45.44-30.8-50.08-8.67-4.46,21.24,32.61,32.46,47.43,30.13-15.59,3.95-24.36,19.53-12.58,32.72-22-12.51-39.12,26.48-15.9,40.43,24.85,14.93,40.94-13.22,54.82-29.2,5.77,19,43.61,10.32,54-.84-16.35,17.53,27.73,47.14,41.28,23.11-14.07,25-13.69,72.11,20.76,81.77,35.45,10,59.45-21.41,65.12-54.12,1.25-7.22,1.39-15.56,2-22.62,17.52,47.94,80.13,22.94,83-21.05-2.39,36.19,37.36,55.32,60.88,28-23.22,26.92,17.44,29.61,31.49,29.1,25.3-.93,52.6-2.79,53.86-35.17,3.19,10.34,13,24.56,25.77,21.47,15.28-3.69,13.32-23.3,15.17-35.42,2.63,2.64,5.24,5.11,7.83,7.38Z"/><path class="cls-22" d="M2163.06,700.6c-12.17,3.06-20.64,1.24-24.17-10.8-3.38,4.05-9.54,6.82-14.91,5-4.45-1.5-9.88-8.83-2.37-9.21-1.7-4.92,3.06-8.21,7.69-8.51-6.18-1.29-12.8-4.63-13-11.54-.27-8.43,6.47-8,12.3-5.55,4.69-9.78,25.83,3.79,28.32,10.47-9.38-25.13-48.13-28.07-63.9-7.33-17.29,22.74,2.87,67.91,29.37,73.21-3.32-1.84-11.48-5.87-11.76-10.27-.31-4.84,4.51-6,8.69-4.63-5.2-2.77-5.36-9.13.39-10.59,6.22-1.58,12.08,6.24,15.41,9.9-3.89-8,3.66-15.86,11.94-12.92,7.6,2.7,10.36,12.95,9,20,.95-6,3.77-20.56,13-12.79C2165.56,711.78,2155.43,704.84,2163.06,700.6Z"/><path class="cls-22" d="M2143.06,893.81c-3.7,4-23.33,17.48-19.7,3.54-6.41,6.68-29.88,11.8-27.48-3.72,1.29-8.33,16.15-15.73,23.74-13.94-17-12.64,8.21-19.74,22.76-19.68-6.07-2.06-9.75-8-10.62-14.7-5.23,4.15-22.16,12.19-23.83.7-7.33,12-18.19,8.69-23-2.8,1.69,8,2.14,20.84-4.33,27-5.29,5-13.21,5.9-18,.2-2.09,3.62-5.16,14-11.17,12.4-4.75-1.3-5.22-9.43-2.91-12.67-13.67-3.15-10.15-13.41.65-17.09-11,.94-18.75-7.06-22.35-16.7,1.41,5.84,3.76,15,.4,21.06-2.84,5.16-8.09,7.22-10.57.42,1.47,14.47-11,14.81-15.52,2.47-2.3,12.67,11.09,26.74,23.8,26.63-15.88.14-43,3.28-47.17,17.08-5.68,18.61,26.48,33.71,40.12,23.68-12.34,9.08,12.19,18.69,17.33,20.08,6.19,1.68,14.21,3.89,20.68,3.19,7.11-.78,17.61-2,23.46-6.26-4.38.38-11.39.08-14.57-3.78-6-7.27,2.29-17.92,10.47-16.23,7.93,1.64,16,13.36,21.13,19-.94-8.55-2.72-20.26,9.07-21.68,9.58-1.16,19.67,9.12,25.12,16.29-3.1-12.61,4.37-29,18.83-24.36C2140.66,911.07,2142.77,900.77,2143.06,893.81Z"/><path class="cls-22" d="M2486.74,1124.81c-1.46-5-6.17-13.6-11.53-15.19,4.3,4.56,7.92,12,3,17.42-5.76,6.34-7.51-3.28-11.06-6.51,0,.07.27.44.2.54-1.39,2.13,2.4,6.78-1.71,9.56-2.92,2-6.17.29-8.42-2.15-4-4.31-5.66-13.71-5.37-19.6-2.36,10.89-13.26,30-26,17.2-9.22-9.24-1-32.57,4.29-41.39-8.72,4.56-10.73-5.86-10.34-12.42-3.32,5.77-10.94,15.28-17.84,8.68,4.66,4.14,10.31,20.66,6.13,26.35-6.26,8.53-15.32-3.54-19.71-8.39,2.91,4.3,7.54,17.84.33,18.34,6.75,1.83,13.86,8.4,15,14.86,1,5.5-4.31,18.67-9.94,10,.92,23-30.89,12.25-18.47-10.89-8.46,8.34-7.61-8.74-7.13-13.57-4.56,7.45-10,14.47-19.78,14.41-10.77-.07-15-9.45-3.3-14.38-36.46-3.26,8.54-40.19,10.59-11.88v0c.21-7.09,10.11-11.91,15.91-7.11-5.46-6.87-9.47-21.55-3.36-29-8.65,8.93-19.66-4.55-17.67-14.45-8.61,3.68-19.72-2.72-15.83-13-8.29,7-27.76,16.1-35.9,4-6.22-9.23,4.76-25.63,14.68-17.11l-.06-.07c-16.41-25.26,26.84-24.25,28.11-5.15,2.92-8.4,20.51,3.74,23.36,10.13,10.1-23.09,34.39,3.28,39.21,16,3.76-9.76,21.17-10.39,26.86-2.46-1.16-9.23,1.82-22.79,9.95-24.87-8.49-5.92-8.69-16.59-1.66-24-7.39,4.57-20.87,2.86-16.05-7-3.45,5.37-9.68,10.7-16,11.3-5.38.51-14.58-1.45-8.47-8.78-7.62,9.15-24.27,1.7-18.88-10.36C2371,994,2357,984,2357.81,972.44c.82-11,15.68-20,21.51-7.67-4.72-14.24,16.43-13.14,21.85-2.62-2.78-12.26,2.35-27.11,16.17-22.74-9.18-4.18-22.68-13.72-22.2-23.6.58-11.93,21.28-14.57,26.86-3.63,1.19-8.37,15.83-14.44,15.8-2.37,2.88-8.68,11-10.09,19.15-9.5-7.85-2.3-15.72-7-15.16-14.11-7.58,5.11-27.38-2.18-19.85-13.41-11.5,12.91-25.38.51-22.39-13.45-7.37,4-24,3.17-20.56-9-5.2,8.46-15.39,8.56-21.91,1.59,6.87,7.08,14.09,16.94,8.49,26.67-6.31,11-17.71,10.25-23.83.41-5,15.44-25,18.39-37.06,9,6.42,5.54,21.32,28.67,6.08,32.27,14.61-1.12,30.95,25,19.35,24.22,10.14.76,16.86,13.66,11.87,22.51-6.7,11.88-13.66,2.89-19.95-2.64,4.1,9.48,13.8,29.85-1.87,34.11-11,3-20.87-14.92-9.08-16.2-11.15-2.33-17.8-24-2-23.79-3.57-3.37-5.17-8.56-2.62-12.56-6.25,5.25-22.14,5.69-20.12-6.18-3.42,11.65-35.55,24.9-34.28,6.33-2.74,11.75-16.2,8.72-25.33,4.29,8,5.26,24,22,12,26,7.18-2.4,13.83-2.2,19.26,3.69,5.28,5.72,5.93,15.45-4.53,13.43q-.51,0,0,0c5.94.7,20.22,5.53,22.39,11.86,3.31,9.64-9.13,15.59-17.57,13.29,9.63,3.47,19.15,18.67,20.88,28.31,1.78,9.91-7.07,24.77-17.36,14.91,7.46,17.06-28.47,35.58-31.08,16.64-16,23.69-44.19-26.32-17.7-27.56-9.89-9.23,8.87-20.52,17.45-21.47-10,.44-19.3-8.6-18.29-18.93-3.94,10-28.56,25-36,11-3.63,19-9.88,29-27.84,34.78,11.24-3.63,36,23.5,25.76,28,10.76-4.76,21.13,5.27,25.1,14.79,3.07,7.36-.33,27.78-12.63,20.08.84,1.14,3,4.34,3.21,6.44,1.09,12.47-2.62,35.16-21.7,32.36-15.67-2.3-25.27-30.3-2.39-29.75-5-5.71-8.89-20.26-2.11-25.52-10.68,5.32-32.16,1.45-35.06-11.55-3.68,16.1-20.67,35.23-34.72,19.26,3.67,17,30.14,27.7,40.22,9.83-14.07,25-13.69,72.11,20.76,81.77,35.45,10,59.45-21.41,65.12-54.12,1.25-7.22,1.39-15.56,2-22.62,17.52,47.94,80.13,22.94,83-21.05-2.39,36.19,37.36,55.32,60.88,28-23.22,26.92,17.44,29.61,31.49,29.1,25.3-.93,52.6-2.79,53.86-35.17,3,9.85,11.08,22,22.63,21.9C2484.5,1148.07,2489.37,1133.71,2486.74,1124.81Z"/><path class="cls-22" d="M2083.46,1055c-34.8,1-18.41-35.46,1.19-20.39-6.38-8.29-.93-18.27,6.86-23-9.64,4.81-28,9.7-36.51,2.24-12.53-11,8.37-17.83,17.88-13.6-4.16-5.27-5.18-12.81,2.31-15.79-8.51-.09-24.89,3.4-31.83-5.15-7.62-9.38,4.69-20.19,13.79-22.33-18-2-26.57,15.28-19.08,29.62-28.67-44.87-54.39,21-8.86,26.24-10.51-.28-18.8,8.61-14.13,19.81-6.11-13.43-45.44-30.8-50.08-8.67-4.46,21.24,32.61,32.46,47.43,30.13-15.59,3.95-24.36,19.53-12.58,32.72-22-12.51-39.12,26.48-15.9,40.43,24.85,14.93,40.94-13.22,54.82-29.2-5.06,5.83,17.89,11.1,19.84,11.17,7.65.27,20.72-1.74,26.26-7.53-8.37,3.2-29.06,4.45-20.16-11.08,6.44-11.24,28.2-4.78,34.53,3.72,1.1-12.37,5.77-18,17.1-22.77C2107.57,1074.57,2064.53,1073.23,2083.46,1055Z"/><path class="cls-22" d="M2500,742.79l-.85.07a8.21,8.21,0,0,0,.85-2.43v-5.38c-1.31-8.74-8.18-19.49-15.7-19.1a135.15,135.15,0,0,0,15.7-1.65V672.9c-11-1.8-22.5,1.45-28.85,13.94,6.41-12.61.29-30.58-14.37-33.62-15.06-3.12-24.17,12.49-33.05,21.73,2.95-14.45,17.47-29,11.84-44-3.27-8.74-24.86-23.27-34.24-15.87,24.57-27.25-36.29-82.73-48.13-44.21,7-38.82-57.88-47.87-60.24-2.9,1-18.67-25.62-14.42-34.2-7.65-12.92,10.2-17.69,37.3,1.27,44.32-10.91-7.57-5.64-29.21,1.92-15.87-4.44-11.68,8.62-11.73,11.69-2.39,2.63-8.5,11.93-2.06,13.16,3.72,11.25-15.22,30.85,3.71,19.49,9.72,10.69,6.21-7.53,11.13-14.06,7.11l-.26-.25c10.66,10.5-9.3,17.13-17.68,16.61,19.31,1.2,13.11,22,5.25,32.17,8.85-8.19,26.05,10.07,26.8,18.65,4.75-10.06,16.11-11.87,25.88-8.64-9.62-5.4-23-10.71-25-23-2.39-14.23,12-13.11,21.19-9.68-9.75-4.09-10-16.21,1-18.84-10.13-3-.11-11,4.66-12.69-5.6-5.78-16.22-22.93-3-26.31,10.26-2.62,18.11,11.47,13.68,19.42,7.39-4.11,20.1-2.76,14.82,9.23,3.13-7.11,15.37-1.14,17,4.13,2.45,8-6.37,18.05-14.51,17.38,9.13,3.19,7.65,16.85-1.44,19,25.32,10.46-.82,27.13-10.19,17.7,1.59,5.08-.59,9.92-5.93,12.18,5.14-1,12-1,15,2,5.18,5.21-1.71,12.62-2.72,18.14,2-8.66,17.72-7.38,15.25,2.85,6.38-6.41,17.16-8.34,22,.62-4.23-7.78,10.09-13.21,14.78-12.75-5.34-1.36-11.42-3.36-7.18-9.65-5,6.52-16.93,11.49-23.8,4.07s5.94-10.06,12.34-8.54c-10.83-4.27-3.49-21.6,5.87-15.19-16.11-20.48,18.74-33.92,17.74-13.5.43-8.62,8.62-1.42,9.28,3.11.9,6.1-3.64,14.57-8.62,17.71,10.31-4.81,6.65,12.87.4,15.57,5.87-.72,10.22,5.17,9.81,10.71,2.69-7.42,12.29-10.57,9.9.63,2.55-6.8,2.82-12.56,9.55-16.32,6.1-3.41,15.63-3.17,11.92,6.09,3.13-7.81,6.83-3.1,8.58.9a16,16,0,0,1-3.39,17.39c4.47-3,14.52-5.4,12.18,3.19,2.39-7,19.88-10.73,21.95-1.84,1.62,6.94-10.49,9.73-14.83,8.1-.61,8.63-9.62,8.79-16.39,7.82,7.68,1.68,18.86,7.48,7.32,13.86,3.41.11,13.72-3,12.15,4.56-1.34,6.44-11.58,4.33-16.49,2.55,5.27,2.68,5.84,10,1.61,14.83,11.8-4.57,7.18,9,2.55,14,6.44-5.48,18.44-6.19,17.62,3.81.61-3.54,1.69-8.22,4.05-10.29,2.18-1.93,5.05-2.58,7-1.48Z"/><path class="cls-22" d="M2473.77,831.66c8.09-1.17,17.7,1,21.92,8.86a18.84,18.84,0,0,1,4.31-5.21V818.52a10.9,10.9,0,0,1-7.7-10c-.41,8.78-8.76,12.23-15.49,5.57C2481.74,821.83,2486.79,830.31,2473.77,831.66Z"/><path class="cls-22" d="M2492.62,1094.72a25.28,25.28,0,0,1,7.38-1.57v-32.33c-6.22-2-4.64-11.28,0-16.4v-22.16c-1.71-.87-3.23-2.61-4.31-5.51-2.19-5.87.41-10.81,4.31-15V998.7c-10.5,3.84-22.71,3-26.75-8.67,2.35,9.3-1.39,22.67-12.87,19.63,7.76,7.66,11.11,19-2.18,23.5,8.91-.94,25.89.85,19,13.1-6,10.66-22.36,13.86-32.6,17.86,8.27-.77,18.18-.93,26.24,2,4.41,1.6,15.55,8.78,7.62,13.65C2482.14,1080.4,2504.24,1089.78,2492.62,1094.72Z"/><path class="cls-22" d="M2488,946.67c1.33,4.87-1.41,10.63-5.17,14.57,4.62-2.12,11-2.58,17.14-2V872a35.26,35.26,0,0,1-15.41-15.2c1.45,5.68,5.59,22.78-6.47,18.86,4.35,2.09,12.85,9.26,14.16,14.27,1.5,5.72-3.89,8.93-8.61,6.82,8,6.54,13.34,20.54,4.58,27.58-5.38,4.33-13.44,9.87-20.66,8C2475.51,934.94,2485.36,937,2488,946.67Z"/><path class="cls-23" d="M550.44,549.34c53.48-52.17-57.85-103.07-87-56.73,15.57-24.72-1-73.84-33.23-45.15C440.8,426.32,450.3,393,433,373.71c-18.91-21.07-55.92-19.58-63.69,9.6,2.73-13.23,5.23-47.64-9.85-56.6-16.67-9.9-40,13.1-52.47,22.05,10.13-11.92,26.82-43.48,21.48-59.25C324.2,276.81,293.85,255,280,265.15c36.54-38-48.33-120.48-67.09-65.71C224.73,144,132,128,126.55,192.52c-9.94-44.76-81.82-11.81-64.3,37.7C52.64,203.56,24.47,196.94,0,202.14V992.48c24.39,66.1,113.17,33.12,119.27-29.1-5.09,51.86,51.12,81.16,86.16,43.06-34.59,37.6,23.69,43.33,43.89,43.23,36.37-.17,75.67-1.59,79-48,4.11,15,17.52,35.87,36,32,22.12-4.6,20.21-32.86,23.42-50.18,30.74,32.91,59.8,49.26,95.41,10.85,35.23-38,15.35-68.54-11.93-104.8,39,24.74,48.27-19.61,43.31-47.72-5.93-33.59-21.93-74-59.55-81.95,30.25,2,47.78-27.19,43.37-53.83,12.44,75,161.75-1.65,51.71-50C671.77,680.46,621.69,526.6,550.44,549.34Z"/><path class="cls-22" d="M547.67,660.28c15.22,10.16,18.66,31.67.81,41.21-7.92,4.24-38.35-1.89-25.93-14.51-14.15,14.38-33.87,5.93-27-13.63-6.64,14.93-39.48,29-30.77,5.36-5.87,13.61-37.95,51.59-39.89,24.59-.68,22.68-46.13,64.31-58.52,34.57-26.32,25-41.09-19.34-29.23-39.72-20.64,6.37-54.16,6.26-43.67-25.13-45.63,55.09-113.35-20.07-62.18-31.78C213,622,276.07,581.52,289.62,610.87c-6.05-39.65,44.46-30,64.54-8-9.08-18,16.12-27.13,35.13-24.36-15.73-6-28.17-18.84-26-36.09-13.75,6.64-23.14-3.09-20.92-17-13.58,9.85-34.48,34.71-53.53,19-20-16.52-.69-26.24,16-26.65-29.85.73-8.33-36.77,16.32-34.92-17.62-9-21.3-30.74-5-44-17.88.49-40.93-18.77-22.94-34.58-21.26.66-49.14-1.08-47.52-28.93-14.14,14.8-40.1,17.71-41.21-4.33-1.32,15-9.88,35.25-25.23,27.59,3.05,23.61-35.77,65.56-50.81,37.22-34.19,43.83-86.83-3.34-44.64-19.27C58.06,396.61,93.49,367.4,115.23,370c-21.89-20.93,1.33-33.81,23.31-29.08-11.46-8.89-30-28.56-11.43-39.4-16.45.94-35.42-10-32.67-27.51-12.35,25.91-53.33,3.66-34.18-10.9C18,288.64,35.42,194,54.71,250.27,47.51,199,22.24,195.53,0,207.09V992.48c24.39,66.1,113.17,33.12,119.27-29.1-5.09,51.86,51.12,81.16,86.16,43.06-34.59,37.6,23.69,43.33,43.89,43.23,36.37-.17,75.67-1.59,79-48,4.11,15,17.52,35.87,36,32,22.12-4.6,20.21-32.86,23.42-50.18,30.74,32.91,59.8,49.26,95.41,10.85,35.23-38,15.35-68.54-11.93-104.8,39,24.74,48.27-19.61,43.31-47.72-5.93-33.59-21.93-74-59.55-81.95,30.25,2,47.78-27.19,43.37-53.83C510.8,781.16,660.29,694.65,547.67,660.28Z"/><path class="cls-22" d="M167.85,971.09c7.05-19.08,37.63-81.7,37.63-81.7l-38.28-9.8s-9.36,46.88-16.81,78.8S116.91,1089.53,113,1101.55c0,0-4.61-79.47,4.26-133.51l-22.85-.73s-.47,82.18-.25,120.06c0,0-14.19-70.48-14.81-118.39l-15.7-.5s2.42,11.66,5.08,25.88l-19.58,3s.84,18.61,4.18,25.86c2.71,5.89,20,26.39,28.22,50.8a67.23,67.23,0,0,1,.61,8.71c.1,19.3,1.37,46.5,1.37,46.5S34,1022.57,23,965.76L0,980.87v5.59c6,14.06,25,59.77,37.32,101.41L0,1049.1v25.67l46.92,54c0,.23.07.48.11.71,7.59,53.13,14.36,177,1.19,231.6s-25.1,92.1-25.1,92.1l125,4s-23.19-124.37-25.52-185.91-7.64-118.87-1.27-139.4S160.81,990.16,167.85,971.09ZM64.79,1020.7c.77-3,3.39-9.29,5.95-15.09,2.48,14,4.68,28.19,4.82,35.16C70.08,1032.72,63.51,1025.7,64.79,1020.7Z"/><path class="cls-22" d="M0,1358.83V1600H1123.73C813.88,1507.4,406.05,1404.72,0,1358.83Z"/><path class="cls-23" d="M842.13,1533.44c26.2-33.07-43.34-76.63-59.34-41.58.88-13.08-5.36-29.56-19.43-33.39-19.39-5.28-35.1,9.14-33.57,27.76-7.69-26.45-46.53,9.59-40.1,18-19.57-25.67-48.7,14.58-36.59,34.88,2.84-10.88,2.52-23.38,16.49-20.39,11.71,2.5,16.34,19.53,15.82,30.48,5.43-12.38,22-21.13,27.54-3.5-1.55-11.1-8-27.26,7.5-32.66,7.36-2.56,19.7,2.94,20.47,11.11,13.94-20.87,43.72-10.84,34,15.67,3.42-9.31,20.33,4.2,21.94,8.9,2.58,7.54-2.72,21.63-9.28,25.69,12.7-6.77,27.57-15.89,33.62,3.38-2.63-6.21-2.39-19.51,2.38-25.19,10.62-12.65,22.6-3,31.59,4.76,2.76-14.06,9.7-24.81,26.7-20.4C869.15,1533.68,855.33,1534.42,842.13,1533.44Z"/><path class="cls-23" d="M463.45,1600c-6.53-10.2-18.19-13.84-33.28-.39,10.63-21.15,20.13-54.5,2.85-73.76-18.91-21.07-55.92-19.58-63.69,9.6,2.73-13.23,5.23-47.64-9.85-56.59-16.67-9.91-40,13.09-52.47,22,10.13-11.92,26.82-43.48,21.48-59.25-4.29-12.7-34.64-34.56-48.46-24.36,36.54-38-48.33-120.48-67.09-65.71,11.79-55.43-80.94-71.4-86.39-6.92-9.94-44.76-81.82-11.8-64.3,37.7-9.61-26.66-37.78-33.28-62.25-28.08V1600Z"/><path class="cls-22" d="M128.48,1587.87a52.25,52.25,0,0,1-13,12.13H308.61a29.38,29.38,0,0,1,7.58-9.11c-17.88.49-40.93-18.77-22.94-34.58-21.26.66-49.14-1.08-47.52-28.93-14.14,14.8-40.1,17.71-41.21-4.33-1.32,15-9.88,35.25-25.23,27.6C182.34,1574.25,143.52,1616.21,128.48,1587.87Z"/><path class="cls-22" d="M76.64,1600c-11.39-8.45-13.37-23.64,7.2-31.41-25.78-19.83,9.65-49,31.39-46.48-21.89-20.93,1.33-33.81,23.31-29.08-11.46-8.89-30-28.55-11.43-39.4-16.45.94-35.42-10-32.67-27.51-12.35,25.92-53.33,3.66-34.18-10.9-42.23,25.56-12.19-70.12,7.11-13.79.2-40.07-45.13-58.27-67.37-46.71V1600Z"/><path class="cls-22" d="M2500,1600V1446.76c0-.2-.07-.39-.1-.59-8.94-47-60.55-55.79-99.46-59.4-193.76-18-390.07,11.3-580.79,43.83-36.82,6.28-186.23,29.13-219.46,34.48,17.84-38.23-59.9-64.51-67.35-26.72-2.17-12.92-12-27.51-26.63-28-20.09-.65-32,17-26.23,34.77-13.61-24-43.06,20.12-34.83,26.82-18.53-15.1-35.45,6.26-33.83,23.85-170.4,31.44-310.73,70.33-414.81,104.18Z"/><path class="cls-23" d="M1600.19,1465.08c17.84-38.23-59.9-64.51-67.35-26.72-2.17-12.92-12-27.51-26.63-28-20.09-.65-32,17-26.23,34.77-13.61-23.94-43,20.1-34.84,26.82-25-20.45-44,25.45-27.52,42.4.24-11.24-3-23.33,11.32-23.66,12-.27,20.41,15.23,22.45,26,2.41-13.3,16.46-25.63,26-9.78-4.08-10.44-14.13-24.66-.27-33.51,6.57-4.19,19.85-1.7,22.49,6.07,8.73-23.53,40-20.66,36.7,7.37,1.17-9.85,20.75-.62,23.41,3.58,4.25,6.74,2.36,21.67-3.09,27.14,10.79-9.52,23.15-21.84,33.49-4.49-4-5.43-6.84-18.42-3.51-25.06,7.4-14.76,21.29-8.15,31.83-2.68-.57-14.31,3.7-26.38,21.25-26C1626.54,1459.06,1613.26,1463,1600.19,1465.08Z"/><path class="cls-23" d="M1907.53,1561.25a15.08,15.08,0,0,0,1.08,1.49C1908.25,1562.22,1907.89,1561.72,1907.53,1561.25Z"/><path class="cls-23" d="M2000.82,1543.14c.36.54.72,1,1.08,1.49C2001.54,1544.11,2001.18,1543.61,2000.82,1543.14Z"/><path class="cls-23" d="M2048.17,1488c-13.13.52-26.15,5.23-39.07,8.11,15.51-39.23-63.66-60.81-68.83-22.64-2.94-12.77-13.68-26.74-28.26-26.34-16.32.46-26.56,12.66-26.14,26.54-6.5-1.78-12.91-2.93-20.3-1.15-7.06,1.7-20.79,9.54-18.59,19.06-3-12.77-13.69-26.74-28.26-26.34-20.1.56-31,18.91-24.1,36.29-15-23.09-41.77,22.64-33.17,28.85-26.17-18.91-42.41,28-24.94,44-.43-11.24-4.35-23.11,9.89-24.29,11.92-1,21.28,14,24,24.6,1.61-13.42,14.89-26.57,25.34-11.32-4.69-10.18-15.57-23.77-2.27-33.43,6.31-4.58,19.72-2.89,22.81,4.71,7.31-24,38.72-23,37.08,5.16.58-9.9,20.68-1.86,23.58,2.17,4.65,6.48,3.66,21.49-1.45,27.28,9.87-9.83,21.06-22.36,32.08-8-3.8-5.83-6.61-17.06-3.93-23.3,3-7,7.71-9.58,13-9.79,6-.24,12.84,2.62,18.66,5.2-1.46-14.57,2.73-18.89,10.75-20.2a30.1,30.1,0,0,1,.65,8.52c.57-9.9,20.67-1.86,23.58,2.17,4.65,6.48,3.65,21.49-1.46,27.28,9.88-9.83,21.07-22.36,32.08-8-3.8-5.83-6.6-17.06-3.92-23.3,6.5-15.18,20.76-9.41,31.61-4.58C2027.08,1501,2030.62,1488.7,2048.17,1488Z"/><path class="cls-23" d="M2036.55,1600c6.53-10.2,18.19-13.84,33.28-.39-10.63-21.15-20.13-54.5-2.85-73.76,18.91-21.07,55.92-19.58,63.69,9.6-2.73-13.23-5.23-47.64,9.85-56.59,16.67-9.91,40,13.09,52.47,22-10.13-11.92-26.82-43.48-21.48-59.25,4.29-12.7,34.64-34.56,48.45-24.36-36.53-38,48.34-120.48,67.1-65.71-11.79-55.43,80.94-71.4,86.39-6.92,9.94-44.76,81.82-11.8,64.3,37.7,9.61-26.66,37.78-33.28,62.25-28.08V1600Z"/><path class="cls-22" d="M2371.52,1587.87a52.25,52.25,0,0,0,13.05,12.13H2191.39a29.38,29.38,0,0,0-7.58-9.11c17.88.49,40.93-18.77,22.94-34.58,21.26.66,49.14-1.08,47.52-28.93,14.14,14.8,40.1,17.71,41.21-4.33,1.32,15,9.88,35.25,25.23,27.6C2317.66,1574.25,2356.48,1616.21,2371.52,1587.87Z"/><path class="cls-22" d="M2423.37,1600c11.38-8.45,13.36-23.64-7.21-31.41,25.78-19.83-9.65-49-31.39-46.48,21.89-20.93-1.33-33.81-23.31-29.08,11.46-8.89,30-28.55,11.43-39.4,16.45.94,35.42-10,32.67-27.51,12.35,25.92,53.33,3.66,34.18-10.9,42.23,25.56,12.19-70.12-7.11-13.79-.2-40.07,45.13-58.27,67.37-46.71V1600Z"/></g></g></svg>