<svg xmlns="http://www.w3.org/2000/svg" xmlns:xlink="http://www.w3.org/1999/xlink" viewBox="0 0 2842 2000"><defs><style>.cls-1{isolation:isolate;}.cls-2{fill:url(#linear-gradient);}.cls-3{mix-blend-mode:screen;}.cls-4{fill:#414042;}.cls-5{fill:#231f20;}.cls-6{fill:url(#linear-gradient-2);}.cls-7{fill:#8099d6;}.cls-8{fill:#cde5f1;}.cls-9{fill:#98ade0;}.cls-10{fill:#fff;}.cls-11{fill:#5672b3;}.cls-12{fill:url(#linear-gradient-3);}.cls-13{fill:url(#linear-gradient-4);}.cls-14{fill:url(#linear-gradient-5);}</style><linearGradient id="linear-gradient" x1="1421.05" y1="-22.37" x2="1421.05" y2="981.58" gradientUnits="userSpaceOnUse"><stop offset="0" stop-color="#adbfff"/><stop offset="1" stop-color="#faeaff"/></linearGradient><linearGradient id="linear-gradient-2" x1="1421.05" y1="853.17" x2="1421.05" y2="1107.94" gradientUnits="userSpaceOnUse"><stop offset="0" stop-color="#b1bff0"/><stop offset="1" stop-color="#d6d8ff"/></linearGradient><linearGradient id="linear-gradient-3" x1="1408.84" y1="1359.68" x2="1421.88" y2="1653.16" gradientUnits="userSpaceOnUse"><stop offset="0" stop-color="#fff"/><stop offset="1" stop-color="#cfdcff"/></linearGradient><linearGradient id="linear-gradient-4" x1="1387.96" y1="1559.59" x2="1490.81" y2="2163.43" xlink:href="#linear-gradient-3"/><linearGradient id="linear-gradient-5" x1="319.06" y1="470.9" x2="462.54" y2="780.68" gradientUnits="userSpaceOnUse"><stop offset="0" stop-color="#fff"/><stop offset="1" stop-color="#f0e3ff"/></linearGradient></defs><g class="cls-1"><g id="Layer_2" data-name="Layer 2"><g id="Layer_1-2" data-name="Layer 1"><rect class="cls-2" x="0.11" width="2841.89" height="2000"/><g class="cls-3"><path class="cls-4" d="M.11.31V122.67c541.08,244.71,1256.72,78,1883.7,116.45,469.13,66.46,498.36,54.21,958.19-.85V181.06c-481.16,31.5-488.47,15.17-941.48-74.19C1489.33,25.77,1061.93,171.58,645,.31Z"/></g><g class="cls-3"><path class="cls-5" d="M2842,978.22V864.34c-10,4.4-19.65,8.3-28.69,11.58C2696.8,918.3,2547,928.15,2404.17,927.41s-286-10.72-427.95-2.55c-170,9.79-334.67,45.45-505.54,41.13-203.1-5.16-383.51-65.76-545.75-128.66s-324.27-131.94-520.69-159C272.13,660.22,129.68,663.11.11,685.48V975.15c127.88-16.67,262.62-15.47,393.7-7.08,364.3,23.31,720.41,100.95,1085.48,81.08,216.74-11.79,425.72-57.83,643.59-54.72,149.64,2.13,295.58,27.51,445.28,27.9C2664.46,1022.57,2768.53,1008.13,2842,978.22Z"/></g><g class="cls-3"><path class="cls-4" d="M.11,467.86V581.73c10-4.39,19.65-8.3,28.69-11.58,116.51-42.37,266.36-52.22,409.14-51.48s286,10.71,428,2.54c170-9.78,334.67-45.44,505.54-41.12,203.1,5.15,383.51,65.76,545.75,128.66s324.27,131.94,520.68,158.94C2570,785.86,2712.43,783,2842,760.59V470.93c-127.88,16.67-262.62,15.47-393.7,7.08C2084,454.7,1727.89,377.06,1362.82,396.93c-216.74,11.79-425.72,57.83-643.59,54.72-149.64-2.13-295.58-27.51-445.28-27.9C177.65,423.51,73.58,438,.11,467.86Z"/></g><path class="cls-6" d="M2842,1035.62V1325.2a5644.37,5644.37,0,0,1-687.41,39.29,5646.59,5646.59,0,0,1-806.54-61.08,5647.83,5647.83,0,0,1-850.63,61.08C321.8,1363.8,155.64,1355,.11,1340.6V833.74C13,850.84,28.7,869.49,37.11,871c15.82,2.92,30.46-4.1,30.46-4.1l32.8,45.69s25.21,19.33,46.29,52.14,65.61,58.58,65.61,60.33,26.07-8.79,48.49-36.91c0,0,47.44,68.54,52.27,68.54s47.9,31.21,47.9,31.21l7.46,15.81,47.46-20.21,16.69-5.71,63.71-67.23s64,37.36,64,35.59,58-58.59,58-58.59l17.59-2.33s-5.86-20.5,48-53.89,51.55-45.69,51.55-45.69,7.62,8.79,10.54,8.79,29.88-4.1,29.88-4.1S788.73,881,790.48,881h22.86l28.13-21.67,21.08,32.21,3.5-25.77s24,10.54,34,42.19,37.51,56.81,37.51,56.81l79.67,14.06s48.9,26.94,61.21,51.55,34.28,43.06,34.28,43.06l20.21,14.94s34.27-2.65,34.27-13.19,7.9-40.42,7.9-40.42l29.87,2.65,24.63,29,36,18.46,2.69,2.56,5.94-9.59,43.36-34,7,7s17.29-31.34,19-33.11,17.88-9.64,17.88-9.64l12,40.41s22.25,26.36,23.73,24.61,33.4-16.42,47.44-49.8,53.32-68,53.32-68l43.36-1.75L1574.77,932l18.15-62.08,33.4-32.23,10.54-32.8s41.59,63.28,57.4,66.19,30.46-4.1,30.46-4.1l32.82,45.69s25.19,19.33,46.29,52.14,65.61,58.58,65.61,60.33,26.07-8.79,48.49-36.91c0,0,47.44,68.54,52.27,68.54s47.9,31.21,47.9,31.21l7.46,15.81,47.46-20.21,16.69-5.71,63.71-67.23s64,37.36,64,35.59,58-58.59,58-58.59l17.59-2.33s-5.86-20.5,48-53.89,51.57-45.69,51.57-45.69,7.62,8.79,10.54,8.79,29.88-4.1,29.88-4.1,12.89-9.38,14.64-9.38h22.86l28.11-21.67,21.1,32.21,3.5-25.77s24,10.54,34,42.19,37.51,56.81,37.51,56.81l79.67,14.06s48.9,26.94,61.21,51.55,34.28,43.06,34.28,43.06l20.21,14.94s34.27-2.65,34.27-13.19,7.9-40.42,7.9-40.42Z"/><path class="cls-7" d="M2728.42,1365.92l-22.54-.29L2581,1364l-2.61,0-650-8.65h-.22L1456.24,1349l-29.94-.4-36-.47-46.83-.62,117.19-112.06,30-28.66.26-9.12,8.55-7.3,9.49-8.08,6.29,1,2.15-2.07a97.64,97.64,0,0,0,20.26,5.41c6.25,1,15.31-.41,23.86-2.21h0l2.77-.61c8.78-2,16.62-4,19.81-3.83,6.57.45,26.71-4.49,28.09-4.13s5.7-25.35,19.26-29.84,61.48-17.37,65.16-18.88,29.52-35.41,29.52-35.41l20.54-25.46,23.81-29.51c28.28-19.33,26.47-39.08,27.58-45.3s4.62-34.2,14.13-47.58,9.9-41.39,19.36-50.59a89.85,89.85,0,0,0,8.89-10.19,101.11,101.11,0,0,0,7-10.38s.81.6,2.15,1.56c4.88,3.61,16.86,12.5,22.52,17.45,7.18,6.33,15.46,8.52,20.7,4.44s14.59-4,22.62,15.87,10,30.24,13.13,29.23c2.15-.68,18-12.66,34.07-24.36,7.14-5.18,14.32-10.3,20.43-14.36a50.69,50.69,0,0,0,13-13c9.91-13.89,13.54-30.27,13.54-30.27s9.6-14.35,14.71-28.74a61.68,61.68,0,0,0,2.39-8.43c1.95-9.65,28.68-26.72,51.44-38.25,16.3-8.26,30.58-13.68,32.29-11.49,4.07,5.24,39.74,56.59,39.74,56.59,18.21,45.82,36.42,79.19,51.67,102.69,22.62,34.82,38.74,48,38.74,48l1.84,17.67s55.31,64,99.42,102.57c19.56,17.11,36.92,29.18,46.26,28.45,30.51-2.35,34.61.46,39.43,3.29s54.8,42.26,57.58,42.3c1.19,0,7.23-.16,14.16-.36,8.07-.23,17.34-.49,21.67-.52l1.26,1.17,0-.42.53.94,18,16.74,90.83,84.4,18.9,17.55,37.84,35.17Z"/><path class="cls-8" d="M2382.56,1304.31l-37.89-26.3C2364,1292.44,2381.44,1303.59,2382.56,1304.31Z"/><path class="cls-9" d="M2688.3,1328.65c-.92,10-1.54,16.58-1.77,19-.08.67-.11,1-.11,1l-7.19-7.81-31-33.62,2.35,7,10.26,30.66c-1.5-1-96.78-68.2-115.68-122.91,2.5,8,35.2,112,50,130.8,8.64,11-4.3,9.47-17.27,6-3.75-1-7.52-2.17-10.77-3.22-5.47-1.8-9.46-3.31-9.46-3.31l-166.5-166.68-5.61-5.61,0,2.7.64,40.44L2338.35,1158l-11.93-16.23-6.52-8.88,33.49,67.32-124.2-107.89,23.31,80.93s30.89,26,41.15,53.67c5.35,14.41,29.31,34.85,51,51.1l-177-122.78,58.22,87.66,108.72,96.44L2230.44,1315l-81.93-112.63.63,23-79.37-59.63-8-.37-2.37-.09-44.28-2-62-39.56L1999.75,1238l-79-121.66s22.26,113.41,24.71,115.94,42,119.59,42.75,121.79l-121-207.22,7.35,58.86,53.85,149.57v0l.39,1.11-.61-1.11v0l-86-159.37-37-81.11-102.38,83.62-111.88,48.51-9.79-16.37-28.84,7.1-87.71,108.86-8.28,2.5-29.94-.4,48.76-42,5.76-27.5,4.6-22,4.35-20.7,7.56-36.08,2.1-10,9.49-8.08,6.29,1,2.15-2.07a97.64,97.64,0,0,0,20.26,5.41c6.25,1,15.31-.41,23.86-2.21h0l2.77-.61c8.78-2,16.62-4,19.81-3.83,6.57.45,26.71-4.49,28.09-4.13s5.7-25.35,19.26-29.84,61.48-17.37,65.16-18.88,29.52-35.41,29.52-35.41l20.54-25.46,23.81-29.51c28.28-19.33,26.47-39.08,27.58-45.3s4.62-34.2,14.13-47.58,9.9-41.39,19.36-50.59a89.85,89.85,0,0,0,8.89-10.19,101.11,101.11,0,0,0,7-10.38s.81.6,2.15,1.56c4.88,3.61,16.86,12.5,22.52,17.45,7.18,6.33,15.46,8.52,20.7,4.44s14.59-4,22.62,15.87,10,30.24,13.13,29.23c2.15-.68,18-12.66,34.07-24.36,7.14-5.18,14.32-10.3,20.43-14.36a50.69,50.69,0,0,0,13-13c9.91-13.89,13.54-30.27,13.54-30.27s9.6-14.35,14.71-28.74a61.68,61.68,0,0,0,2.39-8.43c1.95-9.65,28.68-26.72,51.44-38.25,16.3-8.26,30.58-13.68,32.29-11.49,4.07,5.24,39.74,56.59,39.74,56.59,18.21,45.82,36.42,79.19,51.67,102.69,22.62,34.82,38.74,48,38.74,48l1.84,17.67s55.31,64,99.42,102.57c19.56,17.11,36.92,29.18,46.26,28.45,30.51-2.35,34.61.46,39.43,3.29s54.8,42.26,57.58,42.3c1.19,0,7.23-.16,14.16-.36,8.07-.23,17.34-.49,21.67-.52l1.26,1.17,0-.42.53.94,18,16.74,90.83,84.4,18.9,17.55Z"/><polygon class="cls-10" points="2537.4 1200.8 2522.7 1174.79 2540.72 1191.53 2537.4 1200.8"/><path class="cls-10" d="M2581,1364l2.12,3.46-4.73-3.49-11.3-8.34-19.28-14.27s-27.26-44.94-31.64-50.56-20.5-51.54-20.5-51.54l-22.91-36,6.17,38-8.72-14.6-.3,23.39-55-52-23.74-12.44c-1.81-1-3.67-1.92-5.56-2.91L2338.35,1158c-3.5-1.81-5.83-3-6.5-3.38-1.51-.78-3.47-6.15-5.43-12.85-3.73-12.9-7.36-30.78-7.36-30.78l22.72-11c19.56,17.11,36.92,29.18,46.26,28.45,30.51-2.35,34.61.46,39.43,3.29s54.8,42.26,57.58,42.3c1.19,0,7.23-.16,14.16-.36,8.07-.23,17.34-.49,21.67-.52l1.26,1.17-1.43,19.33-4,53.72,47.84,89.77,13.27,21.73Z"/><polygon class="cls-10" points="2650.46 1293.48 2634.41 1281.19 2631.56 1275.93 2650.46 1293.48"/><path class="cls-10" d="M2024.25,830.59c17.45-14.65,49.49-41.38,51.92-42.15,3.36-1.07,10.29,64.77,10.29,64.77s5.95-2,11.78-3.59c4.59-1.24,9.11-2.2,10.58-1.69,3.32,1.16,20.49,50.41,20.49,50.41l9-5.44L2157,911l44.77,20.72c-15.24-23.5-33.46-56.87-51.67-102.7,0,0-35.66-51.34-39.74-56.58-1.71-2.19-16,3.23-32.29,11.49-22.77,11.53-49.49,28.6-51.43,38.26A64.52,64.52,0,0,1,2024.25,830.59Z"/><path class="cls-10" d="M1840.42,883.12c3.57,1.2,6.88,2.39,9.55,3.46,3.89,1.57,6.44,2.89,6.43,3.69-.05,3.34,35.94,62.87,40.39,62.93s88.59,127.09,89.65,130.46c1,3,59.46,66.8,73,81.54l2.8,3-.44-2.93-18-121-62.66-65.46-18.55-61.92c-16.12,11.7-31.92,23.68-34.08,24.37-3.14,1-5.08-9.41-13.12-29.25s-17.38-19.95-22.63-15.86-13.52,1.89-20.71-4.44c-5.65-5-17.64-13.85-22.51-17.45-1.35-1-2.15-1.55-2.15-1.55A102.41,102.41,0,0,1,1840.42,883.12Z"/><path class="cls-10" d="M1859.92,1054.52l-3-2.78C1858.29,1053.3,1859.31,1054.32,1859.92,1054.52Z"/><path class="cls-10" d="M1705.48,1140.89l70.28-63.9s18.55-14.18,21.18-16.11,18.52-21.23,18.66-24c-.12,2.56-1.09,32.71-1.09,32.71l2.56,54.39,17.74,44.79-5.79-56.41.7-52.39,5.61-28.75,21.59,20.41c-7.2-8.61-22.71-33.52-22.71-33.52s7.88-51.66,7.92-54.28,5.76-39.23,5.76-39.23l2.08-38.07.52-9.7s-.41-1.06-1-2.59c-1.35-1-2.15-1.55-2.15-1.55a102.41,102.41,0,0,1-7,10.38,90.61,90.61,0,0,1-8.88,10.17c-9.47,9.21-9.84,37.24-19.37,50.6s-13,41.36-14.12,47.58.69,26-27.59,45.31l-23.81,29.5c2.67-1.64,4.41-2.73,4.41-2.73l49.72-45.18-5,34s-47.44,21.64-49.45,24.89S1705.48,1140.89,1705.48,1140.89Z"/><polygon class="cls-10" points="1460.65 1235.48 1490.62 1206.82 1489.77 1236.48 1489.28 1253.49 1488.11 1294.97 1480.82 1279.17 1475.19 1266.97 1460.65 1235.48"/><path class="cls-10" d="M1597.14,1196.13,1556,1189.7l-40.8-6.39,2.15-2.07a97.64,97.64,0,0,0,20.26,5.41c6.25,1,15.31-.41,23.86-2.21h0l2.77-.61Z"/><path class="cls-10" d="M1996,889.59l47.3-35.72,11.21,28.74v0l23.11,59.21,2.78,7.16,11.64,29.79,4,10.42-6.94-63.13-6.51-59.31c.86,2.46,56.45,159,57.35,163.62.38,2,7.3,18.21,14.91,35.65l6.52,3.38c-1.79-5.07-3.87-10.53-6.29-16.46-17-41.59-20.58-113.59-37.67-151.69-6.13-13.69-13-32.8-19.23-51.66-10.1-30.49-18.63-60.35-20.16-65.72-22.77,11.53-49.49,28.6-51.43,38.26a64.52,64.52,0,0,1-2.4,8.43c-5.1,14.38-14.72,28.72-14.72,28.72S2005.92,875.7,1996,889.59Z"/><path class="cls-7" d="M2171.69,1393l-30.81-.4-170.68-2.27-3.56,0-888.32-11.81h-.3l-645-8.56-40.92-.55-49.21-.64-64-.86,160.16-153.14,41-39.17.36-12.46,11.68-10,13-11,8.61,1.36,2.94-2.84a132.88,132.88,0,0,0,27.69,7.4c8.54,1.42,20.91-.56,32.6-3h0c1.27-.27,2.54-.56,3.8-.84,12-2.68,22.71-5.52,27.06-5.22,9,.6,36.5-6.15,38.4-5.65s7.79-34.65,26.31-40.79,84-23.73,89-25.79,40.36-48.4,40.36-48.4l28.06-34.79,32.55-40.33c38.65-26.42,36.17-53.42,37.69-61.92s6.31-46.73,19.31-65S933,759.69,946,747.1a124.36,124.36,0,0,0,12.15-13.91A138.93,138.93,0,0,0,967.62,719s1.1.81,2.94,2.12c6.67,4.94,23,17.09,30.77,23.86,9.81,8.64,21.13,11.64,28.3,6.06s19.94-5.42,30.91,21.69,13.65,41.33,17.94,40c2.94-.94,24.55-17.32,46.57-33.3,9.75-7.08,19.56-14.08,27.92-19.62A69.41,69.41,0,0,0,1170.72,742c13.54-19,18.5-41.38,18.5-41.38s13.13-19.6,20.11-39.27a85.71,85.71,0,0,0,3.27-11.52c2.67-13.18,39.19-36.52,70.3-52.27,22.27-11.29,41.79-18.71,44.12-15.71,5.57,7.17,54.32,77.34,54.32,77.34,24.88,62.62,49.78,108.23,70.61,140.35,30.92,47.58,52.94,65.61,52.94,65.61l2.52,24.14s75.59,87.52,135.87,140.19c26.73,23.37,50.46,39.87,63.23,38.87,41.69-3.2,47.3.63,53.88,4.5s74.9,57.75,78.69,57.82c1.63,0,9.88-.23,19.36-.5,11-.32,23.69-.67,29.61-.71l1.73,1.6,0-.58.73,1.29,24.62,22.88L2039.31,1270l25.83,24,51.72,48.06Z"/><path class="cls-8" d="M1699,1308.81l-51.78-35.94C1673.58,1292.6,1697.48,1307.84,1699,1308.81Z"/><path class="cls-9" d="M2116.86,1342.08c-1.25,13.63-2.11,22.67-2.42,26-.1.92-.15,1.4-.15,1.4l-9.83-10.67-42.38-46,3.21,9.56,14,41.9c-2-1.42-132.26-93.21-158.09-168,3.41,11,48.1,153,68.29,178.77,11.82,15-5.87,12.94-23.6,8.23-5.13-1.37-10.27-3-14.71-4.4-7.48-2.45-12.94-4.52-12.94-4.52L1710.72,1146.6l-7.67-7.66.07,3.68.87,55.27-65.4-89-16.29-22.19-8.92-12.12,45.77,92-169.74-147.46,31.86,110.61s42.21,35.58,56.23,73.35c7.31,19.69,40.07,47.62,69.74,69.83l-241.83-167.79L1485,1224.87l148.58,131.82-142.43-33.3-112-153.93.86,31.37-108.47-81.5-10.94-.5-3.23-.12-60.52-2.73-84.72-54.07,63.72,156.3-108-166.27s30.42,155,33.77,158.45S1159,1373.83,1160,1376.83L994.69,1093.64l10,80.44,73.59,204.42v0l.54,1.52-.84-1.52v0L960.47,1160.69l-50.62-110.86L769.94,1164.12,617,1230.41,603.66,1208l-39.43,9.71L444.37,1366.52l-11.31,3.42-40.92-.55L458.77,1312l7.87-37.58,6.3-30,5.93-28.29,10.34-49.31,2.87-13.67,13-11,8.61,1.36,2.94-2.84a132.88,132.88,0,0,0,27.69,7.4c8.54,1.42,20.91-.56,32.6-3h0c1.27-.27,2.54-.56,3.8-.84,12-2.68,22.71-5.52,27.06-5.22,9,.6,36.5-6.15,38.4-5.65s7.79-34.65,26.31-40.79,84-23.73,89-25.79,40.36-48.4,40.36-48.4l28.06-34.79,32.55-40.33c38.65-26.42,36.17-53.42,37.69-61.92s6.31-46.73,19.31-65S933,759.69,946,747.1a124.36,124.36,0,0,0,12.15-13.91A138.93,138.93,0,0,0,967.62,719s1.1.81,2.94,2.12c6.67,4.94,23,17.09,30.77,23.86,9.81,8.64,21.13,11.64,28.3,6.06s19.94-5.42,30.91,21.69,13.65,41.33,17.94,40c2.94-.94,24.55-17.32,46.57-33.3,9.75-7.08,19.56-14.08,27.92-19.62A69.41,69.41,0,0,0,1170.72,742c13.54-19,18.5-41.38,18.5-41.38s13.13-19.6,20.11-39.27a85.71,85.71,0,0,0,3.27-11.52c2.67-13.18,39.19-36.52,70.3-52.27,22.27-11.29,41.79-18.71,44.12-15.71,5.57,7.17,54.32,77.34,54.32,77.34,24.88,62.62,49.78,108.23,70.61,140.35,30.92,47.58,52.94,65.61,52.94,65.61l2.52,24.14s75.59,87.52,135.87,140.19c26.73,23.37,50.46,39.87,63.23,38.87,41.69-3.2,47.3.63,53.88,4.5s74.9,57.75,78.69,57.82c1.63,0,9.88-.23,19.36-.5,11-.32,23.69-.67,29.61-.71l1.73,1.6,0-.58.73,1.29,24.62,22.88L2039.31,1270l25.83,24Z"/><polygon class="cls-10" points="1910.63 1167.35 1890.55 1131.81 1915.17 1154.69 1910.63 1167.35"/><path class="cls-10" d="M1970.2,1390.35l2.89,4.73-6.45-4.77-15.44-11.4-26.36-19.5s-37.25-61.41-43.23-69.1-28-70.44-28-70.44l-31.32-49.14,8.44,51.89-11.92-20-.42,32-75.21-71-32.44-17c-2.48-1.31-5-2.62-7.6-4l-64.53-33.77-8.88-4.62c-2.06-1.07-4.75-8.4-7.41-17.57-5.11-17.62-10.07-42.06-10.07-42.06l31-15.08c26.73,23.37,50.46,39.87,63.23,38.87,41.69-3.2,47.3.63,53.88,4.5s74.9,57.75,78.69,57.82c1.63,0,9.88-.23,19.36-.5,11-.32,23.69-.67,29.61-.71l1.73,1.6-2,26.42-5.42,73.42,65.38,122.68,18.13,29.69Z"/><polygon class="cls-10" points="2065.14 1294.02 2043.2 1277.23 2039.31 1270.04 2065.14 1294.02"/><path class="cls-10" d="M1209.32,661.4c23.86-20,67.64-56.54,71-57.6,4.58-1.46,14,88.52,14,88.52s8.15-2.74,16.11-4.91c6.28-1.69,12.44-3,14.45-2.31,4.55,1.58,28,68.9,28,68.9l12.29-7.44,25.57,24.7L1452,799.57c-20.83-32.11-45.73-77.72-70.61-140.34,0,0-48.74-70.18-54.32-77.34-2.33-3-21.85,4.42-44.13,15.71-31.11,15.75-67.63,39.08-70.29,52.28A85.15,85.15,0,0,1,1209.32,661.4Z"/><path class="cls-10" d="M958.1,733.19c4.87,1.65,9.39,3.27,13,4.74,5.33,2.13,8.81,4,8.79,5-.06,4.57,49.12,85.93,55.2,86s121.07,173.68,122.53,178.28c1.3,4.06,81.26,91.3,99.72,111.44,2.45,2.64,3.82,4.14,3.82,4.14l-.59-4-24.56-165.36L1150.41,864l-25.35-84.62c-22,16-43.63,32.37-46.58,33.31-4.29,1.36-6.93-12.87-17.93-40s-23.75-27.27-30.93-21.68-18.47,2.59-28.3-6.06c-7.72-6.77-24.1-18.93-30.77-23.85L967.62,719A139.55,139.55,0,0,1,958.1,733.19Z"/><path class="cls-10" d="M984.74,967.44l-4-3.8C982.51,965.77,983.91,967.16,984.74,967.44Z"/><path class="cls-10" d="M773.68,1085.48l96.05-87.33s25.35-19.38,28.94-22,25.31-29,25.51-32.72c-.17,3.5-1.49,44.69-1.49,44.69l3.49,74.34,24.25,61.21-7.91-77.09,1-71.6,7.67-39.3,29.51,27.9c-9.85-11.76-31-45.82-31-45.82s10.78-70.59,10.83-74.17S968.31,790,968.31,790l2.83-52,.72-13.26s-.56-1.45-1.31-3.54L967.62,719a139.55,139.55,0,0,1-9.52,14.18A123.34,123.34,0,0,1,946,747.1C933,759.68,932.51,798,919.49,816.25s-17.78,56.52-19.3,65,.94,35.5-37.71,61.92l-32.54,40.32c3.66-2.24,6-3.73,6-3.73l68-61.75L897,964.49s-64.84,29.58-67.59,34S773.68,1085.48,773.68,1085.48Z"/><polygon class="cls-10" points="439.08 1214.75 480.04 1175.58 478.88 1216.12 478.21 1239.37 476.6 1296.06 466.64 1274.46 458.96 1257.79 439.08 1214.75"/><path class="cls-10" d="M625.61,1161l-56.21-8.79-55.75-8.73,2.94-2.84a132.88,132.88,0,0,0,27.69,7.4c8.54,1.42,20.91-.56,32.6-3h0c1.27-.27,2.54-.56,3.8-.84Z"/><path class="cls-10" d="M1170.72,742l64.64-48.81,15.32,39.27,0,0,31.57,80.92,3.81,9.79L1302,864l5.54,14.24L1298,791.92l-8.9-81.06c1.18,3.37,77.15,217.29,78.37,223.62.53,2.8,10,24.89,20.38,48.72l8.92,4.61c-2.45-6.92-5.29-14.38-8.6-22.49-23.27-56.83-28.13-155.24-51.48-207.3-8.38-18.72-17.74-44.83-26.28-70.61-13.8-41.66-25.47-82.47-27.56-89.81-31.11,15.75-67.63,39.08-70.29,52.28a85.15,85.15,0,0,1-3.28,11.52c-7,19.66-20.1,39.26-20.1,39.26S1184.27,723.05,1170.72,742Z"/><path class="cls-11" d="M2827.48,1099.17l-5-14.29-.07-.19,0,.15-5,14.27s-10.64,31.94-23.39,37.09c0,0-2.32,5.91,3.37,4.73,3.73-.78-2.81,7.38-7.73,13.08-9.27-10.83-16.06-31.22-16.06-31.22l-5-14.31-.08-.19,0,.15-5,14.29s-10.59,31.92-23.36,37.09l-.06.19c-11.94-7.28-21.55-36.1-21.55-36.1l-4.93-14.29-.11-.21,0,.17-4.94,14.27a146.05,146.05,0,0,1-5.94,14.58,8,8,0,0,0-.43-2.19c-12.75-5.17-23.4-37.07-23.4-37.07l-4.94-14.29-.06-.19-.06.15-5,14.27s-10.59,31.93-23.38,37.09c0,0-2.29,5.91,3.42,4.73,4.39-.91-5.57,10.66-10.25,15.85-12.05-7-21.78-36.25-21.78-36.25l-5-14.29-.08-.19,0,.15-4.94,14.27s-10.62,31.94-23.4,37.09c0,0-2.27,5.91,3.4,4.73s-12.46,18.32-12.46,18.32-2.48,4.73,5.23,4.58-13.69,17.59-13.69,17.59-2.17,5.91,7.23,4.58c0,0-1.48,2.22-3.54,5.13-10.94-9-19.46-34.64-19.46-34.64l-5-14.27-.06-.19-.06.13-4.94,14.29s-10.63,31.92-23.4,37.09c0,0-2.31,5.91,3.4,4.73,3.64-.76-2.5,7-7.4,12.64a149.66,149.66,0,0,1-8-18.76l-4.92-14.3-.06-.17-.06.15-5,14.29s-5.52,16.56-13.38,27.76c-7.71-11.2-13.12-27.4-13.12-27.4l-4.94-14.31-.09-.17,0,.13-5,14.31s-5,14.84-12.14,25.92c-4.8-5.61-10.55-12.92-7-12.18,5.69,1.17,3.37-4.73,3.37-4.73-12.77-5.17-23.37-37.09-23.37-37.09l-5-14.27-.07-.19,0,.13-4.94,14.29s-10.62,31.94-23.39,37.09a7.73,7.73,0,0,0-.46,2.22c-11.75-7.64-21.15-35.89-21.15-35.89l-4.94-14.27-.06-.21,0,.15-5,14.29s-10.61,31.92-23.38,37.09c0,0-2.31,5.91,3.38,4.73,3.16-.66-1,5-5.36,10.24-3.46-7.46-5.58-13.79-5.58-13.79l-4.94-14.31-.08-.17,0,.15-5,14.29s-10.61,31.9-23.38,37.09c0,0-2.31,5.91,3.38,4.73,3.29-.7-1.42,5.6-6,11-5.17-4.94-10.19-10.64-5.84-10.56,7.71.15,5.25-4.58,5.25-4.58s-18.14-19.5-12.48-18.32,3.4-4.73,3.4-4.73c-12.77-5.17-23.38-37.09-23.38-37.09l-5-14.29,0-.17-.08.14-4.94,14.28s-10.63,31.92-23.38,37.09c0,0-2.31,5.91,3.36,4.73s-12.44,18.32-12.44,18.32-2.46,4.73,5.23,4.58S2203,1287.1,2203,1287.1a4.52,4.52,0,0,0-.12.54h-6.36c-4.54-4.55-8.25-9.18-4.29-9.11,7.69.16,5.21-4.56,5.21-4.56s-18.15-19.51-12.46-18.33,3.39-4.73,3.39-4.73c-12.77-5.15-23.37-37.07-23.37-37.07l-5-14.31-.06-.17-.07.13-5,14.31s-10.63,31.92-23.4,37.07c0,0-2.29,5.93,3.39,4.75s-12.46,18.32-12.46,18.32-2.45,4.73,5.23,4.56c4-.06.23,4.58-4.33,9.14h-19.06c-.71-1.47-.52-2.38,1.27-2.36,7.69.15,5.25-4.56,5.25-4.56s-18.17-19.51-12.48-18.34,3.39-4.73,3.39-4.73c-12.77-5.15-23.37-37.07-23.37-37.07l-5-14.3-.07-.18,0,.14-5,14.3s-10.62,31.92-23.37,37.09c0,0-2.32,5.91,3.37,4.73s-12.46,18.32-12.46,18.32-2.43,4.73,5.23,4.56c1.82,0,2,.91,1.27,2.4h-11.71c1.69-1.37.57-3.56.57-3.56s-18.15-19.49-12.44-18.32,3.35-4.72,3.35-4.72c-12.73-5.17-23.37-37.09-23.37-37.09l-5-14.29-.06-.17,0,.13-5,14.29s-10.6,31.9-23.39,37.09c0,0-2.29,5.91,3.41,4.73,1.73-.38,1.23,1.21-.29,3.57-10.67-9.46-18.85-34.11-18.85-34.11l-5-14.28-.06-.19,0,.15-5,14.29s-1,3.09-2.83,7.52c-1,2.51-2.31,5.43-3.79,8.47-3.92-4.82-7.19-9.59-4.29-9,3.71.76,4-1.46,3.77-3.12a8.7,8.7,0,0,0-.4-1.61c-12.77-5.15-23.37-37.09-23.37-37.09l-5-14.29-.07-.17,0,.13-5,14.31s-1.06,3.15-2.87,7.62a114.49,114.49,0,0,1-9.67,18.94c-5-5.7-11.75-14.1-7.94-13.32,3.13.67,3.84-.81,3.84-2.3h0a7.47,7.47,0,0,0-.48-2.42,11.27,11.27,0,0,1-2-1c-8-5-14.9-19.56-18.59-28.56-.16-.42-.31-.82-.48-1.2-1.5-3.74-2.33-6.27-2.33-6.27l-5-14.31-.06-.19,0,.17-5,14.29s-.73,2.19-2,5.53c-2.92,7.41-8.69,20.45-15.63,27.46-3.17-7-5.08-12.71-5.08-12.71l-4.88-14.08-.08-.23-.07-.19,0,.17-.08.25-4.88,14s-6.73,20.27-15.93,31.12a29.62,29.62,0,0,1-3.73,3.71,15,15,0,0,1-3.73,2.26s-2.3,5.91,3.39,4.73c3.13-.65-.93,4.94-5.23,10.11a.28.28,0,0,0-.08.11c-3.52,4.2-7.15,8.1-7.15,8.1a3.59,3.59,0,0,0-.23,2.47c-6.62-10.87-11.12-24.34-11.12-24.34l-5-14.29-.06-.19,0,.13-4.93,14.31s-.59,1.71-1.59,4.39a138.75,138.75,0,0,1-10.62-23.45l-5-14.31-.06-.19,0,.17-5,14.27a147.87,147.87,0,0,1-5.53,13.74,105.51,105.51,0,0,1-5.35,10.22c-3.63,6-7.92,11.29-12.5,13.13,0,0-2.31,5.91,3.39,4.73,1.67-.34,1.3,1.09-.08,3.29a7.8,7.8,0,0,0-.35-1.25c-12.77-5.15-23.38-37.05-23.38-37.05l-5-14.31-.06-.19,0,.17-4.94,14.27s-10.63,31.92-23.4,37.09a5.66,5.66,0,0,0-.25.83c-2.42-5.58-3.81-9.78-3.81-9.78l-4.92-14.27-.06-.19-.06.13-5,14.29a138.2,138.2,0,0,1-10.55,23.35,142.23,142.23,0,0,1-9.85-22.19l-5-14.27-.06-.19,0,.13-5,14.29s-4.75,14.29-11.71,25.29c-11.4-8.34-20.38-35.36-20.38-35.36l-5-14.29-.06-.19-.06.17-5,14.27s-5.11,15.39-12.52,26.53c-.84,1.23-1.69,2.43-2.57,3.53-1.7-2.56-2.35-4.33-.52-4a4.21,4.21,0,0,0,2.61-.08c2.23-1,.77-4.65.77-4.65-12.77-5.17-23.38-37.09-23.38-37.09l-5-14.27-.06-.19,0,.15-3.13,9-1.81,5.24a136.86,136.86,0,0,1-10.73,23.69c-3.67,6.14-8,11.54-12.67,13.4a7.51,7.51,0,0,0-.44,2.51c-11.18-8.67-20-35.06-20-35.06l-.79-2.28-4.16-12-.07-.2,0,.17-2.67,7.63-2.31,6.63s-.39,1.22-1.12,3.18c-3.75-4.66-6.77-9.12-3.94-8.53,4.06.83,4-2,3.69-3.61a6.82,6.82,0,0,0-.32-1.14c-12.77-5.15-23.39-37-23.39-37l-4.94-14.31-.06-.19,0,.17-5,14.29s-2,6.13-5.39,13.47c-3.81,8.26-9.31,18.07-15.48,22.23a13.78,13.78,0,0,1-2.5,1.37s-2.31,5.91,3.37,4.73c3.27-.69-1.27,5.39-5.77,10.73a141.5,141.5,0,0,1-9.83-22.17l-5-14.27-.06-.19-.05.15-4.95,14.27s-8.94,26.94-20.32,35.32a14.07,14.07,0,0,1-3.06,1.77s-2.31,5.91,3.39,4.73c3.48-.72-2,6.37-6.77,11.92-6.27-4.28-11.85-14.35-15.64-22.71q-.95-2.31-1.69-4.33v0c-1.75-4.62-2.73-7.89-2.73-7.89l-4.5-14.42-.08-.19,0,.16-.48,1.27-.64-1.85-.06-.19-.07.16-4.93,14.27s-.61,1.84-1.71,4.71c-2.13,5.43-6,14.61-10.88,21.9a41.87,41.87,0,0,1-5.64,6.58c-4.69-5.51-9.9-12.28-6.46-11.57,5.66,1.18,3.37-4.73,3.37-4.73-12.75-5.17-23.38-37.07-23.38-37.07l-2.08-6-2.87-8.3-.07-.19-.06.15-1.77,5.07-3.19,9.2s-5.75,17.29-13.87,28.48c-4.86-4.75-9.21-9.9-5.05-9.8,7.69.13,5.21-4.6,5.21-4.6s-18.12-19.49-12.44-18.32,3.4-4.71,3.4-4.71c-8.92-3.63-16.79-20.29-20.73-30-1.71-4.18-2.67-7.09-2.67-7.09l-4.94-14.28-.08-.21,0,.17-2.17,6.17v0l-2.81,8.1s-.44,1.31-1.25,3.43v0c-.33.9-.73,1.92-1.19,3.06-3.83,9.62-11.83,26.87-20.92,30.55,0,0-2.31,5.91,3.38,4.74s-12.46,18.31-12.46,18.31-2.48,4.73,5.23,4.6c3.48-.09,1,3.55-2.81,7.54A141,141,0,0,1,1191,1219l-5-14.27-.06-.21-.06.17-4.94,14.27s-10.62,31.92-23.4,37.09c0,0-2.29,5.91,3.4,4.73,2.94-.61-.46,4.24-4.42,9.1-5.6-5.19-12.21-12.12-7.37-12,7.66.14,5.23-4.6,5.23-4.6s-18.17-19.49-12.48-18.31,3.41-4.73,3.41-4.73c-12.77-5.17-23.39-37.07-23.39-37.07l-5-14.29-.06-.21-.07.17-2.25,6.48-2.69,7.79s-1.43,4.31-3.89,10a112,112,0,0,1-7.67,15c-4.94-5.68-11.75-14.09-8-13.3,5.69,1.18,3.38-4.73,3.38-4.73-12.75-5.16-23.38-37.08-23.38-37.08l-4.94-14.27-.1-.19,0,.13-4.94,14.29a145.72,145.72,0,0,1-7.11,17c-4.22,8.51-10,17.56-16.27,20.11,0,0-2.31,5.9,3.38,4.73,4-.84-3.88,8.68-8.88,14.32-4.94-5.68-11.56-13.94-7.81-13.16,5.69,1.17,3.39-4.74,3.39-4.74-12.77-5.16-23.39-37.08-23.39-37.08l-5-14.27-.06-.19-.07.13L995.67,1164a147.23,147.23,0,0,1-6.75,16.22,84.61,84.61,0,0,1-7.07,12.11c-3.08-3.46-4.75-6.37-1.62-6.29,7.71.13,5.21-4.58,5.21-4.58S967.31,1162,973,1163.16c2.75.59,3.64-.51,3.81-1.8v0a7,7,0,0,0-.44-2.91,12.81,12.81,0,0,1-2.16-1.14,29.59,29.59,0,0,1-7.59-7.79c-8-11.19-13.62-28.12-13.62-28.12l-5-14.3-.06-.19-.07.17L943,1121.33s-10.31,31-22.83,36.84l-.58.24s-1.57,4.07,1.14,4.77a4.72,4.72,0,0,0,2.27,0c2.19-.45.84,2.17-1.64,5.55q-.29.4-.63.84c-1.31,1.73-2.85,3.61-4.33,5.34-3.06,3.59-5.86,6.59-5.86,6.59s-2.45,4.73,5.23,4.58S902,1203.61,902,1203.61s-2.14,5.91,7.25,4.58c0,0-1.66,2.53-3.93,5.74-11.34-8.47-20.23-35.24-20.23-35.24l-5-14.27-.06-.19-.07.13-4.94,14.31s-8.62,25.88-19.66,34.79c-5-5.65-12.86-15.15-8.82-14.31,5.67,1.18,3.36-4.73,3.36-4.73-12.77-5.17-23.38-37.09-23.38-37.09l-3.42-9.82-1.54-4.45-.06-.19,0,.13-2.71,7.76-2.27,6.53s-10.59,31.92-23.38,37.09c0,0-2.31,5.91,3.4,4.73,4.37-.91-5.4,10.49-10.13,15.75-3.41-7.41-5.5-13.68-5.5-13.68l-5-14.27-.08-.2,0,.15-5,14.29s-10.5,31.59-23.19,37c-5-5.72-11.79-14.14-8-13.34,5.67,1.18,3.38-4.73,3.38-4.73-3.34-1.35-6.55-4.54-9.44-8.51-8.17-11.18-14-28.56-14-28.56l-4.94-14.29-.06-.21-.07.17L709.69,1183s-8.86,26.6-20.11,35.17c-4.58-5.11-14.92-17-10.44-16.11,5.69,1.21,3.4-4.71,3.4-4.71-12.77-5.17-23.4-37.07-23.4-37.07L654.2,1146l-.1-.19,0,.17-4.94,14.29s-10.63,31.9-23.38,37.07c0,0-2.29,5.91,3.38,4.73s-12.44,18.32-12.44,18.32-2.48,4.73,5.21,4.57c3.16-.07,1.41,2.91-1.75,6.41-12.57-5.68-23-36.88-23-36.88l-3.52-10.17-1.42-4.1-.08-.21,0,.15-1.6,4.62-3.38,9.67s-1,2.91-2.66,7.13c-.29.74-.63,1.52-1,2.31-4,9.37-10.79,22.92-18.52,27.08-2.15-2.7-2.88-4.71-.27-4.66,7.68.16,5.21-4.57,5.21-4.57s-18.13-19.5-12.44-18.32c3.37.7,3.93-1.12,3.83-2.7a7.47,7.47,0,0,0-.44-2c-3.25-1.31-6.37-4.37-9.19-8.19-8.31-11.17-14.23-28.9-14.23-28.9l-4.91-14.27-.07-.19-.06.13-5,14.29s-7,21-16.44,31.68l-.25.28a19.38,19.38,0,0,1-6.7,5.13s-2.3,5.91,3.39,4.73c4.13-.85-4.37,9.27-9.29,14.82-7.71-6.34-14.21-20.88-17.4-29-1.35-3.44-2.1-5.7-2.1-5.7l-5-14.27-.06-.21,0,.15-5,14.29a147.72,147.72,0,0,1-6.75,16.26c-2.86,5.85-6.46,12-10.46,16.27l-.07-.08c-5-5.7-11.79-14.18-8-13.36,5.69,1.18,3.36-4.75,3.36-4.75-12.75-5.15-23.36-37.07-23.36-37.07l-5-14.29-.06-.18,0,.17-5,14.26s-10.61,31.93-23.36,37.09c0,0-2.33,5.91,3.36,4.73,3.44-.72-1.75,6-6.44,11.54-8-11.19-13.56-28-13.56-28l-4.94-14.27-.06-.19-.09.14L363.3,1186s-10.62,31.93-23.37,37.09c0,0-2.31,5.91,3.37,4.73,2-.41,1.07,1.71-1,4.64-5.71-5-15.89-14.69-10.21-14.59,7.69.15,5.23-4.58,5.23-4.58s-18.16-19.5-12.46-18.32,3.38-4.73,3.38-4.73c-12.75-5.17-23.38-37.09-23.38-37.09l-5-14.27-.06-.19,0,.14-5,14.28s-10.6,31.94-23.38,37.09c0,0-2.31,5.91,3.4,4.73s-12.48,18.32-12.48,18.32-2.44,4.73,5.25,4.58c4.31-.08-.56,5.51-5.67,10.39-4.39-5.24-8.75-11.13-5.56-10.49,5.69,1.18,3.4-4.73,3.4-4.73-12.78-5.15-23.4-37.08-23.4-37.08l-4.94-14.27-.1-.19-.05.13-4.93,14.31s-10.61,31.92-23.4,37.07c0,0-2.27,5.92,3.4,4.75,4.1-.86-4.13,9-9.11,14.59-5.71-5.09-15.63-14.54-10-14.44,7.69.15,5.23-4.58,5.23-4.58s-18.15-19.5-12.46-18.32,3.4-4.73,3.4-4.73c-12.78-5.17-23.4-37.09-23.4-37.09l-5-14.27-.08-.19,0,.14-5,14.28s-10.61,31.94-23.38,37.09c0,0-2.29,5.91,3.4,4.73s-12.46,18.32-12.46,18.32-2.48,4.73,5.2,4.58c2.9-.06,1.71,2.41-.93,5.53a6.15,6.15,0,0,0-.27-3.61c-12.76-5.17-23.38-37.09-23.38-37.09l-5-14.27-.06-.19,0,.13-5,14.29s-7.38,22.14-17.21,32.53c-5-5.72-11.9-14.23-8.07-13.43,5.69,1.18,3.4-4.73,3.4-4.73-12.79-5.17-23.4-37.09-23.4-37.09l-5-14.27-.06-.21,0,.15-5,14.29s-10.62,31.92-23.38,37.09c0,0-2.33,5.91,3.36,4.73S.38,1220,.38,1220a3.32,3.32,0,0,0-.27.79,2.75,2.75,0,0,0,0,1.56c.35,1.16,1.67,2.3,5.5,2.23,3-.06,1.52,2.67-1.37,6h0c-1.5-2.62-2.87-5.34-4.1-7.94v232.6H2842V1124.33c-.46.64-1,1.35-1.52,2.07C2832.81,1115.23,2827.48,1099.17,2827.48,1099.17Zm-88.87,66.54c2.19.46,3.17-.13,3.61-1a5.18,5.18,0,0,0,1.4-.11c2.52-.53.29,3.1-3,7.26C2737.91,1168.16,2736.3,1165.22,2738.61,1165.71ZM2698.84,1141a4.21,4.21,0,0,0,2.65-.11c-.67,1.37-1.38,2.73-2.13,4.06C2697.65,1142.36,2697,1140.59,2698.84,1141Zm-62.4,21.32c.63.87,2,1.62,5.13,1.56s1.47,2.73-1.53,6.14C2636.82,1165.9,2634.44,1162.21,2636.44,1162.29ZM2384,1230.92c3.82.8,4-1.62,3.75-3.29a6.1,6.1,0,0,0,1.21-.13c2.79-.57-.1,3.74-3.77,8.32C2383,1232.74,2381.92,1230.48,2384,1230.92Zm-595.88,25.74c2.69-.05,1.82,2.09-.43,4.89a52,52,0,0,1-4.5-6.18C1783.87,1256.13,1785.33,1256.72,1788.1,1256.66Zm-72.65,3a6.88,6.88,0,0,0,1.13.13l-1.67,2.09C1714.1,1260.29,1714.06,1259.36,1715.45,1259.67Zm-50,0c1.73-.36,1.25,1.18-.23,3.49-.59-1.13-1.11-2.28-1.63-3.38A5.91,5.91,0,0,0,1665.41,1259.63ZM1509.73,1263c1.73-.34,1.29,1.18-.21,3.48a5.15,5.15,0,0,0-.13-3.42Zm-3.79,4.54c1.7.34,2.7.06,3.25-.53-.82,1.24-1.88,2.6-3,4.07C1504.69,1268.71,1504.21,1267.17,1505.94,1267.53Zm-1056.23-42a2.87,2.87,0,0,1-.54,1.92C448.77,1226.47,448.87,1225.79,449.71,1225.54Zm919.86,49.21c-.29-.4-.58-.76-.83-1.12A1,1,0,0,1,1369.57,1274.75Zm-336.67-46a8.9,8.9,0,0,0,3.79-.55c.48,1-1,3.19-3.19,5.66C1031.13,1231,1030.15,1228.73,1032.9,1228.79Zm-179.1-6.74a15.1,15.1,0,0,0,2.17-.12,19.22,19.22,0,0,1-2.48,4C851.82,1223.64,851.45,1222,853.8,1222.05Zm-62.88,1.54c-.29-.52-.56-1-.83-1.53A1.07,1.07,0,0,1,790.92,1223.59Zm-44,24.15a11.45,11.45,0,0,0,3.08-.33c-.89,1.31-2.06,2.83-3.29,4.35C745,1249.41,744.52,1247.66,747,1247.74ZM686.37,1225a11.64,11.64,0,0,0,1.48,0,6,6,0,0,0,1.86-.13c1.93-.42,1.06,1.67-1,4.56-.34.48-.69,1-1.09,1.5-.23-.26-.45-.53-.68-.8C684.6,1227.16,683.62,1224.9,686.37,1225Zm-186.14,1.28c2.54-.06,1.9,1.84-.06,4.4-1.44-2-2.46-3.66-2.56-4.59A13.64,13.64,0,0,0,500.23,1226.23Zm-304.5,13.94a10.14,10.14,0,0,0,3.42.38c2.93,0,1.62,2.51-1.13,5.68-2.48-3.44-4.31-6.23-4.31-6.23A17.54,17.54,0,0,0,195.73,1240.17Zm-77.55-15.73a3.81,3.81,0,0,0,2.77-.17c-.91,1-1.89,2-2.94,3C116.85,1225.35,116.62,1224.12,118.18,1224.44Zm-49,.25c.16.38,0,1.06-.52,1.93C68.26,1225.64,68.37,1225,69.18,1224.69Zm2770.53-109.84s-2,5.09,2.29,4.86v-6.1A13.5,13.5,0,0,1,2839.71,1114.85Z"/><path class="cls-12" d="M2842,1269.16V2000H.11V1370.14a2833.49,2833.49,0,0,1,309.38-38.3h0q60.84-4.15,121.84-5.51,16.88-.42,33.78-.57c3.45-.06,6.93-.08,10.41-.1,161.22,2.56,322.53,19.73,483.92,31.1l69.88,5.52,7.12.56,78.15,6.19h0c2.38.21,4.75.4,7.15.59,149.74,11.91,299.84,24,449.06,36.52h.06c4.46.35,8.9.73,13.33,1.1,128.87,7.75,257,29.59,385,23.92a2098.21,2098.21,0,0,0,457.33-75.81c70.82-19.13,142.18-43.23,212.66-60.15,56.9-19.42,124.82-30.77,187.29-27,0,0,0,0,0,0Q2834.15,1268.51,2842,1269.16Z"/><path class="cls-11" d="M2675.14,1448s-18.23-22.06-12.93-20.7,3.25-3.47,3.25-3.47c-3.31-2.72-11.17-19.18-11.17-19.18,7,1.35,5.36-4.69,5.36-4.69s-15.84-18.13-10.14-18,3.87-4.68,3.87-4.68-13.44-20-9.23-18.74,2.51-4.83,2.51-4.83c-9.46-5.28-17.32-37.91-17.32-37.91l-3.67-14.61-.05-.19,0,.15-3.67,14.61s-7.87,32.63-17.32,37.91c0,0-1.71,6,2.5,4.84s-9.22,18.73-9.22,18.73-1.83,4.83,3.87,4.68-10.14,18-10.14,18-1.6,6,5.35,4.68c0,0-7.86,16.46-11.16,19.18,0,0-2.05,4.83,3.25,3.47s-12.94,20.7-12.94,20.7-.45,10.42,9.35,2.26c0,0,4.44-2.26,14.35,5.44,0,0,3.31,2.72,15.16-1.36a22.8,22.8,0,0,0,7.63,4.45v52.8h5.13V1458a19.09,19.09,0,0,1,5.92-3.15,15.48,15.48,0,0,1,2.65-.58c11.85,4.08,15.15,1.36,15.15,1.36,9.92-7.7,14.36-5.44,14.36-5.44C2675.6,1458.39,2675.14,1448,2675.14,1448Z"/><path class="cls-11" d="M235.75,1530.44s-18.24-22-12.94-20.69,3.25-3.48,3.25-3.48c-3.3-2.71-11.16-19.18-11.16-19.18,6.95,1.36,5.35-4.68,5.35-4.68s-15.84-18.13-10.14-18,3.87-4.69,3.87-4.69-13.44-19.94-9.22-18.73,2.5-4.83,2.5-4.83c-9.46-5.29-17.32-37.92-17.32-37.92l-3.67-14.6-.05-.2,0,.16-3.67,14.61s-7.86,32.62-17.32,37.91c0,0-1.71,6,2.5,4.83s-9.22,18.74-9.22,18.74-1.83,4.83,3.87,4.68-10.14,18-10.14,18-1.6,6,5.35,4.69c0,0-7.86,16.46-11.16,19.18,0,0-2,4.83,3.25,3.47s-12.94,20.7-12.94,20.7-.45,10.41,9.35,2.26c0,0,4.44-2.26,14.35,5.44,0,0,3.31,2.71,15.16-1.36a23.16,23.16,0,0,0,7.63,4.45V1594h5.13v-53.49a19.53,19.53,0,0,1,5.92-3.15,16.51,16.51,0,0,1,2.65-.57c11.85,4.07,15.16,1.36,15.16,1.36,9.91-7.71,14.35-5.44,14.35-5.44C236.2,1540.86,235.75,1530.44,235.75,1530.44Z"/><path class="cls-11" d="M335.75,1492.51s-18.23-22-12.93-20.69,3.25-3.48,3.25-3.48c-3.31-2.71-11.17-19.18-11.17-19.18,7,1.36,5.36-4.68,5.36-4.68s-15.84-18.13-10.14-18,3.87-4.68,3.87-4.68-13.44-19.94-9.23-18.73,2.51-4.83,2.51-4.83c-9.46-5.29-17.32-37.92-17.32-37.92l-3.67-14.61,0-.19,0,.16-3.67,14.61s-7.87,32.62-17.33,37.91c0,0-1.7,6,2.51,4.83s-9.23,18.73-9.23,18.73-1.82,4.83,3.88,4.69-10.14,18-10.14,18-1.6,6,5.35,4.68c0,0-7.86,16.47-11.16,19.18,0,0-2.06,4.84,3.24,3.48s-12.93,20.69-12.93,20.69-.45,10.42,9.34,2.27c0,0,4.45-2.27,14.36,5.44,0,0,3.31,2.71,15.16-1.36a23.16,23.16,0,0,0,7.63,4.45v52.8h5.13v-53.49a19.35,19.35,0,0,1,5.91-3.15,16.59,16.59,0,0,1,2.66-.57c11.85,4.07,15.15,1.36,15.15,1.36,9.92-7.71,14.36-5.44,14.36-5.44C336.21,1502.93,335.75,1492.51,335.75,1492.51Z"/><path class="cls-11" d="M444.38,1554.58s-18.23-22-12.93-20.69,3.25-3.48,3.25-3.48c-3.31-2.71-11.17-19.18-11.17-19.18,7,1.36,5.35-4.68,5.35-4.68s-15.83-18.13-10.14-18,3.88-4.68,3.88-4.68-13.44-19.94-9.23-18.73,2.51-4.83,2.51-4.83c-9.46-5.29-17.32-37.92-17.32-37.92l-3.68-14.61,0-.19,0,.16-3.67,14.6s-7.87,32.63-17.33,37.92c0,0-1.7,6,2.51,4.83s-9.23,18.73-9.23,18.73-1.82,4.83,3.88,4.69-10.14,18-10.14,18-1.6,6,5.35,4.68c0,0-7.86,16.47-11.16,19.18,0,0-2.06,4.84,3.24,3.48s-12.93,20.69-12.93,20.69-.45,10.42,9.34,2.27c0,0,4.45-2.27,14.36,5.44,0,0,3.3,2.71,15.15-1.36a23.18,23.18,0,0,0,7.64,4.45v52.8H397v-53.49a19.35,19.35,0,0,1,5.91-3.15,15.55,15.55,0,0,1,2.66-.57c11.85,4.07,15.15,1.36,15.15,1.36,9.91-7.71,14.36-5.44,14.36-5.44C444.84,1565,444.38,1554.58,444.38,1554.58Z"/><path class="cls-11" d="M2759.06,1462.91s-18.23-22.06-12.93-20.69,3.24-3.48,3.24-3.48c-3.3-2.72-11.16-19.18-11.16-19.18,6.95,1.36,5.35-4.68,5.35-4.68s-15.83-18.13-10.14-18,3.88-4.68,3.88-4.68-13.45-19.94-9.23-18.73,2.51-4.84,2.51-4.84c-9.46-5.28-17.33-37.91-17.33-37.91l-3.67-14.61,0-.19,0,.15-3.68,14.61s-7.86,32.63-17.32,37.91c0,0-1.71,6.05,2.51,4.84s-9.23,18.73-9.23,18.73-1.82,4.83,3.87,4.68-10.14,18-10.14,18-1.59,6,5.36,4.68c0,0-7.86,16.46-11.17,19.18,0,0-2,4.84,3.25,3.48s-12.93,20.69-12.93,20.69-.46,10.42,9.34,2.27c0,0,4.45-2.27,14.36,5.43,0,0,3.3,2.72,15.15-1.35a23,23,0,0,0,7.63,4.44v52.8h5.13V1473a19.34,19.34,0,0,1,5.92-3.15,15.76,15.76,0,0,1,2.66-.58c11.85,4.08,15.15,1.36,15.15,1.36,9.91-7.7,14.36-5.44,14.36-5.44C2759.51,1473.33,2759.06,1462.91,2759.06,1462.91Z"/><path class="cls-13" d="M2842,1507.8V2000H.11V1695.6c112.09-15.32,264.65-47.28,473.81-61.51,168.14-11.43,322.73-21.95,502.87-6.33,35.48,3.09,96.55,9.31,181.56,7,122.36-3.29,203.2-26.85,284.83-36.89,274.56-33.77,446.51-59.57,847.86-80.11,85.46-4.39,188.39-8.33,306.29-10q34.88-.49,71.51-.71,7.62-.06,15.31-.08,32.32-.09,65.86,0Q2794.92,1507.12,2842,1507.8Z"/><path class="cls-11" d="M286.23,1886.53s-20.65-25.16-14.65-23.61,3.68-4,3.68-4c-3.74-3.1-12.65-21.89-12.65-21.89,7.88,1.55,6.07-5.34,6.07-5.34s-17.94-20.68-11.49-20.51,4.39-5.34,4.39-5.34-15.23-22.75-10.45-21.37S254,1779,254,1779c-10.71-6-19.62-43.26-19.62-43.26l-4.16-16.66-.06-.22,0,.17-4.16,16.67s-8.9,37.22-19.62,43.25c0,0-1.93,6.9,2.84,5.52s-10.45,21.37-10.45,21.37-2.07,5.51,4.39,5.34-11.49,20.51-11.49,20.51-1.81,6.89,6.07,5.34c0,0-8.91,18.78-12.65,21.88,0,0-2.32,5.52,3.68,4s-14.65,23.61-14.65,23.61-.51,11.88,10.58,2.58c0,0,5-2.58,16.27,6.2,0,0,3.74,3.1,17.16-1.54,3.62,2.92,6.44,4.44,8.64,5.07V1959h5.81v-61a21.67,21.67,0,0,1,6.7-3.59,17.51,17.51,0,0,1,3-.66c13.42,4.65,17.17,1.55,17.17,1.55,11.22-8.79,16.26-6.2,16.26-6.2C286.74,1898.42,286.23,1886.53,286.23,1886.53Z"/><path class="cls-11" d="M1833.3,1643s-16-19.53-11.37-18.32,2.86-3.08,2.86-3.08c-2.91-2.41-9.82-17-9.82-17,6.11,1.21,4.71-4.14,4.71-4.14s-13.92-16-8.92-15.92,3.41-4.14,3.41-4.14-11.82-17.66-8.11-16.59,2.2-4.28,2.2-4.28C1800,1554.87,1793,1526,1793,1526l-3.22-12.94,0-.17,0,.14-3.23,12.93s-6.91,28.9-15.23,33.57c0,0-1.49,5.36,2.21,4.29s-8.11,16.58-8.11,16.58-1.61,4.28,3.4,4.15-8.91,15.91-8.91,15.91-1.41,5.35,4.7,4.15c0,0-6.9,14.58-9.81,17,0,0-1.8,4.28,2.85,3.08s-11.36,18.32-11.36,18.32-.4,9.23,8.21,2c0,0,3.91-2,12.62,4.82,0,0,2.9,2.4,13.32-1.21a20.18,20.18,0,0,0,6.71,3.94v46.75h4.51v-47.35a16.56,16.56,0,0,1,5.2-2.79,13.79,13.79,0,0,1,2.33-.51c10.42,3.61,13.33,1.2,13.33,1.2,8.71-6.82,12.62-4.81,12.62-4.81C1833.7,1652.24,1833.3,1643,1833.3,1643Z"/><path class="cls-11" d="M1317,1494s-11.73-14.29-8.32-13.4,2.09-2.25,2.09-2.25c-2.13-1.76-7.18-12.43-7.18-12.43,4.47.88,3.44-3,3.44-3s-10.18-11.74-6.52-11.64,2.49-3,2.49-3-8.64-12.92-5.93-12.14,1.61-3.13,1.61-3.13c-6.08-3.42-11.14-24.55-11.14-24.55l-2.36-9.46,0-.13,0,.1-2.36,9.46s-5.06,21.14-11.14,24.56c0,0-1.1,3.91,1.61,3.13s-5.93,12.13-5.93,12.13-1.18,3.13,2.49,3-6.52,11.65-6.52,11.65-1,3.91,3.44,3c0,0-5.05,10.66-7.18,12.42,0,0-1.32,3.13,2.09,2.25s-8.32,13.4-8.32,13.4-.29,6.75,6,1.47c0,0,2.86-1.47,9.23,3.52,0,0,2.13,1.76,9.75-.88a14.54,14.54,0,0,0,4.9,2.88v34.2h3.3v-34.64a12.47,12.47,0,0,1,3.81-2,9.68,9.68,0,0,1,1.7-.37c7.62,2.64,9.75.88,9.75.88,6.37-5,9.23-3.52,9.23-3.52C1317.24,1500.76,1317,1494,1317,1494Z"/><path class="cls-11" d="M1161.29,1763.54s-19.39-23.63-13.76-22.17,3.46-3.72,3.46-3.72c-3.52-2.91-11.88-20.55-11.88-20.55,7.39,1.45,5.69-5,5.69-5s-16.84-19.42-10.78-19.26,4.12-5,4.12-5-14.3-21.37-9.81-20.07,2.66-5.18,2.66-5.18c-10.06-5.67-18.42-40.62-18.42-40.62l-3.91-15.66-.05-.2,0,.16-3.91,15.65s-8.36,35-18.42,40.62c0,0-1.82,6.48,2.66,5.18s-9.81,20.07-9.81,20.07-1.94,5.18,4.12,5-10.79,19.26-10.79,19.26-1.7,6.47,5.7,5c0,0-8.36,17.64-11.88,20.55,0,0-2.18,5.18,3.46,3.72s-13.76,22.17-13.76,22.17-.48,11.17,9.94,2.43c0,0,4.73-2.43,15.27,5.83,0,0,3.51,2.91,16.12-1.46,3.4,2.75,6,4.17,8.12,4.77v56.57h5.45v-57.31a20.64,20.64,0,0,1,6.3-3.37,17.45,17.45,0,0,1,2.82-.62c12.6,4.37,16.12,1.46,16.12,1.46,10.54-8.26,15.27-5.83,15.27-5.83C1161.77,1774.71,1161.29,1763.54,1161.29,1763.54Z"/><path class="cls-11" d="M974.14,1816.52s-30.89-37.64-21.91-35.31,5.5-5.94,5.5-5.94c-5.6-4.63-18.92-32.73-18.92-32.73,11.78,2.32,9.07-8,9.07-8s-26.83-30.94-17.18-30.67,6.57-8,6.57-8-22.78-34-15.63-32,4.24-8.25,4.24-8.25c-16-9-29.34-64.7-29.34-64.7L890.31,1566l-.08-.33-.06.27L884,1590.91s-13.33,55.68-29.35,64.69c0,0-2.89,10.32,4.25,8.26s-15.64,32-15.64,32-3.09,8.24,6.57,8-17.18,30.68-17.18,30.68-2.71,10.3,9.07,8c0,0-13.32,28.09-18.92,32.73,0,0-3.48,8.25,5.5,5.93s-21.91,35.31-21.91,35.31-.77,17.79,15.83,3.87c0,0,7.53-3.87,24.33,9.28,0,0,5.59,4.64,25.67-2.32,5.42,4.38,9.63,6.65,12.93,7.59V1925h8.69v-91.27a32.61,32.61,0,0,1,10-5.38,26.93,26.93,0,0,1,4.5-1c20.08,7,25.68,2.32,25.68,2.32,16.79-13.15,24.32-9.28,24.32-9.28C974.91,1834.3,974.14,1816.52,974.14,1816.52Z"/><path class="cls-11" d="M2525.6,1809.42s-23.7-28.87-16.81-27.09,4.22-4.55,4.22-4.55c-4.29-3.56-14.51-25.11-14.51-25.11,9,1.78,7-6.13,7-6.13s-20.58-23.73-13.18-23.53,5-6.12,5-6.12-17.48-26.11-12-24.52,3.26-6.33,3.26-6.33c-12.29-6.92-22.51-49.63-22.51-49.63l-4.77-19.12-.06-.25,0,.2-4.77,19.12s-10.22,42.71-22.52,49.63c0,0-2.21,7.91,3.26,6.33s-12,24.52-12,24.52-2.37,6.32,5,6.12-13.18,23.53-13.18,23.53-2.08,7.91,7,6.13c0,0-10.22,21.55-14.51,25.11,0,0-2.67,6.33,4.22,4.55s-16.81,27.09-16.81,27.09-.59,13.64,12.14,3c0,0,5.78-3,18.66,7.12,0,0,4.29,3.56,19.69-1.78,4.16,3.36,7.39,5.1,9.92,5.82v69.12H2464v-70a25.28,25.28,0,0,1,7.69-4.12,20.54,20.54,0,0,1,3.45-.76c15.4,5.34,19.7,1.78,19.7,1.78,12.88-10.08,18.66-7.12,18.66-7.12C2526.19,1823.06,2525.6,1809.42,2525.6,1809.42Z"/><path class="cls-11" d="M2140.21,1838.49s-19.19-23.39-13.61-22,3.42-3.68,3.42-3.68c-3.48-2.88-11.76-20.34-11.76-20.34,7.32,1.44,5.64-5,5.64-5s-16.67-19.22-10.68-19.06,4.08-5,4.08-5-14.15-21.14-9.71-19.86,2.64-5.13,2.64-5.13c-10-5.6-18.24-40.2-18.24-40.2l-3.86-15.49-.06-.21,0,.17-3.86,15.49s-8.28,34.6-18.24,40.2c0,0-1.79,6.41,2.64,5.13s-9.71,19.86-9.71,19.86-1.92,5.13,4.08,5-10.68,19.06-10.68,19.06-1.68,6.41,5.64,5c0,0-8.28,17.46-11.76,20.34,0,0-2.16,5.12,3.42,3.68s-13.61,22-13.61,22-.48,11,9.83,2.4c0,0,4.68-2.4,15.12,5.77,0,0,3.48,2.88,15.95-1.44,3.37,2.71,6,4.12,8,4.71v56h5.39v-56.71a20.31,20.31,0,0,1,6.23-3.34,16.07,16.07,0,0,1,2.8-.61c12.48,4.32,16,1.44,16,1.44,10.44-8.17,15.12-5.77,15.12-5.77C2140.69,1849.54,2140.21,1838.49,2140.21,1838.49Z"/><path class="cls-11" d="M2389.39,1748.45s-23.7-28.87-16.81-27.09,4.22-4.55,4.22-4.55c-4.3-3.56-14.51-25.11-14.51-25.11,9,1.78,7-6.13,7-6.13s-20.58-23.73-13.18-23.53,5-6.13,5-6.13-17.47-26.1-12-24.51,3.26-6.33,3.26-6.33c-12.29-6.92-22.51-49.63-22.51-49.63l-4.77-19.12-.07-.25,0,.2-4.78,19.12S2310,1618.1,2297.69,1625c0,0-2.21,7.91,3.26,6.32s-12,24.52-12,24.52-2.37,6.33,5,6.13-13.18,23.53-13.18,23.53-2.08,7.91,6.95,6.13c0,0-10.21,21.55-14.5,25.11,0,0-2.67,6.33,4.21,4.55s-16.8,27.09-16.8,27.09-.59,13.63,12.14,3c0,0,5.78-3,18.66,7.12,0,0,4.29,3.55,19.69-1.78,4.16,3.36,7.39,5.1,9.92,5.82v69.12h6.66v-70a24.85,24.85,0,0,1,7.69-4.12,20.54,20.54,0,0,1,3.45-.76c15.4,5.34,19.7,1.78,19.7,1.78,12.88-10.08,18.65-7.12,18.65-7.12C2390,1762.09,2389.39,1748.45,2389.39,1748.45Z"/><path d="M2677.29,1115.3a3,3,0,0,1-.21,1.4C2677.14,1116.24,2677.22,1115.78,2677.29,1115.3Z"/><ellipse class="cls-14" cx="394.86" cy="634.56" rx="209.48" ry="209.46"/><path class="cls-10" d="M228.8,304.94,224,280.22a1,1,0,0,0-.79-.81l-24.62-5.35a1,1,0,0,1,0-2l24.72-4.84a1,1,0,0,0,.81-.79l5.35-24.62a1,1,0,0,1,2,0l4.84,24.72a1,1,0,0,0,.8.82l24.61,5.34a1,1,0,0,1,0,2L237,279.55a1,1,0,0,0-.81.8L230.83,305A1,1,0,0,1,228.8,304.94Z"/><path class="cls-10" d="M972.8,385.07,968,360.34a1,1,0,0,0-.79-.81l-24.62-5.35a1,1,0,0,1,0-2l24.72-4.84a1,1,0,0,0,.82-.8l5.34-24.62a1,1,0,0,1,2,0l4.84,24.72a1,1,0,0,0,.8.81l24.62,5.35a1,1,0,0,1,0,2L981,359.67a1.05,1.05,0,0,0-.81.8l-5.35,24.62A1,1,0,0,1,972.8,385.07Z"/><path class="cls-10" d="M1812.27,231.53l-4.84-24.72a1,1,0,0,0-.79-.81L1782,200.65a1,1,0,0,1,0-2l24.72-4.84a1,1,0,0,0,.82-.79l5.34-24.62a1,1,0,0,1,2,0l4.84,24.72a1,1,0,0,0,.8.81l24.62,5.35a1,1,0,0,1,0,2l-24.72,4.84a1,1,0,0,0-.81.79l-5.35,24.62A1,1,0,0,1,1812.27,231.53Z"/><path class="cls-10" d="M822.07,722.6l-4.84-24.72a1,1,0,0,0-.79-.81l-24.62-5.35a1,1,0,0,1,0-2l24.72-4.84a1,1,0,0,0,.82-.79l5.34-24.62a1,1,0,0,1,2,0l4.84,24.72a1,1,0,0,0,.8.82L855,690.34a1,1,0,0,1,0,2l-24.73,4.84a1,1,0,0,0-.81.8l-5.35,24.61A1,1,0,0,1,822.07,722.6Z"/><path class="cls-10" d="M2658.68,690.2l-4.84-24.72a1.05,1.05,0,0,0-.8-.82l-24.62-5.34a1,1,0,0,1,0-2l24.73-4.84a1,1,0,0,0,.81-.8l5.35-24.62a1,1,0,0,1,2,0l4.84,24.72a1.05,1.05,0,0,0,.8.81l24.62,5.35a1,1,0,0,1,0,2l-24.73,4.84a1.05,1.05,0,0,0-.81.8l-5.35,24.62A1,1,0,0,1,2658.68,690.2Z"/><path class="cls-10" d="M2449.74,317l-4.84-24.72a1,1,0,0,0-.79-.81l-24.62-5.35a1,1,0,0,1,0-2l24.72-4.84a1,1,0,0,0,.82-.79l5.34-24.62a1,1,0,0,1,2,0l4.84,24.72a1,1,0,0,0,.8.82l24.62,5.34a1,1,0,0,1,0,2l-24.73,4.84a1,1,0,0,0-.81.8L2451.77,317A1,1,0,0,1,2449.74,317Z"/><path class="cls-10" d="M1109.21,343.08l-1.57-8.06a.35.35,0,0,0-.26-.26l-8-1.75a.34.34,0,0,1,0-.66l8.06-1.57a.33.33,0,0,0,.26-.26l1.75-8a.34.34,0,0,1,.66,0l1.58,8.06a.32.32,0,0,0,.25.26l8,1.74a.34.34,0,0,1,0,.67l-8.06,1.57a.35.35,0,0,0-.26.26l-1.74,8A.34.34,0,0,1,1109.21,343.08Z"/><path class="cls-10" d="M1678.37,618.45l-1.58-8.05a.32.32,0,0,0-.26-.27l-8-1.74a.34.34,0,0,1,0-.66l8.06-1.58a.35.35,0,0,0,.26-.26l1.74-8a.34.34,0,0,1,.66,0l1.58,8.06a.36.36,0,0,0,.26.27l8,1.74a.34.34,0,0,1,0,.66l-8.06,1.58a.32.32,0,0,0-.26.26l-1.75,8A.34.34,0,0,1,1678.37,618.45Z"/><path class="cls-10" d="M1819.66,503.53l-1.57-8.06a.36.36,0,0,0-.26-.27l-8-1.74a.34.34,0,0,1,0-.66l8.06-1.58a.32.32,0,0,0,.26-.26l1.75-8a.34.34,0,0,1,.66,0l1.58,8.06a.32.32,0,0,0,.25.27l8,1.74a.34.34,0,0,1,0,.66l-8.06,1.58a.35.35,0,0,0-.26.26l-1.74,8A.34.34,0,0,1,1819.66,503.53Z"/><path class="cls-10" d="M2701.05,862.1l-1.58-8.06a.33.33,0,0,0-.26-.27l-8-1.74a.34.34,0,0,1,0-.66l8.05-1.58a.33.33,0,0,0,.27-.26l1.74-8a.34.34,0,0,1,.66,0l1.58,8.06a.36.36,0,0,0,.26.27l8,1.74a.34.34,0,0,1,0,.66l-8.06,1.58a.36.36,0,0,0-.27.26l-1.74,8A.34.34,0,0,1,2701.05,862.1Z"/><path class="cls-10" d="M2318.62,761.49l-1.57-8a.34.34,0,0,0-.26-.27l-8-1.74a.34.34,0,0,1,0-.66l8.06-1.58a.35.35,0,0,0,.26-.26l1.75-8a.34.34,0,0,1,.66,0l1.57,8.06a.36.36,0,0,0,.26.27l8,1.74a.34.34,0,0,1,0,.66l-8.06,1.58a.33.33,0,0,0-.26.26l-1.75,8A.34.34,0,0,1,2318.62,761.49Z"/><path class="cls-10" d="M2676.86,438.57l-1.58-8.06a.33.33,0,0,0-.26-.27l-8-1.74a.34.34,0,0,1,0-.66l8-1.58a.33.33,0,0,0,.27-.26l1.74-8a.34.34,0,0,1,.66,0l1.58,8.06a.36.36,0,0,0,.26.27l8,1.74a.34.34,0,0,1,0,.66l-8.06,1.58a.32.32,0,0,0-.26.26l-1.75,8A.34.34,0,0,1,2676.86,438.57Z"/><path class="cls-10" d="M2363.18,531l-1.58-8.06a.35.35,0,0,0-.26-.26l-8-1.74a.34.34,0,0,1,0-.67l8.06-1.57a.36.36,0,0,0,.27-.26l1.74-8a.34.34,0,0,1,.66,0l1.58,8.06a.33.33,0,0,0,.26.26l8,1.75a.34.34,0,0,1,0,.66l-8.06,1.57a.34.34,0,0,0-.27.26l-1.74,8A.34.34,0,0,1,2363.18,531Z"/><path class="cls-10" d="M2728,119.55l-1.58-8.06a.35.35,0,0,0-.26-.26l-8-1.75a.34.34,0,0,1,0-.66l8.06-1.57a.36.36,0,0,0,.27-.26l1.74-8a.34.34,0,0,1,.66,0l1.58,8.06a.33.33,0,0,0,.26.26l8,1.75a.34.34,0,0,1,0,.66l-8.06,1.57a.34.34,0,0,0-.27.26l-1.74,8A.34.34,0,0,1,2728,119.55Z"/><path class="cls-10" d="M1914.74,531l-1.58-8.06a.35.35,0,0,0-.26-.26l-8-1.74a.34.34,0,0,1,0-.67l8.06-1.57a.36.36,0,0,0,.27-.26l1.74-8a.34.34,0,0,1,.66,0l1.58,8.06a.33.33,0,0,0,.26.26l8,1.75a.34.34,0,0,1,0,.66l-8.06,1.57a.34.34,0,0,0-.27.26l-1.74,8A.34.34,0,0,1,1914.74,531Z"/><path class="cls-10" d="M1385.81,379.73l-1.58-8.06a.33.33,0,0,0-.26-.26l-8-1.75a.34.34,0,0,1,0-.66l8-1.57a.34.34,0,0,0,.27-.26l1.74-8a.34.34,0,0,1,.66,0l1.58,8.06a.35.35,0,0,0,.26.26l8,1.74a.34.34,0,0,1,0,.67l-8.06,1.57a.36.36,0,0,0-.27.26l-1.74,8A.34.34,0,0,1,1385.81,379.73Z"/><path class="cls-10" d="M625.18,83.72l-1.58-8.06a.36.36,0,0,0-.26-.27l-8-1.74a.34.34,0,0,1,0-.66l8.06-1.58a.34.34,0,0,0,.27-.26l1.74-8a.34.34,0,0,1,.66,0l1.58,8.06a.34.34,0,0,0,.26.27l8,1.74a.34.34,0,0,1,0,.66l-8.06,1.58a.34.34,0,0,0-.27.26l-1.74,8A.34.34,0,0,1,625.18,83.72Z"/><path class="cls-10" d="M106.07,94.28l-1.57-8.06a.33.33,0,0,0-.26-.26l-8-1.75a.34.34,0,0,1,0-.66L104.28,82a.32.32,0,0,0,.26-.25l1.75-8a.34.34,0,0,1,.66,0l1.57,8.06a.35.35,0,0,0,.26.26l8,1.74a.34.34,0,0,1,0,.66L108.74,86a.35.35,0,0,0-.26.26l-1.75,8A.34.34,0,0,1,106.07,94.28Z"/><path class="cls-10" d="M530.46,262.54l-1.58-8.06a.34.34,0,0,0-.26-.27l-8-1.74a.34.34,0,0,1,0-.66l8.06-1.58a.36.36,0,0,0,.27-.26l1.74-8a.34.34,0,0,1,.66,0l1.58,8.06a.33.33,0,0,0,.26.27l8,1.74a.34.34,0,0,1,0,.66l-8,1.58a.33.33,0,0,0-.27.26l-1.74,8A.34.34,0,0,1,530.46,262.54Z"/><path class="cls-10" d="M1066.07,102.45l-1.58-8.06a.36.36,0,0,0-.26-.27l-8-1.74a.34.34,0,0,1,0-.66l8.06-1.58a.32.32,0,0,0,.26-.26l1.75-8a.34.34,0,0,1,.66,0l1.58,8.06a.32.32,0,0,0,.26.27l8,1.74a.34.34,0,0,1,0,.66l-8.06,1.58a.35.35,0,0,0-.26.26l-1.74,8A.34.34,0,0,1,1066.07,102.45Z"/><path class="cls-10" d="M773.24,231.66l-1.57-8.06a.36.36,0,0,0-.26-.27l-8-1.74a.34.34,0,0,1,0-.66l8.06-1.58a.33.33,0,0,0,.26-.26l1.75-8a.34.34,0,0,1,.66,0l1.57,8.06a.34.34,0,0,0,.26.27l8,1.74a.34.34,0,0,1,0,.66l-8.06,1.58a.35.35,0,0,0-.26.26l-1.74,8A.34.34,0,0,1,773.24,231.66Z"/><path class="cls-10" d="M1710.89,73.15l-1.58-8.06a.33.33,0,0,0-.26-.26l-8-1.74a.34.34,0,0,1,0-.66l8.06-1.58a.34.34,0,0,0,.27-.26l1.74-8a.34.34,0,0,1,.66,0l1.58,8.06a.33.33,0,0,0,.26.26l8,1.75a.34.34,0,0,1,0,.66l-8.06,1.58a.33.33,0,0,0-.27.26l-1.74,8A.34.34,0,0,1,1710.89,73.15Z"/><path class="cls-10" d="M1462.07,262.54l-1.57-8.06a.34.34,0,0,0-.26-.27l-8-1.74a.34.34,0,0,1,0-.66l8.06-1.58a.35.35,0,0,0,.26-.26l1.74-8a.34.34,0,0,1,.67,0l1.57,8.06a.36.36,0,0,0,.26.27l8,1.74a.34.34,0,0,1,0,.66l-8.06,1.58a.33.33,0,0,0-.26.26l-1.75,8A.34.34,0,0,1,1462.07,262.54Z"/><path class="cls-10" d="M2122.12,399.67l-1.58-8.06a.35.35,0,0,0-.26-.26l-8-1.74a.34.34,0,0,1,0-.66l8.06-1.58a.36.36,0,0,0,.27-.26l1.74-8a.34.34,0,0,1,.66,0l1.58,8.06a.32.32,0,0,0,.26.26l8,1.75a.34.34,0,0,1,0,.66l-8.06,1.58a.33.33,0,0,0-.27.26l-1.74,8A.34.34,0,0,1,2122.12,399.67Z"/><path class="cls-10" d="M2078.28,140.66l-1.58-8a.32.32,0,0,0-.26-.27l-8-1.74a.34.34,0,0,1,0-.66l8.06-1.58a.35.35,0,0,0,.26-.26l1.74-8a.34.34,0,0,1,.66,0l1.58,8.06a.36.36,0,0,0,.26.27l8,1.74a.34.34,0,0,1,0,.66l-8.06,1.58a.31.31,0,0,0-.26.26l-1.75,8A.34.34,0,0,1,2078.28,140.66Z"/><path class="cls-10" d="M1715.61,273.1,1714,265a.32.32,0,0,0-.26-.26l-8-1.75a.34.34,0,0,1,0-.66l8.06-1.58a.32.32,0,0,0,.27-.26l1.74-8a.34.34,0,0,1,.66,0l1.58,8.06a.35.35,0,0,0,.26.26l8,1.74a.34.34,0,0,1,0,.66l-8.06,1.58a.36.36,0,0,0-.27.26l-1.74,8A.34.34,0,0,1,1715.61,273.1Z"/><path class="cls-10" d="M1208.89,210.25l-1.58-8.06a.35.35,0,0,0-.26-.26l-8-1.75a.34.34,0,0,1,0-.66l8.06-1.57a.36.36,0,0,0,.27-.26l1.74-8a.34.34,0,0,1,.66,0l1.58,8.06a.33.33,0,0,0,.26.26l8,1.75a.34.34,0,0,1,0,.66l-8.06,1.57a.34.34,0,0,0-.27.26l-1.74,8A.34.34,0,0,1,1208.89,210.25Z"/><path class="cls-10" d="M760.17,475.8l-1.58-8.06a.32.32,0,0,0-.26-.26l-8-1.75a.34.34,0,0,1,0-.66l8-1.57a.34.34,0,0,0,.27-.26l1.74-8a.34.34,0,0,1,.66,0l1.58,8.06a.35.35,0,0,0,.26.26l8,1.75a.34.34,0,0,1,0,.66l-8.06,1.57a.33.33,0,0,0-.26.26l-1.75,8A.34.34,0,0,1,760.17,475.8Z"/><path class="cls-10" d="M572.44,893.59l-1.58-8.06a.32.32,0,0,0-.26-.26l-8-1.74a.34.34,0,0,1,0-.67l8.06-1.57a.35.35,0,0,0,.26-.26l1.74-8a.34.34,0,0,1,.66,0l1.58,8.06a.35.35,0,0,0,.26.26l8,1.75a.34.34,0,0,1,0,.66l-8.06,1.57a.33.33,0,0,0-.26.26l-1.75,8A.34.34,0,0,1,572.44,893.59Z"/><path class="cls-10" d="M334.34,986.4l-1.58-8.06a.34.34,0,0,0-.26-.27l-8-1.74a.34.34,0,0,1,0-.66l8.06-1.58a.36.36,0,0,0,.27-.26l1.74-8a.34.34,0,0,1,.66,0l1.58,8.06a.34.34,0,0,0,.26.27l8,1.74a.34.34,0,0,1,0,.66L337,978.12a.33.33,0,0,0-.27.26l-1.74,8A.34.34,0,0,1,334.34,986.4Z"/><path class="cls-10" d="M957.66,596.6l-1.57-8.06a.33.33,0,0,0-.26-.26l-8-1.75a.34.34,0,0,1,0-.66l8.06-1.58a.32.32,0,0,0,.26-.25l1.75-8a.34.34,0,0,1,.66,0l1.57,8.06a.35.35,0,0,0,.26.26l8,1.74a.34.34,0,0,1,0,.67l-8.06,1.57a.35.35,0,0,0-.26.26l-1.75,8A.34.34,0,0,1,957.66,596.6Z"/><path class="cls-10" d="M106.07,690.13l-1.57-8.06a.36.36,0,0,0-.26-.27l-8-1.74a.34.34,0,0,1,0-.66l8.06-1.58a.33.33,0,0,0,.26-.26l1.75-8a.34.34,0,0,1,.66,0l1.57,8.05a.34.34,0,0,0,.26.27l8,1.74a.34.34,0,0,1,0,.66l-8.06,1.58a.35.35,0,0,0-.26.26l-1.75,8A.34.34,0,0,1,106.07,690.13Z"/><path class="cls-10" d="M344.9,189.12l-1.58-8.05a.32.32,0,0,0-.26-.27l-8-1.74a.34.34,0,0,1,0-.66l8.05-1.58a.34.34,0,0,0,.27-.26l1.74-8a.34.34,0,0,1,.66,0l1.58,8.06a.36.36,0,0,0,.26.27l8,1.74a.34.34,0,0,1,0,.66l-8.06,1.58a.31.31,0,0,0-.26.26l-1.75,8A.34.34,0,0,1,344.9,189.12Z"/><path class="cls-10" d="M2567.38,241.42l-1.57-8.06a.36.36,0,0,0-.26-.27l-8-1.74a.34.34,0,0,1,0-.66l8.06-1.58a.33.33,0,0,0,.26-.26l1.75-8a.34.34,0,0,1,.66,0l1.57,8.06a.36.36,0,0,0,.26.27l8,1.74a.34.34,0,0,1,0,.66l-8.06,1.58a.33.33,0,0,0-.26.26l-1.75,8A.34.34,0,0,1,2567.38,241.42Z"/></g></g></g></svg>