<svg xmlns="http://www.w3.org/2000/svg" viewBox="0 0 835.22 564.7"><defs><style>.cls-1{fill:#1a1a1a;}.cls-2{fill:#fff;}.cls-3{fill:#b9fbff;}.cls-4{fill:#84e5ea;}</style></defs><g id="Layer_2" data-name="Layer 2"><g id="Layer_1-2" data-name="Layer 1"><path class="cls-1" d="M417.62,0c-1.68,0-3.34,0-5,.05V56.51c1.67,0,3.33-.1,5-.11v0h.08a225.79,225.79,0,0,1,213.13,151.9l6.44,18.59,19.66.36a124.24,124.24,0,1,1-66.72,230.25l-16.8-10.24L558,459.45a225.88,225.88,0,0,1-140.28,48.87c-1.7,0-3.39,0-5.09-.07v56.39c1.65,0,3.29.05,4.94.05,57.79,0,113.58-18.55,160.79-51.4,23.92,11.29,49.5,18.71,76.1,18.78h.08c99.46,0,180.69-81.23,180.69-180.69-.08-91.67-69.44-167.16-158.53-178.29C632.91,69.23,531.48.15,417.61,0h0Z"/><path class="cls-1" d="M417.62,0C303.76.14,202.33,69.2,158.54,173,69.43,184.17,0,259.69,0,351.39c0,99.46,81.23,180.68,180.69,180.69,26.71-.08,52.4-7.5,76.4-18.87C304.19,546,359.86,564.6,417.55,564.7c1.7,0,3.39,0,5.08-.05V508.27c-1.64,0-3.28.06-4.93.06a225.82,225.82,0,0,1-140.08-49l-15.45-12.25-16.81,10.3a124.22,124.22,0,1,1-67-230.2l19.65-.36,6.46-18.59A225.75,225.75,0,0,1,417.62,56.41v0h.08c1.65,0,3.29.06,4.94.1V.07c-1.68,0-3.36,0-5-.06h0Z"/><path class="cls-2" d="M417.65,28.2A254.17,254.17,0,0,0,177.85,199a152.46,152.46,0,1,0,82.23,282.43,253.52,253.52,0,0,0,315.42.11,152.37,152.37,0,1,0,82-282.5A254.16,254.16,0,0,0,417.65,28.2Z"/><path class="cls-3" d="M771.47,253.59A151.77,151.77,0,0,1,575.5,286a253.53,253.53,0,0,1-315.41-.1A152.16,152.16,0,0,1,63.83,253.79,152.27,152.27,0,0,0,260.09,481.44a253.51,253.51,0,0,0,315.41.11,152.32,152.32,0,0,0,196-228Z"/><path class="cls-4" d="M800.44,307.07a152,152,0,0,1-224.94,86,253.49,253.49,0,0,1-315.41-.1A152.23,152.23,0,0,1,34.87,307.49a152.2,152.2,0,0,0,225.22,174,253.51,253.51,0,0,0,315.41.11A152.25,152.25,0,0,0,800.44,307.07Z"/><path class="cls-1" d="M417.65,21.15c-1.68,0-3.37,0-5,.05V35.3c1.67,0,3.35,0,5-.06A247.09,247.09,0,0,1,650.77,201.36l1.6,4.64,4.92.1a145.38,145.38,0,1,1-78.15,269.43l-4.2-2.55-3.85,3a247.12,247.12,0,0,1-153.46,53.45c-1.68,0-3.36,0-5-.07v14.1c1.68,0,3.34.06,5,.06a261,261,0,0,0,158.58-54.08c23.92,13.63,50.77,21.39,78.36,21.45,88,0,159.54-71.5,159.54-159.53-.08-85.22-67.31-154.75-151.87-158.84A261.06,261.06,0,0,0,417.59,21.16Z"/><path class="cls-1" d="M417.64,21.15A261.06,261.06,0,0,0,173,192.51C88.44,196.61,21.19,266.17,21.15,351.4c0,88,71.51,159.54,159.54,159.54,27.69-.07,54.64-7.84,78.64-21.56a261,261,0,0,0,158.29,54.19q2.5,0,5-.06V529.42c-1.66,0-3.32.06-5,.06a247.11,247.11,0,0,1-153.19-53.56l-3.86-3.05-4.2,2.57A145.36,145.36,0,1,1,178,206.06l4.92-.1,1.61-4.64A247.08,247.08,0,0,1,417.63,35.24c1.67,0,3.33,0,5,.06V21.21c-1.68,0-3.35-.05-5-.05Z"/></g></g></svg>