<svg xmlns="http://www.w3.org/2000/svg" viewBox="0 0 1560.59 1247.32"><defs><style>.cls-1{fill:#fff;}.cls-2{fill:#be78d1;}.cls-3{fill:#1a1a1a;}.cls-4{fill:#b3d464;}.cls-5{fill:#e0edb4;}.cls-6{fill:#e4a9f6;}.cls-7{fill:#f3caff;}.cls-8{fill:#da98e5;}.cls-9{fill:#9552af;}.cls-10{fill:#ba6bd0;}.cls-11{fill:#b9dae9;}</style></defs><g id="Layer_2" data-name="Layer 2"><g id="Layer_1-2" data-name="Layer 1"><path class="cls-1" d="M890.64,881.07c.09.21.19.43.3.63s.07.13.1.19c.13.21.26.41.4.6s.25.4.38.59.29.37.44.56a6,6,0,0,0,.39.49.25.25,0,0,0,0,.09l.17.15c.22.23.44.46.68.68s.34.32.51.47l.54.46c.19.14.37.28.57.41l.57.4.6.35c.21.12.41.24.62.34s.42.21.63.3.43.19.65.27l.66.23.67.21.69.17.69.13.69.1.7.07.7,0h.7l.71,0,.69-.07.7-.11.67-.14.69-.18.67-.22c.22-.06.45-.13.67-.21l.62-.31.25-.11.62-.3.2-.11c.2-.12.39-.25.58-.38l.59-.39L912,886l.51-.39.09,0a2.09,2.09,0,0,1,.14-.17c.24-.22.47-.45.69-.68s.32-.34.48-.52l.45-.53c.14-.18.28-.37.41-.56s.27-.38.4-.58.25-.4.37-.6.23-.41.33-.61.21-.42.3-.64l.27-.65c.08-.21.16-.43.23-.66s.14-.44.21-.67.12-.45.17-.68.09-.46.13-.69.07-.46.1-.69,0-.47.07-.7,0-.47,0-.7,0-.47,0-.71,0-.46,0-.69,0-.47-.07-.7l-.12-.7c0-.23-.09-.46-.14-.69s-.11-.45-.18-.67-.13-.45-.2-.67-.14-.45-.22-.67-.2-.42-.31-.63-.07-.16-.11-.25-.19-.42-.3-.63l-.1-.19-.4-.6c-.12-.2-.25-.39-.38-.58s-.28-.37-.43-.55l-.39-.51,0-.08-.18-.15a9,9,0,0,0-.68-.7l-.52-.47a5.85,5.85,0,0,0-.54-.45c-.18-.15-.37-.28-.56-.42l-.57-.39-.61-.37c-.2-.12-.41-.23-.62-.33s-.42-.21-.63-.3-.42-.19-.64-.27l-.66-.24-.66-.2c-.23-.07-.46-.12-.69-.17s-.45-.1-.68-.14-.47-.08-.7-.1l-.7-.07-.7,0h-.7l-.69,0-.71.07-.68.11-.69.14-.69.18-.66.21-.68.22-.62.31-.24.11-.64.31-.19.1-.6.39c-.2.12-.39.25-.58.39s-.38.28-.56.43l-.51.39-.08,0-.15.18c-.24.21-.46.44-.69.68s-.32.34-.47.52a5.72,5.72,0,0,0-.45.53c-.15.18-.29.37-.42.56l-.4.57c-.12.2-.24.4-.35.6s-.23.41-.34.62l-.3.63c-.09.22-.19.44-.27.65s-.16.45-.23.67-.15.44-.21.67-.11.45-.16.68-.1.46-.14.69-.06.47-.09.7,0,.46-.07.7,0,.46,0,.7,0,.47,0,.7,0,.47,0,.7,0,.47.07.69.07.47.12.7.08.46.13.69.12.45.18.67l.21.68c.07.22.14.44.22.66s.2.43.31.64a2.29,2.29,0,0,0,.1.23Z"/><path class="cls-1" d="M890.64,881.07c.09.21.19.43.3.63s.07.13.1.19c.13.21.26.41.4.6s.25.4.38.59.29.37.44.56a6,6,0,0,0,.39.49.25.25,0,0,0,0,.09l.17.15c.22.23.44.46.68.68s.34.32.51.47l.54.46c.19.14.37.28.57.41l.57.4.6.35c.21.12.41.24.62.34s.42.21.63.3.43.19.65.27l.66.23.67.21.69.17.69.13.69.1.7.07.7,0h.7l.71,0,.69-.07.7-.11.67-.14.69-.18.67-.22c.22-.06.45-.13.67-.21l.62-.31.25-.11.62-.3.2-.11c.2-.12.39-.25.58-.38s.41-.26.6-.4.38-.28.56-.43l.5-.39.09,0a2.09,2.09,0,0,1,.14-.17c.24-.22.47-.45.69-.68s.32-.34.48-.52l.45-.53c.14-.18.28-.37.41-.56s.27-.38.4-.58.25-.4.37-.6.23-.41.33-.61.21-.42.3-.64l.27-.65c.08-.21.16-.43.23-.66s.14-.44.21-.67.12-.45.17-.68.09-.46.13-.69.07-.46.1-.69,0-.47.07-.7,0-.47,0-.7,0-.47,0-.71,0-.46,0-.69,0-.47-.07-.7l-.12-.7q-.06-.35-.15-.69c-.05-.22-.11-.45-.18-.67s-.13-.45-.2-.67-.14-.44-.22-.66-.2-.43-.31-.63a1.89,1.89,0,0,0-.11-.25c-.1-.21-.2-.42-.31-.63l-.1-.19c-.12-.2-.26-.41-.39-.6s-.25-.4-.38-.58l-.44-.55c-.12-.18-.26-.35-.39-.51l0-.09-.17-.14c-.22-.24-.45-.48-.68-.7l-.52-.47-.54-.45-.57-.42-.57-.4-.6-.36c-.21-.12-.41-.23-.62-.33l-.63-.3c-.21-.1-.43-.19-.65-.27a6.42,6.42,0,0,0-.66-.24l-.66-.21-.68-.16c-.23-.06-.46-.1-.69-.14s-.47-.08-.69-.1l-.7-.07c-.24,0-.48,0-.71,0h-.7l-.69,0-.7.07-.69.11-.69.14c-.23.05-.46.12-.68.18s-.45.13-.67.21l-.67.22-.63.3-.24.12-.64.31-.19.1c-.21.12-.41.26-.6.39s-.4.25-.59.39l-.56.43-.49.39-.09,0-.14.18c-.24.21-.47.44-.7.67l-.47.52c-.15.18-.31.35-.45.53s-.28.37-.41.57-.28.38-.4.57-.25.4-.36.6-.23.41-.34.62-.2.42-.29.63-.19.43-.28.65-.16.44-.23.67-.15.44-.21.67-.11.45-.16.68-.1.46-.14.69-.07.47-.1.7-.05.47-.07.7,0,.47,0,.7,0,.47,0,.71,0,.46,0,.69l.06.7.12.69c0,.23.08.46.14.69s.11.45.17.67.14.46.22.68.14.45.21.66.2.43.31.64l.11.23Z"/><path class="cls-1" d="M890.64,881.07c.09.21.19.43.3.63s.07.13.1.19c.13.21.26.41.4.6s.25.4.38.59.29.37.44.56a6,6,0,0,0,.39.49.25.25,0,0,0,0,.09l.17.15c.22.23.44.46.68.68s.34.32.51.47l.54.46c.19.14.37.28.57.41l.57.4.6.35c.21.12.41.24.62.34s.42.21.63.3.43.19.65.27l.66.23.67.21.69.17.69.13.69.1.7.07.7,0h.7l.71,0,.69-.07.7-.11.67-.14.69-.18.67-.22c.22-.06.45-.13.67-.21l.62-.31.25-.11.62-.3.2-.11c.2-.12.39-.25.58-.38s.41-.26.6-.4.38-.28.56-.43l.5-.39.09,0a2.09,2.09,0,0,1,.14-.17c.24-.22.47-.45.69-.68s.32-.34.48-.52l.45-.53c.14-.18.28-.37.41-.56s.27-.38.4-.58.25-.4.37-.6.23-.41.33-.61.21-.42.3-.64l.27-.65c.08-.21.16-.43.23-.66s.14-.44.21-.67.12-.45.17-.68.09-.46.13-.69.07-.46.1-.69,0-.47.07-.7,0-.47,0-.7,0-.47,0-.71,0-.46,0-.69,0-.47-.07-.7l-.12-.7q-.06-.35-.15-.69c-.05-.22-.11-.45-.18-.67s-.13-.45-.2-.67-.14-.44-.22-.66-.2-.43-.31-.63a1.89,1.89,0,0,0-.11-.25c-.1-.21-.2-.42-.31-.63l-.1-.19c-.12-.2-.26-.41-.39-.6s-.25-.4-.38-.58l-.44-.55c-.12-.18-.26-.35-.39-.51l0-.09-.17-.14c-.22-.24-.45-.48-.68-.7l-.52-.47-.54-.45-.57-.42-.57-.4-.6-.36c-.21-.12-.41-.23-.62-.33l-.63-.3c-.21-.1-.43-.19-.65-.27a6.42,6.42,0,0,0-.66-.24l-.66-.21-.68-.16c-.23-.06-.46-.1-.69-.14s-.47-.08-.69-.1l-.7-.07c-.24,0-.48,0-.71,0h-.7l-.69,0-.7.07-.69.11-.69.14c-.23.05-.46.12-.68.18s-.45.13-.67.21l-.67.22-.63.3-.24.12-.64.31-.19.1c-.21.12-.41.26-.6.39s-.4.25-.59.39l-.56.43-.49.39-.09,0-.14.18c-.24.21-.47.44-.7.67l-.47.52c-.15.18-.31.35-.45.53s-.28.37-.41.57-.28.38-.4.57-.25.4-.36.6-.23.41-.34.62-.2.42-.29.63-.19.43-.28.65-.16.44-.23.67-.15.44-.21.67-.11.45-.16.68-.1.46-.14.69-.07.47-.1.7-.05.47-.07.7,0,.47,0,.7,0,.47,0,.71,0,.46,0,.69l.06.7.12.69c0,.23.08.46.14.69s.11.45.17.67.14.46.22.68.14.45.21.66.2.43.31.64l.11.23Z"/><path class="cls-1" d="M890.64,881.07c.09.21.19.43.3.63s.07.13.1.19c.13.21.26.41.4.6s.25.4.38.59.29.37.44.56a6,6,0,0,0,.39.49.25.25,0,0,0,0,.09l.17.15c.22.23.44.46.68.68s.34.32.51.47l.54.46c.19.14.37.28.57.41l.57.4.6.35c.21.12.41.24.62.34s.42.21.63.3.43.19.65.27l.66.23.67.21.69.17.69.13.69.1.7.07.7,0h.7l.71,0,.69-.07.7-.11.67-.14.69-.18.67-.22c.22-.06.45-.13.67-.21l.62-.31.25-.11.62-.3.2-.11c.2-.12.39-.25.58-.38s.41-.26.6-.4.38-.28.56-.43l.5-.39.09,0a2.09,2.09,0,0,1,.14-.17c.24-.22.47-.45.69-.68s.32-.34.48-.52l.45-.53c.14-.18.28-.37.41-.56s.27-.38.4-.58.25-.4.37-.6.23-.41.33-.61.21-.42.3-.64l.27-.65c.08-.21.16-.43.23-.66s.14-.44.21-.67.12-.45.17-.68.09-.46.13-.69.07-.46.1-.69,0-.47.07-.7,0-.47,0-.7,0-.47,0-.71,0-.46,0-.69,0-.47-.07-.7l-.12-.7q-.06-.35-.15-.69c-.05-.22-.11-.45-.18-.67s-.13-.45-.2-.67-.14-.44-.22-.66-.2-.43-.31-.63a1.89,1.89,0,0,0-.11-.25c-.1-.21-.2-.42-.31-.63l-.1-.19c-.12-.2-.26-.41-.39-.6s-.25-.4-.38-.58l-.44-.55c-.12-.18-.26-.35-.39-.51l0-.09-.17-.14c-.22-.24-.45-.48-.68-.7l-.52-.47-.54-.45-.57-.42-.57-.4-.6-.36c-.21-.12-.41-.23-.62-.33l-.63-.3c-.21-.1-.43-.19-.65-.27a6.42,6.42,0,0,0-.66-.24l-.66-.21-.68-.16c-.23-.06-.46-.1-.69-.14s-.47-.08-.69-.1l-.7-.07c-.24,0-.48,0-.71,0h-.7l-.69,0-.7.07-.69.11-.69.14c-.23.05-.46.12-.68.18s-.45.13-.67.21l-.67.22-.63.3-.24.12-.64.31-.19.1c-.21.12-.41.26-.6.39s-.4.25-.59.39l-.56.43-.49.39-.09,0-.14.18c-.24.21-.47.44-.7.67l-.47.52c-.15.18-.31.35-.45.53s-.28.37-.41.57-.28.38-.4.57-.25.4-.36.6-.23.41-.34.62-.2.42-.29.63-.19.43-.28.65-.16.44-.23.67-.15.44-.21.67-.11.45-.16.68-.1.46-.14.69-.07.47-.1.7-.05.47-.07.7,0,.47,0,.7,0,.47,0,.71,0,.46,0,.69l.06.7.12.69c0,.23.08.46.14.69s.11.45.17.67.14.46.22.68.14.45.21.66.2.43.31.64l.11.23Z"/><path class="cls-1" d="M890.64,881.07c.09.21.19.43.3.63s.07.13.1.19c.13.21.26.41.4.6s.25.4.38.59.29.37.44.56a6,6,0,0,0,.39.49.25.25,0,0,0,0,.09l.17.15c.22.23.44.46.68.68s.34.32.51.47l.54.46c.19.14.37.28.57.41l.57.4.6.35c.21.12.41.24.62.34s.42.21.63.3.43.19.65.27l.66.23.67.21.69.17.69.13.69.1.7.07.7,0h.7l.71,0,.69-.07.7-.11.67-.14.69-.18.67-.22c.22-.06.45-.13.67-.21l.62-.31.25-.11.62-.3.2-.11c.2-.12.39-.25.58-.38s.41-.26.6-.4.38-.28.56-.43l.5-.39.09,0a2.09,2.09,0,0,1,.14-.17c.24-.22.47-.45.69-.68s.32-.34.48-.52l.45-.53c.14-.18.28-.37.41-.56s.27-.38.4-.58.25-.4.37-.6.23-.41.33-.61.21-.42.3-.64l.27-.65c.08-.21.16-.43.23-.66s.14-.44.21-.67.12-.45.17-.68.09-.46.13-.69.07-.46.1-.69,0-.47.07-.7,0-.47,0-.7,0-.47,0-.71,0-.46,0-.69,0-.47-.07-.7l-.12-.7q-.06-.35-.15-.69c-.05-.22-.11-.45-.18-.67s-.13-.45-.2-.67-.14-.44-.22-.66-.2-.43-.31-.63a1.89,1.89,0,0,0-.11-.25c-.1-.21-.2-.42-.31-.63l-.1-.19c-.12-.2-.26-.41-.39-.6s-.25-.4-.38-.58l-.44-.55c-.12-.18-.26-.35-.39-.51l0-.09-.17-.14c-.22-.24-.45-.48-.68-.7l-.52-.47-.54-.45-.57-.42-.57-.4-.6-.36c-.21-.12-.41-.23-.62-.33l-.63-.3c-.21-.1-.43-.19-.65-.27a6.42,6.42,0,0,0-.66-.24l-.66-.21-.68-.16c-.23-.06-.46-.1-.69-.14s-.47-.08-.69-.1l-.7-.07c-.24,0-.48,0-.71,0h-.7l-.69,0-.7.07-.69.11-.69.14c-.23.05-.46.12-.68.18s-.45.13-.67.21l-.67.22-.63.3-.24.12-.64.31-.19.1c-.21.12-.41.26-.6.39s-.4.25-.59.39l-.56.43-.49.39-.09,0-.14.18c-.24.21-.47.44-.7.67l-.47.52c-.15.18-.31.35-.45.53s-.28.37-.41.57-.28.38-.4.57-.25.4-.36.6-.23.41-.34.62-.2.42-.29.63-.19.43-.28.65-.16.44-.23.67-.15.44-.21.67-.11.45-.16.68-.1.46-.14.69-.07.47-.1.7-.05.47-.07.7,0,.47,0,.7,0,.47,0,.71,0,.46,0,.69l.06.7.12.69c0,.23.08.46.14.69s.11.45.17.67.14.46.22.68.14.45.21.66.2.43.31.64l.11.23Z"/><path class="cls-1" d="M890.64,881.07c.09.21.19.43.3.63s.07.13.1.19c.13.21.26.41.4.6s.25.4.38.59.29.37.44.56a6,6,0,0,0,.39.49.25.25,0,0,0,0,.09l.17.15c.22.23.44.46.68.68s.34.32.51.47l.54.46c.19.14.37.28.57.41l.57.4.6.35c.21.12.41.24.62.34s.42.21.63.3.43.19.65.27l.66.23.67.21.69.17.69.13.69.1.7.07.7,0h.7l.71,0,.69-.07.7-.11.67-.14.69-.18.67-.22c.22-.06.45-.13.67-.21l.62-.31.25-.11.62-.3.2-.11c.2-.12.39-.25.58-.38s.41-.26.6-.4.38-.28.56-.43l.5-.39.09,0a2.09,2.09,0,0,1,.14-.17c.24-.22.47-.45.69-.68s.32-.34.48-.52l.45-.53c.14-.18.28-.37.41-.56s.27-.38.4-.58.25-.4.37-.6.23-.41.33-.61.21-.42.3-.64l.27-.65c.08-.21.16-.43.23-.66s.14-.44.21-.67.12-.45.17-.68.09-.46.13-.69.07-.46.1-.69,0-.47.07-.7,0-.47,0-.7,0-.47,0-.71,0-.46,0-.69,0-.47-.07-.7l-.12-.7q-.06-.35-.15-.69c-.05-.22-.11-.45-.18-.67s-.13-.45-.2-.67-.14-.44-.22-.66-.2-.43-.31-.63a1.89,1.89,0,0,0-.11-.25c-.1-.21-.2-.42-.31-.63l-.1-.19c-.12-.2-.26-.41-.39-.6s-.25-.4-.38-.58l-.44-.55c-.12-.18-.26-.35-.39-.51l0-.09-.17-.14c-.22-.24-.45-.48-.68-.7l-.52-.47-.54-.45-.57-.42-.57-.4-.6-.36c-.21-.12-.41-.23-.62-.33l-.63-.3c-.21-.1-.43-.19-.65-.27a6.42,6.42,0,0,0-.66-.24l-.66-.21-.68-.16c-.23-.06-.46-.1-.69-.14s-.47-.08-.69-.1l-.7-.07c-.24,0-.48,0-.71,0h-.7l-.69,0-.7.07-.69.11-.69.14c-.23.05-.46.12-.68.18s-.45.13-.67.21l-.67.22-.63.3-.24.12-.64.31-.19.1c-.21.12-.41.26-.6.39s-.4.25-.59.39l-.56.43-.49.39-.09,0-.14.18c-.24.21-.47.44-.7.67l-.47.52c-.15.18-.31.35-.45.53s-.28.37-.41.57-.28.38-.4.57-.25.4-.36.6-.23.41-.34.62-.2.42-.29.63-.19.43-.28.65-.16.44-.23.67-.15.44-.21.67-.11.45-.16.68-.1.46-.14.69-.07.47-.1.7-.05.47-.07.7,0,.47,0,.7,0,.47,0,.71,0,.46,0,.69l.06.7.12.69c0,.23.08.46.14.69s.11.45.17.67.14.46.22.68.14.45.21.66.2.43.31.64l.11.23Z"/><path class="cls-1" d="M890.64,881.07c.09.21.19.43.3.63s.07.13.1.19c.13.21.26.41.4.6s.25.4.38.59.29.37.44.56a6,6,0,0,0,.39.49.25.25,0,0,0,0,.09l.17.15c.22.23.44.46.68.68s.34.32.51.47l.54.46c.19.14.37.28.57.41l.57.4.6.35c.21.12.41.24.62.34s.42.21.63.3.43.19.65.27l.66.23.67.21.69.17.69.13.69.1.7.07.7,0h.7l.71,0,.69-.07.7-.11.67-.14.69-.18.67-.22c.22-.06.45-.13.67-.21l.62-.31.25-.11.62-.3.2-.11c.2-.12.39-.25.58-.38s.41-.26.6-.4.38-.28.56-.43l.5-.39.09,0a2.09,2.09,0,0,1,.14-.17c.24-.22.47-.45.69-.68s.32-.34.48-.52l.45-.53c.14-.18.28-.37.41-.56s.27-.38.4-.58.25-.4.37-.6.23-.41.33-.61.21-.42.3-.64l.27-.65c.08-.21.16-.43.23-.66s.14-.44.21-.67.12-.45.17-.68.09-.46.13-.69.07-.46.1-.69,0-.47.07-.7,0-.47,0-.7,0-.47,0-.71,0-.46,0-.69,0-.47-.07-.7l-.12-.7q-.06-.35-.15-.69c-.05-.22-.11-.45-.18-.67s-.13-.45-.2-.67-.14-.44-.22-.66-.2-.43-.31-.63a1.89,1.89,0,0,0-.11-.25c-.1-.21-.2-.42-.31-.63l-.1-.19c-.12-.2-.26-.41-.39-.6s-.25-.4-.38-.58l-.44-.55c-.12-.18-.26-.35-.39-.51l0-.09-.17-.14c-.22-.24-.45-.48-.68-.7l-.52-.47-.54-.45-.57-.42-.57-.4-.6-.36c-.21-.12-.41-.23-.62-.33l-.63-.3c-.21-.1-.43-.19-.65-.27a6.42,6.42,0,0,0-.66-.24l-.66-.21-.68-.16c-.23-.06-.46-.1-.69-.14s-.47-.08-.69-.1l-.7-.07c-.24,0-.48,0-.71,0h-.7l-.69,0-.7.07-.69.11-.69.14c-.23.05-.46.12-.68.18s-.45.13-.67.21l-.67.22-.63.3-.24.12-.64.31-.19.1c-.21.12-.41.26-.6.39s-.4.25-.59.39l-.56.43-.49.39-.09,0-.14.18c-.24.21-.47.44-.7.67l-.47.52c-.15.18-.31.35-.45.53s-.28.37-.41.57-.28.38-.4.57-.25.4-.36.6-.23.41-.34.62-.2.42-.29.63-.19.43-.28.65-.16.44-.23.67-.15.44-.21.67-.11.45-.16.68-.1.46-.14.69-.07.47-.1.7-.05.47-.07.7,0,.47,0,.7,0,.47,0,.71,0,.46,0,.69l.06.7.12.69c0,.23.08.46.14.69s.11.45.17.67.14.46.22.68.14.45.21.66.2.43.31.64l.11.23Z"/><path class="cls-1" d="M890.64,881.07c.09.21.19.43.3.63s.07.13.1.19c.13.21.26.41.4.6s.25.4.38.59.29.37.44.56a6,6,0,0,0,.39.49.25.25,0,0,0,0,.09l.17.15c.22.23.44.46.68.68s.34.32.51.47l.54.46c.19.14.37.28.57.41l.57.4.6.35c.21.12.41.24.62.34s.42.21.63.3.43.19.65.27l.66.23.67.21.69.17.69.13.69.1.7.07.7,0h.7l.71,0,.69-.07.7-.11.67-.14.69-.18.67-.22c.22-.06.45-.13.67-.21l.62-.31.25-.11.62-.3.2-.11c.2-.12.39-.25.58-.38s.41-.26.6-.4.38-.28.56-.43l.5-.39.09,0a2.09,2.09,0,0,1,.14-.17c.24-.22.47-.45.69-.68s.32-.34.48-.52l.45-.53c.14-.18.28-.37.41-.56s.27-.38.4-.58.25-.4.37-.6.23-.41.33-.61.21-.42.3-.64l.27-.65c.08-.21.16-.43.23-.66s.14-.44.21-.67.12-.45.17-.68.09-.46.13-.69.07-.46.1-.69,0-.47.07-.7,0-.47,0-.7,0-.47,0-.71,0-.46,0-.69,0-.47-.07-.7l-.12-.7q-.06-.35-.15-.69c-.05-.22-.11-.45-.18-.67s-.13-.45-.2-.67-.14-.44-.22-.66-.2-.43-.31-.63a1.89,1.89,0,0,0-.11-.25c-.1-.21-.2-.42-.31-.63l-.1-.19c-.12-.2-.26-.41-.39-.6s-.25-.4-.38-.58l-.44-.55c-.12-.18-.26-.35-.39-.51l0-.09-.17-.14c-.22-.24-.45-.48-.68-.7l-.52-.47-.54-.45-.57-.42-.57-.4-.6-.36c-.21-.12-.41-.23-.62-.33l-.63-.3c-.21-.1-.43-.19-.65-.27a6.42,6.42,0,0,0-.66-.24l-.66-.21-.68-.16c-.23-.06-.46-.1-.69-.14s-.47-.08-.69-.1l-.7-.07c-.24,0-.48,0-.71,0h-.7l-.69,0-.7.07-.69.11-.69.14c-.23.05-.46.12-.68.18s-.45.13-.67.21l-.67.22-.63.3-.24.12-.64.31-.19.1c-.21.12-.41.26-.6.39s-.4.25-.59.39l-.56.43-.49.39-.09,0-.14.18c-.24.21-.47.44-.7.67l-.47.52c-.15.18-.31.35-.45.53s-.28.37-.41.57-.28.38-.4.57-.25.4-.36.6-.23.41-.34.62-.2.42-.29.63-.19.43-.28.65-.16.44-.23.67-.15.44-.21.67-.11.45-.16.68-.1.46-.14.69-.07.47-.1.7-.05.47-.07.7,0,.47,0,.7,0,.47,0,.71,0,.46,0,.69l.06.7.12.69c0,.23.08.46.14.69s.11.45.17.67.14.46.22.68.14.45.21.66.2.43.31.64l.11.23Z"/><path class="cls-1" d="M890.64,881.07c.09.21.19.43.3.63s.07.13.1.19c.13.21.26.41.4.6s.25.4.38.59.29.37.44.56a6,6,0,0,0,.39.49.25.25,0,0,0,0,.09l.17.15c.22.23.44.46.68.68s.34.32.51.47l.54.46c.19.14.37.28.57.41l.57.4.6.35c.21.12.41.24.62.34s.42.21.63.3.43.19.65.27l.66.23.67.21.69.17.69.13.69.1.7.07.7,0h.7l.71,0,.69-.07.7-.11.67-.14.69-.18.67-.22c.22-.06.45-.13.67-.21l.62-.31.25-.11.62-.3.2-.11c.2-.12.39-.25.58-.38s.41-.26.6-.4.38-.28.56-.43l.5-.39.09,0a2.09,2.09,0,0,1,.14-.17c.24-.22.47-.45.69-.68s.32-.34.48-.52l.45-.53c.14-.18.28-.37.41-.56s.27-.38.4-.58.25-.4.37-.6.23-.41.33-.61.21-.42.3-.64l.27-.65c.08-.21.16-.43.23-.66s.14-.44.21-.67.12-.45.17-.68.09-.46.13-.69.07-.46.1-.69,0-.47.07-.7,0-.47,0-.7,0-.47,0-.71,0-.46,0-.69,0-.47-.07-.7l-.12-.7q-.06-.35-.15-.69c-.05-.22-.11-.45-.18-.67s-.13-.45-.2-.67-.14-.44-.22-.66-.2-.43-.31-.63a1.89,1.89,0,0,0-.11-.25c-.1-.21-.2-.42-.31-.63l-.1-.19c-.12-.2-.26-.41-.39-.6s-.25-.4-.38-.58l-.44-.55c-.12-.18-.26-.35-.39-.51l0-.09-.17-.14c-.22-.24-.45-.48-.68-.7l-.52-.47-.54-.45-.57-.42-.57-.4-.6-.36c-.21-.12-.41-.23-.62-.33l-.63-.3c-.21-.1-.43-.19-.65-.27a6.42,6.42,0,0,0-.66-.24l-.66-.21-.68-.16c-.23-.06-.46-.1-.69-.14s-.47-.08-.69-.1l-.7-.07c-.24,0-.48,0-.71,0h-.7l-.69,0-.7.07-.69.11-.69.14c-.23.05-.46.12-.68.18s-.45.13-.67.21l-.67.22-.63.3-.24.12-.64.31-.19.1c-.21.12-.41.26-.6.39s-.4.25-.59.39l-.56.43-.49.39-.09,0-.14.18c-.24.21-.47.44-.7.67l-.47.52c-.15.18-.31.35-.45.53s-.28.37-.41.57-.28.38-.4.57-.25.4-.36.6-.23.41-.34.62-.2.42-.29.63-.19.43-.28.65-.16.44-.23.67-.15.44-.21.67-.11.45-.16.68-.1.46-.14.69-.07.47-.1.7-.05.47-.07.7,0,.47,0,.7,0,.47,0,.71,0,.46,0,.69l.06.7.12.69c0,.23.08.46.14.69s.11.45.17.67.14.46.22.68.14.45.21.66.2.43.31.64l.11.23Z"/><path class="cls-1" d="M890.64,881.07c.09.21.19.43.3.63s.07.13.1.19c.13.21.26.41.4.6s.25.4.38.59.29.37.44.56a6,6,0,0,0,.39.49.25.25,0,0,0,0,.09l.17.15c.22.23.44.46.68.68s.34.32.51.47l.54.46c.19.14.37.28.57.41l.57.4.6.35c.21.12.41.24.62.34s.42.21.63.3.43.19.65.27l.66.23.67.21.69.17.69.13.69.1.7.07.7,0h.7l.71,0,.69-.07.7-.11.67-.14.69-.18.67-.22c.22-.06.45-.13.67-.21l.62-.31.25-.11.62-.3.2-.11c.2-.12.39-.25.58-.38s.41-.26.6-.4.38-.28.56-.43l.5-.39.09,0a2.09,2.09,0,0,1,.14-.17c.24-.22.47-.45.69-.68s.32-.34.48-.52l.45-.53c.14-.18.28-.37.41-.56s.27-.38.4-.58.25-.4.37-.6.23-.41.33-.61.21-.42.3-.64l.27-.65c.08-.21.16-.43.23-.66s.14-.44.21-.67.12-.45.17-.68.09-.46.13-.69.07-.46.1-.69,0-.47.07-.7,0-.47,0-.7,0-.47,0-.71,0-.46,0-.69,0-.47-.07-.7l-.12-.7q-.06-.35-.15-.69c-.05-.22-.11-.45-.18-.67s-.13-.45-.2-.67-.14-.44-.22-.66-.2-.43-.31-.63a1.89,1.89,0,0,0-.11-.25c-.1-.21-.2-.42-.31-.63l-.1-.19c-.12-.2-.26-.41-.39-.6s-.25-.4-.38-.58l-.44-.55c-.12-.18-.26-.35-.39-.51l0-.09-.17-.14c-.22-.24-.45-.48-.68-.7l-.52-.47-.54-.45-.57-.42-.57-.4-.6-.36c-.21-.12-.41-.23-.62-.33l-.63-.3c-.21-.1-.43-.19-.65-.27a6.42,6.42,0,0,0-.66-.24l-.66-.21-.68-.16c-.23-.06-.46-.1-.69-.14s-.47-.08-.69-.1l-.7-.07c-.24,0-.48,0-.71,0h-.7l-.69,0-.7.07-.69.11-.69.14c-.23.05-.46.12-.68.18s-.45.13-.67.21l-.67.22-.63.3-.24.12-.64.31-.19.1c-.21.12-.41.26-.6.39s-.4.25-.59.39l-.56.43-.49.39-.09,0-.14.18c-.24.21-.47.44-.7.67l-.47.52c-.15.18-.31.35-.45.53s-.28.37-.41.57-.28.38-.4.57-.25.4-.36.6-.23.41-.34.62-.2.42-.29.63-.19.43-.28.65-.16.44-.23.67-.15.44-.21.67-.11.45-.16.68-.1.46-.14.69-.07.47-.1.7-.05.47-.07.7,0,.47,0,.7,0,.47,0,.71,0,.46,0,.69l.06.7.12.69c0,.23.08.46.14.69s.11.45.17.67.14.46.22.68.14.45.21.66.2.43.31.64l.11.23Z"/><path class="cls-2" d="M1328.85,528.23c76.35-36.83,197.17-63.74,212.32-32.33S1460.08,605.13,1383.73,642s-107.82,10.57-119-12.68-12.19-64.23,64.15-101.06Z"/><path class="cls-3" d="M1432.49,635.38c27.17-16.48,53.92-35.85,75.94-55.27,16.59-14.65,30.47-29.17,40-43.63s16.83-31.26,8.62-48.25-25.88-21.7-43.12-23.26-37.26.28-59,4.16c-28.91,5.14-60.71,14-90.51,25l15.41,31.94c27-9.77,55.93-17.78,81.28-22.28,19.85-3.54,37.65-4.85,49.71-3.77,9,.82,13,3.1,14.22,3.64-.31,1.26-1,5.81-6,13.4-6.66,10.11-18.76,23.23-33.88,36.58-19.3,17-43.55,34.65-68,49.75Z"/><path class="cls-3" d="M1248.82,636.94a71.61,71.61,0,0,0,46.55,38.28c24.27,6.28,55.51,2.16,96-17.38a510,510,0,0,0,49.67-27.77l-15.44-32a478.18,478.18,0,0,1-49.54,28c-35.85,17.3-58.51,18.47-71.88,15s-19.69-11.32-23.62-19.48-6.15-18-.54-30.6,20.64-29.62,56.48-46.92a477,477,0,0,1,52.77-21.33l-15.44-32a510,510,0,0,0-52.65,21.6c-40.5,19.54-63.17,41.43-73.35,64.33a71.55,71.55,0,0,0,1,60.25Z"/><path class="cls-2" d="M1168.87,295c17.26-83,69.46-195.22,103.6-188.12s37.3,130.83,20,213.82-57.24,92-82.52,86.72S1151.62,378,1168.87,295Z"/><path class="cls-3" d="M1317,278c3.48-31.58,4.4-64.6,2.38-93.89-1.51-22.08-4.58-41.93-10.26-58.28s-14.56-32.37-33-36.21-33,7.31-44.7,20-22.46,29.73-32.65,49.37c-13.52,26.07-25.83,56.7-35.24,87.05l34.73,7.22c8.72-27.41,20-55.2,31.8-78.05,9.28-17.9,19.07-32.82,27.27-41.72,6.15-6.68,10.4-8.48,11.55-9.07.81,1,4,4.34,7,12.91,4,11.44,7,29,8.4,49.14,1.77,25.69,1,55.65-1.94,84.26Z"/><path class="cls-3" d="M1206.4,424.68a71.59,71.59,0,0,0,58.71-13.62c19.75-15.43,35.5-42.73,44.65-86.76A507.42,507.42,0,0,0,1318,268l-34.79-7.24a477.24,477.24,0,0,1-7.92,56.37c-8.1,39-21,57.66-31.85,66.16s-21,8.73-29.84,6.88-18-6.07-24.6-18.2-11-34.4-2.84-73.37a476.77,476.77,0,0,1,15.19-54.85l-34.79-7.23a507.88,507.88,0,0,0-14.9,54.91c-9.16,44-5.6,75.34,6.37,97.36a71.52,71.52,0,0,0,48.4,35.89Z"/><path class="cls-2" d="M1173.86,1021.14c4.81,84.63-16.57,206.55-51.39,208.53s-69.88-116.72-74.7-201.36,31.49-103.65,57.27-105.12,64,13.32,68.82,97.95Z"/><path class="cls-3" d="M1035.21,1075.88c4.82,31.41,12.47,63.54,22,91.31,7.18,20.93,15.28,39.31,25,53.64s22.44,27.5,41.27,26.43,30-15.6,38-30.94,14-34.53,18.76-56.14c6.32-28.68,10.28-61.46,11.51-93.2l-35.42,2c-1.32,28.73-5,58.48-10.51,83.62-4.34,19.7-9.93,36.64-15.54,47.37-4.22,8-7.86,10.87-8.81,11.74-1-.76-5-3.16-10.08-10.67-6.8-10-14.29-26.22-20.83-45.29-8.35-24.35-15.35-53.5-19.93-81.89Z"/><path class="cls-3" d="M1104.05,905.61A71.57,71.57,0,0,0,1050.86,934c-15.08,20-23.23,50.45-20.68,95.35a508.67,508.67,0,0,0,6.65,56.51l35.48-2a477.53,477.53,0,0,1-6.94-56.5c-2.26-39.73,5.33-61.12,13.64-72.15s18-13.86,27-14.37,19,1.2,28.47,11.22,19.48,30.4,21.74,70.13a479.65,479.65,0,0,1-.48,56.92l35.48-2a508,508,0,0,0,.18-56.9c-2.55-44.9-14.1-74.22-31.35-92.39a71.48,71.48,0,0,0-56-22.14Z"/><path class="cls-2" d="M642.37,217.71c6.28-84.53,43.38-202.61,78.16-200s54.05,124.84,47.78,209.38-44.75,98.66-70.5,96.75-61.71-21.56-55.44-106.1Z"/><path class="cls-3" d="M787,181.54c-.68-31.77-4.08-64.62-9.89-93.4-4.39-21.69-10-41-17.79-56.45S740.64,1.5,721.83.1s-31.74,11.56-41.71,25.72S661.73,58.23,654.2,79c-10,27.61-18.21,59.59-23.58,90.9L666,172.56c5.06-28.31,12.57-57.33,21.33-81.53,6.88-19,14.63-35,21.6-44.93,5.23-7.43,9.2-9.76,10.26-10.5.94.89,4.53,3.78,8.6,11.9,5.44,10.82,10.75,27.86,14.75,47.63,5.1,25.23,8.23,55,9.06,83.78Z"/><path class="cls-3" d="M696.5,341.37a71.58,71.58,0,0,0,56.43-21.17c17.57-17.87,29.62-47,33-91.84a508.71,508.71,0,0,0,.79-56.89l-35.44-2.63a478.15,478.15,0,0,1-.5,56.92c-2.94,39.68-13.26,59.9-22.94,69.75s-19.65,11.39-28.68,10.72-18.65-3.67-26.77-14.84S657,258.71,660,219a477.61,477.61,0,0,1,7.9-56.37L632.42,160a509.49,509.49,0,0,0-7.62,56.39c-3.33,44.85,4.3,75.42,19,95.7a71.57,71.57,0,0,0,52.67,29.26Z"/><path class="cls-3" d="M460.85,840c118.51,245.63,414.5,349,660.14,230.45a494.5,494.5,0,0,0,261.24-311.91h0q.87-3.11,1.69-6.23l.06-.17.24-.86c37-136.64,20.73-242.38,22.53-353.62l.23-14.17-11.23-8.64C1307.55,307,1234.92,228.45,1105,172.38c-2.3-1-4.6-2-6.91-3a494.42,494.42,0,0,0-406.72,10.37C450.71,295.87,347.21,582.16,454.45,824.69l-.55.83Zm50.95-24.21-.16-.32c-105.26-218.18-14-479.58,204.17-584.85a438,438,0,0,1,360.33-9.19c2.09.88,4.16,1.78,6.23,2.68l.18.08C1197,273.5,1263.49,342.26,1350.48,410.71c-.56,110.6,11.85,205.38-20.65,325.54l-.13.52q-.87,3.26-1.78,6.5h0a438,438,0,0,1-231.44,276.33C878.4,1124.83,617.16,1033.7,511.8,815.74Z"/><path class="cls-3" d="M208.27,1184.77a61.43,61.43,0,0,0,22.48,28c27.76,18.89,66.52,11.78,85.12-16.36l-.89,1.28a1136.21,1136.21,0,0,1,169.67-182,1150.33,1150.33,0,0,1,549.4-261.28l28.06-5L1039.42,629.9,1012,634.81A1271.9,1271.9,0,0,0,405.28,923.55a1295.16,1295.16,0,0,0-189.8,203.18l-.23.3-.22.31A60.49,60.49,0,0,0,205,1173.45v0a60.61,60.61,0,0,0,3.29,11.3ZM260.39,1163l0,0a3.51,3.51,0,0,1,.61-2.92,1239.65,1239.65,0,0,1,181.1-193.8c161.11-138.85,352-229.47,552.52-270.12l1.65,8.65c-199.16,40.4-388.69,130.48-548.42,268.15A1192.87,1192.87,0,0,0,269.73,1164l-.47.63-.43.66c-1.23,1.86-3.8,2.6-6.37.85a4.61,4.61,0,0,1-2.08-3.13Z"/><path class="cls-3" d="M41,838a60.13,60.13,0,0,0,6.79,9.61s0,0,0,0a60.5,60.5,0,0,0,42.35,20.83l.38,0h.38A1295.68,1295.68,0,0,0,368,846.37,1271.86,1271.86,0,0,0,971.61,551.19l20.94-18.43-79.38-92.11L891.78,459.5A1150.29,1150.29,0,0,1,345.34,726.92,1136,1136,0,0,1,97.26,746.45l1.57.09c-33.61-2.95-63.29,23-65.78,56.45A61.53,61.53,0,0,0,41,838Zm49.46-27.25a4.63,4.63,0,0,1-1.15-3.58c.23-3.1,2.39-4.65,4.62-4.46l.79.07.78,0a1192.61,1192.61,0,0,0,260.4-20.49C563,743,751.5,650.68,907.07,519.94l5.75,6.67C756.22,658.25,566.48,751.29,357.52,791a1239.44,1239.44,0,0,1-264.4,21.14,3.49,3.49,0,0,1-2.66-1.34v0Z"/><path class="cls-3" d="M9.17,996.9a60.79,60.79,0,0,0,56.06,28.63l.38,0,.38,0a1295.26,1295.26,0,0,0,271.9-58.11A1272,1272,0,0,0,937.78,547.8l12.61-15.95-70.81-108-24.15,31.73A1150.64,1150.64,0,0,1,299.8,851.9,1136.64,1136.64,0,0,1,56.39,903.63l1.57-.11C24.25,905-1.81,934.55.1,968.08a61.4,61.4,0,0,0,9.07,28.81Zm47.94-29.69h0a4.74,4.74,0,0,1-.71-2.31h0c-.18-3.11,1.77-4.93,4-5l.78,0,.78-.07a1193.3,1193.3,0,0,0,255.5-54.3A1206.9,1206.9,0,0,0,875.72,520.83l5,7.63a1215.26,1215.26,0,0,1-560.5,385.35A1239.27,1239.27,0,0,1,60.86,969.29a3.93,3.93,0,0,1-3.76-2.08Z"/><path class="cls-4" d="M238,1143.67A1267.91,1267.91,0,0,1,423.68,944.9a1243.51,1243.51,0,0,1,593.26-282.33l12.16,64A1178.54,1178.54,0,0,0,466.25,994.29a1164.57,1164.57,0,0,0-173.89,186.55c-9.92,15-30.59,18.93-45.75,8.61a33,33,0,0,1-13.93-21.22,32,32,0,0,1,5.34-24.56Z"/><path class="cls-5" d="M454.43,919.27a552.49,552.49,0,0,0,38.65,52.62,1178.54,1178.54,0,0,1,536-245.28l-12.17-64a1243.67,1243.67,0,0,0-562.5,256.7Z"/><path class="cls-3" d="M227.91,1176.94a40.19,40.19,0,0,0,14.73,18.34c18.31,12.46,43.5,7.74,55.59-10.55l-.22.33A1157.53,1157.53,0,0,1,470.84,999.63a1171.5,1171.5,0,0,1,559.49-266.08l7-1.26-14.8-77.89-6.87,1.23A1250.75,1250.75,0,0,0,419.07,939.56a1275,1275,0,0,0-186.69,199.87l-.06.08,0,.07a39.44,39.44,0,0,0-4.36,37.36Zm15.39-.75a25.83,25.83,0,0,1-3.69-9.26h0a24.85,24.85,0,0,1,4.15-19.15A1260.57,1260.57,0,0,1,428.28,950.24,1236.2,1236.2,0,0,1,1011.35,671l9.53,50.19A1185.42,1185.42,0,0,0,461.64,989,1172.06,1172.06,0,0,0,286.7,1176.63l-.12.17-.11.16c-7.75,11.72-23.88,14.85-35.91,6.67a26.22,26.22,0,0,1-7.27-7.44Z"/><path class="cls-4" d="M91.65,840.3a1268.17,1268.17,0,0,0,271.13-21.63A1243.38,1243.38,0,0,0,953,530l-42.55-49.37a1178.69,1178.69,0,0,1-559.82,274,1164.64,1164.64,0,0,1-254.24,20c-17.92-1.57-33.85,12.16-35.21,30.45a33.08,33.08,0,0,0,7.94,24.11A32,32,0,0,0,91.65,840.3Z"/><path class="cls-5" d="M400.2,810.94A1243.41,1243.41,0,0,0,953,530l-42.55-49.37a1178.58,1178.58,0,0,1-529.24,267.7,551,551,0,0,0,19,62.59Z"/><path class="cls-3" d="M59.32,827.5a39.69,39.69,0,0,0,4.45,6.29,39.11,39.11,0,0,0,27.5,13.55h.19A1275.17,1275.17,0,0,0,364.09,825.6,1250.64,1250.64,0,0,0,957.64,535.32l5.24-4.61-51.76-60.06-5.35,4.71A1171.45,1171.45,0,0,1,349.29,747.69a1157.43,1157.43,0,0,1-252.7,19.9l.39,0c-21.84-1.92-41.21,14.85-42.85,36.95a40.13,40.13,0,0,0,5.18,22.94Zm10.16-11.58a26,26,0,0,1-1.29-10.31c1.08-14.5,13.56-25.19,27.56-24l.2,0h.2a1171.2,1171.2,0,0,0,255.78-20.13A1185.34,1185.34,0,0,0,909.59,490.47L943,529.17A1236.14,1236.14,0,0,1,361.47,811.74,1260.4,1260.4,0,0,1,92,833.26a24.84,24.84,0,0,1-17.57-8.68h0a25.86,25.86,0,0,1-5-8.65Z"/><path class="cls-4" d="M33.14,982.05a32.31,32.31,0,0,0,29.93,15.36,1267.12,1267.12,0,0,0,266-56.83,1243.78,1243.78,0,0,0,586.6-410.27l-37.79-57.63a1178.93,1178.93,0,0,1-569.23,406,1164.59,1164.59,0,0,1-249.46,53c-18,.79-32,16.48-30.93,34.8a33,33,0,0,0,4.89,15.57Z"/><path class="cls-5" d="M420.73,859.3q9.42,19.51,20.35,38.25A1244,1244,0,0,0,915.66,530.31l-37.79-57.63A1179.22,1179.22,0,0,1,411.59,839.29q4.38,10.08,9.16,20Z"/><path class="cls-3" d="M27.15,985.77a39.41,39.41,0,0,0,36.46,18.67h.19a1274.88,1274.88,0,0,0,267.47-57.15A1250.88,1250.88,0,0,0,921.19,534.69l3.15-4-46.05-70.21-6,7.93A1171.85,1171.85,0,0,1,306.43,872,1157.5,1157.5,0,0,1,58.48,924.68l.39,0c-21.9,1-38.92,20.12-37.66,42.24a40.16,40.16,0,0,0,5.93,18.88Zm12-7.43a25.86,25.86,0,0,1-3.84-12.26h0c-.82-14.52,10.17-26.75,24.21-27.36h.19l.2,0a1172,1172,0,0,0,251-53.34,1185.82,1185.82,0,0,0,566.5-400.64l29.59,45.13a1236.61,1236.61,0,0,1-580.07,404A1260.22,1260.22,0,0,1,62.49,990.38a25.19,25.19,0,0,1-23.36-12Z"/><path class="cls-6" d="M703.55,205.19A466.22,466.22,0,1,1,466,471.43,466.26,466.26,0,0,1,703.55,205.19Z"/><path class="cls-2" d="M486.24,827.69a466.21,466.21,0,0,0,757.9,118.54c-64.81-68.12-118.45-203.06-99.25-413.23,12-131.88-22.43-257.14-118.93-358.49A466.23,466.23,0,0,0,486.25,827.67Z"/><path class="cls-7" d="M538.63,891.48A453.22,453.22,0,0,0,574,952.29,466.2,466.2,0,0,0,1241.5,949c68.5-119.54,71.92-270.71,9.06-401C1201.71,446.73,1117.35,367.71,1016,328.31s-211.25-35.94-305.66,9.61S544.84,467.38,512.63,571.19s-22.86,219,26,320.29Z"/><path class="cls-8" d="M538.62,891.48A453,453,0,0,0,574,952.27,466.19,466.19,0,0,0,1241.5,949c.66-1.16,1.31-2.33,2-3.49-64.5-68.35-117.7-203-98.57-412.49,4-44,2.82-87.25-4.1-129.13-119.61-103.8-287-135.12-430.41-65.95-196.59,94.85-273.5,342.69-171.76,553.56Z"/><path class="cls-6" d="M1355.08,750.89c38-134.47,21.57-237.56,23.46-353.71-92.09-70.81-162.56-147.83-291.46-201.77L1247.92,460.2Z"/><path class="cls-1" d="M1247.86,460.23a78.1,78.1,0,0,0,73.49,44.09,78.06,78.06,0,0,0,58.25,88.8c2.82-66.63-2.13-129.15-1-196-53-40.73-98.81-83.5-152.72-122.76a78.1,78.1,0,0,0,33.25,100.87,78.1,78.1,0,0,0-11.22,85Z"/><path class="cls-7" d="M829.35,662.14a10.57,10.57,0,1,0,19-9.19,1312.09,1312.09,0,0,1-90.46-249.08,10.57,10.57,0,1,0-20.5,5.18,1333.47,1333.47,0,0,0,91.92,253.09Z"/><path class="cls-7" d="M967.88,595.3a1179.17,1179.17,0,0,0,152.46,238.05,10.57,10.57,0,1,0,16.31-13.45A1158.41,1158.41,0,0,1,986.93,586.11a10.58,10.58,0,0,0-19,9.19Z"/><path class="cls-6" d="M1159.82,583.83c.12.24.24.48.37.71a1004.55,1004.55,0,0,0,131.35,178.73,10.57,10.57,0,1,0,15.55-14.33,983.35,983.35,0,0,1-128.58-175,10.57,10.57,0,0,0-18.69,9.86Z"/><path class="cls-9" d="M486.63,828.48a466.19,466.19,0,0,0,457.58,261.28C821.63,1047,744.16,880.51,764.83,696c16.59-148-48.49-303.24-181.62-407.22a466.23,466.23,0,0,0-97,538.87Z"/><path class="cls-10" d="M538.62,891.49A454.36,454.36,0,0,0,574,952.3a466.22,466.22,0,0,0,370.2,137.46C821.63,1047,744.16,880.52,764.83,696,777.7,581.2,741.39,462,662.27,365.77c-160.39,109.48-216.62,333-123.65,525.71Z"/><path class="cls-7" d="M664,1016.84q2.38,4.92,5.05,9.71a466.24,466.24,0,0,0,287,62.09A195.27,195.27,0,0,0,755,755.9c-97.13,46.86-137.88,163.59-91,260.73l.1.21Z"/><path class="cls-8" d="M664,1016.84q2.38,4.92,5,9.68a465.63,465.63,0,0,0,275.14,63.24c-109.83-38.34-183.43-176-182.68-336.87-2.2,1-4.4,2-6.58,3-97.13,46.86-137.88,163.59-91,260.73Z"/><path class="cls-3" d="M479.89,830.75c113.54,235.34,396.57,334.15,631.91,220.6a473.29,473.29,0,0,0,250.06-298.56q.95-3.36,1.83-6.73l0-.13,0-.21c35.88-132.45,20-235,21.81-348.44l.05-3.54-2.8-2.16c-89.91-69.14-160.31-145.44-286.31-199.79h0c-2.23-1-4.46-1.94-6.71-2.89a473.29,473.29,0,0,0-389.32,9.93c-234,112.91-332.83,393.38-222.28,627.92l-.16.22ZM492.8,825l-.2-.41c-110.23-228.48-14.45-502.85,214-613.08a459.14,459.14,0,0,1,377.73-9.63c2.19.92,4.36,1.85,6.53,2.8h0c122.08,52.65,191,126.44,280.61,195.83-1.49,113.31,13.39,213.1-21.31,341.33l0,0-.07.24q-.9,3.42-1.85,6.81h0a459.18,459.18,0,0,1-242.62,289.67C877.33,1148.82,603.16,1053.2,492.8,825Z"/><path class="cls-9" d="M633.15,545.05a10.57,10.57,0,0,0,19.56-7.92,1450.53,1450.53,0,0,1-47.53-183.7,10.57,10.57,0,1,0-20.77,3.94,1469.64,1469.64,0,0,0,48.22,186.39,12,12,0,0,0,.52,1.29Z"/><path class="cls-8" d="M595.73,740.17a1577.15,1577.15,0,0,0,115,207.93,10.57,10.57,0,1,0,17.68-11.6A1556.53,1556.53,0,0,1,584.15,659.44a10.57,10.57,0,1,0-19.64,7.84q14.7,36.84,31.22,72.89Z"/><path class="cls-2" d="M946.83,292.34A46.6,46.6,0,1,1,923.08,319a46.61,46.61,0,0,1,23.75-26.61Z"/><path class="cls-2" d="M1008.9,447.34a24.46,24.46,0,1,1-12.46,14,24.45,24.45,0,0,1,12.46-14Z"/><path class="cls-3" d="M859.37,896.82a72.45,72.45,0,0,0,97,33.85l32.77-15.81A72.61,72.61,0,1,0,926,784.06l-32.77,15.81a72.45,72.45,0,0,0-33.85,97Z"/><path class="cls-1" d="M877,867.43a23.44,23.44,0,1,0,10.93-31.3A23.45,23.45,0,0,0,877,867.43Z"/><path class="cls-3" d="M729.17,627a72.46,72.46,0,0,0,97,33.84L858.9,645a72.61,72.61,0,1,0-63.11-130.8L763,530a72.45,72.45,0,0,0-33.85,97Z"/><path class="cls-1" d="M746.77,597.57a23.44,23.44,0,1,0,10.93-31.3,23.44,23.44,0,0,0-10.93,31.3Z"/><path class="cls-1" d="M1001.38,747.82a16.08,16.08,0,0,0,21.52,7.52l16.4-7.91a93.44,93.44,0,0,0-81.21-168.32L941.7,587a16.09,16.09,0,0,0-7.52,21.53Z"/><path class="cls-11" d="M959.85,661.75l.06,0s20.55-27.52,52.79-25.46c19.55-31.41,59.15-31.18,59.15-31.18a93.48,93.48,0,0,0-113.75-26L941.72,587a16.09,16.09,0,0,0-7.52,21.53Z"/><path class="cls-3" d="M939.92,620.45l.07,0s10.93-25.47,38.82-18.73c8.42-27.31,51.41-26.4,51.41-26.4a93.14,93.14,0,0,0-72.11,3.8L941.72,587a16.1,16.1,0,0,0-7.52,21.54Z"/><path class="cls-3" d="M995.63,735.91l.06,0s26.74,7.29,38.82-18.73c26.63,10.4,52.67-23.81,52.67-23.81a93.16,93.16,0,0,1-47.86,54.08l-16.39,7.91a16.09,16.09,0,0,1-21.53-7.52Z"/><path class="cls-3" d="M963.61,685.76l12.69-6.13-35.77-74.14a8.91,8.91,0,0,1,4.22-12.12l16.4-7.91a86.28,86.28,0,0,1,115.35,40.27c.73,1.52,1.4,3,2,4.58l12.72-6.14q-1-2.29-2.06-4.57A100.61,100.61,0,0,0,955,572.76l-16.39,7.91a23.3,23.3,0,0,0-10.8,31Z"/><path class="cls-3" d="M995,750.88A23.28,23.28,0,0,0,1026,761.69l16.4-7.91A100.6,100.6,0,0,0,1089.2,619.6c-.73-1.51-1.52-3-2.29-4.45l-12.73,6.13c.82,1.46,1.59,2.93,2.32,4.45a86.29,86.29,0,0,1-40.27,115.36L1019.84,749a8.92,8.92,0,0,1-12.12-4.25L972,670.61l-12.7,6.13Z"/></g></g></svg>