<svg xmlns="http://www.w3.org/2000/svg" viewBox="0 0 1363.07 1394.59"><defs><style>.cls-1{fill:#fff;}.cls-2{fill:#be78d1;}.cls-3{fill:#1a1a1a;}.cls-4{fill:#b3d464;}.cls-5{fill:#e0edb4;}.cls-6{fill:#e4a9f6;}.cls-7{fill:#f3caff;}.cls-8{fill:#da98e5;}.cls-9{fill:#9552af;}.cls-10{fill:#ba6bd0;}.cls-11{fill:#b9dae9;}</style></defs><g id="Layer_2" data-name="Layer 2"><g id="Layer_1-2" data-name="Layer 1"><path class="cls-1" d="M521.81,522.42c-.16-.18-.32-.35-.49-.51l-.15-.15c-.19-.16-.37-.31-.56-.45l-.55-.43c-.19-.14-.39-.27-.59-.4s-.34-.24-.52-.35l-.07-.07-.21-.09c-.28-.16-.56-.31-.85-.44l-.64-.29-.66-.26c-.22-.08-.44-.16-.66-.22l-.67-.2c-.23-.06-.45-.11-.68-.15l-.69-.13c-.23,0-.46-.06-.7-.09l-.7-.05-.7,0-.7,0c-.23,0-.47,0-.7.05l-.7.08-.69.12-.69.15-.67.2-.66.22c-.23.08-.45.16-.66.25l-.64.29-.63.32-.6.35-.59.38c-.19.13-.38.26-.57.41s-.39.27-.57.41l-.5.48-.2.19c-.17.15-.33.31-.49.48l-.16.16c-.15.18-.3.36-.44.55s-.3.36-.44.55-.27.39-.4.59l-.36.53-.07.06a1.8,1.8,0,0,1-.08.21c-.16.28-.31.57-.45.86s-.19.43-.29.65-.18.42-.26.64-.15.44-.22.66-.14.45-.2.67-.11.46-.16.69-.09.45-.13.68-.07.46-.09.7,0,.46,0,.7,0,.46,0,.7,0,.46,0,.7,0,.47.05.7l.09.7c0,.23.07.46.12.69s.09.46.15.69.12.45.19.67.14.45.22.67.17.44.26.65.18.43.28.64.21.42.33.63.22.41.34.61.25.4.38.59l.41.57c.13.19.27.38.41.56l.48.51.18.2.49.51.16.15c.18.15.36.3.56.44s.36.3.54.44.39.26.58.39.35.25.53.36l.07.07a1,1,0,0,0,.21.08c.28.16.57.32.86.46l.64.28c.22.1.43.18.65.26l.67.22c.22.08.45.14.67.2s.46.12.68.16l.7.13c.22,0,.46.06.69.09l.69.06h1.4c.23,0,.47,0,.7-.06s.47,0,.7-.08l.69-.12c.23,0,.46-.09.68-.15s.46-.12.68-.2.45-.14.66-.22l.65-.25.65-.29.61-.31.62-.35c.2-.12.4-.25.59-.39s.39-.26.57-.4l.57-.42.5-.48.2-.19.5-.48.15-.16c.16-.18.31-.37.45-.56s.3-.36.44-.55.27-.38.39-.58.25-.35.36-.53l.07-.07.09-.21c.16-.28.3-.56.44-.86s.2-.42.29-.64.19-.42.27-.64.15-.44.22-.67.14-.44.2-.66l.15-.68c.05-.23.09-.47.13-.7l.09-.69c0-.23,0-.47.05-.71s0-.46,0-.7,0-.47,0-.7l-.06-.7q0-.34-.09-.69c0-.24-.08-.47-.12-.7l-.15-.68c-.06-.23-.13-.46-.19-.68s-.14-.45-.22-.67-.17-.43-.26-.65-.18-.43-.28-.64-.21-.42-.32-.62-.23-.41-.35-.62l-.37-.58-.42-.58c-.13-.19-.27-.38-.41-.56s-.32-.35-.49-.51l-.17-.19Z"/><path class="cls-1" d="M521.81,522.42c-.16-.18-.32-.35-.49-.51l-.15-.15c-.19-.16-.37-.31-.56-.45l-.55-.43c-.19-.14-.39-.27-.59-.4s-.34-.24-.52-.35l-.07-.07-.21-.09c-.28-.16-.56-.31-.85-.44l-.64-.29-.66-.26c-.22-.08-.44-.16-.66-.22l-.67-.2c-.23-.06-.45-.11-.68-.15l-.69-.13c-.23,0-.46-.06-.7-.09l-.7-.05-.7,0-.7,0c-.23,0-.47,0-.7.05l-.7.08-.69.12-.69.15-.67.2-.66.22c-.23.08-.45.16-.66.25l-.64.29-.63.32-.6.35-.59.38c-.19.13-.38.26-.57.41s-.39.27-.57.41l-.5.48-.2.19c-.17.15-.33.31-.49.48l-.16.16c-.15.18-.3.36-.44.55l-.45.56c-.13.19-.27.39-.39.59s-.24.34-.36.52l-.07.06a1.8,1.8,0,0,1-.08.21c-.16.28-.31.57-.45.86s-.19.43-.29.65-.18.42-.26.64-.15.44-.22.66-.14.45-.2.67-.11.46-.16.69-.09.45-.13.68-.07.46-.09.7,0,.46,0,.7,0,.46,0,.7,0,.46,0,.7,0,.47.05.7l.09.7c0,.23.07.46.12.69s.09.46.15.69.12.45.19.67.14.45.22.67.17.44.26.65.18.43.28.64.21.42.33.63.22.41.35.61l.38.58.4.57c.13.19.27.38.41.56s.32.35.49.51l.19.2c.15.17.32.34.49.5s.1.1.15.15.37.31.56.45l.54.44.59.39.52.36.07.07.21.08c.28.16.57.32.86.46l.64.28.66.26.66.22.67.2c.23.06.46.12.69.16l.69.13.69.08c.23,0,.47,0,.7.06s.46,0,.7,0h.69l.7-.05.7-.08c.23,0,.47-.07.69-.12l.69-.15.68-.2.66-.22c.22-.08.43-.16.64-.26l.65-.28.62-.32.61-.34.59-.39c.2-.13.39-.26.58-.41l.57-.41.5-.48.19-.19c.18-.16.35-.33.51-.49l.15-.16c.16-.18.31-.37.45-.56s.3-.36.44-.55.27-.38.39-.58a6.18,6.18,0,0,0,.36-.53l.06-.06.09-.21c.16-.28.31-.57.45-.86s.2-.42.29-.64.18-.42.26-.64.15-.44.22-.67.14-.44.2-.67.11-.45.16-.68l.12-.69c0-.23.06-.46.09-.69s.05-.47.06-.71,0-.47,0-.7,0-.47,0-.7,0-.47-.05-.7,0-.47-.09-.7-.07-.47-.12-.7l-.15-.68c-.06-.23-.13-.45-.19-.68s-.14-.45-.22-.67-.17-.43-.26-.65-.18-.43-.28-.64-.21-.42-.32-.62-.23-.42-.35-.61l-.37-.59-.42-.58c-.13-.19-.27-.38-.41-.56l-.49-.51-.18-.19Z"/><path class="cls-1" d="M521.81,522.42c-.16-.18-.32-.35-.49-.51l-.15-.15c-.19-.16-.37-.31-.56-.45l-.55-.43c-.19-.14-.39-.27-.59-.4s-.34-.24-.52-.35l-.07-.07-.21-.09c-.28-.16-.56-.31-.85-.44l-.64-.29-.66-.26c-.22-.08-.44-.16-.66-.22l-.67-.2c-.23-.06-.45-.11-.68-.15l-.69-.13c-.23,0-.46-.06-.7-.09l-.7-.05-.7,0-.7,0c-.23,0-.47,0-.7.05l-.7.08-.69.12-.69.15-.67.2-.66.22c-.23.08-.45.16-.66.25l-.64.29-.63.32-.6.35-.59.38c-.19.13-.38.26-.57.41s-.39.27-.57.41l-.5.48-.2.19c-.17.15-.33.31-.49.48l-.16.16c-.15.18-.3.36-.44.55l-.45.56c-.13.19-.27.39-.39.59s-.24.34-.36.52l-.07.06a1.8,1.8,0,0,1-.08.21c-.16.28-.31.57-.45.86s-.19.43-.29.65-.18.42-.26.64-.15.44-.22.66-.14.45-.2.67-.11.46-.16.69-.09.45-.13.68-.07.46-.09.7,0,.46,0,.7,0,.46,0,.7,0,.46,0,.7,0,.47.05.7l.09.7c0,.23.07.46.12.69s.09.46.15.69.12.45.19.67.14.45.22.67.17.44.26.65.18.43.28.64.21.42.33.63.22.41.35.61l.38.58.4.57c.13.19.27.38.41.56s.32.35.49.51l.19.2c.15.17.32.34.49.5s.1.1.15.15.37.31.56.45l.54.44.59.39.52.36.07.07.21.08c.28.16.57.32.86.46l.64.28.66.26.66.22.67.2c.23.06.46.12.69.16l.69.13.69.08c.23,0,.47,0,.7.06s.46,0,.7,0h.69l.7-.05.7-.08c.23,0,.47-.07.69-.12l.69-.15.68-.2.66-.22c.22-.08.43-.16.64-.26l.65-.28.62-.32.61-.34.59-.39c.2-.13.39-.26.58-.41l.57-.41.5-.48.19-.19c.18-.16.35-.33.51-.49l.15-.16c.16-.18.31-.37.45-.56s.3-.36.44-.55.27-.38.39-.58a6.18,6.18,0,0,0,.36-.53l.06-.06.09-.21c.16-.28.31-.57.45-.86s.2-.42.29-.64.18-.42.26-.64.15-.44.22-.67.14-.44.2-.67.11-.45.16-.68l.12-.69c0-.23.06-.46.09-.69s.05-.47.06-.71,0-.47,0-.7,0-.47,0-.7,0-.47-.05-.7,0-.47-.09-.7-.07-.47-.12-.7l-.15-.68c-.06-.23-.13-.45-.19-.68s-.14-.45-.22-.67-.17-.43-.26-.65-.18-.43-.28-.64-.21-.42-.32-.62-.23-.42-.35-.61l-.37-.59-.42-.58c-.13-.19-.27-.38-.41-.56l-.49-.51-.18-.19Z"/><path class="cls-1" d="M521.81,522.42c-.16-.18-.32-.35-.49-.51l-.15-.15c-.19-.16-.37-.31-.56-.45l-.55-.43c-.19-.14-.39-.27-.59-.4s-.34-.24-.52-.35l-.07-.07-.21-.09c-.28-.16-.56-.31-.85-.44l-.64-.29-.66-.26c-.22-.08-.44-.16-.66-.22l-.67-.2c-.23-.06-.45-.11-.68-.15l-.69-.13c-.23,0-.46-.06-.7-.09l-.7-.05-.7,0-.7,0c-.23,0-.47,0-.7.05l-.7.08-.69.12-.69.15-.67.2-.66.22c-.23.08-.45.16-.66.25l-.64.29-.63.32-.6.35-.59.38c-.19.13-.38.26-.57.41s-.39.27-.57.41l-.5.48-.2.19c-.17.15-.33.31-.49.48l-.16.16c-.15.18-.3.36-.44.55l-.45.56c-.13.19-.27.39-.39.59s-.24.34-.36.52l-.07.06a1.8,1.8,0,0,1-.08.21c-.16.28-.31.57-.45.86s-.19.43-.29.65-.18.42-.26.64-.15.44-.22.66-.14.45-.2.67-.11.46-.16.69-.09.45-.13.68-.07.46-.09.7,0,.46,0,.7,0,.46,0,.7,0,.46,0,.7,0,.47.05.7l.09.7c0,.23.07.46.12.69s.09.46.15.69.12.45.19.67.14.45.22.67.17.44.26.65.18.43.28.64.21.42.33.63.22.41.35.61l.38.58.4.57c.13.19.27.38.41.56s.32.35.49.51l.19.2c.15.17.32.34.49.5s.1.1.15.15.37.31.56.45l.54.44.59.39.52.36.07.07.21.08c.28.16.57.32.86.46l.64.28.66.26.66.22.67.2c.23.06.46.12.69.16l.69.13.69.08c.23,0,.47,0,.7.06s.46,0,.7,0h.69l.7-.05.7-.08c.23,0,.47-.07.69-.12l.69-.15.68-.2.66-.22c.22-.08.43-.16.64-.26l.65-.28.62-.32.61-.34.59-.39c.2-.13.39-.26.58-.41l.57-.41.5-.48.19-.19c.18-.16.35-.33.51-.49l.15-.16c.16-.18.31-.37.45-.56s.3-.36.44-.55.27-.38.39-.58a6.18,6.18,0,0,0,.36-.53l.06-.06.09-.21c.16-.28.31-.57.45-.86s.2-.42.29-.64.18-.42.26-.64.15-.44.22-.67.14-.44.2-.67.11-.45.16-.68l.12-.69c0-.23.06-.46.09-.69s.05-.47.06-.71,0-.47,0-.7,0-.47,0-.7,0-.47-.05-.7,0-.47-.09-.7-.07-.47-.12-.7l-.15-.68c-.06-.23-.13-.45-.19-.68s-.14-.45-.22-.67-.17-.43-.26-.65-.18-.43-.28-.64-.21-.42-.32-.62-.23-.42-.35-.61l-.37-.59-.42-.58c-.13-.19-.27-.38-.41-.56l-.49-.51-.18-.19Z"/><path class="cls-1" d="M521.81,522.42c-.16-.18-.32-.35-.49-.51l-.15-.15c-.19-.16-.37-.31-.56-.45l-.55-.43c-.19-.14-.39-.27-.59-.4s-.34-.24-.52-.35l-.07-.07-.21-.09c-.28-.16-.56-.31-.85-.44l-.64-.29-.66-.26c-.22-.08-.44-.16-.66-.22l-.67-.2c-.23-.06-.45-.11-.68-.15l-.69-.13c-.23,0-.46-.06-.7-.09l-.7-.05-.7,0-.7,0c-.23,0-.47,0-.7.05l-.7.08-.69.12-.69.15-.67.2-.66.22c-.23.08-.45.16-.66.25l-.64.29-.63.32-.6.35-.59.38c-.19.13-.38.26-.57.41s-.39.27-.57.41l-.5.48-.2.19c-.17.15-.33.31-.49.48l-.16.16c-.15.18-.3.36-.44.55l-.45.56c-.13.19-.27.39-.39.59s-.24.34-.36.52l-.07.06a1.8,1.8,0,0,1-.08.21c-.16.28-.31.57-.45.86s-.19.43-.29.65-.18.42-.26.64-.15.44-.22.66-.14.45-.2.67-.11.46-.16.69-.09.45-.13.68-.07.46-.09.7,0,.46,0,.7,0,.46,0,.7,0,.46,0,.7,0,.47.05.7l.09.7c0,.23.07.46.12.69s.09.46.15.69.12.45.19.67.14.45.22.67.17.44.26.65.18.43.28.64.21.42.33.63.22.41.35.61l.38.58.4.57c.13.19.27.38.41.56s.32.35.49.51l.19.2c.15.17.32.34.49.5s.1.1.15.15.37.31.56.45l.54.44.59.39.52.36.07.07.21.08c.28.16.57.32.86.46l.64.28.66.26.66.22.67.2c.23.06.46.12.69.16l.69.13.69.08c.23,0,.47,0,.7.06s.46,0,.7,0h.69l.7-.05.7-.08c.23,0,.47-.07.69-.12l.69-.15.68-.2.66-.22c.22-.08.43-.16.64-.26l.65-.28.62-.32.61-.34.59-.39c.2-.13.39-.26.58-.41l.57-.41.5-.48.19-.19c.18-.16.35-.33.51-.49l.15-.16c.16-.18.31-.37.45-.56s.3-.36.44-.55.27-.38.39-.58a6.18,6.18,0,0,0,.36-.53l.06-.06.09-.21c.16-.28.31-.57.45-.86s.2-.42.29-.64.18-.42.26-.64.15-.44.22-.67.14-.44.2-.67.11-.45.16-.68l.12-.69c0-.23.06-.46.09-.69s.05-.47.06-.71,0-.47,0-.7,0-.47,0-.7,0-.47-.05-.7,0-.47-.09-.7-.07-.47-.12-.7l-.15-.68c-.06-.23-.13-.45-.19-.68s-.14-.45-.22-.67-.17-.43-.26-.65-.18-.43-.28-.64-.21-.42-.32-.62-.23-.42-.35-.61l-.37-.59-.42-.58c-.13-.19-.27-.38-.41-.56l-.49-.51-.18-.19Z"/><path class="cls-1" d="M521.81,522.42c-.16-.18-.32-.35-.49-.51l-.15-.15c-.19-.16-.37-.31-.56-.45l-.55-.43c-.19-.14-.39-.27-.59-.4s-.34-.24-.52-.35l-.07-.07-.21-.09c-.28-.16-.56-.31-.85-.44l-.64-.29-.66-.26c-.22-.08-.44-.16-.66-.22l-.67-.2c-.23-.06-.45-.11-.68-.15l-.69-.13c-.23,0-.46-.06-.7-.09l-.7-.05-.7,0-.7,0c-.23,0-.47,0-.7.05l-.7.08-.69.12-.69.15-.67.2-.66.22c-.23.08-.45.16-.66.25l-.64.29-.63.32-.6.35-.59.38c-.19.13-.38.26-.57.41s-.39.27-.57.41l-.5.48-.2.19c-.17.15-.33.31-.49.48l-.16.16c-.15.18-.3.36-.44.55l-.45.56c-.13.19-.27.39-.39.59s-.24.34-.36.52l-.07.06a1.8,1.8,0,0,1-.08.21c-.16.28-.31.57-.45.86s-.19.43-.29.65-.18.42-.26.64-.15.44-.22.66-.14.45-.2.67-.11.46-.16.69-.09.45-.13.68-.07.46-.09.7,0,.46,0,.7,0,.46,0,.7,0,.46,0,.7,0,.47.05.7l.09.7c0,.23.07.46.12.69s.09.46.15.69.12.45.19.67.14.45.22.67.17.44.26.65.18.43.28.64.21.42.33.63.22.41.35.61l.38.58.4.57c.13.19.27.38.41.56s.32.35.49.51l.19.2c.15.17.32.34.49.5s.1.1.15.15.37.31.56.45l.54.44.59.39.52.36.07.07.21.08c.28.16.57.32.86.46l.64.28.66.26.66.22.67.2c.23.06.46.12.69.16l.69.13.69.08c.23,0,.47,0,.7.06s.46,0,.7,0h.69l.7-.05.7-.08c.23,0,.47-.07.69-.12l.69-.15.68-.2.66-.22c.22-.08.43-.16.64-.26l.65-.28.62-.32.61-.34.59-.39c.2-.13.39-.26.58-.41l.57-.41.5-.48.19-.19c.18-.16.35-.33.51-.49l.15-.16c.16-.18.31-.37.45-.56s.3-.36.44-.55.27-.38.39-.58a6.18,6.18,0,0,0,.36-.53l.06-.06.09-.21c.16-.28.31-.57.45-.86s.2-.42.29-.64.18-.42.26-.64.15-.44.22-.67.14-.44.2-.67.11-.45.16-.68l.12-.69c0-.23.06-.46.09-.69s.05-.47.06-.71,0-.47,0-.7,0-.47,0-.7,0-.47-.05-.7,0-.47-.09-.7-.07-.47-.12-.7l-.15-.68c-.06-.23-.13-.45-.19-.68s-.14-.45-.22-.67-.17-.43-.26-.65-.18-.43-.28-.64-.21-.42-.32-.62-.23-.42-.35-.61l-.37-.59-.42-.58c-.13-.19-.27-.38-.41-.56l-.49-.51-.18-.19Z"/><path class="cls-1" d="M521.81,522.42c-.16-.18-.32-.35-.49-.51l-.15-.15c-.19-.16-.37-.31-.56-.45l-.55-.43c-.19-.14-.39-.27-.59-.4s-.34-.24-.52-.35l-.07-.07-.21-.09c-.28-.16-.56-.31-.85-.44l-.64-.29-.66-.26c-.22-.08-.44-.16-.66-.22l-.67-.2c-.23-.06-.45-.11-.68-.15l-.69-.13c-.23,0-.46-.06-.7-.09l-.7-.05-.7,0-.7,0c-.23,0-.47,0-.7.05l-.7.08-.69.12-.69.15-.67.2-.66.22c-.23.08-.45.16-.66.25l-.64.29-.63.32-.6.35-.59.38c-.19.13-.38.26-.57.41s-.39.27-.57.41l-.5.48-.2.19c-.17.15-.33.31-.49.48l-.16.16c-.15.18-.3.36-.44.55l-.45.56c-.13.19-.27.39-.39.59s-.24.34-.36.52l-.07.06a1.8,1.8,0,0,1-.08.21c-.16.28-.31.57-.45.86s-.19.43-.29.65-.18.42-.26.64-.15.44-.22.66-.14.45-.2.67-.11.46-.16.69-.09.45-.13.68-.07.46-.09.7,0,.46,0,.7,0,.46,0,.7,0,.46,0,.7,0,.47.05.7l.09.7c0,.23.07.46.12.69s.09.46.15.69.12.45.19.67.14.45.22.67.17.44.26.65.18.43.28.64.21.42.33.63.22.41.35.61l.38.58.4.57c.13.19.27.38.41.56s.32.35.49.51l.19.2c.15.17.32.34.49.5s.1.1.15.15.37.31.56.45l.54.44.59.39.52.36.07.07.21.08c.28.16.57.32.86.46l.64.28.66.26.66.22.67.2c.23.06.46.12.69.16l.69.13.69.08c.23,0,.47,0,.7.06s.46,0,.7,0h.69l.7-.05.7-.08c.23,0,.47-.07.69-.12l.69-.15.68-.2.66-.22c.22-.08.43-.16.64-.26l.65-.28.62-.32.61-.34.59-.39c.2-.13.39-.26.58-.41l.57-.41.5-.48.19-.19c.18-.16.35-.33.51-.49l.15-.16c.16-.18.31-.37.45-.56s.3-.36.44-.55.27-.38.39-.58a6.18,6.18,0,0,0,.36-.53l.06-.06.09-.21c.16-.28.31-.57.45-.86s.2-.42.29-.64.18-.42.26-.64.15-.44.22-.67.14-.44.2-.67.11-.45.16-.68l.12-.69c0-.23.06-.46.09-.69s.05-.47.06-.71,0-.47,0-.7,0-.47,0-.7,0-.47-.05-.7,0-.47-.09-.7-.07-.47-.12-.7l-.15-.68c-.06-.23-.13-.45-.19-.68s-.14-.45-.22-.67-.17-.43-.26-.65-.18-.43-.28-.64-.21-.42-.32-.62-.23-.42-.35-.61l-.37-.59-.42-.58c-.13-.19-.27-.38-.41-.56l-.49-.51-.18-.19Z"/><path class="cls-1" d="M521.81,522.42c-.16-.18-.32-.35-.49-.51l-.15-.15c-.19-.16-.37-.31-.56-.45l-.55-.43c-.19-.14-.39-.27-.59-.4s-.34-.24-.52-.35l-.07-.07-.21-.09c-.28-.16-.56-.31-.85-.44l-.64-.29-.66-.26c-.22-.08-.44-.16-.66-.22l-.67-.2c-.23-.06-.45-.11-.68-.15l-.69-.13c-.23,0-.46-.06-.7-.09l-.7-.05-.7,0-.7,0c-.23,0-.47,0-.7.05l-.7.08-.69.12-.69.15-.67.2-.66.22c-.23.08-.45.16-.66.25l-.64.29-.63.32-.6.35-.59.38c-.19.13-.38.26-.57.41s-.39.27-.57.41l-.5.48-.2.19c-.17.15-.33.31-.49.48l-.16.16c-.15.18-.3.36-.44.55l-.45.56c-.13.19-.27.39-.39.59s-.24.34-.36.52l-.07.06a1.8,1.8,0,0,1-.08.21c-.16.28-.31.57-.45.86s-.19.43-.29.65-.18.42-.26.64-.15.44-.22.66-.14.45-.2.67-.11.46-.16.69-.09.45-.13.68-.07.46-.09.7,0,.46,0,.7,0,.46,0,.7,0,.46,0,.7,0,.47.05.7l.09.7c0,.23.07.46.12.69s.09.46.15.69.12.45.19.67.14.45.22.67.17.44.26.65.18.43.28.64.21.42.33.63.22.41.35.61l.38.58.4.57c.13.19.27.38.41.56s.32.35.49.51l.19.2c.15.17.32.34.49.5s.1.1.15.15.37.31.56.45l.54.44.59.39.52.36.07.07.21.08c.28.16.57.32.86.46l.64.28.66.26.66.22.67.2c.23.06.46.12.69.16l.69.13.69.08c.23,0,.47,0,.7.06s.46,0,.7,0h.69l.7-.05.7-.08c.23,0,.47-.07.69-.12l.69-.15.68-.2.66-.22c.22-.08.43-.16.64-.26l.65-.28.62-.32.61-.34.59-.39c.2-.13.39-.26.58-.41l.57-.41.5-.48.19-.19c.18-.16.35-.33.51-.49l.15-.16c.16-.18.31-.37.45-.56s.3-.36.44-.55.27-.38.39-.58a6.18,6.18,0,0,0,.36-.53l.06-.06.09-.21c.16-.28.31-.57.45-.86s.2-.42.29-.64.18-.42.26-.64.15-.44.22-.67.14-.44.2-.67.11-.45.16-.68l.12-.69c0-.23.06-.46.09-.69s.05-.47.06-.71,0-.47,0-.7,0-.47,0-.7,0-.47-.05-.7,0-.47-.09-.7-.07-.47-.12-.7l-.15-.68c-.06-.23-.13-.45-.19-.68s-.14-.45-.22-.67-.17-.43-.26-.65-.18-.43-.28-.64-.21-.42-.32-.62-.23-.42-.35-.61l-.37-.59-.42-.58c-.13-.19-.27-.38-.41-.56l-.49-.51-.18-.19Z"/><path class="cls-1" d="M521.81,522.42c-.16-.18-.32-.35-.49-.51l-.15-.15c-.19-.16-.37-.31-.56-.45l-.55-.43c-.19-.14-.39-.27-.59-.4s-.34-.24-.52-.35l-.07-.07-.21-.09c-.28-.16-.56-.31-.85-.44l-.64-.29-.66-.26c-.22-.08-.44-.16-.66-.22l-.67-.2c-.23-.06-.45-.11-.68-.15l-.69-.13c-.23,0-.46-.06-.7-.09l-.7-.05-.7,0-.7,0c-.23,0-.47,0-.7.05l-.7.08-.69.12-.69.15-.67.2-.66.22c-.23.08-.45.16-.66.25l-.64.29-.63.32-.6.35-.59.38c-.19.13-.38.26-.57.41s-.39.27-.57.41l-.5.48-.2.19c-.17.15-.33.31-.49.48l-.16.16c-.15.18-.3.36-.44.55l-.45.56c-.13.19-.27.39-.39.59s-.24.34-.36.52l-.07.06a1.8,1.8,0,0,1-.08.21c-.16.28-.31.57-.45.86s-.19.43-.29.65-.18.42-.26.64-.15.44-.22.66-.14.45-.2.67-.11.46-.16.69-.09.45-.13.68-.07.46-.09.7,0,.46,0,.7,0,.46,0,.7,0,.46,0,.7,0,.47.05.7l.09.7c0,.23.07.46.12.69s.09.46.15.69.12.45.19.67.14.45.22.67.17.44.26.65.18.43.28.64.21.42.33.63.22.41.35.61l.38.58.4.57c.13.19.27.38.41.56s.32.35.49.51l.19.2c.15.17.32.34.49.5s.1.1.15.15.37.31.56.45l.54.44.59.39.52.36.07.07.21.08c.28.16.57.32.86.46l.64.28.66.26.66.22.67.2c.23.06.46.12.69.16l.69.13.69.08c.23,0,.47,0,.7.06s.46,0,.7,0h.69l.7-.05.7-.08c.23,0,.47-.07.69-.12l.69-.15.68-.2.66-.22c.22-.08.43-.16.64-.26l.65-.28.62-.32.61-.34.59-.39c.2-.13.39-.26.58-.41l.57-.41.5-.48.19-.19c.18-.16.35-.33.51-.49l.15-.16c.16-.18.31-.37.45-.56s.3-.36.44-.55.27-.38.39-.58a6.18,6.18,0,0,0,.36-.53l.06-.06.09-.21c.16-.28.31-.57.45-.86s.2-.42.29-.64.18-.42.26-.64.15-.44.22-.67.14-.44.2-.67.11-.45.16-.68l.12-.69c0-.23.06-.46.09-.69s.05-.47.06-.71,0-.47,0-.7,0-.47,0-.7,0-.47-.05-.7,0-.47-.09-.7-.07-.47-.12-.7l-.15-.68c-.06-.23-.13-.45-.19-.68s-.14-.45-.22-.67-.17-.43-.26-.65-.18-.43-.28-.64-.21-.42-.32-.62-.23-.42-.35-.61l-.37-.59-.42-.58c-.13-.19-.27-.38-.41-.56l-.49-.51-.18-.19Z"/><path class="cls-1" d="M521.81,522.42c-.16-.18-.32-.35-.49-.51l-.15-.15c-.19-.16-.37-.31-.56-.45l-.55-.43c-.19-.14-.39-.27-.59-.4s-.34-.24-.52-.35l-.07-.07-.21-.09c-.28-.16-.56-.31-.85-.44l-.64-.29-.66-.26c-.22-.08-.44-.16-.66-.22l-.67-.2c-.23-.06-.45-.11-.68-.15l-.69-.13c-.23,0-.46-.06-.7-.09l-.7-.05-.7,0-.7,0c-.23,0-.47,0-.7.05l-.7.08-.69.12-.69.15-.67.2-.66.22c-.23.08-.45.16-.66.25l-.64.29-.63.32-.6.35-.59.38c-.19.13-.38.26-.57.41s-.39.27-.57.41l-.5.48-.2.19c-.17.15-.33.31-.49.48l-.16.16c-.15.18-.3.36-.44.55l-.45.56c-.13.19-.27.39-.39.59s-.24.34-.36.52l-.07.06a1.8,1.8,0,0,1-.08.21c-.16.28-.31.57-.45.86s-.19.43-.29.65-.18.42-.26.64-.15.44-.22.66-.14.45-.2.67-.11.46-.16.69-.09.45-.13.68-.07.46-.09.7,0,.46,0,.7,0,.46,0,.7,0,.46,0,.7,0,.47.05.7l.09.7c0,.23.07.46.12.69s.09.46.15.69.12.45.19.67.14.45.22.67.17.44.26.65.18.43.28.64.21.42.33.63.22.41.35.61l.38.58.4.57c.13.19.27.38.41.56s.32.35.49.51l.19.2c.15.17.32.34.49.5s.1.1.15.15.37.31.56.45l.54.44.59.39.52.36.07.07.21.08c.28.16.57.32.86.46l.64.28.66.26.66.22.67.2c.23.06.46.12.69.16l.69.13.69.08c.23,0,.47,0,.7.06s.46,0,.7,0h.69l.7-.05.7-.08c.23,0,.47-.07.69-.12l.69-.15.68-.2.66-.22c.22-.08.43-.16.64-.26l.65-.28.62-.32.61-.34.59-.39c.2-.13.39-.26.58-.41l.57-.41.5-.48.19-.19c.18-.16.35-.33.51-.49l.15-.16c.16-.18.31-.37.45-.56s.3-.36.44-.55.27-.38.39-.58a6.18,6.18,0,0,0,.36-.53l.06-.06.09-.21c.16-.28.31-.57.45-.86s.2-.42.29-.64.18-.42.26-.64.15-.44.22-.67.14-.44.2-.67.11-.45.16-.68l.12-.69c0-.23.06-.46.09-.69s.05-.47.06-.71,0-.47,0-.7,0-.47,0-.7,0-.47-.05-.7,0-.47-.09-.7-.07-.47-.12-.7l-.15-.68c-.06-.23-.13-.45-.19-.68s-.14-.45-.22-.67-.17-.43-.26-.65-.18-.43-.28-.64-.21-.42-.32-.62-.23-.42-.35-.61l-.37-.59-.42-.58c-.13-.19-.27-.38-.41-.56l-.49-.51-.18-.19Z"/><path class="cls-2" d="M214.65,993.78c-61.15,58.7-167.66,121.75-191.81,96.6s43.21-129,104.36-187.7,99.22-43.5,117.1-24.87,31.51,57.27-29.65,116Z"/><path class="cls-3" d="M82.9,924.07c-20.73,24.09-40.15,50.8-55.06,76.1-11.22,19.06-19.91,37.17-24.47,53.88s-6.3,34.93,6.76,48.54,31.34,12.61,48.21,8.73,35.34-11.82,54.85-22.26c25.89-13.86,53.36-32.16,78.28-51.88l-24.56-25.59c-22.69,17.68-47.67,34.26-70.36,46.4-17.78,9.51-34.29,16.29-46.09,19-8.85,2-13.36,1.11-14.65,1-.1-1.29-.84-5.84,1.55-14.6,3.19-11.68,10.62-27.91,20.86-45.28,13.06-22.18,30.65-46.46,49.24-68.4Z"/><path class="cls-3" d="M257,865.62a71.56,71.56,0,0,0-56.13-22c-25,1.56-53.44,15.17-85.88,46.31a508.18,508.18,0,0,0-38.61,41.8L101,957.4a479.25,479.25,0,0,1,38.4-42c28.71-27.56,49.9-35.7,63.67-36.56s22.24,4.66,28.51,11.19,11.42,15.2,10,28.92-10.43,34.57-39.14,62.13a477.33,477.33,0,0,1-43.55,36.65l24.61,25.64a510.18,510.18,0,0,0,43.35-36.87c32.44-31.14,47.2-59,49.78-83.91a71.55,71.55,0,0,0-19.62-57Z"/><path class="cls-2" d="M439.09,1165.88c9.34,84.25-5.48,207.13-40.14,211s-76-112.81-85.38-197.06,25.89-105.19,51.55-108,64.62,9.88,74,94.13Z"/><path class="cls-3" d="M303.57,1228c6.49,31.11,15.86,62.78,26.86,90,8.29,20.52,17.36,38.44,27.84,52.22s23.88,26.26,42.63,24.18,29.08-17.18,36.28-32.92,12.13-35.23,15.72-57.07c4.77-29,7-61.92,6.5-93.69l-35.26,3.91c.22,28.76-1.84,58.67-6,84.07-3.27,19.89-7.95,37.12-13,48.12-3.78,8.26-7.26,11.28-8.17,12.21-1.08-.71-5.14-2.89-10.63-10.12-7.33-9.64-15.68-25.42-23.23-44.11-9.65-23.87-18.2-52.6-24.29-80.71Z"/><path class="cls-3" d="M363.19,1054.24a71.58,71.58,0,0,0-51.59,31.16c-14,20.8-20.5,51.63-15.54,96.33a505.14,505.14,0,0,0,9.66,56.07l35.32-3.91a476.44,476.44,0,0,1-10-56.05c-4.39-39.55,2.05-61.32,9.75-72.77s17.23-14.8,26.23-15.8,19,.19,29,9.67,21.08,29.32,25.46,68.87a480,480,0,0,1,2.57,56.86l35.31-3.91a506.57,506.57,0,0,0-2.86-56.83c-4.95-44.7-18-73.36-36.26-90.58a71.55,71.55,0,0,0-57.14-19.11Z"/><path class="cls-2" d="M209.11,477.11c-30.83-79-48.32-201.5-15.83-214.18s102.64,89.29,133.47,168.25,2.22,108.31-21.83,117.7-65,7.19-95.81-71.77Z"/><path class="cls-3" d="M323.94,382.06c-14.32-28.36-31.57-56.53-49.24-80-13.32-17.68-26.72-32.64-40.41-43.24s-29.86-19.18-47.43-12.32-23.64,24.12-26.52,41.19-2.6,37.18-.42,59.19c2.89,29.23,9.29,61.62,18,92.18l33-12.9c-7.65-27.73-13.4-57.14-15.94-82.76-2-20.07-1.93-37.91.09-49.85,1.51-8.95,4.09-12.77,4.72-13.9,1.23.4,5.72,1.46,12.9,7,9.57,7.42,21.71,20.5,33.85,36.6C262,343.85,277.74,369.39,290.9,395Z"/><path class="cls-3" d="M311.31,565.29a71.57,71.57,0,0,0,41.77-43.45c8.13-23.71,6.44-55.17-9.92-97.07a509,509,0,0,0-23.84-51.66L286.21,386a479.39,479.39,0,0,1,24.12,51.56c14.47,37.07,13.89,59.76,9.41,72.82s-12.81,18.76-21.24,22.05-18.41,4.74-30.55-1.83S240,507.77,225.53,470.7a478.37,478.37,0,0,1-17.2-54.26l-33.1,12.92a508.76,508.76,0,0,0,17.47,54.16c16.35,41.89,36.43,66.18,58.47,78.1a71.49,71.49,0,0,0,60.14,3.67Z"/><path class="cls-2" d="M963.59,1076.05c20.26,82.31,21.61,206.07-12.25,214.41S861.23,1188.54,841,1106.23s11.94-107.68,37-113.85,65.35,1.36,85.61,83.67Z"/><path class="cls-3" d="M837.34,1155.29c10.5,30,23.92,60.17,38.38,85.73,10.89,19.26,22.23,35.84,34.42,48.14s27.1,22.92,45.42,18.41,26.59-20.84,31.67-37.39,7.43-36.51,8.14-58.63c1-29.35-1.17-62.29-5.79-93.73l-34.44,8.48c4,28.49,5.83,58.4,5,84.13-.66,20.16-3,37.84-6.6,49.41-2.67,8.68-5.72,12.13-6.5,13.17-1.17-.57-5.48-2.2-11.87-8.65-8.52-8.6-18.86-23.15-28.79-40.7-12.67-22.41-24.9-49.77-34.61-76.84Z"/><path class="cls-3" d="M873.78,975.28a71.53,71.53,0,0,0-47.08,37.63c-11.16,22.44-13.59,53.86-2.84,97.52a511,511,0,0,0,16.89,54.34l34.51-8.49A481.5,481.5,0,0,1,858.08,1102c-9.51-38.64-6-61.06.17-73.42s15.15-16.93,24-19.09,18.87-2.3,30,5.8,24.73,26.31,34.24,65a479,479,0,0,1,10,56l34.5-8.5a508.19,508.19,0,0,0-10.25-56c-10.75-43.66-27.48-70.37-47.77-85.07a71.51,71.51,0,0,0-59.15-11.48Z"/><path class="cls-3" d="M943.16,428.2C754.3,231.44,440.85,225,244.09,413.88A494.48,494.48,0,0,0,92.49,791.43h0c.09,2.15.21,4.3.33,6.45v.18l0,.89c7.19,141.37,55.47,236.85,88.26,343.17l4.18,13.54,13.36,4.73c104.88,37.12,198.29,89.25,339.24,102.23,2.5.25,5,.48,7.5.69a494.48,494.48,0,0,0,383.44-136C1121.56,942.29,1131.15,638,954,440.71l.26-1ZM902.23,467l.24.26C1070.22,642,1064.56,918.85,889.79,1086.6a438,438,0,0,1-339.71,120.51q-3.37-.28-6.75-.62l-.19,0c-124.13-11.42-208.66-56.16-312.59-94.25-33.78-105.33-75-191.58-81.36-315.89l0-.54c-.12-2.24-.23-4.49-.33-6.73h0A438,438,0,0,1,283.14,454.56C457.83,286.89,734.45,292.49,902.23,467Z"/><path class="cls-3" d="M1076.31,22a61.41,61.41,0,0,0-30-19.64c-32.25-9.35-66.89,9.44-75.85,42l.46-1.5A1136.42,1136.42,0,0,1,866,268.54,1150.41,1150.41,0,0,1,424.77,687.36l-25.12,13.47,58.62,106.52,24.58-13.19a1271.8,1271.8,0,0,0,487.2-462.68,1296.1,1296.1,0,0,0,117.42-252l.12-.36.11-.37A60.5,60.5,0,0,0,1083,31.77h0A61.39,61.39,0,0,0,1076.3,22Zm-42.79,36.85,0,0a3.54,3.54,0,0,1,.33,3A1239.86,1239.86,0,0,1,921.81,302.29c-110.09,182-263.47,327.35-441.48,428.19l-4.24-7.72c176.8-100.18,329-244.61,438.19-425a1192.77,1192.77,0,0,0,110-236.89l.25-.74.21-.76c.59-2.15,2.8-3.65,5.79-2.78a4.61,4.61,0,0,1,3,2.33Z"/><path class="cls-3" d="M1342.93,299.81a60.57,60.57,0,0,0-9.44-7l0,0a60.46,60.46,0,0,0-46.71-6.66l-.37.09-.37.11a1296,1296,0,0,0-256.63,107A1271.76,1271.76,0,0,0,547.15,861.15l-14.19,24L637,948.1l14.49-24.55A1150.21,1150.21,0,0,1,1088,499.82a1136.43,1136.43,0,0,1,229.79-95.52l-1.52.4c32.86-7.62,53-41.47,45-74.07a61.52,61.52,0,0,0-18.4-30.82Zm-38.58,41.24a4.65,4.65,0,0,1,2.21,3.05c.74,3-.83,5.16-3,5.67l-.77.18-.75.22a1192.39,1192.39,0,0,0-241.2,100.25C876.08,552.09,725.55,698.29,618.21,870.83l-7.54-4.55c108-173.73,259.56-321,445.9-423.58a1239.79,1239.79,0,0,1,244.8-102.11,3.44,3.44,0,0,1,3,.45h0Z"/><path class="cls-3" d="M1323.87,138.88a60.77,60.77,0,0,0-62.18-9.82l-.35.14-.35.16a1295.35,1295.35,0,0,0-240.47,139.57A1272.06,1272.06,0,0,0,580.37,853.87l-7,19.08,100.8,80.68L687.25,916a1150.6,1150.6,0,0,1,405.3-549.09A1136.1,1136.1,0,0,1,1307.91,242.2l-1.46.59c31.59-11.85,47.19-48,35-79.33a61.45,61.45,0,0,0-17.56-24.58ZM1287.51,182h0a4.66,4.66,0,0,1,1.39,2h0c1.13,2.9-.16,5.23-2.25,6l-.74.27-.71.32a1192.18,1192.18,0,0,0-226.06,130.87A1206.94,1206.94,0,0,0,647.73,860.26l-7.12-5.7a1215.28,1215.28,0,0,1,413.32-540.21,1239.55,1239.55,0,0,1,229.36-133.18,3.92,3.92,0,0,1,4.22.8Z"/><path class="cls-4" d="M1060.78,70.34A1267.71,1267.71,0,0,1,945.93,316.89,1243.59,1243.59,0,0,1,469.52,769.32l-31.43-57.11A1178.67,1178.67,0,0,0,890.15,283.14,1165,1165,0,0,0,997.59,51.85c4.78-17.34,23.21-27.48,40.82-22.37a33,33,0,0,1,19.82,15.85,31.93,31.93,0,0,1,2.55,25Z"/><path class="cls-5" d="M924.64,350.79a552.54,552.54,0,0,0-53-38,1178.69,1178.69,0,0,1-433.5,399.45l31.43,57.11A1243.51,1243.51,0,0,0,924.64,350.79Z"/><path class="cls-3" d="M1060.07,35.57a40.1,40.1,0,0,0-19.69-12.86C1019.1,16.54,996.62,28.83,990.8,50l.11-.37A1157.58,1157.58,0,0,1,884.12,279.49,1171.52,1171.52,0,0,1,434.76,706l-6.28,3.37,38.23,69.47,6.15-3.31A1250.69,1250.69,0,0,0,952,320.54,1276.22,1276.22,0,0,0,1067.46,72.62l0-.1,0-.08a39.4,39.4,0,0,0-7.44-36.87Zm-14.4,5.49a25.76,25.76,0,0,1,6.38,7.66h0a24.83,24.83,0,0,1,2,19.48,1260.63,1260.63,0,0,1-114.16,245A1236.21,1236.21,0,0,1,472.23,759.6l-24.64-44.75A1185.41,1185.41,0,0,0,896.18,286.78,1171.83,1171.83,0,0,0,1004.28,54.1l.06-.19,0-.2c3.73-13.54,18.1-21.52,32.07-17.47a26,26,0,0,1,9.22,4.82Z"/><path class="cls-4" d="M1294,313.34A1268.27,1268.27,0,0,0,1043,418,1243.52,1243.52,0,0,0,571.43,875.49l55.77,33.74a1178.64,1178.64,0,0,1,447.22-434.11,1164.71,1164.71,0,0,1,235.49-97.88c17.53-4.07,28.41-22.06,24-39.88a33,33,0,0,0-15-20.45,32,32,0,0,0-24.88-3.57Z"/><path class="cls-5" d="M1009.8,437A1243.49,1243.49,0,0,0,571.43,875.49l55.77,33.74a1178.62,1178.62,0,0,1,420.1-418.67,552.18,552.18,0,0,0-37.5-53.6Z"/><path class="cls-3" d="M1328.74,315.48a40.06,40.06,0,0,0-6.19-4.6,39.05,39.05,0,0,0-30.34-4.35l-.09,0-.1,0a1274.57,1274.57,0,0,0-252.43,105.25A1250.52,1250.52,0,0,0,565.36,871.9l-3.55,6,67.84,41,3.62-6.14A1171.4,1171.4,0,0,1,1077.82,481.3,1157.66,1157.66,0,0,1,1311.89,384l-.38.1c21.36-5,34.57-26.91,29.28-48.42a40.14,40.14,0,0,0-12-20.21Zm-6.07,14.16a26,26,0,0,1,4.43,9.4c3.47,14.12-5.09,28.16-18.77,31.33l-.2.05-.19.05A1171.11,1171.11,0,0,0,1071,469,1185.4,1185.4,0,0,0,625,899.63l-43.72-26.45a1236.14,1236.14,0,0,1,465.15-449,1261.17,1261.17,0,0,1,249.49-104,24.84,24.84,0,0,1,19.39,2.8h0a25.92,25.92,0,0,1,7.4,6.69Z"/><path class="cls-4" d="M1305.68,160.43a32.29,32.29,0,0,0-33.21-5.32,1268.46,1268.46,0,0,0-235.25,136.54,1243.81,1243.81,0,0,0-430.4,572l53.8,43.07a1179,1179,0,0,1,415.23-562.53,1164.94,1164.94,0,0,1,220.7-127.78c16.85-6.32,25.29-25.58,18.62-42.67a33.11,33.11,0,0,0-9.49-13.29Z"/><path class="cls-5" d="M975.29,397.35q-15-15.63-31.21-30.05A1244.11,1244.11,0,0,0,606.82,863.63l53.8,43.07A1179.35,1179.35,0,0,1,990.18,413.54q-7.29-8.22-14.9-16.16Z"/><path class="cls-3" d="M1310.23,155a39.42,39.42,0,0,0-40.46-6.44l-.09,0-.09,0A1274.38,1274.38,0,0,0,1033.05,286,1250.81,1250.81,0,0,0,600.21,861.19L598.45,866,664,918.43l3.28-9.42A1171.91,1171.91,0,0,1,1080,349.85a1157.41,1157.41,0,0,1,219.37-127l-.36.15c20.53-7.7,30.76-31.2,22.7-51.84A40.17,40.17,0,0,0,1310.24,155Zm-9.09,10.78a26,26,0,0,1,7.46,10.46h0c5.29,13.55-1.37,28.58-14.52,33.51l-.18.07-.18.08a1171.55,1171.55,0,0,0-222,128.55,1185.89,1185.89,0,0,0-414.28,556.6l-42.13-33.72a1236.68,1236.68,0,0,1,426.14-564,1260.75,1260.75,0,0,1,233.8-135.72,25.2,25.2,0,0,1,25.94,4.21Z"/><path class="cls-6" d="M909.32,1106.93a466.25,466.25,0,1,1,143.27-326.81,466.27,466.27,0,0,1-143.27,326.81Z"/><path class="cls-2" d="M922.81,447.72a466.22,466.22,0,0,0-757.28,122.4c82.75,44.66,175.59,156.31,222.54,362.06,29.45,129.11,101.08,237.51,224.26,303.92A466.23,466.23,0,0,0,922.81,447.74Z"/><path class="cls-7" d="M853.23,403.33a454.35,454.35,0,0,0-52.5-46.83A466.19,466.19,0,0,0,167.19,566.69c-28.05,134.89,15.59,279.67,115.76,384,77.86,81.11,182.57,130.06,291.1,136.09s212-31.36,287.6-103.95,117.22-174.42,115.64-283.1S931.08,484.44,853.23,403.33Z"/><path class="cls-8" d="M853.23,403.33a454.27,454.27,0,0,0-52.49-46.82A466.19,466.19,0,0,0,167.19,566.69c-.28,1.31-.53,2.62-.79,3.92,82.53,45,174.89,156.53,221.67,361.57,9.83,43.07,24.38,83.82,43.94,121.5,145.91,61.58,314.79,39.41,429.64-70.82,157.48-151.15,153.71-410.62-8.42-579.53Z"/><path class="cls-6" d="M120.66,790.24c5.57,139.63,53.17,232.54,87.41,343.54,109.51,38.75,200.39,90.12,339.67,101.41l-235-201.84Z"/><path class="cls-1" d="M312.74,1033.3a78.09,78.09,0,0,0-83.53-19.11,78.08,78.08,0,0,0-82.92-66.36c18,64.23,42.08,122.12,61.77,186,63,22.29,119.84,48.74,183.27,69.34a78.07,78.07,0,0,0-62.9-85.58,78.09,78.09,0,0,0-15.69-84.26Z"/><path class="cls-7" d="M648,711.54a10.57,10.57,0,1,0-15.25,14.64A1311.8,1311.8,0,0,1,796,934.91a10.57,10.57,0,1,0,17.89-11.28A1333.27,1333.27,0,0,0,648,711.54Z"/><path class="cls-7" d="M537,818.05A1179.74,1179.74,0,0,0,318.23,639a10.57,10.57,0,0,0-11.33,17.85A1158.52,1158.52,0,0,1,521.76,832.69,10.57,10.57,0,1,0,537,818.05Z"/><path class="cls-6" d="M358.1,888.49a7.4,7.4,0,0,0-.57-.55A1004.48,1004.48,0,0,0,177.22,758.77a10.57,10.57,0,1,0-10.34,18.44A983.75,983.75,0,0,1,343.39,903.66a10.57,10.57,0,0,0,14.71-15.17Z"/><path class="cls-9" d="M922.2,447.09A466.22,466.22,0,0,0,406.14,340.64C536,343.3,661.23,477.51,698.8,659.3c30.14,145.84,140.16,273.24,299,330.79a466.2,466.2,0,0,0-75-542.36Z"/><path class="cls-10" d="M853.23,403.32a455.29,455.29,0,0,0-52.5-46.83,466.23,466.23,0,0,0-394.59-15.85C536,343.3,661.23,477.51,698.8,659.3c23.39,113.17,94.89,215.22,200,282.17,118.52-153.84,102.63-383.79-45.52-538.14Z"/><path class="cls-7" d="M695.12,323.05q-3.79-3.93-7.81-7.66a466.25,466.25,0,0,0-292.12,30A195.27,195.27,0,0,0,689.63,599.33c77.8-74.68,80.34-198.3,5.66-276.1l-.17-.18Z"/><path class="cls-8" d="M695.12,323.05q-3.78-3.94-7.79-7.64a465.7,465.7,0,0,0-281.19,25.23C522.45,343,635.11,451,684.31,604.23c1.79-1.6,3.57-3.23,5.32-4.9,77.8-74.68,80.34-198.3,5.66-276.1Z"/><path class="cls-3" d="M927.9,442.84C747,254.33,447.24,248.19,258.73,429.14a473.31,473.31,0,0,0-145.11,361.4c.1,2.32.21,4.64.35,7v.36c7,137,53.93,229.64,87.36,338l1,3.38,3.34,1.18c106.92,37.84,197.51,88.54,334.15,101.13h0c2.43.24,4.85.45,7.27.66a473.31,473.31,0,0,0,367-130.2c187.46-179.93,194.4-477.22,16.54-665.9l.09-.25Zm-10.49,9.46.31.32c175.67,183,169.72,473.57-13.29,649.24a459.19,459.19,0,0,1-356.11,126.32q-3.54-.3-7.08-.64h0c-132.39-12.18-220.75-61-327.51-99.12C180,1020.23,134.85,930,128.06,797.3v-.06l0-.24c-.14-2.35-.25-4.7-.35-7h0A459.14,459.14,0,0,1,268.5,439.31c182.9-175.57,473.21-169.71,648.91,13Z"/><path class="cls-9" d="M870.82,762a10.57,10.57,0,0,0-16.14,13.59,1449.06,1449.06,0,0,1,102.17,159.9,10.58,10.58,0,0,0,18.53-10.2A1472.4,1472.4,0,0,0,871.72,763.06a11.44,11.44,0,0,0-.9-1.06Z"/><path class="cls-8" d="M845.88,564.89a1578,1578,0,0,0-173.79-162,10.58,10.58,0,1,0-13.22,16.51,1556.06,1556.06,0,0,1,223,218.66,10.57,10.57,0,0,0,16.24-13.54Q872.77,594,845.88,564.89Z"/><path class="cls-2" d="M651,1099.54a46.62,46.62,0,1,1,14.32-32.67A46.6,46.6,0,0,1,651,1099.54Z"/><path class="cls-2" d="M543.92,971.43a24.46,24.46,0,1,1,7.51-17.13,24.45,24.45,0,0,1-7.51,17.13Z"/><path class="cls-3" d="M546.65,497.74A72.47,72.47,0,0,0,444,495.64l-26.25,25.2A72.61,72.61,0,1,0,518.29,625.61l26.25-25.2a72.46,72.46,0,0,0,2.11-102.67Z"/><path class="cls-1" d="M539,531.14a23.44,23.44,0,1,0-.68,33.15,23.44,23.44,0,0,0,.68-33.15Z"/><path class="cls-3" d="M754.13,713.9a72.45,72.45,0,0,0-102.67-2.1L625.21,737A72.61,72.61,0,0,0,725.77,841.78L752,816.58a72.47,72.47,0,0,0,2.1-102.68Z"/><path class="cls-1" d="M746.52,747.31a23.44,23.44,0,1,0-.68,33.14,23.44,23.44,0,0,0,.68-33.14Z"/><path class="cls-1" d="M457.86,683.44a16.09,16.09,0,0,0-22.79-.47l-13.13,12.61A93.44,93.44,0,1,0,551.35,830.4l13.13-12.6a16.09,16.09,0,0,0,.46-22.8Z"/><path class="cls-11" d="M524,752.39l0,.05S513,785,481.71,793c-8.85,35.93-46.57,48-46.57,48a93.47,93.47,0,0,0,116.2-10.57l13.13-12.61a16.09,16.09,0,0,0,.47-22.79Z"/><path class="cls-3" d="M555.79,785.47l0,0s-2.49,27.6-31.09,29.85c.46,28.58-40.7,41-40.7,41a93.11,93.11,0,0,0,67.39-26l13.13-12.6a16.09,16.09,0,0,0,.46-22.8Z"/><path class="cls-3" d="M467,693l0,0s-27.68,1.36-31.1,29.85c-28.53-1.63-42.68,39-42.68,39a93.13,93.13,0,0,1,28.73-66.26L435,683a16.09,16.09,0,0,1,22.8.46Z"/><path class="cls-3" d="M513,730.73l-10.17,9.76,57,59.39a8.91,8.91,0,0,1-.25,12.84l-13.13,12.6a86.3,86.3,0,0,1-122.16-2.5c-1.16-1.22-2.27-2.47-3.35-3.72l-10.2,9.78c1.1,1.25,2.22,2.49,3.38,3.7a100.61,100.61,0,0,0,142.09,2.91l13.13-12.6a23.28,23.28,0,0,0,.67-32.77Z"/><path class="cls-3" d="M463,678.57a23.26,23.26,0,0,0-32.76-.68l-13.13,12.6a100.61,100.61,0,0,0-2.92,142.09c1.17,1.21,2.37,2.37,3.57,3.53l10.19-9.79c-1.23-1.12-2.42-2.29-3.59-3.5a86.31,86.31,0,0,1,2.5-122.16L440,688.05a8.92,8.92,0,0,1,12.84.28l57,59.39L520,738Z"/></g></g></svg>