<svg xmlns="http://www.w3.org/2000/svg" xmlns:xlink="http://www.w3.org/1999/xlink" viewBox="0 0 2724.72 1800"><defs><style>.cls-1{fill:url(#Безымянный_градиент_24);}.cls-10,.cls-11,.cls-12,.cls-13,.cls-14,.cls-15,.cls-16,.cls-17,.cls-18,.cls-19,.cls-2,.cls-20,.cls-21,.cls-22,.cls-23,.cls-24,.cls-25,.cls-26,.cls-27,.cls-28,.cls-29,.cls-3,.cls-30,.cls-31,.cls-32,.cls-33,.cls-34,.cls-35,.cls-36,.cls-37,.cls-38,.cls-39,.cls-4,.cls-40,.cls-41,.cls-42,.cls-43,.cls-5,.cls-6,.cls-7,.cls-8,.cls-9{fill-rule:evenodd;}.cls-2,.cls-4{opacity:0.3;}.cls-2{fill:url(#GradientFill_6);}.cls-3,.cls-6,.cls-7,.cls-8{fill:#fff;}.cls-4{fill:url(#GradientFill_5);}.cls-5{fill:#9cefec;}.cls-5,.cls-7{opacity:0.53;}.cls-6{opacity:0.45;}.cls-8{opacity:0.38;}.cls-9{fill:#fcf6af;opacity:0.66;}.cls-10{fill:#83cfe6;}.cls-11{fill:#68b9d1;}.cls-12,.cls-41{fill:#6c8005;}.cls-13{fill:#7f9410;}.cls-14{fill:#b5d932;}.cls-15{fill:#c1e739;}.cls-16{fill:#d7f666;}.cls-16,.cls-27{opacity:0.55;}.cls-17{fill:#a0be0a;}.cls-18{fill:#8ba700;}.cls-19{fill:#831405;}.cls-20{fill:#a77300;}.cls-21{fill:#8b6000;}.cls-22{fill:#9eba29;}.cls-23{fill:#8aa21a;}.cls-24{fill:#ffcc63;}.cls-25{fill:#b2d12c;}.cls-26{fill:#d3f558;opacity:0.36;}.cls-27{fill:#ffde9e;}.cls-28{fill:#fbc657;}.cls-29{fill:#839b0c;}.cls-30{fill:#590e04;}.cls-31{fill:#6b8002;}.cls-32{fill:#936500;}.cls-33{fill:#694800;}.cls-34{fill:#677b04;}.cls-35{fill:#ffb951;}.cls-36{fill:#b1d729;}.cls-36,.cls-38{opacity:0.34;}.cls-37{fill:#fab144;}.cls-38{fill:#ffd293;}.cls-39{fill:#647800;}.cls-40,.cls-42{fill:#4e5e00;}.cls-41,.cls-42{opacity:0.26;}.cls-43{fill:#6f8400;}</style><linearGradient id="Безымянный_градиент_24" x1="1362.36" x2="1362.36" y2="1739.54" gradientUnits="userSpaceOnUse"><stop offset="0" stop-color="#56deff"/><stop offset="0.11" stop-color="#7fe6ff"/><stop offset="0.25" stop-color="#a6eeff"/><stop offset="0.38" stop-color="#c6f4ff"/><stop offset="0.52" stop-color="#dff9ff"/><stop offset="0.67" stop-color="#f1fcff"/><stop offset="0.82" stop-color="#fcfeff"/><stop offset="1" stop-color="#fff"/></linearGradient><linearGradient id="GradientFill_6" y1="354.61" x2="1569.31" y2="354.61" gradientUnits="userSpaceOnUse"><stop offset="0" stop-color="#19d4ff"/><stop offset="1" stop-color="#fff"/></linearGradient><linearGradient id="GradientFill_5" x1="4028.22" y1="160.03" x2="-1416.03" y2="160.03" gradientUnits="userSpaceOnUse"><stop offset="0" stop-color="#fff6ae"/><stop offset="1" stop-color="#fff"/></linearGradient></defs><g id="Layer_2" data-name="Layer 2"><g id="Vector_illustration_of_field_landscape_with_hills_valley_forest_trees_dales_and_mountains_on_the_horizon._Summer_green_rural_landscape_with_beautiful_view." data-name="Vector illustration of field landscape with hills, valley, forest, trees, dales and mountains on the horizon. Summer green rural landscape with beautiful view."><g id="sky"><rect class="cls-1" width="2724.71" height="1739.54"/><path class="cls-2" d="M0,291q698.58,41.3,1569.31,127.16Q835,405,0,381.16Z"/><path class="cls-3" d="M0,961.22q993.45-26.78,1782.25,63.4Q1111.81,1006.64,0,1059.9V961.22Zm0,106v61.74H1679.13Q1499.85,1023,0,1067.2Z"/><path class="cls-4" d="M0,94.13c595.46,42.15,1291.62,79.74,2080.26,112.78Q745.16,173.13,0,175.67v49.92q953.27,63.15,2724.71,94.47V10.54Q2521.6,5,2320.29,0H0Z"/><path class="cls-5" d="M890,840.81c-256.41-17-394.81-25-394.81-25H1170Q813.07,773.87,0,779.39V856.8Q591.65,852.68,890,840.81Z"/><path class="cls-3" d="M2724.71,193.43c-39.19,22-73.72,48.41-101.73,78.84-124.42-14.06-250.88,15.94-333.85,79.2q-125.22,12.19-189.1,68.34c-72.47-33-168-33-240.46,0q-255-43.93-403.88,20.19h1269Z"/><path class="cls-6" d="M768,1391.48c82.28-13.17,169.84-23.91,263.41-31,87.68-6.68,2609.31,79.22,932.27-220.37-97.47-17.4,73-197.7,589.89,2.8,60.79,23.58,115.93,35.93,171.13,45V683.21c-120.89,31.58-222.24,70.81-290.52,119.56-211.33,150.85-547.4-125.08-884.71-120.63-689.45,9.09-173.9,361.75-1027,490.58C244.62,1214.69,171.78,1030.46,0,839.3v552.18Z"/><path class="cls-3" d="M814.32,892.23H298.05q31.05-23.7,88.64-18.74,52-45,80.15-14.2,23-18.82,50.92-12.5c22.6-32.35,55.9-51,91-51s68.4,18.66,91,51q34.68,1.56,36.78,19.87,36.44-7,52.8,14.76Q805.7,883,814.32,892.23Z"/><path class="cls-7" d="M1734.05,649.38c9.77-13.33,136.75-24.19,216.89-19q45.74-65.42,148.72-37.93c47.09-110.12,251.68-104.48,268.93,22.32,60.86,1.57,142,8.73,189.62,30.44C2596.14,665.79,1750.41,672.55,1734.05,649.38Z"/><path class="cls-8" d="M1010.39,689.4c-15.81-36.38-52.32-51.06-124.74-44-6.83-60-59.35-71.39-115.41-38-47.6-63.31-121.34-67.64-205.6-26.16,19.9-96.41-56.16-126.09-130.78-110.64-63.57-54.25-150.67-79.82-237.33-69.7C117.79,410.06,47,447.88,0,505.05V689.4Z"/><path class="cls-9" d="M1274.94,1165.39l128.82-7.08q508.76-4.89,1321,16.6v37.81q-273.57,8.79-571.42,7.7C1927.41,1221.26,1472.4,1222.4,1274.94,1165.39Z"/></g><g id="mountains"><polygon class="cls-10" points="2180.11 1149.86 2724.71 1149.86 2724.71 1053.79 2507.45 938.55 2180.11 1149.86"/><polygon class="cls-3" points="2724.71 1053.79 2507.45 938.55 2538.03 963.3 2516.18 971.79 2569.25 1003.69 2555.41 1017.38 2657.88 1044.2 2651.8 1081.59 2689.66 1074.09 2657.88 1109.46 2650.85 1125.31 2724.71 1119.4 2724.71 1053.79"/><polygon class="cls-11" points="2146.95 1197.59 2314.82 1062.89 2428.55 1088.07 2522.65 1096.58 2566.38 1098.47 2724.71 1053.79 2724.71 1212.12 2583.02 1212.62 2146.95 1197.59"/><path class="cls-10" d="M2497.54,1139.36c-148.85-48.48-292-109.32-426.29-176.06l-307.17,138.88-66.34-16.3q-360,209.2-468.7,242.28l1268.5-37.72Z"/><polygon class="cls-11" points="1239.86 1324.65 1295.97 1302.02 1598.56 1218.76 1728.13 1240.83 1932.79 1179.73 1861.52 1145.73 1983.45 1161.3 2264.27 1160.61 2483.29 1136.11 2489.73 1293.6 1239.86 1324.65"/><polygon class="cls-3" points="2071.25 963.3 2268.32 1053.74 2457.29 1125.91 2404.13 1125.91 2191.75 1098.95 2225.72 1082.56 2128.32 1051.2 2180.1 1044.33 2080.8 995.14 2071.25 963.3"/><polygon class="cls-3" points="1764.07 1102.18 1697.74 1085.88 1679.13 1096.68 1721.82 1121.87 1784.54 1125.91 1751.28 1112.93 1766.96 1112.93 1764.07 1102.18"/><polygon class="cls-10" points="401.53 1368.56 1467.63 1368.56 882.41 1157.26 401.53 1368.56"/><polygon class="cls-3" points="1467.63 1368.56 882.41 1157.26 979.95 1223.18 937.98 1223.18 1069.55 1262.91 999.23 1271.84 1094.45 1300.29 1150.07 1292.79 1103.39 1328.16 1093.07 1344.01 1253.28 1335.3 1302.05 1368.56 1467.63 1368.56"/><polygon class="cls-11" points="433.22 1354.64 599.44 1281.6 718.49 1315.28 904.73 1315.28 897.94 1340.9 1099.46 1334.19 1087.6 1353.14 1103.39 1396.22 1029.97 1414.69 433.22 1354.64"/></g><g id="forest"><path class="cls-12" d="M2724.72,1049.73q-172.3,37.45-239.42,85.09-78.23,49.61-264.78,43.15-215.43,5.17-346.47,57.26a545.14,545.14,0,0,1-202.77,19.08q-171.43,52.32-424.24,73.85H2724.72Z"/><path class="cls-13" d="M0,1413.5l.48-212.38c133.84-36.1,227,4.31,340.37,65,63.62,34.05,318,28.5,392.1,77,81.18,53.09,398.3-7.25,401.51-4.51L838.8,1441.11Z"/></g><g id="field"><path class="cls-14" d="M2724.71,1535.44V1260c-828.66-19.47-1883.08,54.91-2456.07,275.46Z"/><polygon class="cls-15" points="2132.89 1535.44 2061.91 1264.14 2235.51 1259.35 2393.99 1535.44 2132.89 1535.44"/><polygon class="cls-15" points="1533.98 1535.44 1719.24 1281.43 1859.42 1273.06 1767.35 1535.44 1533.98 1535.44"/><polygon class="cls-15" points="1430.2 1305.08 1175.76 1535.44 981.75 1535.44 1297.63 1318.61 1430.2 1305.08"/><polygon class="cls-15" points="966.73 1363.13 684.03 1535.44 525.78 1535.44 827.2 1387.16 966.73 1363.13"/><polygon class="cls-15" points="2609.39 1257.9 2724.71 1367.2 2724.71 1535.44 2683.63 1535.44 2456.01 1257.01 2609.39 1257.9"/><path class="cls-16" d="M696.44,1424.78l-38-3.19q892.3-185.85,2066.25-161.61v18.13C1898.88,1269.88,1239.15,1315.2,696.44,1424.78Z"/><polygon class="cls-17" points="1535.56 1367.14 1566.71 1440.98 1559.81 1456.93 1569.55 1447.73 1588.34 1492.27 1487.73 1492.27 1486.61 1490.56 1535.56 1367.14"/><polygon class="cls-18" points="1535.56 1367.14 1538.32 1373.68 1538.32 1492.27 1487.73 1492.27 1486.61 1490.56 1535.56 1367.14"/><path class="cls-17" d="M1432.9,1406.58l21.83,39.78-4.84,8.59,6.83-5,13.4,24.41c1.09,1.69,5.11,10.1,8.7,17.86h-89.53c2.14-5,4.42-9.7,6.23-13.83l16.14,10-13.07-15.42Z"/><path class="cls-18" d="M1432.9,1406.58l1.93,3.52v82.17h-45.54c2.14-5,4.42-9.7,6.23-13.83l16.14,10-13.07-15.42Z"/><path class="cls-17" d="M1602.15,1441.5l9.16,16.7-2,3.6,2.87-2.08,5.62,10.25c.6.92,3.29,6.66,5,10.31l-1.88,2.62,2.63-1.27c.58,1.51.92,3.88.63,4.12l-6.48,5.47,7.14-3.73c.15-.08.36,1,.36,1.11a7.34,7.34,0,0,1-1,3.67h-41.79a9.56,9.56,0,0,1-.62-1.24c-2.25-5.42,2.3-13.75,4.77-19.37l6.77,4.21-5.49-6.47Z"/><path class="cls-18" d="M1602.15,1441.5l.81,1.48v49.29h-20.64a9.56,9.56,0,0,1-.62-1.24c-2.25-5.42,2.3-13.75,4.77-19.37l6.77,4.21-5.49-6.47Z"/><path class="cls-17" d="M1386.59,1429.2l16.83,30.69-3.73,6.62,5.27-3.82,10.33,18.83c.71,1.08,3,5.76,5.31,10.75h-50.49l-10-11.79,26.47-51.28Zm-32.3,63.07H1370l-12.27-7.64C1356.73,1487,1355.51,1489.55,1354.29,1492.27Z"/><path class="cls-18" d="M1386.59,1429.2l1.49,2.72v60.35h-18l-10-11.79,26.47-51.28Zm-32.3,63.07H1370l-12.27-7.64C1356.73,1487,1355.51,1489.55,1354.29,1492.27Z"/><path class="cls-17" d="M2056.08,1337.12l15.35,47.52-3.4,10.26,4.8-5.92,9.42,29.16c1,2.63,5.51,19,8.29,29.37l-3.14,7.46,4.39-3.63c1,4.28,1.55,11,1.07,11.74L2082,1478.63l12-10.62c.25-.23.6,2.71.6,3.16,0,21-19.15,35.13-38.48,37.6-21.5-6.06-31-17.34-34.27-30.67-3.76-15.44,3.85-39.14,8-55.15l11.34,12-9.19-18.42Z"/><polygon class="cls-19" points="2053.73 1478.63 2053.73 1465.93 2046.86 1458.26 2053.73 1478.63"/><path class="cls-18" d="M2056.08,1337.12l1.36,4.21v167.05c-.45.13-.9.27-1.36.39-21.5-6.06-31-17.34-34.27-30.67-3.76-15.44,3.85-39.14,8-55.15l11.34,12-9.19-18.42Z"/><polygon class="cls-20" points="2051.86 1521.95 2058.5 1522.28 2059.06 1446.07 2067.08 1427.55 2058.85 1438.48 2057.88 1404.69 2062.17 1397.95 2057.77 1401.99 2057.34 1385.68 2055.28 1417.56 2049.63 1413.4 2054.97 1422.42 2054.97 1422.4 2051.86 1521.95"/><polygon class="cls-21" points="2051.86 1521.95 2056.11 1522.16 2057.34 1385.68 2055.28 1417.56 2049.63 1413.4 2054.97 1422.42 2054.97 1422.4 2051.86 1521.95"/><path class="cls-17" d="M2144.8,1418.17l12.58,28.12-2.78,6.07,3.93-3.5,7.73,17.26c.82,1.55,4.52,11.22,6.8,17.38l-2.58,4.42,3.6-2.15c.8,2.53,1.27,6.53.87,7l-8.9,9.2,9.81-6.29c.21-.13.49,1.61.49,1.87,0,12.43-15.7,20.79-31.55,22.26-17.63-3.59-25.43-10.27-28.1-18.16-3.09-9.13,3.16-23.16,6.55-32.64l9.3,7.11-7.53-10.9Z"/><polygon class="cls-19" points="2142.87 1501.92 2142.87 1494.41 2137.24 1489.86 2142.87 1501.92"/><path class="cls-18" d="M2144.8,1418.17l1.11,2.49v98.87l-1.11.23c-17.63-3.59-25.43-10.27-28.1-18.16-3.09-9.13,3.16-23.16,6.55-32.64l9.3,7.11-7.53-10.9Z"/><polygon class="cls-20" points="2141.34 1527.56 2146.79 1527.76 2147.25 1482.65 2153.82 1471.69 2147.07 1478.15 2146.28 1458.16 2149.79 1454.17 2146.19 1456.56 2145.83 1446.9 2144.15 1465.78 2139.51 1463.31 2143.89 1468.65 2143.89 1468.64 2141.34 1527.56"/><polygon class="cls-21" points="2141.34 1527.56 2144.82 1527.69 2145.83 1446.9 2144.15 1465.78 2139.51 1463.31 2143.89 1468.65 2143.89 1468.64 2141.34 1527.56"/><path class="cls-17" d="M2490.67,1382.64l17.08,52.89L2504,1447l5.34-6.58,10.49,32.46c1.12,2.93,6.14,21.11,9.23,32.7l-3.5,8.3,4.9-4c1.08,4.77,1.72,12.3,1.18,13.07l-12.09,17.32,13.32-11.83c.28-.26.67,3,.67,3.52,0,23.36-21.32,39.1-42.84,41.86-23.94-6.75-34.54-19.31-38.16-34.15-4.19-17.18,4.29-43.57,8.9-61.4l12.63,13.37L2463.81,1471Z"/><polygon class="cls-19" points="2488.05 1540.18 2488.05 1526.04 2480.4 1517.5 2488.05 1540.18"/><path class="cls-18" d="M2490.67,1382.64l1.51,4.68v186l-1.51.44c-23.94-6.75-34.54-19.31-38.16-34.15-4.19-17.18,4.29-43.57,8.9-61.4l12.63,13.37L2463.81,1471Z"/><polygon class="cls-20" points="2485.97 1588.41 2493.36 1588.77 2493.99 1503.92 2502.91 1483.31 2493.75 1495.47 2492.67 1457.86 2497.44 1450.35 2492.55 1454.85 2492.07 1436.69 2489.78 1472.19 2483.49 1467.55 2489.43 1477.6 2489.43 1477.57 2485.97 1588.41"/><polygon class="cls-21" points="2485.97 1588.41 2490.7 1588.64 2492.07 1436.69 2489.78 1472.19 2483.49 1467.55 2489.43 1477.6 2489.43 1477.57 2485.97 1588.41"/><path class="cls-22" d="M0,1743.12v-368.4q940.05-18.2,1831.09,154.46Q265.83,1700.78,0,1743.12Z"/><path class="cls-23" d="M682.29,1654.56c-174.59,21.84-357.82,37.61-506.73,57.91,209.23-129.69,445.32-262.79,608.73-319.15,78.53,6.25,125.27,10.06,202.24,18.69C886.93,1452.89,780.18,1541.63,682.29,1654.56Z"/><path class="cls-24" d="M710.49,1654.56c-174.58,21.84-336.33,37.61-485.23,57.91,209.23-129.69,416.22-261.37,579.63-317.72,78.53,6.24,132.87,8.63,209.85,17.26C915.14,1452.89,808.39,1541.63,710.49,1654.56Z"/><polygon class="cls-25" points="1478.88 1468.68 1197.06 1431.2 1121.57 1607.81 1495.4 1556.46 1478.88 1468.68"/><path class="cls-25" d="M0,1402.81v189.82q291.48-157.86,567.73-211.3-263-10.62-477.8-7.92Z"/><path class="cls-26" d="M1747.28,1530.68c37-3.72,63.53-5.4,63.53-5.4-275.88-55.85-505.93-87.55-794.58-113.13-19.44,6.89-38.47,16.45-57.31,27.27C1220.11,1459.44,1480.92,1487.63,1747.28,1530.68Z"/><path class="cls-26" d="M804.36,1394.92c-255.72-17.59-538.78-26-804.36-20.2v41.4c258-8.07,466.51-7.26,729.81,8.26Z"/><path class="cls-27" d="M801.76,1394.74q-29.65,12.16-73.15,29.57,90.36,4.51,230.24,15.14,39.76-22.14,57.86-27.44Q923.65,1402.32,801.76,1394.74Z"/><path class="cls-28" d="M264.32,1688.22l265.56-160.75,237,66.65L714,1650.47C566.3,1667.61,417.12,1681.72,264.32,1688.22Z"/><path class="cls-29" d="M1226.23,1298.18l26.64,85.74-5.9,18.51,8.33-10.68,16.35,52.62c1.74,4.75,9.56,34.22,14.39,53l-5.46,13.46,7.64-6.56c1.69,7.74,2.68,19.93,1.84,21.19l-18.86,28.07,20.77-19.18c.44-.41,1,4.9,1,5.71,0,37.87-33.23,63.38-66.77,67.85-37.33-10.94-53.84-31.3-59.48-55.35-6.53-27.85,6.69-70.62,13.86-99.51l19.69,21.65-16-33.23Z"/><polygon class="cls-30" points="1222.16 1553.53 1222.16 1530.62 1210.23 1516.77 1222.16 1553.53"/><path class="cls-31" d="M1226.23,1298.18l2.36,7.59v301.44c-.77.24-1.56.47-2.35.7-37.33-10.94-53.84-31.3-59.48-55.35-6.53-27.85,6.69-70.62,13.86-99.51l19.69,21.65-16-33.23Z"/><polygon class="cls-32" points="1218.92 1631.7 1230.44 1632.29 1231.41 1494.77 1245.32 1461.35 1231.04 1481.07 1229.36 1420.11 1236.8 1407.93 1229.17 1415.23 1228.41 1385.79 1224.85 1443.33 1215.04 1435.82 1224.31 1452.1 1224.31 1452.06 1218.92 1631.7"/><polygon class="cls-33" points="1218.92 1631.7 1226.28 1632.08 1228.41 1385.79 1224.85 1443.33 1215.04 1435.82 1224.31 1452.1 1224.31 1452.06 1218.92 1631.7"/><path class="cls-29" d="M1329.16,1463l18.67,46.18-4.13,10,5.84-5.75,11.45,28.35c1.23,2.56,6.71,18.43,10.09,28.55l-3.82,7.25,5.35-3.53c1.18,4.17,1.88,10.74,1.29,11.41l-13.22,15.12,14.56-10.33c.31-.22.73,2.64.73,3.08,0,20.4-23.29,34.14-46.8,36.55C1303,1624,1291.44,1613,1287.48,1600c-4.58-15,4.69-38,9.72-53.61l13.8,11.67-11.18-17.9Z"/><polygon class="cls-30" points="1326.31 1600.54 1326.31 1588.2 1317.95 1580.74 1326.31 1600.54"/><path class="cls-31" d="M1329.16,1463l1.66,4.09v162.38l-1.65.38C1303,1624,1291.44,1613,1287.48,1600c-4.58-15,4.69-38,9.72-53.61l13.8,11.67-11.18-17.9Z"/><polygon class="cls-32" points="1324.04 1642.65 1332.11 1642.98 1332.79 1568.89 1342.54 1550.89 1332.53 1561.51 1331.36 1528.67 1336.57 1522.11 1331.22 1526.04 1330.69 1510.18 1328.2 1541.18 1321.32 1537.13 1327.82 1545.9 1327.82 1545.88 1324.04 1642.65"/><polygon class="cls-33" points="1324.04 1642.65 1329.2 1642.86 1330.69 1510.18 1328.2 1541.18 1321.32 1537.13 1327.82 1545.9 1327.82 1545.88 1324.04 1642.65"/><path class="cls-29" d="M1003.69,1454.74l20.54,53.78-4.55,11.61,6.43-6.69,12.61,33c1.34,3,7.38,21.47,11.1,33.25l-4.21,8.44,5.89-4.11c1.3,4.86,2.07,12.51,1.42,13.3l-14.54,17.6,16-12c.34-.25.8,3.08.8,3.58,0,23.76-25.63,39.76-51.5,42.57-28.79-6.86-41.53-19.64-45.88-34.72-5-17.48,5.16-44.31,10.69-62.43l15.18,13.58-12.29-20.84Z"/><polygon class="cls-30" points="1000.55 1614.92 1000.55 1600.55 991.35 1591.86 1000.55 1614.92"/><path class="cls-31" d="M1003.69,1454.74l1.82,4.76v189.09c-.6.16-1.2.3-1.81.45-28.79-6.86-41.53-19.64-45.88-34.72-5-17.48,5.16-44.31,10.69-62.43l15.18,13.58-12.29-20.84Z"/><polygon class="cls-32" points="998.05 1663.96 1006.93 1664.33 1007.68 1578.06 1018.41 1557.1 1007.39 1569.46 1006.1 1531.22 1011.84 1523.59 1005.95 1528.17 1005.37 1509.7 1002.63 1545.79 995.06 1541.08 1002.21 1551.29 1002.21 1551.27 998.05 1663.96"/><polygon class="cls-33" points="998.05 1663.96 1003.73 1664.2 1005.37 1509.7 1002.63 1545.79 995.06 1541.08 1002.21 1551.29 1002.21 1551.27 998.05 1663.96"/><path class="cls-23" d="M2724.71,1800V1529.91C1785.94,1423.53,919.62,1696.36,0,1694.55V1800Z"/><path class="cls-13" d="M2418.1,1800c-76.47-139.83-220.49-229.31-354.23-290.36l-177.89,10c106.1,39.37,277.58,216.7,288.14,280.4Z"/><path class="cls-13" d="M1522.41,1553.42c39,55.84,58.34,192.3,34.82,246.57h296c-8.25-97.14-125.33-226.81-162.22-264.11Z"/><path class="cls-13" d="M1152.36,1598.35C1102.56,1619.66,983.2,1732,936.87,1800h265c31-86,45.8-136.24,113.16-222Z"/><path class="cls-13" d="M560.81,1665.63c-29,9.89-136.23,59.21-216.19,134.36h275c29.43-49.5,89.91-124,155.22-155.52Z"/><path class="cls-13" d="M2311.16,1505.47c109.61,32.85,317.31,170.06,345.9,294.52h67.65l-.42-188.91c-56.13-55-118.14-82.57-174-96.78Z"/><path class="cls-13" d="M0,1694.55V1800H61.16c26.55-39.84,117.17-96.06,184.7-111.09Z"/><path class="cls-34" d="M2304.52,1800c-98.58-128.85-249.2-227.65-384.66-282.69-28.55,2.2-65,4.29-103.88,8.07-71.75,7-151.5,16.79-203.9,22.39,77.05,38.56,106.88,164.7,108.22,252.23Z"/><path class="cls-35" d="M2245.17,1800c-97.34-128.75-221.54-225.48-357-280.52-81.27,6.24-229.68,19.66-310.44,28.29,77,38.56,106.89,164.7,108.22,252.23Z"/><path class="cls-36" d="M2724.71,1575.47v-45.56c-286.73-32.49-558.53-29.58-835.32-10,30.2,12.51,58.52,26.86,87.86,42.62C2245.24,1545.57,2427.63,1548.08,2724.71,1575.47Z"/><path class="cls-37" d="M2084.11,1634.56q98,82.55,165,165.43H1684.86l-4.22-62.68Z"/><path class="cls-38" d="M1888.4,1519.56c-136.61,10.2-170.66,15.26-310.67,28.2,19.76,10.62,34.42,24.8,47,40.42,136.14-13.53,210.81-18.93,352-25.88A756.89,756.89,0,0,0,1888.4,1519.56Z"/><path class="cls-36" d="M1577.73,1547.37C1034.57,1602.65,554.35,1695.64,0,1694.55v24.28c560.09,13.54,1070.2-79.79,1624.05-131.35C1613.37,1572.2,1597.29,1559.09,1577.73,1547.37Z"/><polygon class="cls-39" points="2572.57 1476.85 2625.48 1667.55 2613.77 1708.72 2630.32 1684.98 2662.23 1799.99 2491.31 1799.99 2489.41 1795.56 2572.57 1476.85"/><polygon class="cls-40" points="2572.57 1476.85 2577.26 1493.74 2577.26 1799.99 2491.31 1799.99 2489.41 1795.56 2572.57 1476.85"/><path class="cls-39" d="M2398.17,1578.7l37.08,102.73-8.21,22.18,11.6-12.79,22.76,63c1.85,4.35,8.68,26.07,14.79,46.12h-152.1c3.63-12.81,7.5-25.06,10.58-35.72l27.41,25.94-22.2-39.82Z"/><path class="cls-40" d="M2398.17,1578.7l3.28,9.1V1800h-77.36c3.63-12.81,7.5-25.06,10.58-35.72l27.41,25.94-22.2-39.82Z"/><path class="cls-39" d="M2685.7,1668.89l15.56,43.1-3.45,9.31,4.87-5.37,9.55,26.46c1,2.39,5.59,17.2,8.41,26.65l-3.19,6.76,4.46-3.29c1,3.89,1.57,10,1.07,10.65l-11,14.11,12.13-9.64c.26-.21.61,2.46.61,2.87A27,27,0,0,1,2723,1800h-71a33.16,33.16,0,0,1-1-3.2c-3.82-14,3.9-35.52,8.09-50l11.51,10.89-9.32-16.71Z"/><path class="cls-40" d="M2685.7,1668.89l1.38,3.81V1800H2652a33.16,33.16,0,0,1-1-3.2c-3.82-14,3.9-35.52,8.09-50l11.51,10.89-9.32-16.71Z"/><path class="cls-39" d="M2319.49,1637.12l28.6,79.24-6.33,17.1,8.95-9.86,17.55,48.63c1.19,2.79,5,14.87,9,27.76H2291.5l-17-30.44,45-132.43ZM2264.62,1800h26.74l-20.85-19.74C2268.77,1786.28,2266.7,1793,2264.62,1800Z"/><path class="cls-40" d="M2319.49,1637.12l2.53,7V1800H2291.5l-17-30.44,45-132.43ZM2264.62,1800h26.74l-20.85-19.74C2268.77,1786.28,2266.7,1793,2264.62,1800Z"/><path class="cls-41" d="M386.74,1422.42c17.81,0,32.25,4.19,32.25,9.34s-14.44,9.35-32.25,9.35-32.25-4.18-32.25-9.35S368.93,1422.42,386.74,1422.42Z"/><path class="cls-29" d="M396,1222.25l16.8,54.08L409.07,1288l5.25-6.73,10.31,33.19c1.1,3,6,21.58,9.08,33.43l-3.44,8.49,4.81-4.14c1.07,4.88,1.7,12.58,1.17,13.37l-11.9,17.7,13.1-12.09c.28-.26.66,3.09.66,3.6,0,23.88-21,40-42.12,42.8-23.54-6.91-34-19.75-37.51-34.92-4.13-17.57,4.21-44.55,8.74-62.77l12.42,13.66-10.06-21Z"/><polygon class="cls-19" points="393.42 1383.31 393.42 1368.86 385.89 1360.13 393.42 1383.31"/><path class="cls-31" d="M396,1222.25l1.49,4.79v190.13l-1.49.45c-23.54-6.91-34-19.75-37.51-34.92-4.13-17.57,4.21-44.55,8.74-62.77l12.42,13.66-10.06-21Z"/><polygon class="cls-32" points="391.38 1432.62 398.64 1432.99 399.25 1346.25 408.03 1325.17 399.02 1337.61 397.96 1299.15 402.65 1291.48 397.84 1296.08 397.37 1277.51 395.12 1313.8 388.93 1309.06 394.77 1319.33 394.78 1319.31 391.38 1432.62"/><polygon class="cls-33" points="391.38 1432.62 396.02 1432.86 397.37 1277.51 395.12 1313.8 388.93 1309.06 394.77 1319.33 394.78 1319.31 391.38 1432.62"/><path class="cls-41" d="M539,1462c11.17,0,20.22,2.62,20.22,5.86s-9,5.86-20.22,5.86-20.22-2.63-20.22-5.86S527.78,1462,539,1462Z"/><path class="cls-29" d="M547.69,1343.1l9.94,32-2.2,6.91,3.11-4,6.1,19.64c.65,1.78,3.57,12.78,5.37,19.79l-2,5,2.85-2.44c.63,2.88,1,7.44.68,7.91l-7,10.47,7.75-7.16c.16-.15.39,1.83.39,2.14,0,14.13-12.41,23.66-24.93,25.33-13.94-4.09-20.1-11.69-22.21-20.67-2.44-10.39,2.5-26.36,5.18-37.15L538,1409l-6-12.41Z"/><polygon class="cls-19" points="546.16 1438.42 546.16 1429.87 541.71 1424.7 546.16 1438.42"/><path class="cls-31" d="M547.69,1343.1l.88,2.83v112.53l-.88.27c-13.94-4.09-20.1-11.69-22.21-20.67-2.44-10.39,2.5-26.36,5.18-37.15L538,1409l-6-12.41Z"/><polygon class="cls-32" points="544.96 1467.61 549.26 1467.83 549.62 1416.49 554.81 1404.01 549.48 1411.37 548.85 1388.61 551.63 1384.07 548.78 1386.8 548.5 1375.8 547.17 1397.28 543.51 1394.48 546.97 1400.56 546.97 1400.54 544.96 1467.61"/><polygon class="cls-33" points="544.96 1467.61 547.71 1467.75 548.5 1375.8 547.17 1397.28 543.51 1394.48 546.97 1400.56 546.97 1400.54 544.96 1467.61"/><path class="cls-42" d="M127.65,1743.88c30.35,0,55,7.1,55,15.85s-24.61,15.84-55,15.84-55-7.09-55-15.84S97.3,1743.88,127.65,1743.88Z"/><path class="cls-43" d="M151.45,1334.7,185.71,1445l-7.59,23.81,10.72-13.73,21,67.68c2.24,6.11,12.3,44,18.51,68.18l-7,17.3,9.82-8.43c2.17,10,3.45,25.64,2.37,27.26l-24.25,36.1L236,1638.47c.57-.52,1.34,6.31,1.34,7.35,0,48.7-42.74,81.52-85.89,87.27-48-14.07-69.25-40.26-76.51-71.19-8.4-35.83,8.61-90.85,17.83-128l25.33,27.86L97.6,1519Z"/><polygon class="cls-30" points="146.21 1663.13 146.21 1633.66 130.87 1615.86 146.21 1663.13"/><path class="cls-40" d="M151.45,1334.7l3,9.76v387.72c-1,.31-2,.61-3,.91-48-14.07-69.25-40.26-76.51-71.19-8.4-35.83,8.61-90.85,17.83-128l25.33,27.86L97.6,1519Z"/><polygon class="cls-32" points="142.05 1763.68 156.86 1764.45 158.11 1587.55 176 1544.58 157.63 1569.94 155.47 1491.52 165.04 1475.87 155.23 1485.26 154.26 1447.39 149.68 1521.39 137.06 1511.73 148.98 1532.67 148.98 1532.62 142.05 1763.68"/><polygon class="cls-33" points="142.05 1763.68 151.52 1764.17 154.26 1447.39 149.68 1521.39 137.06 1511.73 148.98 1532.67 148.98 1532.62 142.05 1763.68"/><path class="cls-43" d="M278.55,1568.49l21.7,59.4-4.8,12.83,6.79-7.39,13.32,36.45c1.42,3.29,7.8,23.72,11.73,36.73l-4.45,9.32,6.22-4.54c1.38,5.36,2.19,13.81,1.5,14.68l-15.36,19.45,16.92-13.29c.36-.28.85,3.4.85,4,0,26.24-27.08,43.92-54.41,47-30.42-7.58-43.88-21.69-48.47-38.36-5.33-19.3,5.44-48.94,11.29-69l16.05,15-13-23Z"/><polygon class="cls-30" points="275.23 1745.42 275.23 1729.55 265.51 1719.95 275.23 1745.42"/><path class="cls-40" d="M278.55,1568.49l1.92,5.26v208.87l-1.91.49c-30.42-7.58-43.88-21.69-48.47-38.36-5.33-19.3,5.44-48.94,11.29-69l16.05,15-13-23Z"/><polygon class="cls-32" points="272.59 1799.59 281.98 1800 282.77 1704.7 294.11 1681.55 282.46 1695.21 281.1 1652.97 287.16 1644.54 280.94 1649.6 280.33 1629.19 277.43 1669.06 269.43 1663.86 276.98 1675.14 276.99 1675.11 272.59 1799.59"/><polygon class="cls-33" points="272.59 1799.59 278.59 1799.85 280.33 1629.19 277.43 1669.06 269.43 1663.86 276.98 1675.14 276.99 1675.11 272.59 1799.59"/></g></g></g></svg>