<svg xmlns="http://www.w3.org/2000/svg" viewBox="0 0 402.71 388.07"><defs><style>.cls-1{fill:#eee;}.cls-2{fill:#eaeaeb;}.cls-3{fill:#83b360;}.cls-4{fill:#d8ae69;}.cls-5{fill:#ca7269;}.cls-6{fill:#565e60;}.cls-7{fill:#f8f8f8;}.cls-8{fill:#fefefe;}.cls-9{fill:#a13673;}.cls-10{fill:#7bac44;}.cls-11{fill:#bbb;}.cls-12{fill:#619529;}.cls-13{fill:#9c2e6c;}.cls-14{fill:#a5a5a5;}.cls-15{fill:#fdfdfd;}.cls-16{fill:#d8a5c2;}.cls-17{fill:#8a8a8a;}.cls-18{fill:#818181;}.cls-19{fill:#e4e4e4;}.cls-20{fill:#5e5e5e;}.cls-21{fill:#bfcdcc;}.cls-22{fill:#a7447f;}.cls-23{fill:#82af60;}.cls-24{fill:#c2c2c2;}.cls-25{fill:#84a34a;}.cls-26{fill:#6c94dd;}.cls-27{fill:#c97466;}.cls-28{fill:#e5c372;}.cls-29{fill:#78a772;}.cls-30{fill:#fff;stroke:#a0a0a0;stroke-width:0.25px;}.cls-30,.cls-34{stroke-miterlimit:10;}.cls-31{fill:#a0a0a0;}.cls-32{fill:#5487e4;}.cls-33{fill:#5688e4;}.cls-34{fill:none;stroke:#bfbfbf;stroke-width:0.55px;}</style></defs><g id="Layer_2" data-name="Layer 2"><g id="Layer_1-2" data-name="Layer 1"><path class="cls-1" d="M375.42,388.05c-14.46.15-260.9-.51-260.9-.51L18.93,370S1,161.73,1.68,49.47A8.23,8.23,0,0,1,10,41.27H402.33V358.69C402.33,373.1,389.88,387.89,375.42,388.05Z"/><path class="cls-2" d="M402.33,98.18H1.68V49.25a8.55,8.55,0,0,1,8.55-8.55h392.1Z"/><path class="cls-3" d="M332.13,22.05c-.05,11-16.8,11-16.84,0S332.08,11,332.13,22.05Z"/><path class="cls-4" d="M360.45,22.05c-.05,11-16.8,11-16.85,0S360.4,11,360.45,22.05Z"/><path class="cls-5" d="M388.76,22.05c-.05,11-16.8,11-16.84,0S388.71,11,388.76,22.05Z"/><path class="cls-6" d="M4.88,42.1c0-11.45,9.34-9.45,9.09-20.89-.08-3.61,17.61-10.9,21-11C36.73,10.1,90.42.31,92.19.31,214.54.3,256.3,2,378.65,2c11.59-.65,24.12,7.48,24.06,20-.18,6.7-.1,13.42-.12,20.12ZM351.82,30.18c11-.31,11.59-15.55.64-16.59C341.09,13.26,340.58,29.77,351.82,30.18Zm-19.95-8.56c-.57-10.36-16.82-10.8-16.3.53C315.68,33.49,332.05,31.9,331.87,21.62Zm48.8,8.53c10.92-.62,10.78-16.1-.12-16.53C370,13.32,370.12,30.6,380.67,30.15Z"/><path class="cls-7" d="M352.63,76.84q-46.5,0-93,0c-6,0-7.57,2-7.71,9.48-49.74-.18-200.48-1-250.23-.18V52.93c104.08-.55,242,.72,344.88.08,4.69,0,6.12,2.37,6.07,7.83S352.62,71.51,352.63,76.84Z"/><rect class="cls-8" x="211.63" y="76.04" width="161.04" height="280.36" rx="12.55"/><path class="cls-9" d="M296,100.85c-.7.64-.16,1.37-.14,2.06.05,2.78-1,4.47-4.1,4.14a9,9,0,0,0-6.93-7.08c-.42-2.91,1.16-3.94,3.75-4,.78,0,1.61.64,2.34-.14l0-.08a.65.65,0,0,0,0,1c1.48.94,3.44,4.63,5.1,4.17Z"/><path class="cls-10" d="M296.26,90.35a10.63,10.63,0,0,1,5.17,5.2c-2.08.51-3.65,2.51-6.05,2.11C292,96.48,295.82,92.36,296.26,90.35Z"/><path class="cls-11" d="M284.86,100a9,9,0,0,1,6.93,7.08C284.4,107.33,284.4,107.33,284.86,100Z"/><path class="cls-12" d="M296.26,90.35c-.52,2.09-2.51,3.67-2.11,6.07-1.78.43-1.72-1.63-2.84-2.09-.88-3.67.17-5.51,3.5-6.14a1.15,1.15,0,0,0,.9,1.17Z"/><path class="cls-12" d="M295.38,97.66c2.4.4,4-1.6,6.05-2.11l1,.55a1.13,1.13,0,0,0,1.16.89c-.26,3.1-2.15,4.1-5,3.87C297.8,99.51,295.17,100,295.38,97.66Z"/><path class="cls-13" d="M232.18,92.44c-4.89,1.42-4.45,1.46-5,6.72-.45,4.39,3,2.18,4.5,3.34-5.74,3.44-5.89-2-5.65-6.15C226,91.38,226.47,91.06,232.18,92.44Z"/><path class="cls-14" d="M295.38,97.66c-.21,2.36,2.42,1.85,3.22,3.2-.86.8-1.71-.64-2.57,0h.07c-.29-.86-.63-.26-1,0L291,96.67c.23-.34.82-.68,0-1l0,.08.36-1.45c1.12.46,1.06,2.52,2.84,2.09A1.18,1.18,0,0,0,295.38,97.66Z"/><path class="cls-9" d="M229.78,97.49c1.93-1.21,4.35.36,5.86-1.62.11-.15,1.57.79,1.47,1.65s-1.51,2.09-1.77,1.7C233.91,97.07,231.48,99.24,229.78,97.49Z"/><path class="cls-10" d="M303.59,97a1.13,1.13,0,0,1-1.16-.89C303.18,95.92,303.56,96.23,303.59,97Z"/><path class="cls-10" d="M295.71,89.36a1.15,1.15,0,0,1-.9-1.17C295.58,88.22,295.89,88.6,295.71,89.36Z"/><path class="cls-15" d="M295.14,100.8c.33-.22.67-.82,1,0A.64.64,0,0,1,295.14,100.8Z"/><path class="cls-15" d="M291,95.7c.85.29.26.63,0,1A.65.65,0,0,1,291,95.7Z"/><path class="cls-13" d="M344.31,354.14c.69-3.29-2-13.45,2.47-12.63,7.84.29,12.18-1.81,10.3,8.23C356.67,354.39,348.12,349,344.31,354.14Zm10.06-7.52a11.72,11.72,0,0,0-7.38,0A11.65,11.65,0,0,0,354.37,346.62Zm0-1.91a10.64,10.64,0,0,0-7.38.16C349.45,345.23,351.91,345.63,354.36,344.71Zm-1.9,4.11c-2.17-1.41-3.82-.79-5.46-.37C348.57,349.37,350.19,349.28,352.46,348.82Z"/><path class="cls-9" d="M330.91,346.24c-2.86,1.27,1.76,4.89-.9,5.22-2.36.29-2.82,2.8-4.94,2.62-1.32-.11-6-3.8-5.54-4.18,2.19-1.77-1.36-5.26.85-5.52s2.82-2.81,4.94-2.64C326.65,341.85,331,345.1,330.91,346.24ZM327.29,348c.24-2.67-4.23-2.9-4.16-.16C322.81,350.58,327.29,350.78,327.29,348Z"/><path class="cls-15" d="M354.37,346.62a11.65,11.65,0,0,1-7.38,0A11.72,11.72,0,0,1,354.37,346.62Z"/><path class="cls-15" d="M354.36,344.71c-2.45.92-4.91.52-7.38.16A10.64,10.64,0,0,1,354.36,344.71Z"/><path class="cls-15" d="M352.46,348.82c-2.27.46-3.89.55-5.46-.37C348.64,348,350.29,347.41,352.46,348.82Z"/><path class="cls-15" d="M327.29,348c0,2.83-4.48,2.63-4.16-.16C323.06,345.05,327.53,345.28,327.29,348Z"/><path class="cls-13" d="M270.58,178.6c-3,6.62-7.7,7.27-12.17,1.56-.86-1.1-1.79-.95-2.79-.95-6.68,0-13.36,0-20,0-1.4,0-3.13.45-3-2.06.14-2.24,1.71-1.74,3-1.75,6.68,0,13.36,0,20,0,1,0,1.94.21,2.83-.87C263.08,167.77,270.83,171.1,270.58,178.6Z"/><path class="cls-16" d="M270.58,178.6c0-.89,0-1.77,0-2.65q41.85,0,83.68.09c1.36,0,3.86-1,3.79,1.37,0,1.9-2.43,1.09-3.76,1.1Q312.42,178.6,270.58,178.6Z"/><path class="cls-13" d="M287.57,151.74c8.34-.11,8.58,12.55.25,12.76S279.26,151.93,287.57,151.74Z"/><path class="cls-17" d="M270.23,163.65c1.55-3.06.51-5.42-2.52-6-.81-.14-1.48-.3-2,.43-1,1.3.54,3.43,2,2.34.37-.21.71-.48,1.19,0-.57,2.68-4.78,1.56-4.76-.84-.76-5.19,7-3.95,7.77,0,1-.92.49-2.69,1.95-3.38C274.1,160,272.5,163.13,270.23,163.65Z"/><path class="cls-18" d="M255.41,156.15c1.6.32,2.61,1.3,2.18,2.84-.33,1.17.25,3.37-2.35,3C251.69,161.78,252,156.18,255.41,156.15Z"/><path class="cls-17" d="M241.08,158.09c.6-2.35,2.47-2,4.09-1.75,2,.33.89,2,1,3.12a13.31,13.31,0,0,1-.23,4.26C244.49,160.59,240.28,163.51,241.08,158.09Zm3.86,1c0-2-2.86-2.16-2.56,0C242,161.26,245,161.18,244.94,159.11Z"/><path class="cls-18" d="M235.44,157.49c3.27-3.8,7.58,2.21,3,1.94-.59.09-1.75-.41-1.5.85.32,1.8,2.54-.5,3,1-3.65,1.4-4.56.62-4.51-3.87Z"/><path class="cls-17" d="M263,162.21c-1.57-1.56.31-4.49-2.13-4.48-2.2,0-.22,3-1.93,4.29C255.75,153.63,265.84,154.17,263,162.21Z"/><path class="cls-18" d="M230.9,154.51c-.56,1.73-3.22-.09-3,2.16.16,1.73,2.13.33,2.93,1.68-2.19.13-3.51,1.22-3.34,4.19C225.07,156.48,226.29,154,230.9,154.51Z"/><path class="cls-17" d="M250.74,161.81c-3.62.27-4.39-1.05-3.07-5.6,1.77,1.1-.56,4.41,2.48,4.61Z"/><path class="cls-17" d="M235.48,157.44c-3.62-.2-1,3.25-3.06,4.64-.16-2.14-.93-4.06.51-5.67a1.5,1.5,0,0,1,2.51,1.08Z"/><path class="cls-18" d="M250.74,161.81l-.59-1c1.21-1.27,0-3.09,1.28-4.4C251.47,158.24,253.48,160.21,250.74,161.81Z"/><path class="cls-19" d="M240,161.31c-.47-1.52-2.69.77-3-1-.38-2.06,3.66.41,3.48-2.12l.62-.07v2Z"/><path class="cls-15" d="M244.94,159.11c0,2.07-2.9,2.15-2.56,0C242.08,157,244.93,157.08,244.94,159.11Z"/><path class="cls-9" d="M241,262.68c0-4.49,0-4.49,5.59-4.49,4.58,0,4.58,0,4.58,5.37,0,4.82,0,4.81-5.62,4.82S241.13,268.22,241,262.68Zm5.1.62c-1.42,2.11-2-1-3.93-.12,1.4.84,1.64,4,4,1.27.75-.8,1.57-1.53,2.3-2.33.46-.38,1.36-.77.84-1.38s-.94.26-1.32.65Z"/><path class="cls-17" d="M266.62,263.72l-1.09,2.37c-1.18-1,.49-2.39-.8-3.34-.94,1.55-3.15,1.8-3.73,3.93-.25.87-1.3,1-2.16.9-1.25-.2-.59-1.12-.74-1.85-.32-1.58-.54-3.1,1-3.88,1-.52,2.56-1,3.2,1,.24.78.38-.15.56-.32,1.88-1.75,2.73-1.49,3.75,1.19Z"/><path class="cls-17" d="M285.79,262.2c-.9-.13-2-.36-1.09,1.14,1.75,2.51-3,4.27-3.72,1.36,1-.92,1.83,1.58,2.58.19s-1-1.27-1.49-1.93c-1.36-1.26,0-3,1.61-2.75,1.45-.08,1.47,1.27,2.08,2Zm-2.28-.21c.77-.63.06-1.19-.59-.7C282.46,261.81,282.9,262.33,283.51,262Z"/><path class="cls-14" d="M266.62,263.72l0,0c2.56-4.49,5.24-1.63,5.21,2.17C269.77,265.91,267.52,266.41,266.62,263.72Z"/><path class="cls-17" d="M285.76,262.24c1.51-.61,3.17-1.67,4.1.7a2.3,2.3,0,0,1-1.4,3c-2.33,1-2.62-2.15-2.67-3.73Z"/><path class="cls-18" d="M304.35,262.83c0,2.2-.19,3.5-2.22,3.25-.72-.09-1.26-.36-1.41-1-.3-1.39,2.4-1.61,1.37-3.35C303.15,261.21,304.53,261.86,304.35,262.83Z"/><path class="cls-17" d="M318.93,264.44,317.76,266c-.92-1,.44-2.32-.58-3.16-1.91.1-.93,2.31-2.06,3.1-.32-2.07-.23-2.76.64-5.29,2.84,1.9,2.84,1.9,3.14,3.83Z"/><path class="cls-18" d="M318.93,264.44l0,.06c-.25-1,3.14-.44,1-2.3,2.66-2.4,4,2.23,2,3.56C320.81,266.43,319.19,266.58,318.93,264.44Z"/><path class="cls-18" d="M329.75,263.49c1.1,3.84-5.48,3-2.88.21.89-.9,2.33-1.6,2.83-1.36C329.71,262.72,329.73,263.11,329.75,263.49Z"/><path class="cls-17" d="M310.62,265.4c-4.13-2.18,1.66-8,3.84-3.73-1.28.69-2.37-1.51-3.45.08-.81,1.19-.35,2.45-.43,3.68Z"/><path class="cls-17" d="M346.52,264.55c-2.62-1.24-1.18-3.8,1.1-2.7.54,1.24-.75.45-.93.74-.56.91.59.85.9,1.28,1.59,1.63-1.95,3.43-2.49,1.46-.14-.75,1.2-.07,1.68-.28Z"/><path class="cls-17" d="M329.75,263.49c0-.38,0-.77-.05-1.15,1.42.81,2.94-2.32,4.49.33-1.32.12-3-.24-2.52,2C331.9,266.29,330.44,264.12,329.75,263.49Z"/><path class="cls-17" d="M335.29,263.57c.16-1.46-.75-1.7.81-2.77.31-.31.48.07.68.29.66.73.37,1.27-.2,1.89-.26.27-.17.87-.43,1.14-.54.58,1.43,1.85-.38,1.79C334.74,265.88,334.89,264.68,335.29,263.57Z"/><path class="cls-17" d="M298.51,262.59c-1.19.34-3.43-.22-2.32,2.22-.28.52-1.38.58-1.41-.27C294.37,262.53,297,260.08,298.51,262.59Z"/><path class="cls-17" d="M271.81,265.94c-.11-2.34-.58-5.4,3.16-4C272.65,262.52,272.86,264.64,271.81,265.94Z"/><path class="cls-17" d="M310.58,265.43l.18.08S310.61,265.35,310.58,265.43Z"/><path class="cls-19" d="M246.2,264.45c-2.38,2.72-2.62-.43-4-1.27,1.63-.86,2,1.41,3.29.76Z"/><path class="cls-19" d="M248,261.39c.38-.39.71-1.36,1.32-.65s-.38,1-.84,1.38Z"/><path class="cls-19" d="M246.75,262.66l.63-.63.73.48-.88.88Z"/><path class="cls-19" d="M248.5,262.12a.92.92,0,0,1-.39.39l-.73-.48.64-.64Z"/><path class="cls-19" d="M245.47,263.94l.64-.64.73.49-.64.66Z"/><path class="cls-19" d="M247.23,263.39a1,1,0,0,1-.4.4l-.72-.49.64-.64Z"/><path class="cls-15" d="M282.92,261.29c.65-.48,1.36.07.59.7Z"/><path class="cls-15" d="M283.51,262c-.62.34-1.05-.18-.59-.7Z"/><path class="cls-15" d="M346.52,264.55l.26.5-.75,0Z"/><path class="cls-19" d="M263.07,236.65c-6.27,0-12.53,0-18.8,0-14.08.27-14.13-20.6-.1-20.4q19,0,37.9,0c14.08-.27,14.14,20.58.11,20.4C275.81,236.67,269.44,236.65,263.07,236.65Zm-14.2-7.83c1.58,2.14,4-2,1.43-2.58-3-4.34-4.56,3-2.71,5.18C248.57,230.64,247.83,229.32,248.87,228.82Zm33.64-8.14c-7.49.23-7.32,11.53.18,11.52C290.16,232,290,220.66,282.51,220.68Zm-19.22,8.73c1.88,1.29,2.38-1.06,2.32-1.48-.24-1.71-1.84-1.89-3.28-2.22-1.27-.28-1.41.28-1.42,1.3C260.9,228.64,260.91,230.14,263.29,229.41Zm-4.79-3.07c1.28.67.32,2.07,1.31,3.09.38-1.72.65-3-1.24-3.73-.73-.3-1.56-.77-1.83-.06a4.17,4.17,0,0,0,.24,4C258.27,228.72,257.08,227.11,258.5,226.34Zm-12.71-1.51c-.88-.4-.91-1.65-2-1.53-2.21-.09-2.95,3.44-.59,3.67C244.91,227.26,243.72,224.25,245.79,224.83ZM271.28,226c-1.48-.68-2.71-1.09-3.66-3.24-.07,3-.76,5,.72,7.4C268.93,228.22,267.71,225.4,271.28,226Zm-26,2.81c.6-.69.91-.83.42-1.55C245.13,227.62,245.31,227.93,245.31,228.76Zm7.88-.65-.22-.2c-.1.27-.37.5,0,.7Z"/><path class="cls-11" d="M355.91,244.17H228.4v-.32H355.79Z"/><ellipse class="cls-11" cx="326.59" cy="208.91" rx="41.5" ry="0.21"/><path class="cls-19" d="M260.41,209.18c2.46-.48,5.13-.13,7.11-2.42a3.24,3.24,0,0,1,3.16-.18c1.1.8.37,2.22.13,3.7-1.38-.69-.6-1.95-1.45-2.63-1.89,4.72-6,2-9.15,2.77C260.28,210,260.34,209.6,260.41,209.18Z"/><path class="cls-18" d="M242.74,209.9c1.68-1.1-.37-2.51,1.51-2.87.14,0,.77.1.44.32-1.09.74,0,2.72-1.84,3-1.61.23-3.19.08-3.53-1.68-.16-.77.11-2.48,1.66-2.5C243.08,206.26,242.19,208.43,242.74,209.9Z"/><path class="cls-11" d="M357.91,241.82V211.07h.31v30.6Z"/><path class="cls-18" d="M287.64,210.59c-1.66-.09-3.28-.7-5-.1-2,.83-2.47-2.31-1-3.29.73-.68,1.72-1,2.17-.22,1,1.65,2.64.91,3.85,1.58Z"/><path class="cls-11" d="M226.4,211.08v30.74h-.31V211.19Z"/><path class="cls-17" d="M272.63,211.72c.72-1.93-1.88-5.43,1-5.69.95,0,2.15.06,1.89,1.44s1.47,4.48-2.42,3.28A6.77,6.77,0,0,0,272.63,211.72Z"/><path class="cls-18" d="M254,207.79c-.36,2.08-3.78,4.05-3.84.81C249.71,206,253.53,204.88,254,207.79Z"/><path class="cls-18" d="M347.7,225.19c-2.59,3.75-2.59,3.75-5.33.24C344.1,224.87,345.73,225.18,347.7,225.19Z"/><path class="cls-17" d="M260.41,209.18c-.07.42-.13.83-.2,1.24-2.55-1.48-.54-3.61-.76-5.44C260.82,206.15,260,207.82,260.41,209.18Z"/><path class="cls-20" d="M235.39,204.81h4.15c-3.2,1.21-1.34,3.74-2.32,5.43C235.71,208.78,238.32,205.79,235.39,204.81Z"/><path class="cls-21" d="M288.26,206.73l1.42,0v3.07l-1.24.11Z"/><path class="cls-20" d="M289.68,209.78v-3.07c.59,1.52,1.87,1.23,3.94.57C292,208.94,290.11,208.19,289.68,209.78Z"/><path class="cls-20" d="M288.26,206.73l.18,3.16c-.27.23.34,1.48-.8.7,0-.68,0-1.35.05-2C287.87,207.94,287.27,207.09,288.26,206.73Z"/><path class="cls-14" d="M282.51,220.68c7.5,0,7.65,11.3.18,11.52C275.19,232.21,275,220.91,282.51,220.68ZM285,224c-1.66,1.28-3.21.83-4.95.15,1.7,1.56.76,3.08.27,5,1.56-2.27,3.07-.75,5.22-.1C283.93,227.17,284,225.7,285,224Z"/><path class="cls-21" d="M263.29,229.41c-2.38.73-2.39-.77-2.38-2.4,0-1,.15-1.58,1.42-1.3,1.44.33,3,.51,3.28,2.22C265.67,228.35,265.17,230.7,263.29,229.41Z"/><path class="cls-20" d="M248.87,228.82c-1,.5-.3,1.82-1.28,2.6-1.85-2.19-.26-9.52,2.71-5.18A5.59,5.59,0,0,1,248.87,228.82Z"/><path class="cls-20" d="M258.5,226.34c-1.42.77-.23,2.38-1.52,3.28a4.17,4.17,0,0,1-.24-4c.27-.71,1.1-.24,1.83.06,1.89.77,1.62,2,1.24,3.73C258.82,228.41,259.78,227,258.5,226.34Z"/><path class="cls-20" d="M245.79,224.83c-2.07-.58-.88,2.43-2.57,2.14-2.36-.23-1.62-3.76.59-3.67C244.88,223.18,244.91,224.43,245.79,224.83Z"/><path class="cls-20" d="M271.28,226c-3.57-.55-2.35,2.27-2.94,4.16-1.48-2.38-.79-4.36-.72-7.4C268.57,224.86,269.8,225.27,271.28,226Z"/><path class="cls-17" d="M248.87,228.82a5.59,5.59,0,0,0,1.43-2.58C252.9,226.82,250.45,231,248.87,228.82Z"/><path class="cls-20" d="M245.31,228.76c0-.83-.18-1.14.42-1.55C246.22,227.93,245.91,228.07,245.31,228.76Z"/><path class="cls-17" d="M253.19,228.11l-.24.5c-.35-.2-.08-.44,0-.7Z"/><path class="cls-19" d="M285,224c-1,1.66-1.07,3.13.54,5-2.15-.65-3.66-2.17-5.22.1.49-1.88,1.43-3.4-.27-5C281.79,224.87,283.34,225.32,285,224Z"/><path class="cls-13" d="M292.13,283c34.29,1.63,29.81-7.74,30,19.55,0,2.92-1.26,4.27-4.21,4.27q-25.79-.06-51.56,0c-2.94,0-4.27-1.31-4.24-4.24.06-5.11,0-10.21,0-15.31,0-3.79.48-4.26,4.2-4.27ZM276,299.21c4.93,0,4.93,0,4.93-4,0-4.81-.59-5.43-5.17-5.44-4.22,0-4.25,0-4.22,4.35C271.56,299.64,270.88,299.18,276,299.21Zm35.09-7.8c-1.66-.27-3.76-1-4.6.41a5.51,5.51,0,0,0,.09,5.42c.87,1.18,2.93.49,4.67.32-.91-1.87-3.58.08-3.57-2-.07-1.75,2.9.11,3-1.57-.89-.87-3.11.56-3-1.21S310.16,292.85,311.08,291.41Zm-11.49,6.35c-.8-2.4-.67-6.1-2.5-6.17-2.29-.1-2,3.57-2.95,5.53,0,.09.19.32.47.74C296.07,295.05,297.68,295,299.59,297.76Zm-7.54-6.23c-3.44-2.21-5.54,2.56-1.64,3.33.6.26,2.1.09,1.41,1.44-.43.85-1.37.78-2.17.11-.37-.32-.6-1.15-1.4-.69-.36,2.83,4.42,2.81,5,.7.8-3-2.87-2.08-3.6-3.66C290.19,291.56,291.33,292.36,292.05,291.53Zm10.61,3.79c-1.45-.95-.69-3.28-2.71-4.18-.05,1.48,1.75,8.8,3.39,5.84.64-1.81,1.77-3.51,1.66-5.82C303.12,292.19,303.49,294.08,302.66,295.32Z"/><path class="cls-19" d="M311.08,291.41c-.92,1.44-3.35-.35-3.42,1.41s2.15.34,3,1.21c-.13,1.68-3.1-.18-3,1.57,0,2,2.66.09,3.57,2-1.74.17-3.8.86-4.67-.32a5.51,5.51,0,0,1-.09-5.42C307.32,290.37,309.42,291.14,311.08,291.41Z"/><path class="cls-19" d="M299.59,297.76c-1.91-2.74-3.52-2.71-5,.1-.28-.42-.51-.65-.47-.74,1-2,.66-5.63,2.95-5.53C298.92,291.66,298.79,295.36,299.59,297.76Z"/><path class="cls-19" d="M292.05,291.53c-.72.83-1.86,0-2.38,1.23.73,1.58,4.4.63,3.6,3.66-.6,2.11-5.38,2.13-5-.7.8-.46,1,.37,1.4.69.8.67,1.74.74,2.17-.11.69-1.35-.81-1.18-1.41-1.44C286.5,294.09,288.61,289.32,292.05,291.53Z"/><path class="cls-19" d="M302.66,295.32c.83-1.24.46-3.13,2.34-4.16.11,2.31-1,4-1.65,5.82-1.57,3-3.48-4.41-3.4-5.84C302,292,301.21,294.37,302.66,295.32Z"/><path class="cls-9" d="M275.28,293.05c-.93-.34-2.65.68-2.71-1.14s1.68-1.1,2.63-1.11,2.67-.74,2.6,1.17C277.75,293.56,276.21,292.81,275.28,293.05Z"/><path class="cls-9" d="M277.8,296.59a1.55,1.55,0,1,1-3.1-.09C274.74,294.61,277.71,294.75,277.8,296.59Z"/><path class="cls-22" d="M386.49,68.6c-1.16,3.32,2.17,9.59-5.65,8.54-1-4.44-4.29-6.78-8.17-8.52.27-7,5.62-3.58,8.92-4.34l.15,0c.54,2.58,2.45,3.45,4.77,3.82Z"/><path class="cls-23" d="M386.51,68.14c-2.32-.37-4.23-1.24-4.77-3.82,4.24-.55,4.05-4.18,4.95-7.06,5-.66,5.92,2.77,6.59,6.47C390.82,64.88,387.19,64.27,386.51,68.14Z"/><path class="cls-24" d="M372.67,68.62c3.88,1.74,7.13,4.08,8.17,8.52C372.85,79.72,372.36,79.21,372.67,68.62Z"/><path class="cls-25" d="M386.69,57.26c-.9,2.88-.71,6.51-4.95,7.06l-.15,0C376.32,59.1,384.56,49.85,386.69,57.26Z"/><path class="cls-25" d="M386.51,68.14c.68-3.87,4.31-3.26,6.77-4.41,4.34.93,1.39,6.4-1.95,6.33C389.74,70.1,386.92,69.87,386.51,68.14Z"/><path class="cls-26" d="M82.6,192.82l6,2.44q.18,16.44.35,32.89c-.92,18.7-17.93,22.78-27,17.37-4.51-2.69-10.66-5.72-3.66-12.16,5.82,3.69,12.29,9.1,18.67,3,1.24-1.15,2.46-4,1.88-5.09-2.92-5.72-8,1.07-11.9-1.62-25.63-4.75-16.21-43.32,9.29-36.78C78.35,195.41,80.48,195,82.6,192.82Zm-2.73,18.36c.58-12.88-18.54-13.83-18.61-.51C59.68,225.07,80.38,226.24,79.87,211.18Z"/><path class="cls-27" d="M120.52,217.92c4.49.77,6,.89,7.33,1.29,4.43,1.28,13-3.81,12.45,4.42-.39,5.76-8.59,7.4-14.83,7-26.87-3.73-21.94-42.34,4.4-38.06,6.08,1.57,11.39,5,12.29,11.53.85,6.18-6,5.43-9.31,7.83C130.16,213.9,126.79,215,120.52,217.92Z"/><path class="cls-28" d="M5,209.63c3.2-3.81,6.14-7.88,9.66-11.36,17.88-18.23,46.39,7.58,28.77,26.34-7.12,8.14-19.67,7.93-28.46.65-4.24-3.51-4.46-10.28-10.57-12Zm32.67,1.47C38,197.87,18.31,198,19,211.2,18,225.41,38.65,225.41,37.67,211.1Z"/><path class="cls-29" d="M93.75,195.2C97,188.74,89,175.52,99.6,175.87c8,.27,3,13.4,3.78,20.72.8,7.86,0,15.86.21,23.78.21,6.58-2.48,9.2-9,7.68Q94.15,211.63,93.75,195.2Z"/><path class="cls-30" d="M98.88,261.22H184c3.93,0,5.89,9.06,4.09,18.92-.56,3.56-1.81,3.68-4.37,3.58H13.7c-4.6,0-6-5.37-4.76-17.6.4-4.27,1.42-5.2,4.53-4.89Z"/><path class="cls-31" d="M114.56.43q.16,6.09.34,12.19c.74,5.08-1.41,6.34-6.35,6.28-24-.29-47.94-.14-71.91-.14-12.91,0-17.91,5-17.91,18V354.39a12.32,12.32,0,0,0,4.9,10.79c2.92,3.71,7,4.06,11.22,4.06h75.24c2.2,0,4.94-.77,4.77,3.05,0,4.65-.1,10.6-.34,15.25C77.89,385,14.69,400.62,3.66,352.32-3.81,255.93,2.79,158.39.87,61.63c.06-11.41.7-23,5.33-33.76C23.1-12.08,80,3.71,114.56.43Z"/><path class="cls-32" d="M168.59,269.73c.17-1.86-.84-5.54,2.12-5.28,1.4.15,2.82.41,2.79,2.34-.41,2.64,1.36,7.68-2.52,8-3.06.16-2.36-3-2.41-5.08Z"/><path class="cls-33" d="M165.68,272.27c3.18,5.27,6.43,5.57,10.27.76,1.83,3.83-4.16,3.21-4,6.76,0,.72-1.23.81-1.28.6-.74-3.25-5.25-3.53-5.58-7C165.06,272.89,165.1,272.42,165.68,272.27Z"/><rect class="cls-34" x="218.57" y="117.86" width="146.97" height="218.11" rx="8.55"/></g></g></svg>