<svg xmlns="http://www.w3.org/2000/svg" viewBox="0 0 207.59 270.68"><defs><style>.cls-1{fill:#fff;}.cls-2{fill:#ccc;opacity:0.54;}.cls-3{fill:#be78d1;}.cls-4{fill:#1a1a1a;}.cls-5{fill:#b3d464;}.cls-6{fill:#e0edb4;}.cls-7{fill:#e4a9f6;}.cls-8{fill:#f3caff;}.cls-9{fill:#da98e5;}.cls-10{fill:#9552af;}.cls-11{fill:#ba6bd0;}.cls-12{fill:#ff8ab1;}.cls-13{fill:#f0f;}.cls-14{fill:#af0035;}.cls-15{fill:#ff5574;}.cls-16{fill:#b9dae9;}.cls-17{fill:#8bb0cc;}.cls-18{fill:#ff95a2;}</style></defs><g id="Layer_2" data-name="Layer 2"><g id="Layer_1-2" data-name="Layer 1"><path class="cls-1" d="M103.79,140.77h-.14l-.12,0h-.11l-.11,0-.1,0h0l0,0-.15,0-.11,0-.1,0-.1.06-.1.05-.09.07-.1.06-.08.07-.09.08-.08.08-.08.08-.07.09-.07.09-.06.1-.06.09a.54.54,0,0,0,0,.11.31.31,0,0,0,0,.1l0,.1,0,.11a.49.49,0,0,0,0,.11l0,.11a.43.43,0,0,1,0,.11s0,.07,0,.11,0,.08,0,.12v.3s0,.08,0,.11,0,.08,0,.12l0,.11a.36.36,0,0,0,0,.1v.05a.88.88,0,0,1,0,.15s0,.07,0,.1,0,.07,0,.11a.31.31,0,0,1,0,.1l.06.1.06.09.07.09.07.09.08.09.08.08.08.07.09.08.09.07.09.06.1.06.1.05.1,0,.11,0,.11,0,.1,0,.12,0,.11,0h.11l.11,0H104l.11,0h.11l.12,0,.1,0h0l.15-.05.1-.05.1,0,.1-.06a.31.31,0,0,0,.1,0l.1-.06.09-.07.09-.07a.6.6,0,0,0,.08-.08l.08-.08.08-.08.08-.09.06-.09.07-.09.06-.1,0-.1,0-.1s0-.07,0-.11l0-.1,0-.11,0-.11a.5.5,0,0,0,0-.12s0-.07,0-.11,0-.07,0-.11v-.31s0-.07,0-.11,0-.08,0-.11,0-.08,0-.12a.3.3,0,0,1,0-.1h0l0,0a.58.58,0,0,0,0-.14s0-.08,0-.11l0-.1a.31.31,0,0,0,0-.1l-.06-.1-.06-.1-.06-.09-.08-.09-.07-.08-.08-.08-.09-.08a.27.27,0,0,0-.08-.07l-.09-.07-.1-.06a.21.21,0,0,0-.1-.06l-.1-.06-.1-.05-.11,0-.1,0-.11,0-.11,0-.11,0-.12,0h-.27Z"/><path class="cls-1" d="M103.79,140.77h-.14l-.12,0h-.11l-.11,0-.1,0h0l0,0-.15,0-.11,0-.1,0-.1.06-.1.05-.09.07-.1.06-.08.07-.09.08-.08.08-.08.08-.07.09-.07.09-.06.1-.06.09a.54.54,0,0,0,0,.11.31.31,0,0,0,0,.1l0,.1,0,.11a.49.49,0,0,0,0,.11l0,.11a.43.43,0,0,1,0,.11s0,.07,0,.11,0,.08,0,.12v.3s0,.08,0,.11,0,.08,0,.12l0,.11a.36.36,0,0,0,0,.1v.05a.88.88,0,0,1,0,.15s0,.07,0,.1,0,.07,0,.11a.31.31,0,0,1,0,.1l.06.1.06.09.07.09.07.09.08.09.08.08.08.07.09.08.09.07.09.06.1.06.1.05.1,0,.11,0,.11,0,.1,0,.12,0,.11,0,.11,0,.11,0h.42l.11,0,.12,0,.1,0h0l0,0,.15,0,.1,0,.1,0a.31.31,0,0,0,.1-.05l.1,0,.1-.07.09-.06.09-.08a.27.27,0,0,0,.08-.07l.08-.08.08-.08.08-.09.06-.09.07-.09.06-.1,0-.1,0-.11a1,1,0,0,0,0-.1s0-.07,0-.11l0-.11,0-.11a.36.36,0,0,0,0-.11s0-.07,0-.11,0-.08,0-.11v-.31s0-.08,0-.12,0-.07,0-.11,0-.07,0-.11a.36.36,0,0,1,0-.1v0l0,0a.88.88,0,0,0,0-.15l0-.1,0-.11,0-.1-.06-.1-.06-.09-.06-.09-.08-.09-.07-.09-.08-.08-.09-.07-.08-.08-.09-.07-.1-.06-.1-.06-.1,0-.1-.05-.11,0-.1,0-.11,0-.11,0-.11,0h-.12l-.11,0h-.16Z"/><path class="cls-1" d="M103.79,140.77h-.14l-.12,0h-.11l-.11,0-.1,0h0l0,0-.15,0-.11,0-.1,0-.1.06-.1.05-.09.07-.1.06-.08.07-.09.08-.08.08-.08.08-.07.09-.07.09-.06.1-.06.09a.54.54,0,0,0,0,.11.31.31,0,0,0,0,.1l0,.1,0,.11a.49.49,0,0,0,0,.11l0,.11a.43.43,0,0,1,0,.11s0,.07,0,.11,0,.08,0,.12v.3s0,.08,0,.11,0,.08,0,.12l0,.11a.36.36,0,0,0,0,.1v.05a.88.88,0,0,1,0,.15s0,.07,0,.1,0,.07,0,.11a.31.31,0,0,1,0,.1l.06.1.06.09.07.09.07.09.08.09.08.08.08.07.09.08.09.07.09.06.1.06.1.05.1,0,.11,0,.11,0,.1,0,.12,0,.11,0,.11,0,.11,0h.42l.11,0,.12,0,.1,0h0l0,0,.15,0,.1,0,.1,0a.31.31,0,0,0,.1-.05l.1,0,.1-.07.09-.06.09-.08a.27.27,0,0,0,.08-.07l.08-.08.08-.08.08-.09.06-.09.07-.09.06-.1,0-.1,0-.11a1,1,0,0,0,0-.1s0-.07,0-.11l0-.11,0-.11a.36.36,0,0,0,0-.11s0-.07,0-.11,0-.08,0-.11v-.31s0-.08,0-.12,0-.07,0-.11,0-.07,0-.11a.36.36,0,0,1,0-.1v0l0,0a.88.88,0,0,0,0-.15l0-.1,0-.11,0-.1-.06-.1-.06-.09-.06-.09-.08-.09-.07-.09-.08-.08-.09-.07-.08-.08-.09-.07-.1-.06-.1-.06-.1,0-.1-.05-.11,0-.1,0-.11,0-.11,0-.11,0h-.12l-.11,0h-.16Z"/><path class="cls-1" d="M103.79,140.77h-.14l-.12,0h-.11l-.11,0-.1,0h0l0,0-.15,0-.11,0-.1,0-.1.06-.1.05-.09.07-.1.06-.08.07-.09.08-.08.08-.08.08-.07.09-.07.09-.06.1-.06.09a.54.54,0,0,0,0,.11.31.31,0,0,0,0,.1l0,.1,0,.11a.49.49,0,0,0,0,.11l0,.11a.43.43,0,0,1,0,.11s0,.07,0,.11,0,.08,0,.12v.3s0,.08,0,.11,0,.08,0,.12l0,.11a.36.36,0,0,0,0,.1v.05a.88.88,0,0,1,0,.15s0,.07,0,.1,0,.07,0,.11a.31.31,0,0,1,0,.1l.06.1.06.09.07.09.07.09.08.09.08.08.08.07.09.08.09.07.09.06.1.06.1.05.1,0,.11,0,.11,0,.1,0,.12,0,.11,0,.11,0,.11,0h.42l.11,0,.12,0,.1,0h0l0,0,.15,0,.1,0,.1,0a.31.31,0,0,0,.1-.05l.1,0,.1-.07.09-.06.09-.08a.27.27,0,0,0,.08-.07l.08-.08.08-.08.08-.09.06-.09.07-.09.06-.1,0-.1,0-.11a1,1,0,0,0,0-.1s0-.07,0-.11l0-.11,0-.11a.36.36,0,0,0,0-.11s0-.07,0-.11,0-.08,0-.11v-.31s0-.08,0-.12,0-.07,0-.11,0-.07,0-.11a.36.36,0,0,1,0-.1v0l0,0a.88.88,0,0,0,0-.15l0-.1,0-.11,0-.1-.06-.1-.06-.09-.06-.09-.08-.09-.07-.09-.08-.08-.09-.07-.08-.08-.09-.07-.1-.06-.1-.06-.1,0-.1-.05-.11,0-.1,0-.11,0-.11,0-.11,0h-.12l-.11,0h-.16Z"/><path class="cls-1" d="M103.79,140.77h-.14l-.12,0h-.11l-.11,0-.1,0h0l0,0-.15,0-.11,0-.1,0-.1.06-.1.05-.09.07-.1.06-.08.07-.09.08-.08.08-.08.08-.07.09-.07.09-.06.1-.06.09a.54.54,0,0,0,0,.11.31.31,0,0,0,0,.1l0,.1,0,.11a.49.49,0,0,0,0,.11l0,.11a.43.43,0,0,1,0,.11s0,.07,0,.11,0,.08,0,.12v.3s0,.08,0,.11,0,.08,0,.12l0,.11a.36.36,0,0,0,0,.1v.05a.88.88,0,0,1,0,.15s0,.07,0,.1,0,.07,0,.11a.31.31,0,0,1,0,.1l.06.1.06.09.07.09.07.09.08.09.08.08.08.07.09.08.09.07.09.06.1.06.1.05.1,0,.11,0,.11,0,.1,0,.12,0,.11,0,.11,0,.11,0h.42l.11,0,.12,0,.1,0h0l0,0,.15,0,.1,0,.1,0a.31.31,0,0,0,.1-.05l.1,0,.1-.07.09-.06.09-.08a.27.27,0,0,0,.08-.07l.08-.08.08-.08.08-.09.06-.09.07-.09.06-.1,0-.1,0-.11a1,1,0,0,0,0-.1s0-.07,0-.11l0-.11,0-.11a.36.36,0,0,0,0-.11s0-.07,0-.11,0-.08,0-.11v-.31s0-.08,0-.12,0-.07,0-.11,0-.07,0-.11a.36.36,0,0,1,0-.1v0l0,0a.88.88,0,0,0,0-.15l0-.1,0-.11,0-.1-.06-.1-.06-.09-.06-.09-.08-.09-.07-.09-.08-.08-.09-.07-.08-.08-.09-.07-.1-.06-.1-.06-.1,0-.1-.05-.11,0-.1,0-.11,0-.11,0-.11,0h-.12l-.11,0h-.16Z"/><path class="cls-1" d="M103.79,140.77h-.14l-.12,0h-.11l-.11,0-.1,0h0l0,0-.15,0-.11,0-.1,0-.1.06-.1.05-.09.07-.1.06-.08.07-.09.08-.08.08-.08.08-.07.09-.07.09-.06.1-.06.09a.54.54,0,0,0,0,.11.31.31,0,0,0,0,.1l0,.1,0,.11a.49.49,0,0,0,0,.11l0,.11a.43.43,0,0,1,0,.11s0,.07,0,.11,0,.08,0,.12v.3s0,.08,0,.11,0,.08,0,.12l0,.11a.36.36,0,0,0,0,.1v.05a.88.88,0,0,1,0,.15s0,.07,0,.1,0,.07,0,.11a.31.31,0,0,1,0,.1l.06.1.06.09.07.09.07.09.08.09.08.08.08.07.09.08.09.07.09.06.1.06.1.05.1,0,.11,0,.11,0,.1,0,.12,0,.11,0,.11,0,.11,0h.42l.11,0,.12,0,.1,0h0l0,0,.15,0,.1,0,.1,0a.31.31,0,0,0,.1-.05l.1,0,.1-.07.09-.06.09-.08a.27.27,0,0,0,.08-.07l.08-.08.08-.08.08-.09.06-.09.07-.09.06-.1,0-.1,0-.11a1,1,0,0,0,0-.1s0-.07,0-.11l0-.11,0-.11a.36.36,0,0,0,0-.11s0-.07,0-.11,0-.08,0-.11v-.31s0-.08,0-.12,0-.07,0-.11,0-.07,0-.11a.36.36,0,0,1,0-.1v0l0,0a.88.88,0,0,0,0-.15l0-.1,0-.11,0-.1-.06-.1-.06-.09-.06-.09-.08-.09-.07-.09-.08-.08-.09-.07-.08-.08-.09-.07-.1-.06-.1-.06-.1,0-.1-.05-.11,0-.1,0-.11,0-.11,0-.11,0h-.12l-.11,0h-.16Z"/><path class="cls-1" d="M103.79,140.77h-.14l-.12,0h-.11l-.11,0-.1,0h0l0,0-.15,0-.11,0-.1,0-.1.06-.1.05-.09.07-.1.06-.08.07-.09.08-.08.08-.08.08-.07.09-.07.09-.06.1-.06.09a.54.54,0,0,0,0,.11.31.31,0,0,0,0,.1l0,.1,0,.11a.49.49,0,0,0,0,.11l0,.11a.43.43,0,0,1,0,.11s0,.07,0,.11,0,.08,0,.12v.3s0,.08,0,.11,0,.08,0,.12l0,.11a.36.36,0,0,0,0,.1v.05a.88.88,0,0,1,0,.15s0,.07,0,.1,0,.07,0,.11a.31.31,0,0,1,0,.1l.06.1.06.09.07.09.07.09.08.09.08.08.08.07.09.08.09.07.09.06.1.06.1.05.1,0,.11,0,.11,0,.1,0,.12,0,.11,0,.11,0,.11,0h.42l.11,0,.12,0,.1,0h0l0,0,.15,0,.1,0,.1,0a.31.31,0,0,0,.1-.05l.1,0,.1-.07.09-.06.09-.08a.27.27,0,0,0,.08-.07l.08-.08.08-.08.08-.09.06-.09.07-.09.06-.1,0-.1,0-.11a1,1,0,0,0,0-.1s0-.07,0-.11l0-.11,0-.11a.36.36,0,0,0,0-.11s0-.07,0-.11,0-.08,0-.11v-.31s0-.08,0-.12,0-.07,0-.11,0-.07,0-.11a.36.36,0,0,1,0-.1v0l0,0a.88.88,0,0,0,0-.15l0-.1,0-.11,0-.1-.06-.1-.06-.09-.06-.09-.08-.09-.07-.09-.08-.08-.09-.07-.08-.08-.09-.07-.1-.06-.1-.06-.1,0-.1-.05-.11,0-.1,0-.11,0-.11,0-.11,0h-.12l-.11,0h-.16Z"/><path class="cls-1" d="M103.79,140.77h-.14l-.12,0h-.11l-.11,0-.1,0h0l0,0-.15,0-.11,0-.1,0-.1.06-.1.05-.09.07-.1.06-.08.07-.09.08-.08.08-.08.08-.07.09-.07.09-.06.1-.06.09a.54.54,0,0,0,0,.11.31.31,0,0,0,0,.1l0,.1,0,.11a.49.49,0,0,0,0,.11l0,.11a.43.43,0,0,1,0,.11s0,.07,0,.11,0,.08,0,.12v.3s0,.08,0,.11,0,.08,0,.12l0,.11a.36.36,0,0,0,0,.1v.05a.88.88,0,0,1,0,.15s0,.07,0,.1,0,.07,0,.11a.31.31,0,0,1,0,.1l.06.1.06.09.07.09.07.09.08.09.08.08.08.07.09.08.09.07.09.06.1.06.1.05.1,0,.11,0,.11,0,.1,0,.12,0,.11,0,.11,0,.11,0h.42l.11,0,.12,0,.1,0h0l0,0,.15,0,.1,0,.1,0a.31.31,0,0,0,.1-.05l.1,0,.1-.07.09-.06.09-.08a.27.27,0,0,0,.08-.07l.08-.08.08-.08.08-.09.06-.09.07-.09.06-.1,0-.1,0-.11a1,1,0,0,0,0-.1s0-.07,0-.11l0-.11,0-.11a.36.36,0,0,0,0-.11s0-.07,0-.11,0-.08,0-.11v-.31s0-.08,0-.12,0-.07,0-.11,0-.07,0-.11a.36.36,0,0,1,0-.1v0l0,0a.88.88,0,0,0,0-.15l0-.1,0-.11,0-.1-.06-.1-.06-.09-.06-.09-.08-.09-.07-.09-.08-.08-.09-.07-.08-.08-.09-.07-.1-.06-.1-.06-.1,0-.1-.05-.11,0-.1,0-.11,0-.11,0-.11,0h-.12l-.11,0h-.16Z"/><path class="cls-1" d="M103.79,140.77h-.14l-.12,0h-.11l-.11,0-.1,0h0l0,0-.15,0-.11,0-.1,0-.1.06-.1.05-.09.07-.1.06-.08.07-.09.08-.08.08-.08.08-.07.09-.07.09-.06.1-.06.09a.54.54,0,0,0,0,.11.31.31,0,0,0,0,.1l0,.1,0,.11a.49.49,0,0,0,0,.11l0,.11a.43.43,0,0,1,0,.11s0,.07,0,.11,0,.08,0,.12v.3s0,.08,0,.11,0,.08,0,.12l0,.11a.36.36,0,0,0,0,.1v.05a.88.88,0,0,1,0,.15s0,.07,0,.1,0,.07,0,.11a.31.31,0,0,1,0,.1l.06.1.06.09.07.09.07.09.08.09.08.08.08.07.09.08.09.07.09.06.1.06.1.05.1,0,.11,0,.11,0,.1,0,.12,0,.11,0,.11,0,.11,0h.42l.11,0,.12,0,.1,0h0l0,0,.15,0,.1,0,.1,0a.31.31,0,0,0,.1-.05l.1,0,.1-.07.09-.06.09-.08a.27.27,0,0,0,.08-.07l.08-.08.08-.08.08-.09.06-.09.07-.09.06-.1,0-.1,0-.11a1,1,0,0,0,0-.1s0-.07,0-.11l0-.11,0-.11a.36.36,0,0,0,0-.11s0-.07,0-.11,0-.08,0-.11v-.31s0-.08,0-.12,0-.07,0-.11,0-.07,0-.11a.36.36,0,0,1,0-.1v0l0,0a.88.88,0,0,0,0-.15l0-.1,0-.11,0-.1-.06-.1-.06-.09-.06-.09-.08-.09-.07-.09-.08-.08-.09-.07-.08-.08-.09-.07-.1-.06-.1-.06-.1,0-.1-.05-.11,0-.1,0-.11,0-.11,0-.11,0h-.12l-.11,0h-.16Z"/><path class="cls-1" d="M103.79,140.77h-.14l-.12,0h-.11l-.11,0-.1,0h0l0,0-.15,0-.11,0-.1,0-.1.06-.1.05-.09.07-.1.06-.08.07-.09.08-.08.08-.08.08-.07.09-.07.09-.06.1-.06.09a.54.54,0,0,0,0,.11.31.31,0,0,0,0,.1l0,.1,0,.11a.49.49,0,0,0,0,.11l0,.11a.43.43,0,0,1,0,.11s0,.07,0,.11,0,.08,0,.12v.3s0,.08,0,.11,0,.08,0,.12l0,.11a.36.36,0,0,0,0,.1v.05a.88.88,0,0,1,0,.15s0,.07,0,.1,0,.07,0,.11a.31.31,0,0,1,0,.1l.06.1.06.09.07.09.07.09.08.09.08.08.08.07.09.08.09.07.09.06.1.06.1.05.1,0,.11,0,.11,0,.1,0,.12,0,.11,0,.11,0,.11,0h.42l.11,0,.12,0,.1,0h0l0,0,.15,0,.1,0,.1,0a.31.31,0,0,0,.1-.05l.1,0,.1-.07.09-.06.09-.08a.27.27,0,0,0,.08-.07l.08-.08.08-.08.08-.09.06-.09.07-.09.06-.1,0-.1,0-.11a1,1,0,0,0,0-.1s0-.07,0-.11l0-.11,0-.11a.36.36,0,0,0,0-.11s0-.07,0-.11,0-.08,0-.11v-.31s0-.08,0-.12,0-.07,0-.11,0-.07,0-.11a.36.36,0,0,1,0-.1v0l0,0a.88.88,0,0,0,0-.15l0-.1,0-.11,0-.1-.06-.1-.06-.09-.06-.09-.08-.09-.07-.09-.08-.08-.09-.07-.08-.08-.09-.07-.1-.06-.1-.06-.1,0-.1-.05-.11,0-.1,0-.11,0-.11,0-.11,0h-.12l-.11,0h-.16Z"/><path class="cls-2" d="M156.78,257.44c0,3.51-5.58,6.88-15.52,9.36s-23.41,3.88-37.46,3.88-27.53-1.39-37.46-3.88S50.82,261,50.82,257.44s5.58-6.88,15.52-9.37,23.41-3.88,37.46-3.88c29.26,0,53,5.93,53,13.25Z"/><path class="cls-3" d="M88.34,222.78c0,13.58-4.53,32.89-10.12,32.89s-10.11-19.31-10.11-32.89,6-16.3,10.11-16.3,10.12,2.72,10.12,16.3Z"/><path class="cls-4" d="M78.22,203.66a11.47,11.47,0,0,0-8.76,4.05c-2.6,3.07-4.18,7.86-4.18,15.07a87.92,87.92,0,0,0,3.07,22.3,37.09,37.09,0,0,0,3.51,8.81c1.43,2.38,3.34,4.6,6.36,4.6s4.94-2.22,6.36-4.6a36.26,36.26,0,0,0,3.51-8.81,87.48,87.48,0,0,0,3.07-22.3c0-7.21-1.58-12-4.17-15.07a11.49,11.49,0,0,0-8.77-4.05Zm0,5.65a5.47,5.47,0,0,1,4.46,2.05c1.43,1.69,2.84,5,2.84,11.42a83.62,83.62,0,0,1-2.86,20.77A32.63,32.63,0,0,1,79.74,251a5.82,5.82,0,0,1-1.52,1.8,5.72,5.72,0,0,1-1.51-1.8,32.17,32.17,0,0,1-2.92-7.44,83.16,83.16,0,0,1-2.86-20.77c0-6.38,1.41-9.73,2.84-11.42a5.45,5.45,0,0,1,4.45-2.05Z"/><path class="cls-3" d="M138.36,220.26c3.52,13.12,4.14,32.94-1.26,34.39s-14.77-16-18.28-29.15,1.56-17.29,5.55-18.36,10.48,0,14,13.12Z"/><path class="cls-4" d="M123.64,204.41a11.49,11.49,0,0,0-7.41,6.19c-1.72,3.63-2,8.67-.14,15.63A87.67,87.67,0,0,0,124.83,247a36.83,36.83,0,0,0,5.67,7.6c2,1.93,4.41,3.58,7.33,2.8s4.2-3.43,5-6.09a36.73,36.73,0,0,0,1.11-9.42,87.81,87.81,0,0,0-2.81-22.34c-1.86-7-4.63-11.18-7.93-13.47a11.49,11.49,0,0,0-9.52-1.65Zm1.46,5.46a5.44,5.44,0,0,1,4.84.83c1.82,1.26,4.05,4.14,5.7,10.29a83.58,83.58,0,0,1,2.61,20.81,33,33,0,0,1-.89,7.94,5.87,5.87,0,0,1-1,2.13,5.77,5.77,0,0,1-1.93-1.35,32.77,32.77,0,0,1-4.75-6.42,83.4,83.4,0,0,1-8.13-19.33c-1.65-6.16-1.16-9.76-.22-11.76a5.44,5.44,0,0,1,3.77-3.14Z"/><path class="cls-3" d="M26.64,165.84C14.87,159.05.42,145.48,3.21,140.64s21.78.89,33.54,7.68,11.12,13.33,9.06,16.91-7.41,7.41-19.17.61Z"/><path class="cls-4" d="M48.25,166.64a11.45,11.45,0,0,0,.87-9.61c-1.35-3.78-4.72-7.55-11-11.15a87.46,87.46,0,0,0-20.84-8.5A37.24,37.24,0,0,0,7.93,136c-2.77,0-5.65.59-7.16,3.21s-.55,5.38.8,7.81a36.92,36.92,0,0,0,5.87,7.44,87.88,87.88,0,0,0,17.78,13.81c6.24,3.6,11.19,4.63,15.14,3.92a11.47,11.47,0,0,0,7.89-5.57Zm-4.89-2.82a5.46,5.46,0,0,1-4,2.83c-2.17.39-5.78-.06-11.3-3.25a83.72,83.72,0,0,1-16.57-12.86,32.56,32.56,0,0,1-5-6.25,6,6,0,0,1-.81-2.21A5.75,5.75,0,0,1,8,141.67a32.6,32.6,0,0,1,7.9,1.18,83.45,83.45,0,0,1,19.42,7.92c5.52,3.18,7.72,6.08,8.47,8.16a5.46,5.46,0,0,1-.45,4.89Z"/><path class="cls-3" d="M170.84,148.32c11.77-6.79,30.75-12.52,33.54-7.68s-11.66,18.41-23.42,25.2-17.1,3-19.17-.61-2.71-10.12,9.05-16.91Z"/><path class="cls-4" d="M159.34,166.64a11.51,11.51,0,0,0,7.9,5.57c3.95.71,8.89-.32,15.13-3.92a87.25,87.25,0,0,0,17.78-13.81A36.57,36.57,0,0,0,206,147c1.35-2.43,2.32-5.19.81-7.81s-4.39-3.17-7.17-3.21a37.17,37.17,0,0,0-9.38,1.36,88,88,0,0,0-20.85,8.5c-6.24,3.6-9.6,7.37-11,11.15a11.48,11.48,0,0,0,.87,9.61Zm4.89-2.82a5.46,5.46,0,0,1-.44-4.89c.74-2.08,2.94-5,8.46-8.16a83.34,83.34,0,0,1,19.43-7.92,33,33,0,0,1,7.89-1.18,5.85,5.85,0,0,1,2.32.41,5.72,5.72,0,0,1-.8,2.21,32.28,32.28,0,0,1-5,6.25,83.66,83.66,0,0,1-16.56,12.86c-5.52,3.19-9.13,3.64-11.31,3.25a5.45,5.45,0,0,1-4-2.83Z"/><path class="cls-4" d="M103.8,76.17A79.23,79.23,0,0,0,51.39,214.82l.75.66,0,0,.14.12h0c17.14,14.85,33.53,19.87,49.46,27.87l2,1,2-1c15.93-8,32.33-13,49.47-27.88l.9-.78A79.16,79.16,0,0,0,106.56,76.32l-.08-.15Zm-.08,9h.08a70.2,70.2,0,0,1,46.43,122.84l-.82.71h0c-15.09,13.09-29.64,17.89-45.58,25.68-15.92-7.78-30.47-12.59-45.55-25.64l-.06-.06-.82-.71h0A70.19,70.19,0,0,1,103.72,85.21Z"/><path class="cls-4" d="M71.62,15.71a9.8,9.8,0,0,0-9.17,14.72l-.13-.22A181.58,181.58,0,0,1,76.78,67.37a184.34,184.34,0,0,1-.55,97.49L75,169.26l18.82,5L95,170A203.85,203.85,0,0,0,95.6,62.33,207.09,207.09,0,0,0,79.49,20.79l0-.06,0-.05a9.67,9.67,0,0,0-6-4.66h0a9.77,9.77,0,0,0-1.86-.31Zm-.49,9h0a.55.55,0,0,1,.38.3A198.09,198.09,0,0,1,86.87,64.67a194.56,194.56,0,0,1,.51,98.55L86,162.86A193.32,193.32,0,0,0,85.51,65,190.89,190.89,0,0,0,70.33,26l-.06-.11-.06-.11a.7.7,0,0,1,.32-1,.77.77,0,0,1,.6-.08Z"/><path class="cls-4" d="M133.32,15.71a9.69,9.69,0,0,0-7.82,5l0,.05,0,.06a207.09,207.09,0,0,0-16.11,41.54A203.85,203.85,0,0,0,109.9,170l1.21,4.3,18.82-5-1.23-4.4a184.34,184.34,0,0,1-.55-97.49,181.81,181.81,0,0,1,14.46-37.16l-.12.22A9.83,9.83,0,0,0,138.92,17h0a9.85,9.85,0,0,0-5.6-1.29Zm.48,9a.74.74,0,0,1,.6.09.69.69,0,0,1,.32,1l-.06.11-.06.11a190.89,190.89,0,0,0-15.18,39,193.32,193.32,0,0,0-.51,97.83l-1.36.36a194.56,194.56,0,0,1,.51-98.55A198.32,198.32,0,0,1,133.42,25a.51.51,0,0,1,.38-.29h0Z"/><path class="cls-4" d="M112.59.05a9.75,9.75,0,0,0-8,6.1l0,.06,0,0A207.64,207.64,0,0,0,94,49.55a203.86,203.86,0,0,0,18.78,115.8l1.42,2.93,20.52-2.7-2.9-5.7A184.25,184.25,0,0,1,113.29,52.1a181.7,181.7,0,0,1,9.48-38.74l-.09.24A9.83,9.83,0,0,0,117.39.75a10,10,0,0,0-4.79-.7Zm1,9h0a.79.79,0,0,1,.39.06h0a.69.69,0,0,1,.44.93l0,.11,0,.12a191,191,0,0,0-10,40.66A193.39,193.39,0,0,0,121,158.27l-1.45.19A194.79,194.79,0,0,1,102.93,50.73,198.19,198.19,0,0,1,113,9.44a.62.62,0,0,1,.56-.4Z"/><path class="cls-5" d="M75.48,22.86A203.27,203.27,0,0,1,91.24,63.5a199.24,199.24,0,0,1-.57,105.28l-10.09-2.7a188.74,188.74,0,0,0,.56-99.88A186.28,186.28,0,0,0,66.33,28.12a5.26,5.26,0,0,1,1.94-7.21,5.32,5.32,0,0,1,4-.53,5.13,5.13,0,0,1,3.18,2.48Z"/><path class="cls-6" d="M92.79,69.72a89.86,89.86,0,0,0-10.28,1.92,188.83,188.83,0,0,1-1.93,94.44l10.09,2.7a199.22,199.22,0,0,0,2.12-99.06Z"/><path class="cls-4" d="M70.13,19.12a6.21,6.21,0,0,0-2.42.82,6.38,6.38,0,0,0-2.35,8.75l0-.05A185.27,185.27,0,0,1,80.05,66.5a187.7,187.7,0,0,1-.55,99.27l-.31,1.1,12.27,3.29.3-1.07a200.35,200.35,0,0,0,.57-105.88A204.36,204.36,0,0,0,76.48,22.34h0a6.29,6.29,0,0,0-3.87-3h0a6.62,6.62,0,0,0-2.47-.17Zm.29,2.24a4.07,4.07,0,0,1,1.59.11h0a4,4,0,0,1,2.48,1.93A202.41,202.41,0,0,1,90.14,63.79a198,198,0,0,1-.29,103.6l-7.91-2.12a189.81,189.81,0,0,0,.29-99.36,187.45,187.45,0,0,0-14.9-38.32l0,0v0a4.12,4.12,0,0,1,1.54-5.65,4.22,4.22,0,0,1,1.58-.53Z"/><path class="cls-5" d="M129.45,22.86A203.27,203.27,0,0,0,113.69,63.5a199.24,199.24,0,0,0,.57,105.28l10.09-2.7a188.74,188.74,0,0,1-.56-99.88A186.28,186.28,0,0,1,138.6,28.12a5.25,5.25,0,0,0-1.94-7.21,5.32,5.32,0,0,0-4-.53,5.16,5.16,0,0,0-3.18,2.48Z"/><path class="cls-6" d="M112.21,69.44a199.17,199.17,0,0,0,2.05,99.34l10.09-2.7a188.88,188.88,0,0,1-1.79-95,88,88,0,0,0-10.35-1.61Z"/><path class="cls-4" d="M134.8,19.12a6.55,6.55,0,0,0-2.46.17,6.29,6.29,0,0,0-3.88,3h0A204.36,204.36,0,0,0,112.6,63.21a200.46,200.46,0,0,0,.57,105.88l.3,1.07,12.27-3.29-.31-1.1a187.7,187.7,0,0,1-.55-99.27A185,185,0,0,1,139.6,28.64l0,.05a6.38,6.38,0,0,0-2.35-8.75,6.21,6.21,0,0,0-2.42-.82Zm-.28,2.24a4.24,4.24,0,0,1,1.57.53,4.12,4.12,0,0,1,1.54,5.65v0l0,0a187.45,187.45,0,0,0-14.9,38.32,189.81,189.81,0,0,0,.29,99.36l-7.91,2.12a198,198,0,0,1-.29-103.6A202.41,202.41,0,0,1,130.44,23.4a4.06,4.06,0,0,1,2.48-1.93h0a4.11,4.11,0,0,1,1.6-.11Z"/><path class="cls-5" d="M113.07,4.55a5.17,5.17,0,0,0-4.3,3.25A202.63,202.63,0,0,0,98.45,50.14a199.39,199.39,0,0,0,18.36,113.24l11-1.45a188.84,188.84,0,0,1-19-110.42,186.2,186.2,0,0,1,9.72-39.7,5.28,5.28,0,0,0-5.46-7.26Z"/><path class="cls-6" d="M103.8,69c-2.32,0-4.63.1-6.94.28a199.39,199.39,0,0,0,20,94.07l11-1.45a189,189,0,0,1-20.44-92.82c-1.17,0-2.35-.07-3.52-.07Z"/><path class="cls-4" d="M113,3.42a6.34,6.34,0,0,0-5.24,4v0h0A204.22,204.22,0,0,0,97.33,50,200.45,200.45,0,0,0,115.8,163.87l.35.73,13.34-1.76-.72-1.42A187.71,187.71,0,0,1,109.93,51.65a184.61,184.61,0,0,1,9.66-39.45l0,.06a6.39,6.39,0,0,0-3.47-8.38A6.48,6.48,0,0,0,113,3.42Zm.24,2.25a4.17,4.17,0,0,1,2,.3,4.11,4.11,0,0,1,2.26,5.4v0l0,0a187.74,187.74,0,0,0-9.77,39.93A190.06,190.06,0,0,0,126.06,161l-8.57,1.13A198.17,198.17,0,0,1,99.57,50.29,202.26,202.26,0,0,1,109.82,8.2a4.06,4.06,0,0,1,3.37-2.53Z"/><path class="cls-7" d="M178.51,155.4a74.7,74.7,0,1,1-21.88-52.83,74.7,74.7,0,0,1,21.88,52.83Z"/><path class="cls-3" d="M103.8,80.69A74.7,74.7,0,0,0,33.91,181.82c14.35-4.61,37.56-2.95,66.55,14.45,18.2,10.92,38.68,14.67,60,7.8A74.72,74.72,0,0,0,103.8,80.69Z"/><path class="cls-8" d="M90.94,83.81a73,73,0,0,0-11.24.87,74.69,74.69,0,0,0-46,96.57c12.48,18.21,34.06,29.23,57.24,29.23a70.51,70.51,0,0,0,48-18.55,60.34,60.34,0,0,0,0-89.57,70.51,70.51,0,0,0-48-18.55Z"/><path class="cls-9" d="M90.94,83.81a73,73,0,0,0-11.24.87,74.69,74.69,0,0,0-46,96.57l.37.53c14.35-4.55,37.5-2.85,66.39,14.49a81.19,81.19,0,0,0,18.93,8.4c23.31-10,39.49-32,39.49-57.52,0-35-30.42-63.34-67.94-63.34Z"/><path class="cls-7" d="M54.38,211.44c16.76,14.85,32.78,19.65,49.42,28,16.63-8.36,32.65-13.16,49.41-28l-49.41,4.77Z"/><path class="cls-1" d="M103.8,216.2a12.5,12.5,0,0,0-11.48,7.54A12.51,12.51,0,0,0,75.44,226c9.42,5,18.79,8.69,28.36,13.5,9.57-4.81,18.93-8.45,28.35-13.5a12.5,12.5,0,0,0-16.87-2.22,12.52,12.52,0,0,0-11.48-7.54Z"/><path class="cls-8" d="M103.8,141.74a1.73,1.73,0,0,0-1.2.49,1.7,1.7,0,0,0,1.2,2.9,210.45,210.45,0,0,1,42.25,4.28,1.63,1.63,0,0,0,1.27-.24,1.68,1.68,0,0,0,.73-1.07,1.71,1.71,0,0,0-.25-1.28,1.76,1.76,0,0,0-1.07-.73,214.22,214.22,0,0,0-42.93-4.35Z"/><path class="cls-8" d="M103.8,166.39a189.33,189.33,0,0,0-45,5.42,1.72,1.72,0,0,0-1,.77,1.66,1.66,0,0,0-.2,1.28,1.7,1.7,0,0,0,2.05,1.25,185.18,185.18,0,0,1,44.17-5.33,1.7,1.7,0,0,0,0-3.39Z"/><path class="cls-7" d="M92.07,194.89H92A161.54,161.54,0,0,0,57,201.4a1.7,1.7,0,0,0,1,3.25,158,158,0,0,1,34.21-6.38,1.69,1.69,0,0,0-.14-3.38Z"/><path class="cls-10" d="M103.66,80.69a74.72,74.72,0,0,0-69.58,47.85c14.71-14.71,44.13-14.3,69.32,1.53,20.2,12.7,47.14,14.11,71.42,2.14a74.72,74.72,0,0,0-71-51.52Z"/><path class="cls-11" d="M90.94,83.81a72.79,72.79,0,0,0-11.24.87,74.74,74.74,0,0,0-45.62,43.86c14.71-14.71,44.13-14.3,69.32,1.53,15.68,9.85,35.41,12.91,54.81,8.19-4.64-30.77-33-54.45-67.27-54.45Z"/><path class="cls-8" d="M64.12,93.18c-.59,0-1.17,0-1.76,0a74.74,74.74,0,0,0-28.94,37.1A31.29,31.29,0,1,0,64.15,93.18Z"/><path class="cls-9" d="M64.12,93.18c-.59,0-1.17,0-1.75,0a74.59,74.59,0,0,0-28.29,35.31c13.18-13.18,38.17-14.22,61.34-2.91,0-.38,0-.77,0-1.16a31.29,31.29,0,0,0-31.3-31.29Z"/><path class="cls-4" d="M103.8,79.56A75.84,75.84,0,0,0,53.63,212.28l.85.74h0l0,0c16.62,14.4,32.53,19.24,48.77,27.41l.51.25.51-.25c16.24-8.17,32.15-13,48.77-27.42l.88-.76A75.82,75.82,0,0,0,104.54,79.6l0,0Zm-.08,2.26h.08a73.58,73.58,0,0,1,48.67,128.77l-.86.75h0c-16.1,14-31.54,18.76-47.8,26.87C87.55,230.1,72.11,225.3,56,211.37h0l0,0-.85-.74h0A73.58,73.58,0,0,1,103.72,81.82Z"/><path class="cls-10" d="M134.35,121.58A1.69,1.69,0,0,0,133,124.3a1.66,1.66,0,0,0,1.12.65A231,231,0,0,1,164,130.88a1.7,1.7,0,0,0,2.08-1.2,1.69,1.69,0,0,0-.17-1.28,1.64,1.64,0,0,0-1-.79,234.06,234.06,0,0,0-30.26-6Z"/><path class="cls-9" d="M108.8,102.59a251.69,251.69,0,0,0-38,2.11,1.69,1.69,0,0,0,.44,3.36,249.8,249.8,0,0,1,50-1.52,1.69,1.69,0,1,0,.24-3.38q-6.34-.45-12.7-.57Z"/><path class="cls-3" d="M149,184.45a7.47,7.47,0,1,1-7.47-7.47,7.47,7.47,0,0,1,7.47,7.47Z"/><path class="cls-3" d="M122.3,182.61a3.92,3.92,0,0,1-6.69,2.77,3.92,3.92,0,1,1,5.54-5.54,3.93,3.93,0,0,1,1.15,2.77Z"/><path class="cls-12" d="M139.48,150.56c0,1.75-1.24,3.44-3.46,4.68a17.51,17.51,0,0,1-8.35,1.93c-6.52,0-11.81-3-11.81-6.61s5.29-6.62,11.81-6.62a17.52,17.52,0,0,1,8.35,1.94c2.22,1.24,3.46,2.92,3.46,4.68Z"/><path class="cls-12" d="M79.78,150.56c0,1.75-1.24,3.44-3.46,4.68A17.51,17.51,0,0,1,68,157.17c-6.52,0-11.81-3-11.81-6.61s5.29-6.62,11.81-6.62a17.52,17.52,0,0,1,8.35,1.94c2.22,1.24,3.46,2.92,3.46,4.68Z"/><path class="cls-4" d="M61.66,139.14a12.16,12.16,0,1,1,24.31,0H81.45a7.64,7.64,0,1,0-15.28,0Z"/><path class="cls-4" d="M109.67,139.14a12.16,12.16,0,1,1,24.31,0h-4.51a7.64,7.64,0,1,0-15.28,0Z"/><path class="cls-13" d="M80.84,155a3.53,3.53,0,0,0-3.54,3.54v4a20.52,20.52,0,0,0,41,0v-4A3.53,3.53,0,0,0,114.8,155Z"/><path class="cls-13" d="M97.82,166.18a20.48,20.48,0,0,0-16.59,8.44,20.51,20.51,0,0,0,33.18,0,20.48,20.48,0,0,0-16.59-8.44Z"/><path class="cls-13" d="M80.84,155a3.53,3.53,0,0,0-3.54,3.54v4a20.52,20.52,0,0,0,41,0v-4A3.53,3.53,0,0,0,114.8,155Z"/><path class="cls-4" d="M80.84,153.89a4.69,4.69,0,0,0-4.67,4.67v4a21.65,21.65,0,0,0,43.3,0v-4a4.69,4.69,0,0,0-4.67-4.67Zm0,2.26h34a2.38,2.38,0,0,1,2.41,2.41v4a19.39,19.39,0,0,1-38.78,0v-4a2.38,2.38,0,0,1,2.41-2.41Z"/><path class="cls-14" d="M80.84,155a3.53,3.53,0,0,0-3.54,3.54v4a20.52,20.52,0,0,0,41,0v-4A3.53,3.53,0,0,0,114.8,155Z"/><path class="cls-15" d="M97.82,169a20.48,20.48,0,0,0-15.46,7,20.51,20.51,0,0,0,30.92,0,20.48,20.48,0,0,0-15.46-7Z"/><path class="cls-1" d="M80.84,155a3.53,3.53,0,0,0-3.54,3.54v3.56a47.24,47.24,0,0,0,41,0v-3.58A3.53,3.53,0,0,0,114.8,155Z"/><path class="cls-16" d="M80.84,155a3.53,3.53,0,0,0-3.54,3.54v3.56a48.39,48.39,0,0,0,7.17,2.7c-1.4-.95-1.67-2.26-1.67-4.31V155Z"/><path class="cls-16" d="M107.33,155v5.49c0,2.77-.71,5.17-3.09,5.8a47.63,47.63,0,0,0,14.1-4.17v-3.58A3.53,3.53,0,0,0,114.8,155Z"/><path class="cls-17" d="M114.8,155a3.53,3.53,0,0,1,3.54,3.54v3.56a48.39,48.39,0,0,1-7.17,2.7c1.4-.95,1.67-2.26,1.67-4.31V155Z"/><path class="cls-4" d="M80.84,153.89a4.69,4.69,0,0,0-4.67,4.67v4a21.65,21.65,0,0,0,43.3,0v-4a4.68,4.68,0,0,0-4.67-4.67Zm0,2.26h34a2.38,2.38,0,0,1,2.41,2.41v4a19.39,19.39,0,0,1-38.78,0v-4a2.38,2.38,0,0,1,2.41-2.41Z"/><path class="cls-4" d="M77.11,161.47l-.49,1a48.4,48.4,0,0,0,42.4,0l-.49-1a47.21,47.21,0,0,1-41.42,0Z"/><path class="cls-18" d="M95.55,174.55a2.11,2.11,0,0,1-1,1.69,4.25,4.25,0,0,1-2.41.71c-1.89,0-3.41-1.08-3.41-2.4s1.52-2.41,3.41-2.41a4.25,4.25,0,0,1,2.41.71,2.12,2.12,0,0,1,1,1.7Z"/></g></g></svg>