<svg xmlns="http://www.w3.org/2000/svg" xmlns:xlink="http://www.w3.org/1999/xlink" viewBox="0 0 373.05 381.14"><defs><style>.cls-1{fill:none;}.cls-2{fill:#fefefe;}.cls-3{fill:#f4f4f4;}.cls-4{fill:#e7e7e7;}.cls-5{fill:#ededed;}.cls-6{fill:#e2e2e2;}.cls-7{fill:#a0a0a0;}.cls-8{fill:#fdfefe;}.cls-9{fill:#ebebeb;}.cls-10{fill:#101010;}.cls-11{fill:#e7576e;}.cls-12{clip-path:url(#clip-path);}.cls-13{fill:#fdde83;}.cls-14{fill:#b5f5fd;}</style><clipPath id="clip-path"><rect class="cls-1" x="217.03" y="87.03" width="21.55" height="5.12"/></clipPath></defs><g id="Layer_2" data-name="Layer 2"><g id="Layer_1-2" data-name="Layer 1"><rect class="cls-2" x="13.36" y="17.38" width="346.39" height="346.39"/><path class="cls-3" d="M259.22.11c.8.77,62.54,1.08,63.29,1.89q-.06,4.1-.13,8.2a1.74,1.74,0,0,1-1.74,1.71H48a1.74,1.74,0,0,1-1.74-1.71l-.11-8.37V1.61S113.87.11,70.38,0Z"/><path class="cls-3" d="M46.18,379l.15-7.25h276q.06,3.22.14,6.44c-.05.81-.09,1.61-.14,2.42h-276C46.28,380.11,46.23,379.56,46.18,379Z"/><path class="cls-4" d="M322.36,11.86c-.31,5,.58,6.26,2.63,6.18,7.63-.33,15.27-.15,22.9-.13,4.46,0,6.73,5.5,6.73,16.28V346.55c0,10.74-2.28,16.2-6.76,16.22H324.14c-.91,0-1.87-.3-1.78,3h-276c.07-3.78-1.07-3-2-3H13.29c-1.74,0-3.43-.36-4.63-4,1.68.59,3.25,2.11,5,2.11q166.77-.17,333.51-.1c4.72,0,6.61-4.55,6.61-16V36.37c0-12.14-1.8-16.48-6.81-16.48H14.3c-5,0-6.86,4.32-6.86,16.41V334.19c0,7.94-.33,16,.83,23.68-1.33-2.46-1.65-5.95-1.65-9.72V35.58c0-12.72,2.06-17.72,7.4-17.72,9.91,0,19.8-.15,29.69.14,2,.06,2.93-1.17,2.63-6.18Z"/><path class="cls-5" d="M46.33,365.79h276v6h-276Z"/><path class="cls-6" d="M245.4,261.35H174.14c-5.46,0-5.7-.23-5.7-4.94v-77c0-5.07.55-5.56,6.52-5.56H315.84c6,0,6.52.49,6.52,5.56v77c0,4.69-.25,4.92-5.7,4.92Z"/><path class="cls-7" d="M116.65,280.86h52.43c.81,0,1.88-.87,2.21,2.23a56.09,56.09,0,0,1,0,11.73c-.13,1.29-.58,1.83-1,1.88a10.9,10.9,0,0,1-1.4,0H64.56c-2.43,0-3.69-6.58-2.58-13.55.21-1.39.64-2.28,1.12-2.29a11.06,11.06,0,0,1,1.41,0Z"/><path class="cls-6" d="M98,202.86h34.31c1.59,0,2.38,6.46,1.65,13.45-.15,1.55-.48,2.51-.83,2.46a6.63,6.63,0,0,1-1,.07H63.72c-1.86,0-2.44-3.8-1.92-12.5.08-1.86.41-3.23.8-3.35a2.15,2.15,0,0,1,1-.13Z"/><path class="cls-6" d="M192.36,143.86H315.47c5.69,0,8.52,6.44,5.92,13.44a3.23,3.23,0,0,1-2.62,2.42,32.6,32.6,0,0,1-3.7.12H69.21c-6.66,0-8.75-3.81-6.9-12.5.29-1.86,1.46-3.23,2.87-3.35a28.44,28.44,0,0,1,3.69-.12Z"/><path class="cls-6" d="M98,188.86H63.33c-.51,0-1.23,1.15-1.46-2.06a88.45,88.45,0,0,1,0-11.28c.08-1.2.35-1.55.6-1.61a4.85,4.85,0,0,1,1-.1h68.71c1.86,0,2.31,3,1.86,12,0,1.73-.35,3-.71,3a3.69,3.69,0,0,1-1,.1Z"/><path class="cls-6" d="M233,114.79h85.41c1.28,0,3.06-1.17,3.56,2.08a35.93,35.93,0,0,1-.07,11.29c-.16,1-.79,1.64-1.48,1.58s-1.18.08-1.77.09H147.87c-3.61,0-4.06-.77-4.06-7-.06-7.91,0-8.11,4.06-8.11Z"/><path class="cls-7" d="M155.94,334.8H67.36c-1.82,0-4.3,1-5-2.26a25.78,25.78,0,0,1,.19-11.72A2.5,2.5,0,0,1,65.31,319H244.25c1.93,0,4.55-1.09,5.4,2.12a24.83,24.83,0,0,1,0,11.75c-.6,2.47-2.53,1.95-4,1.95H155.94Z"/><path class="cls-8" d="M139.87,85.59a.81.81,0,0,1-.36-.64C139.7,84.93,139.84,85.08,139.87,85.59Z"/><path class="cls-8" d="M139.15,102.45c.07-.58.27-.45.44-.48C139.5,102.34,139.33,102.53,139.15,102.45Z"/><rect class="cls-2" x="57.19" y="49.51" width="49.98" height="28.7"/><circle class="cls-9" cx="253.61" cy="89.71" r="9.54"/><path class="cls-10" d="M258.74,87.27A27.78,27.78,0,0,1,252.38,93c-1.38.79-2.14-1-3.12-1.65-.55-.39-1.13-.93-.49-1.69a1.1,1.1,0,0,1,1.46-.48,1.06,1.06,0,0,1,.48.48c.94,1.38,1.67.71,2.51,0,1.16-1.06,2.33-2.08,3.56-3a1.88,1.88,0,0,1,1.38-.29C258.35,86.32,258.47,86.87,258.74,87.27Z"/><circle class="cls-11" cx="227.82" cy="89.59" r="9.49"/><g class="cls-12"><circle class="cls-13" cx="227.81" cy="89.59" r="9.49"/></g><path class="cls-14" d="M228.72,101.13H73.14A11.19,11.19,0,0,1,61.94,90v-.7a11.2,11.2,0,0,1,11.2-11.2H228.72a11.19,11.19,0,0,1,11.2,11.2v.68a11.19,11.19,0,0,1-11.18,11.2Zm8.51-11.47v-.14a9.63,9.63,0,0,0-9.63-9.63H74.26a9.64,9.64,0,0,0-9.62,9.63v.14a9.64,9.64,0,0,0,9.62,9.63H227.6a9.63,9.63,0,0,0,9.63-9.63Z"/><path class="cls-7" d="M113.87.11q.18,6,.34,12c.74,5-1.41,6.24-6.35,6.18-24-.29-47.94-.14-71.91-.14C23,18.11,18,23.11,18,35.83V348.4c0,3.77.76,7.26,4,9.72l.9.89c2.92,3.65,7,4,11.22,4h75.24c2.2,0,4.94-.76,4.77,3v6c-.11,3-.23,6-.34,9-18.49,0-37,.35-55.47-.12-10.75-.28-21.74-.67-31.71-5.53-12.27-6-20.86-15.13-23.68-29A156.11,156.11,0,0,1,0,315.18c0-85-.11-169.9.14-254.85.06-11.22.7-22.62,5.33-33.22C11.94,12.28,23.41,4.39,39,2.11,63.93-1.39,88.94.65,113.87.11Z"/><path class="cls-7" d="M334,2.11c15.63,2.28,27.1,10.17,33.53,25,4.63,10.6,5.27,22,5.33,33.22.25,85,.14,169.9.14,254.85a153.93,153.93,0,0,1-2.93,31.18c-2.82,13.87-11.41,23-23.68,29-10,4.86-21,5.25-31.71,5.53-18.47.47-37,.12-55.47.12-.11-3-.23-6-.34-9v-6c-.17-3.76,2.57-3,4.77-3H338.9c4.22,0,8.3-.35,11.22-4l.9-.89c3.24-2.46,4-5.95,4-9.72V35.83c0-12.72-5-17.72-17.91-17.68-24,0-47.91-.15-71.91.14-4.94.06-7.09-1.18-6.35-6.18q.18-6,.34-12C284.15.65,309.16-1.39,334,2.11Z"/><path class="cls-14" d="M101.94,114.79H140.5c.58,0,1.38-1.17,1.61,2.08a78.78,78.78,0,0,1,0,11.29c-.08,1-.36,1.64-.67,1.58a4.36,4.36,0,0,1-.8.09H63.51c-1.63,0-1.84-.77-1.84-7,0-7.91,0-8.11,1.84-8.11Z"/></g></g></svg>