<svg xmlns="http://www.w3.org/2000/svg" viewBox="0 0 877.91 384.94"><defs><style>.cls-1{fill:#f4f4f4;}.cls-2{fill:#a0a0a0;}.cls-3{fill:#e7e7e7;}.cls-4{fill:#fefefe;}.cls-5{fill:#ededed;}.cls-6{fill:#e2e2e2;}.cls-7{fill:#b5f5fd;}.cls-8{fill:#ebebeb;}.cls-9{fill:#fdde83;}.cls-10{fill:#e7576e;}.cls-11{fill:#e7536b;}.cls-12{fill:#fdfefe;}.cls-13{fill:#101010;}</style></defs><g id="Layer_2" data-name="Layer 2"><g id="Layer_1-2" data-name="Layer 1"><path class="cls-1" d="M114.17,0H782.71c.12,1,.23,2,.35,3-.12,3.66-.23,7.32-.35,11H114.17q-.17-6-.34-12C113.94,1.35,114.06.68,114.17,0Z"/><path class="cls-2" d="M113.83,2q.17,6,.34,12c.74,5-1.41,6.24-6.35,6.18-24-.29-47.94-.14-71.91-.14C23,20,18,25,18,37.72q0,145,0,290.1c0,7.49,0,15,0,22.47,0,3.77.76,7.26,4,9.72l.9.89c2.92,3.65,7,4,11.22,4q37.62,0,75.24,0c2.2,0,4.94-.76,4.77,3v6c-.11,3-.23,6-.34,9-18.49,0-37,.35-55.47-.12-10.75-.28-21.74-.67-31.71-5.53-12.27-6-20.86-15.13-23.68-29A154.93,154.93,0,0,1,0,317.07c0-84.95-.11-169.9.14-254.85C.2,51,.84,39.6,5.47,29,11.9,14.17,23.37,6.28,39,4,63.89.5,88.9,2.54,113.83,2Z"/><path class="cls-1" d="M113.83,382.91c.11-3,.23-6,.34-9H782.72q.16,4,.34,8c-.12,1-.23,2-.35,3H114.17C114.06,384.26,113.94,383.58,113.83,382.91Z"/><path class="cls-2" d="M783.06,381.91q-.18-4-.34-8v-6c-.22-3.34,2.09-3,4.29-3q28.74,0,57.47,0c10.85,0,16.36-5.48,16.36-16.22q0-156.18,0-312.36c0-10.78-5.49-16.27-16.29-16.28-18.49,0-37-.2-55.48.13-5,.08-7.1-1.15-6.37-6.18.12-3.65.23-7.31.35-11,13.83,0,27.66-.2,41.48.07,8.13.16,16.43.52,24.08,3.49,8.08,3.15,15,7.84,20.33,15.3,7.07,10,8.75,21.26,8.78,32.68q.36,138.45,0,276.91c0,11.51-1.87,23-9.31,32.54-4.88,6.26-10.62,11.65-18.38,13.91s-15.74,4.12-24,4C811.72,381.81,797.39,381.91,783.06,381.91Z"/><path class="cls-3" d="M782.71,14c-.73,5,1.42,6.26,6.37,6.18,18.49-.33,37-.15,55.48-.13,10.8,0,16.28,5.5,16.29,16.28q0,156.18,0,312.36c0,10.74-5.51,16.2-16.36,16.22q-28.72,0-57.47,0c-2.2,0-4.51-.3-4.29,3H114.17c.17-3.78-2.57-3-4.77-3q-37.62,0-75.24,0c-4.22,0-8.3-.36-11.22-4,4.08.59,7.88,2.11,12.18,2.11q403.88-.17,807.76-.1c11.44,0,16-4.55,16-16V38.51c0-12.14-4.34-16.48-16.49-16.48H36.6C24.4,22,20,26.35,20,38.44q0,149,0,297.89c0,7.94-.82,16,2,23.68-3.23-2.46-4-5.95-4-9.72,0-7.49,0-15,0-22.47q0-145,0-290.1C18,25,23,20,35.91,20c24,0,47.94-.15,71.91.14,4.94.06,7.09-1.17,6.35-6.18Z"/><path class="cls-4" d="M22,360c-2.81-7.72-2-15.74-2-23.68q0-148.95,0-297.89C20,26.35,24.4,22,36.6,22H842.36c12.15,0,16.49,4.34,16.49,16.48V346.9c0,11.46-4.53,16-16,16q-403.87,0-807.76.1c-4.3,0-8.1-1.52-12.18-2.11ZM670.39,191h87.45c6.73,0,7-.32,7-7.08q0-55.47,0-110.94c0-7.29-.69-8-8-8H584c-7.36,0-8,.67-8,8q0,55.46,0,110.93c0,6.78.32,7.11,7,7.11Zm-343,78H160.52c-1.5,0-3,0-4.49,0a4,4,0,0,0-3.62,2.29c-3.56,7,.46,13.55,8.26,13.55H494.48c1.5,0,3,0,4.5,0s2.87-.59,3.3-1.88a18.34,18.34,0,0,0,.12-11.73c-1-3.1-4.48-2.23-7.07-2.23Q411.39,269,327.43,269Zm.57-64H161.06a48.83,48.83,0,0,0-5,.13,4.22,4.22,0,0,0-3.87,3.35c-2.51,8.7.31,12.5,9.31,12.5H493.39c1.66,0,3.33,0,5-.07a4.37,4.37,0,0,0,4.05-2.46c3.52-7-.31-13.45-8-13.45Zm0-59H161.06a48.83,48.83,0,0,0-5,.12,4.22,4.22,0,0,0-3.87,3.35c-2.51,8.69.31,12.5,9.32,12.5H493.89c1.66,0,3.33,0,5-.12a4.16,4.16,0,0,0,3.54-2.42c3.52-7-.3-13.44-8-13.44Zm-.48,45H494.41c1.66,0,3.33,0,5-.1a3.45,3.45,0,0,0,3.44-3c2.16-9-.08-12-9-12H160.53c-1.66,0-3.33,0-5,.1-1.21.06-2.52.41-2.89,1.61a18.5,18.5,0,0,0-.09,11.28c1.08,3.21,4.57,2.05,7.08,2.06Q243.58,191.06,327.52,191Zm-.08-74.09H160c-8,0-8.13.2-8,8.11.08,6.19.93,7,8,7H495.86c1.17,0,2.34,0,3.5-.09s2.53-.38,2.91-1.58a18.61,18.61,0,0,0,.13-11.29c-1-3.25-4.54-2.08-7-2.08Q411.4,116.9,327.44,116.93Zm-43.05,206h126.4c2.14,0,4.86.52,5.7-1.95a17.74,17.74,0,0,0,0-11.75c-1.19-3.21-4.89-2.12-7.61-2.12q-123.66,0-247.31,0l-5,0c-1.59,0-3.28.36-3.85,1.83a18.39,18.39,0,0,0-.26,11.72c.93,3.22,4.42,2.26,7,2.26Q221.94,323,284.39,322.94ZM193.48,65c-11.8,0-23.61,0-35.41,0-5.51,0-6,.72-6.07,7.11,0,7.52.32,8.07,6.09,8.08q35.41.06,70.83,0c5.67,0,6.1-.64,6.1-7.59S234.51,65,228.9,65C217.09,65,205.29,65,193.48,65Z"/><path class="cls-5" d="M114.17,367.93H782.72v6H114.17Z"/><path class="cls-6" d="M670.39,191H582.94c-6.7,0-7-.33-7-7.11q0-55.47,0-110.93c0-7.3.68-8,8-8h172.9c7.33,0,8,.7,8,8q0,55.47,0,110.94c0,6.76-.31,7.08-7,7.08Z"/><path class="cls-2" d="M327.43,269q84,0,167.9,0c2.59,0,6-.87,7.07,2.23a18.34,18.34,0,0,1-.12,11.73c-.43,1.29-1.88,1.83-3.3,1.88s-3,0-4.5,0H160.67c-7.8,0-11.82-6.58-8.26-13.55A4,4,0,0,1,156,269c1.49-.06,3,0,4.49,0Z"/><path class="cls-6" d="M328,205H494.43c7.69,0,11.52,6.46,8,13.45a4.37,4.37,0,0,1-4.05,2.46c-1.66.06-3.33.07-5,.07H161.51c-9,0-11.82-3.8-9.31-12.5a4.22,4.22,0,0,1,3.87-3.35,48.83,48.83,0,0,1,5-.13Z"/><path class="cls-6" d="M328,146H494.43c7.69,0,11.51,6.44,8,13.44a4.16,4.16,0,0,1-3.54,2.42c-1.66.13-3.33.12-5,.12H161.52c-9,0-11.83-3.81-9.32-12.5a4.22,4.22,0,0,1,3.87-3.35,48.83,48.83,0,0,1,5-.12Z"/><path class="cls-6" d="M327.52,191q-83.94,0-167.88,0c-2.51,0-6,1.15-7.08-2.06a18.5,18.5,0,0,1,.09-11.28c.37-1.2,1.68-1.55,2.89-1.61,1.66-.07,3.33-.1,5-.1H493.8c9,0,11.2,3,9,12a3.45,3.45,0,0,1-3.44,3c-1.66.09-3.33.1-5,.1Z"/><path class="cls-6" d="M327.44,116.93q84,0,167.91,0c2.51,0,6-1.17,7,2.08a18.61,18.61,0,0,1-.13,11.29c-.38,1.2-1.7,1.52-2.91,1.58s-2.33.08-3.5.09H160c-7.11,0-8-.77-8-7-.11-7.91.07-8.11,8-8.11Z"/><path class="cls-2" d="M284.39,322.94q-62.46,0-124.9,0c-2.57,0-6.06,1-7-2.26a18.39,18.39,0,0,1,.26-11.72c.57-1.47,2.26-1.84,3.85-1.83l5,0q123.66,0,247.31,0c2.72,0,6.42-1.09,7.61,2.12a17.74,17.74,0,0,1,0,11.75c-.84,2.47-3.56,1.95-5.7,1.95H284.39Z"/><path class="cls-7" d="M249.46,108q-42.75,0-85.48,0c-5.06,0-8.72-2.53-10.91-6.94a11.45,11.45,0,0,1,1-12.51,12.26,12.26,0,0,1,10.38-5.38q85.28,0,170.54,0A12.41,12.41,0,0,1,347.6,95.59c0,7.12-5.39,12.45-12.66,12.45ZM339,104.59a1,1,0,0,0,1.06-.48c1.92-1.33,3.75-2.74,4.52-5.09a7,7,0,0,0,0-6.45,8.4,8.4,0,0,0-3.85-4.84c-.08-.51-.43-.66-.89-.64v.07c-1.64-1.87-3.9-1.77-6.06-1.77q-84.08,0-168.17,0c-.42,0-.85,0-1.28,0-7.87.58-11.62,6.94-9.57,13.82,1.23,4.11,5.37,6.69,10.17,6.69H334.39a5.72,5.72,0,0,0,2.12-.14c.84-.34,2.15.12,2.44-1.27Z"/><path class="cls-8" d="M354.46,95.59c-.67-5.57,5.1-11.31,11.32-11.23,6.06.08,11.45,5.4,11.34,11.21-.13,6.52-4.82,11.5-11.52,11.51A10.94,10.94,0,0,1,354.46,95.59Zm14.73-2.5c-.17-.29-.28-.69-.45-.71a1.37,1.37,0,0,0-1,.21c-.89.7-1.74,1.44-2.58,2.21-.61.56-1.14,1-1.82,0a.79.79,0,0,0-1.41,0c-.46.55,0,.94.36,1.22.71.51,1.28,1.77,2.26,1.2A20.39,20.39,0,0,0,369.19,93.09Z"/><path class="cls-9" d="M327.93,99a9,9,0,0,1,0-6.42l16.66,0a7,7,0,0,1,0,6.45Z"/><path class="cls-10" d="M344.59,92.57l-16.66,0a8.62,8.62,0,0,1,10.46-5.7c.48.12,1,.17,1.46.26v-.07c.13.45.55.49.89.64A8.4,8.4,0,0,1,344.59,92.57Z"/><path class="cls-11" d="M327.93,99h16.65c-.77,2.35-2.6,3.76-4.52,5.09-.41,0-.9-.1-1.06.48l-.05-.11C333.06,105,330.24,103.63,327.93,99Z"/><path class="cls-12" d="M340.74,87.73c-.34-.15-.76-.19-.89-.64C340.31,87.07,340.66,87.22,340.74,87.73Z"/><path class="cls-12" d="M339,104.59c.16-.58.65-.45,1.06-.48A1,1,0,0,1,339,104.59Z"/><path class="cls-13" d="M369.19,93.09a20.39,20.39,0,0,1-4.61,4.13c-1,.57-1.55-.69-2.26-1.2-.4-.28-.82-.67-.36-1.22a.79.79,0,0,1,1.41,0c.68,1,1.21.51,1.82,0,.84-.77,1.69-1.51,2.58-2.21a1.37,1.37,0,0,1,1-.21C368.91,92.4,369,92.8,369.19,93.09Z"/><rect class="cls-4" x="140.48" y="51.65" width="121.04" height="28.7"/></g></g></svg>