<svg xmlns="http://www.w3.org/2000/svg" viewBox="0 0 1782.75 2498.16"><defs><style>.cls-1{fill:#fff;}.cls-2{fill:#ff6f48;}.cls-3{fill:#ffbf7c;}.cls-4{fill:#1a1a1a;}.cls-5{fill:#15b8ff;}.cls-6{fill:#ff4c33;}.cls-7{fill:#de1c1c;}.cls-8{fill:#ff9871;}.cls-9{fill:#008fe0;}.cls-10{fill:#29beff;}.cls-11{fill:#006095;}.cls-12{fill:#bdbdbd;}.cls-13{fill:#9c9c9c;}.cls-14{fill:#9be6ff;}.cls-15{fill:#be78d1;}.cls-16{fill:#b3d464;}.cls-17{fill:#e0edb4;}.cls-18{fill:#e4a9f6;}.cls-19{fill:#f3caff;}.cls-20{fill:#da98e5;}.cls-21{fill:#9552af;}.cls-22{fill:#ba6bd0;}.cls-23{fill:#b9dae9;}</style></defs><g id="Layer_2" data-name="Layer 2"><g id="Layer_1-2" data-name="Layer 1"><path class="cls-1" d="M633,1176.33h-1l-.31,0c-.35,0-.69.08-1,.13s-.68.08-1,.14l-1,.21-.9.19h-.13l-.3.14c-.45.13-.89.28-1.33.45s-.63.24-.94.38-.63.27-.94.42l-.89.47c-.3.16-.59.33-.88.51s-.57.36-.85.55-.55.39-.82.6l-.79.64c-.26.22-.52.45-.76.68s-.49.47-.72.72-.47.49-.69.75-.44.52-.66.78-.41.54-.61.82l-.57.84c-.18.28-.36.57-.53.87s-.32.6-.47.9-.3.61-.44.91-.26.64-.39,1-.23.63-.34.95-.21.65-.3,1-.17.65-.24,1-.14.67-.19,1-.11.68-.15,1-.1.68-.14,1v2.4c0,.11,0,.22,0,.33,0,.33.09.67.14,1s.08.68.14,1,.13.67.21,1,.12.6.19.91v.13l.14.3c.13.45.28.89.45,1.33s.24.64.38,1,.26.62.4.92.31.6.48.9.33.59.5.88.37.58.56.85.38.56.58.83.42.53.64.79.45.51.68.76.47.49.72.72.49.47.74.69.53.45.79.66l.82.61.84.57.87.53.89.47.93.45c.31.14.62.26.93.38s.64.24,1,.35.65.2,1,.29l1,.26c.33.07.67.13,1,.18l1,.16,1,.13h2.75c.34,0,.69-.08,1-.13l1-.14c.33-.06.66-.13,1-.22s.6-.12.9-.19h.14l.3-.13c.45-.14.9-.28,1.34-.45s.63-.24.94-.38.63-.27.94-.42.6-.31.89-.48.6-.32.88-.5.58-.36.86-.55l.83-.6.79-.64.75-.66.73-.73c.23-.23.46-.48.69-.73s.44-.52.65-.79.42-.53.61-.81.39-.56.57-.84.36-.58.53-.87.33-.6.47-.91.3-.6.44-.91.26-.62.38-.94.24-.64.35-1,.2-.64.29-1,.18-.66.26-1,.13-.67.19-1,.1-.67.15-1,.09-.68.13-1,0-.67,0-1v-.39q0-.51,0-1c0-.1,0-.21,0-.31,0-.35-.08-.69-.14-1s-.08-.68-.13-1-.14-.67-.22-1-.12-.61-.19-.91v-.14c0-.1-.09-.2-.14-.3-.13-.44-.28-.89-.44-1.33s-.25-.63-.38-1-.27-.61-.41-.92-.31-.6-.47-.9-.33-.59-.51-.88-.36-.57-.55-.84l-.6-.83c-.21-.27-.42-.53-.64-.79s-.45-.52-.68-.77-.47-.48-.72-.72-.49-.47-.74-.69l-.79-.64-.82-.61c-.28-.2-.56-.39-.85-.57s-.57-.36-.87-.53-.59-.33-.9-.47-.61-.31-.92-.45-.62-.27-.94-.38-.63-.24-1-.36l-1-.28c-.33-.1-.66-.18-1-.26l-1-.19c-.33-.06-.67-.11-1-.15s-.67-.1-1-.13-.68,0-1,0l-.38,0Z"/><path class="cls-1" d="M633,1176.33h-1l-.31,0c-.35,0-.69.08-1,.13s-.68.08-1,.14l-1,.21-.9.19h-.13l-.3.14c-.45.13-.89.28-1.33.45s-.63.24-.94.38-.63.27-.94.42l-.89.47c-.3.16-.59.33-.88.51s-.57.36-.85.55-.55.39-.82.6l-.79.64c-.26.22-.52.45-.76.68s-.49.47-.72.72-.47.49-.69.75-.44.52-.66.78-.41.54-.61.82l-.57.84c-.18.28-.36.57-.53.87s-.32.6-.47.9-.3.61-.44.91-.26.64-.39,1-.23.63-.34.95-.21.65-.3,1-.17.65-.24,1-.14.67-.19,1-.11.68-.15,1-.1.68-.14,1v2.4c0,.11,0,.22,0,.33,0,.33.09.67.14,1s.08.69.14,1,.13.67.21,1,.12.6.19.9v.13l.14.3c.13.45.28.89.45,1.33s.24.64.38,1,.26.62.4.92.31.6.48.9.33.59.5.88.37.58.56.85.38.56.58.83.42.53.64.79.45.51.68.76.47.49.72.72.49.47.74.69.53.45.79.66l.82.61.84.57.87.53.89.47.93.45c.31.14.62.26.93.38s.64.24,1,.35.65.2,1,.29.66.17,1,.24.67.14,1,.19.67.11,1,.15.67.1,1,.14h2.75l1-.14,1-.13,1-.22.9-.19h.14l.3-.14c.45-.13.9-.28,1.34-.45s.63-.24.94-.37l.94-.43.89-.47c.3-.16.6-.33.88-.5l.86-.56c.28-.19.56-.39.83-.6s.53-.42.79-.64.51-.43.75-.66.49-.48.73-.72l.69-.73c.22-.26.44-.52.65-.79s.42-.54.61-.82.39-.55.57-.84.36-.57.53-.87.33-.6.47-.91.3-.6.44-.91.26-.62.38-.93.24-.64.35-1,.2-.64.29-1,.18-.66.26-1,.13-.67.19-1,.1-.66.15-1,.09-.68.13-1,0-.67,0-1v-.4c0-.34,0-.69,0-1,0-.1,0-.21,0-.31,0-.35-.08-.69-.14-1s-.08-.67-.13-1-.14-.67-.22-1-.12-.6-.19-.9v-.14l-.14-.29c-.13-.45-.28-.9-.44-1.33s-.25-.64-.38-1-.27-.62-.41-.93-.31-.6-.47-.89-.33-.59-.51-.89-.36-.56-.55-.84-.4-.56-.6-.82-.42-.54-.64-.79-.45-.52-.68-.78l-.72-.72-.74-.69c-.26-.22-.52-.44-.79-.65l-.82-.61c-.28-.2-.56-.39-.85-.57s-.57-.36-.87-.53l-.9-.48-.92-.44c-.31-.14-.62-.26-.94-.39l-1-.35c-.32-.1-.64-.2-1-.28s-.66-.18-1-.26l-1-.19c-.33-.06-.67-.11-1-.15l-1-.14H633Z"/><path class="cls-1" d="M633,1176.33h-1l-.31,0c-.35,0-.69.08-1,.13s-.68.08-1,.14l-1,.21-.9.19h-.13l-.3.14c-.45.13-.89.28-1.33.45s-.63.24-.94.38-.63.27-.94.42l-.89.47c-.3.16-.59.33-.88.51s-.57.36-.85.55-.55.39-.82.6l-.79.64c-.26.22-.52.45-.76.68s-.49.47-.72.72-.47.49-.69.75-.44.52-.66.78-.41.54-.61.82l-.57.84c-.18.28-.36.57-.53.87s-.32.6-.47.9-.3.61-.44.91-.26.64-.39,1-.23.63-.34.95-.21.65-.3,1-.17.65-.24,1-.14.67-.19,1-.11.68-.15,1-.1.68-.14,1v2.4c0,.11,0,.22,0,.33,0,.33.09.67.14,1s.08.69.14,1,.13.67.21,1,.12.6.19.9v.13l.14.3c.13.45.28.89.45,1.33s.24.64.38,1,.26.62.4.92.31.6.48.9.33.59.5.88.37.58.56.85.38.56.58.83.42.53.64.79.45.51.68.76.47.49.72.72.49.47.74.69.53.45.79.66l.82.61.84.57.87.53.89.47.93.45c.31.14.62.26.93.38s.64.24,1,.35.65.2,1,.29.66.17,1,.24.67.14,1,.19.67.11,1,.15.67.1,1,.14h2.75l1-.14,1-.13,1-.22.9-.19h.14l.3-.14c.45-.13.9-.28,1.34-.45s.63-.24.94-.37l.94-.43.89-.47c.3-.16.6-.33.88-.5l.86-.56c.28-.19.56-.39.83-.6s.53-.42.79-.64.51-.43.75-.66.49-.48.73-.72l.69-.73c.22-.26.44-.52.65-.79s.42-.54.61-.82.39-.55.57-.84.36-.57.53-.87.33-.6.47-.91.3-.6.44-.91.26-.62.38-.93.24-.64.35-1,.2-.64.29-1,.18-.66.26-1,.13-.67.19-1,.1-.66.15-1,.09-.68.13-1,0-.67,0-1v-.4c0-.34,0-.69,0-1,0-.1,0-.21,0-.31,0-.35-.08-.69-.14-1s-.08-.67-.13-1-.14-.67-.22-1-.12-.6-.19-.9v-.14l-.14-.29c-.13-.45-.28-.9-.44-1.33s-.25-.64-.38-1-.27-.62-.41-.93-.31-.6-.47-.89-.33-.59-.51-.89-.36-.56-.55-.84-.4-.56-.6-.82-.42-.54-.64-.79-.45-.52-.68-.78l-.72-.72-.74-.69c-.26-.22-.52-.44-.79-.65l-.82-.61c-.28-.2-.56-.39-.85-.57s-.57-.36-.87-.53l-.9-.48-.92-.44c-.31-.14-.62-.26-.94-.39l-1-.35c-.32-.1-.64-.2-1-.28s-.66-.18-1-.26l-1-.19c-.33-.06-.67-.11-1-.15l-1-.14H633Z"/><path class="cls-1" d="M633,1176.33h-1l-.31,0c-.35,0-.69.08-1,.13s-.68.08-1,.14l-1,.21-.9.19h-.13l-.3.14c-.45.13-.89.28-1.33.45s-.63.24-.94.38-.63.27-.94.42l-.89.47c-.3.16-.59.33-.88.51s-.57.36-.85.55-.55.39-.82.6l-.79.64c-.26.22-.52.45-.76.68s-.49.47-.72.72-.47.49-.69.75-.44.52-.66.78-.41.54-.61.82l-.57.84c-.18.28-.36.57-.53.87s-.32.6-.47.9-.3.61-.44.91-.26.64-.39,1-.23.63-.34.95-.21.65-.3,1-.17.65-.24,1-.14.67-.19,1-.11.68-.15,1-.1.68-.14,1v2.4c0,.11,0,.22,0,.33,0,.33.09.67.14,1s.08.69.14,1,.13.67.21,1,.12.6.19.9v.13l.14.3c.13.45.28.89.45,1.33s.24.64.38,1,.26.62.4.92.31.6.48.9.33.59.5.88.37.58.56.85.38.56.58.83.42.53.64.79.45.51.68.76.47.49.72.72.49.47.74.69.53.45.79.66l.82.61.84.57.87.53.89.47.93.45c.31.14.62.26.93.38s.64.24,1,.35.65.2,1,.29.66.17,1,.24.67.14,1,.19.67.11,1,.15.67.1,1,.14h2.75l1-.14,1-.13,1-.22.9-.19h.14l.3-.14c.45-.13.9-.28,1.34-.45s.63-.24.94-.37l.94-.43.89-.47c.3-.16.6-.33.88-.5l.86-.56c.28-.19.56-.39.83-.6s.53-.42.79-.64.51-.43.75-.66.49-.48.73-.72l.69-.73c.22-.26.44-.52.65-.79s.42-.54.61-.82.39-.55.57-.84.36-.57.53-.87.33-.6.47-.91.3-.6.44-.91.26-.62.38-.93.24-.64.35-1,.2-.64.29-1,.18-.66.26-1,.13-.67.19-1,.1-.66.15-1,.09-.68.13-1,0-.67,0-1v-.4c0-.34,0-.69,0-1,0-.1,0-.21,0-.31,0-.35-.08-.69-.14-1s-.08-.67-.13-1-.14-.67-.22-1-.12-.6-.19-.9v-.14l-.14-.29c-.13-.45-.28-.9-.44-1.33s-.25-.64-.38-1-.27-.62-.41-.93-.31-.6-.47-.89-.33-.59-.51-.89-.36-.56-.55-.84-.4-.56-.6-.82-.42-.54-.64-.79-.45-.52-.68-.78l-.72-.72-.74-.69c-.26-.22-.52-.44-.79-.65l-.82-.61c-.28-.2-.56-.39-.85-.57s-.57-.36-.87-.53l-.9-.48-.92-.44c-.31-.14-.62-.26-.94-.39l-1-.35c-.32-.1-.64-.2-1-.28s-.66-.18-1-.26l-1-.19c-.33-.06-.67-.11-1-.15l-1-.14H633Z"/><path class="cls-1" d="M633,1176.33h-1l-.31,0c-.35,0-.69.08-1,.13s-.68.08-1,.14l-1,.21-.9.19h-.13l-.3.14c-.45.13-.89.28-1.33.45s-.63.24-.94.38-.63.27-.94.42l-.89.47c-.3.16-.59.33-.88.51s-.57.36-.85.55-.55.39-.82.6l-.79.64c-.26.22-.52.45-.76.68s-.49.47-.72.72-.47.49-.69.75-.44.52-.66.78-.41.54-.61.82l-.57.84c-.18.28-.36.57-.53.87s-.32.6-.47.9-.3.61-.44.91-.26.64-.39,1-.23.63-.34.95-.21.65-.3,1-.17.65-.24,1-.14.67-.19,1-.11.68-.15,1-.1.68-.14,1v2.4c0,.11,0,.22,0,.33,0,.33.09.67.14,1s.08.69.14,1,.13.67.21,1,.12.6.19.9v.13l.14.3c.13.45.28.89.45,1.33s.24.64.38,1,.26.62.4.92.31.6.48.9.33.59.5.88.37.58.56.85.38.56.58.83.42.53.64.79.45.51.68.76.47.49.72.72.49.47.74.69.53.45.79.66l.82.61.84.57.87.53.89.47.93.45c.31.14.62.26.93.38s.64.24,1,.35.65.2,1,.29.66.17,1,.24.67.14,1,.19.67.11,1,.15.67.1,1,.14h2.75l1-.14,1-.13,1-.22.9-.19h.14l.3-.14c.45-.13.9-.28,1.34-.45s.63-.24.94-.37l.94-.43.89-.47c.3-.16.6-.33.88-.5l.86-.56c.28-.19.56-.39.83-.6s.53-.42.79-.64.51-.43.75-.66.49-.48.73-.72l.69-.73c.22-.26.44-.52.65-.79s.42-.54.61-.82.39-.55.57-.84.36-.57.53-.87.33-.6.47-.91.3-.6.44-.91.26-.62.38-.93.24-.64.35-1,.2-.64.29-1,.18-.66.26-1,.13-.67.19-1,.1-.66.15-1,.09-.68.13-1,0-.67,0-1v-.4c0-.34,0-.69,0-1,0-.1,0-.21,0-.31,0-.35-.08-.69-.14-1s-.08-.67-.13-1-.14-.67-.22-1-.12-.6-.19-.9v-.14l-.14-.29c-.13-.45-.28-.9-.44-1.33s-.25-.64-.38-1-.27-.62-.41-.93-.31-.6-.47-.89-.33-.59-.51-.89-.36-.56-.55-.84-.4-.56-.6-.82-.42-.54-.64-.79-.45-.52-.68-.78l-.72-.72-.74-.69c-.26-.22-.52-.44-.79-.65l-.82-.61c-.28-.2-.56-.39-.85-.57s-.57-.36-.87-.53l-.9-.48-.92-.44c-.31-.14-.62-.26-.94-.39l-1-.35c-.32-.1-.64-.2-1-.28s-.66-.18-1-.26l-1-.19c-.33-.06-.67-.11-1-.15l-1-.14H633Z"/><path class="cls-1" d="M633,1176.33h-1l-.31,0c-.35,0-.69.08-1,.13s-.68.08-1,.14l-1,.21-.9.19h-.13l-.3.14c-.45.13-.89.28-1.33.45s-.63.24-.94.38-.63.27-.94.42l-.89.47c-.3.16-.59.33-.88.51s-.57.36-.85.55-.55.39-.82.6l-.79.64c-.26.22-.52.45-.76.68s-.49.47-.72.72-.47.49-.69.75-.44.52-.66.78-.41.54-.61.82l-.57.84c-.18.28-.36.57-.53.87s-.32.6-.47.9-.3.61-.44.91-.26.64-.39,1-.23.63-.34.95-.21.65-.3,1-.17.65-.24,1-.14.67-.19,1-.11.68-.15,1-.1.68-.14,1v2.4c0,.11,0,.22,0,.33,0,.33.09.67.14,1s.08.69.14,1,.13.67.21,1,.12.6.19.9v.13l.14.3c.13.45.28.89.45,1.33s.24.64.38,1,.26.62.4.92.31.6.48.9.33.59.5.88.37.58.56.85.38.56.58.83.42.53.64.79.45.51.68.76.47.49.72.72.49.47.74.69.53.45.79.66l.82.61.84.57.87.53.89.47.93.45c.31.14.62.26.93.38s.64.24,1,.35.65.2,1,.29.66.17,1,.24.67.14,1,.19.67.11,1,.15.67.1,1,.14h2.75l1-.14,1-.13,1-.22.9-.19h.14l.3-.14c.45-.13.9-.28,1.34-.45s.63-.24.94-.37l.94-.43.89-.47c.3-.16.6-.33.88-.5l.86-.56c.28-.19.56-.39.83-.6s.53-.42.79-.64.51-.43.75-.66.49-.48.73-.72l.69-.73c.22-.26.44-.52.65-.79s.42-.54.61-.82.39-.55.57-.84.36-.57.53-.87.33-.6.47-.91.3-.6.44-.91.26-.62.38-.93.24-.64.35-1,.2-.64.29-1,.18-.66.26-1,.13-.67.19-1,.1-.66.15-1,.09-.68.13-1,0-.67,0-1v-.4c0-.34,0-.69,0-1,0-.1,0-.21,0-.31,0-.35-.08-.69-.14-1s-.08-.67-.13-1-.14-.67-.22-1-.12-.6-.19-.9v-.14l-.14-.29c-.13-.45-.28-.9-.44-1.33s-.25-.64-.38-1-.27-.62-.41-.93-.31-.6-.47-.89-.33-.59-.51-.89-.36-.56-.55-.84-.4-.56-.6-.82-.42-.54-.64-.79-.45-.52-.68-.78l-.72-.72-.74-.69c-.26-.22-.52-.44-.79-.65l-.82-.61c-.28-.2-.56-.39-.85-.57s-.57-.36-.87-.53l-.9-.48-.92-.44c-.31-.14-.62-.26-.94-.39l-1-.35c-.32-.1-.64-.2-1-.28s-.66-.18-1-.26l-1-.19c-.33-.06-.67-.11-1-.15l-1-.14H633Z"/><path class="cls-1" d="M633,1176.33h-1l-.31,0c-.35,0-.69.08-1,.13s-.68.08-1,.14l-1,.21-.9.19h-.13l-.3.14c-.45.13-.89.28-1.33.45s-.63.24-.94.38-.63.27-.94.42l-.89.47c-.3.16-.59.33-.88.51s-.57.36-.85.55-.55.39-.82.6l-.79.64c-.26.22-.52.45-.76.68s-.49.47-.72.72-.47.49-.69.75-.44.52-.66.78-.41.54-.61.82l-.57.84c-.18.28-.36.57-.53.87s-.32.6-.47.9-.3.61-.44.91-.26.64-.39,1-.23.63-.34.95-.21.65-.3,1-.17.65-.24,1-.14.67-.19,1-.11.68-.15,1-.1.68-.14,1v2.4c0,.11,0,.22,0,.33,0,.33.09.67.14,1s.08.69.14,1,.13.67.21,1,.12.6.19.9v.13l.14.3c.13.45.28.89.45,1.33s.24.64.38,1,.26.62.4.92.31.6.48.9.33.59.5.88.37.58.56.85.38.56.58.83.42.53.64.79.45.51.68.76.47.49.72.72.49.47.74.69.53.45.79.66l.82.61.84.57.87.53.89.47.93.45c.31.14.62.26.93.38s.64.24,1,.35.65.2,1,.29.66.17,1,.24.67.14,1,.19.67.11,1,.15.67.1,1,.14h2.75l1-.14,1-.13,1-.22.9-.19h.14l.3-.14c.45-.13.9-.28,1.34-.45s.63-.24.94-.37l.94-.43.89-.47c.3-.16.6-.33.88-.5l.86-.56c.28-.19.56-.39.83-.6s.53-.42.79-.64.51-.43.75-.66.49-.48.73-.72l.69-.73c.22-.26.44-.52.65-.79s.42-.54.61-.82.39-.55.57-.84.36-.57.53-.87.33-.6.47-.91.3-.6.44-.91.26-.62.38-.93.24-.64.35-1,.2-.64.29-1,.18-.66.26-1,.13-.67.19-1,.1-.66.15-1,.09-.68.13-1,0-.67,0-1v-.4c0-.34,0-.69,0-1,0-.1,0-.21,0-.31,0-.35-.08-.69-.14-1s-.08-.67-.13-1-.14-.67-.22-1-.12-.6-.19-.9v-.14l-.14-.29c-.13-.45-.28-.9-.44-1.33s-.25-.64-.38-1-.27-.62-.41-.93-.31-.6-.47-.89-.33-.59-.51-.89-.36-.56-.55-.84-.4-.56-.6-.82-.42-.54-.64-.79-.45-.52-.68-.78l-.72-.72-.74-.69c-.26-.22-.52-.44-.79-.65l-.82-.61c-.28-.2-.56-.39-.85-.57s-.57-.36-.87-.53l-.9-.48-.92-.44c-.31-.14-.62-.26-.94-.39l-1-.35c-.32-.1-.64-.2-1-.28s-.66-.18-1-.26l-1-.19c-.33-.06-.67-.11-1-.15l-1-.14H633Z"/><path class="cls-1" d="M633,1176.33h-1l-.31,0c-.35,0-.69.08-1,.13s-.68.08-1,.14l-1,.21-.9.19h-.13l-.3.14c-.45.13-.89.28-1.33.45s-.63.24-.94.38-.63.27-.94.42l-.89.47c-.3.16-.59.33-.88.51s-.57.36-.85.55-.55.39-.82.6l-.79.64c-.26.22-.52.45-.76.68s-.49.47-.72.72-.47.49-.69.75-.44.52-.66.78-.41.54-.61.82l-.57.84c-.18.28-.36.57-.53.87s-.32.6-.47.9-.3.61-.44.91-.26.64-.39,1-.23.63-.34.95-.21.65-.3,1-.17.65-.24,1-.14.67-.19,1-.11.68-.15,1-.1.68-.14,1v2.4c0,.11,0,.22,0,.33,0,.33.09.67.14,1s.08.69.14,1,.13.67.21,1,.12.6.19.9v.13l.14.3c.13.45.28.89.45,1.33s.24.64.38,1,.26.62.4.92.31.6.48.9.33.59.5.88.37.58.56.85.38.56.58.83.42.53.64.79.45.51.68.76.47.49.72.72.49.47.74.69.53.45.79.66l.82.61.84.57.87.53.89.47.93.45c.31.14.62.26.93.38s.64.24,1,.35.65.2,1,.29.66.17,1,.24.67.14,1,.19.67.11,1,.15.67.1,1,.14h2.75l1-.14,1-.13,1-.22.9-.19h.14l.3-.14c.45-.13.9-.28,1.34-.45s.63-.24.94-.37l.94-.43.89-.47c.3-.16.6-.33.88-.5l.86-.56c.28-.19.56-.39.83-.6s.53-.42.79-.64.51-.43.75-.66.49-.48.73-.72l.69-.73c.22-.26.44-.52.65-.79s.42-.54.61-.82.39-.55.57-.84.36-.57.53-.87.33-.6.47-.91.3-.6.44-.91.26-.62.38-.93.24-.64.35-1,.2-.64.29-1,.18-.66.26-1,.13-.67.19-1,.1-.66.15-1,.09-.68.13-1,0-.67,0-1v-.4c0-.34,0-.69,0-1,0-.1,0-.21,0-.31,0-.35-.08-.69-.14-1s-.08-.67-.13-1-.14-.67-.22-1-.12-.6-.19-.9v-.14l-.14-.29c-.13-.45-.28-.9-.44-1.33s-.25-.64-.38-1-.27-.62-.41-.93-.31-.6-.47-.89-.33-.59-.51-.89-.36-.56-.55-.84-.4-.56-.6-.82-.42-.54-.64-.79-.45-.52-.68-.78l-.72-.72-.74-.69c-.26-.22-.52-.44-.79-.65l-.82-.61c-.28-.2-.56-.39-.85-.57s-.57-.36-.87-.53l-.9-.48-.92-.44c-.31-.14-.62-.26-.94-.39l-1-.35c-.32-.1-.64-.2-1-.28s-.66-.18-1-.26l-1-.19c-.33-.06-.67-.11-1-.15l-1-.14H633Z"/><path class="cls-1" d="M633,1176.33h-1l-.31,0c-.35,0-.69.08-1,.13s-.68.08-1,.14l-1,.21-.9.19h-.13l-.3.14c-.45.13-.89.28-1.33.45s-.63.24-.94.38-.63.27-.94.42l-.89.47c-.3.16-.59.33-.88.51s-.57.36-.85.55-.55.39-.82.6l-.79.64c-.26.22-.52.45-.76.68s-.49.47-.72.72-.47.49-.69.75-.44.52-.66.78-.41.54-.61.82l-.57.84c-.18.28-.36.57-.53.87s-.32.6-.47.9-.3.61-.44.91-.26.64-.39,1-.23.63-.34.95-.21.65-.3,1-.17.65-.24,1-.14.67-.19,1-.11.68-.15,1-.1.68-.14,1v2.4c0,.11,0,.22,0,.33,0,.33.09.67.14,1s.08.69.14,1,.13.67.21,1,.12.6.19.9v.13l.14.3c.13.45.28.89.45,1.33s.24.64.38,1,.26.62.4.92.31.6.48.9.33.59.5.88.37.58.56.85.38.56.58.83.42.53.64.79.45.51.68.76.47.49.72.72.49.47.74.69.53.45.79.66l.82.61.84.57.87.53.89.47.93.45c.31.14.62.26.93.38s.64.24,1,.35.65.2,1,.29.66.17,1,.24.67.14,1,.19.67.11,1,.15.67.1,1,.14h2.75l1-.14,1-.13,1-.22.9-.19h.14l.3-.14c.45-.13.9-.28,1.34-.45s.63-.24.94-.37l.94-.43.89-.47c.3-.16.6-.33.88-.5l.86-.56c.28-.19.56-.39.83-.6s.53-.42.79-.64.51-.43.75-.66.49-.48.73-.72l.69-.73c.22-.26.44-.52.65-.79s.42-.54.61-.82.39-.55.57-.84.36-.57.53-.87.33-.6.47-.91.3-.6.44-.91.26-.62.38-.93.24-.64.35-1,.2-.64.29-1,.18-.66.26-1,.13-.67.19-1,.1-.66.15-1,.09-.68.13-1,0-.67,0-1v-.4c0-.34,0-.69,0-1,0-.1,0-.21,0-.31,0-.35-.08-.69-.14-1s-.08-.67-.13-1-.14-.67-.22-1-.12-.6-.19-.9v-.14l-.14-.29c-.13-.45-.28-.9-.44-1.33s-.25-.64-.38-1-.27-.62-.41-.93-.31-.6-.47-.89-.33-.59-.51-.89-.36-.56-.55-.84-.4-.56-.6-.82-.42-.54-.64-.79-.45-.52-.68-.78l-.72-.72-.74-.69c-.26-.22-.52-.44-.79-.65l-.82-.61c-.28-.2-.56-.39-.85-.57s-.57-.36-.87-.53l-.9-.48-.92-.44c-.31-.14-.62-.26-.94-.39l-1-.35c-.32-.1-.64-.2-1-.28s-.66-.18-1-.26l-1-.19c-.33-.06-.67-.11-1-.15l-1-.14H633Z"/><path class="cls-1" d="M633,1176.33h-1l-.31,0c-.35,0-.69.08-1,.13s-.68.08-1,.14l-1,.21-.9.19h-.13l-.3.14c-.45.13-.89.28-1.33.45s-.63.24-.94.38-.63.27-.94.42l-.89.47c-.3.16-.59.33-.88.51s-.57.36-.85.55-.55.39-.82.6l-.79.64c-.26.22-.52.45-.76.68s-.49.47-.72.72-.47.49-.69.75-.44.52-.66.78-.41.54-.61.82l-.57.84c-.18.28-.36.57-.53.87s-.32.6-.47.9-.3.61-.44.91-.26.64-.39,1-.23.63-.34.95-.21.65-.3,1-.17.65-.24,1-.14.67-.19,1-.11.68-.15,1-.1.68-.14,1v2.4c0,.11,0,.22,0,.33,0,.33.09.67.14,1s.08.69.14,1,.13.67.21,1,.12.6.19.9v.13l.14.3c.13.45.28.89.45,1.33s.24.64.38,1,.26.62.4.92.31.6.48.9.33.59.5.88.37.58.56.85.38.56.58.83.42.53.64.79.45.51.68.76.47.49.72.72.49.47.74.69.53.45.79.66l.82.61.84.57.87.53.89.47.93.45c.31.14.62.26.93.38s.64.24,1,.35.65.2,1,.29.66.17,1,.24.67.14,1,.19.67.11,1,.15.67.1,1,.14h2.75l1-.14,1-.13,1-.22.9-.19h.14l.3-.14c.45-.13.9-.28,1.34-.45s.63-.24.94-.37l.94-.43.89-.47c.3-.16.6-.33.88-.5l.86-.56c.28-.19.56-.39.83-.6s.53-.42.79-.64.51-.43.75-.66.49-.48.73-.72l.69-.73c.22-.26.44-.52.65-.79s.42-.54.61-.82.39-.55.57-.84.36-.57.53-.87.33-.6.47-.91.3-.6.44-.91.26-.62.38-.93.24-.64.35-1,.2-.64.29-1,.18-.66.26-1,.13-.67.19-1,.1-.66.15-1,.09-.68.13-1,0-.67,0-1v-.4c0-.34,0-.69,0-1,0-.1,0-.21,0-.31,0-.35-.08-.69-.14-1s-.08-.67-.13-1-.14-.67-.22-1-.12-.6-.19-.9v-.14l-.14-.29c-.13-.45-.28-.9-.44-1.33s-.25-.64-.38-1-.27-.62-.41-.93-.31-.6-.47-.89-.33-.59-.51-.89-.36-.56-.55-.84-.4-.56-.6-.82-.42-.54-.64-.79-.45-.52-.68-.78l-.72-.72-.74-.69c-.26-.22-.52-.44-.79-.65l-.82-.61c-.28-.2-.56-.39-.85-.57s-.57-.36-.87-.53l-.9-.48-.92-.44c-.31-.14-.62-.26-.94-.39l-1-.35c-.32-.1-.64-.2-1-.28s-.66-.18-1-.26l-1-.19c-.33-.06-.67-.11-1-.15l-1-.14H633Z"/><path class="cls-2" d="M1529.43,2080.63c-118.34,0-175.27-65.14-175.27-145.5s56.93-145.51,175.27-145.51,253.32,145.51,253.32,145.51-135,145.5-253.32,145.5Z"/><path class="cls-3" d="M1459,1999.71c-52.53,0-77.8-28.92-77.8-64.58s25.27-64.59,77.8-64.59,112.43,64.59,112.43,64.59-59.9,64.58-112.43,64.58Z"/><path class="cls-4" d="M842.58,1517.48q26-1.44,51.8-1.47c164.15,0,289.49,45.45,373.64,121.8s125.46,182.7,125.46,297.31-41.3,221-125.46,297.33-209.49,121.8-373.64,121.81q-25.77,0-51.8-1.48v-56.52c17.37,1,34.67,1.6,51.8,1.6,153.81,0,263.94-42,335.75-107.18s107-154.26,107-255.56-35.16-190.4-107-255.54-181.94-107.19-335.75-107.19c-17.13,0-34.43.56-51.8,1.6Z"/><path class="cls-4" d="M185.59,1935.12c0-123.74,100.66-227.88,235.81-301.21,123.74-67.13,279.75-110.15,431.2-116.94v56.46c-141.68,6.89-290,48-404.32,110C322.64,1751.63,242,1843,242,1935.12s80.66,183.5,206.3,251.67c114.35,62,262.64,103.14,404.32,110v56.45c-151.45-6.79-307.46-49.81-431.2-116.94C286.25,2163,185.59,2058.86,185.59,1935.12Z"/><path class="cls-5" d="M216.59,1967.86c34.13-200.59,376-358.2,677.79-358.2s454.84,157.61,469.69,358.2q-1.44,19.44-4.62,38.29c-30.68-181.94-182.88-319.8-465.07-319.8S294.79,1824.23,227,2006.19a211.11,211.11,0,0,1-10.39-38.33Z"/><path class="cls-4" d="M987.3,1537.77c130.79-205.12,420.78-161.87,420.78-161.87l60.63,8.44-45.81,40.58s-115.43,104.33-136.18,247l-55.8-8.11c15.48-106.41,71.51-186.64,111.88-234.23-82,.64-231.66,18.85-308,138.5Z"/><path class="cls-4" d="M987.3,2332.47l47.55-30.31c76.29,119.65,226,137.85,308,138.49-40.37-47.58-96.4-127.82-111.88-234.22l55.8-8.11c20.75,142.69,136.18,247,136.18,247l45.81,40.59-60.63,8.43s-290,43.25-420.78-161.88Z"/><path class="cls-6" d="M1258.82,2202.38c22.58,155.23,145.38,264,145.38,264s-273.78,38.07-393.13-149.11Z"/><path class="cls-7" d="M1011.07,2317.32l247.75-114.94a380.2,380.2,0,0,0,21.76,81.9c-60.25,40.6-135.86,70.13-227.13,85a287.07,287.07,0,0,1-42.38-51.95Z"/><path class="cls-6" d="M1258.82,1667.88c22.58-155.24,145.38-264.05,145.38-264.05s-273.78-38.08-393.13,149.1Z"/><path class="cls-8" d="M1011.07,1552.93c119.35-187.18,393.13-149.1,393.13-149.1s-8.27,7.34-20.86,20.84c-81.86-1.53-249.66,12.67-339.81,143.32Z"/><path class="cls-9" d="M894.37,2326.06c318,0,470.92-175,470.92-390.93s-152.94-390.94-470.92-390.94-680.58,175-680.58,390.94,362.61,390.93,680.58,390.93Z"/><path class="cls-10" d="M239.15,1902.26c87.64-168.31,387.27-292.6,655.22-292.6,221.24,0,362.56,84.73,428.08,209-83-88.68-221.8-145.42-418.81-145.42-253.5,0-533,93.92-664.49,229Z"/><path class="cls-11" d="M652,1977.59c0-108,87.55-195.55,195.55-195.55s195.55,87.55,195.55,195.55a195.55,195.55,0,1,1-391.1,0Z"/><path class="cls-11" d="M213.79,1935.13c0-1.63.07-3.25.09-4.87,102.89,160.82,410.78,278,687,278,239.48,0,390.76-88.09,458.49-216.35.88-.95,1.76-1.91,2.63-2.87-23.79,190.41-176.54,337.06-467.59,337.06-318,0-680.59-175-680.59-390.93Z"/><path class="cls-6" d="M213.79,1935.13c0-125.38,122.29-237,287.11-308.51v617c-164.82-71.54-287.11-183.12-287.11-308.5Z"/><path class="cls-6" d="M1258.82,1667.92c71.4,69.9,106.47,163.86,106.47,267.21s-35.07,197.3-106.47,267.2Z"/><path class="cls-7" d="M213.74,1935.13h.07c0-1.63.07-3.26.09-4.88,52.6,82.23,158.81,153,287,202.59v110.79c-164.81-71.54-287.1-183.12-287.1-308.5Z"/><path class="cls-8" d="M239.15,1902.26c44-84.56,141.59-158,261.75-210.16v53.78c-107.59,39.7-200.66,93.59-261.75,156.38Z"/><path class="cls-7" d="M1258.82,2108.6c43.65-32.79,77.1-72.36,100.53-116.76.87-.95,1.76-1.89,2.62-2.84-10.25,81.95-44.38,155.79-103.15,213.33Z"/><path class="cls-4" d="M842.58,1538.67q26-1.49,51.8-1.52c160.28,0,279.9,44.18,359.42,116.32s118.53,172,118.53,281.65-39,209.51-118.53,281.66-199.14,116.33-359.42,116.33q-25.75,0-51.8-1.52v-14.13c17.35,1,34.65,1.55,51.8,1.55,157.69,0,273.51-43.32,349.95-112.66s113.9-164.94,113.9-271.23-37.46-201.86-113.9-271.21-192.26-112.67-349.95-112.67c-17.15,0-34.45.55-51.8,1.56Z"/><path class="cls-8" d="M1258.82,1733.37a342.6,342.6,0,0,1,63.63,85.3,375.92,375.92,0,0,0-63.63-54.09Z"/><rect class="cls-4" x="1251.78" y="1667.87" width="14.1" height="534.5"/><rect class="cls-4" x="493.84" y="1626.6" width="14.1" height="617.04"/><path class="cls-12" d="M658.67,1935.13c0-104.34,84.58-188.92,188.92-188.92a188.92,188.92,0,0,1,0,377.83c-104.34,0-188.92-84.58-188.92-188.91Z"/><path class="cls-13" d="M658.67,1935.13a187.66,187.66,0,0,1,1.51-21.85,264,264,0,0,0,374.93,0,186,186,0,0,1,1.39,21.88A188.91,188.91,0,0,1,847.59,2124c-104.34,0-188.92-84.58-188.92-188.91Z"/><path class="cls-14" d="M727.65,1935.13a119.92,119.92,0,1,1,35.13,84.81,119.95,119.95,0,0,1-35.13-84.81Z"/><path class="cls-4" d="M1005.13,1549.14c122.21-191.67,400-152.3,400-152.3l15.16,2.12-11.45,10.15s-121,107.68-143.08,259.78l-13.94-2c19.73-135.67,109.67-231.13,136.3-257-39.44-4-264.63-20.13-371.13,146.9Z"/><path class="cls-4" d="M1005.13,2321.12l11.89-7.59c106.5,167,331.69,150.95,371.13,146.91-26.63-25.92-116.57-121.37-136.3-257.05l13.94-2c22.12,152.1,143.08,259.79,143.08,259.79l11.45,10.14-15.16,2.11s-277.82,39.38-400-152.28Z"/><path class="cls-4" d="M842.58,1739.24q2.5-.06,5-.06c108.15,0,196,87.8,196,196s-87.82,196-196,196c-1.67,0-3.34,0-5-.08v-14.1c1.67,0,3.34.08,5,.08a181.87,181.87,0,1,0,0-363.74c-1.67,0-3.34,0-5,.08Z"/><path class="cls-4" d="M842.58,1808.27c1.67-.06,3.33-.13,5-.13a127,127,0,1,1,0,254c-1.68,0-3.34-.06-5-.13v-14.09c1.66.07,3.33.13,5,.13a112.89,112.89,0,1,0,0-225.78c-1.68,0-3.35,0-5,.12Z"/><path class="cls-1" d="M758,1915a91.79,91.79,0,0,1,179.15,0A119.56,119.56,0,0,0,758,1915Z"/><path class="cls-4" d="M720.6,1935.12a127.1,127.1,0,0,1,127-127c1.68,0,3.35.06,5,.13v14.1c-1.66-.08-3.33-.13-5-.13a112.89,112.89,0,1,0,0,225.78c1.68,0,3.35-.06,5-.13V2062c-1.66.05-3.33.12-5,.12a127.1,127.1,0,0,1-127-127Z"/><path class="cls-4" d="M651.62,1935.12c0-108.14,87.83-195.95,196-195.95q2.52,0,5,.06v14.1c-1.66,0-3.33-.07-5-.07a181.87,181.87,0,1,0,0,363.73c1.68,0,3.35,0,5-.07V2131c-1.66,0-3.33.08-5,.08-108.14,0-196-87.84-196-196Z"/><path class="cls-4" d="M206.74,1935.12c0-111.9,93.15-211.24,224.74-282.63C551.69,1587.27,704.82,1545,852.6,1538.14v14.12c-145.34,6.85-296.54,48.68-414.4,112.63C309,1735,220.84,1831.11,220.84,1935.12S309,2135.27,438.2,2205.37c117.86,63.94,269.06,105.77,414.4,112.63v14.11c-147.78-6.83-300.91-49.13-421.12-114.35C299.89,2146.37,206.74,2047,206.74,1935.12Z"/><path class="cls-15" d="M556,1363.51c42.39,73.41,78.16,191.9,48,209.34s-114.93-72.79-157.31-146.2-18.53-106.73,3.83-119.64,63.15-16.91,105.53,56.5Z"/><path class="cls-4" d="M456.85,1474.79c18.44,25.88,39.74,51.12,60.74,71.64,15.83,15.46,31.34,28.23,46.47,36.65s32.41,14.46,48.75,5,19.73-27.42,20-44.73-3-37.14-8.51-58.58c-7.27-28.45-18.48-59.5-31.67-88.41l-30.72,17.74c11.75,26.25,21.88,54.47,28.25,79.41,5,19.54,7.62,37.18,7.43,49.29-.15,9.08-2.12,13.24-2.58,14.45-1.28-.21-5.87-.58-13.8-5-10.58-5.89-24.56-17-39-31.08-18.41-18-37.78-40.86-54.65-64.16Z"/><path class="cls-4" d="M441.7,1291.75A71.55,71.55,0,0,0,407,1341c-4.46,24.66,2,55.51,24.44,94.46a509.9,509.9,0,0,0,31.36,47.48l30.78-17.77a480.62,480.62,0,0,1-31.62-47.33c-19.89-34.47-22.74-57-20.28-70.57s9.83-20.48,17.68-25,17.48-7.46,30.47-2.8,31.08,18.38,51,52.85a478.66,478.66,0,0,1,25.19,51l30.77-17.76a507.28,507.28,0,0,0-25.44-50.9c-22.48-39-46-59.94-69.58-68.4a71.49,71.49,0,0,0-60,5.45Z"/><path class="cls-15" d="M875.21,1363.51c42.38,73.41,78.15,191.9,47.95,209.34s-114.93-72.79-157.32-146.2-18.52-106.73,3.84-119.64,63.14-16.91,105.53,56.5Z"/><path class="cls-4" d="M776,1474.79c18.44,25.88,39.73,51.12,60.74,71.64,15.83,15.46,31.34,28.23,46.47,36.65s32.41,14.46,48.75,5,19.73-27.42,20-44.73-3-37.14-8.51-58.58c-7.27-28.45-18.48-59.5-31.67-88.41l-30.72,17.74c11.75,26.25,21.87,54.47,28.24,79.41,5,19.54,7.63,37.18,7.43,49.29-.14,9.08-2.11,13.24-2.57,14.45-1.28-.21-5.87-.58-13.8-5-10.59-5.89-24.57-17-39-31.08-18.42-18-37.78-40.86-54.65-64.16Z"/><path class="cls-4" d="M760.88,1291.75A71.53,71.53,0,0,0,726.14,1341c-4.46,24.66,2,55.51,24.44,94.46a509.9,509.9,0,0,0,31.36,47.48l30.78-17.77a480.62,480.62,0,0,1-31.62-47.33c-19.9-34.47-22.74-57-20.28-70.57s9.83-20.48,17.68-25,17.48-7.46,30.47-2.8,31.07,18.38,51,52.85a480.56,480.56,0,0,1,25.18,51l30.77-17.76a509.41,509.41,0,0,0-25.44-50.9c-22.48-39-46-59.94-69.58-68.4a71.46,71.46,0,0,0-60,5.45Z"/><path class="cls-15" d="M222.89,1036.39c-84.77,0-205.27-28.27-205.27-63.14s120.5-63.14,205.27-63.14,101.7,37.33,101.7,63.14-16.93,63.14-101.7,63.14Z"/><path class="cls-4" d="M176.11,894.86c-31.63,3-64.14,8.84-92.41,16.78-21.3,6-40.11,13-55,21.92S0,954.4,0,973.26s13.88,30.8,28.73,39.69,33.68,15.93,55,21.91c28.28,7.94,60.77,13.75,92.4,16.79v-35.48c-28.61-2.95-58.1-8.29-82.88-15.24-19.42-5.45-36-12-46.41-18.21-7.79-4.67-10.41-8.46-11.23-9.46.82-1,3.44-4.79,11.23-9.46,10.39-6.22,27-12.78,46.41-18.22,24.78-7,54.27-12.29,82.88-15.25Z"/><path class="cls-4" d="M342.21,973.26a71.59,71.59,0,0,0-25.29-54.71c-19.13-16.19-49.06-26.06-94-26.06a509.45,509.45,0,0,0-56.81,3.42v35.54a479.23,479.23,0,0,1,56.81-3.71c39.79,0,60.71,8.79,71.25,17.71S307,964.2,307,973.26s-2.28,18.87-12.81,27.79-31.46,17.72-71.25,17.72a479.23,479.23,0,0,1-56.81-3.71v35.53A506.93,506.93,0,0,0,222.9,1054c45,0,74.89-9.86,94-26.06a71.54,71.54,0,0,0,25.29-54.69Z"/><path class="cls-15" d="M1160.09,911.76c67.25,51.6,145.65,147.39,124.41,175s-134-23.26-201.28-74.86-58-91.52-42.25-112,51.87-39.78,119.12,11.82Z"/><path class="cls-4" d="M1111,1052.52c27,16.86,56.28,32,83.53,43,20.55,8.22,39.76,14.09,57,16.07s35.48,1,47-14,7.74-32.88,1.37-49-17-33.15-30.28-50.86c-17.6-23.51-39.84-47.91-63.09-69.57l-21.6,28.14c20.9,19.77,41.06,42,56.49,62.56,12.08,16.14,21.27,31.44,25.72,42.7,3.35,8.44,3.11,13,3.15,14.33-1.26.3-5.64,1.72-14.66.67-12-1.39-29.19-6.29-47.91-13.78-23.9-9.57-50.55-23.3-75-38.37Z"/><path class="cls-4" d="M1027,889.21a71.6,71.6,0,0,0-13.24,58.8c5.31,24.49,23,50.54,58.73,77.91a508.41,508.41,0,0,0,47.14,31.87l21.64-28.2A474.9,474.9,0,0,1,1094,998c-31.58-24.22-42.82-43.94-45.75-57.43s1.25-22.68,6.76-29.86,13.3-13.59,27.09-14.25,35.74,5.09,67.31,29.32a477.76,477.76,0,0,1,42.8,37.52l21.64-28.19a509.85,509.85,0,0,0-43-37.29c-35.68-27.38-65.43-37.77-90.46-36.56a71.53,71.53,0,0,0-53.36,28Z"/><path class="cls-4" d="M670.32,475.34C397.6,475.34,175.91,697,175.91,969.76A494.5,494.5,0,0,0,343.3,1340.58h0c1.61,1.42,3.24,2.82,4.87,4.23l.14.13.67.58c107,92.71,209.29,124,308.69,174l12.66,6.36,12.67-6.36c99.41-50,201.7-81.26,308.68-174,1.9-1.63,3.8-3.27,5.68-4.93a494.47,494.47,0,0,0,167.39-370.82c0-267.15-212.87-484.77-477.91-493.58l-.51-.85Zm-.34,56.4h.35c242.26,0,438,195.78,438,438A438,438,0,0,1,960.06,1298.3q-2.53,2.23-5.12,4.44l-.07.06-.07.06c-94.19,81.64-185,111.64-284.47,160.25-99.37-48.57-190.12-78.57-284.22-160.06l-.41-.35q-2.56-2.19-5.09-4.42h0A438,438,0,0,1,232.29,969.76c0-242.14,195.6-437.83,437.69-438Z"/><path class="cls-4" d="M469.5,98a61.42,61.42,0,0,0-35,8.08c-29.08,16.79-39.52,54.79-22.26,83.78l-.76-1.37a1137,1137,0,0,1,90.21,231.92,1150.33,1150.33,0,0,1-3.41,608.36l-7.68,27.45,117.45,31.47,7.5-26.86A1271.74,1271.74,0,0,0,619.17,389,1296,1296,0,0,0,518.66,129.73l-.18-.34-.19-.34A60.46,60.46,0,0,0,481.13,100h0a61.23,61.23,0,0,0-11.61-2Zm-3,56.39h0a3.47,3.47,0,0,1,2.36,1.81,1239.65,1239.65,0,0,1,95.85,247.32c55,205.45,53.71,416.77,3.19,615l-8.5-2.28c50.16-196.93,51.38-406.77-3.2-610.46a1192.53,1192.53,0,0,0-94.7-243.43l-.37-.7-.4-.67c-1.15-1.92-.69-4.55,2-6.11a4.62,4.62,0,0,1,3.73-.51Z"/><path class="cls-4" d="M854.53,98A60.43,60.43,0,0,0,842.92,100h0a60.53,60.53,0,0,0-37.16,29.09l-.19.33-.17.34A1295.52,1295.52,0,0,0,704.86,389a1271.7,1271.7,0,0,0,3.59,671.88l7.5,26.86,117.45-31.47-7.69-27.45a1150.33,1150.33,0,0,1-3.4-608.36A1136,1136,0,0,1,912.52,188.5l-.77,1.38c17.26-29,6.82-67-22.25-83.78a61.35,61.35,0,0,0-35-8.08Zm3,56.39a4.65,4.65,0,0,1,3.73.51c2.7,1.56,3.15,4.18,2,6.11l-.4.67-.36.7a1193.11,1193.11,0,0,0-94.7,243.43c-54.58,203.69-53.35,413.53-3.2,610.45l-8.51,2.29c-50.52-198.25-51.86-409.56,3.19-615a1239.79,1239.79,0,0,1,95.85-247.32,3.48,3.48,0,0,1,2.37-1.82h0Z"/><path class="cls-4" d="M725.23.33a60.77,60.77,0,0,0-50.14,38.05l-.27.72A1296,1296,0,0,0,609,309.24a1272.05,1272.05,0,0,0,117.2,722.6l8.88,18.28,128-16.85L845,997.73A1150.66,1150.66,0,0,1,729.54,325.1,1136.55,1136.55,0,0,1,788.71,83.39l-.57,1.46c13.33-31-2-67.31-33-80.16A61.36,61.36,0,0,0,725.24.33Zm5.92,56.08h0a4.8,4.8,0,0,1,2.4.36h0c2.88,1.2,3.67,3.74,2.79,5.8l-.31.72-.27.73a1192,1192,0,0,0-62.12,253.72A1206.83,1206.83,0,0,0,777.45,987.66l-9,1.19A1215.24,1215.24,0,0,1,664.9,316.59a1239.51,1239.51,0,0,1,62.74-257.7,3.92,3.92,0,0,1,3.51-2.49Z"/><path class="cls-16" d="M493.6,142.67a1268.1,1268.1,0,0,1,98.34,253.59,1243.57,1243.57,0,0,1-3.5,657l-63-16.88A1178.6,1178.6,0,0,0,529,413.13,1164.46,1164.46,0,0,0,436.5,175.45c-9.19-15.45-3.75-35.77,12.14-44.94a33,33,0,0,1,25.16-3.32,32,32,0,0,1,19.8,15.48Z"/><path class="cls-17" d="M601.66,435.09A552.52,552.52,0,0,0,537.48,447a1178.64,1178.64,0,0,1-12,589.35l63,16.88a1243.47,1243.47,0,0,0,13.22-618.17Z"/><path class="cls-4" d="M468,119.11a40.12,40.12,0,0,0-22.92,5.29c-19.18,11.08-25.88,35.81-14.66,54.65l-.19-.34A1157.39,1157.39,0,0,1,522.15,415a1171.39,1171.39,0,0,1-3.47,619.53l-1.92,6.87,76.59,20.51,1.87-6.71a1250.58,1250.58,0,0,0,3.53-660.72,1275,1275,0,0,0-98.88-255l-.05-.08,0-.08a39.1,39.1,0,0,0-24.16-18.88A39.61,39.61,0,0,0,468,119.1Zm-6,14.18a26.15,26.15,0,0,1,9.94.7h0a24.9,24.9,0,0,1,15.45,12,1262.05,1262.05,0,0,1,97.72,252,1236.34,1236.34,0,0,1-1.83,646.5L534,1031.36a1185.49,1185.49,0,0,0,1.81-620.06,1171.19,1171.19,0,0,0-93-239.11l-.09-.18-.1-.17c-7.18-12.08-3-28,9.6-35.24a26.12,26.12,0,0,1,9.86-3.31Z"/><path class="cls-16" d="M830.43,142.67a1268.1,1268.1,0,0,0-98.34,253.59,1243.57,1243.57,0,0,0,3.51,657l63-16.88a1178.59,1178.59,0,0,1-3.5-623.25,1164.46,1164.46,0,0,1,92.46-237.68c9.2-15.45,3.76-35.77-12.13-44.94a33,33,0,0,0-25.16-3.32,32,32,0,0,0-19.81,15.48Z"/><path class="cls-17" d="M722.8,433.32a1243.45,1243.45,0,0,0,12.8,619.94l63-16.88a1178.55,1178.55,0,0,1-11.14-593,553,553,0,0,0-64.63-10.07Z"/><path class="cls-4" d="M856,119.11a40.35,40.35,0,0,0-7.6,1.27,39.17,39.17,0,0,0-24.16,18.89l0,.08-.05.08a1275.27,1275.27,0,0,0-98.87,255,1250.58,1250.58,0,0,0,3.52,660.72l1.88,6.72,76.58-20.52-1.92-6.87A1171.59,1171.59,0,0,1,801.88,415a1157.11,1157.11,0,0,1,91.9-236.23l-.19.34c11.21-18.84,4.52-43.58-14.66-54.66A40.13,40.13,0,0,0,856,119.1Zm6,14.18a26,26,0,0,1,9.85,3.32c12.59,7.27,16.79,23.16,9.61,35.24l-.1.17-.09.17a1172.11,1172.11,0,0,0-93,239.12,1185.55,1185.55,0,0,0,1.82,620.05l-49.35,13.22a1236.19,1236.19,0,0,1-1.83-646.49,1261.45,1261.45,0,0,1,97.72-252A24.82,24.82,0,0,1,852.06,134h0a26,26,0,0,1,9.95-.71Z"/><path class="cls-16" d="M728.19,28.37a32.36,32.36,0,0,0-26.85,20.28A1267.92,1267.92,0,0,0,637,312.91a1243.74,1243.74,0,0,0,114.61,706.6l68.33-9a1178.84,1178.84,0,0,1-118.3-689.1A1164.23,1164.23,0,0,1,762.24,73.71c7.1-16.52-1-36-17.9-43a33.12,33.12,0,0,0-16.15-2.36Z"/><path class="cls-17" d="M670.32,430.8q-21.66,0-43.28,1.7a1244.14,1244.14,0,0,0,124.51,587l68.34-9A1179.16,1179.16,0,0,1,692.32,431.26q-11-.43-22-.43Z"/><path class="cls-4" d="M727.45,21.36a39.43,39.43,0,0,0-32.67,24.73l0,.09,0,.08A1275,1275,0,0,0,630,312,1250.89,1250.89,0,0,0,745.22,1022.6l2.22,4.56,83.25-11-4.52-8.88a1171.91,1171.91,0,0,1-117.6-685A1157.56,1157.56,0,0,1,768.86,76.13l-.15.36c8.67-20.14-1.2-43.79-21.67-52.27a40.16,40.16,0,0,0-19.59-2.86Zm1.48,14a26,26,0,0,1,12.71,1.86h0c13.43,5.57,19.67,20.78,14.12,33.69l-.09.17-.06.19a1170.76,1170.76,0,0,0-61,249.21,1185.78,1185.78,0,0,0,114.66,684.31l-53.5,7a1236.57,1236.57,0,0,1-111.83-698,1260.11,1260.11,0,0,1,64-262.66,25.21,25.21,0,0,1,21-15.8Z"/><path class="cls-18" d="M1136.55,969.76A466.23,466.23,0,1,1,1000,640.09a466.25,466.25,0,0,1,136.55,329.67Z"/><path class="cls-15" d="M670.32,503.53a466.22,466.22,0,0,0-436.09,631.1c89.51-28.77,234.35-18.44,415.3,90.17,113.54,68.15,241.34,91.53,374.56,48.66A466.23,466.23,0,0,0,670.34,503.55Z"/><path class="cls-19" d="M590.11,523A454.68,454.68,0,0,0,520,528.44,466.2,466.2,0,0,0,232.9,1131.06c77.89,113.64,212.56,182.41,357.21,182.41,112.43,0,220.26-41.64,299.76-115.77S1014,1023.06,1014,918.23,969.38,712.88,889.87,638.76,702.54,523,590.11,523Z"/><path class="cls-20" d="M590.11,523A453.31,453.31,0,0,0,520,528.44,466.2,466.2,0,0,0,232.9,1131.06c.75,1.1,1.52,2.18,2.28,3.28,89.59-28.4,234-17.78,414.35,90.46,37.88,22.73,77.36,40.46,118.08,52.43,145.47-62.62,246.42-199.81,246.42-359C1014,700,824.24,523,590.11,523Z"/><path class="cls-18" d="M362,1319.42c104.58,92.67,204.58,122.67,308.36,174.84,103.8-52.17,203.79-82.17,308.38-174.84l-308.38,29.81Z"/><path class="cls-1" d="M670.32,1349.17a78.09,78.09,0,0,0-71.64,47,78.08,78.08,0,0,0-105.29,13.87c58.79,31.5,117.24,54.21,177,84.22,59.7-30,118.14-52.71,176.93-84.21A78.09,78.09,0,0,0,742,1396.19a78.09,78.09,0,0,0-71.65-47Z"/><path class="cls-19" d="M670.33,884.49a10.58,10.58,0,0,0,0,21.15A1311.83,1311.83,0,0,1,934,932.4a10.57,10.57,0,1,0,4.24-20.72,1333.44,1333.44,0,0,0-267.9-27.19Z"/><path class="cls-19" d="M670.33,1038.3a1179.7,1179.7,0,0,0-280.65,33.88,10.58,10.58,0,0,0-3,19.31,10.63,10.63,0,0,0,8,1.23,1158.34,1158.34,0,0,1,275.62-33.27,10.58,10.58,0,0,0,0-21.15Z"/><path class="cls-18" d="M597.26,1216.16c-.27,0-.53,0-.8,0a1004.31,1004.31,0,0,0-218,40.63,10.58,10.58,0,1,0,6.14,20.24A983.41,983.41,0,0,1,598,1237.28a10.57,10.57,0,0,0-.76-21.12Z"/><path class="cls-21" d="M669.44,503.53a466.24,466.24,0,0,0-434.16,298.6c91.81-91.81,275.39-89.25,432.56,9.53C793.92,890.9,962,899.75,1113.52,825a466.22,466.22,0,0,0-443.19-321.5Z"/><path class="cls-22" d="M590.11,523A453.47,453.47,0,0,0,520,528.44,466.22,466.22,0,0,0,235.28,802.13c91.81-91.81,275.39-89.25,432.56,9.52,97.84,61.5,221,80.59,342,51.15C981,670.76,804.06,523,590.11,523Z"/><path class="cls-19" d="M422.71,581.47q-5.47,0-10.94.32A466.21,466.21,0,0,0,231.13,813.32a195.27,195.27,0,0,0,387.09-36.58c0-107.84-87.43-195.27-195.27-195.27Z"/><path class="cls-20" d="M422.7,581.47c-3.63,0-7.27.11-10.9.32A465.79,465.79,0,0,0,235.28,802.13c82.26-82.26,238.2-88.75,382.79-18.16.09-2.39.15-4.8.15-7.23,0-107.84-87.43-195.27-195.27-195.27Z"/><path class="cls-4" d="M670.33,496.48c-261.3,0-473.28,212-473.28,473.28a473.29,473.29,0,0,0,160.24,355q2.61,2.31,5.27,4.57l.1.1.16.14c103.7,89.87,203,120.12,304.35,171l3.16,1.59,3.17-1.59c101.33-50.93,200.65-81.18,304.34-171h0q2.77-2.37,5.51-4.79a473.29,473.29,0,0,0,160.24-355c0-259.83-209.67-470.7-468.95-473l-.12-.24Zm-.45,14.12h.45c253.68,0,459.18,205.49,459.18,459.17a459.18,459.18,0,0,1-155.46,344.39c-1.78,1.56-3.56,3.12-5.37,4.66h0l0,0c-100.46,87.08-196.85,117-298.31,167.64C568.93,1435.91,472.59,1406,372.18,1319l0,0-.19-.16c-1.79-1.53-3.56-3.07-5.33-4.63h0A459.18,459.18,0,0,1,211.15,969.76c0-253.54,205.26-458.92,458.73-459.16Z"/><path class="cls-21" d="M861.05,758.67a10.57,10.57,0,0,0-1.37,21.05,1451.46,1451.46,0,0,1,186.11,37,10.57,10.57,0,1,0,5.47-20.42,1470.36,1470.36,0,0,0-188.82-37.56,10.7,10.7,0,0,0-1.39-.09Z"/><path class="cls-20" d="M701.57,640.17a1579,1579,0,0,0-237.23,13.19,10.58,10.58,0,0,0,2.77,21,1556.2,1556.2,0,0,1,312.2-9.5,10.57,10.57,0,1,0,1.48-21.09q-39.57-2.79-79.22-3.57Z"/><path class="cls-15" d="M952.34,1151a46.6,46.6,0,1,1-13.65-33,46.6,46.6,0,0,1,13.65,33Z"/><path class="cls-15" d="M785.77,1139.54a24.45,24.45,0,1,1-7.16-17.29,24.45,24.45,0,0,1,7.16,17.29Z"/><path class="cls-4" d="M445.92,798.25a72.45,72.45,0,0,1,72.62,72.61v36.39a72.62,72.62,0,1,1-145.24,0V870.86a72.45,72.45,0,0,1,72.62-72.61Z"/><path class="cls-1" d="M464.75,826.87a23.44,23.44,0,1,0,23.43,23.44,23.43,23.43,0,0,0-23.43-23.44Z"/><path class="cls-4" d="M745.55,798.25a72.45,72.45,0,0,1,72.61,72.61v36.39a72.62,72.62,0,1,1-145.23,0V870.86a72.45,72.45,0,0,1,72.62-72.61Z"/><path class="cls-1" d="M764.38,826.87A23.46,23.46,0,1,0,781,833.74a23.43,23.43,0,0,0-16.57-6.87Z"/><path class="cls-1" d="M432.57,1020.85a34,34,0,0,0-34,34v38.4c0,108.91,88.28,197.2,197.19,197.2s197.21-88.29,197.21-197.2v-38.4a34,34,0,0,0-34-34Z"/><path class="cls-23" d="M634.26,1020.85l-.07.08s33.47,64.3,0,123.68c41.77,66,5,141,5,141,88-19.8,153.71-98.41,153.71-192.38v-38.4a34,34,0,0,0-34-34Z"/><path class="cls-4" d="M731,1020.85v.08s38.38,44.13,0,91c44.19,41.06,3,121.94,3,121.94A196.57,196.57,0,0,0,793,1093.27v-38.4a33.94,33.94,0,0,0-34-34Z"/><path class="cls-4" d="M460.47,1020.85v.08s-38.37,44.13,0,91c-44.18,41.06-3,121.94-3,121.94a196.57,196.57,0,0,1-58.91-140.57v-38.4a33.94,33.94,0,0,1,34-34Z"/><path class="cls-4" d="M590.73,1013.79v14.1H758.91a26.77,26.77,0,0,1,27,27v38.41a190,190,0,0,1-190.16,190.14q-2.52,0-5-.06v14.09c1.66,0,3.33.07,5,.07C708.46,1297.52,800,1206,800,1093.28v-38.41a41.15,41.15,0,0,0-41.08-41.08Z"/><path class="cls-4" d="M432.56,1013.79a41.15,41.15,0,0,0-41.08,41.08v38.41c0,112.72,91.54,204.24,204.26,204.24,1.67,0,3.34,0,5-.07v-14.09q-2.5.06-5,.06a190,190,0,0,1-190.16-190.14v-38.41a26.77,26.77,0,0,1,27-27H600.75v-14.1Z"/></g></g></svg>