<svg xmlns="http://www.w3.org/2000/svg" viewBox="0 0 619.2 619.19"><defs><style>.cls-1{fill:#1a1a1a;}.cls-2{fill:#ffc34b;}.cls-3{fill:#ff9829;}.cls-4{fill:#fff;}</style></defs><g id="Layer_2" data-name="Layer 2"><g id="Layer_1-2" data-name="Layer 1"><path class="cls-1" d="M4.35,304.59l-4.35,5,58.52,67.28-17,87.52,84.32,29,29,84.32,87.52-17.05,67.27,58.53,67.29-58.53,87.51,17.05,8-23.19,21-61.13,84.32-29-17-87.52,58.52-67.28-4.35-5H540.11l4.35,5-44.39,51L513,427l-64,22-22,64-66.39-12.92-51,44.38-51-44.38L192.18,513l-22-64-64-22,12.92-66.4-44.39-51,4.35-5Z"/><path class="cls-1" d="M309.6,0,242.33,58.52l-87.52-17-29,84.31-84.32,29,17,87.52L0,309.59l4.36,5H79.1l-4.36-5,44.39-51-12.92-66.4,64-22,22-64,66.4,12.93,51-44.39,51,44.39L427,106.19l22,64,64,22-12.93,66.4,44.39,51-4.36,5h74.74l4.36-5-58.52-67.28,17-87.52-84.32-29-29-84.31-87.52,17Z"/><path class="cls-2" d="M445.72,545.35l-77-15L309.6,581.82l-59.15-51.46-77,15L148,471.2,73.85,445.7l15-77L37.38,309.59l51.45-59.16-15-77L148,148l25.5-74.14,77,15L309.6,37.36l59.16,51.46,77-15L471.22,148l74.14,25.5-15,77,51.45,59.16-51.45,59.15,15,77-74.14,25.5Z"/><path class="cls-3" d="M309.6,131.16a178.41,178.41,0,1,0,126.17,52.26A178.43,178.43,0,0,0,309.6,131.16Z"/><path class="cls-2" d="M280.57,147.34A133.21,133.21,0,1,0,413.78,280.55,133.19,133.19,0,0,0,280.57,147.34Z"/><path class="cls-1" d="M124.2,304.59c0,1.66-.08,3.33-.08,5,0,102.35,83.13,185.48,185.48,185.48s185.47-83.13,185.47-185.48c0-1.67,0-3.34-.08-5H480.88c.06,1.66.08,3.33.08,5a171.37,171.37,0,1,1-342.74,0c0-1.67,0-3.34.07-5Z"/><path class="cls-4" d="M243,178.19A64.76,64.76,0,1,0,307.72,243,64.75,64.75,0,0,0,243,178.19Z"/><path class="cls-1" d="M32.38,304.59l-4.35,5,53.22,61.19-15.49,79.6,76.68,26.38,26.38,76.68,79.59-15.51,61.19,53.24,61.19-53.24,79.61,15.51,2-5.8,24.38-70.88,76.69-26.38L538,370.78l53.22-61.19-4.35-5H568.14l4.35,5L522.8,366.72,537.28,441l-71.6,24.63-24.63,71.6-74.33-14.47L309.6,572.48l-57.12-49.69-74.32,14.47-24.62-71.6L81.94,441l14.47-74.31-49.7-57.13,4.35-5Z"/><path class="cls-1" d="M309.6,124.12c-102.34,0-185.47,83.12-185.47,185.47,0,1.68,0,3.35.07,5h14.11c-.06-1.67-.08-3.34-.08-5a171.38,171.38,0,1,1,342.75,0c0,1.68,0,3.35-.08,5H495c0-1.67.07-3.34.07-5,0-102.35-83.11-185.47-185.46-185.47Z"/><path class="cls-1" d="M309.6,28,248.41,81.25l-79.59-15.5-26.38,76.68L65.76,168.8l15.49,79.6L28,309.59l4.36,5H51.07l-4.36-5,49.7-57.13L81.94,178.15l71.6-24.63,24.62-71.6,74.32,14.47L309.6,46.71l57.12,49.68,74.33-14.47,24.63,71.6,71.6,24.63L522.8,252.46l49.69,57.13-4.37,5h18.69l4.36-5L538,248.4l15.5-79.6-76.69-26.37L450.4,65.75l-79.61,15.5Z"/></g></g></svg>