<svg xmlns="http://www.w3.org/2000/svg" viewBox="0 0 1101.83 1549.26"><defs><style>.cls-1{fill:#fff;}.cls-2{fill:#be78d1;}.cls-3{fill:#1a1a1a;}.cls-4{fill:#b3d464;}.cls-5{fill:#e0edb4;}.cls-6{fill:#e4a9f6;}.cls-7{fill:#f3caff;}.cls-8{fill:#da98e5;}.cls-9{fill:#9552af;}.cls-10{fill:#ba6bd0;}.cls-11{fill:#ff735e;}.cls-12{fill:#e94c4c;}.cls-13{fill:#4aebd2;}.cls-14{fill:#ffbda2;}.cls-15{fill:#25c0b5;}.cls-16{fill:#d0d0d0;}</style></defs><g id="Layer_2" data-name="Layer 2"><g id="Layer_1-2" data-name="Layer 1"><path class="cls-1" d="M550.89,845.69q-.35,0-.69,0H550l-.7.1-.69.09-.68.14-.61.13h-.09l-.2.1c-.31.09-.61.19-.91.3l-.63.26-.64.28-.61.33-.6.34-.57.38-.57.4L542,849l-.52.46c-.16.16-.33.32-.48.49s-.32.33-.48.51-.3.35-.44.53l-.42.55c-.13.19-.26.38-.38.58s-.25.39-.36.59-.22.41-.33.62-.2.41-.29.62-.18.42-.27.64-.16.43-.23.65-.14.44-.2.66-.12.44-.17.67-.09.45-.13.68-.07.46-.1.68-.07.46-.09.7,0,.45,0,.68v.27c0,.22,0,.45,0,.68a1.62,1.62,0,0,0,0,.22c0,.23,0,.45.09.68s.06.47.09.69.09.46.15.69.08.41.13.62v.09l.09.2c.09.3.19.61.31.91s.16.43.25.64.18.42.28.63l.32.61c.11.2.22.4.35.6s.24.39.37.58.26.38.4.56.28.36.43.54.31.34.46.52l.5.48c.16.17.33.32.5.47l.54.45c.18.14.36.28.55.41l.57.39c.19.12.39.25.59.36l.61.32.63.31.64.26.65.24.66.19c.23.07.45.12.68.17a5.28,5.28,0,0,0,.67.13l.69.11.68.09h1.86c.24,0,.47-.06.71-.09l.68-.09.67-.15.62-.13h.09l.21-.09.91-.31c.21-.08.43-.16.64-.26L557,872c.21-.1.41-.21.61-.33s.4-.22.6-.34.39-.24.58-.38.38-.26.56-.4.37-.29.54-.44.35-.29.52-.45.33-.32.49-.49l.47-.49.44-.54.42-.55c.13-.19.26-.38.38-.58s.25-.39.37-.59l.32-.61c.1-.21.2-.41.29-.62s.18-.43.26-.64.16-.44.24-.65.14-.44.19-.66.13-.45.18-.67.09-.46.13-.69.07-.45.1-.68.07-.46.09-.69,0-.46,0-.69v-.26c0-.24,0-.47,0-.7v-.21c0-.23-.06-.46-.1-.7s0-.45-.09-.68-.09-.46-.15-.68-.08-.42-.12-.62v-.09a2,2,0,0,1-.1-.21c-.09-.3-.19-.61-.3-.9s-.17-.44-.26-.65-.18-.42-.28-.63l-.32-.61c-.11-.2-.22-.4-.34-.59s-.25-.39-.38-.58-.27-.38-.41-.56l-.43-.54-.46-.52c-.16-.17-.33-.33-.49-.49l-.51-.47c-.17-.15-.35-.3-.53-.43s-.37-.29-.56-.42l-.58-.39-.59-.36c-.2-.11-.4-.22-.61-.32l-.63-.31c-.2-.09-.42-.17-.63-.25s-.43-.17-.65-.24l-.66-.2-.68-.17-.67-.13c-.23,0-.46-.08-.69-.1l-.69-.1h-1Z"/><path class="cls-1" d="M550.89,845.69q-.35,0-.69,0H550l-.7.1-.69.09-.68.14-.61.13h-.09l-.2.1c-.31.09-.61.19-.91.3l-.63.26-.64.28-.61.33-.6.34-.57.38-.57.4L542,849l-.52.46c-.16.16-.33.32-.48.49s-.32.33-.48.51-.3.35-.44.53l-.42.55c-.13.19-.26.38-.38.58s-.25.39-.36.59-.22.41-.33.62-.2.41-.29.62-.18.42-.27.64-.16.43-.23.65-.14.44-.2.66-.12.44-.17.67-.09.45-.13.68-.07.46-.1.68-.07.46-.09.7,0,.45,0,.68v.27c0,.22,0,.45,0,.68a1.62,1.62,0,0,0,0,.22c0,.23,0,.45.09.68s.06.47.09.7.09.46.15.69.08.41.13.61v.09l.09.2c.09.3.19.61.31.91s.16.43.25.64.18.42.28.63l.32.61c.11.2.22.4.35.6s.24.39.37.58.26.38.4.56.28.36.43.54.31.34.46.52l.5.48c.16.17.33.32.5.47l.54.45c.18.14.36.28.55.41l.57.39c.19.12.39.25.59.36l.61.32.63.31.64.26.65.24.66.19.68.17.67.13.69.1.68.09h1.86c.24,0,.47-.06.71-.09l.68-.09c.22-.05.45-.09.67-.15l.62-.13h.09l.21-.09c.3-.09.61-.19.91-.31l.64-.25L557,872c.21-.1.41-.21.61-.32s.4-.22.6-.35l.58-.37.56-.41a5.75,5.75,0,0,0,.54-.44c.18-.14.35-.29.52-.44l.49-.5.47-.49.44-.54.42-.55.38-.57c.13-.2.25-.39.37-.6l.32-.61c.1-.21.2-.41.29-.62s.18-.42.26-.64.16-.43.24-.65.14-.44.19-.66.13-.45.18-.67.09-.46.13-.69.07-.45.1-.68.07-.46.09-.69,0-.46,0-.68v-.27c0-.23,0-.47,0-.7v-.21c0-.24-.06-.47-.1-.71s0-.45-.09-.68-.09-.46-.15-.68-.08-.41-.12-.61v-.09a2,2,0,0,1-.1-.21q-.13-.45-.3-.9c-.08-.22-.17-.43-.26-.65s-.18-.42-.28-.63l-.32-.61c-.11-.2-.22-.4-.34-.59s-.25-.39-.38-.58-.27-.38-.41-.56l-.43-.54c-.15-.18-.31-.35-.46-.52s-.33-.33-.49-.49l-.51-.47-.53-.44c-.19-.15-.37-.29-.56-.42l-.58-.39-.59-.36c-.2-.11-.4-.22-.61-.32l-.63-.3-.63-.26c-.22-.09-.43-.17-.65-.24s-.44-.14-.66-.19-.45-.13-.68-.18l-.67-.13-.69-.1-.69-.09q-.35,0-.69,0h-.27Z"/><path class="cls-1" d="M550.89,845.69q-.35,0-.69,0H550l-.7.1-.69.09-.68.14-.61.13h-.09l-.2.1c-.31.09-.61.19-.91.3l-.63.26-.64.28-.61.33-.6.34-.57.38-.57.4L542,849l-.52.46c-.16.16-.33.32-.48.49s-.32.33-.48.51-.3.35-.44.53l-.42.55c-.13.19-.26.38-.38.58s-.25.39-.36.59-.22.41-.33.62-.2.41-.29.62-.18.42-.27.64-.16.43-.23.65-.14.44-.2.66-.12.44-.17.67-.09.45-.13.68-.07.46-.1.68-.07.46-.09.7,0,.45,0,.68v.27c0,.22,0,.45,0,.68a1.62,1.62,0,0,0,0,.22c0,.23,0,.45.09.68s.06.47.09.7.09.46.15.69.08.41.13.61v.09l.09.2c.09.3.19.61.31.91s.16.43.25.64.18.42.28.63l.32.61c.11.2.22.4.35.6s.24.39.37.58.26.38.4.56.28.36.43.54.31.34.46.52l.5.48c.16.17.33.32.5.47l.54.45c.18.14.36.28.55.41l.57.39c.19.12.39.25.59.36l.61.32.63.31.64.26.65.24.66.19.68.17.67.13.69.1.68.09h1.86c.24,0,.47-.06.71-.09l.68-.09c.22-.05.45-.09.67-.15l.62-.13h.09l.21-.09c.3-.09.61-.19.91-.31l.64-.25L557,872c.21-.1.41-.21.61-.32s.4-.22.6-.35l.58-.37.56-.41a5.75,5.75,0,0,0,.54-.44c.18-.14.35-.29.52-.44l.49-.5.47-.49.44-.54.42-.55.38-.57c.13-.2.25-.39.37-.6l.32-.61c.1-.21.2-.41.29-.62s.18-.42.26-.64.16-.43.24-.65.14-.44.19-.66.13-.45.18-.67.09-.46.13-.69.07-.45.1-.68.07-.46.09-.69,0-.46,0-.68v-.27c0-.23,0-.47,0-.7v-.21c0-.24-.06-.47-.1-.71s0-.45-.09-.68-.09-.46-.15-.68-.08-.41-.12-.61v-.09a2,2,0,0,1-.1-.21q-.13-.45-.3-.9c-.08-.22-.17-.43-.26-.65s-.18-.42-.28-.63l-.32-.61c-.11-.2-.22-.4-.34-.59s-.25-.39-.38-.58-.27-.38-.41-.56l-.43-.54c-.15-.18-.31-.35-.46-.52s-.33-.33-.49-.49l-.51-.47-.53-.44c-.19-.15-.37-.29-.56-.42l-.58-.39-.59-.36c-.2-.11-.4-.22-.61-.32l-.63-.3-.63-.26c-.22-.09-.43-.17-.65-.24s-.44-.14-.66-.19-.45-.13-.68-.18l-.67-.13-.69-.1-.69-.09q-.35,0-.69,0h-.27Z"/><path class="cls-1" d="M550.89,845.69q-.35,0-.69,0H550l-.7.1-.69.09-.68.14-.61.13h-.09l-.2.1c-.31.09-.61.19-.91.3l-.63.26-.64.28-.61.33-.6.34-.57.38-.57.4L542,849l-.52.46c-.16.16-.33.32-.48.49s-.32.33-.48.51-.3.35-.44.53l-.42.55c-.13.19-.26.38-.38.58s-.25.39-.36.59-.22.41-.33.62-.2.41-.29.62-.18.42-.27.64-.16.43-.23.65-.14.44-.2.66-.12.44-.17.67-.09.45-.13.68-.07.46-.1.68-.07.46-.09.7,0,.45,0,.68v.27c0,.22,0,.45,0,.68a1.62,1.62,0,0,0,0,.22c0,.23,0,.45.09.68s.06.47.09.7.09.46.15.69.08.41.13.61v.09l.09.2c.09.3.19.61.31.91s.16.43.25.64.18.42.28.63l.32.61c.11.2.22.4.35.6s.24.39.37.58.26.38.4.56.28.36.43.54.31.34.46.52l.5.48c.16.17.33.32.5.47l.54.45c.18.14.36.28.55.41l.57.39c.19.12.39.25.59.36l.61.32.63.31.64.26.65.24.66.19.68.17.67.13.69.1.68.09h1.86c.24,0,.47-.06.71-.09l.68-.09c.22-.05.45-.09.67-.15l.62-.13h.09l.21-.09c.3-.09.61-.19.91-.31l.64-.25L557,872c.21-.1.41-.21.61-.32s.4-.22.6-.35l.58-.37.56-.41a5.75,5.75,0,0,0,.54-.44c.18-.14.35-.29.52-.44l.49-.5.47-.49.44-.54.42-.55.38-.57c.13-.2.25-.39.37-.6l.32-.61c.1-.21.2-.41.29-.62s.18-.42.26-.64.16-.43.24-.65.14-.44.19-.66.13-.45.18-.67.09-.46.13-.69.07-.45.1-.68.07-.46.09-.69,0-.46,0-.68v-.27c0-.23,0-.47,0-.7v-.21c0-.24-.06-.47-.1-.71s0-.45-.09-.68-.09-.46-.15-.68-.08-.41-.12-.61v-.09a2,2,0,0,1-.1-.21q-.13-.45-.3-.9c-.08-.22-.17-.43-.26-.65s-.18-.42-.28-.63l-.32-.61c-.11-.2-.22-.4-.34-.59s-.25-.39-.38-.58-.27-.38-.41-.56l-.43-.54c-.15-.18-.31-.35-.46-.52s-.33-.33-.49-.49l-.51-.47-.53-.44c-.19-.15-.37-.29-.56-.42l-.58-.39-.59-.36c-.2-.11-.4-.22-.61-.32l-.63-.3-.63-.26c-.22-.09-.43-.17-.65-.24s-.44-.14-.66-.19-.45-.13-.68-.18l-.67-.13-.69-.1-.69-.09q-.35,0-.69,0h-.27Z"/><path class="cls-1" d="M550.89,845.69q-.35,0-.69,0H550l-.7.1-.69.09-.68.14-.61.13h-.09l-.2.1c-.31.09-.61.19-.91.3l-.63.26-.64.28-.61.33-.6.34-.57.38-.57.4L542,849l-.52.46c-.16.16-.33.32-.48.49s-.32.33-.48.51-.3.35-.44.53l-.42.55c-.13.19-.26.38-.38.58s-.25.39-.36.59-.22.41-.33.62-.2.41-.29.62-.18.42-.27.64-.16.43-.23.65-.14.44-.2.66-.12.44-.17.67-.09.45-.13.68-.07.46-.1.68-.07.46-.09.7,0,.45,0,.68v.27c0,.22,0,.45,0,.68a1.62,1.62,0,0,0,0,.22c0,.23,0,.45.09.68s.06.47.09.7.09.46.15.69.08.41.13.61v.09l.09.2c.09.3.19.61.31.91s.16.43.25.64.18.42.28.63l.32.61c.11.2.22.4.35.6s.24.39.37.58.26.38.4.56.28.36.43.54.31.34.46.52l.5.48c.16.17.33.32.5.47l.54.45c.18.14.36.28.55.41l.57.39c.19.12.39.25.59.36l.61.32.63.31.64.26.65.24.66.19.68.17.67.13.69.1.68.09h1.86c.24,0,.47-.06.71-.09l.68-.09c.22-.05.45-.09.67-.15l.62-.13h.09l.21-.09c.3-.09.61-.19.91-.31l.64-.25L557,872c.21-.1.41-.21.61-.32s.4-.22.6-.35l.58-.37.56-.41a5.75,5.75,0,0,0,.54-.44c.18-.14.35-.29.52-.44l.49-.5.47-.49.44-.54.42-.55.38-.57c.13-.2.25-.39.37-.6l.32-.61c.1-.21.2-.41.29-.62s.18-.42.26-.64.16-.43.24-.65.14-.44.19-.66.13-.45.18-.67.09-.46.13-.69.07-.45.1-.68.07-.46.09-.69,0-.46,0-.68v-.27c0-.23,0-.47,0-.7v-.21c0-.24-.06-.47-.1-.71s0-.45-.09-.68-.09-.46-.15-.68-.08-.41-.12-.61v-.09a2,2,0,0,1-.1-.21q-.13-.45-.3-.9c-.08-.22-.17-.43-.26-.65s-.18-.42-.28-.63l-.32-.61c-.11-.2-.22-.4-.34-.59s-.25-.39-.38-.58-.27-.38-.41-.56l-.43-.54c-.15-.18-.31-.35-.46-.52s-.33-.33-.49-.49l-.51-.47-.53-.44c-.19-.15-.37-.29-.56-.42l-.58-.39-.59-.36c-.2-.11-.4-.22-.61-.32l-.63-.3-.63-.26c-.22-.09-.43-.17-.65-.24s-.44-.14-.66-.19-.45-.13-.68-.18l-.67-.13-.69-.1-.69-.09q-.35,0-.69,0h-.27Z"/><path class="cls-1" d="M550.89,845.69q-.35,0-.69,0H550l-.7.1-.69.09-.68.14-.61.13h-.09l-.2.1c-.31.09-.61.19-.91.3l-.63.26-.64.28-.61.33-.6.34-.57.38-.57.4L542,849l-.52.46c-.16.16-.33.32-.48.49s-.32.33-.48.51-.3.35-.44.53l-.42.55c-.13.19-.26.38-.38.58s-.25.39-.36.59-.22.41-.33.62-.2.41-.29.62-.18.42-.27.64-.16.43-.23.65-.14.44-.2.66-.12.44-.17.67-.09.45-.13.68-.07.46-.1.68-.07.46-.09.7,0,.45,0,.68v.27c0,.22,0,.45,0,.68a1.62,1.62,0,0,0,0,.22c0,.23,0,.45.09.68s.06.47.09.7.09.46.15.69.08.41.13.61v.09l.09.2c.09.3.19.61.31.91s.16.43.25.64.18.42.28.63l.32.61c.11.2.22.4.35.6s.24.39.37.58.26.38.4.56.28.36.43.54.31.34.46.52l.5.48c.16.17.33.32.5.47l.54.45c.18.14.36.28.55.41l.57.39c.19.12.39.25.59.36l.61.32.63.31.64.26.65.24.66.19.68.17.67.13.69.1.68.09h1.86c.24,0,.47-.06.71-.09l.68-.09c.22-.05.45-.09.67-.15l.62-.13h.09l.21-.09c.3-.09.61-.19.91-.31l.64-.25L557,872c.21-.1.41-.21.61-.32s.4-.22.6-.35l.58-.37.56-.41a5.75,5.75,0,0,0,.54-.44c.18-.14.35-.29.52-.44l.49-.5.47-.49.44-.54.42-.55.38-.57c.13-.2.25-.39.37-.6l.32-.61c.1-.21.2-.41.29-.62s.18-.42.26-.64.16-.43.24-.65.14-.44.19-.66.13-.45.18-.67.09-.46.13-.69.07-.45.1-.68.07-.46.09-.69,0-.46,0-.68v-.27c0-.23,0-.47,0-.7v-.21c0-.24-.06-.47-.1-.71s0-.45-.09-.68-.09-.46-.15-.68-.08-.41-.12-.61v-.09a2,2,0,0,1-.1-.21q-.13-.45-.3-.9c-.08-.22-.17-.43-.26-.65s-.18-.42-.28-.63l-.32-.61c-.11-.2-.22-.4-.34-.59s-.25-.39-.38-.58-.27-.38-.41-.56l-.43-.54c-.15-.18-.31-.35-.46-.52s-.33-.33-.49-.49l-.51-.47-.53-.44c-.19-.15-.37-.29-.56-.42l-.58-.39-.59-.36c-.2-.11-.4-.22-.61-.32l-.63-.3-.63-.26c-.22-.09-.43-.17-.65-.24s-.44-.14-.66-.19-.45-.13-.68-.18l-.67-.13-.69-.1-.69-.09q-.35,0-.69,0h-.27Z"/><path class="cls-1" d="M550.89,845.69q-.35,0-.69,0H550l-.7.1-.69.09-.68.14-.61.13h-.09l-.2.1c-.31.09-.61.19-.91.3l-.63.26-.64.28-.61.33-.6.34-.57.38-.57.4L542,849l-.52.46c-.16.16-.33.32-.48.49s-.32.33-.48.51-.3.35-.44.53l-.42.55c-.13.19-.26.38-.38.58s-.25.39-.36.59-.22.41-.33.62-.2.41-.29.62-.18.42-.27.64-.16.43-.23.65-.14.44-.2.66-.12.44-.17.67-.09.45-.13.68-.07.46-.1.68-.07.46-.09.7,0,.45,0,.68v.27c0,.22,0,.45,0,.68a1.62,1.62,0,0,0,0,.22c0,.23,0,.45.09.68s.06.47.09.7.09.46.15.69.08.41.13.61v.09l.09.2c.09.3.19.61.31.91s.16.43.25.64.18.42.28.63l.32.61c.11.2.22.4.35.6s.24.39.37.58.26.38.4.56.28.36.43.54.31.34.46.52l.5.48c.16.17.33.32.5.47l.54.45c.18.14.36.28.55.41l.57.39c.19.12.39.25.59.36l.61.32.63.31.64.26.65.24.66.19.68.17.67.13.69.1.68.09h1.86c.24,0,.47-.06.71-.09l.68-.09c.22-.05.45-.09.67-.15l.62-.13h.09l.21-.09c.3-.09.61-.19.91-.31l.64-.25L557,872c.21-.1.41-.21.61-.32s.4-.22.6-.35l.58-.37.56-.41a5.75,5.75,0,0,0,.54-.44c.18-.14.35-.29.52-.44l.49-.5.47-.49.44-.54.42-.55.38-.57c.13-.2.25-.39.37-.6l.32-.61c.1-.21.2-.41.29-.62s.18-.42.26-.64.16-.43.24-.65.14-.44.19-.66.13-.45.18-.67.09-.46.13-.69.07-.45.1-.68.07-.46.09-.69,0-.46,0-.68v-.27c0-.23,0-.47,0-.7v-.21c0-.24-.06-.47-.1-.71s0-.45-.09-.68-.09-.46-.15-.68-.08-.41-.12-.61v-.09a2,2,0,0,1-.1-.21q-.13-.45-.3-.9c-.08-.22-.17-.43-.26-.65s-.18-.42-.28-.63l-.32-.61c-.11-.2-.22-.4-.34-.59s-.25-.39-.38-.58-.27-.38-.41-.56l-.43-.54c-.15-.18-.31-.35-.46-.52s-.33-.33-.49-.49l-.51-.47-.53-.44c-.19-.15-.37-.29-.56-.42l-.58-.39-.59-.36c-.2-.11-.4-.22-.61-.32l-.63-.3-.63-.26c-.22-.09-.43-.17-.65-.24s-.44-.14-.66-.19-.45-.13-.68-.18l-.67-.13-.69-.1-.69-.09q-.35,0-.69,0h-.27Z"/><path class="cls-1" d="M550.89,845.69q-.35,0-.69,0H550l-.7.1-.69.09-.68.14-.61.13h-.09l-.2.1c-.31.09-.61.19-.91.3l-.63.26-.64.28-.61.33-.6.34-.57.38-.57.4L542,849l-.52.46c-.16.16-.33.32-.48.49s-.32.33-.48.51-.3.35-.44.53l-.42.55c-.13.19-.26.38-.38.58s-.25.39-.36.59-.22.41-.33.62-.2.41-.29.62-.18.42-.27.64-.16.43-.23.65-.14.44-.2.66-.12.44-.17.67-.09.45-.13.68-.07.46-.1.68-.07.46-.09.7,0,.45,0,.68v.27c0,.22,0,.45,0,.68a1.62,1.62,0,0,0,0,.22c0,.23,0,.45.09.68s.06.47.09.7.09.46.15.69.08.41.13.61v.09l.09.2c.09.3.19.61.31.91s.16.43.25.64.18.42.28.63l.32.61c.11.2.22.4.35.6s.24.39.37.58.26.38.4.56.28.36.43.54.31.34.46.52l.5.48c.16.17.33.32.5.47l.54.45c.18.14.36.28.55.41l.57.39c.19.12.39.25.59.36l.61.32.63.31.64.26.65.24.66.19.68.17.67.13.69.1.68.09h1.86c.24,0,.47-.06.71-.09l.68-.09c.22-.05.45-.09.67-.15l.62-.13h.09l.21-.09c.3-.09.61-.19.91-.31l.64-.25L557,872c.21-.1.41-.21.61-.32s.4-.22.6-.35l.58-.37.56-.41a5.75,5.75,0,0,0,.54-.44c.18-.14.35-.29.52-.44l.49-.5.47-.49.44-.54.42-.55.38-.57c.13-.2.25-.39.37-.6l.32-.61c.1-.21.2-.41.29-.62s.18-.42.26-.64.16-.43.24-.65.14-.44.19-.66.13-.45.18-.67.09-.46.13-.69.07-.45.1-.68.07-.46.09-.69,0-.46,0-.68v-.27c0-.23,0-.47,0-.7v-.21c0-.24-.06-.47-.1-.71s0-.45-.09-.68-.09-.46-.15-.68-.08-.41-.12-.61v-.09a2,2,0,0,1-.1-.21q-.13-.45-.3-.9c-.08-.22-.17-.43-.26-.65s-.18-.42-.28-.63l-.32-.61c-.11-.2-.22-.4-.34-.59s-.25-.39-.38-.58-.27-.38-.41-.56l-.43-.54c-.15-.18-.31-.35-.46-.52s-.33-.33-.49-.49l-.51-.47-.53-.44c-.19-.15-.37-.29-.56-.42l-.58-.39-.59-.36c-.2-.11-.4-.22-.61-.32l-.63-.3-.63-.26c-.22-.09-.43-.17-.65-.24s-.44-.14-.66-.19-.45-.13-.68-.18l-.67-.13-.69-.1-.69-.09q-.35,0-.69,0h-.27Z"/><path class="cls-1" d="M550.89,845.69q-.35,0-.69,0H550l-.7.1-.69.09-.68.14-.61.13h-.09l-.2.1c-.31.09-.61.19-.91.3l-.63.26-.64.28-.61.33-.6.34-.57.38-.57.4L542,849l-.52.46c-.16.16-.33.32-.48.49s-.32.33-.48.51-.3.35-.44.53l-.42.55c-.13.19-.26.38-.38.58s-.25.39-.36.59-.22.41-.33.62-.2.41-.29.62-.18.42-.27.64-.16.43-.23.65-.14.44-.2.66-.12.44-.17.67-.09.45-.13.68-.07.46-.1.68-.07.46-.09.7,0,.45,0,.68v.27c0,.22,0,.45,0,.68a1.62,1.62,0,0,0,0,.22c0,.23,0,.45.09.68s.06.47.09.7.09.46.15.69.08.41.13.61v.09l.09.2c.09.3.19.61.31.91s.16.43.25.64.18.42.28.63l.32.61c.11.2.22.4.35.6s.24.39.37.58.26.38.4.56.28.36.43.54.31.34.46.52l.5.48c.16.17.33.32.5.47l.54.45c.18.14.36.28.55.41l.57.39c.19.12.39.25.59.36l.61.32.63.31.64.26.65.24.66.19.68.17.67.13.69.1.68.09h1.86c.24,0,.47-.06.71-.09l.68-.09c.22-.05.45-.09.67-.15l.62-.13h.09l.21-.09c.3-.09.61-.19.91-.31l.64-.25L557,872c.21-.1.41-.21.61-.32s.4-.22.6-.35l.58-.37.56-.41a5.75,5.75,0,0,0,.54-.44c.18-.14.35-.29.52-.44l.49-.5.47-.49.44-.54.42-.55.38-.57c.13-.2.25-.39.37-.6l.32-.61c.1-.21.2-.41.29-.62s.18-.42.26-.64.16-.43.24-.65.14-.44.19-.66.13-.45.18-.67.09-.46.13-.69.07-.45.1-.68.07-.46.09-.69,0-.46,0-.68v-.27c0-.23,0-.47,0-.7v-.21c0-.24-.06-.47-.1-.71s0-.45-.09-.68-.09-.46-.15-.68-.08-.41-.12-.61v-.09a2,2,0,0,1-.1-.21q-.13-.45-.3-.9c-.08-.22-.17-.43-.26-.65s-.18-.42-.28-.63l-.32-.61c-.11-.2-.22-.4-.34-.59s-.25-.39-.38-.58-.27-.38-.41-.56l-.43-.54c-.15-.18-.31-.35-.46-.52s-.33-.33-.49-.49l-.51-.47-.53-.44c-.19-.15-.37-.29-.56-.42l-.58-.39-.59-.36c-.2-.11-.4-.22-.61-.32l-.63-.3-.63-.26c-.22-.09-.43-.17-.65-.24s-.44-.14-.66-.19-.45-.13-.68-.18l-.67-.13-.69-.1-.69-.09q-.35,0-.69,0h-.27Z"/><path class="cls-1" d="M550.89,845.69q-.35,0-.69,0H550l-.7.1-.69.09-.68.14-.61.13h-.09l-.2.1c-.31.09-.61.19-.91.3l-.63.26-.64.28-.61.33-.6.34-.57.38-.57.4L542,849l-.52.46c-.16.16-.33.32-.48.49s-.32.33-.48.51-.3.35-.44.53l-.42.55c-.13.19-.26.38-.38.58s-.25.39-.36.59-.22.41-.33.62-.2.41-.29.62-.18.42-.27.64-.16.43-.23.65-.14.44-.2.66-.12.44-.17.67-.09.45-.13.68-.07.46-.1.68-.07.46-.09.7,0,.45,0,.68v.27c0,.22,0,.45,0,.68a1.62,1.62,0,0,0,0,.22c0,.23,0,.45.09.68s.06.47.09.7.09.46.15.69.08.41.13.61v.09l.09.2c.09.3.19.61.31.91s.16.43.25.64.18.42.28.63l.32.61c.11.2.22.4.35.6s.24.39.37.58.26.38.4.56.28.36.43.54.31.34.46.52l.5.48c.16.17.33.32.5.47l.54.45c.18.14.36.28.55.41l.57.39c.19.12.39.25.59.36l.61.32.63.31.64.26.65.24.66.19.68.17.67.13.69.1.68.09h1.86c.24,0,.47-.06.71-.09l.68-.09c.22-.05.45-.09.67-.15l.62-.13h.09l.21-.09c.3-.09.61-.19.91-.31l.64-.25L557,872c.21-.1.41-.21.61-.32s.4-.22.6-.35l.58-.37.56-.41a5.75,5.75,0,0,0,.54-.44c.18-.14.35-.29.52-.44l.49-.5.47-.49.44-.54.42-.55.38-.57c.13-.2.25-.39.37-.6l.32-.61c.1-.21.2-.41.29-.62s.18-.42.26-.64.16-.43.24-.65.14-.44.19-.66.13-.45.18-.67.09-.46.13-.69.07-.45.1-.68.07-.46.09-.69,0-.46,0-.68v-.27c0-.23,0-.47,0-.7v-.21c0-.24-.06-.47-.1-.71s0-.45-.09-.68-.09-.46-.15-.68-.08-.41-.12-.61v-.09a2,2,0,0,1-.1-.21q-.13-.45-.3-.9c-.08-.22-.17-.43-.26-.65s-.18-.42-.28-.63l-.32-.61c-.11-.2-.22-.4-.34-.59s-.25-.39-.38-.58-.27-.38-.41-.56l-.43-.54c-.15-.18-.31-.35-.46-.52s-.33-.33-.49-.49l-.51-.47-.53-.44c-.19-.15-.37-.29-.56-.42l-.58-.39-.59-.36c-.2-.11-.4-.22-.61-.32l-.63-.3-.63-.26c-.22-.09-.43-.17-.65-.24s-.44-.14-.66-.19-.45-.13-.68-.18l-.67-.13-.69-.1-.69-.09q-.35,0-.69,0h-.27Z"/><path class="cls-2" d="M451.18,1324.84c21.14,78.9,24.89,198.13-7.58,206.82s-88.83-96.42-110-175.33,9.37-104,33.41-110.42,63,0,84.14,78.93Z"/><path class="cls-3" d="M362.64,1229.51A69,69,0,0,0,318,1266.7c-10.3,21.84-12,52.17-.8,94,11,41.28,30.78,88.1,52.53,124.79,10.88,18.34,22.14,34.1,34.12,45.71s26.56,21.54,44.12,16.84,25.22-20.6,29.79-36.64,6.43-35.33,6.69-56.65c.5-42.65-5.84-93.06-16.9-134.34-11.21-41.86-27.86-67.26-47.71-81a69,69,0,0,0-57.23-9.9Zm8.79,32.81c8.43-2.26,18.15-2.58,29.08,5s24.34,24.87,34.27,61.91c10.08,37.63,16.19,86.28,15.73,125.15-.23,19.43-2.19,36.52-5.39,47.74-2.39,8.42-5.27,11.8-6,12.82-1.14-.52-5.32-2-11.61-8.1-8.37-8.12-18.62-21.94-28.53-38.65-19.83-33.43-38.87-78.62-49-116.25-9.93-37-7-58.71-1.28-70.74s14.25-16.63,22.68-18.88Z"/><path class="cls-2" d="M768.2,1356.33c-21.14,78.91-77.51,184-110,175.33s-28.72-127.92-7.58-206.82,60.11-85.37,84.14-78.93,54.55,31.52,33.41,110.42Z"/><path class="cls-3" d="M739.19,1229.51a69,69,0,0,0-57.23,9.9c-19.85,13.77-36.5,39.17-47.72,81-11,41.28-17.39,91.69-16.89,134.34.25,21.32,2.12,40.6,6.69,56.65s12.23,31.93,29.79,36.64,32.14-5.23,44.12-16.84,23.23-27.38,34.11-45.72c21.76-36.68,41.48-83.5,52.54-124.78,11.22-41.86,9.5-72.19-.8-94a69,69,0,0,0-44.61-37.19Zm-8.79,32.81c8.43,2.25,17,6.84,22.68,18.88s8.65,33.69-1.28,70.74c-10.09,37.63-29.12,82.81-48.95,116.25-9.91,16.71-20.16,30.53-28.54,38.65-6.28,6.09-10.47,7.58-11.6,8.1-.73-1-3.61-4.4-6-12.82-3.2-11.22-5.17-28.31-5.39-47.74-.46-38.87,5.65-87.52,15.73-125.15,9.93-37,23.33-54.33,34.26-61.91s20.65-7.26,29.09-5Z"/><path class="cls-2" d="M164.69,942.32c-31.26,75.47-100.87,172.33-131.92,159.47S21,971.22,52.26,895.74,123,819,146,828.48s50,38.36,18.71,113.84Z"/><path class="cls-3" d="M152.48,812.79a69,69,0,0,0-58,2.35C73,826.2,53.15,849.21,36.57,889.25c-16.36,39.48-29.22,88.63-34.29,131-2.53,21.17-3.2,40.53-.76,57s8,33.25,24.75,40.21,32.55-1,45.94-10.93,26.61-24.11,39.79-40.87c26.36-33.53,52-77.38,68.38-116.86,16.58-40,18.84-70.33,11.47-93.33a69,69,0,0,0-39.37-42.7Zm-13,31.38c8.07,3.34,16,9,20,21.68s4.17,34.53-10.51,70c-14.91,36-39.68,78.31-63.7,108.87-12,15.27-24,27.63-33.34,34.59-7,5.22-11.37,6.15-12.56,6.51-.59-1.1-3-4.83-4.28-13.48-1.71-11.55-1.42-28.75.89-48,4.62-38.6,17-86,31.93-122,14.68-35.43,30.23-50.81,42.05-56.9s21.43-4.51,29.49-1.17Z"/><path class="cls-2" d="M1049.58,895.74c31.26,75.48,50.53,193.19,19.48,206s-100.66-84-131.92-159.47S932.87,838,955.85,828.48s62.47-8.21,93.73,67.26Z"/><path class="cls-3" d="M949.35,812.79A69,69,0,0,0,910,855.49c-7.37,23-5.11,53.29,11.47,93.33,16.35,39.48,42,83.33,68.38,116.86,13.18,16.76,26.4,30.92,39.79,40.87s29.14,17.89,45.94,10.93,22.31-23.71,24.75-40.21,1.77-35.87-.76-57c-5.07-42.35-17.93-91.5-34.29-131-16.58-40-36.4-63-57.87-74.11a69,69,0,0,0-58-2.35Zm13,31.38c8.06-3.34,17.66-4.92,29.49,1.17s27.37,21.47,42.05,56.9c14.91,36,27.31,83.43,31.93,122,2.31,19.29,2.6,36.49.89,48-1.28,8.65-3.69,12.38-4.28,13.48-1.19-.35-5.53-1.29-12.56-6.51-9.37-7-21.33-19.32-33.34-34.59-24-30.56-48.79-72.88-63.7-108.87-14.68-35.44-14.56-57.3-10.5-70s12-18.34,20-21.68Z"/><path class="cls-3" d="M550.91,458.16C288,458.16,74.36,671.84,74.36,934.71a476.59,476.59,0,0,0,161.35,357.41q2.25,2,4.52,3.93l.12.12.83.71s0,0,.06,0c103.09,89.32,201.68,119.48,297.47,167.63l12.21,6.13,12.21-6.13c95.83-48.17,194.44-78.32,297.56-167.7q2.74-2.34,5.43-4.71a476.62,476.62,0,0,0,161.35-357.42c0-257.26-204.8-466.86-459.94-475.71l-.47-.86Zm-.46,54.37h.47c233.5,0,422.2,188.7,422.2,422.2a422.17,422.17,0,0,1-142.94,316.65q-2.45,2.16-4.94,4.29l-.07.06-.07.06c-90.78,78.68-178.32,107.6-274.18,154.45C455.15,1363.43,367.68,1334.51,277,1256l-.41-.35q-2.46-2.12-4.91-4.27h0a422.09,422.09,0,0,1-143-316.64c0-233.34,188.46-421.93,421.74-422.18Z"/><path class="cls-3" d="M357.35,94.48a59.32,59.32,0,0,0-33.71,7.77c-28,16.19-38.08,52.82-21.45,80.76l-.73-1.32A1095.81,1095.81,0,0,1,388.4,405.23a1108.59,1108.59,0,0,1-3.28,586.37l-7.4,26.46,113.2,30.34,7.23-25.9a1225.83,1225.83,0,0,0,3.46-647.6A1249,1249,0,0,0,404.72,125l-.16-.32-.19-.32a58.3,58.3,0,0,0-35.81-28h0a59.43,59.43,0,0,0-11.2-1.88Zm-2.94,54.35h0a3.37,3.37,0,0,1,2.29,1.75A1194.88,1194.88,0,0,1,449.11,389c53.06,198,51.77,401.7,3.08,592.78l-8.2-2.19c48.34-189.81,49.52-392.07-3.08-588.39a1149.47,1149.47,0,0,0-91.28-234.64l-.35-.67-.39-.65c-1.1-1.85-.66-4.38,1.93-5.88a4.44,4.44,0,0,1,3.59-.5Z"/><path class="cls-3" d="M728.46,94.47a59.12,59.12,0,0,0-11.17,1.88,58.31,58.31,0,0,0-35.86,28.05l-.18.32-.17.32A1249.59,1249.59,0,0,0,584.2,374.91a1225.9,1225.9,0,0,0,3.45,647.59l7.24,25.9,113.2-30.33-7.41-26.47a1108.69,1108.69,0,0,1-3.28-586.37,1095.4,1095.4,0,0,1,87-223.53l-.73,1.32c16.63-27.94,6.57-64.57-21.45-80.76h0a59.2,59.2,0,0,0-33.7-7.78Zm2.94,54.36a4.44,4.44,0,0,1,3.59.5c2.59,1.5,3,4,1.93,5.88l-.39.65-.35.67A1149.47,1149.47,0,0,0,644.9,391.17c-52.6,196.32-51.43,398.58-3.09,588.39l-8.19,2.19C584.93,790.67,583.64,587,636.7,389a1194.91,1194.91,0,0,1,92.38-238.38,3.4,3.4,0,0,1,2.28-1.75h0Z"/><path class="cls-3" d="M603.83.32A58.55,58.55,0,0,0,555.5,37l-.13.34-.13.34A1249.63,1249.63,0,0,0,491.8,298.06a1226.05,1226.05,0,0,0,113,696.49l8.56,17.62,123.39-16.24-17.44-34.26A1109.09,1109.09,0,0,1,608,313.35a1095.21,1095.21,0,0,1,57-233l-.56,1.41c12.85-29.88-1.9-64.89-31.81-77.28A59.25,59.25,0,0,0,603.83.32Zm5.7,54.05h0a4.5,4.5,0,0,1,2.32.36h0c2.77,1.15,3.54,3.6,2.69,5.58l-.3.69-.26.72A1149.61,1149.61,0,0,0,554.1,306.25,1163.33,1163.33,0,0,0,654.16,952l-8.71,1.15a1171.36,1171.36,0,0,1-99.77-648A1194.49,1194.49,0,0,1,606.16,56.76a3.76,3.76,0,0,1,3.37-2.39Z"/><path class="cls-4" d="M380.58,137.51a1222.82,1222.82,0,0,1,94.78,244.43A1198.65,1198.65,0,0,1,472,1015.19l-60.69-16.26a1136.11,1136.11,0,0,0,3.37-600.73,1122.21,1122.21,0,0,0-89.12-229.09c-8.87-14.89-3.62-34.48,11.69-43.32a31.8,31.8,0,0,1,24.25-3.19,30.79,30.79,0,0,1,19.1,14.91Z"/><path class="cls-5" d="M484.73,419.37a529.88,529.88,0,0,0-61.86,11.51,1136,1136,0,0,1-11.58,568.05L472,1015.19a1198.53,1198.53,0,0,0,12.75-595.82Z"/><path class="cls-3" d="M348.43,115a38.93,38.93,0,0,0-14.6,4.91c-18.49,10.68-24.94,34.52-14.13,52.68l-.18-.34A1115.74,1115.74,0,0,1,408.1,400a1129.18,1129.18,0,0,1-3.35,597.14l-1.85,6.61,73.82,19.78,1.81-6.47a1205.49,1205.49,0,0,0,3.39-636.84A1228.27,1228.27,0,0,0,386.61,134.4l0-.08,0-.09A37.72,37.72,0,0,0,363.25,116h0a38.59,38.59,0,0,0-14.81-1Zm1.7,13.47a25.08,25.08,0,0,1,9.58.69h0a24,24,0,0,1,14.89,11.61A1216.06,1216.06,0,0,1,468.8,383.7,1191.49,1191.49,0,0,1,467,1006.83l-47.56-12.75a1142.65,1142.65,0,0,0,1.75-597.64A1129.25,1129.25,0,0,0,331.56,166l-.09-.17-.09-.17c-6.93-11.63-2.88-26.95,9.25-33.95a25.2,25.2,0,0,1,9.5-3.21Z"/><path class="cls-4" d="M705.23,137.51a1222.21,1222.21,0,0,0-94.78,244.43,1198.55,1198.55,0,0,0,3.37,633.25l60.69-16.26a1136.11,1136.11,0,0,1-3.36-600.73,1122.21,1122.21,0,0,1,89.12-229.09c8.87-14.89,3.62-34.48-11.7-43.32a31.83,31.83,0,0,0-24.25-3.2,30.84,30.84,0,0,0-19.09,14.92Z"/><path class="cls-5" d="M601.49,417.66a1198.51,1198.51,0,0,0,12.34,597.53l60.68-16.26a1136,1136,0,0,1-10.72-571.56,531.07,531.07,0,0,0-62.3-9.71Z"/><path class="cls-3" d="M737.38,115a38.79,38.79,0,0,0-14.81,1,37.7,37.7,0,0,0-23.29,18.2l0,.08,0,.08a1228.09,1228.09,0,0,0-95.3,245.79A1205.49,1205.49,0,0,0,607.28,1017l1.81,6.47,73.81-19.78-1.84-6.61A1129.18,1129.18,0,0,1,677.71,400a1115.74,1115.74,0,0,1,88.58-227.71l-.18.34c10.81-18.16,4.36-42-14.13-52.69a38.91,38.91,0,0,0-14.6-4.9Zm-1.7,13.47a25.38,25.38,0,0,1,9.5,3.21c12.13,7,16.18,22.32,9.25,34l-.1.16-.09.17a1129.57,1129.57,0,0,0-89.65,230.47,1142.69,1142.69,0,0,0,1.74,597.65l-47.56,12.74A1191.5,1191.5,0,0,1,617,383.7a1216.06,1216.06,0,0,1,94.18-242.93,24,24,0,0,1,14.89-11.61h0a25.13,25.13,0,0,1,9.59-.68Z"/><path class="cls-4" d="M606.68,27.35A31.14,31.14,0,0,0,580.81,46.9a1221.86,1221.86,0,0,0-62.07,254.71A1198.87,1198.87,0,0,0,629.21,982.67L695.07,974a1136.26,1136.26,0,0,1-114-664.19A1122,1122,0,0,1,639.5,71.05c6.85-15.93-.91-34.66-17.25-41.43a31.79,31.79,0,0,0-15.57-2.27Z"/><path class="cls-5" d="M550.91,415.23q-20.89,0-41.73,1.64a1199,1199,0,0,0,120,565.79L695.07,974a1136.53,1136.53,0,0,1-123-558.32q-10.59-.42-21.19-.43Z"/><path class="cls-3" d="M606,20.59a38,38,0,0,0-31.49,23.83l0,.08,0,.09A1229.08,1229.08,0,0,0,512,300.71,1205.63,1205.63,0,0,0,623.1,985.63l2.14,4.41,80.24-10.57-4.36-8.56A1129.54,1129.54,0,0,1,587.78,310.68a1115.36,1115.36,0,0,1,58.1-237.3l-.14.35c8.35-19.42-1.16-42.22-20.89-50.39A38.69,38.69,0,0,0,606,20.58Zm1.42,13.51a25,25,0,0,1,12.26,1.8c13,5.36,19,20,13.61,32.46l-.07.18-.07.18a1128.85,1128.85,0,0,0-58.81,240.2A1143,1143,0,0,0,684.84,968.5l-51.57,6.79a1192,1192,0,0,1-107.79-672.8A1215.19,1215.19,0,0,1,587.15,49.34a24.29,24.29,0,0,1,20.24-15.23Z"/><path class="cls-6" d="M1000.29,934.71A449.36,449.36,0,1,1,868.67,617a449.42,449.42,0,0,1,131.62,317.76Z"/><path class="cls-2" d="M550.91,485.33a449.37,449.37,0,0,0-420.34,608.29c86.28-27.73,225.89-17.77,400.3,86.91,109.44,65.69,232.62,88.23,361,46.91a449.38,449.38,0,0,0-341-742.09Z"/><path class="cls-7" d="M473.6,504.1A436.85,436.85,0,0,0,406,509.35a449.37,449.37,0,0,0-276.7,580.83C204.37,1199.72,334.17,1266,473.6,1266c108.36,0,212.29-40.14,288.92-111.58S882.2,986.08,882.2,885.05,839.15,687.12,762.52,615.67,582,504.1,473.6,504.1Z"/><path class="cls-8" d="M473.6,504.1a438,438,0,0,0-67.6,5.24,449.35,449.35,0,0,0-276.71,580.84c.73,1.06,1.47,2.11,2.2,3.16,86.36-27.37,225.58-17.13,399.38,87.19,36.51,21.92,74.56,39,113.81,50.54,140.21-60.36,237.52-192.59,237.52-346,0-210.4-182.94-380.95-408.6-380.95Z"/><path class="cls-6" d="M253.69,1271.74c100.8,89.32,197.18,118.23,297.22,168.52,100-50.29,196.42-79.2,297.23-168.52l-297.23,28.73Z"/><path class="cls-1" d="M550.9,1300.41a75.27,75.27,0,0,0-69,45.32,75.26,75.26,0,0,0-101.49,13.38c56.66,30.36,113,52.24,170.55,81.16,57.55-28.92,113.88-50.8,170.54-81.16A75.27,75.27,0,0,0,620,1345.73a75.27,75.27,0,0,0-69.06-45.32Z"/><path class="cls-7" d="M550.92,852.52a10.2,10.2,0,0,0,0,20.39A1264.82,1264.82,0,0,1,805,898.7a10.19,10.19,0,0,0,4.1-20,1285.78,1285.78,0,0,0-258.22-26.21Z"/><path class="cls-7" d="M550.92,1000.78a1136.75,1136.75,0,0,0-270.51,32.65,10.19,10.19,0,0,0,4.85,19.79,1117,1117,0,0,1,265.66-32.05,10.2,10.2,0,0,0,0-20.39Z"/><path class="cls-6" d="M480.37,1172.21l-.65,0a968.49,968.49,0,0,0-210.17,39.16,10.19,10.19,0,0,0,5.92,19.51,947.15,947.15,0,0,1,205.75-38.34,10.19,10.19,0,0,0-.85-20.36Z"/><path class="cls-9" d="M550.06,485.34a449.37,449.37,0,0,0-418.47,287.8c88.49-88.49,265.44-86,416.92,9.19C670,858.7,832.07,867.23,978.09,795.22A449.37,449.37,0,0,0,550.91,485.34Z"/><path class="cls-10" d="M473.59,504.09A438.19,438.19,0,0,0,406,509.34a449.38,449.38,0,0,0-274.39,263.8c88.49-88.49,265.44-86,416.92,9.18,94.31,59.27,213,77.67,329.67,49.3C850.31,646.52,679.81,504.1,473.6,504.1Z"/><path class="cls-7" d="M312.24,560.46c-3.51,0-7,.11-10.54.31A449.36,449.36,0,0,0,127.59,783.93a188.21,188.21,0,0,0,373.1-35.26c0-103.95-84.27-188.21-188.22-188.21Z"/><path class="cls-8" d="M312.24,560.46q-5.26,0-10.51.31A448.89,448.89,0,0,0,131.59,773.14c79.29-79.29,229.58-85.54,369-17.5.08-2.31.14-4.63.14-7,0-103.95-84.27-188.21-188.22-188.21Z"/><path class="cls-3" d="M550.91,478.54c-251.85,0-456.17,204.31-456.17,456.16a456.18,456.18,0,0,0,154.45,342.14c1.68,1.48,3.38,3,5.08,4.41l0,0,.2.18c100,86.63,195.68,115.78,293.35,164.87l3,1.53,3.05-1.53c97.68-49.1,193.42-78.26,293.38-164.89,1.77-1.52,3.54-3.06,5.29-4.6a456.18,456.18,0,0,0,154.45-342.13c0-250.35-201.94-453.52-451.72-455.94l-.11-.25Zm-.46,13.61h.47c244.51,0,442.58,198.07,442.58,442.58a442.54,442.54,0,0,1-149.84,331.93c-1.71,1.52-3.44,3-5.17,4.5l0,0h0c-96.83,83.92-189.74,112.81-287.53,161.58-97.72-48.75-190.58-77.62-287.35-161.44l0,0-.22-.19c-1.73-1.48-3.43-3-5.14-4.47h0A442.55,442.55,0,0,1,108.33,934.7c0-244.36,197.82-442.3,442.12-442.55Z"/><path class="cls-9" d="M734.69,731.25a10.19,10.19,0,0,0-1.27,20.3A1398,1398,0,0,1,912.8,787.22a10.19,10.19,0,1,0,5.28-19.68,1417.62,1417.62,0,0,0-182-36.2,10.7,10.7,0,0,0-1.39-.09Z"/><path class="cls-8" d="M581,617a1520.39,1520.39,0,0,0-228.65,12.71A10.19,10.19,0,1,0,355,650,1501.08,1501.08,0,0,1,656,640.8a10.19,10.19,0,0,0,1.42-20.33Q619.24,617.8,581,617Z"/><path class="cls-2" d="M822.74,1109.4a44.93,44.93,0,1,1-44.93-44.92,44.93,44.93,0,0,1,44.93,44.92Z"/><path class="cls-2" d="M662.19,1098.36a23.58,23.58,0,1,1-6.91-16.67,23.56,23.56,0,0,1,6.91,16.67Z"/><path class="cls-3" d="M406.51,712a69.84,69.84,0,0,1,70,70V817a70,70,0,0,1-140,0V781.94a69.84,69.84,0,0,1,70-70Z"/><path class="cls-1" d="M447.25,762.13a22.59,22.59,0,1,1-22.59-22.59,22.59,22.59,0,0,1,22.59,22.59Z"/><path class="cls-3" d="M695.32,712a69.84,69.84,0,0,1,70,70V817a70,70,0,0,1-140,0V781.94a69.84,69.84,0,0,1,70-70Z"/><path class="cls-1" d="M736.05,762.13a22.59,22.59,0,1,1-22.59-22.59,22.59,22.59,0,0,1,22.59,22.59Z"/><path class="cls-3" d="M697.17,910.76c-15.83-.19-32.34,3.69-49.07,10.28a264.68,264.68,0,0,1-194.38,0h0c-16.73-6.59-32.9-10.34-48.81-10.21-17.5.15-35,5.65-48.47,16.9s-22.17,27.14-26.8,44.81a235.18,235.18,0,0,0-7.68,59.61c0,127.66,102.6,232.14,229,232.14s229-104.48,229-232.14a235.13,235.13,0,0,0-7.68-59.61c-6.73-25.7-23.58-47.84-47.35-56.75a81.19,81.19,0,0,0-27.67-5ZM405.35,965.18c6.75,0,16.47,1.71,28.43,6.43a319.13,319.13,0,0,0,234.25,0c19.13-7.55,31.66-7.2,37.74-4.92s10.19,5.73,13.84,19.63a181.09,181.09,0,0,1,5.9,45.83c0,98.74-78.09,177.79-174.61,177.79s-174.6-79-174.6-177.79a181.09,181.09,0,0,1,5.9-45.83c2.51-9.55,5.94-14.27,9.07-16.88s6.64-4.2,14.08-4.26Z"/><path class="cls-3" d="M550.91,996.78c-56.4,0-105.18,40.2-105.18,93.09S494.51,1183,550.91,1183s105.18-40.2,105.18-93.09-48.78-93.09-105.18-93.09Zm0,38.52c38.51,0,66.66,25.91,66.66,54.57s-28.15,54.57-66.66,54.57-66.67-25.91-66.67-54.57,28.16-54.57,66.67-54.57Z"/><path class="cls-3" d="M486.54,1041c-22.41,0-43.09,2.41-62,11.87s-34,26.11-44.28,47a177.84,177.84,0,0,0-18.32,78.47c0,101.16,85.5,182.68,189,182.68s189-81.52,189-182.68a177.83,177.83,0,0,0-18.31-78.47c-10.29-20.92-25.37-37.57-44.29-47s-39.59-11.87-62-11.87ZM446,1103.22a77,77,0,0,0-15.62,18.8h0q-1.62,2.78-3.08,5.64c.56-1.25,1.1-2.51,1.71-3.74,5.72-11.62,10.76-17,17-20.71Zm209.8,0c6.23,3.74,11.27,9.09,17,20.71.6,1.24,1.15,2.5,1.71,3.76q-1.46-2.88-3.09-5.66h0a76.73,76.73,0,0,0-15.61-18.8ZM508.18,1138.7h85.45c11.72,0,19,1.36,22.61,2.89s5.09,2.47,8.33,8a45.1,45.1,0,0,1,6.56,23.14c0,29.43-32.72,59.18-80.22,59.18s-80.22-29.75-80.22-59.18a45.09,45.09,0,0,1,6.55-23.14c3.25-5.51,4.68-6.45,8.34-8s10.88-2.89,22.6-2.89Zm-91.79,35.89c1.2,65,64.08,111.65,134.52,111.65s133.31-46.68,134.51-111.65c0,1.27.11,2.54.11,3.82,0,70.6-59.38,128.33-134.62,128.33S416.28,1249,416.28,1178.41c0-1.28.07-2.55.11-3.82Z"/><path class="cls-3" d="M514.16,1042.88a39.6,39.6,0,0,0-39.24,39.25V1115a39.6,39.6,0,0,0,39.24,39.25h73.49A39.6,39.6,0,0,0,626.9,1115v-32.87a39.6,39.6,0,0,0-39.25-39.25Zm0,38.52h73.49c.74,0,.73,0,.73.73V1115c0,.73,0,.73-.73.73H514.16c-.73,0-.72,0-.72-.73v-32.87c0-.74,0-.73.72-.73Z"/><path class="cls-11" d="M405.13,938c-24.94.21-42.08,14.2-49.21,41.43a208,208,0,0,0-6.79,52.71c0,113.2,90.34,205,201.78,205s201.78-91.76,201.78-205a208,208,0,0,0-6.79-52.71c-10.38-39.61-41.93-51.21-87.83-33.12a291.92,291.92,0,0,1-214.32,0c-14.35-5.65-27.29-8.4-38.62-8.31Z"/><path class="cls-12" d="M748.1,988.85c-19.66,92.26-100.47,161.4-197.19,161.4s-177.54-69.13-197.2-161.4a208.26,208.26,0,0,0-4.58,43.3c0,113.2,90.34,205,201.78,205s201.78-91.76,201.78-205a207.45,207.45,0,0,0-4.59-43.3Z"/><path class="cls-3" d="M696.81,931.2c-12.46-.12-26.3,2.91-41.24,8.8a285.06,285.06,0,0,1-209.33,0c-14.94-5.89-28.69-8.89-41.17-8.79-13.72.11-26,4.15-35.58,12.16s-16.31,19.71-20.14,34.34a214.76,214.76,0,0,0-7,54.44c0,116.81,93.4,211.75,208.57,211.75S759.48,1149,759.48,1032.15a214.76,214.76,0,0,0-7-54.44c-5.58-21.27-17.65-36.41-34.78-42.83a60.74,60.74,0,0,0-20.88-3.68ZM405.18,944.8c10.19-.08,22.33,2.43,36.08,7.85a298.75,298.75,0,0,0,219.3,0c22-8.68,39.65-9.81,52.36-5s21.6,15.23,26.4,33.56a200.88,200.88,0,0,1,6.57,51c0,109.58-87.27,198.17-195,198.17s-195-88.59-195-198.17a200.93,200.93,0,0,1,6.57-51c3.3-12.6,8.71-21.51,15.72-27.36s15.77-8.9,27-9Z"/><path class="cls-13" d="M648.93,1089.87c0,46.59-43.88,84.35-98,84.35-26,0-50.93-8.88-69.31-24.7s-28.71-37.28-28.71-59.65,10.32-43.82,28.71-59.64,43.31-24.71,69.31-24.71c54.14,0,98,37.77,98,84.35Z"/><path class="cls-14" d="M405.33,958c-7.79.06-11.83,1.8-15.32,4.71-2.6,2.17-5.26,5.56-7.52,11.17,3.28-2.1,7.34-3.33,14-3.38,7.52-.06,18.08,1.88,30.95,7a336.14,336.14,0,0,0,246.9,0c20.58-8.11,34.4-7.89,41.53-5.22a25.42,25.42,0,0,1,3.51,1.6c-3.36-9-7.44-12.14-12.94-14.2-6.72-2.52-19.75-2.73-39.15,4.92a317.05,317.05,0,0,1-232.8,0c-12.13-4.78-22.08-6.61-29.18-6.55Z"/><path class="cls-3" d="M550.91,998.73c-57.3,0-104.82,40.29-104.82,91.14S493.61,1181,550.91,1181s104.82-40.29,104.82-91.14-47.52-91.14-104.82-91.14Zm0,13.58c51,0,91.23,35.24,91.23,77.56s-40.25,77.56-91.23,77.56-91.23-35.24-91.23-77.56,40.25-77.56,91.23-77.56Z"/><path class="cls-13" d="M486.54,1068.22c-40.61,0-65,9.43-81.9,43.72a150.44,150.44,0,0,0-15.53,66.47c0,85.88,72.44,155.51,161.8,155.51s161.8-69.63,161.8-155.51a150.44,150.44,0,0,0-15.53-66.47c-16.86-34.29-41.29-43.72-81.9-43.72Zm21.64,43.3h85.45c27,0,43.17,5.24,54.37,24.28a72.58,72.58,0,0,1,10.3,36.91c0,47.69-48.08,86.36-107.39,86.36s-107.4-38.67-107.4-86.36a72.59,72.59,0,0,1,10.31-36.91c11.19-19,27.41-24.28,54.36-24.28Z"/><path class="cls-15" d="M389.91,1163.11a149.57,149.57,0,0,0-.8,15.3c0,85.88,72.44,155.51,161.8,155.51s161.8-69.63,161.8-155.51a147.06,147.06,0,0,0-.81-15.3c-8.09,78.61-77.08,140-161,140s-152.91-61.4-161-140Z"/><path class="cls-15" d="M508.18,1092.78c-26.95,0-43.17,5.24-54.36,24.28a73.38,73.38,0,0,0-10,30.8,71.51,71.51,0,0,0,1.44,9.51,75,75,0,0,1,8.59-21.57c11.19-19,27.41-24.28,54.36-24.28h85.45c27,0,43.17,5.24,54.37,24.28a75,75,0,0,1,8.58,21.57,69.91,69.91,0,0,0,1.44-9.51,73.32,73.32,0,0,0-10-30.8c-11.2-19-27.41-24.28-54.37-24.28Z"/><path class="cls-3" d="M486.54,1061.42c-20.83,0-38.2,2.37-52.89,9.72s-26.21,19.71-35.11,37.8a157.25,157.25,0,0,0-16.22,69.47c0,89.7,75.7,162.3,168.59,162.3s168.59-72.6,168.59-162.3a157.38,157.38,0,0,0-16.22-69.47c-8.9-18.09-20.41-30.45-35.11-37.8s-32.06-9.72-52.89-9.72Zm0,13.59H615.28c19.78,0,34.93,2.35,46.82,8.29s21,15.43,29,31.64a143.59,143.59,0,0,1,14.83,63.47c0,82.06-69.17,148.71-155,148.71s-155-66.65-155-148.71a143.59,143.59,0,0,1,14.83-63.47c8-16.21,17.1-25.71,29-31.64s27-8.29,46.82-8.29Zm21.64,29.72c-13.92,0-25.6,1.29-35.71,5.52s-18.32,11.59-24.51,22.11a79.46,79.46,0,0,0-11.24,40.35c0,52.26,51.92,93.15,114.19,93.15S665.1,1225,665.1,1172.71a79.37,79.37,0,0,0-11.25-40.35c-6.18-10.52-14.39-17.88-24.5-22.11s-21.8-5.52-35.71-5.52Zm0,13.59h85.45c13,0,22.94,1.32,30.47,4.47s13,7.93,18,16.45a65.77,65.77,0,0,1,9.37,33.47c0,43.13-44.24,79.56-100.6,79.56s-100.6-36.43-100.6-79.56a65.73,65.73,0,0,1,9.36-33.47c5-8.52,10.51-13.3,18-16.45s17.43-4.47,30.47-4.47Z"/><path class="cls-1" d="M514.17,1053.45h73.48a20,20,0,0,1,20,20v32.87a19.94,19.94,0,0,1-20,20H514.17a19.94,19.94,0,0,1-20-20v-32.87a19.94,19.94,0,0,1,20-20Z"/><path class="cls-16" d="M494.18,1079.86v26.45a19.93,19.93,0,0,0,20,20h73.49a19.94,19.94,0,0,0,20-20v-26.45a20,20,0,0,1-20,20H514.16a19.94,19.94,0,0,1-20-20Z"/><path class="cls-3" d="M514.16,1046.65a26.87,26.87,0,0,0-26.77,26.78v32.88a26.87,26.87,0,0,0,26.77,26.77h73.49a26.87,26.87,0,0,0,26.78-26.77v-32.88a26.88,26.88,0,0,0-26.78-26.78Zm0,13.59h73.49a13,13,0,0,1,13.19,13.19v32.88a13,13,0,0,1-13.19,13.19H514.16A13,13,0,0,1,501,1106.31v-32.88a13,13,0,0,1,13.18-13.19Z"/></g></g></svg>