<svg xmlns="http://www.w3.org/2000/svg" viewBox="0 0 1425.05 1210"><defs><style>.cls-1{fill:#fff;}.cls-2{fill:#be78d1;}.cls-3{fill:#1a1a1a;}.cls-4{fill:#b3d464;}.cls-5{fill:#e0edb4;}.cls-6{fill:#e4a9f6;}.cls-7{fill:#f3caff;}.cls-8{fill:#da98e5;}.cls-9{fill:#9552af;}.cls-10{fill:#ba6bd0;}.cls-11{fill:#af0035;}.cls-12{fill:#ff5574;}.cls-13{fill:#b9dae9;}.cls-14{fill:#8bb0cc;}.cls-15{fill:#ff95a2;}.cls-16{fill:#69f3f7;}.cls-17{fill:#33d6e6;}</style></defs><g id="Layer_2" data-name="Layer 2"><g id="Layer_1-2" data-name="Layer 1"><path class="cls-1" d="M758.44,616c.12.2.24.4.37.58a1.74,1.74,0,0,0,.11.18l.45.54.43.53.48.49c.14.15.28.3.43.44l0,.08.18.12c.24.21.48.41.73.6l.55.4c.19.13.38.26.58.38l.59.35c.19.11.39.22.6.32l.61.28.64.26.64.22.66.19.67.16.67.13c.22,0,.45.07.68.09l.68.06.68,0c.23,0,.46,0,.69,0l.68-.05.68-.07.68-.12.66-.14.66-.18c.22-.07.44-.13.65-.21l.64-.25q.32-.12.63-.27l.62-.29c.2-.11.39-.23.58-.36l.22-.14c.2-.11.39-.23.58-.35l.18-.13c.17-.13.35-.28.52-.43l.53-.44.5-.48.45-.43.07-.05a1.27,1.27,0,0,0,.13-.19c.21-.23.4-.47.6-.72s.27-.37.4-.56.26-.37.39-.56l.34-.59c.11-.2.22-.4.32-.6s.2-.41.29-.62.18-.42.26-.63.16-.43.23-.65.13-.43.19-.65l.15-.67c0-.22.09-.45.13-.67s.07-.45.09-.68,0-.45.06-.68l0-.68c0-.23,0-.46,0-.69s0-.45,0-.68,0-.46-.07-.69l-.12-.66c0-.23-.09-.45-.14-.68s-.12-.44-.19-.66-.13-.44-.21-.65-.15-.43-.24-.64-.18-.42-.27-.62-.18-.42-.28-.62l-.37-.59-.12-.22c-.12-.2-.24-.39-.37-.58l-.12-.18-.44-.54-.44-.52c-.15-.17-.31-.33-.47-.49l-.44-.45,0-.08-.19-.12c-.24-.21-.48-.41-.73-.6l-.55-.41-.57-.38-.59-.34c-.2-.11-.4-.22-.61-.32s-.41-.2-.62-.29l-.63-.26c-.21-.08-.43-.16-.65-.22l-.65-.2-.66-.15-.67-.14c-.22,0-.45-.06-.68-.09s-.45,0-.68-.06l-.68,0h-.68c-.24,0-.46,0-.7.06l-.66.07c-.23,0-.45.08-.67.12l-.68.14-.65.18-.66.21-.64.25c-.21.08-.42.17-.62.27l-.63.28L763,597l-.22.14-.58.36-.18.12c-.18.14-.36.29-.53.45s-.36.28-.53.43l-.49.48a6.25,6.25,0,0,0-.45.44l-.08.05-.12.18c-.21.23-.41.48-.6.73l-.41.55c-.13.19-.26.37-.38.56l-.34.59c-.12.2-.22.4-.33.6s-.19.41-.28.62-.18.42-.26.63-.15.43-.22.65-.14.44-.2.66-.11.45-.15.67-.1.44-.13.67-.06.45-.08.68-.05.45-.06.68,0,.46,0,.69,0,.45,0,.68,0,.46,0,.68,0,.46.08.69.07.44.11.67.09.44.14.66.12.45.19.66.13.44.2.66.16.42.25.63.17.43.27.64.19.41.28.62.24.39.37.58l.12.22Z"/><path class="cls-1" d="M758.44,616c.12.2.24.4.37.58a1.74,1.74,0,0,0,.11.18l.45.54.43.53.48.49c.14.15.28.3.43.44l0,.08.18.12c.24.21.48.41.73.6l.55.4c.19.13.38.26.58.38l.59.35c.19.11.39.22.6.32l.61.28.64.26.64.22.66.19.67.16.67.13c.22,0,.45.07.68.09l.68.06.68,0c.23,0,.46,0,.69,0l.68-.05.68-.07.68-.12.66-.14.66-.18c.22-.07.44-.13.65-.21l.64-.25q.32-.12.63-.27l.62-.29c.2-.11.39-.23.58-.36l.22-.14c.2-.11.39-.23.58-.35l.18-.13c.17-.13.35-.28.52-.43s.36-.29.54-.45.33-.31.5-.48l.44-.42.07-.05a1.27,1.27,0,0,0,.13-.19c.21-.23.4-.47.6-.72s.27-.37.4-.56.26-.37.39-.56l.34-.59c.11-.2.22-.4.32-.6s.2-.41.29-.62.18-.42.26-.63.16-.43.23-.65.13-.43.19-.65l.15-.67c0-.22.09-.45.13-.67s.07-.45.09-.68,0-.45.06-.68l0-.68c0-.23,0-.46,0-.69s0-.45,0-.68,0-.46-.07-.69l-.12-.66c0-.23-.09-.45-.14-.68s-.12-.44-.19-.66l-.21-.65c-.08-.21-.16-.42-.25-.63s-.18-.42-.27-.63-.18-.41-.28-.62l-.36-.58-.14-.22-.36-.58-.12-.18c-.15-.18-.29-.36-.45-.54s-.28-.35-.43-.52l-.48-.49-.43-.45,0-.08-.18-.12-.73-.61-.56-.39c-.18-.14-.38-.27-.57-.39s-.39-.23-.59-.34l-.6-.33-.62-.28-.64-.26c-.21-.08-.43-.16-.64-.22l-.65-.2c-.22-.06-.44-.11-.67-.15l-.66-.14-.68-.09-.69-.06-.68,0c-.22,0-.45,0-.68,0l-.69,0-.67.08c-.23,0-.45.08-.67.12l-.68.14-.65.18c-.22.06-.44.13-.65.21l-.64.25q-.32.12-.63.27l-.63.28L763,597l-.23.14-.58.37-.18.12-.54.44c-.18.14-.35.29-.52.44s-.34.31-.5.48-.3.28-.44.43l-.08,0-.12.19c-.21.23-.41.48-.6.73s-.27.36-.4.55-.26.37-.39.56l-.34.59c-.11.2-.22.4-.32.6s-.19.41-.28.62-.18.42-.26.63-.16.44-.23.65-.13.44-.19.66-.11.44-.16.67-.09.44-.13.67l-.09.68-.06.68c0,.23,0,.46,0,.69s0,.46,0,.69,0,.45,0,.68,0,.46.07.68.07.45.12.67.09.45.14.67.12.44.18.66l.21.66q.11.31.24.63c.09.21.18.42.28.63s.18.42.28.62l.36.58.14.22Z"/><path class="cls-1" d="M758.44,616c.12.2.24.4.37.58a1.74,1.74,0,0,0,.11.18l.45.54.43.53.48.49c.14.15.28.3.43.44l0,.08.18.12c.24.21.48.41.73.6l.55.4c.19.13.38.26.58.38l.59.35c.19.11.39.22.6.32l.61.28.64.26.64.22.66.19.67.16.67.13c.22,0,.45.07.68.09l.68.06.68,0c.23,0,.46,0,.69,0l.68-.05.68-.07.68-.12.66-.14.66-.18c.22-.07.44-.13.65-.21l.64-.25q.32-.12.63-.27l.62-.29c.2-.11.39-.23.58-.36l.22-.14c.2-.11.39-.23.58-.35l.18-.13c.17-.13.35-.28.52-.43s.36-.29.54-.45.33-.31.5-.48l.44-.42.07-.05a1.27,1.27,0,0,0,.13-.19c.21-.23.4-.47.6-.72s.27-.37.4-.56.26-.37.39-.56l.34-.59c.11-.2.22-.4.32-.6s.2-.41.29-.62.18-.42.26-.63.16-.43.23-.65.13-.43.19-.65l.15-.67c0-.22.09-.45.13-.67s.07-.45.09-.68,0-.45.06-.68l0-.68c0-.23,0-.46,0-.69s0-.45,0-.68,0-.46-.07-.69l-.12-.66c0-.23-.09-.45-.14-.68s-.12-.44-.19-.66l-.21-.65c-.08-.21-.16-.42-.25-.63s-.18-.42-.27-.63-.18-.41-.28-.62l-.36-.58-.14-.22-.36-.58-.12-.18c-.15-.18-.29-.36-.45-.54s-.28-.35-.43-.52l-.48-.49-.43-.45,0-.08-.18-.12-.73-.61-.56-.39c-.18-.14-.38-.27-.57-.39s-.39-.23-.59-.34l-.6-.33-.62-.28-.64-.26c-.21-.08-.43-.16-.64-.22l-.65-.2c-.22-.06-.44-.11-.67-.15l-.66-.14-.68-.09-.69-.06-.68,0c-.22,0-.45,0-.68,0l-.69,0-.67.08c-.23,0-.45.08-.67.12l-.68.14-.65.18c-.22.06-.44.13-.65.21l-.64.25q-.32.12-.63.27l-.63.28L763,597l-.23.14-.58.37-.18.12-.54.44c-.18.14-.35.29-.52.44s-.34.31-.5.48-.3.28-.44.43l-.08,0-.12.19c-.21.23-.41.48-.6.73s-.27.36-.4.55-.26.37-.39.56l-.34.59c-.11.2-.22.4-.32.6s-.19.41-.28.62-.18.42-.26.63-.16.44-.23.65-.13.44-.19.66-.11.44-.16.67-.09.44-.13.67l-.09.68-.06.68c0,.23,0,.46,0,.69s0,.46,0,.69,0,.45,0,.68,0,.46.07.68.07.45.12.67.09.45.14.67.12.44.18.66l.21.66q.11.31.24.63c.09.21.18.42.28.63s.18.42.28.62l.36.58.14.22Z"/><path class="cls-1" d="M758.44,616c.12.2.24.4.37.58a1.74,1.74,0,0,0,.11.18l.45.54.43.53.48.49c.14.15.28.3.43.44l0,.08.18.12c.24.21.48.41.73.6l.55.4c.19.13.38.26.58.38l.59.35c.19.11.39.22.6.32l.61.28.64.26.64.22.66.19.67.16.67.13c.22,0,.45.07.68.09l.68.06.68,0c.23,0,.46,0,.69,0l.68-.05.68-.07.68-.12.66-.14.66-.18c.22-.07.44-.13.65-.21l.64-.25q.32-.12.63-.27l.62-.29c.2-.11.39-.23.58-.36l.22-.14c.2-.11.39-.23.58-.35l.18-.13c.17-.13.35-.28.52-.43s.36-.29.54-.45.33-.31.5-.48l.44-.42.07-.05a1.27,1.27,0,0,0,.13-.19c.21-.23.4-.47.6-.72s.27-.37.4-.56.26-.37.39-.56l.34-.59c.11-.2.22-.4.32-.6s.2-.41.29-.62.18-.42.26-.63.16-.43.23-.65.13-.43.19-.65l.15-.67c0-.22.09-.45.13-.67s.07-.45.09-.68,0-.45.06-.68l0-.68c0-.23,0-.46,0-.69s0-.45,0-.68,0-.46-.07-.69l-.12-.66c0-.23-.09-.45-.14-.68s-.12-.44-.19-.66l-.21-.65c-.08-.21-.16-.42-.25-.63s-.18-.42-.27-.63-.18-.41-.28-.62l-.36-.58-.14-.22-.36-.58-.12-.18c-.15-.18-.29-.36-.45-.54s-.28-.35-.43-.52l-.48-.49-.43-.45,0-.08-.18-.12-.73-.61-.56-.39c-.18-.14-.38-.27-.57-.39s-.39-.23-.59-.34l-.6-.33-.62-.28-.64-.26c-.21-.08-.43-.16-.64-.22l-.65-.2c-.22-.06-.44-.11-.67-.15l-.66-.14-.68-.09-.69-.06-.68,0c-.22,0-.45,0-.68,0l-.69,0-.67.08c-.23,0-.45.08-.67.12l-.68.14-.65.18c-.22.06-.44.13-.65.21l-.64.25q-.32.12-.63.27l-.63.28L763,597l-.23.14-.58.37-.18.12-.54.44c-.18.14-.35.29-.52.44s-.34.31-.5.48-.3.28-.44.43l-.08,0-.12.19c-.21.23-.41.48-.6.73s-.27.36-.4.55-.26.37-.39.56l-.34.59c-.11.2-.22.4-.32.6s-.19.41-.28.62-.18.42-.26.63-.16.44-.23.65-.13.44-.19.66-.11.44-.16.67-.09.44-.13.67l-.09.68-.06.68c0,.23,0,.46,0,.69s0,.46,0,.69,0,.45,0,.68,0,.46.07.68.07.45.12.67.09.45.14.67.12.44.18.66l.21.66q.11.31.24.63c.09.21.18.42.28.63s.18.42.28.62l.36.58.14.22Z"/><path class="cls-1" d="M758.44,616c.12.2.24.4.37.58a1.74,1.74,0,0,0,.11.18l.45.54.43.53.48.49c.14.15.28.3.43.44l0,.08.18.12c.24.21.48.41.73.6l.55.4c.19.13.38.26.58.38l.59.35c.19.11.39.22.6.32l.61.28.64.26.64.22.66.19.67.16.67.13c.22,0,.45.07.68.09l.68.06.68,0c.23,0,.46,0,.69,0l.68-.05.68-.07.68-.12.66-.14.66-.18c.22-.07.44-.13.65-.21l.64-.25q.32-.12.63-.27l.62-.29c.2-.11.39-.23.58-.36l.22-.14c.2-.11.39-.23.58-.35l.18-.13c.17-.13.35-.28.52-.43s.36-.29.54-.45.33-.31.5-.48l.44-.42.07-.05a1.27,1.27,0,0,0,.13-.19c.21-.23.4-.47.6-.72s.27-.37.4-.56.26-.37.39-.56l.34-.59c.11-.2.22-.4.32-.6s.2-.41.29-.62.18-.42.26-.63.16-.43.23-.65.13-.43.19-.65l.15-.67c0-.22.09-.45.13-.67s.07-.45.09-.68,0-.45.06-.68l0-.68c0-.23,0-.46,0-.69s0-.45,0-.68,0-.46-.07-.69l-.12-.66c0-.23-.09-.45-.14-.68s-.12-.44-.19-.66l-.21-.65c-.08-.21-.16-.42-.25-.63s-.18-.42-.27-.63-.18-.41-.28-.62l-.36-.58-.14-.22-.36-.58-.12-.18c-.15-.18-.29-.36-.45-.54s-.28-.35-.43-.52l-.48-.49-.43-.45,0-.08-.18-.12-.73-.61-.56-.39c-.18-.14-.38-.27-.57-.39s-.39-.23-.59-.34l-.6-.33-.62-.28-.64-.26c-.21-.08-.43-.16-.64-.22l-.65-.2c-.22-.06-.44-.11-.67-.15l-.66-.14-.68-.09-.69-.06-.68,0c-.22,0-.45,0-.68,0l-.69,0-.67.08c-.23,0-.45.08-.67.12l-.68.14-.65.18c-.22.06-.44.13-.65.21l-.64.25q-.32.12-.63.27l-.63.28L763,597l-.23.14-.58.37-.18.12-.54.44c-.18.14-.35.29-.52.44s-.34.31-.5.48-.3.28-.44.43l-.08,0-.12.19c-.21.23-.41.48-.6.73s-.27.36-.4.55-.26.37-.39.56l-.34.59c-.11.2-.22.4-.32.6s-.19.41-.28.62-.18.42-.26.63-.16.44-.23.65-.13.44-.19.66-.11.44-.16.67-.09.44-.13.67l-.09.68-.06.68c0,.23,0,.46,0,.69s0,.46,0,.69,0,.45,0,.68,0,.46.07.68.07.45.12.67.09.45.14.67.12.44.18.66l.21.66q.11.31.24.63c.09.21.18.42.28.63s.18.42.28.62l.36.58.14.22Z"/><path class="cls-1" d="M758.44,616c.12.2.24.4.37.58a1.74,1.74,0,0,0,.11.18l.45.54.43.53.48.49c.14.15.28.3.43.44l0,.08.18.12c.24.21.48.41.73.6l.55.4c.19.13.38.26.58.38l.59.35c.19.11.39.22.6.32l.61.28.64.26.64.22.66.19.67.16.67.13c.22,0,.45.07.68.09l.68.06.68,0c.23,0,.46,0,.69,0l.68-.05.68-.07.68-.12.66-.14.66-.18c.22-.07.44-.13.65-.21l.64-.25q.32-.12.63-.27l.62-.29c.2-.11.39-.23.58-.36l.22-.14c.2-.11.39-.23.58-.35l.18-.13c.17-.13.35-.28.52-.43s.36-.29.54-.45.33-.31.5-.48l.44-.42.07-.05a1.27,1.27,0,0,0,.13-.19c.21-.23.4-.47.6-.72s.27-.37.4-.56.26-.37.39-.56l.34-.59c.11-.2.22-.4.32-.6s.2-.41.29-.62.18-.42.26-.63.16-.43.23-.65.13-.43.19-.65l.15-.67c0-.22.09-.45.13-.67s.07-.45.09-.68,0-.45.06-.68l0-.68c0-.23,0-.46,0-.69s0-.45,0-.68,0-.46-.07-.69l-.12-.66c0-.23-.09-.45-.14-.68s-.12-.44-.19-.66l-.21-.65c-.08-.21-.16-.42-.25-.63s-.18-.42-.27-.63-.18-.41-.28-.62l-.36-.58-.14-.22-.36-.58-.12-.18c-.15-.18-.29-.36-.45-.54s-.28-.35-.43-.52l-.48-.49-.43-.45,0-.08-.18-.12-.73-.61-.56-.39c-.18-.14-.38-.27-.57-.39s-.39-.23-.59-.34l-.6-.33-.62-.28-.64-.26c-.21-.08-.43-.16-.64-.22l-.65-.2c-.22-.06-.44-.11-.67-.15l-.66-.14-.68-.09-.69-.06-.68,0c-.22,0-.45,0-.68,0l-.69,0-.67.08c-.23,0-.45.08-.67.12l-.68.14-.65.18c-.22.06-.44.13-.65.21l-.64.25q-.32.12-.63.27l-.63.28L763,597l-.23.14-.58.37-.18.12-.54.44c-.18.14-.35.29-.52.44s-.34.31-.5.48-.3.28-.44.43l-.08,0-.12.19c-.21.23-.41.48-.6.73s-.27.36-.4.55-.26.37-.39.56l-.34.59c-.11.2-.22.4-.32.6s-.19.41-.28.62-.18.42-.26.63-.16.44-.23.65-.13.44-.19.66-.11.44-.16.67-.09.44-.13.67l-.09.68-.06.68c0,.23,0,.46,0,.69s0,.46,0,.69,0,.45,0,.68,0,.46.07.68.07.45.12.67.09.45.14.67.12.44.18.66l.21.66q.11.31.24.63c.09.21.18.42.28.63s.18.42.28.62l.36.58.14.22Z"/><path class="cls-1" d="M758.44,616c.12.2.24.4.37.58a1.74,1.74,0,0,0,.11.18l.45.54.43.53.48.49c.14.15.28.3.43.44l0,.08.18.12c.24.21.48.41.73.6l.55.4c.19.13.38.26.58.38l.59.35c.19.11.39.22.6.32l.61.28.64.26.64.22.66.19.67.16.67.13c.22,0,.45.07.68.09l.68.06.68,0c.23,0,.46,0,.69,0l.68-.05.68-.07.68-.12.66-.14.66-.18c.22-.07.44-.13.65-.21l.64-.25q.32-.12.63-.27l.62-.29c.2-.11.39-.23.58-.36l.22-.14c.2-.11.39-.23.58-.35l.18-.13c.17-.13.35-.28.52-.43s.36-.29.54-.45.33-.31.5-.48l.44-.42.07-.05a1.27,1.27,0,0,0,.13-.19c.21-.23.4-.47.6-.72s.27-.37.4-.56.26-.37.39-.56l.34-.59c.11-.2.22-.4.32-.6s.2-.41.29-.62.18-.42.26-.63.16-.43.23-.65.13-.43.19-.65l.15-.67c0-.22.09-.45.13-.67s.07-.45.09-.68,0-.45.06-.68l0-.68c0-.23,0-.46,0-.69s0-.45,0-.68,0-.46-.07-.69l-.12-.66c0-.23-.09-.45-.14-.68s-.12-.44-.19-.66l-.21-.65c-.08-.21-.16-.42-.25-.63s-.18-.42-.27-.63-.18-.41-.28-.62l-.36-.58-.14-.22-.36-.58-.12-.18c-.15-.18-.29-.36-.45-.54s-.28-.35-.43-.52l-.48-.49-.43-.45,0-.08-.18-.12-.73-.61-.56-.39c-.18-.14-.38-.27-.57-.39s-.39-.23-.59-.34l-.6-.33-.62-.28-.64-.26c-.21-.08-.43-.16-.64-.22l-.65-.2c-.22-.06-.44-.11-.67-.15l-.66-.14-.68-.09-.69-.06-.68,0c-.22,0-.45,0-.68,0l-.69,0-.67.08c-.23,0-.45.08-.67.12l-.68.14-.65.18c-.22.06-.44.13-.65.21l-.64.25q-.32.12-.63.27l-.63.28L763,597l-.23.14-.58.37-.18.12-.54.44c-.18.14-.35.29-.52.44s-.34.31-.5.48-.3.28-.44.43l-.08,0-.12.19c-.21.23-.41.48-.6.73s-.27.36-.4.55-.26.37-.39.56l-.34.59c-.11.2-.22.4-.32.6s-.19.41-.28.62-.18.42-.26.63-.16.44-.23.65-.13.44-.19.66-.11.44-.16.67-.09.44-.13.67l-.09.68-.06.68c0,.23,0,.46,0,.69s0,.46,0,.69,0,.45,0,.68,0,.46.07.68.07.45.12.67.09.45.14.67.12.44.18.66l.21.66q.11.31.24.63c.09.21.18.42.28.63s.18.42.28.62l.36.58.14.22Z"/><path class="cls-1" d="M758.44,616c.12.2.24.4.37.58a1.74,1.74,0,0,0,.11.18l.45.54.43.53.48.49c.14.15.28.3.43.44l0,.08.18.12c.24.21.48.41.73.6l.55.4c.19.13.38.26.58.38l.59.35c.19.11.39.22.6.32l.61.28.64.26.64.22.66.19.67.16.67.13c.22,0,.45.07.68.09l.68.06.68,0c.23,0,.46,0,.69,0l.68-.05.68-.07.68-.12.66-.14.66-.18c.22-.07.44-.13.65-.21l.64-.25q.32-.12.63-.27l.62-.29c.2-.11.39-.23.58-.36l.22-.14c.2-.11.39-.23.58-.35l.18-.13c.17-.13.35-.28.52-.43s.36-.29.54-.45.33-.31.5-.48l.44-.42.07-.05a1.27,1.27,0,0,0,.13-.19c.21-.23.4-.47.6-.72s.27-.37.4-.56.26-.37.39-.56l.34-.59c.11-.2.22-.4.32-.6s.2-.41.29-.62.18-.42.26-.63.16-.43.23-.65.13-.43.19-.65l.15-.67c0-.22.09-.45.13-.67s.07-.45.09-.68,0-.45.06-.68l0-.68c0-.23,0-.46,0-.69s0-.45,0-.68,0-.46-.07-.69l-.12-.66c0-.23-.09-.45-.14-.68s-.12-.44-.19-.66l-.21-.65c-.08-.21-.16-.42-.25-.63s-.18-.42-.27-.63-.18-.41-.28-.62l-.36-.58-.14-.22-.36-.58-.12-.18c-.15-.18-.29-.36-.45-.54s-.28-.35-.43-.52l-.48-.49-.43-.45,0-.08-.18-.12-.73-.61-.56-.39c-.18-.14-.38-.27-.57-.39s-.39-.23-.59-.34l-.6-.33-.62-.28-.64-.26c-.21-.08-.43-.16-.64-.22l-.65-.2c-.22-.06-.44-.11-.67-.15l-.66-.14-.68-.09-.69-.06-.68,0c-.22,0-.45,0-.68,0l-.69,0-.67.08c-.23,0-.45.08-.67.12l-.68.14-.65.18c-.22.06-.44.13-.65.21l-.64.25q-.32.12-.63.27l-.63.28L763,597l-.23.14-.58.37-.18.12-.54.44c-.18.14-.35.29-.52.44s-.34.31-.5.48-.3.28-.44.43l-.08,0-.12.19c-.21.23-.41.48-.6.73s-.27.36-.4.55-.26.37-.39.56l-.34.59c-.11.2-.22.4-.32.6s-.19.41-.28.62-.18.42-.26.63-.16.44-.23.65-.13.44-.19.66-.11.44-.16.67-.09.44-.13.67l-.09.68-.06.68c0,.23,0,.46,0,.69s0,.46,0,.69,0,.45,0,.68,0,.46.07.68.07.45.12.67.09.45.14.67.12.44.18.66l.21.66q.11.31.24.63c.09.21.18.42.28.63s.18.42.28.62l.36.58.14.22Z"/><path class="cls-1" d="M758.44,616c.12.2.24.4.37.58a1.74,1.74,0,0,0,.11.18l.45.54.43.53.48.49c.14.15.28.3.43.44l0,.08.18.12c.24.21.48.41.73.6l.55.4c.19.13.38.26.58.38l.59.35c.19.11.39.22.6.32l.61.28.64.26.64.22.66.19.67.16.67.13c.22,0,.45.07.68.09l.68.06.68,0c.23,0,.46,0,.69,0l.68-.05.68-.07.68-.12.66-.14.66-.18c.22-.07.44-.13.65-.21l.64-.25q.32-.12.63-.27l.62-.29c.2-.11.39-.23.58-.36l.22-.14c.2-.11.39-.23.58-.35l.18-.13c.17-.13.35-.28.52-.43s.36-.29.54-.45.33-.31.5-.48l.44-.42.07-.05a1.27,1.27,0,0,0,.13-.19c.21-.23.4-.47.6-.72s.27-.37.4-.56.26-.37.39-.56l.34-.59c.11-.2.22-.4.32-.6s.2-.41.29-.62.18-.42.26-.63.16-.43.23-.65.13-.43.19-.65l.15-.67c0-.22.09-.45.13-.67s.07-.45.09-.68,0-.45.06-.68l0-.68c0-.23,0-.46,0-.69s0-.45,0-.68,0-.46-.07-.69l-.12-.66c0-.23-.09-.45-.14-.68s-.12-.44-.19-.66l-.21-.65c-.08-.21-.16-.42-.25-.63s-.18-.42-.27-.63-.18-.41-.28-.62l-.36-.58-.14-.22-.36-.58-.12-.18c-.15-.18-.29-.36-.45-.54s-.28-.35-.43-.52l-.48-.49-.43-.45,0-.08-.18-.12-.73-.61-.56-.39c-.18-.14-.38-.27-.57-.39s-.39-.23-.59-.34l-.6-.33-.62-.28-.64-.26c-.21-.08-.43-.16-.64-.22l-.65-.2c-.22-.06-.44-.11-.67-.15l-.66-.14-.68-.09-.69-.06-.68,0c-.22,0-.45,0-.68,0l-.69,0-.67.08c-.23,0-.45.08-.67.12l-.68.14-.65.18c-.22.06-.44.13-.65.21l-.64.25q-.32.12-.63.27l-.63.28L763,597l-.23.14-.58.37-.18.12-.54.44c-.18.14-.35.29-.52.44s-.34.31-.5.48-.3.28-.44.43l-.08,0-.12.19c-.21.23-.41.48-.6.73s-.27.36-.4.55-.26.37-.39.56l-.34.59c-.11.2-.22.4-.32.6s-.19.41-.28.62-.18.42-.26.63-.16.44-.23.65-.13.44-.19.66-.11.44-.16.67-.09.44-.13.67l-.09.68-.06.68c0,.23,0,.46,0,.69s0,.46,0,.69,0,.45,0,.68,0,.46.07.68.07.45.12.67.09.45.14.67.12.44.18.66l.21.66q.11.31.24.63c.09.21.18.42.28.63s.18.42.28.62l.36.58.14.22Z"/><path class="cls-1" d="M758.44,616c.12.2.24.4.37.58a1.74,1.74,0,0,0,.11.18l.45.54.43.53.48.49c.14.15.28.3.43.44l0,.08.18.12c.24.21.48.41.73.6l.55.4c.19.13.38.26.58.38l.59.35c.19.11.39.22.6.32l.61.28.64.26.64.22.66.19.67.16.67.13c.22,0,.45.07.68.09l.68.06.68,0c.23,0,.46,0,.69,0l.68-.05.68-.07.68-.12.66-.14.66-.18c.22-.07.44-.13.65-.21l.64-.25q.32-.12.63-.27l.62-.29c.2-.11.39-.23.58-.36l.22-.14c.2-.11.39-.23.58-.35l.18-.13c.17-.13.35-.28.52-.43s.36-.29.54-.45.33-.31.5-.48l.44-.42.07-.05a1.27,1.27,0,0,0,.13-.19c.21-.23.4-.47.6-.72s.27-.37.4-.56.26-.37.39-.56l.34-.59c.11-.2.22-.4.32-.6s.2-.41.29-.62.18-.42.26-.63.16-.43.23-.65.13-.43.19-.65l.15-.67c0-.22.09-.45.13-.67s.07-.45.09-.68,0-.45.06-.68l0-.68c0-.23,0-.46,0-.69s0-.45,0-.68,0-.46-.07-.69l-.12-.66c0-.23-.09-.45-.14-.68s-.12-.44-.19-.66l-.21-.65c-.08-.21-.16-.42-.25-.63s-.18-.42-.27-.63-.18-.41-.28-.62l-.36-.58-.14-.22-.36-.58-.12-.18c-.15-.18-.29-.36-.45-.54s-.28-.35-.43-.52l-.48-.49-.43-.45,0-.08-.18-.12-.73-.61-.56-.39c-.18-.14-.38-.27-.57-.39s-.39-.23-.59-.34l-.6-.33-.62-.28-.64-.26c-.21-.08-.43-.16-.64-.22l-.65-.2c-.22-.06-.44-.11-.67-.15l-.66-.14-.68-.09-.69-.06-.68,0c-.22,0-.45,0-.68,0l-.69,0-.67.08c-.23,0-.45.08-.67.12l-.68.14-.65.18c-.22.06-.44.13-.65.21l-.64.25q-.32.12-.63.27l-.63.28L763,597l-.23.14-.58.37-.18.12-.54.44c-.18.14-.35.29-.52.44s-.34.31-.5.48-.3.28-.44.43l-.08,0-.12.19c-.21.23-.41.48-.6.73s-.27.36-.4.55-.26.37-.39.56l-.34.59c-.11.2-.22.4-.32.6s-.19.41-.28.62-.18.42-.26.63-.16.44-.23.65-.13.44-.19.66-.11.44-.16.67-.09.44-.13.67l-.09.68-.06.68c0,.23,0,.46,0,.69s0,.46,0,.69,0,.45,0,.68,0,.46.07.68.07.45.12.67.09.45.14.67.12.44.18.66l.21.66q.11.31.24.63c.09.21.18.42.28.63s.18.42.28.62l.36.58.14.22Z"/><path class="cls-2" d="M1222.11,453.15c56.18-59.31,155.82-124.88,180.22-101.77s-35.69,126.15-91.86,185.46-93.52,46.42-111.58,29.31-33-53.69,23.22-113Z"/><path class="cls-3" d="M1187.21,578.48a69,69,0,0,0,55,18.56c24-2.66,50.75-17.06,80.55-48.52,29.39-31,59-72.34,78.85-110.07,9.93-18.87,17.48-36.71,21.1-53s4.46-33.9-8.74-46.4-30.74-10.72-46.81-6.21-33.47,13-51.77,23.94c-36.61,21.89-76.25,53.67-105.64,84.69-29.8,31.47-42.73,58.94-44.08,83.06a69,69,0,0,0,21.51,54Zm23.35-24.66c-6.33-6-11.69-14.12-11-27.4s8.45-33.75,34.83-61.59c26.79-28.29,65-58.95,98.41-78.9,16.68-10,32.27-17.24,43.51-20.39,8.42-2.36,12.81-1.68,14.05-1.59.16,1.24,1.08,5.58-.82,14.13-2.54,11.38-8.95,27.34-18,44.54-18.12,34.39-46.67,74.26-73.46,102.54-26.37,27.85-46.39,36.65-59.61,38.11s-21.62-3.45-28-9.45Z"/><path class="cls-2" d="M1053.86,211.35c35.56-73.55,110.64-166.23,140.89-151.61s4.23,131-31.33,204.58-75.05,72.59-97.44,61.75-47.69-41.16-12.12-114.72Z"/><path class="cls-3" d="M1058.58,341.36a69,69,0,0,0,58.07,1c22.08-9.8,43.19-31.62,62.06-70.64,18.6-38.47,34.27-86.81,41.77-128.79,3.75-21,5.54-40.28,4-56.9s-6-33.66-22.39-41.57-32.55-.89-46.49,8.26-28,22.54-42.08,38.52c-28.25,32-56.4,74.25-75,112.72-18.87,39-22.86,69.12-16.84,92.51a69,69,0,0,0,36.85,44.89Zm14.78-30.57c-7.85-3.8-15.42-9.92-18.74-22.8s-2.17-34.72,14.52-69.25c17-35.07,44.13-75.89,69.88-105,12.87-14.56,25.52-26.21,35.27-32.61,7.32-4.81,11.71-5.49,12.92-5.79.52,1.14,2.71,5,3.49,13.72,1,11.62-.23,28.77-3.65,47.9-6.84,38.27-22,84.91-38.92,120-16.69,34.53-33.1,49-45.26,54.39s-21.65,3.27-29.51-.53Z"/><path class="cls-2" d="M1047.62,912c79.7,17.93,187,70,179.64,102.79s-126.66,33.87-206.36,15.94-87.72-56.61-82.26-80.88,29.28-55.78,109-37.85Z"/><path class="cls-3" d="M922.07,946.15a69,69,0,0,0,12.22,56.78c14.55,19.27,40.6,34.88,82.89,44.4,41.69,9.38,92.32,13.67,134.91,11.44,21.29-1.11,40.48-3.76,56.33-9s31.41-13.51,35.4-31.25-6.52-31.9-18.6-43.4-28.3-22.11-47.07-32.24c-37.52-20.26-85.11-38.06-126.8-47.45-42.28-9.51-72.51-6.56-93.92,4.62a69,69,0,0,0-35.36,46.07Zm33.14,7.46c1.92-8.52,6.15-17.27,17.95-23.43s33.31-10,70.73-1.58c38,8.55,83.93,25.74,118.14,44.2,17.1,9.23,31.32,18.91,39.77,27,6.34,6,8,10.16,8.56,11.27-1,.77-4.25,3.78-12.56,6.52-11.08,3.64-28.08,6.3-47.48,7.31-38.82,2-87.68-2.11-125.69-10.66-37.42-8.42-55.23-21.11-63.24-31.73s-8.1-20.34-6.18-28.85Z"/><path class="cls-2" d="M505.23,207.85c8.14-81.29,46.82-194.12,80.26-190.77s49,121.61,40.83,202.89S580.77,313.91,556,311.43s-58.92-22.3-50.78-103.58Z"/><path class="cls-3" d="M554.32,328.33a69,69,0,0,0,54.88-19c17.36-16.79,29.7-44.54,34-87.66,4.26-42.52,2.38-93.3-5-135.31-3.69-21-8.64-39.72-15.74-54.82S605.27,2,587.18.18s-30.87,10.34-40.82,23.73-18.52,30.77-26.3,50.62c-15.56,39.71-27.47,89.11-31.73,131.63-4.32,43.12,2.27,72.77,16,92.66a69,69,0,0,0,50,29.51Zm3.38-33.79c-8.69-.87-17.89-4-25.43-15s-14-31.86-10.14-70c3.88-38.76,15.38-86.43,29.55-122.62,7.1-18.1,15-33.38,21.94-42.75,5.22-7,9.1-9.17,10.14-9.86.89.89,4.27,3.76,8,11.68,5,10.56,9.65,27.1,13,46.25,6.72,38.28,8.54,87.28,4.66,126.05-3.82,38.16-14.27,57.37-23.83,66.62s-19.22,10.5-27.9,9.63Z"/><path class="cls-3" d="M428.87,821.85c139.25,223,433.68,291,656.64,151.76a476.62,476.62,0,0,0,217.67-326.18c.33-2,.64-3.95.94-5.92l0-.17.16-1.07a.12.12,0,0,0,0-.08c21.15-134.75-5.5-234.35-15.4-341.11l-1.26-13.6-11.68-7.1c-91.61-55.77-169.43-123.44-299.86-163.56q-3.42-1.08-6.87-2.11A476.61,476.61,0,0,0,580.64,165.2c-218.2,136.27-287.49,421-159.84,642.09l-.49.86Zm46.36-28.41L475,793C351.29,595,411.38,335,609.43,211.29a422.14,422.14,0,0,1,344.3-46.49c2.08.62,4.17,1.26,6.25,1.91l.09,0,.08,0C1075,202.09,1145.87,261,1236.39,317.5c11,106,32.84,195.53,14.27,314.06l-.08.54q-.48,3.21-1,6.42h0a422.16,422.16,0,0,1-192.85,289C858.81,1051.11,599,991.16,475.24,793.43Z"/><path class="cls-3" d="M222.94,1178.67a59.25,59.25,0,0,0,24.45,24.47c28.58,15.2,65,4.32,79.86-24.58l-.73,1.32A1095.76,1095.76,0,0,1,470.06,987.72,1108.68,1108.68,0,0,1,969.14,679.89l26.37-7.73L961.27,560.07l-25.8,7.59a1225.8,1225.8,0,0,0-551.1,340.11,1249.85,1249.85,0,0,0-160.61,214.54l-.18.31-.18.32a58.34,58.34,0,0,0-4.81,45.24h0a58.77,58.77,0,0,0,4.35,10.49Zm47.65-26.3,0,0a3.42,3.42,0,0,1,.28-2.87A1195.48,1195.48,0,0,1,424.1,944.84C564,794.94,737.38,688.15,925.25,628.23l2.48,8.11C741.14,695.89,569,802,430.31,950.64a1149.87,1149.87,0,0,0-150.66,201.72l-.38.65-.35.67c-1,1.92-3.36,2.88-6,1.48a4.47,4.47,0,0,1-2.33-2.78Z"/><path class="cls-3" d="M26.35,863.91a58.44,58.44,0,0,0,50.29,24l.37,0,.36,0a1248.76,1248.76,0,0,0,263.25-50.18,1225.91,1225.91,0,0,0,547.45-346l18.13-19.85-85.69-80L802,412.24a1108.76,1108.76,0,0,1-495.6,313.4A1095.49,1095.49,0,0,1,70.73,770.3l1.5-.08c-32.51.7-58.25,28.63-57.13,61h0a59.3,59.3,0,0,0,11.26,32.71ZM70.9,832.62a4.41,4.41,0,0,1-1.48-3.3c-.1-3,1.81-4.71,4-4.75l.75,0,.75-.06a1149,1149,0,0,0,247.37-46.88C516.64,718.24,687.57,610.1,823,468.55l6.21,5.79C692.87,616.86,520.81,725.84,324.75,785.73A1195,1195,0,0,1,73.62,833.66a3.42,3.42,0,0,1-2.7-1v0Z"/><path class="cls-3" d="M12.51,1019.49a58.6,58.6,0,0,0,56.72,21.57l.35-.07.35-.08a1249.19,1249.19,0,0,0,254.46-84.12A1226.1,1226.1,0,0,0,855.29,492l10.41-16.59-79.14-96.05-19.82,32.93A1109,1109,0,0,1,275.81,850.15,1095.34,1095.34,0,0,1,48,925.18l1.49-.27c-32.15,4.93-54,36-48.69,67.91a59.27,59.27,0,0,0,11.71,26.67ZM55.33,986h0a4.57,4.57,0,0,1-.92-2.15h0c-.49-3,1.18-4.91,3.31-5.24l.75-.11.74-.16a1149.75,1149.75,0,0,0,239.13-78.75A1163.39,1163.39,0,0,0,793,472.69l5.58,6.78A1171.32,1171.32,0,0,1,301.87,907.34,1194.68,1194.68,0,0,1,59.15,987.62a3.78,3.78,0,0,1-3.82-1.6Z"/><path class="cls-4" d="M247.14,1136.18A1222.12,1222.12,0,0,1,404.24,926.3a1198.66,1198.66,0,0,1,538.9-332.58l18.35,60.09a1136,1136,0,0,0-511.3,315.37,1122.76,1122.76,0,0,0-147.1,196.94c-7.94,15.41-27.32,21.33-42.93,13a31.81,31.81,0,0,1-15.56-18.88,30.78,30.78,0,0,1,2.54-24.09Z"/><path class="cls-5" d="M431,898.53a530.13,530.13,0,0,0,42.52,46.37,1136.19,1136.19,0,0,1,488-291.09l-18.36-60.09A1198.6,1198.6,0,0,0,431,898.53Z"/><path class="cls-3" d="M245.07,1175.36a38.74,38.74,0,0,0,11.89,9.79c18.86,10,42.5,2.86,52.17-15.92l-.18.33a1116.11,1116.11,0,0,1,146.2-195.75A1129.22,1129.22,0,0,1,963.41,660.33L970,658.4l-22.33-73.09-6.45,1.89A1205.57,1205.57,0,0,0,399.27,921.67a1229.32,1229.32,0,0,0-158,211l-.05.08-.05.08a37.73,37.73,0,0,0-3.1,29.39h0a38.54,38.54,0,0,0,7,13.11Zm10.53-8.58a24.88,24.88,0,0,1-4.5-8.48h0a23.94,23.94,0,0,1,2-18.78A1215.61,1215.61,0,0,1,409.21,930.94,1191.48,1191.48,0,0,1,938.67,602.35l14.38,47.09a1142.62,1142.62,0,0,0-507.83,315.1,1129.24,1129.24,0,0,0-148,198.14l-.1.16-.09.17c-6.2,12-21.33,16.72-33.71,10.14a25.2,25.2,0,0,1-7.74-6.36Z"/><path class="cls-4" d="M75.16,860.81a1221.93,1221.93,0,0,0,257.52-49.08A1198.61,1198.61,0,0,0,868,473.42l-45.94-42.87A1136,1136,0,0,1,314.32,751.63,1122.49,1122.49,0,0,1,72.81,797.39c-17.34.37-31.16,15.2-30.55,32.87a31.86,31.86,0,0,0,10.13,22.26,30.79,30.79,0,0,0,22.77,8.29Z"/><path class="cls-5" d="M367.73,800.41A1198.69,1198.69,0,0,0,868,473.42l-45.94-42.87A1135.9,1135.9,0,0,1,343,742.42a533.43,533.43,0,0,0,24.77,58Z"/><path class="cls-3" d="M39,845.47a38.67,38.67,0,0,0,8.72,12A37.69,37.69,0,0,0,75.53,867.6h.18a1229.13,1229.13,0,0,0,259-49.36A1205.49,1205.49,0,0,0,873,478l4.54-5L821.67,420.9,817,426a1129.15,1129.15,0,0,1-504.7,319.16A1116.11,1116.11,0,0,1,72.28,790.62l.38,0c-21.13.45-37.93,18.55-37.19,39.89a38.47,38.47,0,0,0,3.57,15Zm12.33-5.69A25.08,25.08,0,0,1,49.05,830c-.49-14,10.36-25.55,23.9-25.83h.38a1129,1129,0,0,0,243-46,1142.6,1142.6,0,0,0,506-318.07l36,33.59A1191.51,1191.51,0,0,1,330.7,805.23,1215.43,1215.43,0,0,1,74.77,854,24,24,0,0,1,57,847.55h0a25.18,25.18,0,0,1-5.65-7.78Z"/><path class="cls-4" d="M33.92,1002.75a31.15,31.15,0,0,0,30.29,11.59,1220.6,1220.6,0,0,0,248.91-82.28A1198.85,1198.85,0,0,0,832.27,477.6L790,426.33A1136.41,1136.41,0,0,1,287.08,874.88,1122.63,1122.63,0,0,1,53.6,951.77c-17.13,2.63-28.91,19.13-26,36.58a31.79,31.79,0,0,0,6.31,14.4Z"/><path class="cls-5" d="M392.46,844.59q11.06,17.71,23.49,34.52A1199,1199,0,0,0,832.27,477.6L790,426.33A1136.67,1136.67,0,0,1,381.61,826.38q5.25,9.2,10.86,18.19Z"/><path class="cls-3" d="M28.57,1006.94A38,38,0,0,0,65.46,1021l.09,0,.09,0a1228.68,1228.68,0,0,0,250.3-82.74A1205.71,1205.71,0,0,0,838,481.21l2.6-4.15L789.16,414.6l-5,8.23A1129.53,1129.53,0,0,1,284.26,868.7,1115.9,1115.9,0,0,1,52.2,945.13l.37-.07c-20.89,3.2-35.19,23.35-31.67,44.41a38.56,38.56,0,0,0,7.66,17.47Zm10.71-8.37a25,25,0,0,1-5-11.34C32,973.4,41.25,960.54,54.63,958.49l.19,0,.19,0A1129.5,1129.5,0,0,0,289.9,881.06,1143,1143,0,0,0,790.78,437.92l33.08,40.15A1192,1192,0,0,1,310.31,925.88a1214.34,1214.34,0,0,1-247.39,81.79,24.3,24.3,0,0,1-23.64-9.1Z"/><path class="cls-6" d="M595,188.26a449.37,449.37,0,1,1-199.79,280A449.37,449.37,0,0,1,595,188.26Z"/><path class="cls-2" d="M451.92,807.46a449.36,449.36,0,0,0,738.59,34.29c-69.22-58.49-134.73-182.17-138.33-385.56-2.25-127.62-48.39-244-151.45-331a449.37,449.37,0,0,0-448.8,682.3Z"/><path class="cls-7" d="M508.79,863.09a437.33,437.33,0,0,0,40.26,54.56,449.34,449.34,0,0,0,639.22-73c53.14-121.7,40.6-266.9-33.26-385.16-57.4-91.92-146.5-158.81-247.69-186s-206.17-12.33-291.87,41.19S470.38,456.09,450.37,558.93s1,212.25,58.42,304.16Z"/><path class="cls-8" d="M508.78,863.09A438,438,0,0,0,549,917.64a449.34,449.34,0,0,0,639.23-73c.52-1.18,1-2.36,1.52-3.55-69-58.74-134-182.24-137.61-384.92-.75-42.57-6.42-83.89-17.42-123.3-125.47-86.95-289.17-99.44-419.31-18.16C437,426.18,389.24,671.69,508.78,863.09Z"/><path class="cls-6" d="M1276.37,643c22.36-132.82-4.17-229.88-14.52-341.37C1166.21,243.4,1090.63,177,961.48,138.77l181.81,236.89Z"/><path class="cls-1" d="M1143.24,375.7a75.27,75.27,0,0,0,75,34.55,75.28,75.28,0,0,0,65.1,79c-4.26-64.15-15.54-123.53-21.5-187.66-55-33.48-103.4-69.67-159.17-101.65a75.26,75.26,0,0,0,42.42,93.17,75.26,75.26,0,0,0-1.87,82.59Z"/><path class="cls-7" d="M763.36,612.94a10.19,10.19,0,0,0,17.29-10.8,1264.66,1264.66,0,0,1-112.74-229.2A10.19,10.19,0,0,0,648.8,380a1285.15,1285.15,0,0,0,114.56,232.9Z"/><path class="cls-7" d="M889.1,534.4a1137,1137,0,0,0,171,212.15,10.19,10.19,0,1,0,14.22-14.6A1116.45,1116.45,0,0,1,906.39,523.61,10.19,10.19,0,0,0,889.1,534.4Z"/><path class="cls-6" d="M1071.87,503.43l.38.54a968.22,968.22,0,0,0,144.54,157.52,10.2,10.2,0,0,0,13.41-15.36,948.34,948.34,0,0,1-141.51-154.2,10.19,10.19,0,0,0-16.81,11.5Z"/><path class="cls-9" d="M452.37,808.18a449.39,449.39,0,0,0,465.78,202.47C796.22,982.47,704.58,831.09,705.09,652.17,705.5,508.63,626.9,366.69,488.46,281a449.38,449.38,0,0,0-36.54,526.47Z"/><path class="cls-10" d="M508.79,863.1a436.33,436.33,0,0,0,40.26,54.56,449.38,449.38,0,0,0,369.1,93C796.22,982.47,704.58,831.09,705.09,652.17c.31-111.39-47-221.8-132.83-305.73C430,468.12,399.55,688.19,508.78,863.09Z"/><path class="cls-7" d="M642.06,970.09q2.81,4.47,5.85,8.78a449.43,449.43,0,0,0,281.51,29.47A188.22,188.22,0,0,0,701.88,710.55c-88.17,55.07-115,171.18-59.94,259.35l.12.19Z"/><path class="cls-8" d="M642.07,970.09q2.77,4.47,5.83,8.75a448.84,448.84,0,0,0,270.25,31.81C808.9,985.4,724,861.24,707.87,707c-2,1.16-4,2.34-6,3.57-88.17,55.07-115,171.18-59.94,259.35Z"/><path class="cls-3" d="M446.16,811.05c133.41,213.62,414.93,278.68,628.54,145.27a456.16,456.16,0,0,0,208.38-312.23q.56-3.33,1.05-6.65l0-.07,0-.27c20.53-130.66-5.45-227.29-15.56-336.13l-.31-3.4-2.92-1.78C1172,238.94,1096.57,173.19,970.14,134.3q-3.35-1.05-6.71-2.06a456.17,456.17,0,0,0-372,50.24C379.1,315.1,313.74,594,444,807.14l-.15.23Zm11.78-6.81-.25-.4C328.17,596.45,391.24,323.53,598.63,194a442.55,442.55,0,0,1,360.91-48.74c2.19.65,4.38,1.32,6.55,2h0v0C1088.62,185,1162.33,248.47,1255.5,305.57c10.42,108.71,35.12,202.77,15.29,329.24,0,0,0,0,0,0l0,.29q-.51,3.36-1.07,6.72h0A442.57,442.57,0,0,1,1067.5,944.8c-207.25,129.44-479.94,66.51-609.56-140.56Z"/><path class="cls-9" d="M563.14,521.31A10.19,10.19,0,0,0,581,511.64a1399.66,1399.66,0,0,1-64.76-171,10.19,10.19,0,0,0-19.49,6,1419.24,1419.24,0,0,0,65.7,173.54,13.15,13.15,0,0,0,.66,1.23Z"/><path class="cls-8" d="M547.67,712.14a1520.3,1520.3,0,0,0,131.91,187.2,10.19,10.19,0,0,0,15.73-13A1500.38,1500.38,0,0,1,528.14,636a10.19,10.19,0,1,0-18,9.57q17.94,33.76,37.53,66.57Z"/><path class="cls-2" d="M837.24,246.32a44.92,44.92,0,1,1-14.3,61.9,44.92,44.92,0,0,1,14.3-61.9Z"/><path class="cls-2" d="M912.92,388.34A23.57,23.57,0,1,1,902.44,403a23.56,23.56,0,0,1,10.48-14.69Z"/><path class="cls-3" d="M861,850.81a73.12,73.12,0,0,1-77.46-124l14.39,23.05a45.94,45.94,0,0,0,48.67,77.93Z"/><path class="cls-3" d="M708,605.86a73.12,73.12,0,0,1-77.46-124l14.4,23.05a45.94,45.94,0,1,0,48.67,77.93Z"/><path class="cls-11" d="M1100,630.53a32.73,32.73,0,0,1-10.44,45.2l-31.4,19.61c-89,55.61-206.29,28.5-261.89-60.53s-28.52-206.3,60.52-261.9l31.39-19.61a32.73,32.73,0,0,1,45.2,10.44Z"/><path class="cls-12" d="M932.06,550a190.06,190.06,0,0,0,171.66,89.13,32.78,32.78,0,0,0-3.77-8.56L933.33,363.74a33.12,33.12,0,0,0-6-7.13A190,190,0,0,0,932.06,550Z"/><path class="cls-1" d="M796.22,634.81A189.85,189.85,0,0,0,947,723.92,436.38,436.38,0,0,0,782.32,460.17a189.83,189.83,0,0,0,13.9,174.64Z"/><path class="cls-13" d="M881,708.05l27.7-17.3c23-14.36,20.68-29.26,20.68-29.26a441.75,441.75,0,0,1,17.82,62.29A191.4,191.4,0,0,1,881,708.05Z"/><path class="cls-13" d="M776.49,592.44l38.31-23.92c21.25-13.28,46.52-21.66,63.25-7.51a443,443,0,0,0-95.64-101,190.3,190.3,0,0,0-5.92,132.47Z"/><path class="cls-14" d="M767.51,526.36l27.69-17.3c23-14.36,35.37-5.75,35.37-5.75A441.47,441.47,0,0,0,782.42,460a191,191,0,0,0-14.91,66.38Z"/><path class="cls-3" d="M790.45,638.41C848,730.56,969.56,758.65,1061.71,701.1l31.39-19.61a39.67,39.67,0,0,0,12.62-54.56L939.09,360.14a39.65,39.65,0,0,0-54.55-12.6l-31.4,19.6C761,424.7,732.9,546.26,790.45,638.41Zm11.53-7.2a183.17,183.17,0,0,1,58.36-252.54l31.39-19.61a25.82,25.82,0,0,1,35.84,8.28l166.62,266.79a25.8,25.8,0,0,1-8.28,35.84l-31.39,19.6A183.17,183.17,0,0,1,802,631.21Z"/><path class="cls-3" d="M944.71,727.73l6.67-1.3A446.23,446.23,0,0,0,782,455.18l-4.09,5.42A439.43,439.43,0,0,1,944.71,727.73Z"/><path class="cls-15" d="M986.65,540.67c5-3.13,11.57-3.31,18.25-.49s12.93,8.39,17.37,15.5,6.71,15.17,6.31,22.42-3.44,13-8.45,16.18c-10.42,6.51-26.37-.21-35.62-15s-8.29-32.09,2.14-38.6Z"/><path class="cls-16" d="M718.81,329C716,358,689.6,391.25,658.11,425c-24.46-39.16-44-76.89-41.21-105.89A51.19,51.19,0,0,1,718.81,329Z"/><path class="cls-17" d="M658.11,425c-5.08-8.13-9.92-16.19-14.42-24.13,24.62-26.51,45.09-52.62,47.32-75.4a40.83,40.83,0,0,0-53.51-42.66A51.19,51.19,0,0,1,718.81,329C716,358,689.6,391.25,658.11,425Zm-14.42-24.13q-4.58-8.08-8.59-16,4,7.88,8.59,16Zm-9.19-17.15c-.7-1.4-1.38-2.8-2-4.18.67,1.38,1.35,2.78,2,4.18Zm-3-6.16c-.63-1.34-1.26-2.68-1.86-4,.6,1.33,1.23,2.67,1.86,4Zm-2.79-6.11q-1.32-3-2.52-6c.8,2,1.64,3.95,2.52,6Zm-3.79-9.13c-.39-1-.74-2-1.1-3,.36,1,.71,2,1.1,3Zm-2.18-6c-.32-.93-.62-1.85-.92-2.77.3.92.6,1.84.92,2.77Zm-1.92-6c-.3-1-.62-2.07-.89-3.1.27,1,.59,2.07.89,3.1Zm-1-3.36c-.43-1.62-.83-3.22-1.17-4.81.34,1.59.74,3.19,1.17,4.81Zm-1.17-4.81c-.34-1.53-.63-3-.89-4.55.26,1.51.55,3,.89,4.55Zm-1-5c-.24-1.43-.44-2.86-.6-4.26q.24,2.12.6,4.26Zm-.68-5.06q-.19-1.86-.3-3.69.11,1.83.3,3.69Zm-.34-4.26c-.06-1.33-.07-2.66-.05-4,0,1.3,0,2.63.05,4Zm0-4.8c0-1.31.1-2.62.22-3.9-.12,1.28-.19,2.59-.22,3.9Zm.22-3.9c.09-.92.2-1.82.33-2.72-.13.9-.24,1.8-.33,2.72Zm.46-3.48c.11-.65.22-1.3.36-1.95-.14.65-.25,1.3-.36,1.95Zm.53-2.73c.13-.6.27-1.21.42-1.81-.15.6-.28,1.21-.42,1.81Zm.69-2.76c.15-.53.3-1.06.46-1.58-.16.52-.31,1.05-.46,1.58Zm.85-2.73q.21-.65.45-1.29-.24.64-.45,1.29Zm.88-2.39c.2-.48.39-1,.6-1.44-.21.48-.4,1-.6,1.44Zm1-2.36q.33-.72.69-1.44-.36.72-.69,1.44Zm1.13-2.31c.27-.51.54-1,.83-1.51-.29.5-.56,1-.83,1.51Zm1.25-2.25c.29-.5.59-1,.9-1.46-.31.48-.61,1-.9,1.46Zm1.38-2.23q.49-.75,1-1.47-.52.72-1,1.47Zm1.44-2.07c.39-.52.79-1,1.19-1.55-.4.51-.8,1-1.19,1.55Zm1.59-2.05c.43-.53.88-1,1.34-1.57-.46.52-.91,1-1.34,1.57Zm1.67-1.95c.56-.62,1.13-1.23,1.71-1.82-.58.59-1.15,1.2-1.71,1.82Zm1.75-1.85c.62-.63,1.25-1.23,1.9-1.82-.65.59-1.28,1.19-1.9,1.82Zm1.9-1.82c.65-.59,1.31-1.16,2-1.72-.68.56-1.34,1.13-2,1.72Zm2-1.72c.68-.55,1.36-1.08,2.06-1.6-.7.52-1.38,1.05-2.06,1.6Z"/><path class="cls-3" d="M652.35,428.61C627.71,389.17,607,351,610.14,318.48a58,58,0,1,1,115.43,11.14c-3.18,32.55-30.77,66-62.49,100l-6,6.47Zm6.85-14.89c28.37-31.21,50.53-61.68,52.85-85.42a44.4,44.4,0,0,0-88.38-8.53c-2.27,23.75,13.66,57.89,35.53,94Z"/><path class="cls-1" d="M665.09,324.4a29.5,29.5,0,0,0-2.93-16.52c-2.46-4.54-6.12-7.31-10.17-7.7-8.44-.82-16.28,8.71-17.49,21.27s4.66,23.41,13.1,24.22c4.06.39,8.17-1.63,11.45-5.62a29.47,29.47,0,0,0,6-15.65Z"/><path class="cls-3" d="M731,854.62A72.46,72.46,0,0,0,832.64,869.4l29.16-21.76A72.61,72.61,0,1,0,775,731.23L745.8,753A72.46,72.46,0,0,0,731,854.62Z"/><path class="cls-1" d="M745,843.56a23.44,23.44,0,1,0,4.77-32.81A23.43,23.43,0,0,0,745,843.56Z"/><path class="cls-3" d="M570.21,614.55a72.45,72.45,0,0,0,101.62,14.78L701,607.57a72.62,72.62,0,1,0-86.84-116.41L585,512.92a72.46,72.46,0,0,0-14.78,101.63Z"/><path class="cls-1" d="M583.77,599.52a23.44,23.44,0,1,0,4.77-32.8,23.45,23.45,0,0,0-4.77,32.8Z"/><path class="cls-16" d="M1042.19,758.53a51.19,51.19,0,0,1-27.26,98.69c-28.07-7.79-56.33-39.51-84.15-76.36,42.79-17.33,83.32-30.05,111.41-22.33Z"/><path class="cls-17" d="M930.78,780.86c42.79-17.33,83.32-30.05,111.41-22.33a51.19,51.19,0,0,1,14,92.43,40.83,40.83,0,0,0-20.7-65.22c-22.07-6.07-53.78,3.71-87.34,17.22-5.8-7-11.6-14.45-17.38-22.1ZM948.16,803q5.91,7.17,11.84,13.73-5.93-6.56-11.84-13.73Zm12.73,14.71q1.59,1.74,3.17,3.42-1.57-1.68-3.17-3.42Zm4.68,5c1,1.07,2,2.13,3.08,3.17-1-1-2-2.1-3.08-3.17Zm4.71,4.79c1.56,1.54,3.1,3,4.66,4.49q-2.34-2.18-4.66-4.49Zm7.16,6.81c.8.72,1.59,1.4,2.39,2.09-.8-.69-1.59-1.37-2.39-2.09Zm4.81,4.17,2.26,1.85c-.75-.6-1.5-1.22-2.26-1.85Zm4.94,3.94c.85.66,1.72,1.32,2.57,2-.85-.63-1.72-1.29-2.57-2ZM990,844.5c1.36,1,2.71,1.92,4.07,2.81-1.36-.89-2.71-1.84-4.07-2.81Zm4.07,2.81c1.31.86,2.62,1.67,3.93,2.45-1.31-.78-2.62-1.59-3.93-2.45Zm4.34,2.69c1.25.74,2.51,1.43,3.77,2.08-1.26-.65-2.52-1.34-3.77-2.08Zm4.49,2.45q1.67.84,3.33,1.59-1.66-.75-3.33-1.59Zm3.85,1.83c1.23.53,2.46,1,3.68,1.47-1.22-.45-2.45-.94-3.68-1.47Zm4.47,1.74c1.24.44,2.48.85,3.73,1.2-1.25-.35-2.49-.76-3.73-1.2Zm3.73,1.2c.88.24,1.77.46,2.65.66-.88-.2-1.77-.42-2.65-.66Zm3.4.81c.65.13,1.3.26,1.95.36-.65-.1-1.3-.23-1.95-.36Zm2.75.48c.61.09,1.22.18,1.83.25-.61-.07-1.22-.16-1.83-.25Zm2.82.35c.55,0,1.1.1,1.65.13-.55,0-1.1-.08-1.65-.13Zm2.85.18c.46,0,.91,0,1.37,0-.46,0-.91,0-1.37,0Zm2.56,0,1.55,0-1.55,0Zm2.55-.1,1.6-.13-1.6.13Zm2.57-.23c.57-.07,1.14-.14,1.7-.23-.56.09-1.13.16-1.7.23Zm2.55-.36c.56-.09,1.12-.2,1.68-.31-.56.11-1.12.22-1.68.31Zm2.57-.5,1.74-.42c-.58.15-1.15.3-1.74.42Zm2.45-.6c.63-.17,1.25-.36,1.87-.55-.62.19-1.24.38-1.87.55Zm2.48-.75q1-.31,2-.69-1,.38-2,.69Zm2.42-.86c.78-.3,1.55-.61,2.32-.95-.77.34-1.54.65-2.32.95Zm2.36-1c.8-.35,1.59-.73,2.38-1.13-.79.4-1.58.78-2.38,1.13Zm2.38-1.13c.78-.39,1.55-.81,2.31-1.24-.76.43-1.53.85-2.31,1.24Zm2.31-1.24c.76-.43,1.5-.89,2.23-1.36-.73.47-1.47.92-2.23,1.36Z"/><path class="cls-3" d="M920,777.89l8.2-3.32c43.1-17.47,84.22-31.26,115.76-22.59a58,58,0,1,1-30.88,111.78c-31.52-8.74-59.72-41.69-87.75-78.8Zm21.69,6c25.85,33.33,52,60.41,75,66.79a44.4,44.4,0,0,0,23.64-85.59c-23-6.32-59.39,3.48-98.67,18.8Z"/><path class="cls-1" d="M1027.23,810.33a29.39,29.39,0,0,0-16.77,0c-4.9,1.63-8.26,4.76-9.34,8.69-2.26,8.17,5.77,17.53,17.93,20.89s23.86-.55,26.12-8.72c1.09-3.93-.19-8.34-3.56-12.26a29.32,29.32,0,0,0-14.38-8.64Z"/></g></g></svg>