<svg xmlns="http://www.w3.org/2000/svg" viewBox="0 0 1288.22 1609.74"><defs><style>.cls-1{fill:#be78d1;}.cls-2{fill:#1a1a1a;}.cls-3{fill:#fff;}.cls-4{fill:#999;}.cls-5{fill:#b3d464;}.cls-6{fill:#e0edb4;}.cls-7{fill:#e4a9f6;}.cls-8{fill:#f3caff;}.cls-9{fill:#da98e5;}.cls-10{fill:#9552af;}.cls-11{fill:#ba6bd0;}.cls-12{fill:#c2c2c2;}.cls-13{fill:#af0035;}.cls-14{fill:#ff5574;}.cls-15{fill:#b9dae9;}.cls-16{fill:#8bb0cc;}.cls-17{fill:#ff95a2;}</style></defs><g id="Layer_2" data-name="Layer 2"><g id="Layer_1-2" data-name="Layer 1"><path class="cls-1" d="M1141.7,929.61c40.55-24.21,106.15-30.46,124-.52S1247,1013.82,1206.44,1038s-74.32.91-87.56-21.25-17.73-62.95,22.82-87.17Z"/><path class="cls-2" d="M1229,1044.08a171.55,171.55,0,0,0,44.25-49.47c13.66-23.31,21.74-51,7.66-74.56s-42.27-29.59-69.27-28.62a171.5,171.5,0,0,0-64.54,15.5l18.25,30.56c15-6.26,32.4-10.3,47.55-10.84,20.41-.73,34,5.11,37.75,11.47s2.52,21.06-7.8,38.68c-7.67,13.08-19.46,26.47-32.1,36.72Z"/><path class="cls-2" d="M1103.75,1025.81a83.5,83.5,0,0,0,42.59,35.53c19.68,7.23,44.87,6.31,69.13-8.18a157.37,157.37,0,0,0,21.38-15.4l-18.48-31a125.38,125.38,0,0,1-21,16.1c-16.3,9.73-28.26,9.27-38.91,5.36s-19.86-12.78-24.49-20.53-8-20-6.45-31.28,6.88-22,23.17-31.71a125.41,125.41,0,0,1,24.12-10.83L1156.37,903a157,157,0,0,0-23.71,11.51c-24.26,14.48-37,36.22-40,57a83.45,83.45,0,0,0,11.08,54.35Z"/><path class="cls-3" d="M110.84,919.54h-.91l-.71.1-.69.09-.69.15-.61.13h-.1l-.2.09c-.31.09-.61.2-.91.31l-.65.26-.64.29-.62.32-.6.35c-.2.12-.39.25-.58.38l-.57.41-.54.44-.52.47c-.17.16-.33.32-.49.49s-.33.34-.48.51l-.44.54-.43.56-.39.58-.36.59-.33.63c-.1.21-.2.41-.29.62s-.19.44-.27.66-.16.43-.24.65-.14.44-.2.67-.12.45-.17.67-.09.46-.13.69-.07.46-.1.69-.07.47-.1.7v1.65a1.62,1.62,0,0,1,0,.22l.09.69c0,.23.06.47.1.7s.09.46.15.69.08.42.13.63v.09l.09.2c.09.31.2.62.31.92s.17.43.26.65.18.42.28.63.21.42.32.61.23.41.35.61.25.4.38.59l.4.57.44.54c.15.18.31.35.47.52l.49.49.51.48.54.45.56.42.58.39.6.36.61.33.63.3.65.26.66.25.67.19c.23.07.45.13.68.18l.68.13.69.1.69.1h1.88l.71-.09.69-.1c.23,0,.45-.09.68-.15l.62-.13h.1l.2-.09c.31-.09.62-.19.92-.31l.65-.26.64-.29.61-.32.61-.35.59-.38.57-.41.54-.44.52-.46.49-.49c.17-.16.32-.33.48-.5l.44-.54.43-.56.39-.58.36-.6c.11-.2.22-.41.32-.62l.31-.62c.08-.22.17-.43.25-.65s.17-.44.25-.66.13-.44.19-.66.12-.45.18-.68.09-.46.13-.69.07-.46.1-.69.07-.47.09-.7,0-.46,0-.69a1.22,1.22,0,0,0,0-.27c0-.23,0-.47,0-.7v-.21l-.09-.71c0-.23-.06-.46-.1-.69s-.09-.46-.15-.69-.08-.42-.13-.62v-.1l-.09-.2c-.09-.31-.19-.61-.31-.91s-.17-.44-.26-.66-.18-.42-.28-.63-.21-.41-.33-.62-.22-.4-.34-.6-.25-.39-.38-.58l-.41-.57-.44-.54c-.15-.18-.31-.36-.47-.53l-.49-.49-.51-.48-.54-.44-.56-.41c-.19-.14-.39-.27-.59-.4s-.39-.25-.6-.36-.4-.22-.61-.33l-.63-.31-.65-.26-.65-.24-.67-.19c-.22-.07-.45-.13-.68-.18l-.68-.13-.7-.11-.69-.08h-.7l-.26,0Z"/><path class="cls-3" d="M110.84,919.54h-.91l-.71.1-.69.09-.69.15-.61.13h-.1l-.2.09c-.31.09-.61.2-.91.31l-.65.26-.64.29-.62.32-.6.35c-.2.12-.39.25-.58.38l-.57.41-.54.44-.52.47c-.17.16-.33.32-.49.49s-.33.34-.48.51l-.44.54-.43.56-.39.58-.36.59-.33.63c-.1.21-.2.41-.29.62s-.19.44-.27.66-.16.43-.24.65-.14.44-.2.67-.12.45-.17.67-.09.46-.13.69-.07.46-.1.69-.07.47-.1.7v1.65a1.62,1.62,0,0,1,0,.22l.09.69c0,.24.06.47.1.71s.09.46.15.69.08.41.13.62v.09l.09.2c.09.31.2.62.31.92s.17.43.26.65.18.42.28.63.21.42.32.61.23.41.35.61.25.4.38.59l.4.57.44.54c.15.18.31.35.47.52l.49.49.51.48.54.45.56.42.58.39.6.36.61.33.63.3.65.26.66.25.67.19.68.17.68.13c.23,0,.46.08.69.1l.69.1h1.88l.71-.1.69-.09c.23,0,.45-.09.68-.15l.62-.13h.1l.2-.09c.31-.09.62-.2.92-.31l.65-.26.64-.29c.21-.1.41-.21.61-.32s.41-.23.61-.35l.59-.38.57-.41.54-.44.52-.45c.17-.16.33-.33.49-.5s.32-.33.48-.5l.44-.54.43-.56.39-.58.36-.6c.11-.2.22-.41.32-.62l.31-.62c.08-.21.17-.43.25-.65s.17-.44.25-.66.13-.44.19-.66.12-.45.18-.68.09-.46.13-.69.07-.46.1-.69.07-.47.09-.7,0-.46,0-.69a1.22,1.22,0,0,0,0-.27c0-.24,0-.47,0-.71v-.21l-.09-.71c0-.23-.06-.46-.1-.69s-.09-.46-.15-.69-.08-.41-.13-.61v-.1l-.09-.2c-.09-.31-.19-.61-.31-.91s-.17-.44-.26-.66-.18-.42-.28-.63-.21-.41-.33-.62-.22-.4-.34-.6-.25-.39-.38-.58L122,925l-.44-.54c-.15-.18-.31-.35-.47-.53s-.32-.33-.49-.49-.34-.32-.51-.48l-.54-.44c-.18-.15-.37-.29-.56-.42s-.39-.27-.59-.4l-.6-.36c-.2-.11-.4-.22-.61-.32l-.63-.31c-.22-.1-.43-.18-.65-.26l-.65-.25-.67-.19-.68-.18-.68-.13c-.23,0-.47-.08-.7-.1l-.69-.1h-1Z"/><path class="cls-3" d="M110.84,919.54h-.91l-.71.1-.69.09-.69.15-.61.13h-.1l-.2.09c-.31.09-.61.2-.91.31l-.65.26-.64.29-.62.32-.6.35c-.2.12-.39.25-.58.38l-.57.41-.54.44-.52.47c-.17.16-.33.32-.49.49s-.33.34-.48.51l-.44.54-.43.56-.39.58-.36.59-.33.63c-.1.21-.2.41-.29.62s-.19.44-.27.66-.16.43-.24.65-.14.44-.2.67-.12.45-.17.67-.09.46-.13.69-.07.46-.1.69-.07.47-.1.7v1.65a1.62,1.62,0,0,1,0,.22l.09.69c0,.24.06.47.1.71s.09.46.15.69.08.41.13.62v.09l.09.2c.09.31.2.62.31.92s.17.43.26.65.18.42.28.63.21.42.32.61.23.41.35.61.25.4.38.59l.4.57.44.54c.15.18.31.35.47.52l.49.49.51.48.54.45.56.42.58.39.6.36.61.33.63.3.65.26.66.25.67.19.68.17.68.13c.23,0,.46.08.69.1l.69.1h1.88l.71-.1.69-.09c.23,0,.45-.09.68-.15l.62-.13h.1l.2-.09c.31-.09.62-.2.92-.31l.65-.26.64-.29c.21-.1.41-.21.61-.32s.41-.23.61-.35l.59-.38.57-.41.54-.44.52-.45c.17-.16.33-.33.49-.5s.32-.33.48-.5l.44-.54.43-.56.39-.58.36-.6c.11-.2.22-.41.32-.62l.31-.62c.08-.21.17-.43.25-.65s.17-.44.25-.66.13-.44.19-.66.12-.45.18-.68.09-.46.13-.69.07-.46.1-.69.07-.47.09-.7,0-.46,0-.69a1.22,1.22,0,0,0,0-.27c0-.24,0-.47,0-.71v-.21l-.09-.71c0-.23-.06-.46-.1-.69s-.09-.46-.15-.69-.08-.41-.13-.61v-.1l-.09-.2c-.09-.31-.19-.61-.31-.91s-.17-.44-.26-.66-.18-.42-.28-.63-.21-.41-.33-.62-.22-.4-.34-.6-.25-.39-.38-.58L122,925l-.44-.54c-.15-.18-.31-.35-.47-.53s-.32-.33-.49-.49-.34-.32-.51-.48l-.54-.44c-.18-.15-.37-.29-.56-.42s-.39-.27-.59-.4l-.6-.36c-.2-.11-.4-.22-.61-.32l-.63-.31c-.22-.1-.43-.18-.65-.26l-.65-.25-.67-.19-.68-.18-.68-.13c-.23,0-.47-.08-.7-.1l-.69-.1h-1Z"/><path class="cls-3" d="M110.84,919.54h-.91l-.71.1-.69.09-.69.15-.61.13h-.1l-.2.09c-.31.09-.61.2-.91.31l-.65.26-.64.29-.62.32-.6.35c-.2.12-.39.25-.58.38l-.57.41-.54.44-.52.47c-.17.16-.33.32-.49.49s-.33.34-.48.51l-.44.54-.43.56-.39.58-.36.59-.33.63c-.1.21-.2.41-.29.62s-.19.44-.27.66-.16.43-.24.65-.14.44-.2.67-.12.45-.17.67-.09.46-.13.69-.07.46-.1.69-.07.47-.1.7v1.65a1.62,1.62,0,0,1,0,.22l.09.69c0,.24.06.47.1.71s.09.46.15.69.08.41.13.62v.09l.09.2c.09.31.2.62.31.92s.17.43.26.65.18.42.28.63.21.42.32.61.23.41.35.61.25.4.38.59l.4.57.44.54c.15.18.31.35.47.52l.49.49.51.48.54.45.56.42.58.39.6.36.61.33.63.3.65.26.66.25.67.19.68.17.68.13c.23,0,.46.08.69.1l.69.1h1.88l.71-.1.69-.09c.23,0,.45-.09.68-.15l.62-.13h.1l.2-.09c.31-.09.62-.2.92-.31l.65-.26.64-.29c.21-.1.41-.21.61-.32s.41-.23.61-.35l.59-.38.57-.41.54-.44.52-.45c.17-.16.33-.33.49-.5s.32-.33.48-.5l.44-.54.43-.56.39-.58.36-.6c.11-.2.22-.41.32-.62l.31-.62c.08-.21.17-.43.25-.65s.17-.44.25-.66.13-.44.19-.66.12-.45.18-.68.09-.46.13-.69.07-.46.1-.69.07-.47.09-.7,0-.46,0-.69a1.22,1.22,0,0,0,0-.27c0-.24,0-.47,0-.71v-.21l-.09-.71c0-.23-.06-.46-.1-.69s-.09-.46-.15-.69-.08-.41-.13-.61v-.1l-.09-.2c-.09-.31-.19-.61-.31-.91s-.17-.44-.26-.66-.18-.42-.28-.63-.21-.41-.33-.62-.22-.4-.34-.6-.25-.39-.38-.58L122,925l-.44-.54c-.15-.18-.31-.35-.47-.53s-.32-.33-.49-.49-.34-.32-.51-.48l-.54-.44c-.18-.15-.37-.29-.56-.42s-.39-.27-.59-.4l-.6-.36c-.2-.11-.4-.22-.61-.32l-.63-.31c-.22-.1-.43-.18-.65-.26l-.65-.25-.67-.19-.68-.18-.68-.13c-.23,0-.47-.08-.7-.1l-.69-.1h-1Z"/><path class="cls-3" d="M110.84,919.54h-.91l-.71.1-.69.09-.69.15-.61.13h-.1l-.2.09c-.31.09-.61.2-.91.31l-.65.26-.64.29-.62.32-.6.35c-.2.12-.39.25-.58.38l-.57.41-.54.44-.52.47c-.17.16-.33.32-.49.49s-.33.34-.48.51l-.44.54-.43.56-.39.58-.36.59-.33.63c-.1.21-.2.41-.29.62s-.19.44-.27.66-.16.43-.24.65-.14.44-.2.67-.12.45-.17.67-.09.46-.13.69-.07.46-.1.69-.07.47-.1.7v1.65a1.62,1.62,0,0,1,0,.22l.09.69c0,.24.06.47.1.71s.09.46.15.69.08.41.13.62v.09l.09.2c.09.31.2.62.31.92s.17.43.26.65.18.42.28.63.21.42.32.61.23.41.35.61.25.4.38.59l.4.57.44.54c.15.18.31.35.47.52l.49.49.51.48.54.45.56.42.58.39.6.36.61.33.63.3.65.26.66.25.67.19.68.17.68.13c.23,0,.46.08.69.1l.69.1h1.88l.71-.1.69-.09c.23,0,.45-.09.68-.15l.62-.13h.1l.2-.09c.31-.09.62-.2.92-.31l.65-.26.64-.29c.21-.1.41-.21.61-.32s.41-.23.61-.35l.59-.38.57-.41.54-.44.52-.45c.17-.16.33-.33.49-.5s.32-.33.48-.5l.44-.54.43-.56.39-.58.36-.6c.11-.2.22-.41.32-.62l.31-.62c.08-.21.17-.43.25-.65s.17-.44.25-.66.13-.44.19-.66.12-.45.18-.68.09-.46.13-.69.07-.46.1-.69.07-.47.09-.7,0-.46,0-.69a1.22,1.22,0,0,0,0-.27c0-.24,0-.47,0-.71v-.21l-.09-.71c0-.23-.06-.46-.1-.69s-.09-.46-.15-.69-.08-.41-.13-.61v-.1l-.09-.2c-.09-.31-.19-.61-.31-.91s-.17-.44-.26-.66-.18-.42-.28-.63-.21-.41-.33-.62-.22-.4-.34-.6-.25-.39-.38-.58L122,925l-.44-.54c-.15-.18-.31-.35-.47-.53s-.32-.33-.49-.49-.34-.32-.51-.48l-.54-.44c-.18-.15-.37-.29-.56-.42s-.39-.27-.59-.4l-.6-.36c-.2-.11-.4-.22-.61-.32l-.63-.31c-.22-.1-.43-.18-.65-.26l-.65-.25-.67-.19-.68-.18-.68-.13c-.23,0-.47-.08-.7-.1l-.69-.1h-1Z"/><path class="cls-3" d="M110.84,919.54h-.91l-.71.1-.69.09-.69.15-.61.13h-.1l-.2.09c-.31.09-.61.2-.91.31l-.65.26-.64.29-.62.32-.6.35c-.2.12-.39.25-.58.38l-.57.41-.54.44-.52.47c-.17.16-.33.32-.49.49s-.33.34-.48.51l-.44.54-.43.56-.39.58-.36.59-.33.63c-.1.21-.2.41-.29.62s-.19.44-.27.66-.16.43-.24.65-.14.44-.2.67-.12.45-.17.67-.09.46-.13.69-.07.46-.1.69-.07.47-.1.7v1.65a1.62,1.62,0,0,1,0,.22l.09.69c0,.24.06.47.1.71s.09.46.15.69.08.41.13.62v.09l.09.2c.09.31.2.62.31.92s.17.43.26.65.18.42.28.63.21.42.32.61.23.41.35.61.25.4.38.59l.4.57.44.54c.15.18.31.35.47.52l.49.49.51.48.54.45.56.42.58.39.6.36.61.33.63.3.65.26.66.25.67.19.68.17.68.13c.23,0,.46.08.69.1l.69.1h1.88l.71-.1.69-.09c.23,0,.45-.09.68-.15l.62-.13h.1l.2-.09c.31-.09.62-.2.92-.31l.65-.26.64-.29c.21-.1.41-.21.61-.32s.41-.23.61-.35l.59-.38.57-.41.54-.44.52-.45c.17-.16.33-.33.49-.5s.32-.33.48-.5l.44-.54.43-.56.39-.58.36-.6c.11-.2.22-.41.32-.62l.31-.62c.08-.21.17-.43.25-.65s.17-.44.25-.66.13-.44.19-.66.12-.45.18-.68.09-.46.13-.69.07-.46.1-.69.07-.47.09-.7,0-.46,0-.69a1.22,1.22,0,0,0,0-.27c0-.24,0-.47,0-.71v-.21l-.09-.71c0-.23-.06-.46-.1-.69s-.09-.46-.15-.69-.08-.41-.13-.61v-.1l-.09-.2c-.09-.31-.19-.61-.31-.91s-.17-.44-.26-.66-.18-.42-.28-.63-.21-.41-.33-.62-.22-.4-.34-.6-.25-.39-.38-.58L122,925l-.44-.54c-.15-.18-.31-.35-.47-.53s-.32-.33-.49-.49-.34-.32-.51-.48l-.54-.44c-.18-.15-.37-.29-.56-.42s-.39-.27-.59-.4l-.6-.36c-.2-.11-.4-.22-.61-.32l-.63-.31c-.22-.1-.43-.18-.65-.26l-.65-.25-.67-.19-.68-.18-.68-.13c-.23,0-.47-.08-.7-.1l-.69-.1h-1Z"/><path class="cls-3" d="M110.84,919.54h-.91l-.71.1-.69.09-.69.15-.61.13h-.1l-.2.09c-.31.09-.61.2-.91.31l-.65.26-.64.29-.62.32-.6.35c-.2.12-.39.25-.58.38l-.57.41-.54.44-.52.47c-.17.16-.33.32-.49.49s-.33.34-.48.51l-.44.54-.43.56-.39.58-.36.59-.33.63c-.1.21-.2.41-.29.62s-.19.44-.27.66-.16.43-.24.65-.14.44-.2.67-.12.45-.17.67-.09.46-.13.69-.07.46-.1.69-.07.47-.1.7v1.65a1.62,1.62,0,0,1,0,.22l.09.69c0,.24.06.47.1.71s.09.46.15.69.08.41.13.62v.09l.09.2c.09.31.2.62.31.92s.17.43.26.65.18.42.28.63.21.42.32.61.23.41.35.61.25.4.38.59l.4.57.44.54c.15.18.31.35.47.52l.49.49.51.48.54.45.56.42.58.39.6.36.61.33.63.3.65.26.66.25.67.19.68.17.68.13c.23,0,.46.08.69.1l.69.1h1.88l.71-.1.69-.09c.23,0,.45-.09.68-.15l.62-.13h.1l.2-.09c.31-.09.62-.2.92-.31l.65-.26.64-.29c.21-.1.41-.21.61-.32s.41-.23.61-.35l.59-.38.57-.41.54-.44.52-.45c.17-.16.33-.33.49-.5s.32-.33.48-.5l.44-.54.43-.56.39-.58.36-.6c.11-.2.22-.41.32-.62l.31-.62c.08-.21.17-.43.25-.65s.17-.44.25-.66.13-.44.19-.66.12-.45.18-.68.09-.46.13-.69.07-.46.1-.69.07-.47.09-.7,0-.46,0-.69a1.22,1.22,0,0,0,0-.27c0-.24,0-.47,0-.71v-.21l-.09-.71c0-.23-.06-.46-.1-.69s-.09-.46-.15-.69-.08-.41-.13-.61v-.1l-.09-.2c-.09-.31-.19-.61-.31-.91s-.17-.44-.26-.66-.18-.42-.28-.63-.21-.41-.33-.62-.22-.4-.34-.6-.25-.39-.38-.58L122,925l-.44-.54c-.15-.18-.31-.35-.47-.53s-.32-.33-.49-.49-.34-.32-.51-.48l-.54-.44c-.18-.15-.37-.29-.56-.42s-.39-.27-.59-.4l-.6-.36c-.2-.11-.4-.22-.61-.32l-.63-.31c-.22-.1-.43-.18-.65-.26l-.65-.25-.67-.19-.68-.18-.68-.13c-.23,0-.47-.08-.7-.1l-.69-.1h-1Z"/><path class="cls-3" d="M110.84,919.54h-.91l-.71.1-.69.09-.69.15-.61.13h-.1l-.2.09c-.31.09-.61.2-.91.31l-.65.26-.64.29-.62.32-.6.35c-.2.12-.39.25-.58.38l-.57.41-.54.44-.52.47c-.17.16-.33.32-.49.49s-.33.34-.48.51l-.44.54-.43.56-.39.58-.36.59-.33.63c-.1.21-.2.41-.29.62s-.19.44-.27.66-.16.43-.24.65-.14.44-.2.67-.12.45-.17.67-.09.46-.13.69-.07.46-.1.69-.07.47-.1.7v1.65a1.62,1.62,0,0,1,0,.22l.09.69c0,.24.06.47.1.71s.09.46.15.69.08.41.13.62v.09l.09.2c.09.31.2.62.31.92s.17.43.26.65.18.42.28.63.21.42.32.61.23.41.35.61.25.4.38.59l.4.57.44.54c.15.18.31.35.47.52l.49.49.51.48.54.45.56.42.58.39.6.36.61.33.63.3.65.26.66.25.67.19.68.17.68.13c.23,0,.46.08.69.1l.69.1h1.88l.71-.1.69-.09c.23,0,.45-.09.68-.15l.62-.13h.1l.2-.09c.31-.09.62-.2.92-.31l.65-.26.64-.29c.21-.1.41-.21.61-.32s.41-.23.61-.35l.59-.38.57-.41.54-.44.52-.45c.17-.16.33-.33.49-.5s.32-.33.48-.5l.44-.54.43-.56.39-.58.36-.6c.11-.2.22-.41.32-.62l.31-.62c.08-.21.17-.43.25-.65s.17-.44.25-.66.13-.44.19-.66.12-.45.18-.68.09-.46.13-.69.07-.46.1-.69.07-.47.09-.7,0-.46,0-.69a1.22,1.22,0,0,0,0-.27c0-.24,0-.47,0-.71v-.21l-.09-.71c0-.23-.06-.46-.1-.69s-.09-.46-.15-.69-.08-.41-.13-.61v-.1l-.09-.2c-.09-.31-.19-.61-.31-.91s-.17-.44-.26-.66-.18-.42-.28-.63-.21-.41-.33-.62-.22-.4-.34-.6-.25-.39-.38-.58L122,925l-.44-.54c-.15-.18-.31-.35-.47-.53s-.32-.33-.49-.49-.34-.32-.51-.48l-.54-.44c-.18-.15-.37-.29-.56-.42s-.39-.27-.59-.4l-.6-.36c-.2-.11-.4-.22-.61-.32l-.63-.31c-.22-.1-.43-.18-.65-.26l-.65-.25-.67-.19-.68-.18-.68-.13c-.23,0-.47-.08-.7-.1l-.69-.1h-1Z"/><path class="cls-3" d="M110.84,919.54h-.91l-.71.1-.69.09-.69.15-.61.13h-.1l-.2.09c-.31.09-.61.2-.91.31l-.65.26-.64.29-.62.32-.6.35c-.2.12-.39.25-.58.38l-.57.41-.54.44-.52.47c-.17.16-.33.32-.49.49s-.33.34-.48.51l-.44.54-.43.56-.39.58-.36.59-.33.63c-.1.21-.2.41-.29.62s-.19.44-.27.66-.16.43-.24.65-.14.44-.2.67-.12.45-.17.67-.09.46-.13.69-.07.46-.1.69-.07.47-.1.7v1.65a1.62,1.62,0,0,1,0,.22l.09.69c0,.24.06.47.1.71s.09.46.15.69.08.41.13.62v.09l.09.2c.09.31.2.62.31.92s.17.43.26.65.18.42.28.63.21.42.32.61.23.41.35.61.25.4.38.59l.4.57.44.54c.15.18.31.35.47.52l.49.49.51.48.54.45.56.42.58.39.6.36.61.33.63.3.65.26.66.25.67.19.68.17.68.13c.23,0,.46.08.69.1l.69.1h1.88l.71-.1.69-.09c.23,0,.45-.09.68-.15l.62-.13h.1l.2-.09c.31-.09.62-.2.92-.31l.65-.26.64-.29c.21-.1.41-.21.61-.32s.41-.23.61-.35l.59-.38.57-.41.54-.44.52-.45c.17-.16.33-.33.49-.5s.32-.33.48-.5l.44-.54.43-.56.39-.58.36-.6c.11-.2.22-.41.32-.62l.31-.62c.08-.21.17-.43.25-.65s.17-.44.25-.66.13-.44.19-.66.12-.45.18-.68.09-.46.13-.69.07-.46.1-.69.07-.47.09-.7,0-.46,0-.69a1.22,1.22,0,0,0,0-.27c0-.24,0-.47,0-.71v-.21l-.09-.71c0-.23-.06-.46-.1-.69s-.09-.46-.15-.69-.08-.41-.13-.61v-.1l-.09-.2c-.09-.31-.19-.61-.31-.91s-.17-.44-.26-.66-.18-.42-.28-.63-.21-.41-.33-.62-.22-.4-.34-.6-.25-.39-.38-.58L122,925l-.44-.54c-.15-.18-.31-.35-.47-.53s-.32-.33-.49-.49-.34-.32-.51-.48l-.54-.44c-.18-.15-.37-.29-.56-.42s-.39-.27-.59-.4l-.6-.36c-.2-.11-.4-.22-.61-.32l-.63-.31c-.22-.1-.43-.18-.65-.26l-.65-.25-.67-.19-.68-.18-.68-.13c-.23,0-.47-.08-.7-.1l-.69-.1h-1Z"/><path class="cls-3" d="M110.84,919.54h-.91l-.71.1-.69.09-.69.15-.61.13h-.1l-.2.09c-.31.09-.61.2-.91.31l-.65.26-.64.29-.62.32-.6.35c-.2.12-.39.25-.58.38l-.57.41-.54.44-.52.47c-.17.16-.33.32-.49.49s-.33.34-.48.51l-.44.54-.43.56-.39.58-.36.59-.33.63c-.1.21-.2.41-.29.62s-.19.44-.27.66-.16.43-.24.65-.14.44-.2.67-.12.45-.17.67-.09.46-.13.69-.07.46-.1.69-.07.47-.1.7v1.65a1.62,1.62,0,0,1,0,.22l.09.69c0,.24.06.47.1.71s.09.46.15.69.08.41.13.62v.09l.09.2c.09.31.2.62.31.92s.17.43.26.65.18.42.28.63.21.42.32.61.23.41.35.61.25.4.38.59l.4.57.44.54c.15.18.31.35.47.52l.49.49.51.48.54.45.56.42.58.39.6.36.61.33.63.3.65.26.66.25.67.19.68.17.68.13c.23,0,.46.08.69.1l.69.1h1.88l.71-.1.69-.09c.23,0,.45-.09.68-.15l.62-.13h.1l.2-.09c.31-.09.62-.2.92-.31l.65-.26.64-.29c.21-.1.41-.21.61-.32s.41-.23.61-.35l.59-.38.57-.41.54-.44.52-.45c.17-.16.33-.33.49-.5s.32-.33.48-.5l.44-.54.43-.56.39-.58.36-.6c.11-.2.22-.41.32-.62l.31-.62c.08-.21.17-.43.25-.65s.17-.44.25-.66.13-.44.19-.66.12-.45.18-.68.09-.46.13-.69.07-.46.1-.69.07-.47.09-.7,0-.46,0-.69a1.22,1.22,0,0,0,0-.27c0-.24,0-.47,0-.71v-.21l-.09-.71c0-.23-.06-.46-.1-.69s-.09-.46-.15-.69-.08-.41-.13-.61v-.1l-.09-.2c-.09-.31-.19-.61-.31-.91s-.17-.44-.26-.66-.18-.42-.28-.63-.21-.41-.33-.62-.22-.4-.34-.6-.25-.39-.38-.58L122,925l-.44-.54c-.15-.18-.31-.35-.47-.53s-.32-.33-.49-.49-.34-.32-.51-.48l-.54-.44c-.18-.15-.37-.29-.56-.42s-.39-.27-.59-.4l-.6-.36c-.2-.11-.4-.22-.61-.32l-.63-.31c-.22-.1-.43-.18-.65-.26l-.65-.25-.67-.19-.68-.18-.68-.13c-.23,0-.47-.08-.7-.1l-.69-.1h-1Z"/><path class="cls-2" d="M448.32,1188.42v56.38h60.93v44.83H448.32V1346h73.21c24,0,44.11-20.17,44.11-44.12v-69.35c0-24-20.15-44.12-44.11-44.12Z"/><path class="cls-4" d="M485.63,1216.61h35.9a15.88,15.88,0,0,1,15.92,15.92v69.37a15.88,15.88,0,0,1-15.92,15.92h-35.9Z"/><path class="cls-2" d="M448.32,1209.56v14.1h73.21a8.7,8.7,0,0,1,8.87,8.88v69.35a8.7,8.7,0,0,1-8.87,8.88H448.32v14.1h73.21a23.08,23.08,0,0,0,23-23v-69.35a23.08,23.08,0,0,0-23-23Z"/><rect class="cls-2" x="345.68" y="1216.61" width="14.1" height="50.6"/><rect class="cls-2" x="478.58" y="1216.61" width="14.1" height="101.21"/><path class="cls-1" d="M566.88,1376.86c21.94,81.88,25.82,205.59-7.86,214.62s-92.18-100-114.12-181.93,9.73-107.9,34.67-114.58,65.37,0,87.31,81.89Z"/><path class="cls-2" d="M442.27,1458.68c11.12,29.77,25.15,59.66,40.13,84.92,11.29,19,23,35.37,35.4,47.43s27.56,22.35,45.79,17.47,26.15-21.37,30.89-38,6.68-36.65,6.94-58.78c.35-29.36-2.44-62.26-7.7-93.59l-34.26,9.18c4.54,28.4,7,58.27,6.72,84-.23,20.16-2.26,37.89-5.58,49.54-2.49,8.73-5.47,12.24-6.22,13.29-1.18-.54-5.53-2.08-12-8.4-8.69-8.43-19.33-22.76-29.61-40.11-13.14-22.14-25.92-49.25-36.18-76.12Z"/><path class="cls-2" d="M475,1278a71.58,71.58,0,0,0-46.3,38.59c-10.7,22.66-12.48,54.13-.84,97.56a508.11,508.11,0,0,0,18,54l34.33-9.2a478.77,478.77,0,0,1-18.29-53.9c-10.3-38.44-7.22-60.93-1.33-73.41s14.8-17.23,23.55-19.58,18.82-2.68,30.16,5.19,25.26,25.8,35.56,64.24A479,479,0,0,1,561,1437.25l34.32-9.2a508.19,508.19,0,0,0-11.39-55.75c-11.64-43.44-28.92-69.8-49.51-84.08A71.52,71.52,0,0,0,475,1278Z"/><path class="cls-1" d="M895.77,1409.55c-21.94,81.88-80.43,191-114.12,181.93s-29.8-132.74-7.86-214.62,62.37-88.57,87.31-81.89,56.61,32.7,34.67,114.58Z"/><path class="cls-2" d="M747,1418.1c-5.26,31.34-8.05,64.24-7.71,93.6.26,22.13,2.2,42.13,6.94,58.77s12.7,33.15,30.92,38,33.34-5.44,45.77-17.48,24.11-28.42,35.4-47.45c15-25.25,29-55.14,40.13-84.9l-34.27-9.18c-10.25,26.86-23,54-36.18,76.11-10.29,17.35-20.9,31.69-29.6,40.11-6.52,6.32-10.86,7.87-12,8.4-.75-1-3.74-4.56-6.23-13.29-3.31-11.64-5.36-29.38-5.59-49.54-.31-25.74,2.18-55.61,6.73-84Z"/><path class="cls-2" d="M865.67,1278a71.56,71.56,0,0,0-59.39,10.26c-20.59,14.28-37.87,40.64-49.51,84.08a507.71,507.71,0,0,0-11.39,55.75l34.32,9.2a476.87,476.87,0,0,1,11.12-55.83c10.3-38.44,24.21-56.38,35.55-64.24s21.43-7.52,30.18-5.18,17.64,7.09,23.52,19.57,9,35-1.32,73.41a478.91,478.91,0,0,1-18.29,53.91l34.33,9.19a509.63,509.63,0,0,0,18-54c11.64-43.43,9.86-74.9-.84-97.56A71.5,71.5,0,0,0,865.67,1278Z"/><path class="cls-1" d="M222.89,1036.39c-84.77,0-205.27-28.27-205.27-63.14s120.5-63.14,205.27-63.14,101.7,37.33,101.7,63.14-16.93,63.14-101.7,63.14Z"/><path class="cls-2" d="M176.12,894.86c-31.64,3-64.14,8.84-92.42,16.78-21.3,6-40.11,13-55,21.92S0,954.39,0,973.26s13.88,30.8,28.73,39.69,33.68,15.93,55,21.91c28.28,7.93,60.78,13.75,92.41,16.78v-35.47c-28.61-2.95-58.11-8.29-82.89-15.24-19.42-5.45-36-12-46.41-18.21-7.79-4.67-10.41-8.46-11.23-9.46.82-1,3.44-4.8,11.23-9.46,10.39-6.22,27-12.78,46.41-18.22,24.78-7,54.28-12.29,82.89-15.25Z"/><path class="cls-2" d="M342.21,973.26a71.59,71.59,0,0,0-25.29-54.71c-19.13-16.19-49.06-26.06-94-26.06a509.59,509.59,0,0,0-56.81,3.42v35.54a479.37,479.37,0,0,1,56.81-3.71c39.79,0,60.72,8.79,71.25,17.71S307,964.2,307,973.26s-2.28,18.87-12.81,27.79-31.46,17.72-71.25,17.72a479.37,479.37,0,0,1-56.81-3.71v35.53A509.59,509.59,0,0,0,222.9,1054c45,0,74.89-9.86,94-26.06a71.54,71.54,0,0,0,25.29-54.69Z"/><path class="cls-2" d="M670.32,475.34C397.6,475.34,175.91,697,175.91,969.76a494.51,494.51,0,0,0,167.4,370.82h0c1.62,1.42,3.24,2.82,4.88,4.23l.12.13.68.58c107,92.71,209.29,124,308.7,174l12.66,6.36,12.66-6.36c99.41-50,201.71-81.25,308.68-174,1.9-1.63,3.8-3.27,5.68-4.93a494.43,494.43,0,0,0,167.39-370.82c0-267.15-212.87-484.77-477.91-493.58l-.51-.85Zm-.34,56.4h.36c242.25,0,438,195.78,438,438a438,438,0,0,1-148.3,328.53q-2.55,2.23-5.12,4.44l-.15.12c-94.2,81.64-185,111.64-284.46,160.25-99.37-48.57-190.13-78.57-284.24-160.06l-.4-.35c-1.71-1.46-3.4-2.93-5.09-4.42h0A438,438,0,0,1,232.3,969.76c0-242.14,195.6-437.83,437.68-438Z"/><path class="cls-2" d="M469.51,98a61.43,61.43,0,0,0-35,8.08c-29.08,16.79-39.52,54.79-22.26,83.78l-.76-1.37a1136.4,1136.4,0,0,1,90.21,231.92,1150.33,1150.33,0,0,1-3.41,608.36l-7.68,27.45,117.45,31.47,7.51-26.86A1271.94,1271.94,0,0,0,619.18,389,1296.64,1296.64,0,0,0,518.66,129.73l-.18-.34-.18-.34A60.5,60.5,0,0,0,481.13,100h0A60.43,60.43,0,0,0,469.51,98Zm-3.05,56.39h0a3.45,3.45,0,0,1,2.36,1.81,1239.65,1239.65,0,0,1,95.85,247.32c55,205.45,53.71,416.77,3.2,615l-8.5-2.28c50.14-196.93,51.37-406.77-3.21-610.46a1192.53,1192.53,0,0,0-94.7-243.43l-.37-.7-.4-.67c-1.14-1.92-.69-4.55,2-6.11a4.59,4.59,0,0,1,3.72-.51Z"/><path class="cls-2" d="M854.53,98A60.43,60.43,0,0,0,842.92,100s0,0,0,0a60.53,60.53,0,0,0-37.16,29.09l-.19.33-.17.34A1296.72,1296.72,0,0,0,704.86,389a1271.91,1271.91,0,0,0,3.59,671.88l7.5,26.86,117.45-31.47-7.68-27.45a1150.22,1150.22,0,0,1-3.41-608.36A1136.63,1136.63,0,0,1,912.52,188.5l-.76,1.38c17.26-29,6.82-67-22.26-83.78a61.36,61.36,0,0,0-35-8.07Zm3.05,56.39a4.67,4.67,0,0,1,3.72.51c2.7,1.56,3.15,4.18,2,6.11l-.4.67-.36.7a1192.79,1192.79,0,0,0-94.71,243.43c-54.58,203.69-53.35,413.53-3.2,610.45l-8.51,2.29c-50.51-198.25-51.85-409.56,3.2-615a1239.19,1239.19,0,0,1,95.85-247.32,3.44,3.44,0,0,1,2.36-1.82h0Z"/><path class="cls-2" d="M725.23.33a60.77,60.77,0,0,0-50.14,38.05l-.14.36-.13.36A1296,1296,0,0,0,609,309.24a1272.05,1272.05,0,0,0,117.2,722.6l8.89,18.28,128-16.85L845,997.73A1150.74,1150.74,0,0,1,729.54,325.1,1136,1136,0,0,1,788.72,83.39l-.58,1.46c13.33-31-2-67.31-33-80.16A61.36,61.36,0,0,0,725.24.33Zm5.92,56.08h0a4.7,4.7,0,0,1,2.4.37h0c2.88,1.19,3.68,3.73,2.79,5.79l-.31.72-.27.73a1192.59,1192.59,0,0,0-62.12,253.72A1206.92,1206.92,0,0,0,777.45,987.66l-9,1.19A1215.17,1215.17,0,0,1,664.91,316.59a1239.49,1239.49,0,0,1,62.73-257.7,3.93,3.93,0,0,1,3.51-2.49Z"/><path class="cls-5" d="M493.6,142.67A1268.13,1268.13,0,0,1,592,396.26a1243.67,1243.67,0,0,1-3.51,657l-63-16.88A1178.59,1178.59,0,0,0,529,413.13a1165,1165,0,0,0-92.46-237.68c-9.21-15.45-3.76-35.77,12.13-44.94a33,33,0,0,1,25.16-3.32,31.92,31.92,0,0,1,19.8,15.48Z"/><path class="cls-6" d="M601.66,435.09A552.52,552.52,0,0,0,537.48,447a1178.53,1178.53,0,0,1-12,589.35l63,16.87a1243.42,1243.42,0,0,0,13.22-618.16Z"/><path class="cls-2" d="M468,119.11a40.12,40.12,0,0,0-22.92,5.29c-19.18,11.08-25.87,35.81-14.66,54.65l-.19-.34A1158,1158,0,0,1,522.16,415a1171.59,1171.59,0,0,1-3.47,619.53l-1.92,6.87,76.58,20.51,1.88-6.71a1250.58,1250.58,0,0,0,3.52-660.72,1274.7,1274.7,0,0,0-98.88-255l-.05-.09,0-.08a39.1,39.1,0,0,0-24.16-18.88A39.61,39.61,0,0,0,468,119.1Zm-6,14.18a26.15,26.15,0,0,1,9.94.7h0a24.9,24.9,0,0,1,15.45,12,1260.84,1260.84,0,0,1,97.72,252,1236.23,1236.23,0,0,1-1.84,646.5L534,1031.36a1185.38,1185.38,0,0,0,1.81-620.06,1171.16,1171.16,0,0,0-93-239.11l-.09-.18-.1-.17c-7.19-12.07-3-28,9.59-35.24a26.12,26.12,0,0,1,9.86-3.31Z"/><path class="cls-5" d="M830.43,142.66a1268.38,1268.38,0,0,0-98.33,253.6,1243.53,1243.53,0,0,0,3.5,657l63-16.87a1178.59,1178.59,0,0,1-3.5-623.25,1165.62,1165.62,0,0,1,92.46-237.68c9.2-15.45,3.76-35.77-12.13-44.94a33,33,0,0,0-25.16-3.32,32,32,0,0,0-19.81,15.47Z"/><path class="cls-6" d="M722.8,433.32a1243.52,1243.52,0,0,0,12.8,619.93l63-16.87a1178.44,1178.44,0,0,1-11.13-593,553.5,553.5,0,0,0-64.64-10.07Z"/><path class="cls-2" d="M856,119.11a40.49,40.49,0,0,0-7.6,1.27,39.13,39.13,0,0,0-24.15,18.89l0,.08-.05.08a1274.7,1274.7,0,0,0-98.88,255,1250.68,1250.68,0,0,0,3.52,660.72l1.88,6.72,76.58-20.52-1.92-6.87A1171.59,1171.59,0,0,1,801.88,415a1157.69,1157.69,0,0,1,91.9-236.23l-.19.34c11.22-18.84,4.53-43.58-14.66-54.66A40.13,40.13,0,0,0,856,119.1Zm6,14.18a26.08,26.08,0,0,1,9.86,3.32c12.59,7.27,16.79,23.17,9.6,35.24l-.1.17-.09.17a1171.5,1171.5,0,0,0-93,239.12,1185.34,1185.34,0,0,0,1.82,620.05l-49.36,13.22a1236.2,1236.2,0,0,1-1.82-646.49,1260.81,1260.81,0,0,1,97.71-252A24.84,24.84,0,0,1,852.07,134h0a25.94,25.94,0,0,1,9.94-.71Z"/><path class="cls-5" d="M728.19,28.37a32.33,32.33,0,0,0-26.84,20.28A1268,1268,0,0,0,637,312.91a1243.91,1243.91,0,0,0,114.61,706.6l68.33-9a1179,1179,0,0,1-118.3-689.1A1164.38,1164.38,0,0,1,762.24,73.71c7.1-16.52-.94-35.95-17.9-43a33.08,33.08,0,0,0-16.15-2.36Z"/><path class="cls-6" d="M670.32,430.8q-21.66,0-43.28,1.7a1244,1244,0,0,0,124.52,587l68.33-9A1179.16,1179.16,0,0,1,692.32,431.26q-11-.43-22-.43Z"/><path class="cls-2" d="M727.45,21.36a39.43,39.43,0,0,0-32.67,24.73l0,.09,0,.08A1273.54,1273.54,0,0,0,630,312,1250.87,1250.87,0,0,0,745.22,1022.6l2.22,4.56,83.25-11-4.52-8.88a1171.82,1171.82,0,0,1-117.59-685A1157.52,1157.52,0,0,1,768.85,76.13l-.13.36c8.66-20.14-1.21-43.79-21.68-52.27a40.12,40.12,0,0,0-19.58-2.86Zm1.48,14a26,26,0,0,1,12.71,1.86h0c13.43,5.57,19.67,20.78,14.12,33.69l-.08.18-.07.18a1171.53,1171.53,0,0,0-61,249.21,1185.87,1185.87,0,0,0,114.67,684.31l-53.5,7a1236.66,1236.66,0,0,1-111.83-698,1261.37,1261.37,0,0,1,64-262.66,25.21,25.21,0,0,1,21-15.8Z"/><path class="cls-7" d="M1136.56,969.76A466.25,466.25,0,1,1,1000,640.09a466.26,466.26,0,0,1,136.56,329.67Z"/><path class="cls-1" d="M670.33,503.53a466.22,466.22,0,0,0-436.1,631.1c89.52-28.77,234.36-18.44,415.3,90.17,113.55,68.15,241.35,91.53,374.56,48.66A466.23,466.23,0,0,0,670.34,503.55Z"/><path class="cls-8" d="M590.11,523A453.43,453.43,0,0,0,520,528.44,466.2,466.2,0,0,0,232.9,1131.06c77.89,113.64,212.56,182.41,357.21,182.41,112.44,0,220.26-41.64,299.77-115.77S1014,1023.06,1014,918.23,969.38,712.88,889.88,638.76,702.55,523,590.11,523Z"/><path class="cls-9" d="M590.11,523A453.18,453.18,0,0,0,520,528.44,466.2,466.2,0,0,0,232.9,1131.06c.75,1.1,1.52,2.19,2.29,3.28,89.59-28.4,234-17.78,414.34,90.46,37.88,22.73,77.36,40.46,118.08,52.43,145.47-62.62,246.43-199.81,246.43-359C1014,700,824.24,523,590.11,523Z"/><path class="cls-7" d="M362,1319.43c104.59,92.66,204.58,122.66,308.37,174.83,103.79-52.17,203.78-82.17,308.37-174.83l-308.37,29.8Z"/><path class="cls-3" d="M670.32,1349.17a78.09,78.09,0,0,0-71.63,47,78.07,78.07,0,0,0-105.29,13.88c58.78,31.49,117.24,54.2,176.94,84.21,59.7-30,118.14-52.71,176.93-84.21A78.09,78.09,0,0,0,742,1396.19a78.09,78.09,0,0,0-71.65-47Z"/><path class="cls-8" d="M670.34,884.49a10.58,10.58,0,0,0,0,21.15A1311.8,1311.8,0,0,1,934,932.4a10.57,10.57,0,1,0,4.24-20.72,1333.34,1333.34,0,0,0-267.89-27.19Z"/><path class="cls-8" d="M670.34,1038.3a1179.72,1179.72,0,0,0-280.66,33.88,10.57,10.57,0,0,0,5,20.54,1158.21,1158.21,0,0,1,275.62-33.27,10.58,10.58,0,0,0,0-21.15Z"/><path class="cls-7" d="M597.26,1216.16c-.26,0-.53,0-.79,0a1004.89,1004.89,0,0,0-218,40.63,10.58,10.58,0,1,0,6.14,20.24A983.41,983.41,0,0,1,598,1237.28a10.57,10.57,0,0,0-.76-21.12Z"/><path class="cls-10" d="M669.45,503.53a466.25,466.25,0,0,0-434.17,298.6c91.81-91.81,275.39-89.25,432.56,9.53C793.92,890.9,962,899.75,1113.52,825a466.23,466.23,0,0,0-443.19-321.5Z"/><path class="cls-11" d="M590.1,523A453.44,453.44,0,0,0,520,528.44,466.24,466.24,0,0,0,235.28,802.13c91.81-91.81,275.39-89.25,432.56,9.53,97.84,61.49,221,80.58,342,51.14C981,670.77,804.06,523,590.11,523Z"/><path class="cls-8" d="M422.71,581.47c-3.65,0-7.3.11-10.94.32A466.31,466.31,0,0,0,231.13,813.32a195.28,195.28,0,0,0,387.1-36.58c0-107.84-87.43-195.27-195.28-195.27Z"/><path class="cls-9" d="M422.71,581.47q-5.46,0-10.91.32A465.85,465.85,0,0,0,235.28,802.13c82.27-82.26,238.2-88.75,382.8-18.16.08-2.39.15-4.81.15-7.23,0-107.84-87.43-195.27-195.28-195.27Z"/><path class="cls-2" d="M670.33,496.48c-261.3,0-473.27,212-473.27,473.28a473.28,473.28,0,0,0,160.23,355q2.61,2.31,5.27,4.57l.1.1.16.14c103.7,89.87,203,120.12,304.35,171l3.17,1.59,3.16-1.59c101.34-50.93,200.65-81.18,304.35-171h0c1.86-1.58,3.69-3.18,5.52-4.79a473.28,473.28,0,0,0,160.23-355c0-259.83-209.66-470.7-468.95-473l-.13-.24Zm-.45,14.12h.46c253.68,0,459.17,205.5,459.17,459.17a459.15,459.15,0,0,1-155.46,344.39c-1.78,1.56-3.57,3.12-5.37,4.66h0l0,0c-100.47,87.08-196.86,117-298.31,167.64C568.93,1435.91,472.59,1406,372.18,1319l0,0-.19-.15c-1.79-1.54-3.56-3.08-5.33-4.64h0A459.15,459.15,0,0,1,211.15,969.76c0-253.53,205.26-458.91,458.73-459.16Z"/><path class="cls-10" d="M861.05,758.67a10.57,10.57,0,0,0-1.37,21.05,1452.84,1452.84,0,0,1,186.11,37,10.57,10.57,0,1,0,5.47-20.42,1471.73,1471.73,0,0,0-188.82-37.56,10.7,10.7,0,0,0-1.39-.09Z"/><path class="cls-9" d="M701.57,640.17a1578.91,1578.91,0,0,0-237.22,13.19,10.58,10.58,0,0,0,2.76,21,1556.22,1556.22,0,0,1,312.2-9.5,10.57,10.57,0,1,0,1.48-21.09q-39.57-2.79-79.22-3.57Z"/><path class="cls-1" d="M952.35,1151a46.6,46.6,0,1,1-13.65-33,46.61,46.61,0,0,1,13.65,33Z"/><path class="cls-1" d="M785.77,1139.54a24.45,24.45,0,1,1-7.16-17.29,24.45,24.45,0,0,1,7.16,17.29Z"/><path class="cls-12" d="M714.54,852.59a45.86,45.86,0,0,1,46-46h266.59a45.86,45.86,0,0,1,46,46v97.6a132.41,132.41,0,0,1-132.7,132.71h-93.1A132.42,132.42,0,0,1,714.54,950.19Z"/><path class="cls-12" d="M267.61,852.59a45.86,45.86,0,0,1,46-46H580.16a45.86,45.86,0,0,1,46,46v97.6a132.41,132.41,0,0,1-132.7,132.71H400.31a132.42,132.42,0,0,1-132.7-132.71Z"/><path class="cls-3" d="M453.09,806.63,312.63,1049.91a132.2,132.2,0,0,0,87.68,33h40.34L598.07,810.22a46.14,46.14,0,0,0-17.91-3.59Z"/><path class="cls-3" d="M900,806.63,759.56,1049.91a132.21,132.21,0,0,0,87.69,33h40.32L1045,810.22a46.14,46.14,0,0,0-17.91-3.59Z"/><path class="cls-2" d="M760.5,789a63.84,63.84,0,0,0-63.58,63.59V950.2a150.38,150.38,0,0,0,150.33,150.31H902.7v-35.24H847.25A114.44,114.44,0,0,1,732.16,950.2V852.59a27.91,27.91,0,0,1,28.34-28.34H902.7V789Z"/><path class="cls-2" d="M438,789v35.24h142.2a27.89,27.89,0,0,1,28.34,28.33V950.2a114.44,114.44,0,0,1-115.08,115.07H438v35.24h55.46A150.36,150.36,0,0,0,643.73,950.2V852.59A63.81,63.81,0,0,0,580.16,789Z"/><rect class="cls-2" x="625.52" y="827.48" width="89.62" height="35.24"/><path class="cls-2" d="M1058,801.38a17.62,17.62,0,0,0-10,31.75l111.3,85.4c11.74,9,15.4,15.63,17.68,24.42s2.25,20.86,2.25,36.91a17.62,17.62,0,1,0,35.24,0c0-15.51.68-30.24-3.37-45.78s-13.81-30.81-30.35-43.51l-111.31-85.4a17.6,17.6,0,0,0-11.48-3.79Z"/><path class="cls-2" d="M282.15,801.48a17.62,17.62,0,0,0-10.95,3.79L159.9,890.69c-16.55,12.69-26.3,27.94-30.35,43.48s-3.37,30.29-3.37,45.8a17.62,17.62,0,1,0,35.24,0c0-16.05-.07-28.11,2.23-36.91s5.95-15.41,17.7-24.42l111.3-85.4a17.62,17.62,0,0,0-10.5-31.76Z"/><path class="cls-2" d="M884.89,789v35.24h142.2a27.91,27.91,0,0,1,28.34,28.34V950.2a114.44,114.44,0,0,1-115.08,115.07H884.89v35.24h55.46A150.38,150.38,0,0,0,1090.68,950.2V852.59A63.84,63.84,0,0,0,1027.09,789Z"/><path class="cls-2" d="M313.58,789A63.83,63.83,0,0,0,250,852.59V950.2a150.38,150.38,0,0,0,150.33,150.31h55.45v-35.24H400.32A114.45,114.45,0,0,1,285.23,950.2V852.59a27.9,27.9,0,0,1,28.35-28.33H455.77V789Z"/><path class="cls-13" d="M593,1097.35a16.09,16.09,0,0,0-16.12,16.13v18.19a93.44,93.44,0,1,0,186.88,0v-18.19a16.09,16.09,0,0,0-16.12-16.13Z"/><path class="cls-14" d="M670.33,1161.1a93.22,93.22,0,0,0-70.4,32,93.44,93.44,0,0,0,140.8,0,93.24,93.24,0,0,0-70.4-32Z"/><path class="cls-3" d="M593,1097.35a16.09,16.09,0,0,0-16.12,16.13v16.24a215.24,215.24,0,0,0,186.88.06v-16.3a16.09,16.09,0,0,0-16.12-16.13Z"/><path class="cls-15" d="M593,1097.35a16.09,16.09,0,0,0-16.12,16.13v16.24A217.08,217.08,0,0,0,609.54,1142c-6.37-4.29-7.59-10.25-7.59-19.61v-25Z"/><path class="cls-15" d="M713.65,1097.35v25c0,12.61-3.23,23.53-14.07,26.44a217.69,217.69,0,0,0,64.19-19v-16.3a16.09,16.09,0,0,0-16.12-16.13Z"/><path class="cls-16" d="M747.65,1097.35a16.09,16.09,0,0,1,16.12,16.13v16.24A217.49,217.49,0,0,1,731.12,1142c6.37-4.29,7.59-10.25,7.59-19.61v-25Z"/><path class="cls-2" d="M665.32,1090.3v14.1h82.32a8.91,8.91,0,0,1,9.09,9.07v18.2a86.29,86.29,0,0,1-86.4,86.4c-1.68,0-3.35-.06-5-.16V1232c1.66.08,3.33.13,5,.13a100.6,100.6,0,0,0,100.49-100.5v-18.2a23.28,23.28,0,0,0-23.18-23.17Z"/><path class="cls-2" d="M576.45,1125.89l-3.09,6.33a221.2,221.2,0,0,0,193.94,0l-3.08-6.33a214.17,214.17,0,0,1-187.77,0Z"/><path class="cls-17" d="M644.45,1175.34a19.31,19.31,0,0,0-11,3.2c-2.92,2.06-4.56,4.84-4.56,7.74,0,6,7,10.94,15.54,10.94s15.54-4.89,15.54-10.94c0-2.9-1.64-5.68-4.55-7.74a19.34,19.34,0,0,0-11-3.2Z"/><path class="cls-2" d="M593,1090.3a23.27,23.27,0,0,0-23.16,23.17v18.2a100.61,100.61,0,0,0,100.49,100.5c1.68,0,3.35-.05,5-.13v-14.13c-1.66.1-3.32.16-5,.16a86.3,86.3,0,0,1-86.4-86.4v-18.2a8.9,8.9,0,0,1,9.07-9.07h82.34v-14.1Z"/></g></g></svg>