<svg xmlns="http://www.w3.org/2000/svg" viewBox="0 0 1668.15 1389.21"><defs><style>.cls-1{fill:#fff;}.cls-2{fill:#5fd7e3;}.cls-3{fill:#1a1a1a;}.cls-4{fill:#97f2f8;}.cls-5{fill:#cefffe;}.cls-6{fill:#ff5574;}.cls-7{fill:#ff95a2;}.cls-8{fill:#b3b3b3;}.cls-9{fill:#d3d3d3;}.cls-10{fill:#7ce5ef;}.cls-11{fill:#b4ffff;}.cls-12{fill:#767676;}.cls-13{fill:#585858;}</style></defs><g id="Layer_2" data-name="Layer 2"><g id="Layer_1-2" data-name="Layer 1"><path class="cls-1" d="M732,755.83h-.94c-.25,0-.49,0-.74.09l-.71.1c-.24,0-.48.09-.71.15l-.64.14h-.1l-.21.09c-.32.1-.63.2-.94.32l-.67.27-.66.3-.64.34-.62.35-.6.4c-.2.13-.39.27-.59.42l-.55.46a12.29,12.29,0,0,0-1.05,1l-.5.52-.46.56c-.15.19-.29.39-.43.58l-.41.6c-.13.2-.25.41-.37.62s-.23.42-.34.64-.21.43-.31.65-.19.44-.28.67l-.24.67-.21.7c-.06.23-.12.46-.17.69s-.1.48-.14.71-.07.48-.1.72-.07.48-.1.72,0,.47,0,.71v.28q0,.36,0,.72a1.85,1.85,0,0,0,0,.23c0,.23.06.47.1.71s0,.48.09.72.1.48.16.71.08.43.13.65v.09a1.47,1.47,0,0,0,.1.22c.09.31.2.63.31.94l.27.67c.09.22.19.44.29.66s.22.43.34.63.23.43.36.63.25.41.39.61.27.39.42.58a6.12,6.12,0,0,0,.45.56q.24.29.48.54c.16.18.34.35.51.51l.53.5.56.46.58.43.59.41.62.37.64.34c.21.11.43.22.65.31s.44.19.66.27l.69.26.69.2c.23.06.47.13.71.18l.7.14.71.1.71.1h2l.73-.1c.24,0,.48-.06.71-.09l.71-.16.64-.13h.1l.21-.1c.32-.09.64-.2.95-.31l.67-.27.66-.31c.22-.1.43-.21.64-.33s.42-.24.62-.36.41-.25.61-.39.4-.28.59-.43.37-.29.56-.45l.54-.47.51-.51c.17-.17.33-.34.49-.52s.31-.37.46-.56l.44-.58.4-.59c.13-.21.26-.41.37-.62s.23-.43.34-.65.21-.43.31-.64l.27-.66c.09-.23.17-.46.25-.69s.14-.46.2-.69.13-.46.18-.7.1-.47.14-.71.07-.47.11-.71.07-.49.09-.72,0-.48,0-.72v-.28q0-.36,0-.72v-.22c0-.25-.06-.49-.1-.73s-.06-.48-.1-.72-.1-.47-.15-.71-.09-.43-.14-.64v-.1l-.09-.21c-.1-.32-.21-.63-.32-1s-.17-.45-.27-.67-.19-.44-.29-.65-.22-.43-.34-.64-.23-.42-.35-.63-.26-.4-.4-.59-.27-.4-.42-.59-.3-.38-.46-.56-.31-.37-.48-.55l-.51-.51c-.17-.17-.35-.33-.53-.49L741,759l-.58-.44-.61-.4-.62-.38-.63-.33c-.22-.12-.44-.22-.66-.32s-.44-.19-.66-.27l-.67-.25c-.23-.08-.47-.14-.7-.21l-.7-.17c-.24-.06-.47-.1-.71-.14l-.72-.11c-.23,0-.47-.07-.71-.09h-1Z"/><path class="cls-1" d="M732,755.83h-.94c-.25,0-.49,0-.74.09l-.71.1c-.24,0-.48.09-.71.15l-.64.14h-.1l-.21.09c-.32.1-.63.2-.94.32l-.67.27-.66.3-.64.34-.62.35-.6.4c-.2.13-.39.27-.59.42l-.55.46a12.29,12.29,0,0,0-1.05,1l-.5.52-.46.56c-.15.19-.29.39-.43.58l-.41.6c-.13.2-.25.41-.37.62s-.23.42-.34.64-.21.43-.31.65-.19.44-.28.67l-.24.67-.21.7c-.06.23-.12.46-.17.69s-.1.48-.14.71-.07.48-.1.72-.07.48-.1.72,0,.47,0,.71v.28q0,.36,0,.72a1.85,1.85,0,0,0,0,.23c0,.23.06.47.1.71s0,.49.09.73.1.48.16.71.08.43.13.64v.09a1.47,1.47,0,0,0,.1.22c.09.31.2.63.31.94l.27.67c.09.22.19.44.29.66s.22.43.34.63.23.43.36.63.25.41.39.61.27.39.42.58a6.12,6.12,0,0,0,.45.56q.24.29.48.54c.16.18.34.35.51.51l.53.5.56.46.58.43.59.41.62.37.64.34c.21.11.43.22.65.31s.44.19.66.27l.69.26.69.2.71.17c.23.05.46.1.7.13s.47.08.71.11l.71.1h2l.73-.1c.24,0,.48-.06.71-.09l.71-.16.64-.13h.1l.21-.1c.32-.09.64-.2.95-.31l.67-.27.66-.3.64-.34c.21-.11.42-.23.62-.36s.41-.25.61-.39.4-.28.59-.43.37-.29.56-.45l.54-.47.51-.51c.17-.17.33-.34.49-.52s.31-.37.46-.56l.44-.58.4-.59c.13-.21.26-.41.37-.62s.23-.43.34-.65.21-.43.31-.64l.27-.66c.09-.23.17-.46.25-.69s.14-.45.2-.69.13-.46.18-.7.1-.47.14-.71.07-.47.11-.71.07-.48.09-.72,0-.48,0-.72v-.28c0-.24,0-.48,0-.73v-.22c0-.24-.06-.49-.1-.73s-.06-.48-.1-.71-.1-.48-.15-.72-.09-.42-.14-.63v-.1l-.09-.21c-.1-.32-.21-.63-.32-1s-.17-.45-.27-.67-.19-.44-.29-.65-.22-.43-.34-.64-.23-.42-.35-.62-.26-.41-.4-.6-.27-.4-.42-.59-.3-.38-.46-.56-.31-.37-.48-.55-.33-.34-.51-.51-.35-.33-.53-.49l-.55-.46-.58-.44-.61-.4c-.2-.13-.41-.26-.62-.37l-.63-.34-.66-.32-.66-.27-.67-.25-.7-.2-.7-.19-.71-.13c-.23,0-.48-.08-.72-.1l-.71-.1h-1Z"/><path class="cls-1" d="M732,755.83h-.94c-.25,0-.49,0-.74.09l-.71.1c-.24,0-.48.09-.71.15l-.64.14h-.1l-.21.09c-.32.1-.63.2-.94.32l-.67.27-.66.3-.64.34-.62.35-.6.4c-.2.13-.39.27-.59.42l-.55.46a12.29,12.29,0,0,0-1.05,1l-.5.52-.46.56c-.15.19-.29.39-.43.58l-.41.6c-.13.2-.25.41-.37.62s-.23.42-.34.64-.21.43-.31.65-.19.44-.28.67l-.24.67-.21.7c-.06.23-.12.46-.17.69s-.1.48-.14.71-.07.48-.1.72-.07.48-.1.72,0,.47,0,.71v.28q0,.36,0,.72a1.85,1.85,0,0,0,0,.23c0,.23.06.47.1.71s0,.49.09.73.1.48.16.71.08.43.13.64v.09a1.47,1.47,0,0,0,.1.22c.09.31.2.63.31.94l.27.67c.09.22.19.44.29.66s.22.43.34.63.23.43.36.63.25.41.39.61.27.39.42.58a6.12,6.12,0,0,0,.45.56q.24.29.48.54c.16.18.34.35.51.51l.53.5.56.46.58.43.59.41.62.37.64.34c.21.11.43.22.65.31s.44.19.66.27l.69.26.69.2.71.17c.23.05.46.1.7.13s.47.08.71.11l.71.1h2l.73-.1c.24,0,.48-.06.71-.09l.71-.16.64-.13h.1l.21-.1c.32-.09.64-.2.95-.31l.67-.27.66-.3.64-.34c.21-.11.42-.23.62-.36s.41-.25.61-.39.4-.28.59-.43.37-.29.56-.45l.54-.47.51-.51c.17-.17.33-.34.49-.52s.31-.37.46-.56l.44-.58.4-.59c.13-.21.26-.41.37-.62s.23-.43.34-.65.21-.43.31-.64l.27-.66c.09-.23.17-.46.25-.69s.14-.45.2-.69.13-.46.18-.7.1-.47.14-.71.07-.47.11-.71.07-.48.09-.72,0-.48,0-.72v-.28c0-.24,0-.48,0-.73v-.22c0-.24-.06-.49-.1-.73s-.06-.48-.1-.71-.1-.48-.15-.72-.09-.42-.14-.63v-.1l-.09-.21c-.1-.32-.21-.63-.32-1s-.17-.45-.27-.67-.19-.44-.29-.65-.22-.43-.34-.64-.23-.42-.35-.62-.26-.41-.4-.6-.27-.4-.42-.59-.3-.38-.46-.56-.31-.37-.48-.55-.33-.34-.51-.51-.35-.33-.53-.49l-.55-.46-.58-.44-.61-.4c-.2-.13-.41-.26-.62-.37l-.63-.34-.66-.32-.66-.27-.67-.25-.7-.2-.7-.19-.71-.13c-.23,0-.48-.08-.72-.1l-.71-.1h-1Z"/><path class="cls-1" d="M732,755.83h-.94c-.25,0-.49,0-.74.09l-.71.1c-.24,0-.48.09-.71.15l-.64.14h-.1l-.21.09c-.32.1-.63.2-.94.32l-.67.27-.66.3-.64.34-.62.35-.6.4c-.2.13-.39.27-.59.42l-.55.46a12.29,12.29,0,0,0-1.05,1l-.5.52-.46.56c-.15.19-.29.39-.43.58l-.41.6c-.13.2-.25.41-.37.62s-.23.42-.34.64-.21.43-.31.65-.19.44-.28.67l-.24.67-.21.7c-.06.23-.12.46-.17.69s-.1.48-.14.71-.07.48-.1.72-.07.48-.1.72,0,.47,0,.71v.28q0,.36,0,.72a1.85,1.85,0,0,0,0,.23c0,.23.06.47.1.71s0,.49.09.73.1.48.16.71.08.43.13.64v.09a1.47,1.47,0,0,0,.1.22c.09.31.2.63.31.94l.27.67c.09.22.19.44.29.66s.22.43.34.63.23.43.36.63.25.41.39.61.27.39.42.58a6.12,6.12,0,0,0,.45.56q.24.29.48.54c.16.18.34.35.51.51l.53.5.56.46.58.43.59.41.62.37.64.34c.21.11.43.22.65.31s.44.19.66.27l.69.26.69.2.71.17c.23.05.46.1.7.13s.47.08.71.11l.71.1h2l.73-.1c.24,0,.48-.06.71-.09l.71-.16.64-.13h.1l.21-.1c.32-.09.64-.2.95-.31l.67-.27.66-.3.64-.34c.21-.11.42-.23.62-.36s.41-.25.61-.39.4-.28.59-.43.37-.29.56-.45l.54-.47.51-.51c.17-.17.33-.34.49-.52s.31-.37.46-.56l.44-.58.4-.59c.13-.21.26-.41.37-.62s.23-.43.34-.65.21-.43.31-.64l.27-.66c.09-.23.17-.46.25-.69s.14-.45.2-.69.13-.46.18-.7.1-.47.14-.71.07-.47.11-.71.07-.48.09-.72,0-.48,0-.72v-.28c0-.24,0-.48,0-.73v-.22c0-.24-.06-.49-.1-.73s-.06-.48-.1-.71-.1-.48-.15-.72-.09-.42-.14-.63v-.1l-.09-.21c-.1-.32-.21-.63-.32-1s-.17-.45-.27-.67-.19-.44-.29-.65-.22-.43-.34-.64-.23-.42-.35-.62-.26-.41-.4-.6-.27-.4-.42-.59-.3-.38-.46-.56-.31-.37-.48-.55-.33-.34-.51-.51-.35-.33-.53-.49l-.55-.46-.58-.44-.61-.4c-.2-.13-.41-.26-.62-.37l-.63-.34-.66-.32-.66-.27-.67-.25-.7-.2-.7-.19-.71-.13c-.23,0-.48-.08-.72-.1l-.71-.1h-1Z"/><path class="cls-1" d="M732,755.83h-.94c-.25,0-.49,0-.74.09l-.71.1c-.24,0-.48.09-.71.15l-.64.14h-.1l-.21.09c-.32.1-.63.2-.94.32l-.67.27-.66.3-.64.34-.62.35-.6.4c-.2.13-.39.27-.59.42l-.55.46a12.29,12.29,0,0,0-1.05,1l-.5.52-.46.56c-.15.19-.29.39-.43.58l-.41.6c-.13.2-.25.41-.37.62s-.23.42-.34.64-.21.43-.31.65-.19.44-.28.67l-.24.67-.21.7c-.06.23-.12.46-.17.69s-.1.48-.14.71-.07.48-.1.72-.07.48-.1.72,0,.47,0,.71v.28q0,.36,0,.72a1.85,1.85,0,0,0,0,.23c0,.23.06.47.1.71s0,.49.09.73.1.48.16.71.08.43.13.64v.09a1.47,1.47,0,0,0,.1.22c.09.31.2.63.31.94l.27.67c.09.22.19.44.29.66s.22.43.34.63.23.43.36.63.25.41.39.61.27.39.42.58a6.12,6.12,0,0,0,.45.56q.24.29.48.54c.16.18.34.35.51.51l.53.5.56.46.58.43.59.41.62.37.64.34c.21.11.43.22.65.31s.44.19.66.27l.69.26.69.2.71.17c.23.05.46.1.7.13s.47.08.71.11l.71.1h2l.73-.1c.24,0,.48-.06.71-.09l.71-.16.64-.13h.1l.21-.1c.32-.09.64-.2.95-.31l.67-.27.66-.3.64-.34c.21-.11.42-.23.62-.36s.41-.25.61-.39.4-.28.59-.43.37-.29.56-.45l.54-.47.51-.51c.17-.17.33-.34.49-.52s.31-.37.46-.56l.44-.58.4-.59c.13-.21.26-.41.37-.62s.23-.43.34-.65.21-.43.31-.64l.27-.66c.09-.23.17-.46.25-.69s.14-.45.2-.69.13-.46.18-.7.1-.47.14-.71.07-.47.11-.71.07-.48.09-.72,0-.48,0-.72v-.28c0-.24,0-.48,0-.73v-.22c0-.24-.06-.49-.1-.73s-.06-.48-.1-.71-.1-.48-.15-.72-.09-.42-.14-.63v-.1l-.09-.21c-.1-.32-.21-.63-.32-1s-.17-.45-.27-.67-.19-.44-.29-.65-.22-.43-.34-.64-.23-.42-.35-.62-.26-.41-.4-.6-.27-.4-.42-.59-.3-.38-.46-.56-.31-.37-.48-.55-.33-.34-.51-.51-.35-.33-.53-.49l-.55-.46-.58-.44-.61-.4c-.2-.13-.41-.26-.62-.37l-.63-.34-.66-.32-.66-.27-.67-.25-.7-.2-.7-.19-.71-.13c-.23,0-.48-.08-.72-.1l-.71-.1h-1Z"/><path class="cls-1" d="M732,755.83h-.94c-.25,0-.49,0-.74.09l-.71.1c-.24,0-.48.09-.71.15l-.64.14h-.1l-.21.09c-.32.1-.63.2-.94.32l-.67.27-.66.3-.64.34-.62.35-.6.4c-.2.13-.39.27-.59.42l-.55.46a12.29,12.29,0,0,0-1.05,1l-.5.52-.46.56c-.15.19-.29.39-.43.58l-.41.6c-.13.2-.25.41-.37.62s-.23.42-.34.64-.21.43-.31.65-.19.44-.28.67l-.24.67-.21.7c-.06.23-.12.46-.17.69s-.1.48-.14.71-.07.48-.1.72-.07.48-.1.72,0,.47,0,.71v.28q0,.36,0,.72a1.85,1.85,0,0,0,0,.23c0,.23.06.47.1.71s0,.49.09.73.1.48.16.71.08.43.13.64v.09a1.47,1.47,0,0,0,.1.22c.09.31.2.63.31.94l.27.67c.09.22.19.44.29.66s.22.43.34.63.23.43.36.63.25.41.39.61.27.39.42.58a6.12,6.12,0,0,0,.45.56q.24.29.48.54c.16.18.34.35.51.51l.53.5.56.46.58.43.59.41.62.37.64.34c.21.11.43.22.65.31s.44.19.66.27l.69.26.69.2.71.17c.23.05.46.1.7.13s.47.08.71.11l.71.1h2l.73-.1c.24,0,.48-.06.71-.09l.71-.16.64-.13h.1l.21-.1c.32-.09.64-.2.95-.31l.67-.27.66-.3.64-.34c.21-.11.42-.23.62-.36s.41-.25.61-.39.4-.28.59-.43.37-.29.56-.45l.54-.47.51-.51c.17-.17.33-.34.49-.52s.31-.37.46-.56l.44-.58.4-.59c.13-.21.26-.41.37-.62s.23-.43.34-.65.21-.43.31-.64l.27-.66c.09-.23.17-.46.25-.69s.14-.45.2-.69.13-.46.18-.7.1-.47.14-.71.07-.47.11-.71.07-.48.09-.72,0-.48,0-.72v-.28c0-.24,0-.48,0-.73v-.22c0-.24-.06-.49-.1-.73s-.06-.48-.1-.71-.1-.48-.15-.72-.09-.42-.14-.63v-.1l-.09-.21c-.1-.32-.21-.63-.32-1s-.17-.45-.27-.67-.19-.44-.29-.65-.22-.43-.34-.64-.23-.42-.35-.62-.26-.41-.4-.6-.27-.4-.42-.59-.3-.38-.46-.56-.31-.37-.48-.55-.33-.34-.51-.51-.35-.33-.53-.49l-.55-.46-.58-.44-.61-.4c-.2-.13-.41-.26-.62-.37l-.63-.34-.66-.32-.66-.27-.67-.25-.7-.2-.7-.19-.71-.13c-.23,0-.48-.08-.72-.1l-.71-.1h-1Z"/><path class="cls-1" d="M732,755.83h-.94c-.25,0-.49,0-.74.09l-.71.1c-.24,0-.48.09-.71.15l-.64.14h-.1l-.21.09c-.32.1-.63.2-.94.32l-.67.27-.66.3-.64.34-.62.35-.6.4c-.2.13-.39.27-.59.42l-.55.46a12.29,12.29,0,0,0-1.05,1l-.5.52-.46.56c-.15.19-.29.39-.43.58l-.41.6c-.13.2-.25.41-.37.62s-.23.42-.34.64-.21.43-.31.65-.19.44-.28.67l-.24.67-.21.7c-.06.23-.12.46-.17.69s-.1.48-.14.71-.07.48-.1.72-.07.48-.1.72,0,.47,0,.71v.28q0,.36,0,.72a1.85,1.85,0,0,0,0,.23c0,.23.06.47.1.71s0,.49.09.73.1.48.16.71.08.43.13.64v.09a1.47,1.47,0,0,0,.1.22c.09.31.2.63.31.94l.27.67c.09.22.19.44.29.66s.22.43.34.63.23.43.36.63.25.41.39.61.27.39.42.58a6.12,6.12,0,0,0,.45.56q.24.29.48.54c.16.18.34.35.51.51l.53.5.56.46.58.43.59.41.62.37.64.34c.21.11.43.22.65.31s.44.19.66.27l.69.26.69.2.71.17c.23.05.46.1.7.13s.47.08.71.11l.71.1h2l.73-.1c.24,0,.48-.06.71-.09l.71-.16.64-.13h.1l.21-.1c.32-.09.64-.2.95-.31l.67-.27.66-.3.64-.34c.21-.11.42-.23.62-.36s.41-.25.61-.39.4-.28.59-.43.37-.29.56-.45l.54-.47.51-.51c.17-.17.33-.34.49-.52s.31-.37.46-.56l.44-.58.4-.59c.13-.21.26-.41.37-.62s.23-.43.34-.65.21-.43.31-.64l.27-.66c.09-.23.17-.46.25-.69s.14-.45.2-.69.13-.46.18-.7.1-.47.14-.71.07-.47.11-.71.07-.48.09-.72,0-.48,0-.72v-.28c0-.24,0-.48,0-.73v-.22c0-.24-.06-.49-.1-.73s-.06-.48-.1-.71-.1-.48-.15-.72-.09-.42-.14-.63v-.1l-.09-.21c-.1-.32-.21-.63-.32-1s-.17-.45-.27-.67-.19-.44-.29-.65-.22-.43-.34-.64-.23-.42-.35-.62-.26-.41-.4-.6-.27-.4-.42-.59-.3-.38-.46-.56-.31-.37-.48-.55-.33-.34-.51-.51-.35-.33-.53-.49l-.55-.46-.58-.44-.61-.4c-.2-.13-.41-.26-.62-.37l-.63-.34-.66-.32-.66-.27-.67-.25-.7-.2-.7-.19-.71-.13c-.23,0-.48-.08-.72-.1l-.71-.1h-1Z"/><path class="cls-1" d="M732,755.83h-.94c-.25,0-.49,0-.74.09l-.71.1c-.24,0-.48.09-.71.15l-.64.14h-.1l-.21.09c-.32.1-.63.2-.94.32l-.67.27-.66.3-.64.34-.62.35-.6.4c-.2.13-.39.27-.59.42l-.55.46a12.29,12.29,0,0,0-1.05,1l-.5.52-.46.56c-.15.19-.29.39-.43.58l-.41.6c-.13.2-.25.41-.37.62s-.23.42-.34.64-.21.43-.31.65-.19.44-.28.67l-.24.67-.21.7c-.06.23-.12.46-.17.69s-.1.48-.14.71-.07.48-.1.72-.07.48-.1.72,0,.47,0,.71v.28q0,.36,0,.72a1.85,1.85,0,0,0,0,.23c0,.23.06.47.1.71s0,.49.09.73.1.48.16.71.08.43.13.64v.09a1.47,1.47,0,0,0,.1.22c.09.31.2.63.31.94l.27.67c.09.22.19.44.29.66s.22.43.34.63.23.43.36.63.25.41.39.61.27.39.42.58a6.12,6.12,0,0,0,.45.56q.24.29.48.54c.16.18.34.35.51.51l.53.5.56.46.58.43.59.41.62.37.64.34c.21.11.43.22.65.31s.44.19.66.27l.69.26.69.2.71.17c.23.05.46.1.7.13s.47.08.71.11l.71.1h2l.73-.1c.24,0,.48-.06.71-.09l.71-.16.64-.13h.1l.21-.1c.32-.09.64-.2.95-.31l.67-.27.66-.3.64-.34c.21-.11.42-.23.62-.36s.41-.25.61-.39.4-.28.59-.43.37-.29.56-.45l.54-.47.51-.51c.17-.17.33-.34.49-.52s.31-.37.46-.56l.44-.58.4-.59c.13-.21.26-.41.37-.62s.23-.43.34-.65.21-.43.31-.64l.27-.66c.09-.23.17-.46.25-.69s.14-.45.2-.69.13-.46.18-.7.1-.47.14-.71.07-.47.11-.71.07-.48.09-.72,0-.48,0-.72v-.28c0-.24,0-.48,0-.73v-.22c0-.24-.06-.49-.1-.73s-.06-.48-.1-.71-.1-.48-.15-.72-.09-.42-.14-.63v-.1l-.09-.21c-.1-.32-.21-.63-.32-1s-.17-.45-.27-.67-.19-.44-.29-.65-.22-.43-.34-.64-.23-.42-.35-.62-.26-.41-.4-.6-.27-.4-.42-.59-.3-.38-.46-.56-.31-.37-.48-.55-.33-.34-.51-.51-.35-.33-.53-.49l-.55-.46-.58-.44-.61-.4c-.2-.13-.41-.26-.62-.37l-.63-.34-.66-.32-.66-.27-.67-.25-.7-.2-.7-.19-.71-.13c-.23,0-.48-.08-.72-.1l-.71-.1h-1Z"/><path class="cls-1" d="M732,755.83h-.94c-.25,0-.49,0-.74.09l-.71.1c-.24,0-.48.09-.71.15l-.64.14h-.1l-.21.09c-.32.1-.63.2-.94.32l-.67.27-.66.3-.64.34-.62.35-.6.4c-.2.13-.39.27-.59.42l-.55.46a12.29,12.29,0,0,0-1.05,1l-.5.52-.46.56c-.15.19-.29.39-.43.58l-.41.6c-.13.2-.25.41-.37.62s-.23.42-.34.64-.21.43-.31.65-.19.44-.28.67l-.24.67-.21.7c-.06.23-.12.46-.17.69s-.1.48-.14.71-.07.48-.1.72-.07.48-.1.72,0,.47,0,.71v.28q0,.36,0,.72a1.85,1.85,0,0,0,0,.23c0,.23.06.47.1.71s0,.49.09.73.1.48.16.71.08.43.13.64v.09a1.47,1.47,0,0,0,.1.22c.09.31.2.63.31.94l.27.67c.09.22.19.44.29.66s.22.43.34.63.23.43.36.63.25.41.39.61.27.39.42.58a6.12,6.12,0,0,0,.45.56q.24.29.48.54c.16.18.34.35.51.51l.53.5.56.46.58.43.59.41.62.37.64.34c.21.11.43.22.65.31s.44.19.66.27l.69.26.69.2.71.17c.23.05.46.1.7.13s.47.08.71.11l.71.1h2l.73-.1c.24,0,.48-.06.71-.09l.71-.16.64-.13h.1l.21-.1c.32-.09.64-.2.95-.31l.67-.27.66-.3.64-.34c.21-.11.42-.23.62-.36s.41-.25.61-.39.4-.28.59-.43.37-.29.56-.45l.54-.47.51-.51c.17-.17.33-.34.49-.52s.31-.37.46-.56l.44-.58.4-.59c.13-.21.26-.41.37-.62s.23-.43.34-.65.21-.43.31-.64l.27-.66c.09-.23.17-.46.25-.69s.14-.45.2-.69.13-.46.18-.7.1-.47.14-.71.07-.47.11-.71.07-.48.09-.72,0-.48,0-.72v-.28c0-.24,0-.48,0-.73v-.22c0-.24-.06-.49-.1-.73s-.06-.48-.1-.71-.1-.48-.15-.72-.09-.42-.14-.63v-.1l-.09-.21c-.1-.32-.21-.63-.32-1s-.17-.45-.27-.67-.19-.44-.29-.65-.22-.43-.34-.64-.23-.42-.35-.62-.26-.41-.4-.6-.27-.4-.42-.59-.3-.38-.46-.56-.31-.37-.48-.55-.33-.34-.51-.51-.35-.33-.53-.49l-.55-.46-.58-.44-.61-.4c-.2-.13-.41-.26-.62-.37l-.63-.34-.66-.32-.66-.27-.67-.25-.7-.2-.7-.19-.71-.13c-.23,0-.48-.08-.72-.1l-.71-.1h-1Z"/><path class="cls-1" d="M732,755.83h-.94c-.25,0-.49,0-.74.09l-.71.1c-.24,0-.48.09-.71.15l-.64.14h-.1l-.21.09c-.32.1-.63.2-.94.32l-.67.27-.66.3-.64.34-.62.35-.6.4c-.2.13-.39.27-.59.42l-.55.46a12.29,12.29,0,0,0-1.05,1l-.5.52-.46.56c-.15.19-.29.39-.43.58l-.41.6c-.13.2-.25.41-.37.62s-.23.42-.34.64-.21.43-.31.65-.19.44-.28.67l-.24.67-.21.7c-.06.23-.12.46-.17.69s-.1.48-.14.71-.07.48-.1.72-.07.48-.1.72,0,.47,0,.71v.28q0,.36,0,.72a1.85,1.85,0,0,0,0,.23c0,.23.06.47.1.71s0,.49.09.73.1.48.16.71.08.43.13.64v.09a1.47,1.47,0,0,0,.1.22c.09.31.2.63.31.94l.27.67c.09.22.19.44.29.66s.22.43.34.63.23.43.36.63.25.41.39.61.27.39.42.58a6.12,6.12,0,0,0,.45.56q.24.29.48.54c.16.18.34.35.51.51l.53.5.56.46.58.43.59.41.62.37.64.34c.21.11.43.22.65.31s.44.19.66.27l.69.26.69.2.71.17c.23.05.46.1.7.13s.47.08.71.11l.71.1h2l.73-.1c.24,0,.48-.06.71-.09l.71-.16.64-.13h.1l.21-.1c.32-.09.64-.2.95-.31l.67-.27.66-.3.64-.34c.21-.11.42-.23.62-.36s.41-.25.61-.39.4-.28.59-.43.37-.29.56-.45l.54-.47.51-.51c.17-.17.33-.34.49-.52s.31-.37.46-.56l.44-.58.4-.59c.13-.21.26-.41.37-.62s.23-.43.34-.65.21-.43.31-.64l.27-.66c.09-.23.17-.46.25-.69s.14-.45.2-.69.13-.46.18-.7.1-.47.14-.71.07-.47.11-.71.07-.48.09-.72,0-.48,0-.72v-.28c0-.24,0-.48,0-.73v-.22c0-.24-.06-.49-.1-.73s-.06-.48-.1-.71-.1-.48-.15-.72-.09-.42-.14-.63v-.1l-.09-.21c-.1-.32-.21-.63-.32-1s-.17-.45-.27-.67-.19-.44-.29-.65-.22-.43-.34-.64-.23-.42-.35-.62-.26-.41-.4-.6-.27-.4-.42-.59-.3-.38-.46-.56-.31-.37-.48-.55-.33-.34-.51-.51-.35-.33-.53-.49l-.55-.46-.58-.44-.61-.4c-.2-.13-.41-.26-.62-.37l-.63-.34-.66-.32-.66-.27-.67-.25-.7-.2-.7-.19-.71-.13c-.23,0-.48-.08-.72-.1l-.71-.1h-1Z"/><path class="cls-2" d="M962.61,1174.41c0,81.69-27.25,197.82-60.85,197.82s-60.85-116.13-60.85-197.82,36-98,60.85-98,60.85,16.32,60.85,98Z"/><path class="cls-3" d="M901.76,1059.42A68.93,68.93,0,0,0,849,1083.8c-15.6,18.43-25.12,47.27-25.12,90.61,0,42.73,6.94,93.07,18.46,134.13,5.76,20.53,12.55,38.67,21.12,53s20.08,27.68,38.26,27.68,29.68-13.37,38.25-27.68,15.36-32.46,21.13-53c11.52-41.06,18.45-91.4,18.45-134.13,0-43.34-9.51-72.18-25.12-90.61a68.93,68.93,0,0,0-52.71-24.38Zm0,34c8.73,0,18.2,2.21,26.79,12.36s17.07,30.31,17.07,68.67c0,39-6.68,87.53-17.19,125-5.25,18.71-11.57,34.7-17.56,44.72-4.49,7.5-8.15,10-9.11,10.82-1-.79-4.62-3.32-9.12-10.82-6-10-12.31-26-17.56-44.72-10.5-37.43-17.19-86-17.19-125,0-38.36,8.48-58.52,17.07-68.67s18.07-12.36,26.8-12.36Z"/><path class="cls-2" d="M1258.71,1152.52c-31.26-75.48-70.74-76.79-93.73-67.27s-50,38.37-18.72,113.85a510.92,510.92,0,0,0,29.91,59.76c22.13,38.11,54.53,67.19,104.55,67,24.07-.1,41.59-5,46.12-15.88,5.92-14.31-11.45-36.81-39.43-60-6.45-33.19-16.68-68.42-28.7-97.42Z"/><path class="cls-3" d="M1158.48,1069.56a68.93,68.93,0,0,1,58,2.35c21.47,11,41.3,34.07,57.89,74.11,11.85,28.61,21.7,62.27,28.37,94.77,12.68,10.91,23.4,21.76,31,32.87,8.57,12.45,15.11,27.33,8.7,42.81-4.89,11.8-15.57,18.2-26.16,21.65s-22.42,4.66-35.58,4.71c-56.63.23-95.45-34.35-119.31-75.44a529.06,529.06,0,0,1-30.91-61.79c-16.59-40-18.84-70.33-11.47-93.34a68.94,68.94,0,0,1,39.38-42.7Zm13,31.38c-8.07,3.34-16,9-20,21.68s-4.17,34.54,10.51,70a497.39,497.39,0,0,0,28.9,57.73c20.4,35.13,46.39,58.71,89.8,58.53,10.91-.06,19.87-1.31,25.2-3a16.09,16.09,0,0,0,5.06-2.36c-.24-.89-.84-4.41-5.06-10.53-5.64-8.19-16-18.93-29.29-29.92l-4.67-3.88-1.16-6c-6.22-32.09-16.25-66.49-27.71-94.15-14.68-35.44-30.22-50.82-42-56.91s-21.43-4.51-29.49-1.17Z"/><path class="cls-2" d="M657.62,807.45c-64.81,49.73-173.53,98.82-194,72.15s55.09-119,119.89-168.7,99.66-31.13,114.8-11.39,24.1,58.21-40.71,107.94Z"/><path class="cls-3" d="M711.81,689.18a69,69,0,0,0-51.44-27c-24.12-1.17-52.79,8.85-87.18,35.23-33.9,26-69.61,62.16-95.18,96.3-12.78,17.06-23,33.5-29.18,49s-9.73,32.78,1.33,47.2,28.68,15.42,45.25,13.5,35.1-7.57,54.9-15.5c39.59-15.86,83.74-41,117.65-67,34.38-26.39,51.47-51.49,56.59-75.09a69,69,0,0,0-12.74-56.66Zm-26.95,20.67c5.31,6.93,9.33,15.79,6.5,28.79s-13.65,32-44.08,55.34c-30.91,23.72-73.52,48-109.6,62.43-18,7.23-34.58,12-46.17,13.29-8.69,1-12.92-.36-14.14-.64.07-1.24-.18-5.68,3-13.82,4.3-10.85,13.14-25.6,24.79-41.16,23.3-31.11,57.76-66,88.67-89.71,30.43-23.34,51.58-28.89,64.87-28.25s20.81,6.81,26.12,13.73Z"/><path class="cls-2" d="M1527.63,710.91c64.81,49.73,140.36,142,119.9,168.7s-129.18-22.42-194-72.15-55.87-88.2-40.72-107.94,50-38.34,114.8,11.39Z"/><path class="cls-3" d="M1399.36,689.18a69,69,0,0,0-12.75,56.66c5.12,23.6,22.21,48.71,56.6,75.09,33.9,26,78,51.16,117.64,67,19.8,7.92,38.33,13.58,54.9,15.49s34.18.93,45.25-13.49,7.47-31.7,1.33-47.21-16.4-31.94-29.18-49c-25.57-34.14-61.28-70.28-95.18-96.3-34.39-26.38-63.06-36.4-87.18-35.23a68.93,68.93,0,0,0-51.43,27Zm26.94,20.68c5.32-6.93,12.84-13.1,26.12-13.74s34.45,4.91,64.87,28.26c30.91,23.71,65.37,58.59,88.67,89.71,11.65,15.55,20.5,30.3,24.79,41.15,3.22,8.14,3,12.58,3,13.83-1.22.28-5.44,1.64-14.14.63-11.59-1.34-28.13-6.06-46.17-13.29C1537.4,842,1494.79,817.7,1463.88,794c-30.43-23.35-41.26-42.34-44.08-55.34s1.19-21.86,6.5-28.79Z"/><path class="cls-3" d="M1055.58,0l-19.21,19.21C816.3,239.28,579,498.18,579,770.29c0,262.87,213.68,476.55,476.55,476.55s476.55-213.68,476.55-476.55c0-272.11-237.26-531-457.33-751.08Zm0,77.29c212.15,214.11,422.2,460.52,422.2,693,0,233.5-188.7,422.2-422.2,422.2s-422.2-188.7-422.2-422.2c0-232.48,210.06-478.89,422.2-693Z"/><path class="cls-2" d="M1505,770.29c0-255.81-230.09-512.57-449.38-731.86C836.29,257.72,606.21,514.48,606.21,770.29c0,248.19,201.19,449.38,449.37,449.38S1505,1018.48,1505,770.29Z"/><path class="cls-4" d="M1055.58,38.43C839.27,254.74,612.47,507.51,606.35,759.87c54.56,167,211.56,287.63,396.77,287.63,230.5,0,417.35-186.86,417.35-417.35,0-92.85-32.63-185.83-84.55-276.81C1254.87,243.12,1154.14,137,1055.58,38.43Z"/><path class="cls-5" d="M1055.58,38.43c-156.92,156.92-319.35,333-399.07,514.26C704.18,665.82,816.1,745.25,946.58,745.25c173.77,0,314.63-140.86,314.63-314.63,0-119.28-71.48-238.83-164.55-350.75q-20.55-20.93-41.08-41.44Z"/><path class="cls-3" d="M1055.58,28.82l-4.8,4.8C831.29,253.11,599.41,510.4,599.41,770.29c0,251.86,204.32,456.17,456.17,456.17s456.17-204.31,456.17-456.17c0-259.89-231.88-517.18-451.36-736.67Zm0,19.31c217.61,218,442.58,472.26,442.58,722.16,0,244.51-198.07,442.58-442.58,442.58S613,1014.81,613,770.29c0-249.9,225-504.13,442.58-722.16Z"/><path class="cls-1" d="M852.68,343.59C748.17,473.94,670.3,612.14,670.3,750c0,200.32,152.68,364.93,347.93,383.73-174-62.36-298.49-228.72-298.49-424.17,0-123.2,53.25-246.62,132.94-366Z"/><path class="cls-3" d="M839.28,637.83a69.84,69.84,0,0,1,70,70V742.9a70,70,0,0,1-140,0V707.82a69.84,69.84,0,0,1,70-70Z"/><path class="cls-1" d="M880,688a22.6,22.6,0,1,1-6.62-16A22.6,22.6,0,0,1,880,688Z"/><path class="cls-3" d="M1128.08,637.83a69.84,69.84,0,0,0-70,70v57.82h140V707.82a69.84,69.84,0,0,0-70-70Z"/><path class="cls-1" d="M1168.82,688a22.6,22.6,0,1,1-22.59-22.59A22.6,22.6,0,0,1,1168.82,688Z"/><path class="cls-6" d="M1009.09,781.82a42.17,42.17,0,0,0-42.26,42.26v37.24a78.2,78.2,0,0,0,84.52-37.23,42.17,42.17,0,0,0-42.26-42.27Z"/><path class="cls-3" d="M1009.09,775A49.1,49.1,0,0,0,960,824.09v37.23h13.59V824.09a35.4,35.4,0,0,1,70.76-1.71,71,71,0,0,1-14.74,17.2L1038.4,850a85,85,0,0,0,18.84-22.49l.91-1.57v-1.82A49.1,49.1,0,0,0,1009.09,775Z"/><rect class="cls-3" x="1005.7" y="822.32" width="6.79" height="36.59"/><path class="cls-7" d="M986,811.17a9,9,0,1,1,2.64,6.38,9,9,0,0,1-2.64-6.38Z"/><path class="cls-3" d="M921.88,820.68l-11.77,6.79a84.94,84.94,0,0,0,147.13,0l-11.77-6.79a71.35,71.35,0,0,1-123.59,0Z"/><path class="cls-3" d="M213.17,651.18l13.59,23.53L344.4,878.47l93.35-53.89L306.52,597.28Z"/><path class="cls-3" d="M108.86,362.72C4.91,422.74-30.92,556.45,29.1,660.4s193.73,139.78,297.68,79.76,139.78-193.73,79.77-297.68S212.81,302.71,108.86,362.72ZM136,409.79A163.57,163.57,0,1,1,76.17,633.23,163.16,163.16,0,0,1,136,409.79Z"/><path class="cls-3" d="M318.66,792.27c-20.89,12.06-28.31,39.73-16.24,60.62l129.06,223.47c21.21,36.73,69,49.54,105.76,28.33s49.54-69,28.34-105.76h0l-129-223.5c-12.06-20.89-39.74-28.31-60.63-16.25Zm35.81,42.08,40-23.11,124,214.87c6.62,11.47,3,24.89-8.45,31.51s-24.89,3-31.52-8.44Z"/><path class="cls-8" d="M250.3,661.12l46.27-26.71L400.63,814.63l-46.28,26.72Z"/><path class="cls-3" d="M241,658.64l3.4,5.88L351.86,850.63l58.05-33.51-110.85-192Zm18.56,5,34.52-19.92,97.26,168.45-34.52,19.93Z"/><path class="cls-8" d="M383,456.07A190.74,190.74,0,1,1,52.63,646.81C0,555.58,31.22,438.93,122.45,386.25S330.34,364.84,383,456.07Z"/><path class="cls-9" d="M122.45,386.25A190.52,190.52,0,0,0,159.89,733V369.83a191.07,191.07,0,0,0-37.44,16.42Z"/><path class="cls-3" d="M119.05,380.37C24.64,434.88-7.76,555.8,46.75,650.21S222.18,777,316.59,722.52s126.81-175.43,72.3-269.84S213.46,325.86,119.05,380.37Zm6.8,11.77A183.95,183.95,0,1,1,58.51,643.42a183.85,183.85,0,0,1,67.34-251.28Z"/><path class="cls-10" d="M323.2,490.6A121.68,121.68,0,1,1,157,446.06,121.68,121.68,0,0,1,323.2,490.6Z"/><path class="cls-11" d="M268.23,494.65A96,96,0,1,1,137,459.49a96,96,0,0,1,131.19,35.16Z"/><path class="cls-3" d="M153.58,440.18a128.48,128.48,0,1,0,175.5,47,128.58,128.58,0,0,0-175.5-47Zm6.8,11.77a114.89,114.89,0,1,1-42,156.94A114.78,114.78,0,0,1,160.38,452Z"/><path class="cls-1" d="M213.8,513.37a50.54,50.54,0,1,1-69-18.5,50.54,50.54,0,0,1,69,18.5Z"/><path class="cls-12" d="M332.24,815.8A17.17,17.17,0,0,0,326,839.31L455,1062.77a50.25,50.25,0,1,0,87-50.25L413.05,789a17.19,17.19,0,0,0-23.51-6.3Z"/><path class="cls-13" d="M413,788.86l102.73,178a50.25,50.25,0,0,1-87,50.24l-102.79-178c0,.05.05.09.09.14L455,1062.77a50.25,50.25,0,0,0,87-50.25L413.07,789l-.1-.16Z"/><path class="cls-3" d="M328.85,809.91a24.11,24.11,0,0,0-8.78,32.79l129.06,223.46a57,57,0,1,0,98.79-57l-129-223.5a24.11,24.11,0,0,0-32.79-8.78Zm6.79,11.77,57.3-33.07a10.24,10.24,0,0,1,14.23,3.81l129,223.49a43.46,43.46,0,0,1-75.27,43.46L331.83,835.91a10.26,10.26,0,0,1,3.81-14.23Z"/><line class="cls-8" x1="340.01" y1="863.66" x2="427.11" y2="813.37"/><path class="cls-3" d="M336.62,857.78l6.79,11.76,87.1-50.28-6.8-11.77Z"/></g></g></svg>