<svg xmlns="http://www.w3.org/2000/svg" viewBox="0 0 1481.87 1387.83"><defs><style>.cls-1{fill:#fff;}.cls-2{fill:#1a1a1a;}.cls-3{fill:#c21532;}.cls-4{fill:#8d1330;}.cls-5{fill:#f31931;}.cls-6{fill:#5fd7e3;}.cls-7{fill:#97f2f8;}.cls-8{fill:#cefffe;}.cls-9{fill:#b9dae9;}</style></defs><g id="Layer_2" data-name="Layer 2"><g id="Layer_1-2" data-name="Layer 1"><path class="cls-1" d="M859,792.69h-.88l-.69.09-.67.09-.66.15-.6.13h-.09l-.2.09c-.29.09-.59.18-.88.29l-.62.26-.63.27-.59.32-.59.34c-.19.11-.37.24-.55.36s-.38.26-.55.4l-.53.42-.51.46c-.16.15-.32.31-.47.47s-.32.33-.46.5l-.44.52c-.13.18-.27.36-.4.55s-.26.36-.38.55l-.35.58c-.11.2-.22.4-.32.6s-.2.41-.29.61-.18.42-.26.63-.15.42-.22.63-.14.43-.2.65-.12.43-.16.65-.09.45-.13.67-.07.44-.1.67-.07.45-.09.67,0,.45,0,.67v.26c0,.23,0,.45,0,.67a1.62,1.62,0,0,0,0,.22q0,.33.09.66c0,.23,0,.46.09.68s.09.45.14.67.08.4.13.6v.09l.09.2c.09.3.18.59.29.89s.17.42.26.62.17.42.27.62.2.4.31.6.22.39.34.58.24.38.37.57.25.37.39.55.28.35.42.52l.45.51.48.48.5.46.52.43c.17.14.35.27.54.4s.37.26.56.38l.57.36.6.31.62.3.62.25a4.88,4.88,0,0,0,.64.23c.21.08.43.14.65.2l.66.17a6.45,6.45,0,0,0,.66.12l.66.1c.22,0,.45.07.67.09h1.82l.69-.1.66-.08.66-.15.61-.13h.09l.19-.09a8.63,8.63,0,0,0,.9-.3c.21-.07.42-.16.62-.25l.63-.28.59-.31.58-.33.58-.38.54-.39c.18-.14.36-.28.53-.43l.5-.44q.24-.23.48-.48c.16-.15.31-.32.46-.48s.29-.35.43-.53.28-.35.41-.54.25-.37.38-.56.24-.38.35-.58a5.65,5.65,0,0,0,.31-.6c.11-.2.2-.4.29-.6s.18-.42.26-.63.16-.42.23-.64.13-.42.19-.63.12-.45.17-.67.09-.44.13-.66.07-.45.1-.67l.09-.68v-1.6c0-.07,0-.14,0-.21,0-.23-.06-.46-.09-.69s-.06-.44-.09-.66-.09-.45-.15-.67a5.79,5.79,0,0,0-.12-.6v-.09l-.09-.2c-.09-.3-.19-.6-.3-.89s-.16-.42-.25-.63l-.27-.61c-.1-.2-.21-.4-.32-.6s-.22-.39-.33-.58-.24-.38-.37-.56-.26-.37-.4-.55-.28-.36-.42-.52l-.45-.52-.48-.48c-.16-.16-.33-.31-.5-.46s-.34-.29-.52-.42l-.54-.41-.57-.38c-.19-.12-.38-.24-.58-.35l-.59-.32-.61-.29c-.21-.09-.42-.18-.63-.25s-.42-.17-.63-.24l-.65-.19L862,793l-.66-.13-.67-.1-.67-.09H859Z"/><path class="cls-1" d="M859,792.69h-.88l-.69.09-.67.09-.66.15-.6.13h-.09l-.2.09c-.29.09-.59.18-.88.29l-.62.26-.63.27-.59.32-.59.34c-.19.11-.37.24-.55.36s-.38.26-.55.4l-.53.42-.51.46c-.16.15-.32.31-.47.47s-.32.33-.46.5l-.44.52c-.13.18-.27.36-.4.55s-.26.36-.38.55l-.35.58c-.11.2-.22.4-.32.6s-.2.41-.29.61-.18.42-.26.63-.15.42-.22.63-.14.43-.2.65-.12.43-.16.65-.09.45-.13.67-.07.44-.1.67-.07.45-.09.67,0,.45,0,.67v.26c0,.23,0,.45,0,.67a1.62,1.62,0,0,0,0,.22q0,.33.09.66c0,.24,0,.46.09.69s.09.45.14.67.08.39.13.59v.09l.09.2c.09.3.18.59.29.89s.17.42.26.62.17.42.27.62.2.4.31.6.22.39.34.58.24.38.37.57.25.37.39.55.28.35.42.52l.45.51.48.48.5.46.52.43c.17.14.35.27.54.4s.37.26.56.38l.57.36.6.31.62.3.62.25a4.88,4.88,0,0,0,.64.23c.21.08.43.14.65.2l.66.16.66.13.66.09c.22,0,.45.07.67.09h1.82l.69-.09.66-.09c.23-.05.45-.09.66-.15s.41-.08.61-.12h.09l.19-.09q.46-.13.9-.3l.62-.25.63-.29.59-.31.58-.33.58-.37.54-.4c.18-.14.36-.28.53-.43s.34-.28.5-.44l.48-.47c.16-.16.31-.32.46-.49s.29-.35.43-.53.28-.35.41-.53l.38-.57c.12-.18.24-.38.35-.57s.22-.4.31-.61.2-.4.29-.6.18-.42.26-.62.16-.43.23-.64.13-.43.19-.64.12-.44.17-.66.09-.45.13-.67.07-.44.1-.67l.09-.68v-1.61c0-.07,0-.14,0-.21,0-.23-.06-.45-.09-.68s-.06-.45-.09-.67-.09-.45-.15-.67-.07-.39-.12-.59v-.09l-.09-.2c-.09-.3-.19-.59-.3-.89s-.16-.42-.25-.63l-.27-.61c-.1-.2-.21-.4-.32-.6s-.22-.39-.33-.58-.24-.38-.37-.56-.26-.37-.4-.55l-.42-.52-.45-.52-.48-.48L868,796l-.52-.43-.54-.41-.57-.38-.58-.35c-.19-.11-.39-.21-.59-.31s-.41-.21-.61-.3l-.63-.25a5.33,5.33,0,0,0-.63-.23c-.21-.08-.43-.14-.65-.2L862,793c-.22,0-.43-.09-.66-.12l-.67-.1-.67-.1H859Z"/><path class="cls-1" d="M859,792.69h-.88l-.69.09-.67.09-.66.15-.6.13h-.09l-.2.09c-.29.09-.59.18-.88.29l-.62.26-.63.27-.59.32-.59.34c-.19.11-.37.24-.55.36s-.38.26-.55.4l-.53.42-.51.46c-.16.15-.32.31-.47.47s-.32.33-.46.5l-.44.52c-.13.18-.27.36-.4.55s-.26.36-.38.55l-.35.58c-.11.2-.22.4-.32.6s-.2.41-.29.61-.18.42-.26.63-.15.42-.22.63-.14.43-.2.65-.12.43-.16.65-.09.45-.13.67-.07.44-.1.67-.07.45-.09.67,0,.45,0,.67v.26c0,.23,0,.45,0,.67a1.62,1.62,0,0,0,0,.22q0,.33.09.66c0,.24,0,.46.09.69s.09.45.14.67.08.39.13.59v.09l.09.2c.09.3.18.59.29.89s.17.42.26.62.17.42.27.62.2.4.31.6.22.39.34.58.24.38.37.57.25.37.39.55.28.35.42.52l.45.51.48.48.5.46.52.43c.17.14.35.27.54.4s.37.26.56.38l.57.36.6.31.62.3.62.25a4.88,4.88,0,0,0,.64.23c.21.08.43.14.65.2l.66.16.66.13.66.09c.22,0,.45.07.67.09h1.82l.69-.09.66-.09c.23-.05.45-.09.66-.15s.41-.08.61-.12h.09l.19-.09q.46-.13.9-.3l.62-.25.63-.29.59-.31.58-.33.58-.37.54-.4c.18-.14.36-.28.53-.43s.34-.28.5-.44l.48-.47c.16-.16.31-.32.46-.49s.29-.35.43-.53.28-.35.41-.53l.38-.57c.12-.18.24-.38.35-.57s.22-.4.31-.61.2-.4.29-.6.18-.42.26-.62.16-.43.23-.64.13-.43.19-.64.12-.44.17-.66.09-.45.13-.67.07-.44.1-.67l.09-.68v-1.61c0-.07,0-.14,0-.21,0-.23-.06-.45-.09-.68s-.06-.45-.09-.67-.09-.45-.15-.67-.07-.39-.12-.59v-.09l-.09-.2c-.09-.3-.19-.59-.3-.89s-.16-.42-.25-.63l-.27-.61c-.1-.2-.21-.4-.32-.6s-.22-.39-.33-.58-.24-.38-.37-.56-.26-.37-.4-.55l-.42-.52-.45-.52-.48-.48L868,796l-.52-.43-.54-.41-.57-.38-.58-.35c-.19-.11-.39-.21-.59-.31s-.41-.21-.61-.3l-.63-.25a5.33,5.33,0,0,0-.63-.23c-.21-.08-.43-.14-.65-.2L862,793c-.22,0-.43-.09-.66-.12l-.67-.1-.67-.1H859Z"/><path class="cls-1" d="M859,792.69h-.88l-.69.09-.67.09-.66.15-.6.13h-.09l-.2.09c-.29.09-.59.18-.88.29l-.62.26-.63.27-.59.32-.59.34c-.19.11-.37.24-.55.36s-.38.26-.55.4l-.53.42-.51.46c-.16.15-.32.31-.47.47s-.32.33-.46.5l-.44.52c-.13.18-.27.36-.4.55s-.26.36-.38.55l-.35.58c-.11.2-.22.4-.32.6s-.2.41-.29.61-.18.42-.26.63-.15.42-.22.63-.14.43-.2.65-.12.43-.16.65-.09.45-.13.67-.07.44-.1.67-.07.45-.09.67,0,.45,0,.67v.26c0,.23,0,.45,0,.67a1.62,1.62,0,0,0,0,.22q0,.33.09.66c0,.24,0,.46.09.69s.09.45.14.67.08.39.13.59v.09l.09.2c.09.3.18.59.29.89s.17.42.26.62.17.42.27.62.2.4.31.6.22.39.34.58.24.38.37.57.25.37.39.55.28.35.42.52l.45.51.48.48.5.46.52.43c.17.14.35.27.54.4s.37.26.56.38l.57.36.6.31.62.3.62.25a4.88,4.88,0,0,0,.64.23c.21.08.43.14.65.2l.66.16.66.13.66.09c.22,0,.45.07.67.09h1.82l.69-.09.66-.09c.23-.05.45-.09.66-.15s.41-.08.61-.12h.09l.19-.09q.46-.13.9-.3l.62-.25.63-.29.59-.31.58-.33.58-.37.54-.4c.18-.14.36-.28.53-.43s.34-.28.5-.44l.48-.47c.16-.16.31-.32.46-.49s.29-.35.43-.53.28-.35.41-.53l.38-.57c.12-.18.24-.38.35-.57s.22-.4.31-.61.2-.4.29-.6.18-.42.26-.62.16-.43.23-.64.13-.43.19-.64.12-.44.17-.66.09-.45.13-.67.07-.44.1-.67l.09-.68v-1.61c0-.07,0-.14,0-.21,0-.23-.06-.45-.09-.68s-.06-.45-.09-.67-.09-.45-.15-.67-.07-.39-.12-.59v-.09l-.09-.2c-.09-.3-.19-.59-.3-.89s-.16-.42-.25-.63l-.27-.61c-.1-.2-.21-.4-.32-.6s-.22-.39-.33-.58-.24-.38-.37-.56-.26-.37-.4-.55l-.42-.52-.45-.52-.48-.48L868,796l-.52-.43-.54-.41-.57-.38-.58-.35c-.19-.11-.39-.21-.59-.31s-.41-.21-.61-.3l-.63-.25a5.33,5.33,0,0,0-.63-.23c-.21-.08-.43-.14-.65-.2L862,793c-.22,0-.43-.09-.66-.12l-.67-.1-.67-.1H859Z"/><path class="cls-1" d="M859,792.69h-.88l-.69.09-.67.09-.66.15-.6.13h-.09l-.2.09c-.29.09-.59.18-.88.29l-.62.26-.63.27-.59.32-.59.34c-.19.11-.37.24-.55.36s-.38.26-.55.4l-.53.42-.51.46c-.16.15-.32.31-.47.47s-.32.33-.46.5l-.44.52c-.13.18-.27.36-.4.55s-.26.36-.38.55l-.35.58c-.11.2-.22.4-.32.6s-.2.41-.29.61-.18.42-.26.63-.15.42-.22.63-.14.43-.2.65-.12.43-.16.65-.09.45-.13.67-.07.44-.1.67-.07.45-.09.67,0,.45,0,.67v.26c0,.23,0,.45,0,.67a1.62,1.62,0,0,0,0,.22q0,.33.09.66c0,.24,0,.46.09.69s.09.45.14.67.08.39.13.59v.09l.09.2c.09.3.18.59.29.89s.17.42.26.62.17.42.27.62.2.4.31.6.22.39.34.58.24.38.37.57.25.37.39.55.28.35.42.52l.45.51.48.48.5.46.52.43c.17.14.35.27.54.4s.37.26.56.38l.57.36.6.31.62.3.62.25a4.88,4.88,0,0,0,.64.23c.21.08.43.14.65.2l.66.16.66.13.66.09c.22,0,.45.07.67.09h1.82l.69-.09.66-.09c.23-.05.45-.09.66-.15s.41-.08.61-.12h.09l.19-.09q.46-.13.9-.3l.62-.25.63-.29.59-.31.58-.33.58-.37.54-.4c.18-.14.36-.28.53-.43s.34-.28.5-.44l.48-.47c.16-.16.31-.32.46-.49s.29-.35.43-.53.28-.35.41-.53l.38-.57c.12-.18.24-.38.35-.57s.22-.4.31-.61.2-.4.29-.6.18-.42.26-.62.16-.43.23-.64.13-.43.19-.64.12-.44.17-.66.09-.45.13-.67.07-.44.1-.67l.09-.68v-1.61c0-.07,0-.14,0-.21,0-.23-.06-.45-.09-.68s-.06-.45-.09-.67-.09-.45-.15-.67-.07-.39-.12-.59v-.09l-.09-.2c-.09-.3-.19-.59-.3-.89s-.16-.42-.25-.63l-.27-.61c-.1-.2-.21-.4-.32-.6s-.22-.39-.33-.58-.24-.38-.37-.56-.26-.37-.4-.55l-.42-.52-.45-.52-.48-.48L868,796l-.52-.43-.54-.41-.57-.38-.58-.35c-.19-.11-.39-.21-.59-.31s-.41-.21-.61-.3l-.63-.25a5.33,5.33,0,0,0-.63-.23c-.21-.08-.43-.14-.65-.2L862,793c-.22,0-.43-.09-.66-.12l-.67-.1-.67-.1H859Z"/><path class="cls-1" d="M859,792.69h-.88l-.69.09-.67.09-.66.15-.6.13h-.09l-.2.09c-.29.09-.59.18-.88.29l-.62.26-.63.27-.59.32-.59.34c-.19.11-.37.24-.55.36s-.38.26-.55.4l-.53.42-.51.46c-.16.15-.32.31-.47.47s-.32.33-.46.5l-.44.52c-.13.18-.27.36-.4.55s-.26.36-.38.55l-.35.58c-.11.2-.22.4-.32.6s-.2.41-.29.61-.18.42-.26.63-.15.42-.22.63-.14.43-.2.65-.12.43-.16.65-.09.45-.13.67-.07.44-.1.67-.07.45-.09.67,0,.45,0,.67v.26c0,.23,0,.45,0,.67a1.62,1.62,0,0,0,0,.22q0,.33.09.66c0,.24,0,.46.09.69s.09.45.14.67.08.39.13.59v.09l.09.2c.09.3.18.59.29.89s.17.42.26.62.17.42.27.62.2.4.31.6.22.39.34.58.24.38.37.57.25.37.39.55.28.35.42.52l.45.51.48.48.5.46.52.43c.17.14.35.27.54.4s.37.26.56.38l.57.36.6.31.62.3.62.25a4.88,4.88,0,0,0,.64.23c.21.08.43.14.65.2l.66.16.66.13.66.09c.22,0,.45.07.67.09h1.82l.69-.09.66-.09c.23-.05.45-.09.66-.15s.41-.08.61-.12h.09l.19-.09q.46-.13.9-.3l.62-.25.63-.29.59-.31.58-.33.58-.37.54-.4c.18-.14.36-.28.53-.43s.34-.28.5-.44l.48-.47c.16-.16.31-.32.46-.49s.29-.35.43-.53.28-.35.41-.53l.38-.57c.12-.18.24-.38.35-.57s.22-.4.31-.61.2-.4.29-.6.18-.42.26-.62.16-.43.23-.64.13-.43.19-.64.12-.44.17-.66.09-.45.13-.67.07-.44.1-.67l.09-.68v-1.61c0-.07,0-.14,0-.21,0-.23-.06-.45-.09-.68s-.06-.45-.09-.67-.09-.45-.15-.67-.07-.39-.12-.59v-.09l-.09-.2c-.09-.3-.19-.59-.3-.89s-.16-.42-.25-.63l-.27-.61c-.1-.2-.21-.4-.32-.6s-.22-.39-.33-.58-.24-.38-.37-.56-.26-.37-.4-.55l-.42-.52-.45-.52-.48-.48L868,796l-.52-.43-.54-.41-.57-.38-.58-.35c-.19-.11-.39-.21-.59-.31s-.41-.21-.61-.3l-.63-.25a5.33,5.33,0,0,0-.63-.23c-.21-.08-.43-.14-.65-.2L862,793c-.22,0-.43-.09-.66-.12l-.67-.1-.67-.1H859Z"/><path class="cls-1" d="M859,792.69h-.88l-.69.09-.67.09-.66.15-.6.13h-.09l-.2.09c-.29.09-.59.18-.88.29l-.62.26-.63.27-.59.32-.59.34c-.19.11-.37.24-.55.36s-.38.26-.55.4l-.53.42-.51.46c-.16.15-.32.31-.47.47s-.32.33-.46.5l-.44.52c-.13.18-.27.36-.4.55s-.26.36-.38.55l-.35.58c-.11.2-.22.4-.32.6s-.2.41-.29.61-.18.42-.26.63-.15.42-.22.63-.14.43-.2.65-.12.43-.16.65-.09.45-.13.67-.07.44-.1.67-.07.45-.09.67,0,.45,0,.67v.26c0,.23,0,.45,0,.67a1.62,1.62,0,0,0,0,.22q0,.33.09.66c0,.24,0,.46.09.69s.09.45.14.67.08.39.13.59v.09l.09.2c.09.3.18.59.29.89s.17.42.26.62.17.42.27.62.2.4.31.6.22.39.34.58.24.38.37.57.25.37.39.55.28.35.42.52l.45.51.48.48.5.46.52.43c.17.14.35.27.54.4s.37.26.56.38l.57.36.6.31.62.3.62.25a4.88,4.88,0,0,0,.64.23c.21.08.43.14.65.2l.66.16.66.13.66.09c.22,0,.45.07.67.09h1.82l.69-.09.66-.09c.23-.05.45-.09.66-.15s.41-.08.61-.12h.09l.19-.09q.46-.13.9-.3l.62-.25.63-.29.59-.31.58-.33.58-.37.54-.4c.18-.14.36-.28.53-.43s.34-.28.5-.44l.48-.47c.16-.16.31-.32.46-.49s.29-.35.43-.53.28-.35.41-.53l.38-.57c.12-.18.24-.38.35-.57s.22-.4.31-.61.2-.4.29-.6.18-.42.26-.62.16-.43.23-.64.13-.43.19-.64.12-.44.17-.66.09-.45.13-.67.07-.44.1-.67l.09-.68v-1.61c0-.07,0-.14,0-.21,0-.23-.06-.45-.09-.68s-.06-.45-.09-.67-.09-.45-.15-.67-.07-.39-.12-.59v-.09l-.09-.2c-.09-.3-.19-.59-.3-.89s-.16-.42-.25-.63l-.27-.61c-.1-.2-.21-.4-.32-.6s-.22-.39-.33-.58-.24-.38-.37-.56-.26-.37-.4-.55l-.42-.52-.45-.52-.48-.48L868,796l-.52-.43-.54-.41-.57-.38-.58-.35c-.19-.11-.39-.21-.59-.31s-.41-.21-.61-.3l-.63-.25a5.33,5.33,0,0,0-.63-.23c-.21-.08-.43-.14-.65-.2L862,793c-.22,0-.43-.09-.66-.12l-.67-.1-.67-.1H859Z"/><path class="cls-1" d="M859,792.69h-.88l-.69.09-.67.09-.66.15-.6.13h-.09l-.2.09c-.29.09-.59.18-.88.29l-.62.26-.63.27-.59.32-.59.34c-.19.11-.37.24-.55.36s-.38.26-.55.4l-.53.42-.51.46c-.16.15-.32.31-.47.47s-.32.33-.46.5l-.44.52c-.13.18-.27.36-.4.55s-.26.36-.38.55l-.35.58c-.11.2-.22.4-.32.6s-.2.41-.29.61-.18.42-.26.63-.15.42-.22.63-.14.43-.2.65-.12.43-.16.65-.09.45-.13.67-.07.44-.1.67-.07.45-.09.67,0,.45,0,.67v.26c0,.23,0,.45,0,.67a1.62,1.62,0,0,0,0,.22q0,.33.09.66c0,.24,0,.46.09.69s.09.45.14.67.08.39.13.59v.09l.09.2c.09.3.18.59.29.89s.17.42.26.62.17.42.27.62.2.4.31.6.22.39.34.58.24.38.37.57.25.37.39.55.28.35.42.52l.45.51.48.48.5.46.52.43c.17.14.35.27.54.4s.37.26.56.38l.57.36.6.31.62.3.62.25a4.88,4.88,0,0,0,.64.23c.21.08.43.14.65.2l.66.16.66.13.66.09c.22,0,.45.07.67.09h1.82l.69-.09.66-.09c.23-.05.45-.09.66-.15s.41-.08.61-.12h.09l.19-.09q.46-.13.9-.3l.62-.25.63-.29.59-.31.58-.33.58-.37.54-.4c.18-.14.36-.28.53-.43s.34-.28.5-.44l.48-.47c.16-.16.31-.32.46-.49s.29-.35.43-.53.28-.35.41-.53l.38-.57c.12-.18.24-.38.35-.57s.22-.4.31-.61.2-.4.29-.6.18-.42.26-.62.16-.43.23-.64.13-.43.19-.64.12-.44.17-.66.09-.45.13-.67.07-.44.1-.67l.09-.68v-1.61c0-.07,0-.14,0-.21,0-.23-.06-.45-.09-.68s-.06-.45-.09-.67-.09-.45-.15-.67-.07-.39-.12-.59v-.09l-.09-.2c-.09-.3-.19-.59-.3-.89s-.16-.42-.25-.63l-.27-.61c-.1-.2-.21-.4-.32-.6s-.22-.39-.33-.58-.24-.38-.37-.56-.26-.37-.4-.55l-.42-.52-.45-.52-.48-.48L868,796l-.52-.43-.54-.41-.57-.38-.58-.35c-.19-.11-.39-.21-.59-.31s-.41-.21-.61-.3l-.63-.25a5.33,5.33,0,0,0-.63-.23c-.21-.08-.43-.14-.65-.2L862,793c-.22,0-.43-.09-.66-.12l-.67-.1-.67-.1H859Z"/><path class="cls-1" d="M859,792.69h-.88l-.69.09-.67.09-.66.15-.6.13h-.09l-.2.09c-.29.09-.59.18-.88.29l-.62.26-.63.27-.59.32-.59.34c-.19.11-.37.24-.55.36s-.38.26-.55.4l-.53.42-.51.46c-.16.15-.32.31-.47.47s-.32.33-.46.5l-.44.52c-.13.18-.27.36-.4.55s-.26.36-.38.55l-.35.58c-.11.2-.22.4-.32.6s-.2.41-.29.61-.18.42-.26.63-.15.42-.22.63-.14.43-.2.65-.12.43-.16.65-.09.45-.13.67-.07.44-.1.67-.07.45-.09.67,0,.45,0,.67v.26c0,.23,0,.45,0,.67a1.62,1.62,0,0,0,0,.22q0,.33.09.66c0,.24,0,.46.09.69s.09.45.14.67.08.39.13.59v.09l.09.2c.09.3.18.59.29.89s.17.42.26.62.17.42.27.62.2.4.31.6.22.39.34.58.24.38.37.57.25.37.39.55.28.35.42.52l.45.51.48.48.5.46.52.43c.17.14.35.27.54.4s.37.26.56.38l.57.36.6.31.62.3.62.25a4.88,4.88,0,0,0,.64.23c.21.08.43.14.65.2l.66.16.66.13.66.09c.22,0,.45.07.67.09h1.82l.69-.09.66-.09c.23-.05.45-.09.66-.15s.41-.08.61-.12h.09l.19-.09q.46-.13.9-.3l.62-.25.63-.29.59-.31.58-.33.58-.37.54-.4c.18-.14.36-.28.53-.43s.34-.28.5-.44l.48-.47c.16-.16.31-.32.46-.49s.29-.35.43-.53.28-.35.41-.53l.38-.57c.12-.18.24-.38.35-.57s.22-.4.31-.61.2-.4.29-.6.18-.42.26-.62.16-.43.23-.64.13-.43.19-.64.12-.44.17-.66.09-.45.13-.67.07-.44.1-.67l.09-.68v-1.61c0-.07,0-.14,0-.21,0-.23-.06-.45-.09-.68s-.06-.45-.09-.67-.09-.45-.15-.67-.07-.39-.12-.59v-.09l-.09-.2c-.09-.3-.19-.59-.3-.89s-.16-.42-.25-.63l-.27-.61c-.1-.2-.21-.4-.32-.6s-.22-.39-.33-.58-.24-.38-.37-.56-.26-.37-.4-.55l-.42-.52-.45-.52-.48-.48L868,796l-.52-.43-.54-.41-.57-.38-.58-.35c-.19-.11-.39-.21-.59-.31s-.41-.21-.61-.3l-.63-.25a5.33,5.33,0,0,0-.63-.23c-.21-.08-.43-.14-.65-.2L862,793c-.22,0-.43-.09-.66-.12l-.67-.1-.67-.1H859Z"/><path class="cls-1" d="M859,792.69h-.88l-.69.09-.67.09-.66.15-.6.13h-.09l-.2.09c-.29.09-.59.18-.88.29l-.62.26-.63.27-.59.32-.59.34c-.19.11-.37.24-.55.36s-.38.26-.55.4l-.53.42-.51.46c-.16.15-.32.31-.47.47s-.32.33-.46.5l-.44.52c-.13.18-.27.36-.4.55s-.26.36-.38.55l-.35.58c-.11.2-.22.4-.32.6s-.2.41-.29.61-.18.42-.26.63-.15.42-.22.63-.14.43-.2.65-.12.43-.16.65-.09.45-.13.67-.07.44-.1.67-.07.45-.09.67,0,.45,0,.67v.26c0,.23,0,.45,0,.67a1.62,1.62,0,0,0,0,.22q0,.33.09.66c0,.24,0,.46.09.69s.09.45.14.67.08.39.13.59v.09l.09.2c.09.3.18.59.29.89s.17.42.26.62.17.42.27.62.2.4.31.6.22.39.34.58.24.38.37.57.25.37.39.55.28.35.42.52l.45.51.48.48.5.46.52.43c.17.14.35.27.54.4s.37.26.56.38l.57.36.6.31.62.3.62.25a4.88,4.88,0,0,0,.64.23c.21.08.43.14.65.2l.66.16.66.13.66.09c.22,0,.45.07.67.09h1.82l.69-.09.66-.09c.23-.05.45-.09.66-.15s.41-.08.61-.12h.09l.19-.09q.46-.13.9-.3l.62-.25.63-.29.59-.31.58-.33.58-.37.54-.4c.18-.14.36-.28.53-.43s.34-.28.5-.44l.48-.47c.16-.16.31-.32.46-.49s.29-.35.43-.53.28-.35.41-.53l.38-.57c.12-.18.24-.38.35-.57s.22-.4.31-.61.2-.4.29-.6.18-.42.26-.62.16-.43.23-.64.13-.43.19-.64.12-.44.17-.66.09-.45.13-.67.07-.44.1-.67l.09-.68v-1.61c0-.07,0-.14,0-.21,0-.23-.06-.45-.09-.68s-.06-.45-.09-.67-.09-.45-.15-.67-.07-.39-.12-.59v-.09l-.09-.2c-.09-.3-.19-.59-.3-.89s-.16-.42-.25-.63l-.27-.61c-.1-.2-.21-.4-.32-.6s-.22-.39-.33-.58-.24-.38-.37-.56-.26-.37-.4-.55l-.42-.52-.45-.52-.48-.48L868,796l-.52-.43-.54-.41-.57-.38-.58-.35c-.19-.11-.39-.21-.59-.31s-.41-.21-.61-.3l-.63-.25a5.33,5.33,0,0,0-.63-.23c-.21-.08-.43-.14-.65-.2L862,793c-.22,0-.43-.09-.66-.12l-.67-.1-.67-.1H859Z"/><path class="cls-2" d="M649.27,577.05A263.15,263.15,0,0,0,526,610.6C428.49,664.84,364.59,768.73,309,855.7,265.22,924.27,221.34,968.23,186,981c-17.65,6.39-32.72,6.52-50-.26S98.77,959,77.35,932.42l-23.22-28.8L33.59,934.39C-4.88,992-10,1062.07,16.72,1116.78s89.18,91.08,168.05,78c26-4.3,42.36-4.31,43.73-3.75.68.28-.1-1.08,1.47,2.23s3.91,11.55,5,25c1.79,22.36,10.06,43.06,26.32,56.66s38.49,17.63,59.54,14.11c42.1-7,85.51-38.72,130.33-94.3,14.6-18.09,25.17-21.81,24.61-21.82-.28,0-.64-.83,2.35,1.91s8.08,9.3,13.48,20.16c14,28.25,34.55,48.82,59.78,57.37s52.1,4.48,76.86-6.22c49.52-21.4,96.78-68.56,141.18-128.22,88.78-119.3,163.91-288.66,158.41-419.14l-.56-13.2-10.73-7.72c-102.14-73.47-191.1-102.55-267.25-100.8Zm2.91,52.62C711.71,628,783,651.32,873.5,714.2c-1.29,106.46-68.61,265-147.71,371.27-41.19,55.35-86,96.48-119.13,110.77-16.53,7.14-28.58,7.78-37.86,4.63s-18.89-10.65-28.56-30.08c-7.28-14.65-15.13-26.62-25.44-36.06s-24.35-16.1-38.8-16.16c-28.89-.14-48.61,19-67.16,42-39.87,49.44-77.68,71.58-97,74.82-9.66,1.61-13.2-.11-15.72-2.21s-6-7-7-19.29c-1.38-17.14-4-31.27-10.11-44s-17.29-24-29.94-29.13c-25.31-10.34-47.33-3.84-73.18.44-60.07,9.93-93.09-13-110.36-48.29-13.08-26.75-14.9-62.31-2.75-96.38,17,15.78,34.69,27.5,53.37,34.82,29,11.39,60.1,11,88.37.78,56.54-20.47,103.69-74.2,150.3-147.16C410.5,797.82,472.51,702.54,552.38,658.1c30-16.67,62.59-27.37,99.8-28.43Z"/><path class="cls-3" d="M655.93,603.29c-155.12.68-246.66,146-324,267-90.42,141.53-182.07,195.37-275.74,79.15C-10.55,1049.43,41.4,1191,180.33,1168c51.83-8.58,76.82-13,81.71,48.09,5.53,69.25,83.26,66.6,168-38.41,33.15-41.11,60.57-45.79,85.92,5.2,94.84,190.78,394.74-246.3,384.75-483C804.1,630.46,723.91,603,655.93,603.29Z"/><path class="cls-4" d="M564,744.64c-74.16,132.16-148.1,382.5-316.27,427.09,7.86,7.72,12.52,21.42,14.36,44.36,5.53,69.25,83.26,66.6,168-38.41,33.15-41.11,60.57-45.79,85.92,5.2,94.84,190.78,394.74-246.3,384.75-483,0,0-221-138.8-336.71,44.73Z"/><path class="cls-5" d="M372.8,935.34c94.7-138.7,168.49-356,336.45-326.84a272.42,272.42,0,0,0-53.32-5.21c-155.13.68-246.66,146-324,267-90.42,141.53-182.07,195.37-275.74,79.15-22.45,132.18,140.08,244.41,316.61-14.14Z"/><path class="cls-2" d="M650.36,596.79c-42.51,1.05-80.43,12.67-114.5,31.63C445,679,381.81,779.64,326.21,866.67c-44.87,70.22-90,117.84-133.24,133.51-21.64,7.82-42.7,8.05-64.41-.46S84.4,973.65,61.48,945.21l-5.8-7.2-5.14,7.69C15.9,997.59,11.83,1060.39,35,1107.82s74.59,78.77,146.41,66.88c25.93-4.29,44.43-6.74,54.78-2.51,5.17,2.12,8.87,5.46,12.14,12.32s5.72,17.31,6.9,32.12c1.49,18.58,8,33.37,19.09,42.65s26.32,12.45,43.1,9.65c33.56-5.61,74.86-33.72,117.83-87,16.08-19.94,30.08-29.46,40.56-29.41,5.24,0,10.29,2,16,7.26s11.86,13.84,18,26.12c12.4,24.94,28.82,40.61,48.07,47.14s40.56,3.74,62.24-5.63c43.35-18.73,89.71-63.63,132.9-121.67C839.42,989.67,912.57,821,907.44,699.63l-.14-3.3-2.68-1.93C804.81,622.6,721.21,595,650.36,596.79Zm.73,13.15c66.66-1.74,145.83,24.41,242.78,93.55,3.42,115.19-67.73,281.27-151.72,394.15C699.75,1154.6,654,1198,614.75,1215c-19.62,8.48-37.23,10.39-52.49,5.23s-29-17.58-40.27-40.33c-6.57-13.22-13.38-23.16-20.95-30.09s-16.21-10.77-25.13-10.82c-17.85-.08-34.14,13.3-51.21,34.47-41.73,51.74-81.63,77.46-109.49,82.12-13.93,2.33-24.48-.26-32.15-6.67s-13-17.26-14.25-33.31c-1.26-15.75-3.78-27.66-8.18-36.89s-11.11-15.7-19.27-19c-16.33-6.68-36.23-2.61-62.14,1.68-67.11,11.1-111.16-16.86-132-59.45C27.51,1061.53,29.5,1007.43,57,961c21.91,25.54,44,42.54,66.58,51.38,24.64,9.66,49.7,9.37,74,.58,48.58-17.58,94.5-67.65,140.07-139C393.28,786.92,456,688.4,542.47,640.29c32.42-18,68.23-29.29,108.62-30.35Z"/><path class="cls-2" d="M678.83,599.07c-30.59.1-58.19,8.46-83.08,22.79-33.18,19.11-61.66,48.58-87.62,83-51.92,68.86-94.06,158-140.94,226.63-87.46,128.09-169.89,162.24-225.95,150.77s-89.07-68.56-78.35-131.67l-13.4-2.27c-11.73,69.07,25.3,134.2,89,147.25s150.82-26,239.89-156.42c47.82-70,89.93-158.94,140.57-226.12,25.32-33.59,52.7-61.65,83.55-79.41s65.05-25.48,105.56-18.44l2.33-13.39a180.08,180.08,0,0,0-31.59-2.74Z"/><path class="cls-6" d="M835.09,1166.62c10.67,81-1.19,199.68-34.5,204.07s-75.49-107.19-86.15-188.18,22.87-101.87,47.53-105.12,62.46,8.24,73.12,89.23Z"/><path class="cls-2" d="M759.75,1060.55a69,69,0,0,0-49.07,31c-13.07,20.31-18.74,50.15-13.08,93.12,5.58,42.37,19,91.37,35.8,130.58,8.4,19.6,17.5,36.7,27.86,49.77s23.52,24.83,41.54,22.46,27.69-17.13,34.32-32.44,11-34.18,14-55.29c6.07-42.22,6.37-93,.79-135.39-5.66-43-18.85-70.33-36.73-86.57a69,69,0,0,0-55.45-17.29Zm4.44,33.68c8.65-1.14,18.33-.19,28.18,8.76s20.88,27.82,25.89,65.85c5.08,38.62,4.79,87.66-.74,126.13-2.76,19.24-6.94,35.92-11.57,46.63-3.48,8-6.77,11-7.62,11.92-1.06-.66-5-2.68-10.45-9.54-7.25-9.14-15.61-24.18-23.25-42-15.3-35.73-28.27-83-33.36-121.64-5-38,.77-59.12,8-70.31s16.3-14.61,25-15.75Z"/><path class="cls-6" d="M1147.47,1182.5c-10.66,81-52.83,192.58-86.15,188.19s-45.17-123.08-34.51-204.07,48.45-92.48,73.12-89.23,58.2,24.12,47.54,105.11Z"/><path class="cls-2" d="M1102.15,1060.55a69,69,0,0,0-55.45,17.29c-17.88,16.24-31.07,43.6-36.73,86.57-5.57,42.36-5.27,93.17.79,135.39,3,21.11,7.4,40,14,55.29s16.29,30.06,34.31,32.44,31.18-9.38,41.55-22.46,19.46-30.17,27.85-49.77c16.78-39.21,30.23-88.21,35.81-130.58,5.65-43,0-72.81-13.08-93.12a69,69,0,0,0-49.08-31Zm-4.43,33.68c8.65,1.14,17.75,4.57,25,15.75s13,32.29,8,70.31c-5.08,38.62-18.06,85.91-33.35,121.64-7.65,17.87-16,32.91-23.25,42-5.44,6.86-9.39,8.88-10.45,9.54-.85-.91-4.15-3.89-7.63-11.92-4.63-10.71-8.81-27.39-11.57-46.63-5.53-38.47-5.82-87.51-.73-126.13,5-38,16-56.91,25.89-65.85s19.52-9.9,28.18-8.76Z"/><path class="cls-6" d="M544.73,776.76c-31.26,75.47-100.87,172.33-131.92,159.47s-11.78-130.57,19.48-206S503,653.4,526,662.92s50,38.37,18.71,113.84Z"/><path class="cls-2" d="M532.52,647.23a69,69,0,0,0-58,2.35c-21.48,11.06-41.3,34.07-57.89,74.11-16.35,39.48-29.21,88.63-34.27,131-2.54,21.17-3.21,40.53-.77,57s7.95,33.25,24.75,40.21,32.54-1,45.94-10.93,26.61-24.11,39.79-40.87c26.36-33.53,52-77.38,68.38-116.86,16.58-40,18.83-70.33,11.47-93.33a69,69,0,0,0-39.37-42.7Zm-13,31.38c8.06,3.34,16,9,20,21.68s4.18,34.53-10.5,70c-14.91,36-39.68,78.31-63.7,108.86-12,15.29-24,27.65-33.34,34.6-7,5.22-11.37,6.15-12.57,6.51-.59-1.1-3-4.83-4.27-13.48-1.71-11.55-1.42-28.75.88-48,4.62-38.6,17-86,31.94-122,14.68-35.43,30.22-50.81,42-56.9s21.42-4.51,29.49-1.17Z"/><path class="cls-6" d="M1429.61,730.19c31.27,75.47,50.54,193.19,19.49,206s-100.66-84-131.92-159.47-4.28-104.32,18.71-113.84,62.46-8.21,93.72,67.27Z"/><path class="cls-2" d="M1329.39,647.23a69,69,0,0,0-39.37,42.7c-7.37,23-5.11,53.29,11.47,93.33,16.35,39.48,42,83.33,68.38,116.86,13.18,16.76,26.4,30.92,39.79,40.87s29.14,17.89,45.94,10.93,22.31-23.71,24.75-40.21,1.77-35.87-.77-57c-5.06-42.35-17.92-91.5-34.27-131-16.59-40-36.41-63.05-57.89-74.11a69,69,0,0,0-58-2.35Zm13,31.38c8.06-3.34,17.66-4.92,29.49,1.17s27.37,21.47,42,56.9c14.9,36,27.31,83.43,31.93,122,2.31,19.29,2.59,36.49.89,48-1.28,8.65-3.69,12.38-4.28,13.48-1.19-.35-5.54-1.29-12.56-6.51-9.37-7-21.33-19.31-33.34-34.6-24-30.55-48.8-72.87-63.7-108.86-14.68-35.44-14.56-57.3-10.51-70s12-18.34,20-21.68Z"/><path class="cls-2" d="M931,0,911.74,19.21c-220.07,220.07-457.33,479-457.34,751.08,0,262.87,213.68,476.55,476.55,476.55s476.55-213.68,476.55-476.55c0-272.11-237.26-531-457.33-751.08Zm0,77.29c212.15,214.1,422.2,460.52,422.2,693,0,233.5-188.7,422.2-422.2,422.2s-422.2-188.7-422.2-422.2c0-232.48,210.06-478.9,422.2-693Z"/><path class="cls-6" d="M1380.33,770.29c0-255.81-230.09-512.57-449.38-731.86C711.66,257.72,481.58,514.48,481.58,770.29c0,248.19,201.19,449.38,449.37,449.38s449.38-201.19,449.38-449.38Z"/><path class="cls-7" d="M931,38.43C714.64,254.74,487.84,507.51,481.72,759.87c54.57,167,211.57,287.63,396.77,287.63,230.5,0,417.35-186.86,417.35-417.35,0-92.85-32.63-185.83-84.54-276.81C1130.24,243.12,1029.51,137,931,38.43Z"/><path class="cls-8" d="M931,38.43C774,195.35,611.6,371.46,531.89,552.69,579.55,665.82,691.48,745.25,822,745.25c173.77,0,314.63-140.86,314.63-314.63,0-119.28-71.47-238.83-164.55-350.75Q951.5,58.95,931,38.43Z"/><path class="cls-2" d="M931,28.82l-4.8,4.8C706.66,253.11,474.79,510.4,474.79,770.29c0,251.86,204.31,456.17,456.16,456.17s456.17-204.31,456.17-456.17c0-259.89-231.88-517.18-451.36-736.67Zm0,19.31c217.62,218,442.59,472.26,442.59,722.16,0,244.51-198.07,442.59-442.59,442.59S488.37,1014.81,488.37,770.29c0-249.9,225-504.13,442.58-722.16Z"/><path class="cls-1" d="M728.06,343.59C623.54,473.94,545.67,612.14,545.67,750c0,200.32,152.68,364.93,347.94,383.73-174-62.36-298.5-228.71-298.5-424.17,0-123.2,53.25-246.62,132.95-366Z"/><path class="cls-1" d="M828.84,789.82a21.25,21.25,0,0,0-21.3,21.3v24a123.41,123.41,0,0,0,246.82,0v-24a21.25,21.25,0,0,0-21.29-21.3Z"/><path class="cls-9" d="M955.06,789.82l-.07.07s21,40.24,0,77.41c26.15,41.29,3.14,88.26,3.14,88.26a123.47,123.47,0,0,0,96.2-120.39v-24a21.25,21.25,0,0,0-21.3-21.3Z"/><path class="cls-2" d="M1015.62,789.82v.07s24,27.62,0,56.93c27.65,25.7,1.89,76.31,1.89,76.31a123,123,0,0,0,36.87-88v-24a21.25,21.25,0,0,0-21.29-21.3Z"/><path class="cls-2" d="M846.31,789.82v.07s-24,27.62,0,56.93c-27.66,25.7-1.9,76.31-1.9,76.31a123,123,0,0,1-36.87-88v-24a21.25,21.25,0,0,1,21.3-21.3Z"/><path class="cls-2" d="M828.84,783a28.18,28.18,0,0,0-28.09,28.09v24a130.21,130.21,0,0,0,260.41,0v-24A28.18,28.18,0,0,0,1033.07,783Zm0,13.59h204.23a14.32,14.32,0,0,1,14.5,14.5v24a116.62,116.62,0,0,1-233.23,0v-24a14.32,14.32,0,0,1,14.5-14.5Z"/><path class="cls-2" d="M786.56,575.23a69.84,69.84,0,0,1,70,70V680.3a70,70,0,0,1-140,0V645.22a69.84,69.84,0,0,1,70-70Z"/><path class="cls-1" d="M827.29,625.41a22.58,22.58,0,1,1-22.59-22.59,22.59,22.59,0,0,1,22.59,22.59Z"/><path class="cls-2" d="M1075.35,750.29a69.83,69.83,0,0,1-70-70V622.48h140V680.3a69.84,69.84,0,0,1-70,70Z"/><path class="cls-1" d="M1126.88,661.87a22.6,22.6,0,1,1-22.59-22.59,22.59,22.59,0,0,1,22.59,22.59Z"/></g></g></svg>