<svg xmlns="http://www.w3.org/2000/svg" viewBox="0 0 1540.03 1382.28"><defs><style>.cls-1{fill:#fff;}.cls-2{fill:#5fd7e3;}.cls-3{fill:#1a1a1a;}.cls-4{fill:#97f2f8;}.cls-5{fill:#cefffe;}.cls-6{fill:#ff5574;}.cls-7{fill:#878787;}.cls-8{fill:#ff613e;}</style></defs><g id="Layer_2" data-name="Layer 2"><g id="Layer_1-2" data-name="Layer 1"><path class="cls-1" d="M568.38,792.69h-.88l-.69.09-.67.09-.66.15-.6.13h-.09l-.2.09c-.29.09-.59.18-.88.29l-.62.26-.63.27-.59.32-.59.34c-.19.11-.37.24-.55.36s-.38.26-.55.4l-.53.42-.51.46-.47.47c-.15.16-.32.33-.46.5l-.44.52c-.13.18-.27.36-.4.55s-.26.36-.38.55l-.35.58c-.11.2-.22.4-.32.6s-.2.41-.29.61-.18.42-.26.63-.15.42-.22.63-.14.43-.2.65-.12.43-.16.65-.09.45-.13.67-.07.44-.1.67-.07.45-.09.67,0,.45,0,.67v.93a.81.81,0,0,0,0,.22,2.5,2.5,0,0,0,.09.66,1.75,1.75,0,0,0,.09.68,4,4,0,0,1,.14.67c0,.22.08.4.13.6v.09l.09.2c.09.3.18.59.29.89s.17.42.26.62.17.42.27.62.2.4.31.6.22.39.34.58.24.38.37.57.25.37.39.55l.42.52.45.51.48.48.5.46.52.43c.17.14.35.27.54.4l.56.38.57.36.6.31.62.3.62.25a4.88,4.88,0,0,0,.64.23c.21.08.43.14.65.2l.66.17.66.12.66.1c.22,0,.45.07.67.09h1.82l.69-.1.66-.08.66-.15.61-.13H572l.19-.09a7.91,7.91,0,0,0,.9-.3c.21-.07.42-.16.62-.25l.63-.28.59-.31.58-.33.58-.38.54-.39c.18-.14.36-.28.53-.43l.5-.44.48-.48c.16-.15.31-.32.46-.48s.29-.35.43-.53.28-.35.41-.54l.38-.56c.13-.19.24-.38.35-.58a5.65,5.65,0,0,0,.31-.6c.11-.2.2-.4.29-.6s.18-.42.26-.63.16-.42.23-.64.13-.42.19-.63.12-.45.17-.67.09-.44.13-.66.07-.45.1-.67l.09-.68v-1.81a5.43,5.43,0,0,0-.09-.69l-.09-.66a5.37,5.37,0,0,0-.15-.67q0-.3-.12-.6v-.09l-.09-.2c-.09-.3-.19-.6-.3-.89s-.16-.42-.25-.63l-.27-.61c-.1-.2-.21-.4-.32-.6l-.33-.58c-.11-.19-.24-.38-.37-.56s-.26-.37-.4-.55-.28-.36-.42-.52l-.45-.52-.48-.48c-.16-.16-.33-.31-.5-.46s-.34-.29-.52-.42l-.54-.41-.57-.38c-.19-.12-.38-.24-.58-.35l-.59-.32-.61-.29c-.21-.09-.42-.18-.63-.25l-.63-.24-.65-.19-.6-.19-.66-.13-.67-.1-.67-.09h-1Z"/><path class="cls-1" d="M568.38,792.69h-.88l-.69.09-.67.09-.66.15-.6.13h-.09l-.2.09c-.29.09-.59.18-.88.29l-.62.26-.63.27-.59.32-.59.34c-.19.11-.37.24-.55.36s-.38.26-.55.4l-.53.42-.51.46-.47.47c-.15.16-.32.33-.46.5l-.44.52c-.13.18-.27.36-.4.55s-.26.36-.38.55l-.35.58c-.11.2-.22.4-.32.6s-.2.41-.29.61-.18.42-.26.63-.15.42-.22.63-.14.43-.2.65-.12.43-.16.65-.09.45-.13.67-.07.44-.1.67-.07.45-.09.67,0,.45,0,.67v.93a.81.81,0,0,0,0,.22,2.5,2.5,0,0,0,.09.66,1.8,1.8,0,0,0,.09.69,4.21,4.21,0,0,1,.14.67c0,.22.08.39.13.59v.09l.09.2c.09.3.18.59.29.89s.17.42.26.62.17.42.27.62.2.4.31.6.22.39.34.58.24.38.37.57.25.37.39.55l.42.52.45.51.48.48.5.46.52.43c.17.14.35.27.54.4l.56.38.57.36.6.31.62.3.62.25a4.88,4.88,0,0,0,.64.23c.21.08.43.14.65.2l.66.16.66.13.66.09c.22,0,.45.07.67.09h1.82l.69-.09.66-.09c.23-.05.45-.09.66-.15s.41-.08.61-.12H572l.19-.09.9-.3.62-.25.63-.29.59-.31.58-.33.58-.37.54-.4c.18-.14.36-.28.53-.43s.34-.28.5-.44l.48-.47c.16-.16.31-.32.46-.49s.29-.35.43-.53.28-.35.41-.53l.38-.57c.12-.18.24-.38.35-.57a5.81,5.81,0,0,0,.31-.61c.09-.21.2-.4.29-.6s.18-.42.26-.62.16-.43.23-.64.13-.43.19-.64.12-.44.17-.66.09-.45.13-.67.07-.44.1-.67l.09-.68v-1.82a5.28,5.28,0,0,0-.09-.68l-.09-.67a5.37,5.37,0,0,0-.15-.67c-.06-.22-.07-.39-.12-.59v-.09l-.09-.2c-.09-.3-.19-.59-.3-.89s-.16-.42-.25-.63l-.27-.61c-.1-.2-.21-.4-.32-.6l-.33-.58c-.11-.19-.24-.38-.37-.56s-.26-.37-.4-.55l-.42-.52-.45-.52-.48-.48-.42-.49-.52-.43-.54-.41-.57-.38-.58-.35c-.19-.11-.39-.21-.59-.31l-.61-.3-.63-.25a5.33,5.33,0,0,0-.63-.23c-.21-.08-.43-.14-.65-.2l-.68-.14a5.41,5.41,0,0,1-.66-.12l-.67-.1-.67-.1h-1Z"/><path class="cls-1" d="M568.38,792.69h-.88l-.69.09-.67.09-.66.15-.6.13h-.09l-.2.09c-.29.09-.59.18-.88.29l-.62.26-.63.27-.59.32-.59.34c-.19.11-.37.24-.55.36s-.38.26-.55.4l-.53.42-.51.46-.47.47c-.15.16-.32.33-.46.5l-.44.52c-.13.18-.27.36-.4.55s-.26.36-.38.55l-.35.58c-.11.2-.22.4-.32.6s-.2.41-.29.61-.18.42-.26.63-.15.42-.22.63-.14.43-.2.65-.12.43-.16.65-.09.45-.13.67-.07.44-.1.67-.07.45-.09.67,0,.45,0,.67v.93a.81.81,0,0,0,0,.22,2.5,2.5,0,0,0,.09.66,1.8,1.8,0,0,0,.09.69,4.21,4.21,0,0,1,.14.67c0,.22.08.39.13.59v.09l.09.2c.09.3.18.59.29.89s.17.42.26.62.17.42.27.62.2.4.31.6.22.39.34.58.24.38.37.57.25.37.39.55l.42.52.45.51.48.48.5.46.52.43c.17.14.35.27.54.4l.56.38.57.36.6.31.62.3.62.25a4.88,4.88,0,0,0,.64.23c.21.08.43.14.65.2l.66.16.66.13.66.09c.22,0,.45.07.67.09h1.82l.69-.09.66-.09c.23-.05.45-.09.66-.15s.41-.08.61-.12H572l.19-.09.9-.3.62-.25.63-.29.59-.31.58-.33.58-.37.54-.4c.18-.14.36-.28.53-.43s.34-.28.5-.44l.48-.47c.16-.16.31-.32.46-.49s.29-.35.43-.53.28-.35.41-.53l.38-.57c.12-.18.24-.38.35-.57a5.81,5.81,0,0,0,.31-.61c.09-.21.2-.4.29-.6s.18-.42.26-.62.16-.43.23-.64.13-.43.19-.64.12-.44.17-.66.09-.45.13-.67.07-.44.1-.67l.09-.68v-1.82a5.28,5.28,0,0,0-.09-.68l-.09-.67a5.37,5.37,0,0,0-.15-.67c-.06-.22-.07-.39-.12-.59v-.09l-.09-.2c-.09-.3-.19-.59-.3-.89s-.16-.42-.25-.63l-.27-.61c-.1-.2-.21-.4-.32-.6l-.33-.58c-.11-.19-.24-.38-.37-.56s-.26-.37-.4-.55l-.42-.52-.45-.52-.48-.48-.42-.49-.52-.43-.54-.41-.57-.38-.58-.35c-.19-.11-.39-.21-.59-.31l-.61-.3-.63-.25a5.33,5.33,0,0,0-.63-.23c-.21-.08-.43-.14-.65-.2l-.68-.14a5.41,5.41,0,0,1-.66-.12l-.67-.1-.67-.1h-1Z"/><path class="cls-1" d="M568.38,792.69h-.88l-.69.09-.67.09-.66.15-.6.13h-.09l-.2.09c-.29.09-.59.18-.88.29l-.62.26-.63.27-.59.32-.59.34c-.19.11-.37.24-.55.36s-.38.26-.55.4l-.53.42-.51.46-.47.47c-.15.16-.32.33-.46.5l-.44.52c-.13.18-.27.36-.4.55s-.26.36-.38.55l-.35.58c-.11.2-.22.4-.32.6s-.2.41-.29.61-.18.42-.26.63-.15.42-.22.63-.14.43-.2.65-.12.43-.16.65-.09.45-.13.67-.07.44-.1.67-.07.45-.09.67,0,.45,0,.67v.93a.81.81,0,0,0,0,.22,2.5,2.5,0,0,0,.09.66,1.8,1.8,0,0,0,.09.69,4.21,4.21,0,0,1,.14.67c0,.22.08.39.13.59v.09l.09.2c.09.3.18.59.29.89s.17.42.26.62.17.42.27.62.2.4.31.6.22.39.34.58.24.38.37.57.25.37.39.55l.42.52.45.51.48.48.5.46.52.43c.17.14.35.27.54.4l.56.38.57.36.6.31.62.3.62.25a4.88,4.88,0,0,0,.64.23c.21.08.43.14.65.2l.66.16.66.13.66.09c.22,0,.45.07.67.09h1.82l.69-.09.66-.09c.23-.05.45-.09.66-.15s.41-.08.61-.12H572l.19-.09.9-.3.62-.25.63-.29.59-.31.58-.33.58-.37.54-.4c.18-.14.36-.28.53-.43s.34-.28.5-.44l.48-.47c.16-.16.31-.32.46-.49s.29-.35.43-.53.28-.35.41-.53l.38-.57c.12-.18.24-.38.35-.57a5.81,5.81,0,0,0,.31-.61c.09-.21.2-.4.29-.6s.18-.42.26-.62.16-.43.23-.64.13-.43.19-.64.12-.44.17-.66.09-.45.13-.67.07-.44.1-.67l.09-.68v-1.82a5.28,5.28,0,0,0-.09-.68l-.09-.67a5.37,5.37,0,0,0-.15-.67c-.06-.22-.07-.39-.12-.59v-.09l-.09-.2c-.09-.3-.19-.59-.3-.89s-.16-.42-.25-.63l-.27-.61c-.1-.2-.21-.4-.32-.6l-.33-.58c-.11-.19-.24-.38-.37-.56s-.26-.37-.4-.55l-.42-.52-.45-.52-.48-.48-.42-.49-.52-.43-.54-.41-.57-.38-.58-.35c-.19-.11-.39-.21-.59-.31l-.61-.3-.63-.25a5.33,5.33,0,0,0-.63-.23c-.21-.08-.43-.14-.65-.2l-.68-.14a5.41,5.41,0,0,1-.66-.12l-.67-.1-.67-.1h-1Z"/><path class="cls-1" d="M568.38,792.69h-.88l-.69.09-.67.09-.66.15-.6.13h-.09l-.2.09c-.29.09-.59.18-.88.29l-.62.26-.63.27-.59.32-.59.34c-.19.11-.37.24-.55.36s-.38.26-.55.4l-.53.42-.51.46-.47.47c-.15.16-.32.33-.46.5l-.44.52c-.13.18-.27.36-.4.55s-.26.36-.38.55l-.35.58c-.11.2-.22.4-.32.6s-.2.41-.29.61-.18.42-.26.63-.15.42-.22.63-.14.43-.2.65-.12.43-.16.65-.09.45-.13.67-.07.44-.1.67-.07.45-.09.67,0,.45,0,.67v.93a.81.81,0,0,0,0,.22,2.5,2.5,0,0,0,.09.66,1.8,1.8,0,0,0,.09.69,4.21,4.21,0,0,1,.14.67c0,.22.08.39.13.59v.09l.09.2c.09.3.18.59.29.89s.17.42.26.62.17.42.27.62.2.4.31.6.22.39.34.58.24.38.37.57.25.37.39.55l.42.52.45.51.48.48.5.46.52.43c.17.14.35.27.54.4l.56.38.57.36.6.31.62.3.62.25a4.88,4.88,0,0,0,.64.23c.21.08.43.14.65.2l.66.16.66.13.66.09c.22,0,.45.07.67.09h1.82l.69-.09.66-.09c.23-.05.45-.09.66-.15s.41-.08.61-.12H572l.19-.09.9-.3.62-.25.63-.29.59-.31.58-.33.58-.37.54-.4c.18-.14.36-.28.53-.43s.34-.28.5-.44l.48-.47c.16-.16.31-.32.46-.49s.29-.35.43-.53.28-.35.41-.53l.38-.57c.12-.18.24-.38.35-.57a5.81,5.81,0,0,0,.31-.61c.09-.21.2-.4.29-.6s.18-.42.26-.62.16-.43.23-.64.13-.43.19-.64.12-.44.17-.66.09-.45.13-.67.07-.44.1-.67l.09-.68v-1.82a5.28,5.28,0,0,0-.09-.68l-.09-.67a5.37,5.37,0,0,0-.15-.67c-.06-.22-.07-.39-.12-.59v-.09l-.09-.2c-.09-.3-.19-.59-.3-.89s-.16-.42-.25-.63l-.27-.61c-.1-.2-.21-.4-.32-.6l-.33-.58c-.11-.19-.24-.38-.37-.56s-.26-.37-.4-.55l-.42-.52-.45-.52-.48-.48-.42-.49-.52-.43-.54-.41-.57-.38-.58-.35c-.19-.11-.39-.21-.59-.31l-.61-.3-.63-.25a5.33,5.33,0,0,0-.63-.23c-.21-.08-.43-.14-.65-.2l-.68-.14a5.41,5.41,0,0,1-.66-.12l-.67-.1-.67-.1h-1Z"/><path class="cls-1" d="M568.38,792.69h-.88l-.69.09-.67.09-.66.15-.6.13h-.09l-.2.09c-.29.09-.59.18-.88.29l-.62.26-.63.27-.59.32-.59.34c-.19.11-.37.24-.55.36s-.38.26-.55.4l-.53.42-.51.46-.47.47c-.15.16-.32.33-.46.5l-.44.52c-.13.18-.27.36-.4.55s-.26.36-.38.55l-.35.58c-.11.2-.22.4-.32.6s-.2.41-.29.61-.18.42-.26.63-.15.42-.22.63-.14.43-.2.65-.12.43-.16.65-.09.45-.13.67-.07.44-.1.67-.07.45-.09.67,0,.45,0,.67v.93a.81.81,0,0,0,0,.22,2.5,2.5,0,0,0,.09.66,1.8,1.8,0,0,0,.09.69,4.21,4.21,0,0,1,.14.67c0,.22.08.39.13.59v.09l.09.2c.09.3.18.59.29.89s.17.42.26.62.17.42.27.62.2.4.31.6.22.39.34.58.24.38.37.57.25.37.39.55l.42.52.45.51.48.48.5.46.52.43c.17.14.35.27.54.4l.56.38.57.36.6.31.62.3.62.25a4.88,4.88,0,0,0,.64.23c.21.08.43.14.65.2l.66.16.66.13.66.09c.22,0,.45.07.67.09h1.82l.69-.09.66-.09c.23-.05.45-.09.66-.15s.41-.08.61-.12H572l.19-.09.9-.3.62-.25.63-.29.59-.31.58-.33.58-.37.54-.4c.18-.14.36-.28.53-.43s.34-.28.5-.44l.48-.47c.16-.16.31-.32.46-.49s.29-.35.43-.53.28-.35.41-.53l.38-.57c.12-.18.24-.38.35-.57a5.81,5.81,0,0,0,.31-.61c.09-.21.2-.4.29-.6s.18-.42.26-.62.16-.43.23-.64.13-.43.19-.64.12-.44.17-.66.09-.45.13-.67.07-.44.1-.67l.09-.68v-1.82a5.28,5.28,0,0,0-.09-.68l-.09-.67a5.37,5.37,0,0,0-.15-.67c-.06-.22-.07-.39-.12-.59v-.09l-.09-.2c-.09-.3-.19-.59-.3-.89s-.16-.42-.25-.63l-.27-.61c-.1-.2-.21-.4-.32-.6l-.33-.58c-.11-.19-.24-.38-.37-.56s-.26-.37-.4-.55l-.42-.52-.45-.52-.48-.48-.42-.49-.52-.43-.54-.41-.57-.38-.58-.35c-.19-.11-.39-.21-.59-.31l-.61-.3-.63-.25a5.33,5.33,0,0,0-.63-.23c-.21-.08-.43-.14-.65-.2l-.68-.14a5.41,5.41,0,0,1-.66-.12l-.67-.1-.67-.1h-1Z"/><path class="cls-1" d="M568.38,792.69h-.88l-.69.09-.67.09-.66.15-.6.13h-.09l-.2.09c-.29.09-.59.18-.88.29l-.62.26-.63.27-.59.32-.59.34c-.19.11-.37.24-.55.36s-.38.26-.55.4l-.53.42-.51.46-.47.47c-.15.16-.32.33-.46.5l-.44.52c-.13.18-.27.36-.4.55s-.26.36-.38.55l-.35.58c-.11.2-.22.4-.32.6s-.2.41-.29.61-.18.42-.26.63-.15.42-.22.63-.14.43-.2.65-.12.43-.16.65-.09.45-.13.67-.07.44-.1.67-.07.45-.09.67,0,.45,0,.67v.93a.81.81,0,0,0,0,.22,2.5,2.5,0,0,0,.09.66,1.8,1.8,0,0,0,.09.69,4.21,4.21,0,0,1,.14.67c0,.22.08.39.13.59v.09l.09.2c.09.3.18.59.29.89s.17.42.26.62.17.42.27.62.2.4.31.6.22.39.34.58.24.38.37.57.25.37.39.55l.42.52.45.51.48.48.5.46.52.43c.17.14.35.27.54.4l.56.38.57.36.6.31.62.3.62.25a4.88,4.88,0,0,0,.64.23c.21.08.43.14.65.2l.66.16.66.13.66.09c.22,0,.45.07.67.09h1.82l.69-.09.66-.09c.23-.05.45-.09.66-.15s.41-.08.61-.12H572l.19-.09.9-.3.62-.25.63-.29.59-.31.58-.33.58-.37.54-.4c.18-.14.36-.28.53-.43s.34-.28.5-.44l.48-.47c.16-.16.31-.32.46-.49s.29-.35.43-.53.28-.35.41-.53l.38-.57c.12-.18.24-.38.35-.57a5.81,5.81,0,0,0,.31-.61c.09-.21.2-.4.29-.6s.18-.42.26-.62.16-.43.23-.64.13-.43.19-.64.12-.44.17-.66.09-.45.13-.67.07-.44.1-.67l.09-.68v-1.82a5.28,5.28,0,0,0-.09-.68l-.09-.67a5.37,5.37,0,0,0-.15-.67c-.06-.22-.07-.39-.12-.59v-.09l-.09-.2c-.09-.3-.19-.59-.3-.89s-.16-.42-.25-.63l-.27-.61c-.1-.2-.21-.4-.32-.6l-.33-.58c-.11-.19-.24-.38-.37-.56s-.26-.37-.4-.55l-.42-.52-.45-.52-.48-.48-.42-.49-.52-.43-.54-.41-.57-.38-.58-.35c-.19-.11-.39-.21-.59-.31l-.61-.3-.63-.25a5.33,5.33,0,0,0-.63-.23c-.21-.08-.43-.14-.65-.2l-.68-.14a5.41,5.41,0,0,1-.66-.12l-.67-.1-.67-.1h-1Z"/><path class="cls-1" d="M568.38,792.69h-.88l-.69.09-.67.09-.66.15-.6.13h-.09l-.2.09c-.29.09-.59.18-.88.29l-.62.26-.63.27-.59.32-.59.34c-.19.11-.37.24-.55.36s-.38.26-.55.4l-.53.42-.51.46-.47.47c-.15.16-.32.33-.46.5l-.44.52c-.13.18-.27.36-.4.55s-.26.36-.38.55l-.35.58c-.11.2-.22.4-.32.6s-.2.41-.29.61-.18.42-.26.63-.15.42-.22.63-.14.43-.2.65-.12.43-.16.65-.09.45-.13.67-.07.44-.1.67-.07.45-.09.67,0,.45,0,.67v.93a.81.81,0,0,0,0,.22,2.5,2.5,0,0,0,.09.66,1.8,1.8,0,0,0,.09.69,4.21,4.21,0,0,1,.14.67c0,.22.08.39.13.59v.09l.09.2c.09.3.18.59.29.89s.17.42.26.62.17.42.27.62.2.4.31.6.22.39.34.58.24.38.37.57.25.37.39.55l.42.52.45.51.48.48.5.46.52.43c.17.14.35.27.54.4l.56.38.57.36.6.31.62.3.62.25a4.88,4.88,0,0,0,.64.23c.21.08.43.14.65.2l.66.16.66.13.66.09c.22,0,.45.07.67.09h1.82l.69-.09.66-.09c.23-.05.45-.09.66-.15s.41-.08.61-.12H572l.19-.09.9-.3.62-.25.63-.29.59-.31.58-.33.58-.37.54-.4c.18-.14.36-.28.53-.43s.34-.28.5-.44l.48-.47c.16-.16.31-.32.46-.49s.29-.35.43-.53.28-.35.41-.53l.38-.57c.12-.18.24-.38.35-.57a5.81,5.81,0,0,0,.31-.61c.09-.21.2-.4.29-.6s.18-.42.26-.62.16-.43.23-.64.13-.43.19-.64.12-.44.17-.66.09-.45.13-.67.07-.44.1-.67l.09-.68v-1.82a5.28,5.28,0,0,0-.09-.68l-.09-.67a5.37,5.37,0,0,0-.15-.67c-.06-.22-.07-.39-.12-.59v-.09l-.09-.2c-.09-.3-.19-.59-.3-.89s-.16-.42-.25-.63l-.27-.61c-.1-.2-.21-.4-.32-.6l-.33-.58c-.11-.19-.24-.38-.37-.56s-.26-.37-.4-.55l-.42-.52-.45-.52-.48-.48-.42-.49-.52-.43-.54-.41-.57-.38-.58-.35c-.19-.11-.39-.21-.59-.31l-.61-.3-.63-.25a5.33,5.33,0,0,0-.63-.23c-.21-.08-.43-.14-.65-.2l-.68-.14a5.41,5.41,0,0,1-.66-.12l-.67-.1-.67-.1h-1Z"/><path class="cls-1" d="M568.38,792.69h-.88l-.69.09-.67.09-.66.15-.6.13h-.09l-.2.09c-.29.09-.59.18-.88.29l-.62.26-.63.27-.59.32-.59.34c-.19.11-.37.24-.55.36s-.38.26-.55.4l-.53.42-.51.46-.47.47c-.15.16-.32.33-.46.5l-.44.52c-.13.18-.27.36-.4.55s-.26.36-.38.55l-.35.58c-.11.2-.22.4-.32.6s-.2.41-.29.61-.18.42-.26.63-.15.42-.22.63-.14.43-.2.65-.12.43-.16.65-.09.45-.13.67-.07.44-.1.67-.07.45-.09.67,0,.45,0,.67v.93a.81.81,0,0,0,0,.22,2.5,2.5,0,0,0,.09.66,1.8,1.8,0,0,0,.09.69,4.21,4.21,0,0,1,.14.67c0,.22.08.39.13.59v.09l.09.2c.09.3.18.59.29.89s.17.42.26.62.17.42.27.62.2.4.31.6.22.39.34.58.24.38.37.57.25.37.39.55l.42.52.45.51.48.48.5.46.52.43c.17.14.35.27.54.4l.56.38.57.36.6.31.62.3.62.25a4.88,4.88,0,0,0,.64.23c.21.08.43.14.65.2l.66.16.66.13.66.09c.22,0,.45.07.67.09h1.82l.69-.09.66-.09c.23-.05.45-.09.66-.15s.41-.08.61-.12H572l.19-.09.9-.3.62-.25.63-.29.59-.31.58-.33.58-.37.54-.4c.18-.14.36-.28.53-.43s.34-.28.5-.44l.48-.47c.16-.16.31-.32.46-.49s.29-.35.43-.53.28-.35.41-.53l.38-.57c.12-.18.24-.38.35-.57a5.81,5.81,0,0,0,.31-.61c.09-.21.2-.4.29-.6s.18-.42.26-.62.16-.43.23-.64.13-.43.19-.64.12-.44.17-.66.09-.45.13-.67.07-.44.1-.67l.09-.68v-1.82a5.28,5.28,0,0,0-.09-.68l-.09-.67a5.37,5.37,0,0,0-.15-.67c-.06-.22-.07-.39-.12-.59v-.09l-.09-.2c-.09-.3-.19-.59-.3-.89s-.16-.42-.25-.63l-.27-.61c-.1-.2-.21-.4-.32-.6l-.33-.58c-.11-.19-.24-.38-.37-.56s-.26-.37-.4-.55l-.42-.52-.45-.52-.48-.48-.42-.49-.52-.43-.54-.41-.57-.38-.58-.35c-.19-.11-.39-.21-.59-.31l-.61-.3-.63-.25a5.33,5.33,0,0,0-.63-.23c-.21-.08-.43-.14-.65-.2l-.68-.14a5.41,5.41,0,0,1-.66-.12l-.67-.1-.67-.1h-1Z"/><path class="cls-1" d="M568.38,792.69h-.88l-.69.09-.67.09-.66.15-.6.13h-.09l-.2.09c-.29.09-.59.18-.88.29l-.62.26-.63.27-.59.32-.59.34c-.19.11-.37.24-.55.36s-.38.26-.55.4l-.53.42-.51.46-.47.47c-.15.16-.32.33-.46.5l-.44.52c-.13.18-.27.36-.4.55s-.26.36-.38.55l-.35.58c-.11.2-.22.4-.32.6s-.2.41-.29.61-.18.42-.26.63-.15.42-.22.63-.14.43-.2.65-.12.43-.16.65-.09.45-.13.67-.07.44-.1.67-.07.45-.09.67,0,.45,0,.67v.93a.81.81,0,0,0,0,.22,2.5,2.5,0,0,0,.09.66,1.8,1.8,0,0,0,.09.69,4.21,4.21,0,0,1,.14.67c0,.22.08.39.13.59v.09l.09.2c.09.3.18.59.29.89s.17.42.26.62.17.42.27.62.2.4.31.6.22.39.34.58.24.38.37.57.25.37.39.55l.42.52.45.51.48.48.5.46.52.43c.17.14.35.27.54.4l.56.38.57.36.6.31.62.3.62.25a4.88,4.88,0,0,0,.64.23c.21.08.43.14.65.2l.66.16.66.13.66.09c.22,0,.45.07.67.09h1.82l.69-.09.66-.09c.23-.05.45-.09.66-.15s.41-.08.61-.12H572l.19-.09.9-.3.62-.25.63-.29.59-.31.58-.33.58-.37.54-.4c.18-.14.36-.28.53-.43s.34-.28.5-.44l.48-.47c.16-.16.31-.32.46-.49s.29-.35.43-.53.28-.35.41-.53l.38-.57c.12-.18.24-.38.35-.57a5.81,5.81,0,0,0,.31-.61c.09-.21.2-.4.29-.6s.18-.42.26-.62.16-.43.23-.64.13-.43.19-.64.12-.44.17-.66.09-.45.13-.67.07-.44.1-.67l.09-.68v-1.82a5.28,5.28,0,0,0-.09-.68l-.09-.67a5.37,5.37,0,0,0-.15-.67c-.06-.22-.07-.39-.12-.59v-.09l-.09-.2c-.09-.3-.19-.59-.3-.89s-.16-.42-.25-.63l-.27-.61c-.1-.2-.21-.4-.32-.6l-.33-.58c-.11-.19-.24-.38-.37-.56s-.26-.37-.4-.55l-.42-.52-.45-.52-.48-.48-.42-.49-.52-.43-.54-.41-.57-.38-.58-.35c-.19-.11-.39-.21-.59-.31l-.61-.3-.63-.25a5.33,5.33,0,0,0-.63-.23c-.21-.08-.43-.14-.65-.2l-.68-.14a5.41,5.41,0,0,1-.66-.12l-.67-.1-.67-.1h-1Z"/><path class="cls-2" d="M564.88,1203.07c-30.38,75.84-98.85,173.5-130,161s-13.31-130.43,17.07-206.26,69.84-77.61,92.93-68.36,50.42,37.78,20,113.61Z"/><path class="cls-3" d="M551.15,1073.69a69,69,0,0,0-58,3c-21.34,11.31-40.9,34.54-57,74.78-15.89,39.67-28.19,89-32.75,131.37-2.28,21.21-2.72,40.57-.09,57s8.34,33.17,25.21,39.93,32.53-1.37,45.81-11.47,26.33-24.41,39.29-41.34c26-33.84,51.11-78,67-117.65,16.13-40.26,18-70.55,10.38-93.47a69,69,0,0,0-39.87-42.23Zm-12.62,31.54c8.1,3.24,16.07,8.81,20.27,21.44s4.58,34.48-9.68,70.09c-14.49,36.16-38.77,78.77-62.43,109.6-11.83,15.42-23.65,27.92-32.93,35-6.95,5.27-11.29,6.27-12.48,6.65-.6-1.09-3-4.78-4.44-13.43-1.84-11.52-1.76-28.73.3-48,4.17-38.64,16-86.2,30.51-122.38,14.25-35.58,29.63-51.17,41.41-57.38s21.37-4.76,29.51-1.49Z"/><path class="cls-2" d="M824.84,1156c34.72,74,59.41,190.66,29,204.93s-104.44-79.26-139.15-153.21-9.1-104,13.43-114.57,62-11.09,96.73,62.85Z"/><path class="cls-3" d="M720.89,1077.77a69,69,0,0,0-37.36,44.47c-6.29,23.32-2.64,53.47,15.78,92.71,18.16,38.67,45.82,81.29,73.7,113.57,13.91,16.16,27.81,29.69,41.62,39s29.93,16.52,46.39,8.81,21.19-24.72,22.86-41.33.11-35.9-3.4-56.93c-7-42.07-22.13-90.58-40.29-129.27-18.44-39.25-39.28-61.3-61.25-71.35a69,69,0,0,0-58.05.38Zm14.44,30.75c7.9-3.71,17.41-5.73,29.55-.23s28.36,20.18,44.67,54.89c16.55,35.26,31.13,82.08,37.54,120.41,3.19,19.17,4.28,36.34,3.08,47.91-.88,8.71-3.12,12.54-3.66,13.67-1.2-.31-5.59-1-12.85-5.92-9.68-6.52-22.19-18.31-34.9-33-25.41-29.41-52.11-70.55-68.66-105.81-16.29-34.7-17.23-56.55-13.72-69.42s11.09-18.86,19-22.57Z"/><path class="cls-2" d="M144.76,826.15C78.61,778.2.58,688,20.3,660.78S150,679.66,216.14,727.59s58.3,86.63,43.69,106.79-48.94,39.72-115.07-8.25Z"/><path class="cls-3" d="M273.58,844.37a69,69,0,0,0,11.19-57C279,764,261.23,739.32,226.14,713.88c-34.6-25.07-79.42-49-119.45-63.77-20-7.39-38.68-12.54-55.26-14s-34.19,0-44.86,14.73S0,682.73,6.52,698.07,23.79,729.55,37,746.27c26.48,33.43,63.18,68.55,97.77,93.66,35,25.42,64,34.66,88.11,32.84a69,69,0,0,0,50.68-28.37Zm-27.5-19.94c-5.12,7.06-12.47,13.47-25.74,14.42s-34.55-4-65.64-26.48c-31.55-22.87-66.95-56.79-91.08-87.25-12.08-15.23-21.32-29.77-25.91-40.47-3.45-8-3.34-12.49-3.41-13.74,1.21-.32,5.4-1.79,14.11-1,11.63,1,28.29,5.3,46.48,12,36.47,13.46,79.69,36.52,111.24,59.41,31.05,22.51,42.39,41.2,45.58,54.08s-.59,21.88-5.71,29Z"/><path class="cls-2" d="M1079.62,731.53c69.23-43.36,182.13-81.9,199.91-53.4s-66.14,113.2-135.37,156.55-102.17,21.53-115.37.43-18.46-60.23,50.79-103.58Z"/><path class="cls-3" d="M1014.43,844.12a69,69,0,0,0,48.64,31.74c23.91,3.45,53.4-3.8,90.14-26.79,36.22-22.68,75.21-55.25,103.89-86.82,14.34-15.78,26.12-31.17,33.71-46s12.8-31.71,3.15-47.12-27.08-18.07-43.76-17.74-35.66,4.21-56.08,10.22c-40.92,12-87.26,32.85-123.5,55.53-36.69,23-56.13,46.37-63.48,69.38a69,69,0,0,0,7.31,57.59Zm28.79-18c-4.63-7.4-7.78-16.6-3.74-29.28s16.64-30.55,49.15-50.86c33-20.66,77.74-40.77,115-51.73,18.64-5.48,35.55-8.6,47.19-8.84,8.74-.17,12.82,1.59,14,2-.15,1.23-.35,5.67-4.34,13.46-5.34,10.4-15.5,24.24-28.59,38.62-26.14,28.74-63.76,60.21-96.78,80.88-32.51,20.35-54.09,23.86-67.28,22s-20.08-8.79-24.7-16.13Z"/><path class="cls-3" d="M640.38,0,621.12,19.21c-220.07,220.07-457.33,479-457.34,751.08,0,262.87,213.68,476.55,476.55,476.55s476.55-213.68,476.55-476.55c0-272.11-237.26-531-457.33-751.08Zm0,77.29c212.15,214.1,422.2,460.52,422.2,693,0,233.5-188.7,422.2-422.2,422.2s-422.2-188.7-422.2-422.2c0-232.48,210.06-478.9,422.2-693Z"/><path class="cls-2" d="M1089.71,770.29c0-255.81-230.09-512.57-449.38-731.86C421,257.72,191,514.48,191,770.29c0,248.19,201.19,449.38,449.37,449.38s449.38-201.19,449.38-449.38Z"/><path class="cls-4" d="M640.38,38.43C424,254.74,197.22,507.51,191.1,759.87c54.57,167,211.57,287.63,396.77,287.63,230.5,0,417.35-186.86,417.35-417.35,0-92.85-32.63-185.83-84.54-276.81C839.62,243.12,738.89,137,640.38,38.43Z"/><path class="cls-5" d="M640.38,38.43c-157,156.92-319.4,333-399.11,514.26,47.66,113.13,159.59,192.56,290.11,192.56C705.15,745.25,846,604.39,846,430.62c0-119.28-71.47-238.83-164.55-350.75Q660.88,58.95,640.38,38.43Z"/><path class="cls-3" d="M640.38,28.82l-4.8,4.8C416,253.11,184.17,510.4,184.17,770.29c0,251.86,204.31,456.17,456.16,456.17s456.17-204.31,456.17-456.17c0-259.89-231.88-517.18-451.36-736.67Zm0,19.31C858,266.13,1083,520.39,1083,770.29c0,244.51-198.07,442.59-442.59,442.59S197.75,1014.81,197.75,770.29c0-249.9,225-504.13,442.58-722.16Z"/><path class="cls-1" d="M437.44,343.59C332.92,473.94,255.05,612.14,255.05,750c0,200.32,152.68,364.93,347.94,383.73C429,1071.37,304.49,905,304.49,709.56c0-123.2,53.25-246.62,133-366Z"/><path class="cls-3" d="M490.56,698.52A72.45,72.45,0,0,1,418,625.91v-60H563.17v60a72.45,72.45,0,0,1-72.61,72.61Z"/><path class="cls-1" d="M520.58,583.35A23.44,23.44,0,1,0,544,606.79a23.44,23.44,0,0,0-23.44-23.44Z"/><path class="cls-3" d="M790.19,698.52a72.45,72.45,0,0,1-72.62-72.61v-60H862.81v60a72.45,72.45,0,0,1-72.62,72.61Z"/><path class="cls-1" d="M820.2,583.35a23.44,23.44,0,1,0,23.44,23.44,23.45,23.45,0,0,0-23.44-23.44Z"/><path class="cls-6" d="M691.82,828.59c0,22-5.42,43.16-15.07,58.75S654,911.67,640.38,911.67s-26.73-8.75-36.37-24.33-15.07-36.72-15.07-58.75,5.42-43.18,15.07-58.76,22.73-24.33,36.37-24.33,26.72,8.75,36.37,24.33,15.07,36.72,15.07,58.76Z"/><path class="cls-3" d="M582,823.57c-.06,1.66-.1,3.33-.1,5,0,24.12,6,46,16.12,62.45s25.09,27.67,42.38,27.67,32.2-11.26,42.35-27.67,16.12-38.33,16.12-62.45c0-1.69,0-3.36-.09-5H684.66c.05,1.66.11,3.33.11,5,0,21.76-5.55,41.36-14,55s-19.25,21-30.37,21-21.92-7.32-30.38-21-14-33.27-14-55c0-1.69.06-3.36.11-5Z"/><path class="cls-3" d="M640.39,738.45c-17.29,0-32.22,11.28-42.38,27.68s-16.12,38.33-16.12,62.46c0,1.68,0,3.34.1,5H596.1c-.06-1.65-.11-3.32-.11-5,0-21.77,5.55-41.37,14-55s19.26-21,30.38-21,21.91,7.34,30.37,21,14,33.27,14,55c0,1.68,0,3.35-.11,5h14.12c.05-1.66.09-3.32.09-5,0-24.13-6-46.06-16.12-62.46s-25.08-27.68-42.36-27.68Z"/><path class="cls-3" d="M1222.54,600V838.37h113.34V600h-46.77V791.59h-19.8V600Z"/><path class="cls-3" d="M1222.54,369.91V608.29h46.77V416.68h19.8V608.29h46.77V369.91Z"/><rect class="cls-7" x="1245.92" y="393.29" width="66.56" height="421.68"/><path class="cls-3" d="M1240.08,600V820.83h78.26V600h-11.69V809.13h-54.88V600Z"/><path class="cls-3" d="M1240.08,387.45V608.29h11.69V399.14h54.88V608.29h11.69V387.45Z"/><path class="cls-3" d="M1279.2,13c-143.77,0-260.82,117.06-260.82,260.83s117.05,260.82,260.82,260.82c1.39,0,2.78,0,4.16,0V487.82c-1.38,0-2.77.05-4.16.05a214.06,214.06,0,0,1,0-428.11c1.39,0,2.78,0,4.16.06V13c-1.38,0-2.77,0-4.16,0Z"/><path class="cls-3" d="M1279.21,13c-1.39,0-2.78,0-4.16,0V59.82c1.38,0,2.77-.06,4.16-.06a214.06,214.06,0,0,1,0,428.11c-1.39,0-2.78,0-4.16-.05V534.6c1.38,0,2.77,0,4.16,0,143.77,0,260.82-117,260.82-260.82S1423,13,1279.21,13Z"/><path class="cls-8" d="M1516.65,273.81c0,131.14-106.31,237.44-237.44,237.44S1041.77,405,1041.77,273.81s106.3-237.44,237.44-237.44,237.44,106.31,237.44,237.44Z"/><path class="cls-1" d="M1516.65,273.82c0,131.13-106.31,237.44-237.44,237.44S1041.77,405,1041.77,273.82s106.3-237.44,237.44-237.44,237.44,106.3,237.44,237.44Z"/><path class="cls-8" d="M1477.62,273.82a198.42,198.42,0,1,1-58.12-140.3,198.4,198.4,0,0,1,58.12,140.3Z"/><path class="cls-1" d="M1184.21,394.16c15.54,0,24.7-8,24.7-20.16,0-11.75-9.07-15.82-22.76-18.88-9.81-2.22-13.6-3.7-13.6-8.32,0-3.8,3.52-6.85,9.35-6.85,6.1,0,12.48,2.5,18.13,7l7.12-9.8c-6.47-5.56-14.52-8.79-24.89-8.79-13.87,0-23.49,8.05-23.49,19.79,0,12.31,9.52,16.1,22.94,19.15,9.71,2.22,13.42,3.61,13.42,8.14,0,4-3.52,7.13-10.37,7.13-8,0-14.89-3.15-20.9-8.33l-7.87,9.35c7.4,6.84,17.21,10.54,28.22,10.54Z"/><path class="cls-1" d="M1235.16,393.05h13.7V341.8h19.79V329.5h-53.28v12.3h19.79Z"/><path class="cls-1" d="M1306,328.39a33.79,33.79,0,0,0-4.16.27v12.62a18,18,0,0,1,4.16-.5c10.73,0,19.8,9.44,19.8,20.45s-9.07,20.54-19.8,20.54a18,18,0,0,1-4.16-.5v12.62a33.79,33.79,0,0,0,4.16.27c18.41,0,33.76-15.08,33.76-32.93s-15.35-32.84-33.76-32.84Z"/><path class="cls-1" d="M1349.88,329.5v63.55h13.6V372.42h15c.63,0,1.24,0,1.85-.07V359.61a16.8,16.8,0,0,1-3.33.32h-13.5V342H1377a17.6,17.6,0,0,1,3.33.31V329.57c-.61,0-1.22-.07-1.85-.07Z"/><path class="cls-1" d="M1336.41,236.8a58.27,58.27,0,1,1-58.27-58.27,58.27,58.27,0,0,1,58.27,58.27Z"/><path class="cls-1" d="M1232.77,142.09a12.87,12.87,0,0,1,12.9,12.9v76.37a12.9,12.9,0,0,1-25.79,0V155a12.87,12.87,0,0,1,12.89-12.9Z"/><path class="cls-1" d="M1263,118.88a12.87,12.87,0,0,1,12.9,12.9v63.14a12.9,12.9,0,0,1-25.8,0V131.78a12.87,12.87,0,0,1,12.9-12.9Z"/><path class="cls-1" d="M1293.26,106.36a12.87,12.87,0,0,1,12.9,12.89V204a12.9,12.9,0,0,1-25.8,0V119.25a12.87,12.87,0,0,1,12.9-12.89Z"/><path class="cls-1" d="M1323.51,132.55a12.87,12.87,0,0,1,12.89,12.9v85.94a12.9,12.9,0,1,1-25.79,0V145.45a12.87,12.87,0,0,1,12.9-12.9Z"/><path class="cls-1" d="M1355.76,196.63a12.83,12.83,0,0,0-9.78,5.05l-30,39.14,9.53,30,41-53.4a12.92,12.92,0,0,0-10.69-20.75Z"/><path class="cls-3" d="M1279.2,30.53c-1.39,0-2.77,0-4.15,0v11.7c1.38,0,2.76-.06,4.15-.06,128,0,231.6,103.61,231.6,231.59S1407.18,505.4,1279.2,505.4c-1.39,0-2.77,0-4.15,0V517c1.38,0,2.76.05,4.15.05,134.3,0,243.29-109,243.29-243.28S1413.5,30.53,1279.2,30.53Z"/><path class="cls-3" d="M1279.2,30.53c-134.29,0-243.28,109-243.28,243.28s109,243.28,243.28,243.28c1.39,0,2.78,0,4.16-.05V505.35c-1.38,0-2.77,0-4.16,0-128,0-231.59-103.62-231.59-231.59S1151.23,42.22,1279.2,42.22c1.39,0,2.78,0,4.16.06V30.58c-1.38,0-2.77,0-4.16,0Z"/><path class="cls-1" d="M1306,328.39c-18.22,0-33.77,15-33.77,32.84s15.55,32.93,33.77,32.93a33.66,33.66,0,0,0,4.16-.27V381.28a18.56,18.56,0,0,1-4.16.49c-10.64,0-19.71-9.44-19.71-20.54s9.07-20.45,19.71-20.45a18.56,18.56,0,0,1,4.16.49V328.65a33.67,33.67,0,0,0-4.16-.26Z"/><path class="cls-1" d="M1372,329.5V342h5c6.76,0,11.38,3.52,11.38,9s-4.62,9-11.38,9h-5v12.49h6.47c13.79,0,24-8.88,24-21.46s-10.17-21.46-24-21.46Z"/></g></g></svg>