<svg xmlns="http://www.w3.org/2000/svg" xmlns:xlink="http://www.w3.org/1999/xlink" viewBox="0 0 1584.81 1676.12"><defs><style>.cls-1{fill:none;}.cls-2{fill:#fff;}.cls-3{fill:#5fd7e3;}.cls-4{fill:#1a1a1a;}.cls-5{fill:#97f2f8;}.cls-6{fill:#cefffe;}.cls-7{fill:#af0035;}.cls-8{fill:#ff5574;}.cls-9{fill:#b9dae9;}.cls-10{fill:#8bb0cc;}.cls-11{fill:#ff95a2;}.cls-12{fill:#bcbcbc;}.cls-13{fill:#f8486b;}.cls-14{clip-path:url(#clip-path);}.cls-15{fill:#ffdd73;}.cls-16{clip-path:url(#clip-path-2);}.cls-17{fill:#043a9a;}.cls-18{clip-path:url(#clip-path-3);}.cls-19{fill:#be3a2b;}.cls-20{clip-path:url(#clip-path-4);}.cls-21{clip-path:url(#clip-path-5);}.cls-22{clip-path:url(#clip-path-6);}.cls-23{clip-path:url(#clip-path-7);}.cls-24{fill:#3e894c;}</style><clipPath id="clip-path"><rect class="cls-1" x="23.42" y="582.75" width="361.08" height="85.85"/></clipPath><clipPath id="clip-path-2"><rect class="cls-1" x="1200.32" y="407.91" width="361.08" height="85.85"/></clipPath><clipPath id="clip-path-3"><rect class="cls-1" x="1224.74" y="493.77" width="312.24" height="116.13"/></clipPath><clipPath id="clip-path-4"><rect class="cls-1" x="1224.74" y="291.79" width="312.24" height="116.13"/></clipPath><clipPath id="clip-path-5"><rect class="cls-1" x="330.67" y="161.03" width="361.08" height="85.85" transform="translate(307.26 715.17) rotate(-90)"/></clipPath><clipPath id="clip-path-6"><rect class="cls-1" x="456.08" y="145.89" width="312.24" height="116.13" transform="translate(408.25 816.16) rotate(-90)"/></clipPath><clipPath id="clip-path-7"><rect class="cls-1" x="254.1" y="145.89" width="312.24" height="116.13" transform="translate(206.27 614.18) rotate(-90)"/></clipPath></defs><g id="Layer_2" data-name="Layer 2"><g id="Layer_1-2" data-name="Layer 1"><path class="cls-2" d="M834.93,1503.65h-1.37c-.35,0-.71.08-1.06.14s-.69.08-1,.14-.69.14-1,.22l-.92.19h-.14l-.31.14c-.45.14-.91.29-1.36.46l-1,.39c-.32.14-.64.28-1,.44s-.62.31-.92.48-.61.34-.9.52-.58.37-.87.57-.57.4-.85.61l-.8.65-.79.7c-.25.24-.49.49-.73.74s-.48.5-.71.76l-.67.81c-.22.28-.42.55-.63.84s-.4.57-.58.86-.37.59-.55.89-.33.62-.49.94-.3.61-.44.93-.28.64-.4,1-.24.65-.35,1-.22.66-.31,1-.17.67-.25,1-.14.69-.19,1-.11.69-.16,1-.1.69-.14,1,0,.69,0,1v.4c0,.35,0,.69,0,1,0,.12,0,.23,0,.34,0,.34.09.69.15,1s.08.7.14,1,.13.69.22,1,.12.63.19.94v.13c.05.11.09.21.14.31.14.46.29.92.46,1.37s.25.65.39,1,.27.64.42,1,.32.62.48.92.34.61.52.9.37.59.57.88.39.57.6.85l.65.81.7.78c.24.25.49.5.74.73s.51.48.77.71.53.46.8.67.56.43.84.63.57.4.86.58.59.37.89.55.61.33.92.48.63.32,1,.47l1,.39,1,.36c.33.11.67.2,1,.29s.68.19,1,.26.67.14,1,.2l1,.15c.35.06.69.1,1,.14H835a9,9,0,0,0,1,0h.32l1.06-.14,1-.14,1-.23.94-.19h.13l.31-.14c.47-.14.93-.29,1.38-.46s.65-.25,1-.39.65-.28,1-.43.62-.32.92-.49.61-.33.91-.51l.87-.57c.29-.2.58-.41.85-.62s.55-.43.81-.65.53-.45.78-.68l.74-.74c.24-.25.48-.5.71-.76s.45-.53.67-.8l.63-.84c.2-.28.39-.57.58-.86s.37-.59.54-.89.33-.62.49-.93.3-.63.45-.94.26-.63.39-1,.25-.66.36-1,.2-.65.29-1,.19-.67.26-1,.14-.68.2-1,.11-.69.15-1,.1-.7.14-1,0-.69,0-1v-.4q0-.52,0-1c0-.11,0-.21,0-.32,0-.35-.08-.7-.14-1.06s-.08-.68-.14-1-.14-.68-.22-1-.12-.62-.2-.93V1519c0-.1-.09-.21-.14-.31-.13-.45-.28-.91-.45-1.36l-.39-1c-.14-.31-.27-.63-.42-.94s-.32-.62-.49-.92-.34-.61-.52-.91-.37-.58-.57-.86-.4-.57-.61-.85-.43-.54-.65-.81-.46-.53-.7-.79-.48-.5-.74-.74-.5-.48-.76-.71-.54-.44-.81-.65-.55-.43-.84-.63-.58-.4-.87-.59l-.89-.54-.92-.49c-.32-.16-.63-.31-1-.45l-1-.39-1-.37-1-.29-1-.26c-.34-.08-.68-.14-1-.2l-1.05-.15c-.34-.06-.68-.11-1-.14h-1l-.39,0Z"/><path class="cls-2" d="M834.93,1503.65h-1.37c-.35,0-.71.08-1.06.14s-.69.08-1,.14-.69.14-1,.22l-.92.19h-.14l-.31.14c-.45.14-.91.29-1.36.46l-1,.39c-.32.14-.64.28-1,.44s-.62.31-.92.48-.61.34-.9.52-.58.37-.87.57-.57.4-.85.61l-.8.65-.79.7c-.25.24-.49.49-.73.74s-.48.5-.71.76l-.67.81c-.22.28-.42.55-.63.84s-.4.57-.58.86-.37.59-.55.89-.33.62-.49.94-.3.61-.44.93-.28.64-.4,1-.24.65-.35,1-.22.66-.31,1-.17.67-.25,1-.14.69-.19,1-.11.69-.16,1-.1.69-.14,1,0,.69,0,1v.4c0,.35,0,.69,0,1,0,.12,0,.23,0,.34,0,.34.09.69.15,1s.08.71.14,1.06.13.69.22,1,.12.61.19.92v.13c.05.11.09.21.14.31.14.46.29.92.46,1.37s.25.65.39,1,.27.64.42,1,.32.62.48.92.34.61.52.9.37.59.57.88.39.57.6.85l.65.81.7.78c.24.25.49.5.74.73s.51.48.77.71.53.46.8.67.56.43.84.63.57.4.86.58.59.37.89.55.61.33.92.48.63.32,1,.47l1,.39,1,.36c.33.11.67.2,1,.29l1,.25c.33.07.67.14,1,.19s.69.12,1,.16l1,.14h2.81l1.06-.14,1-.14,1-.22.94-.2h.13l.31-.14c.47-.14.93-.29,1.38-.46s.65-.25,1-.39.65-.28,1-.43.62-.32.92-.49.61-.33.91-.51l.87-.57c.29-.2.58-.4.85-.62s.55-.43.81-.65.53-.45.78-.68l.74-.74.71-.75c.23-.27.45-.53.67-.81l.63-.84c.2-.28.39-.57.58-.86s.37-.59.54-.89.33-.62.49-.94.3-.61.45-.93l.39-1c.12-.32.25-.65.36-1s.2-.66.29-1,.19-.67.26-1,.14-.69.2-1,.11-.69.15-1,.1-.7.14-1,0-.69,0-1v-.4c0-.35,0-.71,0-1.06,0-.11,0-.21,0-.32,0-.36-.08-.71-.14-1.06s-.08-.69-.14-1-.14-.69-.22-1-.12-.61-.2-.92V1519c0-.1-.09-.2-.14-.3-.13-.47-.28-.92-.45-1.37l-.39-1c-.14-.32-.27-.64-.42-.95s-.32-.62-.49-.92-.34-.61-.52-.9-.37-.59-.57-.87-.4-.57-.61-.85-.43-.54-.65-.8-.46-.54-.7-.8-.48-.5-.74-.74-.5-.48-.76-.71-.54-.45-.81-.66-.55-.43-.84-.63-.58-.4-.87-.59-.59-.37-.89-.54l-.92-.49-1-.46-1-.39c-.32-.13-.65-.25-1-.36s-.66-.2-1-.29-.67-.19-1-.27-.68-.14-1-.19l-1.05-.15c-.34-.06-.68-.1-1-.14h-1.44Z"/><path class="cls-2" d="M834.93,1503.65h-1.37c-.35,0-.71.08-1.06.14s-.69.08-1,.14-.69.14-1,.22l-.92.19h-.14l-.31.14c-.45.14-.91.29-1.36.46l-1,.39c-.32.14-.64.28-1,.44s-.62.31-.92.48-.61.34-.9.52-.58.37-.87.57-.57.4-.85.61l-.8.65-.79.7c-.25.24-.49.49-.73.74s-.48.5-.71.76l-.67.81c-.22.28-.42.55-.63.84s-.4.57-.58.86-.37.59-.55.89-.33.62-.49.94-.3.61-.44.93-.28.64-.4,1-.24.65-.35,1-.22.66-.31,1-.17.67-.25,1-.14.69-.19,1-.11.69-.16,1-.1.69-.14,1,0,.69,0,1v.4c0,.35,0,.69,0,1,0,.12,0,.23,0,.34,0,.34.09.69.15,1s.08.71.14,1.06.13.69.22,1,.12.61.19.92v.13c.05.11.09.21.14.31.14.46.29.92.46,1.37s.25.65.39,1,.27.64.42,1,.32.62.48.92.34.61.52.9.37.59.57.88.39.57.6.85l.65.81.7.78c.24.25.49.5.74.73s.51.48.77.71.53.46.8.67.56.43.84.63.57.4.86.58.59.37.89.55.61.33.92.48.63.32,1,.47l1,.39,1,.36c.33.11.67.2,1,.29l1,.25c.33.07.67.14,1,.19s.69.12,1,.16l1,.14h2.81l1.06-.14,1-.14,1-.22.94-.2h.13l.31-.14c.47-.14.93-.29,1.38-.46s.65-.25,1-.39.65-.28,1-.43.62-.32.92-.49.61-.33.91-.51l.87-.57c.29-.2.58-.4.85-.62s.55-.43.81-.65.53-.45.78-.68l.74-.74.71-.75c.23-.27.45-.53.67-.81l.63-.84c.2-.28.39-.57.58-.86s.37-.59.54-.89.33-.62.49-.94.3-.61.45-.93l.39-1c.12-.32.25-.65.36-1s.2-.66.29-1,.19-.67.26-1,.14-.69.2-1,.11-.69.15-1,.1-.7.14-1,0-.69,0-1v-.4c0-.35,0-.71,0-1.06,0-.11,0-.21,0-.32,0-.36-.08-.71-.14-1.06s-.08-.69-.14-1-.14-.69-.22-1-.12-.61-.2-.92V1519c0-.1-.09-.2-.14-.3-.13-.47-.28-.92-.45-1.37l-.39-1c-.14-.32-.27-.64-.42-.95s-.32-.62-.49-.92-.34-.61-.52-.9-.37-.59-.57-.87-.4-.57-.61-.85-.43-.54-.65-.8-.46-.54-.7-.8-.48-.5-.74-.74-.5-.48-.76-.71-.54-.45-.81-.66-.55-.43-.84-.63-.58-.4-.87-.59-.59-.37-.89-.54l-.92-.49-1-.46-1-.39c-.32-.13-.65-.25-1-.36s-.66-.2-1-.29-.67-.19-1-.27-.68-.14-1-.19l-1.05-.15c-.34-.06-.68-.1-1-.14h-1.44Z"/><path class="cls-2" d="M834.93,1503.65h-1.37c-.35,0-.71.08-1.06.14s-.69.08-1,.14-.69.14-1,.22l-.92.19h-.14l-.31.14c-.45.14-.91.29-1.36.46l-1,.39c-.32.14-.64.28-1,.44s-.62.31-.92.48-.61.34-.9.52-.58.37-.87.57-.57.4-.85.61l-.8.65-.79.7c-.25.24-.49.49-.73.74s-.48.5-.71.76l-.67.81c-.22.28-.42.55-.63.84s-.4.57-.58.86-.37.59-.55.89-.33.62-.49.94-.3.61-.44.93-.28.64-.4,1-.24.65-.35,1-.22.66-.31,1-.17.67-.25,1-.14.69-.19,1-.11.69-.16,1-.1.69-.14,1,0,.69,0,1v.4c0,.35,0,.69,0,1,0,.12,0,.23,0,.34,0,.34.09.69.15,1s.08.71.14,1.06.13.69.22,1,.12.61.19.92v.13c.05.11.09.21.14.31.14.46.29.92.46,1.37s.25.65.39,1,.27.64.42,1,.32.62.48.92.34.61.52.9.37.59.57.88.39.57.6.85l.65.81.7.78c.24.25.49.5.74.73s.51.48.77.71.53.46.8.67.56.43.84.63.57.4.86.58.59.37.89.55.61.33.92.48.63.32,1,.47l1,.39,1,.36c.33.11.67.2,1,.29l1,.25c.33.07.67.14,1,.19s.69.12,1,.16l1,.14h2.81l1.06-.14,1-.14,1-.22.94-.2h.13l.31-.14c.47-.14.93-.29,1.38-.46s.65-.25,1-.39.65-.28,1-.43.62-.32.92-.49.61-.33.91-.51l.87-.57c.29-.2.58-.4.85-.62s.55-.43.81-.65.53-.45.78-.68l.74-.74.71-.75c.23-.27.45-.53.67-.81l.63-.84c.2-.28.39-.57.58-.86s.37-.59.54-.89.33-.62.49-.94.3-.61.45-.93l.39-1c.12-.32.25-.65.36-1s.2-.66.29-1,.19-.67.26-1,.14-.69.2-1,.11-.69.15-1,.1-.7.14-1,0-.69,0-1v-.4c0-.35,0-.71,0-1.06,0-.11,0-.21,0-.32,0-.36-.08-.71-.14-1.06s-.08-.69-.14-1-.14-.69-.22-1-.12-.61-.2-.92V1519c0-.1-.09-.2-.14-.3-.13-.47-.28-.92-.45-1.37l-.39-1c-.14-.32-.27-.64-.42-.95s-.32-.62-.49-.92-.34-.61-.52-.9-.37-.59-.57-.87-.4-.57-.61-.85-.43-.54-.65-.8-.46-.54-.7-.8-.48-.5-.74-.74-.5-.48-.76-.71-.54-.45-.81-.66-.55-.43-.84-.63-.58-.4-.87-.59-.59-.37-.89-.54l-.92-.49-1-.46-1-.39c-.32-.13-.65-.25-1-.36s-.66-.2-1-.29-.67-.19-1-.27-.68-.14-1-.19l-1.05-.15c-.34-.06-.68-.1-1-.14h-1.44Z"/><path class="cls-2" d="M834.93,1503.65h-1.37c-.35,0-.71.08-1.06.14s-.69.08-1,.14-.69.14-1,.22l-.92.19h-.14l-.31.14c-.45.14-.91.29-1.36.46l-1,.39c-.32.14-.64.28-1,.44s-.62.31-.92.48-.61.34-.9.52-.58.37-.87.57-.57.4-.85.61l-.8.65-.79.7c-.25.24-.49.49-.73.74s-.48.5-.71.76l-.67.81c-.22.28-.42.55-.63.84s-.4.57-.58.86-.37.59-.55.89-.33.62-.49.94-.3.61-.44.93-.28.64-.4,1-.24.65-.35,1-.22.66-.31,1-.17.67-.25,1-.14.69-.19,1-.11.69-.16,1-.1.69-.14,1,0,.69,0,1v.4c0,.35,0,.69,0,1,0,.12,0,.23,0,.34,0,.34.09.69.15,1s.08.71.14,1.06.13.69.22,1,.12.61.19.92v.13c.05.11.09.21.14.31.14.46.29.92.46,1.37s.25.65.39,1,.27.64.42,1,.32.62.48.92.34.61.52.9.37.59.57.88.39.57.6.85l.65.81.7.78c.24.25.49.5.74.73s.51.48.77.71.53.46.8.67.56.43.84.63.57.4.86.58.59.37.89.55.61.33.92.48.63.32,1,.47l1,.39,1,.36c.33.11.67.2,1,.29l1,.25c.33.07.67.14,1,.19s.69.12,1,.16l1,.14h2.81l1.06-.14,1-.14,1-.22.94-.2h.13l.31-.14c.47-.14.93-.29,1.38-.46s.65-.25,1-.39.65-.28,1-.43.62-.32.92-.49.61-.33.91-.51l.87-.57c.29-.2.58-.4.85-.62s.55-.43.81-.65.53-.45.78-.68l.74-.74.71-.75c.23-.27.45-.53.67-.81l.63-.84c.2-.28.39-.57.58-.86s.37-.59.54-.89.33-.62.49-.94.3-.61.45-.93l.39-1c.12-.32.25-.65.36-1s.2-.66.29-1,.19-.67.26-1,.14-.69.2-1,.11-.69.15-1,.1-.7.14-1,0-.69,0-1v-.4c0-.35,0-.71,0-1.06,0-.11,0-.21,0-.32,0-.36-.08-.71-.14-1.06s-.08-.69-.14-1-.14-.69-.22-1-.12-.61-.2-.92V1519c0-.1-.09-.2-.14-.3-.13-.47-.28-.92-.45-1.37l-.39-1c-.14-.32-.27-.64-.42-.95s-.32-.62-.49-.92-.34-.61-.52-.9-.37-.59-.57-.87-.4-.57-.61-.85-.43-.54-.65-.8-.46-.54-.7-.8-.48-.5-.74-.74-.5-.48-.76-.71-.54-.45-.81-.66-.55-.43-.84-.63-.58-.4-.87-.59-.59-.37-.89-.54l-.92-.49-1-.46-1-.39c-.32-.13-.65-.25-1-.36s-.66-.2-1-.29-.67-.19-1-.27-.68-.14-1-.19l-1.05-.15c-.34-.06-.68-.1-1-.14h-1.44Z"/><path class="cls-2" d="M834.93,1503.65h-1.37c-.35,0-.71.08-1.06.14s-.69.08-1,.14-.69.14-1,.22l-.92.19h-.14l-.31.14c-.45.14-.91.29-1.36.46l-1,.39c-.32.14-.64.28-1,.44s-.62.31-.92.48-.61.34-.9.52-.58.37-.87.57-.57.4-.85.61l-.8.65-.79.7c-.25.24-.49.49-.73.74s-.48.5-.71.76l-.67.81c-.22.28-.42.55-.63.84s-.4.57-.58.86-.37.59-.55.89-.33.62-.49.94-.3.61-.44.93-.28.64-.4,1-.24.65-.35,1-.22.66-.31,1-.17.67-.25,1-.14.69-.19,1-.11.69-.16,1-.1.69-.14,1,0,.69,0,1v.4c0,.35,0,.69,0,1,0,.12,0,.23,0,.34,0,.34.09.69.15,1s.08.71.14,1.06.13.69.22,1,.12.61.19.92v.13c.05.11.09.21.14.31.14.46.29.92.46,1.37s.25.65.39,1,.27.64.42,1,.32.62.48.92.34.61.52.9.37.59.57.88.39.57.6.85l.65.81.7.78c.24.25.49.5.74.73s.51.48.77.71.53.46.8.67.56.43.84.63.57.4.86.58.59.37.89.55.61.33.92.48.63.32,1,.47l1,.39,1,.36c.33.11.67.2,1,.29l1,.25c.33.07.67.14,1,.19s.69.12,1,.16l1,.14h2.81l1.06-.14,1-.14,1-.22.94-.2h.13l.31-.14c.47-.14.93-.29,1.38-.46s.65-.25,1-.39.65-.28,1-.43.62-.32.92-.49.61-.33.91-.51l.87-.57c.29-.2.58-.4.85-.62s.55-.43.81-.65.53-.45.78-.68l.74-.74.71-.75c.23-.27.45-.53.67-.81l.63-.84c.2-.28.39-.57.58-.86s.37-.59.54-.89.33-.62.49-.94.3-.61.45-.93l.39-1c.12-.32.25-.65.36-1s.2-.66.29-1,.19-.67.26-1,.14-.69.2-1,.11-.69.15-1,.1-.7.14-1,0-.69,0-1v-.4c0-.35,0-.71,0-1.06,0-.11,0-.21,0-.32,0-.36-.08-.71-.14-1.06s-.08-.69-.14-1-.14-.69-.22-1-.12-.61-.2-.92V1519c0-.1-.09-.2-.14-.3-.13-.47-.28-.92-.45-1.37l-.39-1c-.14-.32-.27-.64-.42-.95s-.32-.62-.49-.92-.34-.61-.52-.9-.37-.59-.57-.87-.4-.57-.61-.85-.43-.54-.65-.8-.46-.54-.7-.8-.48-.5-.74-.74-.5-.48-.76-.71-.54-.45-.81-.66-.55-.43-.84-.63-.58-.4-.87-.59-.59-.37-.89-.54l-.92-.49-1-.46-1-.39c-.32-.13-.65-.25-1-.36s-.66-.2-1-.29-.67-.19-1-.27-.68-.14-1-.19l-1.05-.15c-.34-.06-.68-.1-1-.14h-1.44Z"/><path class="cls-2" d="M834.93,1503.65h-1.37c-.35,0-.71.08-1.06.14s-.69.08-1,.14-.69.14-1,.22l-.92.19h-.14l-.31.14c-.45.14-.91.29-1.36.46l-1,.39c-.32.14-.64.28-1,.44s-.62.31-.92.48-.61.34-.9.52-.58.37-.87.57-.57.4-.85.61l-.8.65-.79.7c-.25.24-.49.49-.73.74s-.48.5-.71.76l-.67.81c-.22.28-.42.55-.63.84s-.4.57-.58.86-.37.59-.55.89-.33.62-.49.94-.3.61-.44.93-.28.64-.4,1-.24.65-.35,1-.22.66-.31,1-.17.67-.25,1-.14.69-.19,1-.11.69-.16,1-.1.69-.14,1,0,.69,0,1v.4c0,.35,0,.69,0,1,0,.12,0,.23,0,.34,0,.34.09.69.15,1s.08.71.14,1.06.13.69.22,1,.12.61.19.92v.13c.05.11.09.21.14.31.14.46.29.92.46,1.37s.25.65.39,1,.27.64.42,1,.32.62.48.92.34.61.52.9.37.59.57.88.39.57.6.85l.65.81.7.78c.24.25.49.5.74.73s.51.48.77.71.53.46.8.67.56.43.84.63.57.4.86.58.59.37.89.55.61.33.92.48.63.32,1,.47l1,.39,1,.36c.33.11.67.2,1,.29l1,.25c.33.07.67.14,1,.19s.69.12,1,.16l1,.14h2.81l1.06-.14,1-.14,1-.22.94-.2h.13l.31-.14c.47-.14.93-.29,1.38-.46s.65-.25,1-.39.65-.28,1-.43.62-.32.92-.49.61-.33.91-.51l.87-.57c.29-.2.58-.4.85-.62s.55-.43.81-.65.53-.45.78-.68l.74-.74.71-.75c.23-.27.45-.53.67-.81l.63-.84c.2-.28.39-.57.58-.86s.37-.59.54-.89.33-.62.49-.94.3-.61.45-.93l.39-1c.12-.32.25-.65.36-1s.2-.66.29-1,.19-.67.26-1,.14-.69.2-1,.11-.69.15-1,.1-.7.14-1,0-.69,0-1v-.4c0-.35,0-.71,0-1.06,0-.11,0-.21,0-.32,0-.36-.08-.71-.14-1.06s-.08-.69-.14-1-.14-.69-.22-1-.12-.61-.2-.92V1519c0-.1-.09-.2-.14-.3-.13-.47-.28-.92-.45-1.37l-.39-1c-.14-.32-.27-.64-.42-.95s-.32-.62-.49-.92-.34-.61-.52-.9-.37-.59-.57-.87-.4-.57-.61-.85-.43-.54-.65-.8-.46-.54-.7-.8-.48-.5-.74-.74-.5-.48-.76-.71-.54-.45-.81-.66-.55-.43-.84-.63-.58-.4-.87-.59-.59-.37-.89-.54l-.92-.49-1-.46-1-.39c-.32-.13-.65-.25-1-.36s-.66-.2-1-.29-.67-.19-1-.27-.68-.14-1-.19l-1.05-.15c-.34-.06-.68-.1-1-.14h-1.44Z"/><path class="cls-2" d="M834.93,1503.65h-1.37c-.35,0-.71.08-1.06.14s-.69.08-1,.14-.69.14-1,.22l-.92.19h-.14l-.31.14c-.45.14-.91.29-1.36.46l-1,.39c-.32.14-.64.28-1,.44s-.62.31-.92.48-.61.34-.9.52-.58.37-.87.57-.57.4-.85.61l-.8.65-.79.7c-.25.24-.49.49-.73.74s-.48.5-.71.76l-.67.81c-.22.28-.42.55-.63.84s-.4.57-.58.86-.37.59-.55.89-.33.62-.49.94-.3.61-.44.93-.28.64-.4,1-.24.65-.35,1-.22.66-.31,1-.17.67-.25,1-.14.69-.19,1-.11.69-.16,1-.1.69-.14,1,0,.69,0,1v.4c0,.35,0,.69,0,1,0,.12,0,.23,0,.34,0,.34.09.69.15,1s.08.71.14,1.06.13.69.22,1,.12.61.19.92v.13c.05.11.09.21.14.31.14.46.29.92.46,1.37s.25.65.39,1,.27.64.42,1,.32.62.48.92.34.61.52.9.37.59.57.88.39.57.6.85l.65.81.7.78c.24.25.49.5.74.73s.51.48.77.71.53.46.8.67.56.43.84.63.57.4.86.58.59.37.89.55.61.33.92.48.63.32,1,.47l1,.39,1,.36c.33.11.67.2,1,.29l1,.25c.33.07.67.14,1,.19s.69.12,1,.16l1,.14h2.81l1.06-.14,1-.14,1-.22.94-.2h.13l.31-.14c.47-.14.93-.29,1.38-.46s.65-.25,1-.39.65-.28,1-.43.62-.32.92-.49.61-.33.91-.51l.87-.57c.29-.2.58-.4.85-.62s.55-.43.81-.65.53-.45.78-.68l.74-.74.71-.75c.23-.27.45-.53.67-.81l.63-.84c.2-.28.39-.57.58-.86s.37-.59.54-.89.33-.62.49-.94.3-.61.45-.93l.39-1c.12-.32.25-.65.36-1s.2-.66.29-1,.19-.67.26-1,.14-.69.2-1,.11-.69.15-1,.1-.7.14-1,0-.69,0-1v-.4c0-.35,0-.71,0-1.06,0-.11,0-.21,0-.32,0-.36-.08-.71-.14-1.06s-.08-.69-.14-1-.14-.69-.22-1-.12-.61-.2-.92V1519c0-.1-.09-.2-.14-.3-.13-.47-.28-.92-.45-1.37l-.39-1c-.14-.32-.27-.64-.42-.95s-.32-.62-.49-.92-.34-.61-.52-.9-.37-.59-.57-.87-.4-.57-.61-.85-.43-.54-.65-.8-.46-.54-.7-.8-.48-.5-.74-.74-.5-.48-.76-.71-.54-.45-.81-.66-.55-.43-.84-.63-.58-.4-.87-.59-.59-.37-.89-.54l-.92-.49-1-.46-1-.39c-.32-.13-.65-.25-1-.36s-.66-.2-1-.29-.67-.19-1-.27-.68-.14-1-.19l-1.05-.15c-.34-.06-.68-.1-1-.14h-1.44Z"/><path class="cls-2" d="M834.93,1503.65h-1.37c-.35,0-.71.08-1.06.14s-.69.08-1,.14-.69.14-1,.22l-.92.19h-.14l-.31.14c-.45.14-.91.29-1.36.46l-1,.39c-.32.14-.64.28-1,.44s-.62.31-.92.48-.61.34-.9.52-.58.37-.87.57-.57.4-.85.61l-.8.65-.79.7c-.25.24-.49.49-.73.74s-.48.5-.71.76l-.67.81c-.22.28-.42.55-.63.84s-.4.57-.58.86-.37.59-.55.89-.33.62-.49.94-.3.61-.44.93-.28.64-.4,1-.24.65-.35,1-.22.66-.31,1-.17.67-.25,1-.14.69-.19,1-.11.69-.16,1-.1.69-.14,1,0,.69,0,1v.4c0,.35,0,.69,0,1,0,.12,0,.23,0,.34,0,.34.09.69.15,1s.08.71.14,1.06.13.69.22,1,.12.61.19.92v.13c.05.11.09.21.14.31.14.46.29.92.46,1.37s.25.65.39,1,.27.64.42,1,.32.62.48.92.34.61.52.9.37.59.57.88.39.57.6.85l.65.81.7.78c.24.25.49.5.74.73s.51.48.77.71.53.46.8.67.56.43.84.63.57.4.86.58.59.37.89.55.61.33.92.48.63.32,1,.47l1,.39,1,.36c.33.11.67.2,1,.29l1,.25c.33.07.67.14,1,.19s.69.12,1,.16l1,.14h2.81l1.06-.14,1-.14,1-.22.94-.2h.13l.31-.14c.47-.14.93-.29,1.38-.46s.65-.25,1-.39.65-.28,1-.43.62-.32.92-.49.61-.33.91-.51l.87-.57c.29-.2.58-.4.85-.62s.55-.43.81-.65.53-.45.78-.68l.74-.74.71-.75c.23-.27.45-.53.67-.81l.63-.84c.2-.28.39-.57.58-.86s.37-.59.54-.89.33-.62.49-.94.3-.61.45-.93l.39-1c.12-.32.25-.65.36-1s.2-.66.29-1,.19-.67.26-1,.14-.69.2-1,.11-.69.15-1,.1-.7.14-1,0-.69,0-1v-.4c0-.35,0-.71,0-1.06,0-.11,0-.21,0-.32,0-.36-.08-.71-.14-1.06s-.08-.69-.14-1-.14-.69-.22-1-.12-.61-.2-.92V1519c0-.1-.09-.2-.14-.3-.13-.47-.28-.92-.45-1.37l-.39-1c-.14-.32-.27-.64-.42-.95s-.32-.62-.49-.92-.34-.61-.52-.9-.37-.59-.57-.87-.4-.57-.61-.85-.43-.54-.65-.8-.46-.54-.7-.8-.48-.5-.74-.74-.5-.48-.76-.71-.54-.45-.81-.66-.55-.43-.84-.63-.58-.4-.87-.59-.59-.37-.89-.54l-.92-.49-1-.46-1-.39c-.32-.13-.65-.25-1-.36s-.66-.2-1-.29-.67-.19-1-.27-.68-.14-1-.19l-1.05-.15c-.34-.06-.68-.1-1-.14h-1.44Z"/><path class="cls-2" d="M834.93,1503.65h-1.37c-.35,0-.71.08-1.06.14s-.69.08-1,.14-.69.14-1,.22l-.92.19h-.14l-.31.14c-.45.14-.91.29-1.36.46l-1,.39c-.32.14-.64.28-1,.44s-.62.31-.92.48-.61.34-.9.52-.58.37-.87.57-.57.4-.85.61l-.8.65-.79.7c-.25.24-.49.49-.73.74s-.48.5-.71.76l-.67.81c-.22.28-.42.55-.63.84s-.4.57-.58.86-.37.59-.55.89-.33.62-.49.94-.3.61-.44.93-.28.64-.4,1-.24.65-.35,1-.22.66-.31,1-.17.67-.25,1-.14.69-.19,1-.11.69-.16,1-.1.69-.14,1,0,.69,0,1v.4c0,.35,0,.69,0,1,0,.12,0,.23,0,.34,0,.34.09.69.15,1s.08.71.14,1.06.13.69.22,1,.12.61.19.92v.13c.05.11.09.21.14.31.14.46.29.92.46,1.37s.25.65.39,1,.27.64.42,1,.32.62.48.92.34.61.52.9.37.59.57.88.39.57.6.85l.65.81.7.78c.24.25.49.5.74.73s.51.48.77.71.53.46.8.67.56.43.84.63.57.4.86.58.59.37.89.55.61.33.92.48.63.32,1,.47l1,.39,1,.36c.33.11.67.2,1,.29l1,.25c.33.07.67.14,1,.19s.69.12,1,.16l1,.14h2.81l1.06-.14,1-.14,1-.22.94-.2h.13l.31-.14c.47-.14.93-.29,1.38-.46s.65-.25,1-.39.65-.28,1-.43.62-.32.92-.49.61-.33.91-.51l.87-.57c.29-.2.58-.4.85-.62s.55-.43.81-.65.53-.45.78-.68l.74-.74.71-.75c.23-.27.45-.53.67-.81l.63-.84c.2-.28.39-.57.58-.86s.37-.59.54-.89.33-.62.49-.94.3-.61.45-.93l.39-1c.12-.32.25-.65.36-1s.2-.66.29-1,.19-.67.26-1,.14-.69.2-1,.11-.69.15-1,.1-.7.14-1,0-.69,0-1v-.4c0-.35,0-.71,0-1.06,0-.11,0-.21,0-.32,0-.36-.08-.71-.14-1.06s-.08-.69-.14-1-.14-.69-.22-1-.12-.61-.2-.92V1519c0-.1-.09-.2-.14-.3-.13-.47-.28-.92-.45-1.37l-.39-1c-.14-.32-.27-.64-.42-.95s-.32-.62-.49-.92-.34-.61-.52-.9-.37-.59-.57-.87-.4-.57-.61-.85-.43-.54-.65-.8-.46-.54-.7-.8-.48-.5-.74-.74-.5-.48-.76-.71-.54-.45-.81-.66-.55-.43-.84-.63-.58-.4-.87-.59-.59-.37-.89-.54l-.92-.49-1-.46-1-.39c-.32-.13-.65-.25-1-.36s-.66-.2-1-.29-.67-.19-1-.27-.68-.14-1-.19l-1.05-.15c-.34-.06-.68-.1-1-.14h-1.44Z"/><path class="cls-3" d="M744.6,1477.69c-21.15,78.91-77.52,184-110,175.33S605.9,1525.1,627,1446.19s60.11-85.36,84.15-78.92,54.55,31.51,33.41,110.42Z"/><path class="cls-4" d="M715.58,1350.86a69,69,0,0,0-57.22,9.91c-19.85,13.76-36.5,39.17-47.72,81-11.06,41.28-17.39,91.7-16.89,134.34.25,21.32,2.12,40.61,6.69,56.65s12.22,31.94,29.79,36.64,32.13-5.23,44.11-16.84,23.24-27.37,34.12-45.71c21.76-36.68,41.48-83.51,52.54-124.79,11.22-41.86,9.5-72.18-.81-94a69,69,0,0,0-44.61-37.2Zm-8.79,32.81c8.43,2.26,17,6.85,22.69,18.88s8.64,33.7-1.28,70.74c-10.09,37.63-29.12,82.82-49,116.25-9.92,16.72-20.16,30.54-28.54,38.65-6.28,6.09-10.47,7.59-11.6,8.1-.73-1-3.61-4.4-6-12.82-3.19-11.21-5.16-28.3-5.39-47.73-.45-38.87,5.65-87.52,15.74-125.15,9.93-37,23.33-54.33,34.26-61.91s20.65-7.27,29.08-5Z"/><path class="cls-3" d="M1049.63,1461.32c0,81.69-27.25,197.82-60.85,197.82S927.93,1543,927.93,1461.32s36-98,60.85-98,60.85,16.32,60.85,98Z"/><path class="cls-4" d="M988.78,1346.33a69,69,0,0,0-52.72,24.38C920.46,1389.14,911,1418,911,1461.32c0,42.74,6.93,93.07,18.45,134.13,5.76,20.54,12.55,38.68,21.12,53s20.08,27.68,38.26,27.68,29.69-13.36,38.26-27.68,15.36-32.45,21.12-53c11.52-41.06,18.45-91.39,18.45-134.13,0-43.33-9.51-72.18-25.12-90.61a69,69,0,0,0-52.71-24.38Zm0,34c8.73,0,18.2,2.22,26.8,12.37s17.06,30.31,17.06,68.66c0,39-6.68,87.53-17.19,125-5.25,18.71-11.57,34.71-17.56,44.72-4.49,7.51-8.15,10-9.11,10.83-1-.8-4.62-3.32-9.12-10.83-6-10-12.31-26-17.56-44.72-10.5-37.43-17.19-86-17.19-125,0-38.35,8.48-58.51,17.07-68.66s18.07-12.37,26.8-12.37Z"/><path class="cls-3" d="M374.26,1129.72c-73.54-35.58-166.21-110.67-151.58-140.92s131-4.21,204.58,31.37,72.56,75.06,61.73,97.45-41.19,47.67-114.73,12.1Z"/><path class="cls-4" d="M504.27,1125a68.92,68.92,0,0,0,1-58.07c-9.79-22.08-31.61-43.2-70.63-62.07-38.46-18.61-86.8-34.29-128.78-41.8-21-3.75-40.28-5.54-56.9-4.06s-33.66,6-41.57,22.38-.9,32.54,8.25,46.49,22.53,28,38.5,42.09c32,28.26,74.25,56.42,112.72,75,39,18.87,69.11,22.87,92.5,16.84a68.92,68.92,0,0,0,44.9-36.83Zm-30.57-14.79c-3.8,7.86-9.92,15.42-22.8,18.74s-34.72,2.17-69.25-14.54c-35.06-17-75.88-44.14-105-69.89-14.56-12.87-26.21-25.53-32.61-35.29-4.8-7.31-5.49-11.7-5.78-12.91,1.13-.53,5-2.72,13.72-3.49,11.62-1,28.77.24,47.9,3.66,38.26,6.85,84.9,22,120,38.94,34.53,16.7,49,33.11,54.38,45.27s3.26,21.65-.54,29.51Z"/><path class="cls-3" d="M1219.3,1040.38c75.06-32.24,192.51-53,205.77-22.15s-82.68,101.74-157.74,134-104.26,5.63-114.07-17.24-9-62.35,66-94.59Z"/><path class="cls-4" d="M1137.66,1141.67a68.94,68.94,0,0,0,43.2,38.82c23.09,7.06,53.34,4.42,93.17-12.68,39.26-16.87,82.78-43.1,116-69.89,16.59-13.4,30.58-26.8,40.35-40.32s17.51-29.37,10.34-46.08-24-22-40.53-24.22-35.89-1.31-57,1.5c-42.27,5.62-91.26,19.11-130.52,36-39.82,17.1-62.58,37.22-73.35,58.84a68.9,68.9,0,0,0-1.59,58.05Zm31.2-13.4c-3.45-8-5.15-17.59.78-29.5s21.12-27.65,56.36-42.79c35.8-15.37,83.07-28.39,121.6-33.51,19.26-2.56,36.46-3.07,48-1.51,8.67,1.17,12.44,3.53,13.55,4.1-.35,1.2-1.23,5.55-6.36,12.65-6.83,9.45-19,21.57-34.16,33.78-30.24,24.42-72.23,49.74-108,65.11-35.24,15.14-57.1,15.31-69.82,11.41s-18.5-11.72-21.94-19.74Z"/><path class="cls-4" d="M835,286.92l-19.21,19.21C595.67,526.2,358.41,785.1,358.41,1057.2c0,262.88,213.68,476.56,476.54,476.56s476.56-213.68,476.56-476.56c0-272.1-237.27-531-457.34-751.07Zm0,77.28c212.15,214.11,422.2,460.52,422.2,693,0,233.5-188.71,422.21-422.21,422.21s-422.2-188.7-422.2-422.2c0-232.48,210.06-478.9,422.21-693Z"/><path class="cls-3" d="M1284.33,1057.21c0-255.82-230.08-512.58-449.37-731.86-219.29,219.28-449.38,476-449.38,731.86,0,248.18,201.19,449.37,449.38,449.37s449.37-201.19,449.37-449.37Z"/><path class="cls-5" d="M835,325.35c-216.31,216.3-443.1,469.07-449.22,721.43,54.56,167,211.56,287.64,396.76,287.64,230.5,0,417.36-186.86,417.36-417.36,0-92.84-32.63-185.82-84.55-276.81C1034.25,530,933.52,423.9,835,325.35Z"/><path class="cls-6" d="M835,325.35C678,482.27,515.6,658.38,435.89,839.6,483.56,952.74,595.48,1032.17,726,1032.17c173.76,0,314.63-140.87,314.63-314.63,0-119.28-71.48-238.84-164.55-350.76Q855.49,345.86,835,325.35Z"/><path class="cls-4" d="M835,315.74l-4.8,4.8C610.67,540,378.79,797.32,378.79,1057.21c0,251.85,204.31,456.17,456.16,456.17s456.18-204.32,456.18-456.18c0-259.89-231.89-517.17-451.37-736.66Zm0,19.31c217.61,218,442.58,472.25,442.58,722.15,0,244.52-198.07,442.59-442.59,442.59s-442.57-198.07-442.57-442.58c0-249.9,225-504.13,442.58-722.16Z"/><path class="cls-2" d="M632.06,630.51C527.55,760.86,449.68,899.06,449.68,1036.94c0,200.32,152.67,364.93,347.93,383.73-174-62.36-298.5-228.72-298.5-424.17,0-123.21,53.25-246.63,132.95-366Z"/><path class="cls-4" d="M654.61,858.43a69.84,69.84,0,0,1,70,70v35.07a70,70,0,1,1-140,0V928.42a69.84,69.84,0,0,1,70-70Z"/><path class="cls-2" d="M695.34,908.61A22.59,22.59,0,1,1,672.75,886a22.59,22.59,0,0,1,22.59,22.59Z"/><path class="cls-4" d="M943.41,858.43a69.84,69.84,0,0,1,70,70v35.07a70,70,0,1,1-140,0V928.42a69.84,69.84,0,0,1,70-70Z"/><path class="cls-2" d="M984.14,908.61A22.59,22.59,0,1,1,961.55,886a22.59,22.59,0,0,1,22.59,22.59Z"/><path class="cls-7" d="M724.48,1054.15a15.5,15.5,0,0,0-15.54,15.54v17.54a90.07,90.07,0,0,0,180.13,0v-17.54a15.5,15.5,0,0,0-15.54-15.54Z"/><path class="cls-8" d="M799,1115.6a89.81,89.81,0,0,0-67.85,30.85,90.07,90.07,0,0,0,135.71,0A89.83,89.83,0,0,0,799,1115.6Z"/><path class="cls-2" d="M724.48,1054.15a15.5,15.5,0,0,0-15.54,15.54v15.65a207.46,207.46,0,0,0,180.13.06v-15.71a15.5,15.5,0,0,0-15.54-15.54Z"/><path class="cls-9" d="M724.48,1054.15a15.5,15.5,0,0,0-15.54,15.54v15.65a210.28,210.28,0,0,0,31.47,11.82c-6.14-4.15-7.32-9.89-7.32-18.91v-24.1Z"/><path class="cls-9" d="M840.76,1054.15v24.1c0,12.16-3.11,22.69-13.56,25.49a209.85,209.85,0,0,0,61.87-18.34v-15.71a15.5,15.5,0,0,0-15.54-15.54Z"/><path class="cls-10" d="M873.53,1054.15a15.5,15.5,0,0,1,15.54,15.54v15.65a210.28,210.28,0,0,1-31.47,11.82c6.14-4.15,7.31-9.89,7.31-18.91v-24.1Z"/><path class="cls-4" d="M724.48,1047.35a22.44,22.44,0,0,0-22.34,22.34v17.54a96.86,96.86,0,1,0,193.72,0v-17.54a22.43,22.43,0,0,0-22.33-22.34Zm0,13.59h149a8.58,8.58,0,0,1,8.75,8.75v17.54a83.28,83.28,0,0,1-166.55,0v-17.54a8.59,8.59,0,0,1,8.75-8.75Z"/><path class="cls-4" d="M708.52,1081.65l-3,6.11a213.22,213.22,0,0,0,186.93,0l-3-6.11a206.39,206.39,0,0,1-181,0Z"/><path class="cls-11" d="M789,1139.86c0,2.8-1.58,5.48-4.39,7.46a18.6,18.6,0,0,1-10.59,3.09c-8.27,0-15-4.72-15-10.55s6.7-10.54,15-10.55a18.67,18.67,0,0,1,10.59,3.09c2.81,2,4.39,4.66,4.39,7.46Z"/><circle class="cls-12" cx="203.96" cy="625.68" r="203.96"/><circle class="cls-13" cx="204.2" cy="625.68" r="159.05"/><g class="cls-14"><circle class="cls-15" cx="203.96" cy="625.68" r="159.05"/></g><circle class="cls-12" cx="1380.86" cy="450.84" r="203.96"/><g class="cls-16"><circle class="cls-17" cx="1380.86" cy="450.84" r="159.05"/></g><g class="cls-18"><circle class="cls-19" cx="1380.86" cy="450.84" r="159.05"/></g><g class="cls-20"><circle class="cls-2" cx="1380.86" cy="450.84" r="159.05"/></g><circle class="cls-12" cx="511.21" cy="203.96" r="203.96"/><g class="cls-21"><circle class="cls-2" cx="511.21" cy="203.96" r="159.05"/></g><g class="cls-22"><circle class="cls-19" cx="511.21" cy="203.96" r="159.05"/></g><g class="cls-23"><circle class="cls-24" cx="511.21" cy="203.96" r="159.05"/></g></g></g></svg>